<svg id="Layer_1" data-name="Layer 1" xmlns="http://www.w3.org/2000/svg" viewBox="0 0 73 73"><defs></defs><circle style="fill:#fff;" cx="36.5" cy="36.5" r="35.5"/><circle style="fill:#2081b7;" cx="36.5" cy="36.5" r="31.8"/><circle style="fill:#154168;" cx="35.4" cy="37.6" r="30.7"/><circle style="fill:#1a528e;" cx="36.05" cy="36.95" r="30.06"/><path style="fill:#d8d8d8;" d="M48.89,35.71c-.75-1.81-4.84-5.42-10.23-8.89-5.07-3.27-9.77-5.44-11.94-5.64h-.47a2.66,2.66,0,0,0-2.49,2.65,2.63,2.63,0,0,0,.8,1.89l1.78,1.11c5.39,3.47,9.48,7.08,10.23,8.89a3.2,3.2,0,0,1,.35,1.45,3.24,3.24,0,0,1-.81,2.14c-1.39,2-5.09,5.07-9.77,8.08-.6.39-1.2.76-1.78,1.12a2.62,2.62,0,0,0-.8,1.88A2.66,2.66,0,0,0,26.22,53h.47c2.16-.18,6.88-2.36,12-5.64,4.68-3,8.38-6.13,9.76-8.08a3.19,3.19,0,0,0,.47-3.59Z"/><path style="fill:#fafbfa;" d="M48.89,34.5c-.75-1.8-4.84-5.41-10.23-8.88-5.07-3.27-9.77-5.44-11.94-5.64h-.47a2.65,2.65,0,0,0-1.69,4.54c.59.35,1.18.72,1.78,1.11,5.39,3.47,9.48,7.08,10.23,8.88a3.23,3.23,0,0,1-.46,3.6c-1.39,1.95-5.09,5.07-9.77,8.08-.6.39-1.2.76-1.78,1.11a2.64,2.64,0,0,0,1.66,4.53h.47c2.16-.18,6.88-2.36,12-5.64,4.68-3,8.38-6.13,9.76-8.08A3.2,3.2,0,0,0,49.24,36,3.24,3.24,0,0,0,48.89,34.5Z"/></svg>