<svg id="Layer_1" data-name="Layer 1" xmlns="http://www.w3.org/2000/svg" viewBox="0 0 136.41 162.99"><defs><style>.cls-1{fill:#fff;}.cls-2{fill:#096491;}.cls-3{fill:#0581ce;}</style></defs><path class="cls-1" d="M84.07,80.17l-79-79A2.24,2.24,0,0,0,1.39,2.71C-.12,17.82-2.12,66.39,29.27,97.78c0,0,11.52,10.17,24.23-2.53,0,0,5.88-4.82,10.24-.46Z" transform="translate(-0.68 -0.6)"/><path class="cls-2" d="M40.5,107.79l47.75,47.75a27.52,27.52,0,0,0,38.91,0h0a27.52,27.52,0,0,0,0-38.91L79.41,68.88Zm55.78,40.15a16.46,16.46,0,1,1,23.28,0A16.44,16.44,0,0,1,96.28,147.94Z" transform="translate(-0.68 -0.6)"/><path class="cls-3" d="M42.38,105.91l47.75,47.75a27.51,27.51,0,0,0,38.9,0h0a27.5,27.5,0,0,0,0-38.91L81.28,67Zm55.77,40.16a16.47,16.47,0,1,1,23.29,0A16.47,16.47,0,0,1,98.15,146.07Z" transform="translate(-0.68 -0.6)"/></svg>