<svg id="Layer_1" data-name="Layer 1" xmlns="http://www.w3.org/2000/svg" viewBox="0 0 73 73"><defs><style>.cls-1{fill:#fff;}.cls-2{fill:#2081b7;}.cls-3{fill:#154168;}.cls-4{fill:#1a528e;}.cls-5{opacity:0.57;}.cls-6{fill:#d8d8d8;}.cls-7{fill:#fbfcfa;}</style></defs><circle class="cls-1" cx="36.5" cy="36.5" r="35.5"/><circle class="cls-2" cx="36.5" cy="36.5" r="31.8"/><circle class="cls-3" cx="35.4" cy="37.6" r="30.7"/><circle class="cls-4" cx="36.05" cy="36.95" r="30.06"/><g class="cls-5"><path class="cls-6" d="M52.17,46.3a7.59,7.59,0,0,1-1.29,3.12,6.51,6.51,0,1,1-6.2-10.31,6.3,6.3,0,0,1,3.75.57l.46.21V29.68L29.25,35.25v.64c0,5.36,0,10.72,0,16.08a6.52,6.52,0,1,1-7.57-6.34,6.84,6.84,0,0,1,4.31.8V24.73c0-1.34.35-1.82,1.63-2.18l22.16-6.3c1.17-.33,1.7-.1,2.39,1.05Z"/><path class="cls-7" d="M51.27,45.85A7.93,7.93,0,0,1,50,49a6.52,6.52,0,1,1-6.21-10.32,6.37,6.37,0,0,1,3.75.58l.47.2V29.22L28.34,34.8v.64c0,5.36,0,10.72,0,16.07a6.52,6.52,0,1,1-7.57-6.33,6.82,6.82,0,0,1,4.31.8V24.28c0-1.34.35-1.82,1.63-2.18l22.17-6.31c1.17-.33,1.7-.09,2.39,1.05Z"/></g><rect class="cls-1" x="2.8" y="34.7" width="67.91" height="4.42" transform="translate(-15.33 36.8) rotate(-45)"/></svg>