<svg xmlns="http://www.w3.org/2000/svg" viewBox="0 0 290 269"><defs><style>.cls-1{isolation:isolate;}.cls-2{fill:#ba8e49;}.cls-3{fill:#93683d;}.cls-4{fill:#c17e2f;}.cls-5{fill:#a07740;}.cls-11,.cls-5{opacity:0.48;}.cls-6{fill:#d19b54;}.cls-7{fill:#b2671b;}.cls-8{fill:#fff;}.cls-12,.cls-8{opacity:0.31;}.cls-9{mix-blend-mode:color-dodge;}.cls-10,.cls-11,.cls-12{fill:#a85e13;}</style></defs><g class="cls-1"><g id="Layer_1" data-name="Layer 1"><path class="cls-2" d="M259,203h6.27A5.81,5.81,0,0,1,259,203Z"/><path class="cls-2" d="M21.69,55.56c30-73.26,217.21-73.26,247.25,0C282.29,88.14,283.87,203,283.87,203H265.29a12.21,12.21,0,0,0,4.21-5.42c8-17.34,2.22-113.63-10.48-140.92-27.81-59.76-199.6-59.76-227.41,0C18.91,83.94,13.1,180.23,21.13,197.57A12.22,12.22,0,0,0,25.35,203H6.77S8.34,88.14,21.69,55.56Z"/><path class="cls-2" d="M31.61,203a5.79,5.79,0,0,1-6.26,0Z"/><path class="cls-3" d="M26.23,56.65C13.58,87.52,11.5,190.16,11.31,203H6.77S8.34,88.14,21.69,55.56C41.88,6.32,133.05-9.82,199.79,7.13,133.53-8,46,8.52,26.23,56.65Z"/><path class="cls-3" d="M263.55,57.74C276.25,85,282.06,181.32,274,198.66a14.65,14.65,0,0,1-2.86,4.33h-5.88a12.21,12.21,0,0,0,4.21-5.42c8-17.34,2.22-113.63-10.48-140.92-8.61-18.51-31-31.28-58.72-38.33C230.05,25.09,254.47,38.23,263.55,57.74Z"/><path class="cls-4" d="M145.47,214.83h138.4s-2.38,18.75-10.18,32.58-28.83,20.53-28.83,20.53H46.08s-21-6.7-28.83-20.53S7.07,214.83,7.07,214.83Z"/><path class="cls-2" d="M6.51,214.83H284.43c3.09,0,5.6-3.29,5.6-7.36h0c0-4.07-2.51-7.36-5.6-7.36H6.51c-3.09,0-5.6,3.29-5.6,7.36h0C.91,211.54,3.42,214.83,6.51,214.83Z"/><path class="cls-5" d="M6.51,200.11H40.85c0,4.06,2.51,7.36,5.6,7.36H290c0,4.07-2.51,7.36-5.6,7.36H6.51c-3.09,0-5.6-3.29-5.6-7.36h0C.91,203.4,3.42,200.11,6.51,200.11Z"/><path class="cls-6" d="M277.3,222.34a36.27,36.27,0,0,0-7.14-.16c-1,.07-1.86-1.16-1.82-2.4a2.22,2.22,0,0,1,1.82-2.4,37.88,37.88,0,0,1,7.14.16,1.78,1.78,0,0,1,1.29.7,2.93,2.93,0,0,1,.53,1.7c0,1.2-.81,2.52-1.82,2.4Z"/><path class="cls-6" d="M274.08,232.34a7.49,7.49,0,0,0-1.69-.52l.48.08a7.31,7.31,0,0,0-2.38,0l.48-.08a7.6,7.6,0,0,0-2.09.71,1.48,1.48,0,0,1-1.41-.24,2.4,2.4,0,0,1-.83-1.43,3.06,3.06,0,0,1,.18-1.85,2.28,2.28,0,0,1,1.09-1.1,8.28,8.28,0,0,1,7.14-.19,2.61,2.61,0,0,1,1.27,2.95c-.29,1.18-1.28,2.1-2.24,1.67Z"/><path class="cls-6" d="M271.67,240.38a11.21,11.21,0,0,1-4.9.48,1.73,1.73,0,0,1-1.29-.7,2.79,2.79,0,0,1-.53-1.69,2.84,2.84,0,0,1,.53-1.7,1.6,1.6,0,0,1,1.29-.7,10,10,0,0,0,3.09-.07l-.48.09a10.61,10.61,0,0,0,1.32-.33,1.51,1.51,0,0,1,1.4.24,2.46,2.46,0,0,1,.84,1.44,3.11,3.11,0,0,1-.19,1.84,2,2,0,0,1-1.08,1.1Z"/><path class="cls-6" d="M265.75,250.21a17.18,17.18,0,0,0-2.85.27l.49-.09a19.68,19.68,0,0,0-2.9.77,1.84,1.84,0,0,1-2.24-1.67,2.6,2.6,0,0,1,1.27-3,19.39,19.39,0,0,1,6.23-1.12,2.2,2.2,0,0,1,1.82,2.4c-.05,1.3-.8,2.38-1.82,2.39Z"/><path class="cls-6" d="M253.34,259.48l-3,.57a1.08,1.08,0,0,1-.73,0,1.17,1.17,0,0,1-.68-.29,2.46,2.46,0,0,1-.84-1.43,3.15,3.15,0,0,1,.19-1.85l.28-.48a1.84,1.84,0,0,1,.81-.62l3-.56a1.06,1.06,0,0,1,.72-.05,1.15,1.15,0,0,1,.68.29,2.46,2.46,0,0,1,.84,1.43,3.15,3.15,0,0,1-.19,1.85l-.28.48a1.88,1.88,0,0,1-.8.62Z"/><path class="cls-6" d="M261,224a16.72,16.72,0,0,0-4.79.12l.49-.09c-.34.06-.67.13-1,.21a1.58,1.58,0,0,1-1.4-.24,2.52,2.52,0,0,1-.84-1.44c-.2-1.17.27-2.71,1.28-3a17.85,17.85,0,0,1,6.26-.4,1.72,1.72,0,0,1,1.28.7,2.84,2.84,0,0,1,.54,1.69c0,1.2-.81,2.52-1.82,2.4Z"/><path class="cls-6" d="M258.48,235q-.44-.12-.87-.21c-.11,0-.61-.17-.12,0a1.84,1.84,0,0,0-.4-.06,13.75,13.75,0,0,0-1.69-.14,16.1,16.1,0,0,0-1.7.06l-.81.1c-.42.06.33-.07,0,0l-.54.12a1.55,1.55,0,0,1-1.4-.25,2.46,2.46,0,0,1-.84-1.43c-.2-1.16.27-2.72,1.27-2.95a16.54,16.54,0,0,1,8.12.16c.93.25,1.56,1.77,1.27,2.95s-1.24,1.94-2.24,1.67Z"/><path class="cls-6" d="M253.2,247.13h-5.09a2.19,2.19,0,0,1-1.82-2.4c0-1.3.8-2.39,1.82-2.39h5.09a2.2,2.2,0,0,1,1.82,2.39c-.05,1.3-.8,2.4-1.82,2.4Z"/><path class="cls-6" d="M244.38,255.16h-4.07a1.7,1.7,0,0,1-1.29-.7,2.86,2.86,0,0,1-.53-1.7c0-1.29.8-2.39,1.82-2.39h4.07a1.71,1.71,0,0,1,1.29.7,2.93,2.93,0,0,1,.53,1.69c0,1.3-.8,2.4-1.82,2.4Z"/><path class="cls-6" d="M235.9,262.75h-5.43a2.19,2.19,0,0,1-1.82-2.4c0-1.3.8-2.4,1.82-2.4h5.43a2.21,2.21,0,0,1,1.82,2.4c-.05,1.3-.8,2.4-1.82,2.4Z"/><path class="cls-6" d="M221.65,262.76a21.43,21.43,0,0,1-5.9-.62,2,2,0,0,1-1.09-1.1,3.16,3.16,0,0,1-.18-1.85,2.42,2.42,0,0,1,.83-1.43,1.59,1.59,0,0,1,1.41-.24c.41.1.82.18,1.24.26l-.49-.09a18.34,18.34,0,0,0,4.18.27c.95,0,1.87,1.14,1.82,2.4s-.8,2.35-1.82,2.4Z"/><path class="cls-6" d="M230.47,255.64l-6.1-.54a1.73,1.73,0,0,1-1.29-.7,2.86,2.86,0,0,1-.53-1.7c0-1.22.8-2.49,1.82-2.39l6.1.54a1.76,1.76,0,0,1,1.29.7,2.93,2.93,0,0,1,.53,1.69c0,1.23-.8,2.49-1.82,2.4Z"/><path class="cls-6" d="M236.25,247.91l-4.43-.69a1.81,1.81,0,0,1-1.29-.7,2.86,2.86,0,0,1-.53-1.7,2.81,2.81,0,0,1,.53-1.69,1.56,1.56,0,0,1,1.29-.7l4.43.69a1.79,1.79,0,0,1,1.28.7,2.87,2.87,0,0,1,.54,1.7,2.82,2.82,0,0,1-.54,1.69,1.55,1.55,0,0,1-1.28.7Z"/><path class="cls-6" d="M241.19,239.8l-4.42-.82c-.42-.07-.88-.64-1.09-1.1a3.22,3.22,0,0,1-.18-1.85,2.49,2.49,0,0,1,.84-1.43l.43-.24a1.47,1.47,0,0,1,1,0l4.42.82a2,2,0,0,1,1.09,1.1,3.14,3.14,0,0,1,.18,1.85,2.38,2.38,0,0,1-.84,1.43l-.43.24a1.35,1.35,0,0,1-1,0Z"/><path class="cls-6" d="M245.73,230.2a12.58,12.58,0,0,1-5.9-1.47,2.16,2.16,0,0,1-1.09-1.1,3.12,3.12,0,0,1-.19-1.84,2.54,2.54,0,0,1,.84-1.44,1.43,1.43,0,0,1,1.41-.24,12,12,0,0,0,3.5,1.22l-.48-.09a11.19,11.19,0,0,0,1.91.16,2.21,2.21,0,0,1,1.83,2.4c-.05,1.3-.8,2.4-1.83,2.4Z"/><path class="cls-6" d="M247.43,221.76l-5.43-.55a1.69,1.69,0,0,1-1.28-.7,2.84,2.84,0,0,1-.54-1.69c0-1.22.81-2.5,1.82-2.4l5.43.55a1.71,1.71,0,0,1,1.28.7,2.86,2.86,0,0,1,.54,1.69c0,1.22-.81,2.5-1.82,2.4Z"/><path class="cls-6" d="M230.13,223.52a24.13,24.13,0,0,0-3.5-.11c-.56,0-1.12.06-1.68.13l-.84.1-.49.08.14,0-.28.06a1.58,1.58,0,0,1-1.4-.25,2.46,2.46,0,0,1-.84-1.43c-.2-1.13.26-2.75,1.27-2.95a26.72,26.72,0,0,1,7.62-.4,2.22,2.22,0,0,1,1.82,2.4c0,1.22-.8,2.5-1.82,2.4Z"/><path class="cls-6" d="M229.45,232.85h-7.12a2.19,2.19,0,0,1-1.82-2.4c0-1.3.8-2.39,1.82-2.39h7.12a2.18,2.18,0,0,1,1.82,2.39c0,1.3-.8,2.4-1.82,2.4Z"/><path class="cls-6" d="M223.34,243.59a9.42,9.42,0,0,0-3.09,0l.48-.09a10.61,10.61,0,0,0-1.32.33,1.51,1.51,0,0,1-1.4-.24,2.46,2.46,0,0,1-.84-1.43,3.13,3.13,0,0,1,.18-1.85,2.06,2.06,0,0,1,1.09-1.1,10.91,10.91,0,0,1,4.9-.46,1.79,1.79,0,0,1,1.29.71,2.82,2.82,0,0,1,.54,1.69,2.89,2.89,0,0,1-.54,1.69,1.57,1.57,0,0,1-1.29.71Z"/><path class="cls-6" d="M214.19,252H207.4a2.2,2.2,0,0,1-1.82-2.4c0-1.3.8-2.4,1.82-2.4h6.79a2.21,2.21,0,0,1,1.82,2.4c0,1.3-.8,2.4-1.82,2.4Z"/><path class="cls-6" d="M206.4,262.48a66.91,66.91,0,0,1-10.87.22,2.21,2.21,0,0,1-1.82-2.39c0-1.25.8-2.46,1.82-2.4a65.8,65.8,0,0,0,10.87-.23c.95-.1,1.86,1.17,1.82,2.4a2.24,2.24,0,0,1-1.82,2.4Z"/><path class="cls-6" d="M196.39,252.93c-.38-.09-.77-.17-1.16-.24l.48.09a21.35,21.35,0,0,0-3.91-.32,2.19,2.19,0,0,1-1.82-2.4c0-1.3.8-2.38,1.82-2.39a23.32,23.32,0,0,1,5.56.64,2,2,0,0,1,1.09,1.1,3.15,3.15,0,0,1,.18,1.85,2.42,2.42,0,0,1-.83,1.43,1.62,1.62,0,0,1-1.41.24Z"/><path class="cls-6" d="M208.42,242.67h-3.73a1.68,1.68,0,0,1-1.29-.71,2.88,2.88,0,0,1-.53-1.69c0-1.3.8-2.4,1.82-2.4h3.73a1.68,1.68,0,0,1,1.29.71,2.81,2.81,0,0,1,.53,1.69c0,1.3-.8,2.4-1.82,2.4Z"/><path class="cls-6" d="M213.7,230.09l-2.7-.51a1.32,1.32,0,0,1-.62-.43,1.73,1.73,0,0,1-.47-.67,2.13,2.13,0,0,1-.22-.9,2.54,2.54,0,0,1,0-1,2.48,2.48,0,0,1,.84-1.43L211,225a1.47,1.47,0,0,1,1,0l2.7.51a1.32,1.32,0,0,1,.62.43,1.69,1.69,0,0,1,.47.68,2.2,2.2,0,0,1,.22.89,2.34,2.34,0,0,1,0,.95,2.42,2.42,0,0,1-.83,1.43l-.44.25a1.47,1.47,0,0,1-1,0Z"/><path class="cls-6" d="M212.15,222.59H203a2.21,2.21,0,0,1-1.82-2.4c.05-1.3.8-2.4,1.82-2.4h9.16a2.18,2.18,0,0,1,1.82,2.4c0,1.3-.8,2.4-1.82,2.4Z"/><path class="cls-6" d="M188.41,221.69h-3.06a1.66,1.66,0,0,1-1.28-.7,2.93,2.93,0,0,1,0-3.39,1.68,1.68,0,0,1,1.28-.7h3.06a1.71,1.71,0,0,1,1.29.7,2.93,2.93,0,0,1,.53,1.7,2.88,2.88,0,0,1-.53,1.69,1.71,1.71,0,0,1-1.29.7Z"/><path class="cls-6" d="M197.41,235.08c-.44-.11-.88-.21-1.32-.29l.49.09a18.37,18.37,0,0,0-4.44-.24c-.95.06-1.87-1.15-1.82-2.4a2.22,2.22,0,0,1,1.82-2.4,20.29,20.29,0,0,1,6.24.62,2,2,0,0,1,1.09,1.1,3.12,3.12,0,0,1,.18,1.84c-.32,1.32-1.24,1.93-2.24,1.68Z"/><path class="cls-6" d="M181,240.88H176.2a2.2,2.2,0,0,1-1.83-2.4c0-1.29.8-2.39,1.83-2.39H181a2.2,2.2,0,0,1,1.82,2.39c-.05,1.3-.8,2.4-1.82,2.4Z"/><path class="cls-6" d="M180.94,254.28a7.78,7.78,0,0,0-2.36,0l.48-.08a7.55,7.55,0,0,0-1.37.38,1.5,1.5,0,0,1-1.4-.25,2.46,2.46,0,0,1-.84-1.43,3.15,3.15,0,0,1,.19-1.85,2.13,2.13,0,0,1,1.09-1.1,8.68,8.68,0,0,1,4.21-.5,1.16,1.16,0,0,1,.71.21,1.34,1.34,0,0,1,.58.49,2.93,2.93,0,0,1,0,3.39,1.56,1.56,0,0,1-1.29.7Z"/><path class="cls-6" d="M180.27,264.53H174.5a2.19,2.19,0,0,1-1.82-2.39c0-1.3.8-2.4,1.82-2.4h5.77a2.2,2.2,0,0,1,1.82,2.4c-.05,1.29-.8,2.39-1.82,2.39Z"/><path class="cls-6" d="M160.26,264.44a34.22,34.22,0,0,0-8.15-.32c-1,.08-1.86-1.16-1.82-2.4a2.22,2.22,0,0,1,1.82-2.39,33.71,33.71,0,0,1,8.15.32,1.78,1.78,0,0,1,1.29.7,2.83,2.83,0,0,1,.53,1.69c0,1.17-.8,2.56-1.82,2.4Z"/><path class="cls-6" d="M162.48,251.09c-.45-.13-.9-.23-1.36-.32l.49.09a13.74,13.74,0,0,0-3.73-.15,1.67,1.67,0,0,1-1.29-.7,2.93,2.93,0,0,1-.53-1.7,2.23,2.23,0,0,1,1.82-2.4,15.49,15.49,0,0,1,5.57.55c.93.26,1.56,1.77,1.27,2.95s-1.24,2-2.24,1.68Z"/><path class="cls-6" d="M172,225.15l-2.37-.47a1.43,1.43,0,0,1-.62-.43,1.76,1.76,0,0,1-.47-.67,2.28,2.28,0,0,1-.21-.89,2.22,2.22,0,0,1,0-1,2.43,2.43,0,0,1,.84-1.43l.43-.24a1.35,1.35,0,0,1,1,0l2.37.47a1.32,1.32,0,0,1,.62.43,1.66,1.66,0,0,1,.47.67,2.29,2.29,0,0,1,.22.9,2.35,2.35,0,0,1,0,.95,2.42,2.42,0,0,1-.83,1.43l-.44.24a1.35,1.35,0,0,1-1,0Z"/><path class="cls-6" d="M149.4,223.92h-9.16a2.19,2.19,0,0,1-1.82-2.39c0-1.3.8-2.4,1.82-2.4h9.16a2.2,2.2,0,0,1,1.82,2.4c0,1.3-.8,2.39-1.82,2.39Z"/><path class="cls-6" d="M157.73,238.12a6.67,6.67,0,0,0-1.37-.39l.48.08a7.07,7.07,0,0,0-2.34,0l.49-.09a8.33,8.33,0,0,0-1.38.39,1.85,1.85,0,0,1-2.24-1.67,2.63,2.63,0,0,1,1.27-2.95,8.34,8.34,0,0,1,6.06,0,2.6,2.6,0,0,1,1.28,2.95c-.3,1.22-1.27,2.06-2.25,1.68Z"/><path class="cls-6" d="M134.68,239.84l-.74-.15.48.09a21,21,0,0,0-5.71-.21c-1,.1-1.87-1.17-1.82-2.4a2.21,2.21,0,0,1,1.82-2.39,22.14,22.14,0,0,1,6.93.44,1.93,1.93,0,0,1,1.09,1.1,3.14,3.14,0,0,1,.19,1.85,2.48,2.48,0,0,1-.84,1.43,1.64,1.64,0,0,1-1.4.24Z"/><path class="cls-6" d="M138.88,252h-4.75a2.2,2.2,0,0,1-1.82-2.4c.05-1.3.8-2.4,1.82-2.4h4.75a2.19,2.19,0,0,1,1.82,2.4c0,1.3-.8,2.4-1.82,2.4Z"/><path class="cls-6" d="M125.31,261h-5.08a2.19,2.19,0,0,1-1.83-2.39c0-1.3.81-2.4,1.83-2.4h5.08a2.2,2.2,0,0,1,1.83,2.4c0,1.29-.8,2.39-1.83,2.39Z"/><path class="cls-6" d="M96.83,260.44l-5.11-.63a1.78,1.78,0,0,1-1.29-.7,2.93,2.93,0,0,1-.53-1.7,2.81,2.81,0,0,1,.53-1.69,1.6,1.6,0,0,1,1.29-.7l5.11.63a1.72,1.72,0,0,1,1.28.7,2.93,2.93,0,0,1,0,3.39,1.59,1.59,0,0,1-1.28.7Z"/><path class="cls-6" d="M114.8,246.25a11.46,11.46,0,0,1-4.89-1,2.09,2.09,0,0,1-1.09-1.1,3.12,3.12,0,0,1-.19-1.84,2.54,2.54,0,0,1,.84-1.44,1.46,1.46,0,0,1,1.4-.24,10.69,10.69,0,0,0,2.43.76l-.49-.09a10.21,10.21,0,0,0,2,.16c1,0,1.86,1.11,1.82,2.39s-.8,2.38-1.82,2.4Z"/><path class="cls-6" d="M97.5,233.3H89.36a2.2,2.2,0,0,1-1.82-2.4c0-1.3.8-2.4,1.82-2.4H97.5a2.19,2.19,0,0,1,1.82,2.4c0,1.3-.8,2.4-1.82,2.4Z"/><path class="cls-6" d="M113.67,225.93a3.87,3.87,0,0,0-1-.33l.49.08a4.23,4.23,0,0,0-1.42,0l.49-.09-.3.06a1.09,1.09,0,0,1-.73,0,1.17,1.17,0,0,1-.68-.29,2.46,2.46,0,0,1-.84-1.43,3.15,3.15,0,0,1,.19-1.85,1.93,1.93,0,0,1,1.09-1.1,5.37,5.37,0,0,1,1.87-.18,5.7,5.7,0,0,1,1.84.45,2.11,2.11,0,0,1,1.09,1.11,3.12,3.12,0,0,1,.19,1.84,2.48,2.48,0,0,1-.84,1.43,1.46,1.46,0,0,1-1.41.25Z"/><path class="cls-6" d="M70.52,219.49l-6.12,1.25a1.58,1.58,0,0,1-1.4-.24,2.46,2.46,0,0,1-.84-1.43,3.13,3.13,0,0,1,.19-1.85c.24-.49.63-1,1.09-1.1l6.11-1.26a1.6,1.6,0,0,1,1.41.25,2.5,2.5,0,0,1,.83,1.43,3,3,0,0,1-.18,1.84,2,2,0,0,1-1.09,1.11Z"/><path class="cls-7" d="M29.86,214.53a87.69,87.69,0,0,0,8,21.42c7.81,13.83,28.84,20.53,28.84,20.53H265.48l.3-.11c-9.16,7.57-20.76,11.26-20.76,11.26H46.24s-21-6.69-28.83-20.52S7.23,214.53,7.23,214.53Z"/><path class="cls-3" d="M284.43,214.83l-277.2-.3,3.66,16.63s100-9,152.07-9.27,120.45-4.09,120.45-4.09Z"/><path class="cls-8" d="M104.51,206.24H282.39a1.47,1.47,0,0,0,1.23-1.62h0a1.47,1.47,0,0,0-1.23-1.62H104.51a1.47,1.47,0,0,0-1.23,1.62h0A1.47,1.47,0,0,0,104.51,206.24Z"/><g class="cls-9"><path class="cls-10" d="M259,203h6.27A5.81,5.81,0,0,1,259,203Z"/><path class="cls-10" d="M21.69,55.56c30-73.26,217.21-73.26,247.25,0C282.29,88.14,283.87,203,283.87,203H265.29a12.21,12.21,0,0,0,4.21-5.42c8-17.34,2.22-113.63-10.48-140.92-27.81-59.76-199.6-59.76-227.41,0C18.91,83.94,13.1,180.23,21.13,197.57A12.22,12.22,0,0,0,25.35,203H6.77S8.34,88.14,21.69,55.56Z"/><path class="cls-10" d="M31.61,203a5.79,5.79,0,0,1-6.26,0Z"/><path class="cls-10" d="M26.23,56.65C13.58,87.52,11.5,190.16,11.31,203H6.77S8.34,88.14,21.69,55.56C41.88,6.32,133.05-9.82,199.79,7.13,133.53-8,46,8.52,26.23,56.65Z"/><path class="cls-10" d="M263.55,57.74C276.25,85,282.06,181.32,274,198.66a14.65,14.65,0,0,1-2.86,4.33h-5.88a12.21,12.21,0,0,0,4.21-5.42c8-17.34,2.22-113.63-10.48-140.92-8.61-18.51-31-31.28-58.72-38.33C230.05,25.09,254.47,38.23,263.55,57.74Z"/><path class="cls-10" d="M145.47,214.83h138.4s-2.38,18.75-10.18,32.58-28.83,20.53-28.83,20.53H46.08s-21-6.7-28.83-20.53S7.07,214.83,7.07,214.83Z"/><path class="cls-10" d="M6.51,214.83H284.43c3.09,0,5.6-3.29,5.6-7.36h0c0-4.07-2.51-7.36-5.6-7.36H6.51c-3.09,0-5.6,3.29-5.6,7.36h0C.91,211.54,3.42,214.83,6.51,214.83Z"/><path class="cls-11" d="M6.51,200.11H40.85c0,4.06,2.51,7.36,5.6,7.36H290c0,4.07-2.51,7.36-5.6,7.36H6.51c-3.09,0-5.6-3.29-5.6-7.36h0C.91,203.4,3.42,200.11,6.51,200.11Z"/><path class="cls-10" d="M277.3,222.34a36.27,36.27,0,0,0-7.14-.16c-1,.07-1.86-1.16-1.82-2.4a2.22,2.22,0,0,1,1.82-2.4,37.88,37.88,0,0,1,7.14.16,1.78,1.78,0,0,1,1.29.7,2.93,2.93,0,0,1,.53,1.7c0,1.2-.81,2.52-1.82,2.4Z"/><path class="cls-10" d="M274.08,232.34a7.49,7.49,0,0,0-1.69-.52l.48.08a7.31,7.31,0,0,0-2.38,0l.48-.08a7.6,7.6,0,0,0-2.09.71,1.48,1.48,0,0,1-1.41-.24,2.4,2.4,0,0,1-.83-1.43,3.06,3.06,0,0,1,.18-1.85,2.28,2.28,0,0,1,1.09-1.1,8.28,8.28,0,0,1,7.14-.19,2.61,2.61,0,0,1,1.27,2.95c-.29,1.18-1.28,2.1-2.24,1.67Z"/><path class="cls-10" d="M271.67,240.38a11.21,11.21,0,0,1-4.9.48,1.73,1.73,0,0,1-1.29-.7,2.79,2.79,0,0,1-.53-1.69,2.84,2.84,0,0,1,.53-1.7,1.6,1.6,0,0,1,1.29-.7,10,10,0,0,0,3.09-.07l-.48.09a10.61,10.61,0,0,0,1.32-.33,1.51,1.51,0,0,1,1.4.24,2.46,2.46,0,0,1,.84,1.44,3.11,3.11,0,0,1-.19,1.84,2,2,0,0,1-1.08,1.1Z"/><path class="cls-10" d="M265.75,250.21a17.18,17.18,0,0,0-2.85.27l.49-.09a19.68,19.68,0,0,0-2.9.77,1.84,1.84,0,0,1-2.24-1.67,2.6,2.6,0,0,1,1.27-3,19.39,19.39,0,0,1,6.23-1.12,2.2,2.2,0,0,1,1.82,2.4c-.05,1.3-.8,2.38-1.82,2.39Z"/><path class="cls-10" d="M253.34,259.48l-3,.57a1.08,1.08,0,0,1-.73,0,1.17,1.17,0,0,1-.68-.29,2.46,2.46,0,0,1-.84-1.43,3.15,3.15,0,0,1,.19-1.85l.28-.48a1.84,1.84,0,0,1,.81-.62l3-.56a1.06,1.06,0,0,1,.72-.05,1.15,1.15,0,0,1,.68.29,2.46,2.46,0,0,1,.84,1.43,3.15,3.15,0,0,1-.19,1.85l-.28.48a1.88,1.88,0,0,1-.8.62Z"/><path class="cls-10" d="M261,224a16.72,16.72,0,0,0-4.79.12l.49-.09c-.34.06-.67.13-1,.21a1.58,1.58,0,0,1-1.4-.24,2.52,2.52,0,0,1-.84-1.44c-.2-1.17.27-2.71,1.28-3a17.85,17.85,0,0,1,6.26-.4,1.72,1.72,0,0,1,1.28.7,2.84,2.84,0,0,1,.54,1.69c0,1.2-.81,2.52-1.82,2.4Z"/><path class="cls-10" d="M258.48,235q-.44-.12-.87-.21c-.11,0-.61-.17-.12,0a1.84,1.84,0,0,0-.4-.06,13.75,13.75,0,0,0-1.69-.14,16.1,16.1,0,0,0-1.7.06l-.81.1c-.42.06.33-.07,0,0l-.54.12a1.55,1.55,0,0,1-1.4-.25,2.46,2.46,0,0,1-.84-1.43c-.2-1.16.27-2.72,1.27-2.95a16.54,16.54,0,0,1,8.12.16c.93.25,1.56,1.77,1.27,2.95s-1.24,1.94-2.24,1.67Z"/><path class="cls-10" d="M253.2,247.13h-5.09a2.19,2.19,0,0,1-1.82-2.4c0-1.3.8-2.39,1.82-2.39h5.09a2.2,2.2,0,0,1,1.82,2.39c-.05,1.3-.8,2.4-1.82,2.4Z"/><path class="cls-10" d="M244.38,255.16h-4.07a1.7,1.7,0,0,1-1.29-.7,2.86,2.86,0,0,1-.53-1.7c0-1.29.8-2.39,1.82-2.39h4.07a1.71,1.71,0,0,1,1.29.7,2.93,2.93,0,0,1,.53,1.69c0,1.3-.8,2.4-1.82,2.4Z"/><path class="cls-10" d="M235.9,262.75h-5.43a2.19,2.19,0,0,1-1.82-2.4c0-1.3.8-2.4,1.82-2.4h5.43a2.21,2.21,0,0,1,1.82,2.4c-.05,1.3-.8,2.4-1.82,2.4Z"/><path class="cls-10" d="M221.65,262.76a21.43,21.43,0,0,1-5.9-.62,2,2,0,0,1-1.09-1.1,3.16,3.16,0,0,1-.18-1.85,2.42,2.42,0,0,1,.83-1.43,1.59,1.59,0,0,1,1.41-.24c.41.1.82.18,1.24.26l-.49-.09a18.34,18.34,0,0,0,4.18.27c.95,0,1.87,1.14,1.82,2.4s-.8,2.35-1.82,2.4Z"/><path class="cls-10" d="M230.47,255.64l-6.1-.54a1.73,1.73,0,0,1-1.29-.7,2.86,2.86,0,0,1-.53-1.7c0-1.22.8-2.49,1.82-2.39l6.1.54a1.76,1.76,0,0,1,1.29.7,2.93,2.93,0,0,1,.53,1.69c0,1.23-.8,2.49-1.82,2.4Z"/><path class="cls-10" d="M236.25,247.91l-4.43-.69a1.81,1.81,0,0,1-1.29-.7,2.86,2.86,0,0,1-.53-1.7,2.81,2.81,0,0,1,.53-1.69,1.56,1.56,0,0,1,1.29-.7l4.43.69a1.79,1.79,0,0,1,1.28.7,2.87,2.87,0,0,1,.54,1.7,2.82,2.82,0,0,1-.54,1.69,1.55,1.55,0,0,1-1.28.7Z"/><path class="cls-10" d="M241.19,239.8l-4.42-.82c-.42-.07-.88-.64-1.09-1.1a3.22,3.22,0,0,1-.18-1.85,2.49,2.49,0,0,1,.84-1.43l.43-.24a1.47,1.47,0,0,1,1,0l4.42.82a2,2,0,0,1,1.09,1.1,3.14,3.14,0,0,1,.18,1.85,2.38,2.38,0,0,1-.84,1.43l-.43.24a1.35,1.35,0,0,1-1,0Z"/><path class="cls-10" d="M245.73,230.2a12.58,12.58,0,0,1-5.9-1.47,2.16,2.16,0,0,1-1.09-1.1,3.12,3.12,0,0,1-.19-1.84,2.54,2.54,0,0,1,.84-1.44,1.43,1.43,0,0,1,1.41-.24,12,12,0,0,0,3.5,1.22l-.48-.09a11.19,11.19,0,0,0,1.91.16,2.21,2.21,0,0,1,1.83,2.4c-.05,1.3-.8,2.4-1.83,2.4Z"/><path class="cls-10" d="M247.43,221.76l-5.43-.55a1.69,1.69,0,0,1-1.28-.7,2.84,2.84,0,0,1-.54-1.69c0-1.22.81-2.5,1.82-2.4l5.43.55a1.71,1.71,0,0,1,1.28.7,2.86,2.86,0,0,1,.54,1.69c0,1.22-.81,2.5-1.82,2.4Z"/><path class="cls-10" d="M230.13,223.52a24.13,24.13,0,0,0-3.5-.11c-.56,0-1.12.06-1.68.13l-.84.1-.49.08.14,0-.28.06a1.58,1.58,0,0,1-1.4-.25,2.46,2.46,0,0,1-.84-1.43c-.2-1.13.26-2.75,1.27-2.95a26.72,26.72,0,0,1,7.62-.4,2.22,2.22,0,0,1,1.82,2.4c0,1.22-.8,2.5-1.82,2.4Z"/><path class="cls-10" d="M229.45,232.85h-7.12a2.19,2.19,0,0,1-1.82-2.4c0-1.3.8-2.39,1.82-2.39h7.12a2.18,2.18,0,0,1,1.82,2.39c0,1.3-.8,2.4-1.82,2.4Z"/><path class="cls-10" d="M223.34,243.59a9.42,9.42,0,0,0-3.09,0l.48-.09a10.61,10.61,0,0,0-1.32.33,1.51,1.51,0,0,1-1.4-.24,2.46,2.46,0,0,1-.84-1.43,3.13,3.13,0,0,1,.18-1.85,2.06,2.06,0,0,1,1.09-1.1,10.91,10.91,0,0,1,4.9-.46,1.79,1.79,0,0,1,1.29.71,2.82,2.82,0,0,1,.54,1.69,2.89,2.89,0,0,1-.54,1.69,1.57,1.57,0,0,1-1.29.71Z"/><path class="cls-10" d="M214.19,252H207.4a2.2,2.2,0,0,1-1.82-2.4c0-1.3.8-2.4,1.82-2.4h6.79a2.21,2.21,0,0,1,1.82,2.4c0,1.3-.8,2.4-1.82,2.4Z"/><path class="cls-10" d="M206.4,262.48a66.91,66.91,0,0,1-10.87.22,2.21,2.21,0,0,1-1.82-2.39c0-1.25.8-2.46,1.82-2.4a65.8,65.8,0,0,0,10.87-.23c.95-.1,1.86,1.17,1.82,2.4a2.24,2.24,0,0,1-1.82,2.4Z"/><path class="cls-10" d="M196.39,252.93c-.38-.09-.77-.17-1.16-.24l.48.09a21.35,21.35,0,0,0-3.91-.32,2.19,2.19,0,0,1-1.82-2.4c0-1.3.8-2.38,1.82-2.39a23.32,23.32,0,0,1,5.56.64,2,2,0,0,1,1.09,1.1,3.15,3.15,0,0,1,.18,1.85,2.42,2.42,0,0,1-.83,1.43,1.62,1.62,0,0,1-1.41.24Z"/><path class="cls-10" d="M208.42,242.67h-3.73a1.68,1.68,0,0,1-1.29-.71,2.88,2.88,0,0,1-.53-1.69c0-1.3.8-2.4,1.82-2.4h3.73a1.68,1.68,0,0,1,1.29.71,2.81,2.81,0,0,1,.53,1.69c0,1.3-.8,2.4-1.82,2.4Z"/><path class="cls-10" d="M213.7,230.09l-2.7-.51a1.32,1.32,0,0,1-.62-.43,1.73,1.73,0,0,1-.47-.67,2.13,2.13,0,0,1-.22-.9,2.54,2.54,0,0,1,0-1,2.48,2.48,0,0,1,.84-1.43L211,225a1.47,1.47,0,0,1,1,0l2.7.51a1.32,1.32,0,0,1,.62.43,1.69,1.69,0,0,1,.47.68,2.2,2.2,0,0,1,.22.89,2.34,2.34,0,0,1,0,.95,2.42,2.42,0,0,1-.83,1.43l-.44.25a1.47,1.47,0,0,1-1,0Z"/><path class="cls-10" d="M212.15,222.59H203a2.21,2.21,0,0,1-1.82-2.4c.05-1.3.8-2.4,1.82-2.4h9.16a2.18,2.18,0,0,1,1.82,2.4c0,1.3-.8,2.4-1.82,2.4Z"/><path class="cls-10" d="M188.41,221.69h-3.06a1.66,1.66,0,0,1-1.28-.7,2.93,2.93,0,0,1,0-3.39,1.68,1.68,0,0,1,1.28-.7h3.06a1.71,1.71,0,0,1,1.29.7,2.93,2.93,0,0,1,.53,1.7,2.88,2.88,0,0,1-.53,1.69,1.71,1.71,0,0,1-1.29.7Z"/><path class="cls-10" d="M197.41,235.08c-.44-.11-.88-.21-1.32-.29l.49.09a18.37,18.37,0,0,0-4.44-.24c-.95.06-1.87-1.15-1.82-2.4a2.22,2.22,0,0,1,1.82-2.4,20.29,20.29,0,0,1,6.24.62,2,2,0,0,1,1.09,1.1,3.12,3.12,0,0,1,.18,1.84c-.32,1.32-1.24,1.93-2.24,1.68Z"/><path class="cls-10" d="M181,240.88H176.2a2.2,2.2,0,0,1-1.83-2.4c0-1.29.8-2.39,1.83-2.39H181a2.2,2.2,0,0,1,1.82,2.39c-.05,1.3-.8,2.4-1.82,2.4Z"/><path class="cls-10" d="M180.94,254.28a7.78,7.78,0,0,0-2.36,0l.48-.08a7.55,7.55,0,0,0-1.37.38,1.5,1.5,0,0,1-1.4-.25,2.46,2.46,0,0,1-.84-1.43,3.15,3.15,0,0,1,.19-1.85,2.13,2.13,0,0,1,1.09-1.1,8.68,8.68,0,0,1,4.21-.5,1.16,1.16,0,0,1,.71.21,1.34,1.34,0,0,1,.58.49,2.93,2.93,0,0,1,0,3.39,1.56,1.56,0,0,1-1.29.7Z"/><path class="cls-10" d="M180.27,264.53H174.5a2.19,2.19,0,0,1-1.82-2.39c0-1.3.8-2.4,1.82-2.4h5.77a2.2,2.2,0,0,1,1.82,2.4c-.05,1.29-.8,2.39-1.82,2.39Z"/><path class="cls-10" d="M160.26,264.44a34.22,34.22,0,0,0-8.15-.32c-1,.08-1.86-1.16-1.82-2.4a2.22,2.22,0,0,1,1.82-2.39,33.71,33.71,0,0,1,8.15.32,1.78,1.78,0,0,1,1.29.7,2.83,2.83,0,0,1,.53,1.69c0,1.17-.8,2.56-1.82,2.4Z"/><path class="cls-10" d="M162.48,251.09c-.45-.13-.9-.23-1.36-.32l.49.09a13.74,13.74,0,0,0-3.73-.15,1.67,1.67,0,0,1-1.29-.7,2.93,2.93,0,0,1-.53-1.7,2.23,2.23,0,0,1,1.82-2.4,15.49,15.49,0,0,1,5.57.55c.93.26,1.56,1.77,1.27,2.95s-1.24,2-2.24,1.68Z"/><path class="cls-10" d="M172,225.15l-2.37-.47a1.43,1.43,0,0,1-.62-.43,1.76,1.76,0,0,1-.47-.67,2.28,2.28,0,0,1-.21-.89,2.22,2.22,0,0,1,0-1,2.43,2.43,0,0,1,.84-1.43l.43-.24a1.35,1.35,0,0,1,1,0l2.37.47a1.32,1.32,0,0,1,.62.43,1.66,1.66,0,0,1,.47.67,2.29,2.29,0,0,1,.22.9,2.35,2.35,0,0,1,0,.95,2.42,2.42,0,0,1-.83,1.43l-.44.24a1.35,1.35,0,0,1-1,0Z"/><path class="cls-10" d="M149.4,223.92h-9.16a2.19,2.19,0,0,1-1.82-2.39c0-1.3.8-2.4,1.82-2.4h9.16a2.2,2.2,0,0,1,1.82,2.4c0,1.3-.8,2.39-1.82,2.39Z"/><path class="cls-10" d="M157.73,238.12a6.67,6.67,0,0,0-1.37-.39l.48.08a7.07,7.07,0,0,0-2.34,0l.49-.09a8.33,8.33,0,0,0-1.38.39,1.85,1.85,0,0,1-2.24-1.67,2.63,2.63,0,0,1,1.27-2.95,8.34,8.34,0,0,1,6.06,0,2.6,2.6,0,0,1,1.28,2.95c-.3,1.22-1.27,2.06-2.25,1.68Z"/><path class="cls-10" d="M134.68,239.84l-.74-.15.48.09a21,21,0,0,0-5.71-.21c-1,.1-1.87-1.17-1.82-2.4a2.21,2.21,0,0,1,1.82-2.39,22.14,22.14,0,0,1,6.93.44,1.93,1.93,0,0,1,1.09,1.1,3.14,3.14,0,0,1,.19,1.85,2.48,2.48,0,0,1-.84,1.43,1.64,1.64,0,0,1-1.4.24Z"/><path class="cls-10" d="M138.88,252h-4.75a2.2,2.2,0,0,1-1.82-2.4c.05-1.3.8-2.4,1.82-2.4h4.75a2.19,2.19,0,0,1,1.82,2.4c0,1.3-.8,2.4-1.82,2.4Z"/><path class="cls-10" d="M125.31,261h-5.08a2.19,2.19,0,0,1-1.83-2.39c0-1.3.81-2.4,1.83-2.4h5.08a2.2,2.2,0,0,1,1.83,2.4c0,1.29-.8,2.39-1.83,2.39Z"/><path class="cls-10" d="M96.83,260.44l-5.11-.63a1.78,1.78,0,0,1-1.29-.7,2.93,2.93,0,0,1-.53-1.7,2.81,2.81,0,0,1,.53-1.69,1.6,1.6,0,0,1,1.29-.7l5.11.63a1.72,1.72,0,0,1,1.28.7,2.93,2.93,0,0,1,0,3.39,1.59,1.59,0,0,1-1.28.7Z"/><path class="cls-10" d="M114.8,246.25a11.46,11.46,0,0,1-4.89-1,2.09,2.09,0,0,1-1.09-1.1,3.12,3.12,0,0,1-.19-1.84,2.54,2.54,0,0,1,.84-1.44,1.46,1.46,0,0,1,1.4-.24,10.69,10.69,0,0,0,2.43.76l-.49-.09a10.21,10.21,0,0,0,2,.16c1,0,1.86,1.11,1.82,2.39s-.8,2.38-1.82,2.4Z"/><path class="cls-10" d="M97.5,233.3H89.36a2.2,2.2,0,0,1-1.82-2.4c0-1.3.8-2.4,1.82-2.4H97.5a2.19,2.19,0,0,1,1.82,2.4c0,1.3-.8,2.4-1.82,2.4Z"/><path class="cls-10" d="M113.67,225.93a3.87,3.87,0,0,0-1-.33l.49.08a4.23,4.23,0,0,0-1.42,0l.49-.09-.3.06a1.09,1.09,0,0,1-.73,0,1.17,1.17,0,0,1-.68-.29,2.46,2.46,0,0,1-.84-1.43,3.15,3.15,0,0,1,.19-1.85,1.93,1.93,0,0,1,1.09-1.1,5.37,5.37,0,0,1,1.87-.18,5.7,5.7,0,0,1,1.84.45,2.11,2.11,0,0,1,1.09,1.11,3.12,3.12,0,0,1,.19,1.84,2.48,2.48,0,0,1-.84,1.43,1.46,1.46,0,0,1-1.41.25Z"/><path class="cls-10" d="M70.52,219.49l-6.12,1.25a1.58,1.58,0,0,1-1.4-.24,2.46,2.46,0,0,1-.84-1.43,3.13,3.13,0,0,1,.19-1.85c.24-.49.63-1,1.09-1.1l6.11-1.26a1.6,1.6,0,0,1,1.41.25,2.5,2.5,0,0,1,.83,1.43,3,3,0,0,1-.18,1.84,2,2,0,0,1-1.09,1.11Z"/><path class="cls-10" d="M29.86,214.53a87.69,87.69,0,0,0,8,21.42c7.81,13.83,28.84,20.53,28.84,20.53H265.48l.3-.11c-9.16,7.57-20.76,11.26-20.76,11.26H46.24s-21-6.69-28.83-20.52S7.23,214.53,7.23,214.53Z"/><path class="cls-10" d="M284.43,214.83l-277.2-.3,3.66,16.63s100-9,152.07-9.27,120.45-4.09,120.45-4.09Z"/><path class="cls-12" d="M104.51,206.24H282.39a1.47,1.47,0,0,0,1.23-1.62h0a1.47,1.47,0,0,0-1.23-1.62H104.51a1.47,1.47,0,0,0-1.23,1.62h0A1.47,1.47,0,0,0,104.51,206.24Z"/></g></g></g></svg>