<svg id="Layer_1" data-name="Layer 1" xmlns="http://www.w3.org/2000/svg" viewBox="0 0 132 132"><defs><style>.cls-1{fill:#fff;}.cls-2{fill:#1783cc;}.cls-3{fill:#074068;}.cls-4{fill:#08518e;}.cls-5{fill:#d8d8d8;}.cls-6{fill:#fbfcfa;}</style></defs><circle class="cls-1" cx="66.2" cy="65.87" r="65"/><circle class="cls-2" cx="66.2" cy="65.87" r="58.23"/><circle class="cls-3" cx="64.19" cy="67.88" r="56.22"/><circle class="cls-4" cx="65.37" cy="66.7" r="55.04"/><path class="cls-5" d="M97.44,84.8a14.29,14.29,0,0,1-2.37,5.71A11.93,11.93,0,1,1,83.72,71.62a11.68,11.68,0,0,1,6.86,1.06l.85.37V54.36l-36,10.21v1.17c0,9.81,0,19.62,0,29.43A11.94,11.94,0,1,1,41.6,83.57,12.59,12.59,0,0,1,49.5,85V83.78q0-19.23,0-38.48c0-2.45.64-3.32,3-4L93.06,29.77c2.14-.61,3.11-.17,4.38,1.92Z"/><path class="cls-6" d="M95.78,84a14.39,14.39,0,0,1-2.37,5.72,11.93,11.93,0,1,1-11.35-18.9,11.68,11.68,0,0,1,6.86,1.06l.85.38V53.53l-36,10.21v1.17c0,9.81,0,19.62,0,29.43a11.94,11.94,0,1,1-13.86-11.6,12.59,12.59,0,0,1,7.9,1.47V44.47c0-2.45.64-3.32,3-4L91.4,28.94c2.14-.61,3.11-.17,4.38,1.92Z"/></svg>