<svg id="ea69fb52-2c61-4736-ae07-0645614bd6fe" data-name="Layer 1" xmlns="http://www.w3.org/2000/svg" viewBox="0 0 219 47"><polygon points="13.46 0.08 0.19 43.92 34.56 43.92 22.84 0.08 13.46 0.08" style="fill:#2d5666"/><polygon points="218.81 46.92 25.43 46.92 13.46 0.08 206.84 0.08 218.81 46.92" style="fill:#c1deea"/><path d="M70.33,19.93c.71,3.31.46,5.86-.77,7.66s-3.56,2.7-7,2.7a11.89,11.89,0,0,1-8-2.69,13.41,13.41,0,0,1-4.24-7.67,11.45,11.45,0,0,1-.23-4.14,6.73,6.73,0,0,1,1.28-3.19,6.47,6.47,0,0,1,2.74-2,10.87,10.87,0,0,1,4.16-.72,13.2,13.2,0,0,1,4.48.72,10.88,10.88,0,0,1,3.52,2,11.65,11.65,0,0,1,2.52,3.18A15.94,15.94,0,0,1,70.33,19.93Zm-5.14,0a9.17,9.17,0,0,0-2.3-4.63A5.37,5.37,0,0,0,59,13.61a3.85,3.85,0,0,0-1.93.45,3.14,3.14,0,0,0-1.26,1.27,4.74,4.74,0,0,0-.56,2,8.87,8.87,0,0,0,.22,2.59,12.15,12.15,0,0,0,1,2.82,8.85,8.85,0,0,0,1.47,2.15,6.06,6.06,0,0,0,1.83,1.37,4.82,4.82,0,0,0,2.1.48,3.6,3.6,0,0,0,1.9-.49A3.31,3.31,0,0,0,65,24.84a5.62,5.62,0,0,0,.5-2.15A10.4,10.4,0,0,0,65.19,19.9Z" style="fill:#0d3235"/><path d="M85.31,30.29,83.73,23a3.58,3.58,0,0,0-.46-1.18,2.2,2.2,0,0,0-.6-.64,1.5,1.5,0,0,0-.62-.26c-.2,0-.38,0-.52,0a2.64,2.64,0,0,0-.6.12,1.61,1.61,0,0,0-.79.53,2.79,2.79,0,0,0-.55,1.25,5.37,5.37,0,0,0,.12,2.2l1.16,5.34h-4l-1.85-8.52a16.93,16.93,0,0,0-.66-2.23,9.07,9.07,0,0,0-.87-1.79h4a6.43,6.43,0,0,1,.4.67c.09.17.2.43.33.76A4.57,4.57,0,0,1,80,17.83a5.38,5.38,0,0,1,2.13-.44,4.9,4.9,0,0,1,1.81.35,5.3,5.3,0,0,1,1.6,1,6,6,0,0,1,1.25,1.51,6.78,6.78,0,0,1,.77,2l1.75,8.07Z" style="fill:#0d3235"/><path d="M103.45,20.94a2.93,2.93,0,0,1-.13,1.82,3.24,3.24,0,0,1-1.2,1.39A6.54,6.54,0,0,1,100,25a12,12,0,0,1-3,.33l-.36,0h-.49a3.56,3.56,0,0,0,1.28,1.74,3.42,3.42,0,0,0,2.06.63,7.5,7.5,0,0,0,4.11-1.32l.67,3.08a7,7,0,0,1-2,.93,8.8,8.8,0,0,1-2.28.27,8.52,8.52,0,0,1-2.8-.44A7.17,7.17,0,0,1,94.93,29a7.72,7.72,0,0,1-1.72-2,8.56,8.56,0,0,1-1-2.62,7.46,7.46,0,0,1-.12-2.95,5.34,5.34,0,0,1,1-2.3A4.81,4.81,0,0,1,95,17.6a6.89,6.89,0,0,1,2.78-.53,6.55,6.55,0,0,1,3.76,1.05A4.45,4.45,0,0,1,103.45,20.94Zm-3.9.29a1.3,1.3,0,0,0-.59-.8,1.84,1.84,0,0,0-1.1-.34,1.91,1.91,0,0,0-1.55.69,2.66,2.66,0,0,0-.51,1.89,2.77,2.77,0,0,0,.49.06h.44Q99.86,22.73,99.55,21.23Z" style="fill:#0d3235"/><path d="M129.82,24.62a5.72,5.72,0,0,1,.08,2.24,3.51,3.51,0,0,1-.86,1.77,4.54,4.54,0,0,1-1.9,1.2,10,10,0,0,1-3.13.46,15.25,15.25,0,0,1-1.71-.1,17.47,17.47,0,0,1-2-.35,19.08,19.08,0,0,1-2.09-.63,14.45,14.45,0,0,1-2-.89l.37-3.54a19.77,19.77,0,0,0,4,1.66,10.14,10.14,0,0,0,2.7.39,2.25,2.25,0,0,0,1.58-.53,1.33,1.33,0,0,0,.3-1.38,2.65,2.65,0,0,0-.82-1.3,8.62,8.62,0,0,0-2-1.21c-1.31-.62-2.44-1.2-3.38-1.76A15.1,15.1,0,0,1,116.54,19a7.76,7.76,0,0,1-1.5-1.72,6.13,6.13,0,0,1-.8-1.88,4,4,0,0,1,.89-4.05q1.52-1.44,4.87-1.5c.63,0,1.2,0,1.72,0a10.74,10.74,0,0,1,1.57.21,14.27,14.27,0,0,1,1.65.49c.58.21,1.23.47,1.94.8l-.08,3.47c-.58-.28-1.11-.52-1.58-.7a13.65,13.65,0,0,0-1.36-.46,9.59,9.59,0,0,0-1.23-.25,8.47,8.47,0,0,0-1.25-.08,3.24,3.24,0,0,0-2,.51,1.4,1.4,0,0,0-.39,1.56,2.47,2.47,0,0,0,1,1.33,17.91,17.91,0,0,0,2.58,1.44c1.15.57,2.15,1.09,3,1.58a13.92,13.92,0,0,1,2.14,1.45,6.37,6.37,0,0,1,1.38,1.56A6,6,0,0,1,129.82,24.62Z" style="fill:#0d3235"/><path d="M144.06,20.94a2.93,2.93,0,0,1-.14,1.82,3.15,3.15,0,0,1-1.19,1.39,6.54,6.54,0,0,1-2.13.89,12,12,0,0,1-3,.33l-.37,0h-.48a3.54,3.54,0,0,0,1.27,1.74,3.43,3.43,0,0,0,2.07.63,7.5,7.5,0,0,0,4.11-1.32l.66,3.08a6.87,6.87,0,0,1-2,.93,8.75,8.75,0,0,1-2.28.27,8.56,8.56,0,0,1-2.8-.44A7.27,7.27,0,0,1,135.53,29a7.88,7.88,0,0,1-1.71-2,8.33,8.33,0,0,1-1-2.62,7.85,7.85,0,0,1-.12-2.95,5.35,5.35,0,0,1,1-2.3,4.74,4.74,0,0,1,1.93-1.49,6.81,6.81,0,0,1,2.77-.53,6.58,6.58,0,0,1,3.77,1.05A4.49,4.49,0,0,1,144.06,20.94Zm-3.91.29a1.32,1.32,0,0,0-.58-.8,1.85,1.85,0,0,0-1.11-.34,1.91,1.91,0,0,0-1.55.69,2.61,2.61,0,0,0-.5,1.89,2.58,2.58,0,0,0,.48.06h.45C139.43,22.73,140.37,22.23,140.15,21.23Z" style="fill:#0d3235"/><path d="M158.71,20.94a2.93,2.93,0,0,1-.14,1.82,3.15,3.15,0,0,1-1.19,1.39,6.73,6.73,0,0,1-2.13.89,12,12,0,0,1-3,.33l-.37,0h-.48a3.54,3.54,0,0,0,1.27,1.74,3.43,3.43,0,0,0,2.07.63,7.5,7.5,0,0,0,4.11-1.32l.66,3.08a6.87,6.87,0,0,1-2,.93,8.75,8.75,0,0,1-2.28.27,8.52,8.52,0,0,1-2.8-.44A7.17,7.17,0,0,1,150.18,29a7.68,7.68,0,0,1-1.71-2,8.33,8.33,0,0,1-1-2.62,7.85,7.85,0,0,1-.12-2.95,5.35,5.35,0,0,1,1-2.3,4.77,4.77,0,0,1,1.92-1.49,6.89,6.89,0,0,1,2.78-.53,6.58,6.58,0,0,1,3.77,1.05A4.49,4.49,0,0,1,158.71,20.94Zm-3.91.29a1.32,1.32,0,0,0-.58-.8,1.85,1.85,0,0,0-1.11-.34,1.91,1.91,0,0,0-1.55.69,2.61,2.61,0,0,0-.5,1.89,2.58,2.58,0,0,0,.48.06H152C154.08,22.73,155,22.23,154.8,21.23Z" style="fill:#0d3235"/><path d="M173.69,30.29c-.05-.12-.1-.25-.15-.41s-.11-.29-.17-.47-.12-.39-.2-.64a4,4,0,0,1-1.66,1.45,5.58,5.58,0,0,1-2.27.42,6.82,6.82,0,0,1-2.48-.45,7,7,0,0,1-2.08-1.26A8.07,8.07,0,0,1,163.09,27a8.66,8.66,0,0,1-1-2.55,8.4,8.4,0,0,1-.15-3,5.39,5.39,0,0,1,.87-2.33,4.39,4.39,0,0,1,1.77-1.53,5.76,5.76,0,0,1,2.57-.54,9.69,9.69,0,0,1,1.33.09,8.75,8.75,0,0,1,1.54.38l-1.67-7.68h4l3.47,16c.07.33.18.75.32,1.26s.28,1,.42,1.46.34,1.13.53,1.73Zm-2.91-9.41a5,5,0,0,0-1.17-.29,9.51,9.51,0,0,0-1.08-.06,2.45,2.45,0,0,0-2.19,1,3.61,3.61,0,0,0-.28,2.77,3.74,3.74,0,0,0,1.06,2A2.65,2.65,0,0,0,169,27a3.18,3.18,0,0,0,1.18-.21,1.68,1.68,0,0,0,.84-.7,2.81,2.81,0,0,0,.38-1.3,6.89,6.89,0,0,0-.18-2Z" style="fill:#0d3235"/></svg>