<svg xmlns="http://www.w3.org/2000/svg" viewBox="0 0 92 92"><defs></defs><g class="cls-1" style="isolation:isolate;"><g id="Layer_9" data-name="Layer 9"><g class="cls-2" style="opacity:0.5;"><circle class="cls-3" style="fill:#fff;" cx="46" cy="46" r="45"/></g><circle class="cls-4" style="fill:#542a0e;" cx="46" cy="46" r="41.28"/><path class="cls-5" style="fill:#700552;mix-blend-mode:multiply;opacity:0.29;" d="M45.41,44.81c-2.95,0-7.82,0-13.2.28a20.59,20.59,0,0,0,5,4.37s-3.68,8.11-1.44,9.47c.58.36,2.76,0,2.76,0,3-.57,4.2-1.34,6.88-2.75,2.44,1.46,9.14,4.61,9.69,1.89.46-2.36-.6-5.8-1.27-7.64,0,0,0-.08,0-.12a55.79,55.79,0,0,0,6-5.15C54,44.84,48.57,44.8,45.41,44.81Z"/><path class="cls-6" style="fill:#c67809;" d="M57.69,43.28a55.09,55.09,0,0,0-7-1.73c-1.29-3.37-2.86-6.22-4.7-7-1.63-.69-3.65,4.8-4.21,6.41a28.63,28.63,0,0,0-4.5.59,15,15,0,0,0-3.5,1.12s-2.64,1.39,4.54,6.63c0,0-3.22,7.58-1.27,8.86a1.7,1.7,0,0,0,1.26.09,40.36,40.36,0,0,0,7.16-3.17c2.14,1.36,8,4.81,8.47,2.26.4-2.2-.52-5.43-1.11-7.14,0,0,0-.08,0-.11a42.31,42.31,0,0,0,5.54-5.21C59.19,43.72,57.69,43.28,57.69,43.28Z"/><path class="cls-7" style="fill:#f9bf1e;" d="M52.7,54.35c-.41,2.2-5.46-.78-7.31-2a34.45,34.45,0,0,1-6.17,2.73,1.43,1.43,0,0,1-1.09-.07c-1.68-1.1,1.09-7.65,1.09-7.65C33,42.89,35.3,41.69,35.3,41.69a11.31,11.31,0,0,1,2.24-.78,7.75,7.75,0,0,1-.26-1A15,15,0,0,0,33.78,41s-2.64,1.4,4.54,6.64c0,0-3.22,7.58-1.27,8.86a1.68,1.68,0,0,0,1.26.08,39,39,0,0,0,7.16-3.17c2.14,1.36,8,4.82,8.47,2.27.4-2.21-.52-5.43-1.11-7.15-.33,0-.65,0-1,0A13.71,13.71,0,0,1,52.7,54.35Z"/><path class="cls-8" style="fill:#f8f252;" d="M57.69,41.67a53.44,53.44,0,0,0-7-1.73c-1.29-3.38-2.86-6.23-4.7-7-1.63-.7-3.65,4.8-4.21,6.41a27.62,27.62,0,0,0-4.5.58,7.75,7.75,0,0,0,.26,1,22.74,22.74,0,0,1,4.67-.69c.48-1.39,2.22-6.13,3.63-5.53,1.59.68,2.95,3.14,4,6.05a46,46,0,0,1,6,1.49s1.3.38.56,1.37a36.76,36.76,0,0,1-4.78,4.49l.16.47c.31,0,.63,0,1,0,0,0,0-.07,0-.11a41.85,41.85,0,0,0,5.54-5.2C59.19,42.11,57.69,41.67,57.69,41.67Z"/><path class="cls-9" style="fill:#faae00;" d="M39.22,47.41S36.45,54,38.13,55.06a1.43,1.43,0,0,0,1.09.07,34.45,34.45,0,0,0,6.17-2.73c1.85,1.17,6.9,4.15,7.31,2a13.71,13.71,0,0,0-.83-5.79c-10.36-.24-13.43-4.93-14.33-7.65a11.31,11.31,0,0,0-2.24.78S33,42.89,39.22,47.41Z"/><path class="cls-10" style="fill:#feda48;" d="M51.87,48.56l-.16-.47a36.76,36.76,0,0,0,4.78-4.49c.74-1-.56-1.37-.56-1.37a46,46,0,0,0-6-1.49c-1.1-2.91-2.46-5.37-4-6.05-1.41-.6-3.15,4.14-3.63,5.53a22.74,22.74,0,0,0-4.67.69C38.44,43.63,41.51,48.32,51.87,48.56Z"/><ellipse class="cls-11" style="fill:#fff;opacity:0.85;" cx="37.79" cy="55.71" rx="0.83" ry="0.58" transform="translate(-22.79 26.36) rotate(-30)"/><ellipse class="cls-3" style="fill:#fff;" cx="57.54" cy="42.5" rx="0.58" ry="0.83" transform="translate(2.82 88.56) rotate(-76.54)"/><path class="cls-12" style="opacity:0.5;fill:#f8f252;mix-blend-mode:soft-light;" d="M38.45,39.7s-4,.69-4.67,1.34-.92,2.05,2.08,4.67C35.86,45.71,32.58,41.4,38.45,39.7Z"/><path class="cls-12" style="opacity:0.5;fill:#f8f252;mix-blend-mode:soft-light;" d="M48.05,55.3s3.69,1.63,4.63,1.47,1.9-1.19.86-5C53.54,51.73,53.88,57.14,48.05,55.3Z"/><path class="cls-13" style="fill:#3f1a0b;" d="M72.51,40.48A27.45,27.45,0,0,1,73.3,47a27.15,27.15,0,0,1-2.54,11.5L77,62.12a34.63,34.63,0,0,0,2.33-24Z"/><path class="cls-13" style="fill:#3f1a0b;" d="M58.84,15l-2.22,6.91a27.34,27.34,0,0,1,14.32,14l6.85-2.35A34.61,34.61,0,0,0,58.84,15Z"/><path class="cls-13" style="fill:#3f1a0b;" d="M46,12.49a34.34,34.34,0,0,0-17.15,4.56l4,6A27.32,27.32,0,0,1,52,20.37l2.21-6.88A34.35,34.35,0,0,0,46,12.49Z"/><path class="cls-13" style="fill:#3f1a0b;" d="M24.83,19.75a34.46,34.46,0,0,0-12.94,22l7.22.6a27.28,27.28,0,0,1,9.75-16.58Z"/><path class="cls-13" style="fill:#3f1a0b;" d="M25.58,65.1a27.17,27.17,0,0,1-6.87-17.93l-7.21-.6c0,.14,0,.29,0,.43a34.39,34.39,0,0,0,9.12,23.37Z"/><path class="cls-13" style="fill:#3f1a0b;" d="M47.4,74.26c-.47,0-.93,0-1.4,0a27.19,27.19,0,0,1-16.9-5.87l-5,5.27A34.37,34.37,0,0,0,46,81.51c.81,0,1.61,0,2.41-.09Z"/><path class="cls-13" style="fill:#3f1a0b;" d="M68.33,62.69A27.29,27.29,0,0,1,52.19,73.58l1,7.16A34.5,34.5,0,0,0,74.61,66.31Z"/><path class="cls-13" style="fill:#3f1a0b;" d="M72.51,40.48A27.45,27.45,0,0,1,73.3,47a27.15,27.15,0,0,1-2.54,11.5l2.78,1.6A30.39,30.39,0,0,0,76.49,47a30.88,30.88,0,0,0-.94-7.56Z"/><path class="cls-13" style="fill:#3f1a0b;" d="M57.6,18.81l-1,3.06a27.34,27.34,0,0,1,14.32,14l3-1A30.57,30.57,0,0,0,57.6,18.81Z"/><path class="cls-13" style="fill:#3f1a0b;" d="M27.07,23.1a30.47,30.47,0,0,0-11.16,19l3.2.26a27.28,27.28,0,0,1,9.75-16.58Z"/><path class="cls-13" style="fill:#3f1a0b;" d="M46,16.51A30.24,30.24,0,0,0,31.1,20.4l1.78,2.66A27.32,27.32,0,0,1,52,20.37l1-3.05A30.33,30.33,0,0,0,46,16.51Z"/><path class="cls-13" style="fill:#3f1a0b;" d="M25.58,65.1a27.17,27.17,0,0,1-6.87-17.93l-3.2-.27V47a30.38,30.38,0,0,0,7.86,20.44Z"/><path class="cls-13" style="fill:#3f1a0b;" d="M47.4,74.26c-.47,0-.93,0-1.4,0a27.19,27.19,0,0,1-16.9-5.87l-2.2,2.33A30.35,30.35,0,0,0,46,77.49c.62,0,1.23,0,1.84,0Z"/><path class="cls-13" style="fill:#3f1a0b;" d="M68.33,62.69A27.29,27.29,0,0,1,52.19,73.58l.45,3.17A30.46,30.46,0,0,0,71.11,64.29Z"/><path id="base2" class="cls-14" style="fill:#999;" d="M72.51,39.48A27.45,27.45,0,0,1,73.3,46a27.15,27.15,0,0,1-2.54,11.5L77,61.12a34.63,34.63,0,0,0,2.33-24Z"/><path id="base1" class="cls-14" style="fill:#999;" d="M58.84,14l-2.22,6.91a27.34,27.34,0,0,1,14.32,14l6.85-2.35A34.61,34.61,0,0,0,58.84,14Z"/><path id="base7" class="cls-14" style="fill:#999;" d="M46,11.49a34.34,34.34,0,0,0-17.15,4.56l4,6A27.32,27.32,0,0,1,52,19.37l2.21-6.88A34.35,34.35,0,0,0,46,11.49Z"/><path id="base6" class="cls-14" style="fill:#999;" d="M24.83,18.75a34.46,34.46,0,0,0-12.94,22l7.22.6a27.28,27.28,0,0,1,9.75-16.58Z"/><path id="base5" class="cls-14" style="fill:#999;" d="M25.58,64.1a27.17,27.17,0,0,1-6.87-17.93l-7.21-.6c0,.14,0,.29,0,.43a34.39,34.39,0,0,0,9.12,23.37Z"/><path id="base4" class="cls-14" style="fill:#999;" d="M47.4,73.26c-.47,0-.93,0-1.4,0a27.19,27.19,0,0,1-16.9-5.87l-5,5.27A34.37,34.37,0,0,0,46,80.51c.81,0,1.61,0,2.41-.09Z"/><path id="base3" class="cls-14" style="fill:#999;" d="M68.33,61.69A27.29,27.29,0,0,1,52.19,72.58l1,7.16A34.5,34.5,0,0,0,74.61,65.31Z"/><path id="top2" class="cls-15" style="fill:#606060;" d="M72.51,39.48A27.45,27.45,0,0,1,73.3,46a27.15,27.15,0,0,1-2.54,11.5l2.78,1.6A30.39,30.39,0,0,0,76.49,46a30.88,30.88,0,0,0-.94-7.56Z"/><path id="top1" class="cls-15" style="fill:#606060;" d="M57.6,17.81l-1,3.06a27.34,27.34,0,0,1,14.32,14l3-1A30.57,30.57,0,0,0,57.6,17.81Z"/><path id="top6" class="cls-15" style="fill:#606060;" d="M27.07,22.1a30.47,30.47,0,0,0-11.16,19l3.2.26a27.28,27.28,0,0,1,9.75-16.58Z"/><path id="top7" class="cls-15" style="fill:#606060;" d="M46,15.51A30.24,30.24,0,0,0,31.1,19.4l1.78,2.66A27.32,27.32,0,0,1,52,19.37l1-3.05A30.33,30.33,0,0,0,46,15.51Z"/><path id="top5" class="cls-15" style="fill:#606060;" d="M25.58,64.1a27.17,27.17,0,0,1-6.87-17.93l-3.2-.27V46a30.38,30.38,0,0,0,7.86,20.44Z"/><path id="top4" class="cls-15" style="fill:#606060;" d="M47.4,73.26c-.47,0-.93,0-1.4,0a27.19,27.19,0,0,1-16.9-5.87l-2.2,2.33A30.35,30.35,0,0,0,46,76.49c.62,0,1.23,0,1.84,0Z"/><path id="top3" class="cls-15" style="fill:#606060;" d="M68.33,61.69A27.29,27.29,0,0,1,52.19,72.58l.45,3.17A30.46,30.46,0,0,0,71.11,63.29Z"/></g></g></svg>