<svg xmlns="http://www.w3.org/2000/svg" viewBox="0 0 92 92"><defs></defs><g class="cls-1" style="isolation:isolate;"><g id="Layer_5" data-name="Layer 5"><path class="cls-2" style="fill:#301401;" d="M76,30.08l-3.26,2.37h0l-2.42,1.76A27.45,27.45,0,0,1,74.2,48.28a27.83,27.83,0,0,1-.26,3.79,27.18,27.18,0,0,1-.76,3.63,27.69,27.69,0,0,1-2.85,6.65l2.42,1.77h0L76,66.48a34.39,34.39,0,0,0,0-36.4Z"/><path class="cls-2" style="fill:#301401;" d="M12.29,45.78h7A27.49,27.49,0,0,1,35.87,23l-2.18-6.69A34.59,34.59,0,0,0,12.29,45.78Z"/><path class="cls-2" style="fill:#301401;" d="M46.71,20.79a27.41,27.41,0,0,1,20.67,9.38l2.42-1.76h0L73.07,26A34.48,34.48,0,0,0,38.45,14.77l2.17,6.7A27.72,27.72,0,0,1,46.71,20.79Z"/><path class="cls-2" style="fill:#301401;" d="M46.71,75.77a27.72,27.72,0,0,1-6.09-.68l-2.17,6.7A34.48,34.48,0,0,0,73.07,70.52l-5.69-4.13A27.41,27.41,0,0,1,46.71,75.77Z"/><path class="cls-2" style="fill:#301401;" d="M19.33,50.78h-7a34.58,34.58,0,0,0,21.4,29.46l1.25-3.83h0l.93-2.86A27.49,27.49,0,0,1,19.33,50.78Z"/></g><g id="Layer_8" data-name="Layer 8"><g class="cls-3" style="opacity:0.5;"><circle class="cls-4" style="fill:#fff;" cx="46" cy="46" r="45"/></g><circle class="cls-5" style="fill:#542a0e;" cx="46" cy="46" r="41.28"/><path class="cls-6" style="fill:#700552;mix-blend-mode:multiply;opacity:0.29;" d="M45.41,44.81c-2.95,0-7.82,0-13.2.28a20.59,20.59,0,0,0,5,4.37s-3.68,8.11-1.44,9.47c.58.36,2.76,0,2.76,0,3-.57,4.2-1.34,6.88-2.75,2.44,1.46,9.14,4.61,9.69,1.89.46-2.36-.6-5.8-1.27-7.64,0,0,0-.08,0-.12a55.79,55.79,0,0,0,6-5.15C54,44.84,48.57,44.8,45.41,44.81Z"/><path class="cls-7" style="fill:#c67809;" d="M57.69,43.28a55.09,55.09,0,0,0-7-1.73c-1.29-3.37-2.86-6.22-4.7-7-1.63-.69-3.65,4.8-4.21,6.41a28.63,28.63,0,0,0-4.5.59,15,15,0,0,0-3.5,1.12s-2.64,1.39,4.54,6.63c0,0-3.22,7.58-1.27,8.86a1.7,1.7,0,0,0,1.26.09,40.36,40.36,0,0,0,7.16-3.17c2.14,1.36,8,4.81,8.47,2.26.4-2.2-.52-5.43-1.11-7.14,0,0,0-.08,0-.11a42.31,42.31,0,0,0,5.54-5.21C59.19,43.72,57.69,43.28,57.69,43.28Z"/><path class="cls-8" style="fill:#f9bf1e;" d="M52.7,54.35c-.41,2.2-5.46-.78-7.31-2a34.45,34.45,0,0,1-6.17,2.73,1.43,1.43,0,0,1-1.09-.07c-1.68-1.1,1.09-7.65,1.09-7.65C33,42.89,35.3,41.69,35.3,41.69a11.31,11.31,0,0,1,2.24-.78,7.75,7.75,0,0,1-.26-1A15,15,0,0,0,33.78,41s-2.64,1.4,4.54,6.64c0,0-3.22,7.58-1.27,8.86a1.68,1.68,0,0,0,1.26.08,39,39,0,0,0,7.16-3.17c2.14,1.36,8,4.82,8.47,2.27.4-2.21-.52-5.43-1.11-7.15-.33,0-.65,0-1,0A13.71,13.71,0,0,1,52.7,54.35Z"/><path class="cls-9" style="fill:#f8f252;" d="M57.69,41.67a53.44,53.44,0,0,0-7-1.73c-1.29-3.38-2.86-6.23-4.7-7-1.63-.7-3.65,4.8-4.21,6.41a27.62,27.62,0,0,0-4.5.58,7.75,7.75,0,0,0,.26,1,22.74,22.74,0,0,1,4.67-.69c.48-1.39,2.22-6.13,3.63-5.53,1.59.68,2.95,3.14,4,6.05a46,46,0,0,1,6,1.49s1.3.38.56,1.37a36.76,36.76,0,0,1-4.78,4.49l.16.47c.31,0,.63,0,1,0,0,0,0-.07,0-.11a41.85,41.85,0,0,0,5.54-5.2C59.19,42.11,57.69,41.67,57.69,41.67Z"/><path class="cls-10" style="fill:#faae00;" d="M39.22,47.41S36.45,54,38.13,55.06a1.43,1.43,0,0,0,1.09.07,34.45,34.45,0,0,0,6.17-2.73c1.85,1.17,6.9,4.15,7.31,2a13.71,13.71,0,0,0-.83-5.79c-10.36-.24-13.43-4.93-14.33-7.65a11.31,11.31,0,0,0-2.24.78S33,42.89,39.22,47.41Z"/><path class="cls-11" style="fill:#feda48;" d="M51.87,48.56l-.16-.47a36.76,36.76,0,0,0,4.78-4.49c.74-1-.56-1.37-.56-1.37a46,46,0,0,0-6-1.49c-1.1-2.91-2.46-5.37-4-6.05-1.41-.6-3.15,4.14-3.63,5.53a22.74,22.74,0,0,0-4.67.69C38.44,43.63,41.51,48.32,51.87,48.56Z"/><ellipse class="cls-12" style="fill:#fff;opacity:0.85;" cx="37.79" cy="55.71" rx="0.83" ry="0.58" transform="translate(-22.79 26.36) rotate(-30)"/><ellipse class="cls-4" style="fill:#fff;" cx="57.54" cy="42.5" rx="0.58" ry="0.83" transform="translate(2.82 88.56) rotate(-76.54)"/><path class="cls-13" style="opacity:0.5;fill:#f8f252;mix-blend-mode:soft-light;" d="M38.45,39.7s-4,.69-4.67,1.34-.92,2.05,2.08,4.67C35.86,45.71,32.58,41.4,38.45,39.7Z"/><path class="cls-13" style="opacity:0.5;fill:#f8f252;mix-blend-mode:soft-light;" d="M48.05,55.3s3.69,1.63,4.63,1.47,1.9-1.19.86-5C53.54,51.73,53.88,57.14,48.05,55.3Z"/><path class="cls-14" style="fill:#3f1a0b;" d="M43.58,74.19A27.31,27.31,0,0,1,18.81,49.42H11.58a34.51,34.51,0,0,0,32,32Z"/><path class="cls-14" style="fill:#3f1a0b;" d="M73.19,49.42A27.31,27.31,0,0,1,48.42,74.19v7.23a34.51,34.51,0,0,0,32-32Z"/><path class="cls-14" style="fill:#3f1a0b;" d="M43.58,12.58a34.51,34.51,0,0,0-32,32h7.23A27.31,27.31,0,0,1,43.58,19.81Z"/><path class="cls-14" style="fill:#3f1a0b;" d="M48.42,12.58v7.23A27.31,27.31,0,0,1,73.19,44.58h7.23A34.51,34.51,0,0,0,48.42,12.58Z"/><path class="cls-14" style="fill:#3f1a0b;" d="M73.19,49.42A27.31,27.31,0,0,1,48.42,74.19v3.2a30.48,30.48,0,0,0,28-28Z"/><path class="cls-14" style="fill:#3f1a0b;" d="M43.58,74.19A27.31,27.31,0,0,1,18.81,49.42h-3.2a30.48,30.48,0,0,0,28,28Z"/><path class="cls-14" style="fill:#3f1a0b;" d="M43.58,16.61a30.48,30.48,0,0,0-28,28h3.2A27.31,27.31,0,0,1,43.58,19.81Z"/><path class="cls-14" style="fill:#3f1a0b;" d="M48.42,16.61v3.2A27.31,27.31,0,0,1,73.19,44.58h3.2A30.48,30.48,0,0,0,48.42,16.61Z"/><path id="base3" class="cls-15" style="fill:#999;" d="M43.58,73.19A27.31,27.31,0,0,1,18.81,48.42H11.58a34.51,34.51,0,0,0,32,32Z"/><path id="base2" class="cls-15" style="fill:#999;" d="M73.19,48.42A27.31,27.31,0,0,1,48.42,73.19v7.23a34.51,34.51,0,0,0,32-32Z"/><path id="base4" class="cls-15" style="fill:#999;" d="M43.58,11.58a34.51,34.51,0,0,0-32,32h7.23A27.31,27.31,0,0,1,43.58,18.81Z"/><path id="base1" class="cls-15" style="fill:#999;" d="M48.42,11.58v7.23A27.31,27.31,0,0,1,73.19,43.58h7.23A34.51,34.51,0,0,0,48.42,11.58Z"/><path id="top2" class="cls-16" style="fill:#606060;" d="M73.19,48.42A27.31,27.31,0,0,1,48.42,73.19v3.2a30.48,30.48,0,0,0,28-28Z"/><path id="top3" class="cls-16" style="fill:#606060;" d="M43.58,73.19A27.31,27.31,0,0,1,18.81,48.42h-3.2a30.48,30.48,0,0,0,28,28Z"/><path id="top4" class="cls-16" style="fill:#606060;" d="M43.58,15.61a30.48,30.48,0,0,0-28,28h3.2A27.31,27.31,0,0,1,43.58,18.81Z"/><path id="top1" class="cls-16" style="fill:#606060;" d="M48.42,15.61v3.2A27.31,27.31,0,0,1,73.19,43.58h3.2A30.48,30.48,0,0,0,48.42,15.61Z"/></g></g></svg>