<svg id="Layer_1" data-name="Layer 1" xmlns="http://www.w3.org/2000/svg" viewBox="0 0 296 84"><defs><style>.cls-1{fill:#557f72;}.cls-2{fill:#aae8d8;}</style></defs><path class="cls-1" d="M295.78,65.28l-4.82-.9L263.89,13.51C261.32,10.7,256.54,9,251.36,9H41.18c-5.34,0-10.25,1.84-12.74,4.78L4.31,65.28l-3.94.61v9h0c.52,4.44,6.39,8.34,14.39,8.34H281.34c8.37,0,14.37-4.26,14.43-8.92h0Z"/><path class="cls-2" d="M281.34,75H14.81C3.94,75-3.11,68.09,1.91,60.37L28.44,5.53C30.93,2.59,35.84.75,41.18.75H251.36c5.18,0,10,1.73,12.53,4.54l30,56.32C299.34,67.6,292.4,75,281.34,75Z"/></svg>