<svg xmlns="http://www.w3.org/2000/svg" viewBox="0 0 92 92"><defs></defs><g class="cls-1" style="isolation:isolate;"><g id="Layer_8" data-name="Layer 8"><g class="cls-2" style="opacity:0.5;"><circle class="cls-3" style="fill:#fff;" cx="46" cy="46" r="45"/></g><circle class="cls-4" style="fill:#542a0e;" cx="46" cy="46" r="41.28"/><path class="cls-5" style="fill:#700552;mix-blend-mode:multiply;opacity:0.29;" d="M45.41,44.81c-2.95,0-7.82,0-13.2.28a20.59,20.59,0,0,0,5,4.37s-3.68,8.11-1.44,9.47c.58.36,2.76,0,2.76,0,3-.57,4.2-1.34,6.88-2.75,2.44,1.46,9.14,4.61,9.69,1.89.46-2.36-.6-5.8-1.27-7.64,0,0,0-.08,0-.12a55.79,55.79,0,0,0,6-5.15C54,44.84,48.57,44.8,45.41,44.81Z"/><path class="cls-6" style="fill:#c67809;" d="M57.69,43.28a55.09,55.09,0,0,0-7-1.73c-1.29-3.37-2.86-6.22-4.7-7-1.63-.69-3.65,4.8-4.21,6.41a28.63,28.63,0,0,0-4.5.59,15,15,0,0,0-3.5,1.12s-2.64,1.39,4.54,6.63c0,0-3.22,7.58-1.27,8.86a1.7,1.7,0,0,0,1.26.09,40.36,40.36,0,0,0,7.16-3.17c2.14,1.36,8,4.81,8.47,2.26.4-2.2-.52-5.43-1.11-7.14,0,0,0-.08,0-.11a42.31,42.31,0,0,0,5.54-5.21C59.19,43.72,57.69,43.28,57.69,43.28Z"/><path class="cls-7" style="fill:#f9bf1e;" d="M52.7,54.35c-.41,2.2-5.46-.78-7.31-2a34.45,34.45,0,0,1-6.17,2.73,1.43,1.43,0,0,1-1.09-.07c-1.68-1.1,1.09-7.65,1.09-7.65C33,42.89,35.3,41.69,35.3,41.69a11.31,11.31,0,0,1,2.24-.78,7.75,7.75,0,0,1-.26-1A15,15,0,0,0,33.78,41s-2.64,1.4,4.54,6.64c0,0-3.22,7.58-1.27,8.86a1.68,1.68,0,0,0,1.26.08,39,39,0,0,0,7.16-3.17c2.14,1.36,8,4.82,8.47,2.27.4-2.21-.52-5.43-1.11-7.15-.33,0-.65,0-1,0A13.71,13.71,0,0,1,52.7,54.35Z"/><path class="cls-8" style="fill:#f8f252;" d="M57.69,41.67a53.44,53.44,0,0,0-7-1.73c-1.29-3.38-2.86-6.23-4.7-7-1.63-.7-3.65,4.8-4.21,6.41a27.62,27.62,0,0,0-4.5.58,7.75,7.75,0,0,0,.26,1,22.74,22.74,0,0,1,4.67-.69c.48-1.39,2.22-6.13,3.63-5.53,1.59.68,2.95,3.14,4,6.05a46,46,0,0,1,6,1.49s1.3.38.56,1.37a36.76,36.76,0,0,1-4.78,4.49l.16.47c.31,0,.63,0,1,0,0,0,0-.07,0-.11a41.85,41.85,0,0,0,5.54-5.2C59.19,42.11,57.69,41.67,57.69,41.67Z"/><path class="cls-9" style="fill:#faae00;" d="M39.22,47.41S36.45,54,38.13,55.06a1.43,1.43,0,0,0,1.09.07,34.45,34.45,0,0,0,6.17-2.73c1.85,1.17,6.9,4.15,7.31,2a13.71,13.71,0,0,0-.83-5.79c-10.36-.24-13.43-4.93-14.33-7.65a11.31,11.31,0,0,0-2.24.78S33,42.89,39.22,47.41Z"/><path class="cls-10" style="fill:#feda48;" d="M51.87,48.56l-.16-.47a36.76,36.76,0,0,0,4.78-4.49c.74-1-.56-1.37-.56-1.37a46,46,0,0,0-6-1.49c-1.1-2.91-2.46-5.37-4-6.05-1.41-.6-3.15,4.14-3.63,5.53a22.74,22.74,0,0,0-4.67.69C38.44,43.63,41.51,48.32,51.87,48.56Z"/><ellipse class="cls-11" style="fill:#fff;opacity:0.85;" cx="37.79" cy="55.71" rx="0.83" ry="0.58" transform="translate(-22.79 26.36) rotate(-30)"/><ellipse class="cls-3" style="fill:#fff;" cx="57.54" cy="42.5" rx="0.58" ry="0.83" transform="translate(2.82 88.56) rotate(-76.54)"/><path class="cls-12" style="opacity:0.5;fill:#f8f252;mix-blend-mode:soft-light;" d="M38.45,39.7s-4,.69-4.67,1.34-.92,2.05,2.08,4.67C35.86,45.71,32.58,41.4,38.45,39.7Z"/><path class="cls-12" style="opacity:0.5;fill:#f8f252;mix-blend-mode:soft-light;" d="M48.05,55.3s3.69,1.63,4.63,1.47,1.9-1.19.86-5C53.54,51.73,53.88,57.14,48.05,55.3Z"/><path class="cls-13" style="fill:#3f1a0b;" d="M67.52,20.15l-4,5.78a27.38,27.38,0,0,1-3.66,44.71l3,6.36a34.41,34.41,0,0,0,4.65-56.85Z"/><path class="cls-13" style="fill:#3f1a0b;" d="M46,74.42A27.46,27.46,0,0,1,18.58,47.1l-7-.59c0,.16,0,.33,0,.49A34.42,34.42,0,0,0,58.52,79.06l-3-6.35A27.33,27.33,0,0,1,46,74.42Z"/><path class="cls-13" style="fill:#3f1a0b;" d="M46,12.58A34.42,34.42,0,0,0,12,41.71l7,.6A27.38,27.38,0,0,1,59.56,23.19l4-5.79A34.27,34.27,0,0,0,46,12.58Z"/><path class="cls-13" style="fill:#3f1a0b;" d="M19.11,42.31a27.3,27.3,0,0,1,40.39-19l1.71-2.46a30.27,30.27,0,0,0-45.1,21.25Z"/><path class="cls-13" style="fill:#3f1a0b;" d="M65.17,23.55,63.46,26a27.31,27.31,0,0,1-3.64,44.54l1.28,2.71a30.28,30.28,0,0,0,4.07-49.71Z"/><path class="cls-13" style="fill:#3f1a0b;" d="M55.47,72.61A27.31,27.31,0,0,1,18.7,47.11l-3-.25V47A30.29,30.29,0,0,0,56.76,75.32Z"/><path id="base1" class="cls-14" style="fill:#999;" d="M67.52,19.15l-4,5.78a27.38,27.38,0,0,1-3.66,44.71l3,6.36a34.41,34.41,0,0,0,4.65-56.85Z"/><path id="base2" class="cls-14" style="fill:#999;" d="M46,73.42A27.46,27.46,0,0,1,18.58,46.1l-7-.59c0,.16,0,.33,0,.49A34.42,34.42,0,0,0,58.52,78.06l-3-6.35A27.33,27.33,0,0,1,46,73.42Z"/><path id="base3" class="cls-14" style="fill:#999;" d="M46,11.58A34.42,34.42,0,0,0,12,40.71l7,.6A27.38,27.38,0,0,1,59.56,22.19l4-5.79A34.27,34.27,0,0,0,46,11.58Z"/><path id="top3" class="cls-15" style="fill:#606060;" d="M19.11,41.31a27.3,27.3,0,0,1,40.39-19l1.71-2.46a30.27,30.27,0,0,0-45.1,21.25Z"/><path id="top1" class="cls-15" style="fill:#606060;" d="M65.17,22.55,63.46,25a27.31,27.31,0,0,1-3.64,44.54l1.28,2.71a30.28,30.28,0,0,0,4.07-49.71Z"/><path id="top2" class="cls-15" style="fill:#606060;" d="M55.47,71.61A27.31,27.31,0,0,1,18.7,46.11l-3-.25V46A30.29,30.29,0,0,0,56.76,74.32Z"/></g></g></svg>