<svg id="Layer_1" data-name="Layer 1" xmlns="http://www.w3.org/2000/svg" viewBox="0 0 352 274.53"><defs><style>.cls-1{fill:#db3c2c;}.cls-2{fill:#fff;}.cls-3{fill:#ddcfbf;}.cls-4{fill:#282929;}.cls-5{fill:#eeeeef;}.cls-6{fill:#1f474c;}.cls-7{fill:#68a29a;}.cls-8{fill:#45877d;}.cls-9{fill:#5a6f6e;}.cls-10{fill:#f3b440;}.cls-11{fill:#d6942e;}.cls-12{fill:#f7b728;}.cls-13{fill:#f6da78;}.cls-14{fill:#d76049;}</style></defs><path class="cls-1" d="M130.71,159.2c.94,2.16,1.78,4.33,2.5,6.52s1.4,4.39,2,6.59c1.23,4.41,2.22,8.84,3.07,13.29a196.65,196.65,0,0,1,3.15,26.92,169.44,169.44,0,0,1-.75,27.27,95.77,95.77,0,0,1-2.54,13.72,43.52,43.52,0,0,1-2.4,6.81,21,21,0,0,1-1.87,3.3,7.78,7.78,0,0,1-1.45,1.48,3.61,3.61,0,0,1-1,.53,2.22,2.22,0,0,1-1.14,0l-.09,0a.38.38,0,0,1-.28-.47.39.39,0,0,1,.37-.3c.85,0,1.48-1,1.87-2a17.16,17.16,0,0,0,.89-3.14,56,56,0,0,0,.82-6.61c.35-4.44.45-8.91.46-13.38,0-8.95-.35-17.9-.83-26.84S132.58,195,132,186.08l-1-13.4c-.32-4.47-.65-8.94-1-13.41a.39.39,0,0,1,.35-.42.41.41,0,0,1,.39.24Z" transform="translate(-0.22 -0.17)"/><path class="cls-1" d="M126.47,265.91a41.9,41.9,0,0,1,7.24-1.29,35.71,35.71,0,0,1,7.45.06c2.48.29,5.14.63,7.4,2.06a10.63,10.63,0,0,1,4.85,6,.16.16,0,0,1-.12.2.14.14,0,0,1-.14,0h0c-1.07-.71-2.05-1.35-3-1.91a32.2,32.2,0,0,0-3-1.45L144,268.28a20.24,20.24,0,0,0-3.27-1.09,42.6,42.6,0,0,0-7-1,50.89,50.89,0,0,0-7.2,0h0a.16.16,0,0,1-.17-.15A.17.17,0,0,1,126.47,265.91Z" transform="translate(-0.22 -0.17)"/><path class="cls-1" d="M130,265.39a57.88,57.88,0,0,1,5.34-2.53A43.29,43.29,0,0,1,141,261c1.94-.48,4-1.16,6.16-.77a7.58,7.58,0,0,1,3.17,1.25,3.7,3.7,0,0,1,1.7,2.94.17.17,0,0,1-.18.17.15.15,0,0,1-.11,0h0a4.56,4.56,0,0,0-2.37-1,15.37,15.37,0,0,0-2.47-.1c-.85,0-1.74,0-2.65,0a18.79,18.79,0,0,0-2.8.08c-.93.1-1.88.23-2.82.39s-1.89.32-2.84.51c-1.9.36-3.79.82-5.68,1.3a.15.15,0,0,1-.19-.11A.16.16,0,0,1,130,265.39Z" transform="translate(-0.22 -0.17)"/><path class="cls-1" d="M154.63,160.94q1.43,3.24,2.5,6.53c.75,2.18,1.4,4.38,2,6.58,1.22,4.41,2.22,8.84,3.07,13.29a200,200,0,0,1,3.15,26.92,169.41,169.41,0,0,1-.75,27.27,98.36,98.36,0,0,1-2.54,13.72,43.57,43.57,0,0,1-2.41,6.81,20.58,20.58,0,0,1-1.87,3.3,7.72,7.72,0,0,1-1.44,1.48,3.32,3.32,0,0,1-1,.54,2.21,2.21,0,0,1-1.14,0l-.09,0a.4.4,0,0,1-.28-.48.39.39,0,0,1,.37-.29c.86,0,1.48-1,1.88-2a17.47,17.47,0,0,0,.88-3.15,53.6,53.6,0,0,0,.82-6.6c.36-4.44.45-8.92.47-13.39,0-8.94-.36-17.89-.84-26.84s-.93-17.89-1.56-26.83l-1-13.4q-.48-6.71-1-13.4a.38.38,0,0,1,.35-.42.39.39,0,0,1,.39.23Z" transform="translate(-0.22 -0.17)"/><path class="cls-1" d="M150.39,267.65a43.06,43.06,0,0,1,7.24-1.29,35.71,35.71,0,0,1,7.45.07c2.48.28,5.14.63,7.4,2.06a10.64,10.64,0,0,1,4.85,6,.18.18,0,0,1-.12.21.22.22,0,0,1-.14,0h0c-1.07-.71-2-1.35-3-1.91a32.09,32.09,0,0,0-3-1.44L167.92,270a19.94,19.94,0,0,0-3.27-1.1,42.45,42.45,0,0,0-7-1,50.9,50.9,0,0,0-7.2,0h0a.16.16,0,0,1-.17-.15A.16.16,0,0,1,150.39,267.65Z" transform="translate(-0.22 -0.17)"/><path class="cls-1" d="M153.88,267.13a56.6,56.6,0,0,1,5.34-2.52,43.19,43.19,0,0,1,5.66-1.89c1.94-.48,4-1.16,6.16-.76a7.46,7.46,0,0,1,3.17,1.24,3.74,3.74,0,0,1,1.71,2.95.19.19,0,0,1-.19.17.18.18,0,0,1-.1,0h0a4.63,4.63,0,0,0-2.36-1,13.51,13.51,0,0,0-2.48-.1c-.85,0-1.73,0-2.65,0a20.08,20.08,0,0,0-2.79.07c-.94.1-1.88.23-2.83.4s-1.89.31-2.83.51c-1.91.35-3.79.82-5.68,1.3a.17.17,0,0,1-.2-.11A.16.16,0,0,1,153.88,267.13Z" transform="translate(-0.22 -0.17)"/><path class="cls-2" d="M123.54,239.74s58.18.76,77.54-27.12,10.68-67.35,9.17-81.29,4.67-17.49,13.2-17.38L206,31.44l-67.6,12S113.13,196,111.83,197.67s0,34.18,0,34.18Z" transform="translate(-0.22 -0.17)"/><path class="cls-3" d="M165.94,164.18c-.6,26.49-16,41.28-39.31,49.9a62.64,62.64,0,0,0-6,3c-.44,2.06-.89,4.13-1.34,6.19a52.92,52.92,0,0,0,48-50.41C167.43,169.93,168.37,166.74,165.94,164.18Z" transform="translate(-0.22 -0.17)"/><path class="cls-4" d="M180.13,56c-7.62-.15-14.47,5.63-14.44,12.18A13.18,13.18,0,0,0,179,81.54a13.93,13.93,0,0,0,13.54-13.42C192.88,61.31,187.61,56.18,180.13,56Z" transform="translate(-0.22 -0.17)"/><path class="cls-5" d="M176.29,67.3c.4,2.87,2.26,4.63,5.51,4.28A5.2,5.2,0,0,0,186.72,66c-.1-3.25-2.42-4.9-5.61-4.57S176.2,63.6,176.29,67.3Z" transform="translate(-0.22 -0.17)"/><path class="cls-1" d="M31.78,175.31c-11.38-6.1-23.3-10.15-29.51-5.11S4.87,183,17.65,189.88C23.93,188.77,33,185.41,31.78,175.31Z" transform="translate(-0.22 -0.17)"/><path class="cls-1" d="M63.31,157.53C60,145.07,54.81,136,46.84,140c0,0-5.88,2.91-1.37,20.2C50.05,162.55,58.55,165.37,63.31,157.53Z" transform="translate(-0.22 -0.17)"/><path class="cls-6" d="M117.13,28.83S89.05,61.3,94.6,142.7s-25.38,60.78-25.38,60.78-.82-26.91-5.91-45.95c-4.76,7.84-13.26,5-17.84,2.69C47.52,168.11,51.75,179,59.69,194a204.45,204.45,0,0,0-27.91-18.69c1.2,10.1-7.85,13.46-14.13,14.57,16,8.67,38.14,16.16,44.59,15.93,0,0,20.12,27.17,61.3,33.93,0,0-12.34-7.23,2.7-33.33s33.09-41.69,28.57-69.72S133.68,23.46,203.4,45.26l20-30.85S158-25.76,117.13,28.83Z" transform="translate(-0.22 -0.17)"/><path class="cls-7" d="M165.94,164.18c-1.21-8.64-3-17-10.52-22.75-10.34-7.37-23.77-6.3-33.7,2.71a49.31,49.31,0,0,0-14.26,23.5c-4.54,15.92-9.33,31.71-17.46,46.26,2.24,4.22,4.37,1,5.92-.41,6.17-5.41,10.15-12.42,13.5-19.79,1.35-3,2.44-6.06,3.56-8.49-2.83,7.21-6.06,14.87-11,21.69-1.2,1.66-2.49,3.67-1,5.49,1.81,2.16,4.23.87,6.26,0,9.35-4.13,17-10.58,24.24-17.65,2.16-2.11,4.32-4.22,5.14-5.11-6.6,6.67-14.44,14.64-24.26,20.34a49,49,0,0,1-11.55,5.38c-2.37.66-5.8.65-5.84,4.57,8.78,1.17,17.13-1.53,25.62-2.86,12.3-.46,21.72-7.07,30.6-14.59C163.09,192.44,167.48,179.41,165.94,164.18Z" transform="translate(-0.22 -0.17)"/><path class="cls-8" d="M95,219.9c16.88-4.59,29.5-15.38,40.93-28,2.38-2.62,4.6-5.27,5.82-8.91-11.09,12.46-23.69,22.8-41.24,30,7.24-11.56,12.94-21.84,14-34.13-2.45,5.12-5,10.21-7.32,15.38a59.74,59.74,0,0,1-14.1,19.29c-.95.88-1.91,1.73-3.13.37C84.63,221.8,91,219.9,95,219.9Z" transform="translate(-0.22 -0.17)"/><path class="cls-9" d="M213.76,28.66l1.32.28c2.54-6,8.2-9.22,12.08-14a32,32,0,0,0-13.75-5.68C208.24,15.82,208.63,22.28,213.76,28.66Z" transform="translate(-0.22 -0.17)"/><path class="cls-10" d="M337.39,118s-17.51-16.76-53-7.82-57.13,12.45-64.71,1.08S209.51,89.74,207.62,80c0,0,44.84,4.17,74.35,3.09s52.09,17.72,55.42,29C337.39,112,339.39,118.55,337.39,118Z" transform="translate(-0.22 -0.17)"/><path class="cls-11" d="M207.62,91.83s11.74,8.39,49.35,4.31,61.88-3,80.93,17.82c0,0-6.07-24.5-42.64-30.06a179.25,179.25,0,0,0-34.63-.8c-18.7,1.43-55.8-4.32-55.8-4.32S205.61,87.63,207.62,91.83Z" transform="translate(-0.22 -0.17)"/><path class="cls-12" d="M207.79,37.57c5.62-11.37,15-25.62,36.41-25.4,0,0,76.88,0,100.79,53.57-5.66,0-17,1-23.69,7.62-6.17,6.14-8.37,16.59-9.15,22.78a54.48,54.48,0,0,0-25-4.15c-38.45,2.16-70.94.28-76.35-5.14S202.17,48.93,207.79,37.57Z" transform="translate(-0.22 -0.17)"/><path class="cls-13" d="M322.81,74.54c5.45-4.29,11.94-6.44,18.28-8.91-3.72.31-6-2-8.25-4.46A75.19,75.19,0,0,0,314.9,46.48a19.07,19.07,0,0,0-14.58-1.61c-3.8,1-7.36,4.06-7.47,8.49s3.69,7,7.23,8.82c5.12,2.6,10.54,4.61,15.85,6.83C318.77,70.19,321.35,71.66,322.81,74.54Z" transform="translate(-0.22 -0.17)"/><path class="cls-6" d="M345,65.74c.87,2,1.68,4,2.4,6.06,0,0,7.39,26.92,3.9,54.3,0,0-1.63,14.62-6.23,5.41-3.43-6.85-12.58-26.63-32.91-35.37.78-6.19,3-16.64,9.15-22.78C328,66.71,339.33,65.77,345,65.74Z" transform="translate(-0.22 -0.17)"/><path class="cls-2" d="M345,67.24h.64c-.22-.5-.42-1-.64-1.5s-.48-1-.72-1.53c-9.85-.5-17.79,2-23.61,7.47-9,8.41-9.9,21-10,23.86.49.2,1,.39,1.49.6s1,.44,1.5.68v-.69c0-.14.05-13.8,9.07-22.27C328.06,68.84,335.52,66.61,345,67.24Z" transform="translate(-0.22 -0.17)"/><path class="cls-14" d="M237.83,12.8l.27,0Z" transform="translate(-0.22 -0.17)"/><path class="cls-14" d="M237.79,12.8h0Z" transform="translate(-0.22 -0.17)"/><path class="cls-14" d="M236.89,12.7l.68.07Z" transform="translate(-0.22 -0.17)"/><path class="cls-14" d="M237.57,12.77l.22,0Z" transform="translate(-0.22 -0.17)"/><path class="cls-14" d="M238.1,12.83l.4,0Z" transform="translate(-0.22 -0.17)"/><path class="cls-14" d="M238.5,12.87l.46.05Z" transform="translate(-0.22 -0.17)"/><path class="cls-14" d="M206.9,52.1a99,99,0,0,1,4.28-18.75c.08-.25.17-.5.26-.75.28-.61.58-1.2.88-1.74A38.46,38.46,0,0,1,236.89,12.7c-5.35-.56-13.13,1.58-13.13,1.58-9,4.49-14.87,13.15-18.37,23.59-.71,1.27-1.42,2.54-2.14,3.81a156.74,156.74,0,0,0-2.06,24.6,112.82,112.82,0,0,0,3.64,29,42.32,42.32,0,0,0,3.85,9.66c.06.13.13.24.19.36s.25.41.37.61.42.71.65,1c8.69,13.2,21.83,11,21.83,11l-5-2.12s-1.25-1.2-2.6-2.54a51.81,51.81,0,0,1-10.88-16.5,28.23,28.23,0,0,1-.58-4.08c2.07-2.65-.7-4.08-1.51-6A67,67,0,0,1,207,71.26,104.23,104.23,0,0,1,206.9,52.1Z" transform="translate(-0.22 -0.17)"/><path class="cls-14" d="M239.23,13c.05,0,.05,0,0,0Z" transform="translate(-0.22 -0.17)"/><path class="cls-14" d="M239,12.92l.27,0Z" transform="translate(-0.22 -0.17)"/></svg>