<svg id="Layer_1" data-name="Layer 1" xmlns="http://www.w3.org/2000/svg" viewBox="0 0 132 132"><circle cx="66.06" cy="66.41" r="65" fill="#fff"/><circle cx="66.06" cy="66.41" r="58.23" fill="#1783cc"/><circle cx="64.05" cy="68.42" r="56.22" fill="#074068"/><circle cx="65.23" cy="67.24" r="55.04" fill="#08518e"/><path d="M103.29,68.37c-.19,1.36-.33,2.74-.58,4.1A36,36,0,0,1,86.78,96.75a34.53,34.53,0,0,1-24.28,5.83C48.3,100.75,38.3,93.06,32.59,80a34.59,34.59,0,0,1-2.43-18.54,36.35,36.35,0,0,1,4.42-13.3,5.17,5.17,0,0,1,7-2.13,5.06,5.06,0,0,1,2.17,6.83,31,31,0,0,0-3,8.16A26.48,26.48,0,0,0,58.55,91.26a24.55,24.55,0,0,0,12.52.83C81.4,90,88.41,84,91.69,74c2.57-7.84,1.34-15.37-3.12-22.34,0-.06-.09-.11-.19-.23-.53,1.19-1,2.34-1.57,3.49-1,2.32-2.56,2.66-4.46,1a8,8,0,0,1-1.19-1.34q-5.46-7.5-10.91-15a6.54,6.54,0,0,1-.79-1.35,2.77,2.77,0,0,1,2.18-4.09c2-.34,3.93-.51,5.9-.72,4.35-.47,8.69-.93,13-1.36a10.38,10.38,0,0,1,2.84,0,2.42,2.42,0,0,1,2,3.44c-.58,1.59-1.31,3.12-2,4.67a.86.86,0,0,0,.15,1.12,36.41,36.41,0,0,1,9.39,19.81c.14.94.24,1.89.36,2.83Z" fill="#d8d8d8"/><path d="M102.29,66.37c-.19,1.36-.33,2.74-.58,4.1A36,36,0,0,1,85.78,94.75a34.53,34.53,0,0,1-24.28,5.83C47.3,98.75,37.3,91.06,31.59,78a34.59,34.59,0,0,1-2.43-18.54,36.35,36.35,0,0,1,4.42-13.3,5.17,5.17,0,0,1,7-2.13,5.06,5.06,0,0,1,2.17,6.83,31,31,0,0,0-3,8.16A26.48,26.48,0,0,0,57.55,89.26a24.55,24.55,0,0,0,12.52.83C80.4,88,87.41,82,90.69,72c2.57-7.84,1.34-15.37-3.12-22.34,0-.06-.09-.11-.19-.23-.53,1.19-1,2.34-1.57,3.49-1,2.32-2.56,2.66-4.46,1a8,8,0,0,1-1.19-1.34q-5.46-7.5-10.91-15a6.54,6.54,0,0,1-.79-1.35,2.77,2.77,0,0,1,2.18-4.09c2-.34,3.93-.51,5.9-.72,4.35-.47,8.69-.93,13-1.36a10.38,10.38,0,0,1,2.84,0,2.42,2.42,0,0,1,2,3.44c-.58,1.59-1.31,3.12-2,4.67a.86.86,0,0,0,.15,1.12,36.41,36.41,0,0,1,9.39,19.81c.14.94.24,1.89.36,2.83Z" fill="#fff"/></svg>