<svg xmlns="http://www.w3.org/2000/svg" viewBox="0 0 92 92"><defs></defs><g class="cls-1" style="isolation:isolate;"><g id="Layer_1" data-name="Layer 1"><g class="cls-2" style="opacity:0.5;"><circle class="cls-3" style="fill:#fff;" cx="45.54" cy="45.78" r="45"/></g><circle class="cls-4" style="fill:#542a0e;" cx="45.54" cy="45.78" r="41.28"/><path class="cls-5" style="fill:#700f52;mix-blend-mode:multiply;opacity:0.29;" d="M45,44.59c-3,0-7.82,0-13.19.28a20.28,20.28,0,0,0,5,4.37s-3.68,8.11-1.44,9.48c.58.35,2.76,0,2.76,0,3-.57,4.2-1.34,6.88-2.75,2.44,1.46,9.14,4.61,9.69,1.89.46-2.36-.6-5.8-1.27-7.64,0,0,0-.08,0-.12a55.79,55.79,0,0,0,6-5.15C53.49,44.62,48.11,44.58,45,44.59Z"/><path class="cls-6" style="fill:#c6780d;" d="M57.23,43.06a53.3,53.3,0,0,0-7-1.72c-1.28-3.38-2.86-6.23-4.7-7-1.63-.69-3.65,4.8-4.21,6.41a28.8,28.8,0,0,0-4.5.59,15,15,0,0,0-3.5,1.12s-2.63,1.39,4.54,6.63c0,0-3.22,7.58-1.26,8.86a1.68,1.68,0,0,0,1.25.09A40.36,40.36,0,0,0,45,54.85c2.14,1.36,8,4.81,8.47,2.26.41-2.2-.52-5.42-1.11-7.14,0,0,0-.08,0-.11a42.31,42.31,0,0,0,5.54-5.21C58.73,43.5,57.23,43.06,57.23,43.06Z"/><path class="cls-7" style="fill:#f4bf1c;" d="M52.24,54.13c-.41,2.2-5.46-.78-7.31-2a34.45,34.45,0,0,1-6.17,2.73,1.43,1.43,0,0,1-1.09-.07c-1.68-1.1,1.09-7.65,1.09-7.65-6.19-4.52-3.92-5.72-3.92-5.72a11.31,11.31,0,0,1,2.24-.78,7.75,7.75,0,0,1-.26-1,15,15,0,0,0-3.5,1.12s-2.63,1.4,4.54,6.64c0,0-3.22,7.58-1.26,8.86a1.66,1.66,0,0,0,1.25.08A39,39,0,0,0,45,53.23c2.14,1.36,8,4.82,8.47,2.27.41-2.21-.52-5.43-1.11-7.14l-1,0A13.71,13.71,0,0,1,52.24,54.13Z"/><path class="cls-8" style="fill:#f6f152;" d="M57.23,41.45a53.44,53.44,0,0,0-7-1.73c-1.28-3.38-2.86-6.23-4.7-7-1.63-.7-3.65,4.8-4.21,6.41a27.77,27.77,0,0,0-4.5.58,7.75,7.75,0,0,0,.26,1A22.74,22.74,0,0,1,41.75,40c.48-1.39,2.22-6.13,3.63-5.53,1.59.68,2.95,3.14,4,6.05a46,46,0,0,1,6,1.49s1.3.38.56,1.37a36.76,36.76,0,0,1-4.78,4.49c0,.15.1.31.16.47l1,0s0-.08,0-.12A41.85,41.85,0,0,0,57.87,43C58.73,41.89,57.23,41.45,57.23,41.45Z"/><path class="cls-9" style="fill:#f6ae0d;" d="M38.76,47.19S36,53.74,37.67,54.84a1.43,1.43,0,0,0,1.09.07,34.45,34.45,0,0,0,6.17-2.73c1.85,1.17,6.9,4.15,7.31,2a13.71,13.71,0,0,0-.83-5.79C41.05,48.1,38,43.41,37.08,40.69a11.31,11.31,0,0,0-2.24.78S32.57,42.67,38.76,47.19Z"/><path class="cls-10" style="fill:#f8da48;" d="M51.41,48.34c-.06-.16-.11-.32-.16-.47A36.76,36.76,0,0,0,56,43.38c.74-1-.56-1.37-.56-1.37a46,46,0,0,0-6-1.49c-1.1-2.91-2.46-5.37-4-6.05-1.41-.6-3.15,4.14-3.63,5.53a22.74,22.74,0,0,0-4.67.69C38,43.41,41.05,48.1,51.41,48.34Z"/><ellipse class="cls-11" style="fill:#fff;opacity:0.85;" cx="37.33" cy="55.49" rx="0.83" ry="0.58" transform="translate(-22.74 26.1) rotate(-30)"/><ellipse class="cls-3" style="fill:#fff;" cx="57.08" cy="42.28" rx="0.58" ry="0.83" transform="translate(2.68 87.95) rotate(-76.54)"/><path class="cls-12" style="opacity:0.5;fill:#f6f152;mix-blend-mode:soft-light;" d="M38,39.48s-4,.69-4.67,1.34-.92,2,2.08,4.67C35.4,45.49,32.12,41.18,38,39.48Z"/><path class="cls-12" style="opacity:0.5;fill:#f6f152;mix-blend-mode:soft-light;" d="M47.59,55.08s3.69,1.63,4.63,1.47,1.9-1.19.86-5C53.08,51.51,53.42,56.92,47.59,55.08Z"/><g class="cls-13" style="mix-blend-mode:multiply;opacity:0.29;"><path class="cls-14" style="fill:#700f52;" d="M18.17,44.28a27.47,27.47,0,0,1,11.52-20l-3.52-6.09a34.54,34.54,0,0,0-15,26.05Z"/><path class="cls-14" style="fill:#700f52;" d="M34,21.82a27.52,27.52,0,0,1,23,0l3.51-6.1a34.51,34.51,0,0,0-30.08,0Z"/><path class="cls-14" style="fill:#700f52;" d="M61.39,24.32a27.51,27.51,0,0,1,11.53,20h7a34.54,34.54,0,0,0-15-26Z"/><path class="cls-14" style="fill:#700f52;" d="M72.92,49.28a27.51,27.51,0,0,1-11.53,20l3.52,6.09a34.54,34.54,0,0,0,15-26Z"/><path class="cls-14" style="fill:#700f52;" d="M29.69,69.24a27.47,27.47,0,0,1-11.52-20h-7a34.54,34.54,0,0,0,15,26.05Z"/><path class="cls-14" style="fill:#700f52;" d="M57.07,71.74a27.52,27.52,0,0,1-23,0l-3.52,6.1a34.51,34.51,0,0,0,30.08,0Z"/><path class="cls-14" style="fill:#700f52;" d="M18.17,44.28a27.47,27.47,0,0,1,11.52-20l-1.5-2.59a30.48,30.48,0,0,0-13,22.55Z"/><path class="cls-14" style="fill:#700f52;" d="M34,21.82a27.52,27.52,0,0,1,23,0l1.5-2.6a30.44,30.44,0,0,0-26.06,0Z"/><path class="cls-14" style="fill:#700f52;" d="M61.39,24.32a27.51,27.51,0,0,1,11.53,20h3a30.48,30.48,0,0,0-13-22.55Z"/><path class="cls-14" style="fill:#700f52;" d="M72.92,49.28a27.51,27.51,0,0,1-11.53,20l1.5,2.59a30.46,30.46,0,0,0,13-22.55Z"/><path class="cls-14" style="fill:#700f52;" d="M29.69,69.24a27.47,27.47,0,0,1-11.52-20h-3a30.5,30.5,0,0,0,13,22.56Z"/><path class="cls-14" style="fill:#700f52;" d="M57.07,71.74a27.52,27.52,0,0,1-23,0l-1.51,2.6a30.44,30.44,0,0,0,26.06,0Z"/></g><path id="base6" class="cls-15" style="fill:#999;" d="M18.17,43.28a27.47,27.47,0,0,1,11.52-20l-3.52-6.09a34.54,34.54,0,0,0-15,26.05Z"/><path id="base1" class="cls-15" style="fill:#999;" d="M34,20.82a27.52,27.52,0,0,1,23,0l3.51-6.1a34.51,34.51,0,0,0-30.08,0Z"/><path id="base2" class="cls-15" style="fill:#999;" d="M61.39,23.32a27.51,27.51,0,0,1,11.53,20h7a34.54,34.54,0,0,0-15-26Z"/><path id="base3" class="cls-15" style="fill:#999;" d="M72.92,48.28a27.51,27.51,0,0,1-11.53,20l3.52,6.09a34.54,34.54,0,0,0,15-26Z"/><path id="base5" class="cls-15" style="fill:#999;" d="M29.69,68.24a27.47,27.47,0,0,1-11.52-20h-7a34.54,34.54,0,0,0,15,26.05Z"/><path id="base4" class="cls-15" style="fill:#999;" d="M57.07,70.74a27.52,27.52,0,0,1-23,0l-3.52,6.1a34.51,34.51,0,0,0,30.08,0Z"/><path id="top6" class="cls-16" style="fill:#606060;" d="M18.17,43.28a27.47,27.47,0,0,1,11.52-20l-1.5-2.59a30.48,30.48,0,0,0-13,22.55Z"/><path id="top1" class="cls-16" style="fill:#606060;" d="M34,20.82a27.52,27.52,0,0,1,23,0l1.5-2.6a30.44,30.44,0,0,0-26.06,0Z"/><path id="top2" class="cls-16" style="fill:#606060;" d="M61.39,23.32a27.51,27.51,0,0,1,11.53,20h3a30.48,30.48,0,0,0-13-22.55Z"/><path id="top3" class="cls-16" style="fill:#606060;" d="M72.92,48.28a27.51,27.51,0,0,1-11.53,20l1.5,2.59a30.46,30.46,0,0,0,13-22.55Z"/><path id="top5" class="cls-16" style="fill:#606060;" d="M29.69,68.24a27.47,27.47,0,0,1-11.52-20h-3a30.5,30.5,0,0,0,13,22.56Z"/><path id="top4" class="cls-16" style="fill:#606060;" d="M57.07,70.74a27.52,27.52,0,0,1-23,0l-1.51,2.6a30.44,30.44,0,0,0,26.06,0Z"/></g></g></svg>