<svg id="Layer_1" data-name="Layer 1" xmlns="http://www.w3.org/2000/svg" viewBox="0 0 227 421"><defs><style>.cls-1{fill:#db3c2c;}.cls-2{fill:#f7b728;}.cls-3{fill:#f55249;}.cls-4{fill:#f2554c;}.cls-5{fill:#f2ca62;}.cls-6{fill:#fff;}.cls-7{fill:#191917;}.cls-8{fill:#4f847a;}.cls-9{fill:#416d65;}.cls-10{fill:#3e6d65;}.cls-11{fill:#7cb3ae;}.cls-12{fill:#7bb3ac;}.cls-13{fill:#282828;}.cls-14{fill:#292929;}.cls-15{fill:#f8f7f8;}.cls-16{fill:#f6da78;}</style></defs><path class="cls-1" d="M123.75,199.38c-.94,2.17-1.77,4.34-2.5,6.53s-1.4,4.39-2,6.59c-1.23,4.41-2.22,8.84-3.07,13.29A196.46,196.46,0,0,0,113,252.71a169.44,169.44,0,0,0,.75,27.27,95.77,95.77,0,0,0,2.54,13.72,43.52,43.52,0,0,0,2.4,6.81,21,21,0,0,0,1.87,3.3,7.78,7.78,0,0,0,1.45,1.48,3.61,3.61,0,0,0,1,.53,2.22,2.22,0,0,0,1.14,0l.09,0a.38.38,0,0,0,.28-.47.39.39,0,0,0-.37-.3c-.85,0-1.48-1-1.87-2a17.16,17.16,0,0,1-.89-3.14,56,56,0,0,1-.82-6.61c-.35-4.44-.45-8.91-.46-13.38,0-8.95.35-17.9.83-26.84s.94-17.89,1.57-26.83l1-13.4c.32-4.47.65-8.94,1-13.41a.41.41,0,0,0-.36-.42.41.41,0,0,0-.39.23Z"/><path class="cls-1" d="M128,306.1a41.9,41.9,0,0,0-7.24-1.29,35.71,35.71,0,0,0-7.45.06c-2.48.29-5.14.63-7.39,2.06a10.6,10.6,0,0,0-4.86,6,.16.16,0,0,0,.12.2.14.14,0,0,0,.14,0h0c1.06-.72,2-1.35,3-1.92s2-1,3-1.44l3.09-1.28a20.24,20.24,0,0,1,3.27-1.09,42.6,42.6,0,0,1,7-1,50.89,50.89,0,0,1,7.2,0h0a.16.16,0,0,0,.17-.15A.17.17,0,0,0,128,306.1Z"/><path class="cls-1" d="M124.51,305.58a57.88,57.88,0,0,0-5.34-2.53,43.29,43.29,0,0,0-5.67-1.88c-1.94-.48-4-1.16-6.16-.77a7.58,7.58,0,0,0-3.17,1.25,3.71,3.71,0,0,0-1.7,2.94.17.17,0,0,0,.18.17.15.15,0,0,0,.11,0h0a4.56,4.56,0,0,1,2.37-1.05,15.37,15.37,0,0,1,2.47-.1c.85,0,1.74,0,2.65,0a18.79,18.79,0,0,1,2.8.08c.93.1,1.88.23,2.82.39s1.89.32,2.84.51c1.9.36,3.79.82,5.68,1.3a.15.15,0,0,0,.19-.11A.16.16,0,0,0,124.51,305.58Z"/><path class="cls-1" d="M99.83,201.13q-1.42,3.24-2.5,6.53c-.75,2.18-1.4,4.38-2,6.58-1.22,4.41-2.22,8.84-3.07,13.29a200,200,0,0,0-3.15,26.92,169.42,169.42,0,0,0,.76,27.27,96.88,96.88,0,0,0,2.53,13.72,43.57,43.57,0,0,0,2.41,6.81,20.58,20.58,0,0,0,1.87,3.3A7.72,7.72,0,0,0,98.09,307a3.2,3.2,0,0,0,1,.53,2.12,2.12,0,0,0,1.14,0l.09,0a.4.4,0,0,0,.28-.48.39.39,0,0,0-.37-.29c-.86,0-1.48-1-1.88-2a17.14,17.14,0,0,1-.88-3.14,55.6,55.6,0,0,1-.82-6.6c-.35-4.44-.45-8.92-.46-13.39,0-8.94.35-17.89.83-26.84S98,237,98.58,228l1-13.4q.47-6.71,1-13.4a.39.39,0,0,0-.74-.19Z"/><path class="cls-1" d="M104.07,307.84a42.88,42.88,0,0,0-7.24-1.29,35,35,0,0,0-7.45.07c-2.48.28-5.14.63-7.4,2.05a10.69,10.69,0,0,0-4.85,6,.18.18,0,0,0,.12.21.22.22,0,0,0,.14,0h0c1.07-.71,2-1.35,3-1.91a32.09,32.09,0,0,1,3-1.44l3.09-1.28a19,19,0,0,1,3.27-1.1,42.45,42.45,0,0,1,7-1,50.9,50.9,0,0,1,7.2,0h0a.16.16,0,0,0,.17-.15A.16.16,0,0,0,104.07,307.84Z"/><path class="cls-1" d="M100.59,307.32a58,58,0,0,0-5.35-2.52,41.75,41.75,0,0,0-5.66-1.89c-1.94-.48-4-1.16-6.16-.76a7.51,7.51,0,0,0-3.17,1.24,3.7,3.7,0,0,0-1.7,2.95.17.17,0,0,0,.28.13h0a4.63,4.63,0,0,1,2.36-1,13.51,13.51,0,0,1,2.48-.1c.85,0,1.73,0,2.65,0a20.1,20.1,0,0,1,2.79.08c.94.1,1.88.23,2.83.4s1.89.31,2.84.51c1.9.35,3.78.82,5.67,1.3a.17.17,0,0,0,.2-.11A.17.17,0,0,0,100.59,307.32Z"/><path class="cls-2" d="M130.67,166.25l.22-.2S124,89.94,116.08,69.73,86.25,47.86,86.25,47.86L83.58,72.32C67.93,78.86,41,101.92,41,183.24,41,297.75,168.5,301.37,183.39,301.81,183.39,301.81,146.35,225.22,130.67,166.25Z"/><path class="cls-3" d="M55.69,49.12l-1.53,68s14.87,15.63,40,3.81,22.87-36.6,22.87-36.6.8-29.54-25.9-34.78Z"/><path class="cls-4" d="M167.62,295.62s22.3,29.66,29.66,66.95c0,0,2.45,20.9-13.89,6.78,0,0,9.26,45.69,2.88,51.41s-17.89-22.89-21-36.17c0,0-.32,15-5.35,14.15s-12.64-9.9-18.86-41.54-5.65-79.59-5.65-79.59Z"/><path class="cls-1" d="M185.42,356.48h.17a1,1,0,0,0,.77-1.11c-3.15-17.5-25.28-54.2-26.22-55.75a1,1,0,0,0-1.64,1c.23.38,22.89,37.95,26,55.1A1,1,0,0,0,185.42,356.48Z"/><path class="cls-1" d="M178.78,404.46h.11a1,1,0,0,0,.84-1.07c-4.35-36.12-26.3-104.22-26.53-104.9a1,1,0,0,0-1.2-.62,1,1,0,0,0-.62,1.21c.22.68,22.12,68.61,26.45,104.54A1,1,0,0,0,178.78,404.46Z"/><path class="cls-1" d="M154.49,377.43a.83.83,0,0,0,.22,0,1,1,0,0,0,.71-1.16c-5.37-21.94-9.92-81-10-81.61a1,1,0,0,0-1-.88,1,1,0,0,0-.89,1c.05.59,4.61,59.82,10,81.92A.94.94,0,0,0,154.49,377.43Z"/><path class="cls-3" d="M79.74,51.33S68.73,31.84,67.31,16,77.86-5.85,81.91,9.75s2,41.58,2,41.58Z"/><path class="cls-3" d="M79.74,51.33S91.89-2.06,106.86,6.13c0,0,13,7.4-22.94,45.2Z"/><path class="cls-3" d="M79.74,51.33S121.27,21.38,131.15,31,110.53,50.2,87.09,52.46Z"/><path class="cls-5" d="M82.57,48.09a.61.61,0,0,1-.32-.08.65.65,0,0,1-.23-.88L99.11,17.81a.64.64,0,1,1,1.1.65L83.12,47.78A.62.62,0,0,1,82.57,48.09Z"/><path class="cls-5" d="M79.74,52a.64.64,0,0,1-.63-.53c0-.3-4.88-29.76-5.09-40.7a.64.64,0,0,1,.63-.65.61.61,0,0,1,.65.63c.21,10.84,5,40.22,5.07,40.51a.64.64,0,0,1-.52.74Z"/><path class="cls-5" d="M82.57,50a.64.64,0,0,1-.2-1.24c1.35-.46,33.07-11.12,39-12.38a.63.63,0,0,1,.76.49.64.64,0,0,1-.49.76C115.78,38.86,83.11,49.85,82.78,50Z"/><path class="cls-6" d="M51.81,47.45l-1.48,66s14.43,15.18,38.86,3.7S111.4,81.63,111.4,81.63,112.17,53,86.25,47.86Z"/><path class="cls-7" d="M8,98.87s7.87-4,14.1,2.88,14.35,16.93,28.23,11.71l.61-27.39S49.54,93,32,89.33C32,89.33,14.38,84.07,8,98.87Z"/><path class="cls-8" d="M213.82,296.17c-14.88-21.28-21.86-45.7-28.18-70.42-3.82-15-6.69-30.22-14.46-43.92-8.45-14.9-21.42-23-37.92-26.08-11.69-2.65-29.67,10.14-35,22.1-7.06,15.84-9.06,32.21-7.15,49.23,3,27,18.54,45.86,39.69,61.12,14.12,10.2,30,16.79,46.17,22.69,3.25,1.18,7-1,9.86,1.82,11.56,2,23.15,3.31,34.86,1.34a3.71,3.71,0,0,0-3.19-1.79c-21.19-1.81-38.5-12.53-55.24-24.33-18.58-13.09-33.85-29.54-47.09-47.93,5.3,6.31,10.22,12.95,16.16,18.72,6.11,5.93,12.91,11,19.47,16.44s13.55,9.5,20.67,13.74c7.32,4.36,14.9,8.18,22.55,11.88,2.25,1.09,5.07,2.78,7,.37s-.42-4.79-1.86-6.77c-12.9-17.67-22.2-37.16-29.54-57.66-.49-1.38-1.26-2.71-1-4.62,2.74,1.15,2.92,3.84,3.77,5.9,7.71,18.75,17,36.57,29.72,52.51,2.25,2.83,4.41,5.8,7.64,7.57C212.46,299,214.8,299.94,213.82,296.17Z"/><path class="cls-9" d="M169.75,310,180,312.1l6.78.6c.63-.09,1.61,0,1.83-.31,1.27-2-.93-1-1.25-1.1-8.18-1.43-15.85-4.4-23.54-7.43-21.51-8.47-40.38-20.95-55.2-38.62-9.36-11.17-14.48-24.89-15.85-39.52-1.6-17.16.09-34,8.59-49.39,6.24-11.29,16.37-17.36,29-19.5a15.26,15.26,0,0,0,2.88-1.08l-1.94-1.22c-13.69-.33-26.74,1.36-37.26,11.44a45.13,45.13,0,0,0-13,23c-9.32,41,1.82,73.06,37.53,97.37C134.41,297.11,151.66,304.38,169.75,310Z"/><path class="cls-10" d="M112.78,235.4c2.16-1.52,3.1.95,4.29,2.4,4.82,5.92,9.34,12.15,14.7,17.52a203.18,203.18,0,0,0,49.47,36.48c6.42,3.37,12.76,7.12,20.62,9.66-.65-1.9-.73-2.82-1.2-3.43-14.83-19-24.56-40.56-32.72-63-.82-2.26-3-5.08.61-6.36,3.31-1.16,4,2.09,4.95,4.46,5.35,12.72,10.51,25.56,17.95,37.25,5.69,8.94,11.37,17.94,19,25.4.73.71,1.85,4.09,3.35.38h.51a11,11,0,0,0,2.19,3.34,10.6,10.6,0,0,0,1.44,2c2,2.54,4,5.09,6,7.62.88,1.1,2.59,2,2.06,3.58-.71,2.06-2.79,1.11-4.33,1.31-13.29,1.05-24.83-4.53-36.16-10.13-23.53-11.65-42.86-28.73-60-48.39-4.3-4.94-8-10.41-11.81-15.76C112.86,238.56,111,236.68,112.78,235.4Z"/><path class="cls-11" d="M114.22,186.1c-.08,6.25,5.31,9.52,11,6.68,6-2.95,12.49-14.62,11.88-21.32-.35-3.81-2.29-6-6.26-5.41C124.72,166.94,114.3,179.6,114.22,186.1Z"/><path class="cls-12" d="M100.14,201.33c.19,4.51,1.79,7.61,5.78,8.68,4.23,1.14,4.64-2.75,5.91-5.16,2-3.74,1.21-7.87.84-11.81-.2-2.22-1.09-4.88-3.86-5.18a5.63,5.63,0,0,0-6.06,3.67C101.54,194.86,100.9,198.39,100.14,201.33Z"/><path class="cls-13" d="M51.81,47.45H29S.65,47.37.65,81.13v19.06s-.28,11.44,1.56,10.88S7.93,97.64,9.83,95.25s7.91-8.19,19.35-6.36,20.08,2.69,21.76-2.82Z"/><path class="cls-14" d="M73.16,86.25A14.57,14.57,0,0,1,58.69,71.66c-.09-7.15,5.38-12.42,13.06-12.59,8.38-.19,14.84,6,14.75,14C86.4,80.75,80.86,86.21,73.16,86.25Z"/><path class="cls-15" d="M76,70.36c-.4,3-1.77,5.23-5.1,5.3-3.83.08-5.88-2.1-6-5.81C64.89,66.46,67.08,65,70.24,65,73.75,65,75.57,67,76,70.36Z"/><path class="cls-16" d="M44.83,185.35l.38,5a1,1,0,0,0,2,0l-.38-5a1,1,0,0,0-1-1,1,1,0,0,0-1,1Z"/><path class="cls-16" d="M46.25,196.39l.35,1.82a1,1,0,0,0,1.23.7,1,1,0,0,0,.59-.46l.1-.24a1,1,0,0,0,0-.53l-.34-1.82a1,1,0,0,0-.46-.6,1,1,0,0,0-1.37.36l-.1.24a1,1,0,0,0,0,.53Z"/><path class="cls-16" d="M48.71,205.58A5.55,5.55,0,0,0,49,207a5.64,5.64,0,0,0,.65,1.27,1.13,1.13,0,0,0,.59.46,1.07,1.07,0,0,0,.78-.11,1,1,0,0,0,.35-1.36,5,5,0,0,1-.48-.88l.1.24a5.2,5.2,0,0,1-.32-1.17l0,.26s0-.07,0-.11a.82.82,0,0,0-.09-.38.78.78,0,0,0-.21-.33,1,1,0,0,0-.7-.29,1,1,0,0,0-.71.29,1,1,0,0,0-.29.71Z"/><path class="cls-16" d="M51.33,213.71l.78,1.52a1,1,0,0,0,.6.46.77.77,0,0,0,.4,0,.85.85,0,0,0,.37-.12,1,1,0,0,0,.46-.6l0-.26a1,1,0,0,0-.13-.51l-.78-1.52a1.07,1.07,0,0,0-.6-.46.77.77,0,0,0-.4,0,.85.85,0,0,0-.37.12,1.06,1.06,0,0,0-.46.6l0,.27a1,1,0,0,0,.13.5Z"/><path class="cls-16" d="M53,220a5,5,0,0,0,.85,1.24,4.84,4.84,0,0,0,1.17.94,1,1,0,0,0,.77.1,1,1,0,0,0,.6-.46,1,1,0,0,0,.1-.77,1.06,1.06,0,0,0-.46-.6,3.52,3.52,0,0,1-.45-.3l.2.16a4.26,4.26,0,0,1-.73-.74l.16.2a3.89,3.89,0,0,1-.48-.78,1,1,0,0,0-1.37-.36,1,1,0,0,0-.46.59l0,.27A1,1,0,0,0,53,220Z"/><path class="cls-16" d="M48.06,182.42a16.86,16.86,0,0,0-.2,3.75,1,1,0,0,0,1,1,1,1,0,0,0,1-1,15.29,15.29,0,0,1,.1-3l0,.27c0-.15,0-.31.07-.46a1.06,1.06,0,0,0-.1-.78,1,1,0,0,0-1.83.24Z"/><path class="cls-16" d="M49,192.75l.38,2.31a1,1,0,0,0,.46.6,1,1,0,0,0,.77.1,1.06,1.06,0,0,0,.6-.46l.1-.24a1.19,1.19,0,0,0,0-.53L51,192.22a1,1,0,0,0-.46-.6,1,1,0,0,0-1.37.36l-.1.24a1,1,0,0,0,0,.53Z"/><path class="cls-16" d="M51.06,201.54a5.44,5.44,0,0,0,.75,2.06,1,1,0,0,0,.6.46,1,1,0,0,0,.77-.1,1,1,0,0,0,.36-1.37,3.78,3.78,0,0,1-.33-.63l.1.24A5.09,5.09,0,0,1,53,201a1,1,0,0,0-.45-.59,1,1,0,0,0-.78-.1,1,1,0,0,0-.59.45l-.1.24a1,1,0,0,0,0,.54Z"/><path class="cls-16" d="M52.72,208l.5,1.33a.75.75,0,0,0,.18.34.78.78,0,0,0,.28.26.72.72,0,0,0,.37.11.77.77,0,0,0,.4,0,1,1,0,0,0,.6-.46,1,1,0,0,0,.1-.77l-.5-1.33a.75.75,0,0,0-.18-.34.78.78,0,0,0-.28-.26.81.81,0,0,0-.37-.12.78.78,0,0,0-.4,0,1,1,0,0,0-.6.46,1,1,0,0,0-.1.77Z"/><path class="cls-16" d="M55,214.72l1.29,2a1,1,0,0,0,1.36.36,1,1,0,0,0,.36-1.37l-1.29-2a1,1,0,0,0-1.36-.36,1,1,0,0,0-.36,1.37Z"/><path class="cls-16" d="M57.81,221.06l1.53.92a1,1,0,0,0,.77.1,1,1,0,0,0,.6-.46,1,1,0,0,0,.1-.77,1,1,0,0,0-.46-.59l-1.53-.93a1,1,0,0,0-1.37.36,1,1,0,0,0-.1.77,1.06,1.06,0,0,0,.46.6Z"/><path class="cls-16" d="M52.64,183.81l-.17.16a.72.72,0,0,0-.21.33.69.69,0,0,0-.08.38,1,1,0,0,0,.29.71l.2.15a1,1,0,0,0,.51.14l.26,0a.92.92,0,0,0,.44-.25l.17-.17a1,1,0,0,0,.29-.71.73.73,0,0,0-.08-.38.75.75,0,0,0-.21-.32l-.2-.16a1.15,1.15,0,0,0-.51-.14l-.26,0a.94.94,0,0,0-.44.26Z"/><path class="cls-16" d="M53.45,191.11q.69,2.31,1.45,4.61a1,1,0,1,0,1.93-.53q-.77-2.3-1.45-4.61a1,1,0,0,0-1.93.53Z"/><path class="cls-16" d="M55.8,200.45l.49.66a.78.78,0,0,0,.26.28.75.75,0,0,0,.34.18.78.78,0,0,0,.4,0,.81.81,0,0,0,.37-.12l.21-.16a1,1,0,0,0,.25-.44l0-.26a1,1,0,0,0-.14-.51l-.5-.66a.68.68,0,0,0-.25-.28.75.75,0,0,0-.34-.18.78.78,0,0,0-.4,0,.77.77,0,0,0-.37.12l-.21.16a.92.92,0,0,0-.25.44l0,.26a1,1,0,0,0,.14.51Z"/><path class="cls-16" d="M58.65,211.49a6.7,6.7,0,0,0,1,2.56,1.07,1.07,0,0,0,.6.46,1.09,1.09,0,0,0,.77-.1,1.06,1.06,0,0,0,.46-.6,1,1,0,0,0-.1-.77,5.57,5.57,0,0,1-.48-.9l.1.23a5.67,5.67,0,0,1-.39-1.41,1,1,0,0,0-.46-.6,1.08,1.08,0,0,0-.77-.1,1.06,1.06,0,0,0-.6.46l-.1.24a1,1,0,0,0,0,.53Z"/><path class="cls-16" d="M60.27,218.23a4.58,4.58,0,0,1,.42.46l-.16-.2a4,4,0,0,1,.5.85l-.1-.24a1.46,1.46,0,0,1,.07.19.75.75,0,0,0,.18.34.87.87,0,0,0,.28.26.72.72,0,0,0,.37.11.77.77,0,0,0,.4,0,1,1,0,0,0,.7-1.23,4.81,4.81,0,0,0-1.25-1.94,1,1,0,0,0-1.41,0,1,1,0,0,0-.29.71,1,1,0,0,0,.29.7Z"/><path class="cls-16" d="M56.82,206.12l0,0-.2-.16a1.34,1.34,0,0,1,.2.21l-.15-.21a1.56,1.56,0,0,1,.16.28l-.1-.24a1.09,1.09,0,0,1,.08.31.75.75,0,0,0,.18.34.68.68,0,0,0,.28.25.65.65,0,0,0,.37.12.77.77,0,0,0,.4,0l.24-.11a.93.93,0,0,0,.36-.35l.1-.24a1,1,0,0,0,0-.54,1.05,1.05,0,0,0-.06-.24,2.4,2.4,0,0,0-.21-.46l-.07-.11c-.08-.1-.15-.2-.23-.29l-.1-.09-.29-.23a.85.85,0,0,0-.38-.12.74.74,0,0,0-.39,0,1.15,1.15,0,0,0-.6.46l-.1.24a1,1,0,0,0,0,.53l.1.24a1,1,0,0,0,.36.36Z"/></svg>