<svg id="Layer_1" data-name="Layer 1" xmlns="http://www.w3.org/2000/svg" viewBox="0 0 132 132"><circle cx="66.06" cy="66.41" r="65" fill="#fff"/><circle cx="66.06" cy="66.41" r="58.23" fill="#1783cc"/><circle cx="64.05" cy="68.42" r="56.22" fill="#074068"/><circle cx="65.23" cy="67.24" r="55.04" fill="#08518e"/><path d="M67.19,40.17S95.85,59.38,95.85,66.3,76.12,90.81,67.19,94.65c-8.35,3.58-10.83-3.67-8.43-6.83C61.51,84,71.19,75,74.23,71.38c1-1.18,3.55-3.78.83-7.08S60,49.06,60,49.06s-4.58-4.57-1.54-8.38C61.84,36.39,67.19,40.17,67.19,40.17Z" fill="#d8d8d8"/><path d="M48.85,49S66.09,60.78,66.09,67.32c-1.3,8-23.05,25.34-28.82,18.12C31.57,75.68,52.45,72.06,45,63.59c-3.81-4-6.85-6.73-6.85-6.73s-4.2-4.08.35-7.91C43.18,45,48.85,49,48.85,49Z" fill="#d8d8d8"/><path d="M67.19,38.74S95.85,58,95.85,64.88,76.12,89.39,67.19,93.22c-8.35,3.58-10.83-3.66-8.43-6.82C61.51,82.57,71.19,73.58,74.23,70c1-1.18,3.55-3.78.83-7.09S60,47.64,60,47.64s-4.58-4.58-1.54-8.38C61.84,35,67.19,38.74,67.19,38.74Z" fill="#fbfcfa"/><path d="M48.85,47.52S66.09,59.36,66.09,65.9C64.79,73.93,43,91.23,37.27,84,31.57,74.25,52.45,70.64,45,62.16c-3.81-4-6.85-6.73-6.85-6.73s-4.2-4.07.35-7.91C43.18,43.55,48.85,47.52,48.85,47.52Z" fill="#fbfcfa"/></svg>