<svg id="e632803e-e16b-4a74-9328-06b0fcff3ebc" data-name="Layer 2" xmlns="http://www.w3.org/2000/svg" viewBox="0 0 219 47"><polygon points="205.54 0.08 218.81 43.92 184.44 43.92 196.16 0.08 205.54 0.08" style="fill:#2d5666"/><polygon points="0.19 46.92 193.57 46.92 205.54 0.08 12.16 0.08 0.19 46.92" style="fill:#c1deea"/><path d="M36.23,30.31l1.36-13-5.38,7.72H28.28L24.6,18,23.31,30.31l-4.75,0L20.75,9.49h5.19l5,10.35L38.42,9.49h4.74L41,30.31Z" style="fill:#0d3235"/><path d="M55.11,30.31a3.63,3.63,0,0,0,0-.5c0-.16,0-.35,0-.57s0-.45,0-.69a5.46,5.46,0,0,1-2.1,1.54,6.67,6.67,0,0,1-2.6.52A4.2,4.2,0,0,1,46.83,29,6.39,6.39,0,0,1,46,24.41a7.91,7.91,0,0,1,2.78-5.57,9.93,9.93,0,0,1,6.45-1.95q.66,0,1.2,0c.36,0,.72,0,1.08.1s.73.12,1.1.2.79.19,1.24.32L58.91,26q-.07.69-.12,1.44c0,.51-.06,1-.06,1.39s0,1,0,1.46Zm.4-9.72a5.77,5.77,0,0,0-.93-.15l-.78,0a3.5,3.5,0,0,0-2.66,1.06,4.73,4.73,0,0,0-1.22,2.94,2.71,2.71,0,0,0,.34,1.91,1.72,1.72,0,0,0,1.48.65A3.05,3.05,0,0,0,53,26.71,3.59,3.59,0,0,0,54,25.94a4.24,4.24,0,0,0,.79-1.16,4.72,4.72,0,0,0,.4-1.51Z" style="fill:#0d3235"/><path d="M71.31,30.31l.79-7.44A3,3,0,0,0,72,21.66a1.42,1.42,0,0,0-.4-.65,1,1,0,0,0-.54-.26,3.22,3.22,0,0,0-.5,0,3.63,3.63,0,0,0-.64.11,2.45,2.45,0,0,0-1,.55,4.42,4.42,0,0,0-1,1.26,6.42,6.42,0,0,0-.59,2.25l-.57,5.43h-4l.91-8.67a14.22,14.22,0,0,0,.06-2.27,6.72,6.72,0,0,0-.29-1.83h4a5.1,5.1,0,0,1,.18.69,7.11,7.11,0,0,1,.09.78A7.18,7.18,0,0,1,70,17.63a6.44,6.44,0,0,1,2.27-.44,4,4,0,0,1,1.7.35,3.55,3.55,0,0,1,1.29,1A4,4,0,0,1,76,20.05a5.69,5.69,0,0,1,.12,2.05l-.86,8.21Z" style="fill:#0d3235"/><path d="M91.33,34.61a7.28,7.28,0,0,1-1.6,2.74,5.25,5.25,0,0,1-2.41,1.44,11.85,11.85,0,0,1-3.34.42,9.36,9.36,0,0,1-1.9-.2,18.33,18.33,0,0,1-2-.52l.31-3,1.86.13c.58,0,1.16,0,1.74,0a4.48,4.48,0,0,0,1.63-.28,2.86,2.86,0,0,0,1.21-.9,4.94,4.94,0,0,0,.8-1.66,15.17,15.17,0,0,0,.46-2.54l.17-1.61a5.68,5.68,0,0,1-3.9,1.61A4,4,0,0,1,82.73,30a3.4,3.4,0,0,1-1.31-1,4.35,4.35,0,0,1-.79-1.58,5.59,5.59,0,0,1-.14-2.08c.08-.7.16-1.37.24-2S80.9,22,81,21.36s.13-1.3.19-2,.1-1.42.13-2.19h4c0,.79-.06,1.52-.12,2.2s-.13,1.31-.2,1.91-.15,1.17-.22,1.72-.13,1.09-.18,1.63a2.3,2.3,0,0,0,.27,1.64,1.44,1.44,0,0,0,1.21.5A2.65,2.65,0,0,0,87.92,26a3.48,3.48,0,0,0,1-2.22l.69-6.56h4L92.2,30.31A19.43,19.43,0,0,1,91.33,34.61Z" style="fill:#0d3235"/><path d="M119.69,24.55a6.9,6.9,0,0,1-.65,2.28,5.51,5.51,0,0,1-1.43,1.8,7,7,0,0,1-2.29,1.21,11.15,11.15,0,0,1-3.28.47,14.49,14.49,0,0,1-1.68-.1,14.68,14.68,0,0,1-1.85-.36,13.09,13.09,0,0,1-1.89-.63,9.91,9.91,0,0,1-1.71-.91l1.51-3.6a13.66,13.66,0,0,0,3.42,1.68,8.5,8.5,0,0,0,2.57.4,3,3,0,0,0,1.76-.54,1.83,1.83,0,0,0,.74-1.4,1.87,1.87,0,0,0-.4-1.32,5.53,5.53,0,0,0-1.63-1.23,29.79,29.79,0,0,1-2.81-1.79,9.57,9.57,0,0,1-1.83-1.71,5,5,0,0,1-.95-1.75,5.24,5.24,0,0,1-.19-1.92A5.44,5.44,0,0,1,109.3,11a9.09,9.09,0,0,1,5.36-1.53c.63,0,1.2,0,1.7,0a8.35,8.35,0,0,1,1.5.22,10.47,10.47,0,0,1,1.5.49c.51.22,1.07.49,1.68.82l-1.21,3.53a13,13,0,0,0-1.35-.72,10.2,10.2,0,0,0-1.21-.46,7.64,7.64,0,0,0-1.15-.26,9.41,9.41,0,0,0-1.23-.08,3.91,3.91,0,0,0-2.15.52,1.92,1.92,0,0,0-.9,1.59,1.71,1.71,0,0,0,.57,1.35A11.68,11.68,0,0,0,114.52,18c1,.58,1.8,1.11,2.49,1.6a8.92,8.92,0,0,1,1.67,1.49,4.2,4.2,0,0,1,.87,1.58A5,5,0,0,1,119.69,24.55Z" style="fill:#0d3235"/><path d="M135.12,20.8a3.86,3.86,0,0,1-.73,1.85,5.17,5.17,0,0,1-1.64,1.41,9,9,0,0,1-2.42.91,13.41,13.41,0,0,1-3.08.33h-.36l-.48,0a2.48,2.48,0,0,0,.71,1.78,2.58,2.58,0,0,0,1.86.64,9.66,9.66,0,0,0,4.54-1.34l-.33,3.13a9.63,9.63,0,0,1-2.26.94,9.39,9.39,0,0,1-2.37.28,7.57,7.57,0,0,1-2.66-.44A4.81,4.81,0,0,1,124,29a5,5,0,0,1-1.07-2,7,7,0,0,1-.17-2.67,8.67,8.67,0,0,1,.84-3,8,8,0,0,1,1.7-2.34,7.24,7.24,0,0,1,2.42-1.52,7.93,7.93,0,0,1,2.95-.54,5,5,0,0,1,3.42,1.07A3.18,3.18,0,0,1,135.12,20.8Zm-4,.3a.93.93,0,0,0-.33-.82,1.41,1.41,0,0,0-1-.35,2.65,2.65,0,0,0-1.78.7,3.73,3.73,0,0,0-1.11,1.93,2.32,2.32,0,0,0,.46.06h.45C129.91,22.62,131,22.11,131.12,21.1Z" style="fill:#0d3235"/><path d="M149.77,20.8a3.86,3.86,0,0,1-.73,1.85,5.17,5.17,0,0,1-1.64,1.41A9,9,0,0,1,145,25a13.41,13.41,0,0,1-3.08.33h-.36l-.48,0a2.48,2.48,0,0,0,.71,1.78,2.58,2.58,0,0,0,1.86.64,9.66,9.66,0,0,0,4.54-1.34l-.33,3.13a9.63,9.63,0,0,1-2.26.94,9.39,9.39,0,0,1-2.37.28,7.57,7.57,0,0,1-2.66-.44,4.92,4.92,0,0,1-1.91-1.3,5.12,5.12,0,0,1-1.06-2,7,7,0,0,1-.17-2.67,8.67,8.67,0,0,1,.84-3,8,8,0,0,1,1.7-2.34,7.24,7.24,0,0,1,2.42-1.52,7.93,7.93,0,0,1,2.95-.54,5,5,0,0,1,3.42,1.07A3.18,3.18,0,0,1,149.77,20.8Zm-4,.3a.93.93,0,0,0-.33-.82,1.41,1.41,0,0,0-1-.35,2.65,2.65,0,0,0-1.78.7,3.73,3.73,0,0,0-1.11,1.93,2.32,2.32,0,0,0,.46.06h.44C144.56,22.62,145.66,22.11,145.77,21.1Z" style="fill:#0d3235"/><path d="M161.72,30.31c0-.11,0-.25,0-.41s0-.3,0-.48,0-.4,0-.66a6.28,6.28,0,0,1-2.13,1.48,6.41,6.41,0,0,1-2.4.43,5.51,5.51,0,0,1-2.33-.46,4.59,4.59,0,0,1-1.68-1.28,5.2,5.2,0,0,1-1-2,7.53,7.53,0,0,1-.14-2.59,9.22,9.22,0,0,1,.81-3A8.3,8.3,0,0,1,154.48,19a7.1,7.1,0,0,1,2.27-1.55,6.78,6.78,0,0,1,2.74-.55,9,9,0,0,1,1.3.09,7,7,0,0,1,1.42.39L163,9.52h4l-1.71,16.26c0,.34-.06.77-.09,1.28s0,1,0,1.49,0,1.15,0,1.76Zm.14-9.57a4,4,0,0,0-1.07-.3,9.2,9.2,0,0,0-1.07-.06,3.33,3.33,0,0,0-2.51,1A4.59,4.59,0,0,0,156,24.23a2.86,2.86,0,0,0,.4,2,1.91,1.91,0,0,0,1.63.73,3.73,3.73,0,0,0,1.25-.21,2.55,2.55,0,0,0,1.07-.71,4.35,4.35,0,0,0,.8-1.33,7.49,7.49,0,0,0,.47-2Z" style="fill:#0d3235"/><path d="M179.07,26.67a4.21,4.21,0,0,1-1.57,3,5.75,5.75,0,0,1-3.67,1.1,14.39,14.39,0,0,1-3-.3,7.69,7.69,0,0,1-2.3-.8l.82-3a9.43,9.43,0,0,0,4.4,1.34,1.42,1.42,0,0,0,1-.29,1,1,0,0,0,.35-.64,1.08,1.08,0,0,0-.15-.73,3,3,0,0,0-1-.7,16.17,16.17,0,0,1-2-1.07,6.05,6.05,0,0,1-1.32-1.12,3.38,3.38,0,0,1-.68-1.24,4,4,0,0,1-.09-1.49,3.78,3.78,0,0,1,1.75-2.91,6.8,6.8,0,0,1,3.87-1,11.31,11.31,0,0,1,2.21.19,9.57,9.57,0,0,1,2.14.76l-.79,3a6.31,6.31,0,0,0-2-.82,8.75,8.75,0,0,0-1.93-.23,1.48,1.48,0,0,0-1,.26,1,1,0,0,0-.32.67.87.87,0,0,0,.32.82,7.4,7.4,0,0,0,1.5.82,15.77,15.77,0,0,1,1.7,1,5.34,5.34,0,0,1,1.12,1,2.78,2.78,0,0,1,.56,1.11A3.88,3.88,0,0,1,179.07,26.67Z" style="fill:#0d3235"/></svg>