<svg id="Layer_1" data-name="Layer 1" xmlns="http://www.w3.org/2000/svg" viewBox="0 0 184 184"><circle cx="92.06" cy="91.88" r="91.32" fill="#fff"/><circle cx="92.06" cy="91.88" r="81.81" fill="#1783cc"/><circle cx="89.23" cy="94.71" r="78.98" fill="#074068"/><circle cx="90.89" cy="93.05" r="77.32" fill="#08518e"/><path d="M120.93,82.68,77.81,57.78A10.63,10.63,0,0,0,61.87,67v49.8A10.63,10.63,0,0,0,77.81,126l43.12-24.9A10.62,10.62,0,0,0,120.93,82.68Z" fill="#d8d8d8"/><path d="M120.67,81.09,77.76,56.63a10.63,10.63,0,0,0-15.89,9.24v48.91A10.63,10.63,0,0,0,77.76,124l42.91-24.46A10.62,10.62,0,0,0,120.67,81.09Z" fill="#fbfcfa"/></svg>