<svg id="f6cb35e0-ee7c-4acc-ae53-4200b3457b78" data-name="Layer 1" xmlns="http://www.w3.org/2000/svg" viewBox="0 0 252 252"><path d="M60.67,53a1.5,1.5,0,0,1,.7.17,11.79,11.79,0,0,1,2,1.1,1.8,1.8,0,0,1,.45,2l-.15.35a63.79,63.79,0,0,1,8.59,9.47,50.85,50.85,0,0,1,5,8.29l1.11-.26a69.48,69.48,0,0,1,13.65-1.56,42.39,42.39,0,0,1,4.24.21l.88-.34a31.75,31.75,0,0,1,12-2.35,36.76,36.76,0,0,1,13.46,2.7c.5.19,1,.4,1.48.61A38,38,0,0,1,134.23,72a36.73,36.73,0,0,1,4.44.26c2.19.23,4.27.51,6.59.57h1.09c2,0,3.9-.12,5.84-.23,2.15-.1,4.37-.28,6.59-.28a29,29,0,0,1,4.17.28,60.33,60.33,0,0,1,17.3,4.93h1.94A33.24,33.24,0,0,1,204,85.91c8.29,6.91,14.06,17.09,17.54,26.47,3.35,9.06,4.35,19.5,3.35,29.86-.18,1.83-.42,3.66-.75,5.42-2,12.51-7,24.51-14.29,33.51-7,8.6-17.25,16.8-30,17.41-3,.14-5.91.22-8.66.22a87.14,87.14,0,0,1-15.76-1.22c-.74,0-1.48,0-2.23,0a69.14,69.14,0,0,1-28.44-6.22A75.2,75.2,0,0,1,114.64,194a68.8,68.8,0,0,1-25.89,5,62.83,62.83,0,0,1-28.65-6.66C42,183.07,33.42,164.71,28.84,144.71c-4-17.25-3-40.84,8.79-52.56a38,38,0,0,1,17.89-9.93c2.14-.53,4.18-1,6.38-1.73s4.32-1.69,6.43-2.61l3.53-1.54c-.07-.14-.13-.28-.2-.41a45.44,45.44,0,0,0-5.23-7.73c-1.49-1.8-5.17-6.22-7.34-6.52s-2.66.06-3.66-2.44A1.73,1.73,0,0,1,56,57a7.64,7.64,0,0,0,3-2.65h0a4.49,4.49,0,0,0,.24-.42l0,0a1.63,1.63,0,0,1,.68-.67,1.58,1.58,0,0,1,.77-.2m0-8a9.66,9.66,0,0,0-8.4,4.91,8.53,8.53,0,0,0-.76.46,9.74,9.74,0,0,0-3.4,12.09c1.76,4.25,4.38,6.37,8.64,7a32.09,32.09,0,0,1,3.06,3.29l-.49.17c-1.47.5-2.91.85-4.57,1.25l-1.12.28A45.94,45.94,0,0,0,32,86.46c-13.93,13.84-15.54,40.12-11,60,6.08,26.53,17.66,43.85,35.41,53A71.07,71.07,0,0,0,88.75,207a77.12,77.12,0,0,0,28.11-5.3,75.67,75.67,0,0,0,7.43-1.79,77,77,0,0,0,28.91,5.71l1.63,0a97.73,97.73,0,0,0,16.36,1.2c2.78,0,5.74-.08,9-.23,16.57-.79,28.63-11.5,35.83-20.35,8-9.84,13.64-23,16-37.17.34-1.85.61-3.82.83-6,1.16-12-.16-23.55-3.81-33.41-3.24-8.75-9.32-21-19.9-29.83C201.1,73,192,69.56,182.19,69.56h-.29A68.11,68.11,0,0,0,164,64.71a36.92,36.92,0,0,0-5.26-.35c-1.78,0-3.46.1-5.1.19l-1.85.1h-.09l-.59,0c-1.68.09-3.27.18-4.8.18h-.88c-1.52,0-3-.2-4.61-.38l-1.3-.14a45.24,45.24,0,0,0-5.33-.31,46.28,46.28,0,0,0-9.52,1,44.32,44.32,0,0,0-15.54-2.93,39.92,39.92,0,0,0-14,2.57c-1-.06-2-.09-3.05-.09a68.82,68.82,0,0,0-10.57.88q-1.34-2.15-2.83-4.14a72.7,72.7,0,0,0-7-8.15,9.83,9.83,0,0,0-2.84-4.77,8.31,8.31,0,0,0-.93-.73,20.58,20.58,0,0,0-3.15-1.75,9.57,9.57,0,0,0-4-.9Z" style="fill:#fff"/></svg>