<?xml version="1.0" encoding="utf-8"?>
<!-- Generator: Adobe Illustrator 24.3.0, SVG Export Plug-In . SVG Version: 6.00 Build 0)  -->
<svg version="1.1" id="Layer_1" xmlns="http://www.w3.org/2000/svg" xmlns:xlink="http://www.w3.org/1999/xlink" x="0px" y="0px"
	 viewBox="0 0 252 252" style="enable-background:new 0 0 252 252;" xml:space="preserve">
<style type="text/css">
	.st0{fill:#FF8C03;}
	.st1{fill:#FCBC08;}
	.st2{opacity:0.7;fill:#F28106;enable-background:new    ;}
	.st3{fill:#7C6A13;}
	.st4{fill:#937B18;}
	.st5{fill:#735F5F;}
	.st6{fill:#71AE00;}
	.st7{fill:#659C00;}
	.st8{fill:#8DAD0E;}
	.st9{fill:#698500;}
	.st10{fill:#AFC728;}
	.st11{fill:#EA7A00;}
	.st12{fill:#FFF4AE;}
	.st13{fill:#FFE670;}
	.st14{fill:#FFB300;}
	.st15{fill:#FFC100;}
	.st16{fill:#FFCD33;}
	.st17{fill-rule:evenodd;clip-rule:evenodd;fill:#FCFBC2;}
	.st18{fill-rule:evenodd;clip-rule:evenodd;fill:#FFFEE9;}
</style>
<g>
	<g id="e1ad606f-6e98-4fd6-93b8-5ca10dcb4980">
		<path class="st0" d="M70.8,61.4c18-9.7,62.7-11.1,81.7,29.2c19.1,40.6,5.5,76.9-23.3,94.5c-30,18.3-79.7,8-96.6-42.9
			C19,101.4,43.6,76,70.8,61.4z"/>
		<path class="st1" d="M38.4,125.1C38.4,125.1,38.4,125.1,38.4,125.1L38.4,125.1z"/>
		<path class="st1" d="M43.7,123.4c-0.1-2.3-1-5.4-3.4-4.5s-1.5,4.2-1.8,6.1C39.5,128.4,43.9,129.6,43.7,123.4z"/>
		<path class="st1" d="M38.4,125l0.1-3.4C38.1,122.7,38.1,123.9,38.4,125z"/>
		<path class="st1" d="M44.2,134.2c-0.2-1-0.8-2.5-1.9-1.9c-0.8,0.4-0.8,1.2-0.4,2c0.1,0.8,0.4,1.5,1,1.9
			C44.3,137.2,44.4,135.2,44.2,134.2z"/>
		<path class="st1" d="M48.4,121.7c-0.5,0.4-0.8,1.1-0.7,1.8c-0.3,0.9-0.4,2.1,0.2,2.6c0.1,0.1,0.3,0.2,0.4,0.2c0,0.1,0,0.2,0,0.3
			v-0.3c0.8,0.2,1.1-1.9,1.2-2.7S49.8,120.7,48.4,121.7z"/>
		<path class="st1" d="M48.4,126.6v0.2C48.4,126.7,48.4,126.7,48.4,126.6z"/>
		<path class="st1" d="M46,115.6c-0.1,0.9,0.4,2.3,1.3,2.2s1.5-2.1,1.4-2.9C48.4,111.5,45.8,114.3,46,115.6z"/>
		<path class="st1" d="M42.7,109.8c-0.3,0.5-1,1.4-0.7,2c0.1,0.4,0.5,0.6,0.9,0.6c0.5,0.2,1.4-0.4,1.8-0.7c0.7-0.6,3.7-3.9,2.5-4.9
			C45.7,105.6,43.2,108.8,42.7,109.8z"/>
		<path class="st1" d="M38.1,112.7c0.8-0.6,1.9-3.6,0.9-4.5s-2.1,0.8-2.3,1.7c-0.1,0.6,0,1.1,0.2,1.7
			C36.9,112.5,37.2,113.4,38.1,112.7z"/>
		<path class="st1" d="M38.8,130.7c-0.5-2.1-1.7-1-2,0.4l0,0c-0.4,0.7-0.3,2.8,0.8,2.9S39,131.5,38.8,130.7z"/>
		<path class="st1" d="M43.2,141c-0.4-0.9-2.5-4.2-3.4-2.2c-0.2,0.4-0.1,0.9,0.1,1.3c0.3,1.3,0.9,2.5,1.9,3.5
			C44,145.8,43.9,142.6,43.2,141z"/>
		<path class="st1" d="M48.6,130.6c-0.6,0.8-0.9,1.8-0.9,2.8c-0.2,1.7,0.2,4.1,1.2,4.9c2.4,2.1,2.5-3.7,2.6-5
			C51.6,131.6,50.4,128.8,48.6,130.6z"/>
		<path class="st1" d="M54.1,123.7c-0.1,0.9,0.2,2.1,0.8,2.4c1.3,0.7,2.1-2.3,2.1-3.2C56.9,119.2,54,122.3,54.1,123.7z"/>
		<path class="st1" d="M47.4,96.7c-0.3,0.5-0.3,1.1,0,1.6c2,0,3.7-3.7,2.5-5.5C48.1,93.2,47,94.9,47.4,96.7
			C47.4,96.7,47.4,96.7,47.4,96.7z"/>
		<path class="st1" d="M51,108.3c1.3-1.4,3.5-5.7,1.4-7.3c-1.2,0.7-2,2-2,3.4C49.7,105.7,49.5,107.5,51,108.3z"/>
		<path class="st1" d="M40.5,98.6c-1.3,0.4-2.1,1.7-1.8,3c0,0,0,0.1,0,0.1c0,0.5,0.2,1,0.6,1.3C40.8,102.1,41.3,100.2,40.5,98.6z"/>
		<path class="st1" d="M55.1,91.5c-1.4,3.3,4.6,1.3,4-1.3C58.7,88,54.9,89.8,55.1,91.5z"/>
		<path class="st1" d="M48.3,145.9c-1.2,0.6-0.8,1.9-0.1,3c0.4,3,2.6,7.4,4.3,5.7C54.6,152.5,50.1,146.9,48.3,145.9z"/>
		<path class="st1" d="M41.5,149.7c-0.7,3.1,4.5,4.3,2.5-0.1C42.7,146.8,41.4,148.2,41.5,149.7z"/>
		<path class="st1" d="M56.9,138c-0.1,0.7,0.3,1.4,0.8,1.7c1.2-0.7,2.5-3.5,1.4-4.9C57.6,132.7,55.7,136.2,56.9,138z"/>
		<path class="st1" d="M60.1,108.6h-0.3c0.1,0.2,0.3,0.3,0.5,0.4c0.2,0.3,0.4,0.4,0.6,0.2c1.8,0.2,3.2-3,1-3.4
			S59.7,107.5,60.1,108.6z"/>
		<path class="st1" d="M68.6,77.1C65.2,77.6,66.1,83,68,81C69.7,80,72,76.6,68.6,77.1z"/>
		<path class="st1" d="M64.1,158.8l-0.5-0.8c0,1.5,1.3,3,2.4,3.9c0.8-1,0-5.5-1.4-6.2C62.2,154.6,63.1,157,64.1,158.8z"/>
		<path class="st1" d="M69.6,124.9c0.5-0.1,0.8-0.5,0.7-0.9c0,0,0,0,0-0.1c0.8-1.3,1.5-4-0.4-3.7S68.6,123.9,69.6,124.9z"/>
		<path class="st1" d="M50.4,165.5c0.3,0.3,0.6,0.6,1.1,0.8c1.3-1.4,2.7-5.9-0.7-6C47.9,160.2,48.7,163.9,50.4,165.5z"/>
		<path class="st1" d="M45.9,155.8L45.9,155.8c-0.5,0.7-0.3,1.8,0.5,2.3c0.1,0,0.1,0.1,0.2,0.1c1-0.9,1.1-2.4,0.2-3.4
			c0,0-0.1-0.1-0.1-0.1C46.3,155,46.1,155.3,45.9,155.8z"/>
		<path class="st2" d="M106.6,181.7c1.8,8.6,37.6-10.9,45.6-31.9c10.3-27-0.9-54.9-9.6-66.3S101.7,57.1,101,65.1
			c-0.2,2.8,11.7,5.6,23.5,24.2c10.4,16.4,18,38.8,8.6,58C120.2,173.6,105.4,176,106.6,181.7z"/>
		<path class="st3" d="M58,72.2c0,0-1.6,4.4,3.2,4.8s15.9-6.2,16.1-9.7s-3.2-5.5-8.2-2.9S60.2,68.5,58,72.2z"/>
		<path class="st4" d="M59.3,72.6c0,0,1.4,2.6,3.9,2.7c3.4,0,8.9-4.3,8.9-4.3l-3.4-2.4c0,0-1.7,1-2.7,0.7c-0.5-0.2-1-0.5-1.3-0.9
			L59.3,72.6z"/>
		<path class="st5" d="M80.2,70.1c-1.2-1-2.7-1.8-4.2-2.2c-0.4,0-0.8-0.2-1.1-0.6c-0.1-0.3-0.1-0.7,0.1-1c0.1-0.3,0.2-0.6,0.3-0.9
			c0.2-0.6,0.3-1.2,0.4-1.7c0.1-0.2,0.1-0.5,0.1-0.8c0-0.3-0.3-0.5-0.5-0.5c-0.3,0-0.4,0.3-0.6,0.5c-0.5,0.8-1.2,1.5-2,2
			c-2.5,2.1-5.4,3.9-8.4,5.2c-1.4,0.5-2.8,0.9-4.3,1.1c-0.8,0.1-1.7,0.2-2.6,0.2c0.4,1.6,1.8,2.7,3.4,2.8c0.5,0,1.1,0,1.4,0.4
			c0.2,0.3,0.2,0.7,0.1,1.1c-0.2,1.8,0,3.6,0.7,5.2c0.1,0.3,0.4,0.7,0.7,0.6c0.3-0.1,0.3-0.7,0.3-1.1c0-0.8,0.4-1.5,1-2l4.9-4.5
			c2.2,0.5,4.4-0.2,6.5-0.8l3.9-1.2c0.3,0,0.5-0.2,0.7-0.5c0.2-0.4-0.2-0.8-0.5-1.1L80.2,70.1z"/>
		<path class="st6" d="M75.1,68.7c-0.4-0.2-0.9-0.3-1.3-0.5c-0.8-0.2-1.4-0.9-1.5-1.7c0.1-0.7,0.4-1.3,0.9-1.8
			c0.2-0.3,0.4-0.7,0.6-1.1c0.2-0.5,0-0.6-0.5-0.5c-1.1,0.2-2.2,0.7-3,1.4c-1,1-2.1,1.9-3.2,2.8c-0.3,0.2-0.6,0.3-0.9,0.5
			c-0.2,0.1-0.4,0.2-0.7,0.2c-0.3,0.1-0.6,0.3-0.9,0.3c-0.3,0.1-0.6,0.1-0.9,0.2c-0.7,0-1.4,0.2-2,0.4c-0.7,0.4-1.4,0.8-2.1,1.3
			c-0.4,0.2-0.8,0.5-1.2,0.7c-0.2,0.1-0.4,0.2-0.7,0.2s-0.3,0.1-0.3,0.3c0,0.1,0.1,0.2,0.1,0.3c0.3,0.4,0.7,0.6,1.2,0.7
			c0.4,0.1,0.9,0.2,1.3,0.2l1,0.1c0.3,0,0.6,0,0.8,0.1c0.3,0.1,0.5,0.3,0.6,0.6c0,0.3,0,0.6-0.2,0.9c-0.3,0.6-0.5,1.3-0.5,2
			c0,0.4,0.1,0.7,0.2,1.1c0.1,0.3,0.2,0.7,0.4,1c1.5-1.2,2.7-2.7,3.7-4.3c0.3-0.6,0.7-1.2,1.2-1.7c0.6-0.4,1.4-0.7,2.1-0.7l6.1-1
			c0.4-0.1,0.9-0.2,1-0.6c0-0.3-0.1-0.7-0.4-0.9C75.8,69,75.5,68.8,75.1,68.7z"/>
		<path class="st7" d="M71.7,66.1c-0.3,0.5-0.2,1.2,0.2,1.7c0.1,0.1,0.2,0.3,0.3,0.3c0.4,0.3,0.8,0.4,1.3,0.5c0.2,0,0.5,0.1,0.4,0.4
			s-0.4,0.3-0.6,0.4c-0.9,0.5-2,0.8-3,0.8c-0.9-0.1-1.7,0.1-2.5,0.4c-0.5,0.4-1,0.9-1.3,1.5c-1,1.7-2.4,3.1-4.1,4.2
			c-0.1,0-0.2,0-0.2,0c-0.1,0-0.2-0.2-0.2-0.3c-0.1-0.5,0-1,0.2-1.4c0.2-0.4,0.4-0.8,0.6-1.3c0.2-0.4,0.2-0.8,0.2-1.2
			c0-0.2-0.1-0.3-0.3-0.3c-0.1,0-0.3,0-0.4,0c-0.3,0-0.6,0.2-0.8,0.2c-0.6,0.1-1.2,0.1-1.7,0.1c-0.7,0-1.4-0.2-1.8-0.7
			c-0.1,0-0.1-0.1-0.1-0.2c0-0.1,0.1-0.1,0.2-0.1c0.1,0,0.2,0,0.3-0.1c0.1,0,0.2,0,0.4-0.1c0.3,0,0.5-0.1,0.8-0.2
			c0.5-0.2,1-0.5,1.4-0.8c0.8-0.6,1.7-0.9,2.7-1c0.3,0,0.6,0,0.9,0c1,0,2-0.1,2.9-0.3c0.1-0.7,0.4-1.3,0.8-1.8
			c0.4-0.6,0.8-1.1,1.3-1.6c0.2-0.3,0.5-0.5,0.8-0.7c0.3-0.2,0.7-0.3,1-0.4c0.2-0.1,0.5-0.1,0.7,0c0.2,0.2,0.3,0.4,0.3,0.7
			C72.1,65.3,71.9,65.7,71.7,66.1z M71,63.5c-0.3,0.1-0.5,0.3-0.8,0.4c-1.5,1-2.7,2.4-3.6,4C66,68,65.4,68,64.8,68.1s-1,0-1.6,0
			c-1.1,0.1-2.2,0.5-3.1,1.2c-0.5,0.3-0.9,0.8-1.4,1.1c-0.5,0.4-1.1,0.5-1.7,0.5c-0.1,0-0.2,0-0.3,0c-0.1,0-0.2,0.1-0.2,0.2
			c0,0.2,0.7,0.6,0.9,0.7c0.4,0.3,0.9,0.6,1.3,0.8c0.7,0.3,1.5,0.5,2.3,0.5c0.3,0,0.8-0.2,1,0s-0.2,1.1-0.3,1.3
			c-0.3,0.9-0.4,1.9-0.4,2.8c0,1,0.2,1.9,0.6,2.8c0,0.1,0.1,0.2,0.2,0.3c0.1,0.1,0.3,0,0.4-0.2c0.1-0.1,0.1-0.3,0.1-0.4
			c0.3-1.2,1.1-2.2,2.2-2.8c0.8-0.5,1.5-1.1,2.2-1.9c0.6-0.9,1.1-1.8,1.6-2.8c2.3,0.6,4.8,0.5,7.1-0.4c0.9-0.3,1.7-0.8,2.6-1.1
			c0.5-0.2,1-0.3,1.5-0.3c0.3,0,1.2,0.3,1.2-0.2c-0.1-0.8-1.2-1.5-1.7-1.8c-1.1-0.5-2.3-0.9-3.5-1.1c-0.4,0-0.8-0.1-1.2-0.1
			c-0.3,0-0.7-0.1-1-0.3c-0.3-0.3,0.4-1,0.6-1.3c0.9-1,1.5-2.2,1.8-3.5c0-0.2,0-0.4,0-0.6c0-0.2-0.2-0.3-0.4-0.3
			c-0.2,0-0.3,0.2-0.5,0.3C73.9,62.8,72.3,62.9,71,63.5z"/>
		<path class="st8" d="M71.2,66.9c0.3,0.6-0.1,0.9-0.5,1.4c-0.5,0.5-1,1-1.6,1.4c-0.9,0.5-1.8,1-2.8,1.2c-0.8,0.3-1.7,0.3-2.5,0.2
			c-0.4-0.1-0.5-0.2-0.5-0.5s0.1-0.7,0-0.9c-0.1-0.6-0.3-1.1-0.6-1.7c-0.1-0.2-0.2-0.5-0.3-0.7s-0.2-0.2-0.2-0.3
			c-0.4-0.8,0.2-1.4,0.7-1.9c0.8-0.7,1.7-1.2,2.7-1.6c0.5-0.2,1-0.4,1.5-0.5c0.4-0.1,1-0.3,1.4-0.1c0.6,0.3,0.7,1,1,1.6
			c0.2,0.5,0.4,0.9,0.7,1.3c0.2,0.2,0.3,0.4,0.6,0.6C70.9,66.7,71.1,66.8,71.2,66.9z"/>
		<path class="st9" d="M71.2,66.9c0.3,0.6-0.1,0.9-0.5,1.4c-0.5,0.5-1,1-1.6,1.4c-0.9,0.5-1.8,1-2.8,1.2c-0.8,0.3-1.7,0.3-2.5,0.2
			c-0.4-0.1-0.5-0.2-0.5-0.5c0.1,0,0.2,0,0.3,0c1,0.2,2,0.1,2.9-0.3c0.6-0.2,1.1-0.6,1.5-1c0.2-0.2,0-0.5-0.1-0.8s-0.2-0.7-0.3-1
			s-0.3-0.8-0.5-1.1c-0.1-0.2-0.2-0.4-0.3-0.6s-0.2-0.3-0.1-0.5c0.1-0.1,0.1-0.1,0.2-0.2c0.3-0.2,0.6-0.6,0.9-0.9
			c0.2-0.2,0.5-0.7,0-0.9l-0.2-0.1c-0.1,0-0.1-0.1-0.1-0.1c0-0.1,0.1-0.2,0.2-0.2c0.5-0.2,1.1,0,1.3,0.6c0,0,0,0,0,0
			c0.2,0.3,0.3,0.7,0.5,1c0.2,0.5,0.4,0.9,0.7,1.3c0.2,0.2,0.3,0.4,0.6,0.6C70.9,66.7,71.1,66.8,71.2,66.9z"/>
		<path class="st10" d="M67.3,65.2l-0.6,0.4c-0.2,0.2-0.5,0.3-0.7,0.4c-0.8,0.4-1.7,0.7-2.5,0.7c-0.3,0-0.7,0-0.8-0.4
			c0-0.2,0.1-0.5,0.2-0.6c0.9-1,2.1-1.7,3.4-2c0.5-0.2,1-0.3,1.5-0.2c0.2,0,0.4,0.1,0.5,0.3c0.1,0.2,0,0.4-0.1,0.6
			C67.9,64.6,67.6,64.9,67.3,65.2z"/>
		<path class="st11" d="M219.7,143c2.1-6.7,3.3-13.6,3.6-20.6c0.3-7.5-1.3-14.7-3.6-21.6c-0.9-2.9-1.7-6.4-3.4-9s-3.4-4.7-5-7.1
			l-2.8-4c-3.2-4.6-7.1-7.7-11.8-10.7c-5.5-3.5-11.6-7.1-18-9c-5-1.4-10.6-2.8-15.8-2.7c-4.3,0.1-8.6,0.1-12.8,0.5
			c-5.4,0.6-10.6,2-15.5,4.2c-4.8,2-9.7,5.3-14.1,8.2c-3.7,2.4-8.1,4.9-11,8.3c-5.7,6.7-11.3,14.3-14.6,22.5
			c-2.1,5.5-3.7,11.2-4.9,17c-1,3.8-1.6,7.7-1.9,11.6c-0.1,1.8,0,3.5,0.2,5.3c0.8,9.6,3.5,19,8.1,27.5c0.7,1.4,1.6,2.8,2.6,4
			c2.7,3,4.4,6.9,7,9.9c2.9,3.1,6.2,5.8,9.7,8.2c5.4,3.8,11.5,6.6,17.9,8.3c3.7,0.9,7.4,1.6,11.2,2c2.2,0.3,4.4,0.5,6.6,0.4
			c2.2-0.1,4.4-0.4,6.5-0.8c7.6-1.4,15.2-3.2,22.3-6.6c2.5-1.2,4.9-2.6,7.2-4.1c8.7-5.7,16.2-13,22-21.6c2.2-3.2,4.1-6.5,5.8-10
			C216.9,149.9,218.4,146.5,219.7,143z"/>
		<path class="st12" d="M107.3,88.9c-5.9,9.4-9.1,20.3-9.1,31.4c0,3.3,0.4,6.7,1,9.9c2.4,11.2,8,21.5,16.1,29.6
			c6,6,13.2,10.7,21.1,13.8c15.3,6,32.4,6,47.7,0c8.8-3.4,16.5-9,22.6-16.2c5.5-6.8,9.3-14.9,11-23.6c0.9-4.4,1.2-8.9,1-13.4
			c-0.2-4.5-1.5-8.6-2.3-12.9c-2.9-16.1-22.8-36.1-41.8-41.8c-9.5-2.8-19.5-3.4-29.3-1.7c-4.9,0.8-9.6,2.2-14.2,4.2
			C121.2,72.5,112.9,79.7,107.3,88.9z"/>
		<path class="st13" d="M100.7,99.8c-0.1,0.4-0.2,0.8-0.4,1.2c-0.6,2.1-1.2,4.2-1.5,6.3c-0.2,1.9-0.5,3.7-1,5.5
			c-0.7,1.7-0.5,3.8-0.5,5.7c-0.1,1.7,0,3.4,0.4,5c0.4,1.5,0.5,3.1,0.6,4.7c0.1,1.3,0.3,2.6,0.6,3.9c0.3,1.3,0.8,2.5,1.3,3.7
			c1.1,3.2,1,6.6,2.9,9.6c0.8,1.3,1.8,2.4,2.7,3.7c1.6,2.3,2.7,4.8,4.3,7.1c1.2,1.7,2.6,3.2,4.1,4.7c1,1.1,2,2.1,3.2,3.1
			c1,0.9,2.1,1.7,3.2,2.4c2.9,2,5.9,3.8,9,5.4c0.9,0.5,1.8,1.1,2.8,1.5s1.7,0.6,2.5,1c2.2,1,4.5,1.9,6.8,2.5
			c0.4,0.2,0.9,0.3,1.4,0.4c1.2,0.3,2.5,0.4,3.7,0.7c3.3,1,6.9,1.1,10.4,1.2c4.7,0.1,9.4-0.2,14-0.9c1.6-0.2,3.2-0.5,4.8-1
			c1.4-0.4,2.7-0.9,4.1-1.4l2.9-1.1c2.2-0.8,4.3-1.7,6.3-2.8c2-1,3.4-2.5,5.4-3.5c2.1-1.2,4.2-2.5,6.1-4c5.1-4,8.3-8.9,11.4-14.4
			c0.4-0.8,1-1.5,1.4-2.3c0.8-1.4,1.4-2.8,1.8-4.4c1-2.9,2-5.8,3-8.7c0.2-0.7,0.4-1.3,0.6-2c0.1-0.8,0.1-1.5,0.2-2.3
			c0.2-4.4,0.8-8.5,0.4-13c-0.5-4.4-1.3-8.7-2.6-12.9c-0.7-2.2-1.6-4.3-2.6-6.3c-1.7-3.4-3.6-6.8-5.8-9.9c-0.7-1.2-1.6-2.3-2.4-3.3
			c-1-1.2-2.2-2.1-3.2-3.2c-1.2-1.2-2.5-2.4-3.9-3.4c-2.5-2-4.7-4.8-7.4-6.5c-2.8-1.7-5.8-3.1-8.9-4.3l-4.7-1.9
			c-1.3-0.5-2.6-1-4-1.4c-2.1-0.5-4.2-0.6-6.3-1.1c-9.6-2.3-19.7-1.8-29,1.5c-1.8,0.7-3.9,1.5-5.7,2c-2,0.6-3.8,1.4-5.6,2.5
			c-1.6,1.1-3.3,2.1-5.1,3c-2,1-3.8,2.3-5.3,4c-0.6,0.7-1,1.5-1.7,2.1c-0.6,0.5-1.2,1-1.8,1.4c-1.2,1.1-2.3,2.3-3.2,3.6
			c-0.9,1.3-1.7,2.6-2.6,3.9s-1.8,2.6-2.7,3.9C103.1,93.9,101.7,96.8,100.7,99.8z M105.9,95.6c0.8-2.2,1.9-4.3,3.1-6.3
			c0.6-1.1,1.5-2.1,2.6-2.7c0.4-0.2,0.8-0.4,1.2-0.6c0.6-0.4,1-1.2,1.7-1.5s1.2-0.2,1.7-0.4c1.6-0.7,3-1.9,3.9-3.4
			c0.2-0.4,0.5-0.8,0.8-1.2c0.4-0.4,0.7-0.8,0.9-1.3c0.1-0.4,0.2-0.8,0.5-1.1c0.8-0.9,1.8-1.7,2.5-2.7c0.7-1.1,1.7-2,2.7-2.8
			c1.7-1.1,3.7-2,5.7-2.6c1.7-0.5,3.9-1.3,5.9-2.1c1.1-0.4,2.2-0.6,3.4-0.8c2.3-0.4,4.6-0.4,6.9-0.2c2.3,0.3,4.5,1.4,6.8,1.2
			c2.9-0.3,5.5-1.4,8.4-1.6c2.9-0.1,5.8,0.2,8.6,0.9c1.8,0.5,3.7,1,5.4,1.7c0.7,0.3,1.6,0.6,2.2,0.9s1.5,0.7,2.2,1
			c2,0.7,3.9,1.7,5.6,3c1.2,1.1,2.2,2.4,3.1,3.8c0.4,0.5,0.8,1,1.1,1.6c0.4,0.8,1,1.5,1.6,2.2c0.2,0.2,0.4,0.4,0.6,0.6
			s0.4,0.4,0.5,0.6c0.9,0.9,2.1,1.7,3.3,2.2c0.4,0.2,0.8,0.5,1.2,0.8c0.6,0.4,1.3,0.6,2,0.9c1.8,0.7,3.3,2.1,4.2,3.8
			c0.5,0.8,1,1.6,1.6,2.3c3.5,4.4,5.8,9.6,6.6,15.2c0.1,0.6,0.2,1.1,0.2,1.7c0.3,1.4,0.4,2.7,0.5,4.1c0,0.7-0.1,1.4-0.3,2.1
			c-0.3,0.7-0.5,1.5-0.6,2.3c0,0.8,0.2,1.6,0.5,2.4l0.3,0.8c0.6,1.5,1.2,3,1.6,4.5c0.3,1.5,0.3,3.1,0.1,4.7c-0.3,3.4-1,6.8-2.3,10
			c-0.2,0.5-0.4,1-0.6,1.6c-0.4,1.3-1,2.6-1.7,3.7c-0.8,1.2-1.5,2.4-2.1,3.7c-1.2,2.3-2.5,5.3-4.9,6.6c-1.2,0.6-2.5,1.1-3.6,1.8
			c-0.8,0.5-1.6,1-2.3,1.7c-0.5,0.5-0.9,1.1-1.3,1.6c-0.6,0.7-1.2,1.5-1.6,2.3c-0.4,0.9-0.9,1.6-1.5,2.3c-0.9,0.8-2,1.4-2.9,2.2
			c-0.5,0.5-1,0.9-1.5,1.3c-1.2,0.8-2.6,1.5-3.9,2.1c-1.4,0.6-2.5,1.6-3.9,1.9c-0.9,0.1-1.8,0.3-2.7,0.5c-0.5,0.2-1,0.6-1.5,0.9
			c-0.7,0.3-1.5,0.5-2.3,0.5c-0.7,0.1-1.3,0.2-2,0.2c-1,0-2,0-3,0.2c-2.4,0.6-4.5-0.2-6.8-0.9c-0.4-0.1-0.8-0.2-1.2-0.3
			c-1.1-0.1-2.2,0-3.2,0.3c-1.2,0.4-2.4,0.8-3.6,1.4c-2.3,0.7-4.8,0.7-7.1-0.1c-1.4-0.4-2.9-0.7-4.2-1.1c-2.2-0.5-4.4-1.1-6.5-1.8
			c-1.5-0.5-3-1.3-4.3-2.1c-1.1-0.7-2.2-1.3-3.4-1.8c-0.7-0.3-1.3-0.6-1.9-0.9c-1.5-0.9-2.9-2-4-3.3c-1.1-1.2-1.9-2.4-3-3.6
			c-0.3-0.5-0.7-0.9-1.1-1.3c-0.8-0.5-1.6-1-2.5-1.4c-0.9-0.6-1.8-1-2.6-1.6c-1.8-1.1-3.4-2.6-4.7-4.4c-0.8-1-1.5-2.1-2.1-3.3
			c-0.7-1.3-1.1-2.6-1.8-3.9c-1.3-2.4-3.4-4.4-4.1-7c-0.2-0.7-0.3-1.5-0.3-2.2c-0.1-0.6-0.1-1.1-0.1-1.7c0.1-1.1,0.1-2.2,0.1-3.3
			c-0.1-0.7-0.2-1.3-0.3-2c0-1.2,1.1-2.2,1.4-3.4c0.3-1.1,0.3-2.2,0-3.2c-0.4-2.2-1.6-4.2-2.1-6.3c-0.6-2.4,0.5-5.6,1-8
			c0.4-2,1-4.2,1.7-6.6c0.1-0.4,0.2-0.8,0.4-1.2C104.9,98.3,105.3,97,105.9,95.6z"/>
		<path class="st13" d="M153.5,120.7c-0.2,0.2-0.3,0.5-0.1,0.7c0.1,0.3,0.4,0.4,0.6,0.7c0.2,0.4,0.2,0.8,0.2,1.2
			c0,0.4,0.1,1,0.6,1.1c0.2,0,0.5,0,0.7-0.1c1.2-0.2,2.5,0.3,3.1,1.4c0.1,0.1,0.1,0.2,0.2,0.2c0.1,0,0.2,0,0.2,0
			c0.4-0.4,0.8-0.8,1.1-1.3c0.4-0.6,1-1.1,1.8-1.2l1.7-0.2c0.2,0,0.5-0.1,0.7-0.2c0.1-0.1,0.2-0.3,0.2-0.5c0.2-0.7,0-1.4-0.4-2
			c-0.3-0.4-0.8-0.7-1.1-1.1c-0.4-0.5-0.6-1-0.6-1.6c0-0.2,0-0.4-0.1-0.6c-0.3-0.3-1.2-0.3-1.6-0.4c-0.5-0.1-0.9-0.3-1.3-0.7
			c-0.2-0.2-0.4-0.4-0.7-0.4c-0.1,0-0.1,0-0.2,0c-0.1,0-0.1,0.1-0.1,0.1c-0.4,0.6-0.9,1-1.6,1.1c-0.4,0.1-1.6-0.1-1.6,0.6
			c0,0.2,0.1,0.4,0.1,0.6c0,0.2,0,0.5-0.1,0.7c0,0.4-0.2,0.9-0.5,1.2c-0.3,0.2-0.7,0.4-1,0.5C153.7,120.5,153.6,120.6,153.5,120.7z"
			/>
		<path class="st14" d="M155.7,120.8c-0.2,0.4,0.1,0.5,0.3,0.9c0.1,0.2,0.2,0.5,0.1,0.8c0,0.3,0.1,0.6,0.4,0.7c0.2,0,0.3,0,0.4-0.1
			c0.7-0.2,1.4,0,1.8,0.6c0.3,0.3,0.4,0.4,0.8,0.1c0.2-0.2,0.3-0.4,0.4-0.7c0.2-0.5,0.6-0.8,1.1-0.8c0.6-0.1,1.7-0.2,1.1-1.1
			c-0.2-0.2-0.4-0.4-0.6-0.6c-0.4-0.5-0.7-1.2-0.7-1.9c0-0.1,0-0.2-0.1-0.3c-0.1-0.1-0.2-0.1-0.3-0.1c-0.5,0-1-0.3-1.4-0.6
			c-0.1-0.1-0.3-0.3-0.5-0.2c-0.1,0-0.1,0.1-0.2,0.2c-0.2,0.3-0.6,0.5-0.9,0.5c-0.2,0-0.5,0-0.6,0.2s-0.1,0.8-0.3,1.2
			c-0.1,0.3-0.3,0.5-0.5,0.7C156,120.3,155.9,120.5,155.7,120.8L155.7,120.8z"/>
		<path class="st15" d="M156.3,169c-3.7,2.8-9.9,0.9-14.4-0.8c-4-1.4-7.8-3.4-11.2-5.8c-8-6.1,7.8-18.4,11.3-22l9.2-9.5
			c0.7-0.7,2.6-3.5,3.4-3.7c2.4-0.5,1.8,3,1.9,4.2c0.1,1.8,0.3,3.7,0.4,5.5c0.3,4.4,0.7,8.8,1,13.2c0.4,5.2,2.5,11.3,0.3,16.2
			C157.9,167.4,157.2,168.3,156.3,169z"/>
		<path class="st15" d="M197.1,150.1c-1.9-0.8-3.7-1.9-5.2-3.3l-22-19.7c-0.9-0.8-4-3-3-4.3c0.7-0.8,5.1-0.4,6.1-0.5l7.5-0.2
			c8.3-0.3,16.6-0.9,24.9-0.8c9.8,0.1,5.9,11.9,3.6,17.3c-1.5,3.5-3.2,7.4-6,10.1C201.5,150.3,199.2,150.9,197.1,150.1z"/>
		<path class="st15" d="M192.2,154c1.1,2.2,1,4.7-0.3,6.8c-2.1,3.4-6.2,5.8-9.9,7.1c-5.2,1.8-13,4-17.3-1c-2.3-2.7-1.5-8.7-1.7-12
			c-0.3-4.7-0.6-9.5-0.9-14.2c-0.2-3.7-2.2-13.8-0.3-14.4s5.6,3.7,7.6,5.5l7.3,6.6C180.5,141.8,189.6,147.8,192.2,154z"/>
		<path class="st15" d="M117.4,89.7c1.2-0.4,2.5-0.3,3.7,0.1c5.4,1.9,9,7.2,13.1,10.8l10.6,9.5c1.3,1.2,8.3,6.1,8,7.6
			c-0.4,1.9-9.4,1.2-11.1,1.3l-14.2,0.4c-4.3,0.1-8.6,0.3-12.9,0.4c-11.3,0.2-9.1-11.5-6.1-18.3C110.1,97.8,112.9,91.1,117.4,89.7z"
			/>
		<path class="st15" d="M121.1,151.6c-4.4-0.7-8.4-5.5-10.8-10c-2.9-5.5-5-13.1,1.7-16.7c4.7-2.5,10.8-1.4,15.9-1.6l13.7-0.4
			c1.9-0.1,8.6-1.5,9.8,0.5c1.3,2.2-4.5,5.9-5.8,7.2l-9.3,9.7c-2.7,2.9-5.5,5.7-8.2,8.6C125.8,151.2,123.4,152,121.1,151.6z"/>
		<path class="st15" d="M207.6,116.6c-2.3,1-5.5,1-7.9,1.1l-29.2,0.9c-1.4,0-4.5,1-5.3-0.7s2.5-4.1,3.6-5.2l10.9-11.4
			c4.9-5.1,11.6-15.8,20.3-11c7,3.8,12.8,15.4,10.6,22.9C210.1,114.8,209,116,207.6,116.6z"/>
		<path class="st15" d="M125.3,86.1c-1.9-5.7,5.8-11.7,10.3-13.7c5.3-2.3,16.6-5,18.5,3.5c1,4.5,0.6,9.9,0.9,14.5s0.6,9,0.9,13.5
			c0.1,1.9,0.5,3.4,0.7,5.3c0.1,0.7,1.2,4-0.3,4.7c-2.1,1-17.2-14.2-19.2-16c-3.3-2.9-6.8-5.8-9.9-8.9
			C126.3,88.2,125.7,87.2,125.3,86.1z"/>
		<path class="st15" d="M161.1,113.8c-0.5-0.2-0.9-1-1-2.9c-0.2-3.6-0.5-7.2-0.7-10.8c-0.3-4.4-0.6-8.7-0.9-13.1
			c-0.3-3.9-1-9.7,1-13.1s6.8-4,11.1-3.2c4.5,0.8,8.9,2.6,12.7,5.1c2.8,1.8,5.6,4,5.3,7.6c-0.3,4.1-5,7.8-7.7,10.6l-9.1,9.5
			c-2.4,2.5-4.9,5.1-7.3,7.6C163.2,112.5,161.9,114.1,161.1,113.8z"/>
		<path class="st14" d="M159.4,166.9c1.8-3.9,1.1-8.2,0.4-12.4c-0.2-1.5-0.5-3-0.6-4.3l-0.5-6.6l-0.5-6.6c0-0.6-0.1-1.2-0.1-1.8
			c-0.1-1.2-0.2-2.4-0.3-3.6c0-0.2,0-0.4,0-0.7c0.2-1.3-0.1-2.6-0.7-3.8c-0.3-0.4-0.6-0.6-1.1-0.8c-0.5-0.2-1.1-0.2-1.6-0.1
			c-0.9,0.2-1.9,1.3-3.2,3c-0.3,0.4-0.6,0.8-0.8,0.9l-9.2,9.5c-0.5,0.5-1.2,1.2-2.1,2c-3.2,2.8-6.1,5.9-8.8,9.2
			c-3.3,4.5-3.9,8.2-1.7,11c0.4,0.5,0.9,1,1.4,1.4c3.5,2.6,7.4,4.6,11.6,6c2.5,1,5.1,1.7,7.8,2.1c3.3,0.4,5.9-0.1,7.8-1.5
			C158.1,169,158.9,168,159.4,166.9z M151.7,164.1c-1.8,0.7-3.7,0.8-5.6,0.3c-2.6-0.6-4.9-2.1-6.5-4.1c-0.5-0.6-0.9-1.4-1.2-2.1
			c-0.4-1.1-0.6-2.3-0.4-3.4c0.3-2.7,1.9-4.7,3.7-6.8l0.5-0.6c1.1-1.3,2.2-2.5,3.4-3.6c0.4-0.3,0.7-0.6,1-1c1.2-1.2,2.4-2.4,4-2.6
			c0.7-0.1,1.4,0,2,0.2c0.3,0.1,0.5,0.4,0.7,0.6c0.9,1.2,1.1,3.4,1.2,4.9c0,0.4,0,0.7,0.1,1c0.3,2.6,0.4,5.2,0.4,7.8
			C154.9,158.6,154.5,162.7,151.7,164.1z"/>
		<path class="st14" d="M180.5,120.9L178,121l-5,0.2c-0.2,0-0.5,0-0.9,0c-3.5-0.1-5.2,0-6,0.9c-0.4,0.5-0.9,1.6,0.3,3.2
			c0.7,0.8,1.5,1.6,2.3,2.3c0.2,0.2,0.4,0.3,0.5,0.4l7.3,6.5l14.7,13.1c1.5,1.5,3.3,2.7,5.3,3.5l0.3,0.1c2.5,0.9,5.3,0.2,7.1-1.7
			c3-2.8,4.8-6.9,6.3-10.5l0,0c1.1-2.6,1.9-5.2,2.5-7.9c0.6-3.7,0.3-6.5-1.1-8.3c-0.7-1-1.7-1.7-2.9-2.1c-1-0.4-2.1-0.6-3.2-0.5
			c-5.6,0-11.2,0.2-16.7,0.5C186,120.7,183.2,120.8,180.5,120.9z M185.1,124.6c1.7-0.2,3.5-0.2,5.2-0.2c0.8,0,1.7,0,2.5-0.1h0.5
			c5.5-0.2,13.3-0.7,13.8,6.5c0,0.9,0,1.8-0.2,2.7c-0.2,1-0.7,1.9-1.3,2.7c-0.6,1-1.1,2-1.6,3c-0.6,1.1-1.5,2.1-2.6,2.7
			c-1.1,0.6-2.3,0.7-3.4,0.4c-0.5-0.1-1-0.3-1.5-0.4c-0.2-0.1-1-0.5-1.2-0.4c-0.7-0.2-1.3-0.5-1.9-0.8c-0.9-0.6-1.8-1.2-2.6-1.9
			c-1.3-1-2.8-1.9-4.1-2.9c-0.8-0.7-1.6-1.5-2.4-2.4l-2.3-2.6l-1.8-2c-0.4-0.4-1.1-1-1.2-1.5c-0.3-1.2,1.4-1.7,2.2-1.9
			C182.6,125,183.8,124.7,185.1,124.6z"/>
		<path class="st14" d="M193,161.5c1.5-2.4,1.6-5.4,0.4-7.9c-0.6-1.2-1.3-2.4-2.1-3.5c-2.8-3.7-7.1-7.1-10.5-9.9
			c-1.3-1-2.4-1.9-3.2-2.6l-6.1-5.5l-1.2-1.1c-0.4-0.4-0.9-0.8-1.4-1.3c-1.8-1.7-3.8-3.7-5.6-4.3c-0.6-0.2-1.2-0.3-1.9-0.1
			c-1.2,0.4-1.5,1.7-1.6,2.7c-0.2,1.3-0.2,2.7-0.2,4c0.2,3.4,0.4,6.8,0.6,10.2c0.1,1,0.1,2.1,0.2,3.1c0.1,1.8,0.2,3.6,0.5,5.4
			c0.2,1.2,0.4,2.3,0.6,3.5c0.3,2.3,0.4,4.6,0.6,6.9c0.2,2.1,0.2,4.6,1.5,6.4l0.2,0.3c1.1,1.2,2.5,2.2,4,2.8
			c4.4,1.6,9.6,0.3,14.6-1.4C187,167.5,191,164.7,193,161.5z M183.9,161c-3.1,1.7-6,2.4-7.8,1.9c-2.2-0.7-4.2-2.1-5.7-4
			c-0.2-0.2-0.3-0.5-0.5-0.7c-1.2-2.2-2-4.7-2.3-7.2c-0.3-2.1-0.5-4.2-0.6-6.3c0-0.3,0-0.6,0-0.9c-0.1-1-0.1-2.1,0-3.1
			c0-0.6,0.2-1.2,0.4-1.8c0.2-0.6,0.6-1.1,1.1-1.4c0.5-0.2,1.1-0.1,1.6,0.1c1.5,0.6,2.9,1.4,4.1,2.5l0.8,0.5
			c1.8,1.3,3.3,2.5,4.7,3.7c2.2,1.8,4.1,3.9,5.9,6.1l0.2,0.3c1.9,2.6,2.6,4.6,2.2,6.5C187.6,158.9,185.2,160.3,183.9,161L183.9,161z
			"/>
		<path class="st14" d="M127.5,120.6l7.5-0.2l6.6-0.2c0.3,0,0.9,0,1.5,0c6.8,0.2,10.3-0.1,10.7-2.2c0.1-0.7-0.2-1.5-0.7-2
			c-1.2-1.6-4.2-4-6.2-5.5c-0.7-0.5-1.3-1-1.5-1.2l-6.1-5.5l-4.4-4c-1.1-1-2.2-2.1-3.3-3.3c-2.9-3-5.9-6.1-9.9-7.6l-0.3-0.1
			c-1.4-0.5-3-0.6-4.4-0.1c-2.2,0.7-4.1,2.3-5.9,5.2c-1.3,2.2-2.5,4.4-3.5,6.8l-0.2,0.5c-1.2,2.7-2,5.5-2.4,8.4
			c-0.4,3.5,0.1,6.3,1.6,8.3c0.9,1.2,2.1,2.1,3.5,2.5c1.4,0.5,3,0.7,4.5,0.7c2.9-0.1,5.8-0.2,8.6-0.3L127.5,120.6z M138.5,112.3
			c-1.2,0.4-2.4,0.7-3.6,0.8l-1,0.1c-1.1,0.2-2.2,0.2-3.4,0.3l-1.1,0.1c-4.1,0.4-8.3-0.1-12.2-1.4c-1.1-0.3-2.1-0.9-2.9-1.5
			c-0.2-0.2-0.4-0.4-0.5-0.6c-1.5-1.9-0.8-5.1-0.4-6.3c0.5-1.8,1.3-3.6,2.3-5.2c0.3-0.5,0.6-0.9,0.9-1.3c0.5-0.7,1.3-1.3,2.1-1.7
			c2.2-1,4.7,0.9,6.8,2.4l0.5,0.3c2.1,1.5,4.1,3.1,6.1,4.7c2.4,1.9,4.5,4.1,6.5,6.4c0.1,0.2,0.2,0.3,0.3,0.4
			c0.6,0.8,0.8,1.3,0.7,1.7C139.2,111.9,138.9,112.2,138.5,112.3L138.5,112.3z"/>
		<path class="st14" d="M137.2,141l6-6.2l3.3-3.5c0.4-0.4,0.9-0.8,1.3-1.1c1.2-0.9,2.4-2,3.5-3.1c1.4-1.7,1.8-3.1,1.1-4.3
			c0-0.1-0.1-0.1-0.1-0.2c-0.4-0.5-0.9-0.8-1.4-1c-1.9-0.7-5.2-0.3-7.6,0c-0.7,0.1-1.4,0.2-1.7,0.2l-5.6,0.2l-8.2,0.3
			c-1.3,0-2.6,0-4,0c-4.3-0.1-8.7-0.2-12.4,1.8c-3.2,1.6-5.2,5-5,8.7c0.2,3.4,1.2,6.7,2.9,9.6c0.8,1.5,1.6,2.8,2.6,4.2
			c1.6,2.1,4.1,4.9,7.3,6c0.6,0.2,1.2,0.4,1.8,0.5c2.9,0.4,5.6-0.6,8.1-3.2C131.8,146.7,134.5,143.8,137.2,141z M126.8,142.1
			c-0.8,0.6-1.6,1.1-2.5,1.5c-1.6,0.5-3.4,0.4-4.9-0.5c-2.1-1.3-3.7-3.3-4.5-5.7c-0.3-0.9-0.4-1.9-0.5-2.8c-0.1-0.8-0.2-1.5-0.2-2.3
			c0.1-0.4,0.2-0.7,0.4-1.1c1.8-3.3,5.4-4.3,9.2-4.3c0.6,0,1.2,0,1.8,0.1s1.5,0.1,2.2,0.1l4.4-0.1c0.6,0,1.3-0.1,1.9-0.1
			c2.1-0.1,4.4-0.3,6.1,0.6c0.2,0.1,0.5,0.3,0.6,0.5c0.1,0.1,0.1,0.2,0.1,0.3c0.1,0.5-0.3,1.3-0.8,2c-0.1,0.1-0.2,0.2-0.3,0.4
			c-1.4,1.7-2.9,3.2-4.6,4.6c-0.6,0.5-1.2,1.1-1.9,1.7l-0.2,0.2c-1.4,1.4-2.9,2.6-4.5,3.7C128.1,141.2,127.4,141.7,126.8,142.1
			L126.8,142.1z"/>
		<path class="st14" d="M178.8,100.5l-10.3,10.8l-0.6,0.6c-0.2,0.2-0.5,0.5-0.8,0.7c-1.1,0.8-2,1.9-2.7,3c-0.8,1.4-0.3,3.2,1.1,4
			c0.1,0.1,0.2,0.1,0.3,0.2c1.9,0.7,3.9,0,5.8-0.1l4.5-0.1l7.6-0.2l16.1-0.5h0.7c2.4-0.1,5.3-0.2,7.6-1.2c1.7-0.7,3.1-2.2,3.6-4
			c1.8-6-1.2-13.7-4.9-18.6c-1.7-2.3-3.8-4.3-6.3-5.7c-0.5-0.3-1-0.5-1.5-0.7c-1.7-0.7-3.6-0.8-5.5-0.4c-1.7,0.4-3.3,1.1-4.8,2.2
			c-2.8,2.1-5.3,4.6-7.5,7.4C180.4,98.8,179.5,99.7,178.8,100.5z M195.9,93.7c2.9-0.2,5.7,1.1,7.5,3.3c0.2,0.2,0.4,0.4,0.5,0.7
			c1.2,1.6,2,3.3,2.6,5.2c0.8,2.4,0.8,4.3,0.1,5.7c-0.4,0.9-1,1.6-1.9,2.1c-1.6,0.6-3.2,1.1-4.9,1.4c-3.4,0.7-6.9,1-10.3,1
			c-2,0-4-0.1-6.2-0.3c-1.5-0.2-2.7-0.4-3.4-1.4c-0.1-0.1-0.1-0.1-0.2-0.2c-1.1-1.8,0.1-3.8,1.7-6.2c0.1-0.1,0.2-0.2,0.2-0.3
			c0.9-1.4,2-2.7,3.1-3.9c1.1-1.2,2.3-2.3,3.6-3.2C190.6,95.8,193.1,93.8,195.9,93.7z"/>
		<path class="st14" d="M125.4,88.7c0.3,0.4,0.6,0.8,1,1.1c2.1,2.1,4.4,4.1,6.6,6c1.1,0.9,2.2,1.9,3.3,2.9c0.3,0.3,1.1,1.1,2.1,2
			c7,6.7,13.8,13.1,16.7,14.2c0.6,0.2,1.2,0.2,1.7,0c0.7-0.3,1.4-1,1.4-2.8c0-0.8-0.2-1.7-0.4-2.5c0-0.2-0.1-0.4-0.1-0.5
			c-0.1-0.9-0.2-1.7-0.3-2.4c-0.1-0.9-0.3-1.8-0.4-2.8l-0.5-7.1l-0.4-6.4c-0.1-1.5-0.1-3.1-0.1-4.8c0.1-3.3-0.2-6.6-0.8-9.9
			c-0.3-1.2-0.8-2.4-1.5-3.4c-0.9-1.2-2.2-2.1-3.6-2.7c-2.6-0.8-5.3-1-8-0.4c-2.4,0.4-4.8,1.1-7.1,2.1c-3,1.4-5.7,3.3-8,5.7
			c-2.9,3.2-4,6.4-3,9.3C124.4,87.1,124.8,87.9,125.4,88.7z M137.9,76.8c0.6-0.4,1.2-0.7,1.9-0.9c2.8-0.9,6.9-0.4,8.8,2
			c0.1,0.1,0.2,0.3,0.3,0.4c0.9,1.7,1.5,3.6,1.8,5.5c0.7,3.5,1.1,7,1.2,10.5c0.1,1.3,0,2.6,0.1,3.9c0,0.5,0,1-0.1,1.6
			c0,0.4-0.1,0.8-0.3,1.2c-0.3,0.4-0.7,0.7-1.2,0.7c-1,0.1-2.3-1-3.1-1.6c-1.1-0.7-2.1-1.4-3.1-2.2c-2.2-1.8-4.3-3.8-6.2-5.9
			c-1.6-1.8-3.1-3.7-4.6-5.7c-0.4-0.5-0.8-1.1-1-1.8c-0.2-0.8-0.1-1.6,0.2-2.4C133.4,79.7,135.7,78.2,137.9,76.8z"/>
		<path class="st14" d="M157.5,85.8c0,0.6-0.1,1.2-0.1,1.8c0,1.1,0.1,2.2,0.2,3.2l0.3,5l0.3,4.4l0.4,5.6l0.3,5.1
			c0,1.1,0.3,2.2,0.8,3.2c0.2,0.3,0.6,0.6,0.9,0.7l0,0c1.5,0.5,2.8-0.8,4.2-2.4l0.5-0.5c1.6-1.7,3.2-3.4,4.8-5.1l2.4-2.5l9.1-9.5
			c0.5-0.5,1.1-1.1,1.7-1.7c2.7-2.6,6.1-5.9,6.4-9.6c0.1-1.8-0.4-3.6-1.5-5c-1.2-1.5-2.7-2.7-4.4-3.7c-2.3-1.5-4.8-2.7-7.4-3.7
			c-1.9-0.7-3.8-1.2-5.7-1.6c-2.3-0.4-4.6-0.4-6.8,0c-1.9,0.4-3.7,1.3-5.1,2.5c-1.3,1.4-1.2,4-1.2,5.7
			C157.6,80.4,157.7,83.1,157.5,85.8z M167.3,75.9c1.9-1.2,4.2-1.6,6.4-1.1c3.5,0.8,7.7,2.9,9.4,6.2c2,4-2.4,8.4-4.9,11.1
			c-1.9,2.1-3.9,4.1-6.1,5.9c-1.1,0.9-2.4,1.7-3.7,2.4c-0.9,0.4-2,0.1-2.4-0.8c-0.8-1.3-1.4-2.8-1.6-4.3c-0.2-1.2-0.3-2.4-0.4-3.4
			c-0.3-3.5-0.6-7.4,0.2-11.1C164.7,78.9,165.8,77.1,167.3,75.9z"/>
		<path class="st16" d="M180.2,83.3c-0.2,0.4-0.5,0.8-0.8,1.1c-0.6,0.6-1.3,1.1-2,1.6c-0.8,0.6-1.7,1-2.6,1.4c-1,0.3-2,0.2-2.9-0.3
			c-0.8-0.7-1.4-1.6-1.6-2.6c-0.5-1.2-0.8-2.5-0.8-3.8c-0.1-1.6,1-3,2.6-3.3c2.7-0.5,5.5,0.4,7.4,2.2c0.7,0.7,1,1.7,1,2.7
			C180.5,82.5,180.4,82.9,180.2,83.3z"/>
		<path class="st16" d="M146.2,79.7c0.5,1.2,0.8,2.5,0.7,3.8c0.1,2.5-1.1,4.6-3.8,5c-2.6,0.1-5.1-0.8-7-2.5c-2-2.1-0.8-5,1.1-6.6
			c1.9-1.3,4.2-1.9,6.5-1.6C144.8,78,145.8,78.7,146.2,79.7z"/>
		<path class="st16" d="M121.8,98.4c0.1,0.1,0.3,0.1,0.4,0.2c1.2,0.7,2.1,1.8,2.9,2.9c0.5,0.7,0.9,1.4,1.2,2.2
			c0.3,0.8,0.3,1.7,0,2.4c-0.5,1-1.4,1.7-2.4,2.1c-1.4,0.6-2.8,1-4.3,1.2c-4.1,0.4-5.2-3.7-4.2-6.9c0.1-0.2,0.2-0.5,0.2-0.7
			c0.5-1.2,1.3-2.9,2.6-3.4C119.4,97.9,120.7,97.9,121.8,98.4z"/>
		<path class="st16" d="M119.2,130.9c0.8-0.2,1.7-0.3,2.5-0.1c1.7,0.3,5.8,2.2,5.5,4.3c-0.2,0.7-0.5,1.3-0.9,1.9
			c-0.4,0.7-0.8,1.4-1.4,2.1c-1.4,1.5-3.8,2.2-5.6,0.6c-1.4-1.3-1.7-2.8-2.2-4.5c-0.4-1.3-0.5-2.6,0.6-3.6
			C118.2,131.3,118.6,131,119.2,130.9z"/>
		<path class="st16" d="M141.4,157.3c0-0.5,0.2-1,0.5-1.4c0.5-0.6,1-1,1.6-1.4c0.6-0.5,1.3-0.9,2-1.2c0.7-0.3,1.5-0.4,2.3-0.2
			c1,0.4,1.8,1.2,2.3,2.2c0.7,1.3,1.7,4.2,0.8,5.6c-1.1,1.5-3.6,1.5-5.4,1c-1.4-0.5-2.7-1.3-3.6-2.5
			C141.5,158.7,141.3,158,141.4,157.3z"/>
		<path class="st16" d="M175.3,158.6c-0.8-1.4-0.6-3.2-0.3-4.7c0.2-1.2,0.9-2.3,2-3c1.8-1,3.8-0.1,5.2,1.2c1,0.9,2.3,2.1,2.5,3.5
			c0.3,1.9-2,3.3-3.4,4.1c-0.9,0.6-2,0.8-3.1,0.7c-1.1-0.1-2.1-0.7-2.8-1.6C175.4,158.8,175.4,158.7,175.3,158.6z"/>
		<path class="st16" d="M203,107.4c-0.2,0.2-0.5,0.3-0.7,0.4c-1.4,0.5-2.9,0.6-4.3,0.1c-1.1-0.3-2.1-0.8-3.1-1.3
			c-0.9-0.5-1.7-0.8-2.1-1.9c-0.3-0.9-0.2-1.8,0.2-2.6c0.6-1.2,1.3-2.3,2.1-3.4c1-1.1,2.5-1.7,4-1.5c2.4,0.2,3.9,2.2,4.6,4.3
			S205,105.9,203,107.4z"/>
		<path class="st16" d="M198.2,138.2c-0.6-0.1-1.1-0.4-1.6-0.8c-0.8-0.7-1.5-1.5-2.1-2.4c-0.7-0.9-1.4-2.1-1.1-3.2
			c0.3-1.3,1.7-2,2.9-2.5c1.1-0.5,2.4-0.8,3.6-0.9c3.5,0.1,4.2,4,3.1,6.5C202.2,136.9,200.3,138.6,198.2,138.2z"/>
	</g>
</g>
<g id="Layer_51">
	<path class="st17" d="M172.4,108.5c2.1-1.6,5.7-2.8,7.5,1c1.9,4-0.6,5.4-4,6.4c-3,0.9-6.9,0.2-7.5-1.1
		C167.8,113.7,169.5,110.6,172.4,108.5z"/>
	<path class="st18" d="M175.2,109.6c1-0.7,2.7-1.3,3.5,0.5c0.8,1.8-0.3,2.5-1.9,3c-1.6,0.5-3.2,0.1-3.5-0.5
		C173,112.1,173.8,110.6,175.2,109.6z"/>
	<path class="st17" d="M175,121.8c2.5,0.6,5.8,2.5,4,6.4c-1.8,4.1-4.5,3-7.5,1.1c-2.7-1.7-4.6-5.1-4.1-6.4
		C168.1,121.6,171.6,121,175,121.8z"/>
	<path class="st18" d="M176,124.6c1.2,0.3,2.7,1.2,1.9,3c-0.8,1.8-2.1,1.4-3.5,0.5c-1.4-0.9-2.2-2.4-1.9-3
		C172.7,124.5,174.4,124.2,176,124.6z"/>
	<path class="st17" d="M168.9,132.7c1.5,2.1,2.7,5.8-1.2,7.5c-4.1,1.8-5.4-0.8-6.3-4.1c-0.9-3.1,0-6.9,1.2-7.5
		C163.8,128,166.8,129.9,168.9,132.7z"/>
	<path class="st18" d="M167.7,135.5c0.7,1,1.2,2.7-0.6,3.5s-2.5-0.4-3-1.9s0-3.2,0.6-3.5C165.3,133.3,166.7,134.2,167.7,135.5z"/>
	<path class="st17" d="M161.3,101.4c0.6-2.5,2.6-5.8,6.4-4c4,1.9,2.9,4.6,1,7.5c-1.7,2.7-5.2,4.6-6.4,4
		C161.1,108.3,160.5,104.8,161.3,101.4z"/>
	<path class="st18" d="M164.2,100.5c0.3-1.2,1.2-2.7,3-1.9c1.8,0.8,1.4,2.1,0.5,3.5c-0.9,1.4-2.4,2.1-3,1.9
		C164.1,103.7,163.8,102.1,164.2,100.5z"/>
	<path class="st17" d="M149,104.6c-1.3-2.3-2.1-6,1.9-7.3c4.2-1.4,5.3,1.2,6,4.7c0.6,3.1-0.6,6.8-1.9,7.3
		C153.7,109.8,150.8,107.7,149,104.6z"/>
	<path class="st18" d="M150.5,102c-0.6-1.1-1-2.8,0.9-3.4c1.9-0.6,2.5,0.6,2.8,2.2c0.3,1.6-0.3,3.2-0.9,3.4S151.3,103.4,150.5,102z"
		/>
	<path class="st17" d="M142.8,116.6c-2.6-0.5-5.9-2.4-4.2-6.3c1.8-4.1,4.5-3.1,7.5-1.2c2.7,1.6,4.7,5,4.2,6.2
		C149.8,116.5,146.2,117.3,142.8,116.6z"/>
	<path class="st18" d="M141.8,113.7c-1.2-0.2-2.8-1.1-2-3c0.8-1.8,2.1-1.5,3.5-0.6s2.2,2.3,2,3C145,113.7,143.4,114.1,141.8,113.7z"
		/>
	<path class="st17" d="M146.9,129.6c-2.1,1.6-5.6,3-7.5-0.8c-2-4,0.5-5.4,3.7-6.6c3-1.1,6.9-0.4,7.5,0.8
		C151.3,124.2,149.7,127.4,146.9,129.6z"/>
	<path class="st18" d="M144,128.5c-1,0.8-2.6,1.4-3.5-0.4c-0.9-1.8,0.2-2.5,1.8-3.1c1.6-0.6,3.2-0.2,3.5,0.4
		C146.1,126,145.3,127.5,144,128.5z"/>
	<path class="st17" d="M156.7,137.8c-0.3,2.6-1.9,6-6,4.7c-4.2-1.4-3.4-4.2-1.9-7.3c1.4-2.8,4.6-5.1,6-4.7
		C156.1,130.9,157.1,134.4,156.7,137.8z"/>
	<path class="st18" d="M153.9,139.1c-0.2,1.2-0.9,2.8-2.8,2.2s-1.6-2-0.9-3.4c0.7-1.5,2.2-2.4,2.8-2.2S154.1,137.4,153.9,139.1z"/>
</g>
</svg>
