<svg id="acd531e2-51dc-47e2-9ae7-d514e308ca9b" data-name="Layer 1" xmlns="http://www.w3.org/2000/svg" viewBox="0 0 252 252"><path d="M89.91,45.91a1.19,1.19,0,0,1,.94.46l0,0a6.08,6.08,0,0,0,2.8,1.9,1.32,1.32,0,0,1,.75,1.62c-.38,2-.83,1.84-2.44,2.37s-3.78,4.41-4.66,6a35.77,35.77,0,0,0-1.7,3.53c4.62.31,11.87.73,13.91.73a3,3,0,0,0,.52,0,34.11,34.11,0,0,0,3.8-1.57h.1l.07,0a55.45,55.45,0,0,1,22.15-4.91c25.9,0,40.91,21.23,43,23.82,2.4,2.9,7.12,10,13.68,21.21a52,52,0,0,1,22.26,15.15c6,4.67,8.7,17.91,9,20s1.48,10-3.39,21-15.45,17.76-21.14,22-37.91,24.9-59.16,26.78c-1,.09-2,.13-3,.13-9.73,0-17.8-4.23-23.47-8.48a37.82,37.82,0,0,1-9.75,3.11,43.25,43.25,0,0,1-21.22-1.93c-26.89-8.89-32.8-39.91-33.89-45.66S34.5,115.64,43,93.08c7.68-20.39,26.07-21.37,29.53-21.37h.72a32.48,32.48,0,0,0,5.48-.51,25.54,25.54,0,0,1,.93-5.27,39.38,39.38,0,0,1,3.06-8.41,49.53,49.53,0,0,1,5.21-8.41L87.84,49l0-.07h0l0,0a1.42,1.42,0,0,1,0-1.6,10.83,10.83,0,0,1,1.41-1.12,1.17,1.17,0,0,1,.73-.25m-6.2,23.37A22.57,22.57,0,0,1,93.26,67a21.3,21.3,0,0,1,7.5,1.4,28.58,28.58,0,0,1,5.56,2.91,27.57,27.57,0,0,0-2.87-3c-4.56-3-14-4.23-18.52-4.68-.14.42-.29.83-.42,1.25a24.83,24.83,0,0,0-.8,4.37m48.61,37c2.11-.94,4.39-1.87,6.82-2.74-4.4-3.7-8.09-6.54-10.42-8.56-1-.92-2.15-1.94-3.28-3a78.55,78.55,0,0,1,6.88,14.32M89.91,37.91a9.25,9.25,0,0,0-5.29,1.67,18.17,18.17,0,0,0-2.37,1.91,8.14,8.14,0,0,0-1,1.22A9.42,9.42,0,0,0,79.59,47a57.64,57.64,0,0,0-4,7A47,47,0,0,0,72,63.72c-5.6.11-27.28,2.19-36.46,26.54-9,24-5.6,56.91-4.18,64.4a86.76,86.76,0,0,0,8,23.85c7.2,13.87,18,23.51,31.13,27.89a51.25,51.25,0,0,0,17,2.9,52,52,0,0,0,8.07-.64l.1,0a44.45,44.45,0,0,0,7.43-1.95,45.82,45.82,0,0,0,24.43,7.44c1.22,0,2.45,0,3.68-.16,23.63-2.09,57.53-24.09,63.23-28.34l1.94-1.42c6.18-4.48,16.52-12,21.74-23.75,2.66-6,5.51-15.31,4-25.44,0-.17-2.64-16.87-11.23-24.43a61.1,61.1,0,0,0-22.48-16c-5.47-9.24-10.14-16.38-13-19.82l-.4-.5c-17-21.68-35.94-26.23-48.82-26.23a63.39,63.39,0,0,0-24.35,5.15,13.23,13.23,0,0,0,.39-1.45,9.27,9.27,0,0,0-5.46-10.86l-.07,0a9.11,9.11,0,0,0-6.78-3Z" style="fill:#fff"/></svg>