<svg xmlns="http://www.w3.org/2000/svg" viewBox="0 0 252 252"><defs><style>.cls-1{fill:#84bb01;}.cls-2{fill:#ff9f96;}.cls-3{fill:#f06c62;}.cls-4{fill:#f7c859;}.cls-5{fill:#754c24;}.cls-6{fill:#a1a614;}.cls-7{fill:#bbf41e;opacity:0.23;}.cls-8{opacity:0.6;}.cls-9{fill:#fff;}</style></defs><g id="Layer_14" data-name="Layer 14"><path class="cls-1" d="M143.62,125.28l1,.24c14.9,3.78,26.66,11.08,35.6,24.11a49.44,49.44,0,0,1,6.78,41A62.82,62.82,0,0,1,180,205.85c-6.62,10.92-15.61,20.56-26.8,26.72s-24.68,8.65-37.23,5.57c-11.11-2.72-21-9.66-28.32-18.52s-12.13-19.53-15.1-30.57C68.35,173.3,68,154.54,82.93,144.56c2-1.34,4.2-2.46,5.84-4.22s2.48-3.69,3.69-5.57c5.08-7.9,14.6-12.07,24-12.88C125.58,121.1,134.71,123,143.62,125.28Z"/><path class="cls-2" d="M142.21,130.26l.88.22c13.52,3.43,24.19,10.05,32.3,21.88a44.81,44.81,0,0,1,6.16,37.15,58,58,0,0,1-6.3,13.86c-6,9.89-14.16,18.64-24.31,24.24s-22.4,7.85-33.78,5c-10.08-2.47-19.07-8.77-25.69-16.8s-11-17.73-13.71-27.74c-3.84-14.29-4.12-31.31,9.39-40.37a28.48,28.48,0,0,0,5.3-3.82,33.86,33.86,0,0,0,3.35-5.06c4.61-7.16,13.24-11,21.79-11.69C125.84,126.47,134.13,128.23,142.21,130.26Z"/><path class="cls-3" d="M135.11,155.52l.42.11c6.58,1.67,11.78,4.89,15.72,10.65a21.84,21.84,0,0,1,3,18.07,28.37,28.37,0,0,1-3.07,6.75,32.54,32.54,0,0,1-11.83,11.79,23.1,23.1,0,0,1-16.44,2.46,24,24,0,0,1-12.5-8.18,35.48,35.48,0,0,1-6.66-13.49c-1.87-7-2-15.24,4.57-19.64a14.52,14.52,0,0,0,2.58-1.87,15.84,15.84,0,0,0,1.62-2.46c2.25-3.48,6.45-5.32,10.61-5.68S131.17,154.54,135.11,155.52Z"/><path class="cls-4" d="M114.55,169.06c-1.88,2.1-5.15-.82-3.27-2.93s5.16.82,3.27,2.93Z"/><path class="cls-4" d="M108.83,171.79c-1.88,2.1-5.15-.82-3.26-2.92s5.15.82,3.26,2.92Z"/><path class="cls-4" d="M104.84,175.29l0,.69a2.21,2.21,0,0,1-2.07,2.31,2.17,2.17,0,0,1-1.58-.56,2.24,2.24,0,0,1-.73-1.51l0-.69a2.19,2.19,0,0,1,4.38-.24Z"/><path class="cls-4" d="M105.1,185.46c-1.88,2.1-5.15-.82-3.26-2.93s5.15.82,3.26,2.93Z"/><path class="cls-4" d="M110.74,193.77c-1.88,2.11-5.15-.81-3.27-2.92s5.16.82,3.27,2.92Z"/><path class="cls-4" d="M118.69,200.24c-1.88,2.1-5.15-.82-3.27-2.93s5.16.82,3.27,2.93Z"/><path class="cls-4" d="M131.42,205.74l.36.33a2.2,2.2,0,0,1,.18,3.1,2.21,2.21,0,0,1-1.52.72,2.28,2.28,0,0,1-1.58-.55l-.36-.33a2.24,2.24,0,0,1-.73-1.51,2.19,2.19,0,0,1,2.07-2.31,2.28,2.28,0,0,1,1.58.55Z"/><path class="cls-4" d="M136.86,207.34l-.36-.32a2.27,2.27,0,0,1-.73-1.52,2.19,2.19,0,0,1,2.07-2.31,2.29,2.29,0,0,1,1.58.56l.36.32a2.27,2.27,0,0,1,.73,1.52,2.19,2.19,0,0,1-2.07,2.31,2.29,2.29,0,0,1-1.58-.56Z"/><path class="cls-4" d="M142.82,199.59c-1.89,2.1-5.16-.82-3.27-2.92s5.15.82,3.27,2.92Z"/><path class="cls-4" d="M139.77,191.3c-1.88,2.11-5.16-.81-3.27-2.92s5.15.82,3.27,2.92Z"/><path class="cls-4" d="M147.74,191.9l-.33.36a2.24,2.24,0,0,1-1.51.73,2.21,2.21,0,0,1-2.31-2.07,2.24,2.24,0,0,1,.56-1.58l.32-.37a2.21,2.21,0,0,1,3.1-.17,2.21,2.21,0,0,1,.72,1.52,2.23,2.23,0,0,1-.55,1.58Z"/><path class="cls-4" d="M154,190c-1.88,2.1-5.16-.82-3.27-2.93s5.15.82,3.27,2.93Z"/><path class="cls-4" d="M156.35,182.28c-1.88,2.1-5.15-.82-3.27-2.93s5.16.82,3.27,2.93Z"/><path class="cls-4" d="M150.57,173.62l0-.69a2.21,2.21,0,0,1,2.07-2.31,2.21,2.21,0,0,1,1.58.56,2.26,2.26,0,0,1,.73,1.51l0,.69a2.23,2.23,0,0,1-.56,1.58,2.18,2.18,0,0,1-1.51.73,2.22,2.22,0,0,1-1.58-.55,2.27,2.27,0,0,1-.73-1.52Z"/><path class="cls-4" d="M149.52,168c-1.88,2.1-5.15-.82-3.27-2.93s5.16.82,3.27,2.93Z"/><path class="cls-4" d="M143.26,164l-.32.36a2.27,2.27,0,0,1-1.52.73,2.21,2.21,0,0,1-2.31-2.07,2.29,2.29,0,0,1,.56-1.58l.32-.37a2.28,2.28,0,0,1,1.52-.72,2.19,2.19,0,0,1,1.75,3.65Z"/><path class="cls-4" d="M134.66,158.28c-1.88,2.11-5.15-.82-3.27-2.92s5.16.82,3.27,2.92Z"/><path class="cls-4" d="M126.43,156.15l-.32.36a2.26,2.26,0,0,1-1.51.73,2.21,2.21,0,0,1-2.32-2.07,2.29,2.29,0,0,1,.56-1.58l.32-.37a2.32,2.32,0,0,1,1.52-.72,2.19,2.19,0,0,1,1.75,3.65Z"/><path class="cls-4" d="M119,158.07l-.69,0a2.27,2.27,0,0,1-1.59-.56A2.19,2.19,0,0,1,116,156a2.16,2.16,0,0,1,.55-1.58,2.27,2.27,0,0,1,1.52-.73l.68,0a2.25,2.25,0,0,1,1.59.56,2.19,2.19,0,0,1,.72,1.51,2.16,2.16,0,0,1-.55,1.58,2.26,2.26,0,0,1-1.51.73Z"/><path class="cls-4" d="M116.94,162.37l-.32.36a2.29,2.29,0,0,1-1.52.73,2.21,2.21,0,0,1-2.31-2.07,2.29,2.29,0,0,1,.56-1.58l.32-.37a2.3,2.3,0,0,1,1.52-.72,2.19,2.19,0,0,1,2.31,2.07,2.29,2.29,0,0,1-.56,1.58Z"/><path class="cls-4" d="M117,173.24l-.18-.17a2.19,2.19,0,1,1,2.93-3.26l.18.16a2.24,2.24,0,0,1,.73,1.51,2.19,2.19,0,0,1-2.07,2.31,2.32,2.32,0,0,1-1.59-.55Z"/><path class="cls-4" d="M121.59,205.77l-.37-.32a2.28,2.28,0,0,1-.72-1.52,2.19,2.19,0,0,1,2.06-2.31,2.3,2.3,0,0,1,1.59.56l.36.32a2.27,2.27,0,0,1,.73,1.52,2.21,2.21,0,0,1-2.07,2.31,2.29,2.29,0,0,1-1.58-.56Z"/></g><g id="Layer_13" data-name="Layer 13"><path class="cls-5" d="M173,212.38c-.41-.39-1.31-.59-1.34,0l-10.35,11.31A19.58,19.58,0,0,0,170,230a.67.67,0,0,0,.39.05c.25-.09.28-.42.27-.68-.06-1.39-.07-2.79,0-4.18l3,.79c-.07-1.1-.19-2.19-.35-3.28a16.11,16.11,0,0,1,5.09.2A17.36,17.36,0,0,0,173,212.38Z"/><path class="cls-6" d="M52.7,132.75l.59-.26c8.16-3.72,14.94-3.09,23,.33A53.55,53.55,0,0,1,97,148.69c1.18,1.47,3.35-.51,2.18-2a56.6,56.6,0,0,0-22.81-17c-5.23-2.13-10.89-3.77-16.58-3.59-4.13.12-10.85-1.17-10.64,5.1a2.34,2.34,0,0,0,.33,1.25,1.93,1.93,0,0,0,1.83.7A4.59,4.59,0,0,0,52.7,132.75Z"/><path class="cls-1" d="M75.45,195.65c.08.32.16.65.25,1,3.9,14.95,11.31,26.73,24.47,35.62a49.69,49.69,0,0,0,41.2,6.54,63.49,63.49,0,0,0,15.3-7.08c10.92-6.72,20.55-15.82,26.68-27.11s8.52-24.86,5.34-37.46c-2.81-11.15-9.85-21-18.8-28.33s-19.72-12.07-30.83-15c-15.85-4.14-34.71-4.33-44.64,10.71-1.34,2-2.45,4.23-4.2,5.9s-3.7,2.51-5.58,3.74c-7.9,5.16-12,14.75-12.78,24.23C71.13,177.54,73.13,186.71,75.45,195.65Z"/><path class="cls-7" d="M169.89,138.8c-8.95-7.29-19.72-12.07-30.83-15s-23.65-3.85-33.6,1c8.1-1.47,17-.39,25.15,1.73,11.11,2.91,21.88,7.69,30.83,15s16,17.18,18.8,28.33c3.18,12.6.77,26.17-5.35,37.46s-15.75,20.39-26.67,27.11a71.18,71.18,0,0,1-9.92,5.15c1-.22,2.06-.48,3.07-.78a63.49,63.49,0,0,0,15.3-7.08c10.92-6.72,20.55-15.82,26.68-27.11s8.52-24.86,5.34-37.46C185.88,156,178.84,146.08,169.89,138.8Z"/><g class="cls-8"><path class="cls-9" d="M149,213.88l.21.25a1.55,1.55,0,0,0,1,.48,1.52,1.52,0,0,0,1.06-.38,1.49,1.49,0,0,0,.1-2.08l-.22-.24a1.51,1.51,0,0,0-1-.48,1.47,1.47,0,0,0-1.16,2.45Z"/><path class="cls-9" d="M165.48,194l0,.46a1.47,1.47,0,0,0,2.94.14l0-.46a1.52,1.52,0,0,0-.38-1.06,1.47,1.47,0,0,0-1-.48,1.51,1.51,0,0,0-1.54,1.4Z"/><path class="cls-9" d="M142.64,197.16l.22.25a1.47,1.47,0,0,0,2.08.1,1.51,1.51,0,0,0,.1-2.08l-.22-.24a1.51,1.51,0,0,0-1-.48,1.48,1.48,0,0,0-1.06.38,1.5,1.5,0,0,0-.1,2.07Z"/><path class="cls-9" d="M169.73,177.21,170,177a1.46,1.46,0,0,0,.1-2.07,1.49,1.49,0,0,0-2.08-.1l-.24.22a1.51,1.51,0,0,0-.48,1,1.47,1.47,0,0,0,2.45,1.16Z"/><path class="cls-9" d="M157.72,200.9l.24-.22a1.51,1.51,0,0,0,.48-1,1.47,1.47,0,0,0-2.46-1.16l-.24.21a1.55,1.55,0,0,0-.48,1,1.52,1.52,0,0,0,.38,1.06,1.5,1.5,0,0,0,2.08.1Z"/><path class="cls-9" d="M153.54,172.73l.44.48a1.51,1.51,0,0,0,1,.48,1.45,1.45,0,0,0,1.05-.38,1.49,1.49,0,0,0,.11-2.07l-.44-.49a1.53,1.53,0,0,0-1-.48,1.48,1.48,0,0,0-1.06.38,1.51,1.51,0,0,0-.1,2.08Z"/><path class="cls-9" d="M167.53,208.31a1.47,1.47,0,0,0-2-2.17,1.47,1.47,0,0,0,2,2.17Z"/><path class="cls-9" d="M168,156.32a1.47,1.47,0,0,0-2-2.17,1.47,1.47,0,0,0,2,2.17Z"/><path class="cls-9" d="M148.92,153.55l.22.24a1.53,1.53,0,0,0,1,.48,1.48,1.48,0,0,0,1.06-.38,1.5,1.5,0,0,0,.1-2.08l-.22-.24a1.47,1.47,0,0,0-2.18,2Z"/><path class="cls-9" d="M142.17,164.08l-.22-.24a1.51,1.51,0,0,0-1-.48,1.45,1.45,0,0,0-1.05.38,1.49,1.49,0,0,0-.1,2.08l.21.24a1.55,1.55,0,0,0,1,.48,1.48,1.48,0,0,0,1.06-.38,1.5,1.5,0,0,0,.1-2.08Z"/><path class="cls-9" d="M134.71,141.53a1.47,1.47,0,0,0-2-2.18,1.47,1.47,0,0,0,2,2.18Z"/></g><path class="cls-9" d="M86.2,196a36,36,0,0,1-4.53-28.35c.48-1.82-2.32-2.72-2.8-.88a38.88,38.88,0,0,0,4.71,30.56c1,1.58,3.64.27,2.62-1.33Z"/><path class="cls-9" d="M83.31,162.38l-.44-.49a1.47,1.47,0,0,0-2.18,2l.44.48a1.51,1.51,0,0,0,1,.48,1.48,1.48,0,0,0,1.06-.38,1.5,1.5,0,0,0,.1-2.07Z"/></g></svg>