<svg xmlns="http://www.w3.org/2000/svg" viewBox="0 0 252 252"><defs><style>.cls-1{fill:#562d0b;}.cls-2{fill:#dd1c12;}.cls-3{fill:#ce120d;}.cls-4{fill:#f4ec8c;}.cls-5{fill:#fcf7a2;}.cls-6{fill:#f9de6b;}.cls-7{fill:#e2c754;opacity:0.6;}.cls-8{fill:#322f20;}.cls-9{fill:#fc3732;}</style></defs><g id="Layer_25" data-name="Layer 25"><path class="cls-1" d="M120.41,160.34l-1.32-1c7.22-6.3,4.78-23-4.47-47.15l4.5,2.41C127,138.5,127.85,153.85,120.41,160.34Z"/><path class="cls-2" d="M179.63,164.66c-1.85-7.14-5.2-14-10.61-19.06-17.48-16.34-44.09-5.86-44.09-5.86S98.43,129,80.79,145.15c-9.35,8.57-12.74,22.5-12.79,34.11C67.91,197.91,82.32,219.5,96.72,231,162.3,227.3,176.54,183.19,179.63,164.66Z"/><path class="cls-3" d="M179.63,164.66C176.54,183.19,162.3,227.3,96.72,231c6.38,5.1,12.75,8.23,17.87,8.26s9.88-3.48,9.88-3.48,4.68,3.55,9.85,3.58c16.68.09,47-32.63,47.17-59.54A60.26,60.26,0,0,0,179.63,164.66Z"/><path class="cls-4" d="M168.1,179.78c-.08,16.49-11.26,35.28-22.67,46.47-6.24,6.11-12.54,9.95-17.15,9.93-3.54,0-7-2.85-7-2.89l-1.9-1.58-1.91,1.56s-3.54,2.82-7.07,2.8c-13.08-.06-39.41-31.32-39.29-56.8.07-13.23,4.07-25.14,10.71-31.84,5.33-5.37,12.28-8.07,20.64-8a41.84,41.84,0,0,1,5,.34,45.26,45.26,0,0,1,11.14,2.9l1.18.52,1.2-.51a45.1,45.1,0,0,1,16.18-3.07c8.37,0,15.29,2.82,20.56,8.24C164.27,154.59,168.16,166.54,168.1,179.78Z"/><path class="cls-5" d="M168.1,179.78c-.08,16.49-11.26,35.28-22.67,46.47-26.62-2.32-47.52-25.95-47.53-54.75a57,57,0,0,1,9.53-31.76,45.26,45.26,0,0,1,11.14,2.9l1.18.52,1.2-.51a45.1,45.1,0,0,1,16.18-3.07c8.37,0,15.29,2.82,20.56,8.24C164.27,154.59,168.16,166.54,168.1,179.78Z"/><path class="cls-6" d="M119.85,144.21s.49,5.45.81,13.63c.09,2,.18,4.26.24,6.6s.14,4.81.17,7.36.1,5.2.09,7.88,0,5.41,0,8.13-.07,5.45-.1,8.14-.11,5.32-.16,7.87c-.13,5.11-.32,9.88-.54,14-.4,8.18-.94,13.62-.94,13.62s-.49-5.45-.82-13.63c-.18-4.08-.32-8.85-.4-14,0-2.56-.11-5.2-.09-7.88s0-5.41,0-8.13.07-5.45.1-8.13.11-5.33.17-7.88.15-5,.24-7.36.19-4.56.29-6.6C119.31,149.65,119.85,144.21,119.85,144.21Z"/><path class="cls-7" d="M130.08,187.55c0,6.56-5.29,15.46-10.49,11.82l.11-23.74C126,174.12,130.11,181,130.08,187.55Z"/><path class="cls-7" d="M109.22,187.45c0,6.55,5.14,15.5,10.37,11.92l.11-23.74C113.39,174.06,109.25,180.89,109.22,187.45Z"/><path class="cls-8" d="M126,188.24c-.62-2.48-2.61-4.08-2.89-4s-1.27,2.48-.65,4.95C123.38,192.74,126.91,191.78,126,188.24Z"/><path class="cls-8" d="M113.76,188.17c.65-2.46,2.65-4,2.94-4s1.24,2.5.59,5C116.36,192.7,112.84,191.71,113.76,188.17Z"/></g><g id="Layer_26" data-name="Layer 26"><path class="cls-3" d="M180.34,181.22C179.49,200,164,221.16,149,232c-6.46,4.73-12.81,7.51-17.8,7.34s-9.6-3.86-9.6-3.86-4.81,3.37-9.92,3.19c-16.51-.57-44.9-34.45-43.68-61.34.52-11.61,4.44-25.43,14-33.73,9.22-8,20.43-8.9,29.22-7.88A55.29,55.29,0,0,1,126,139.49s26.76-9.71,43.41,7.14C178.21,155.56,180.87,169.61,180.34,181.22Z"/><path class="cls-2" d="M180.34,181.22C179.49,200,164,221.16,149,232c-23.51-1.6-44.53-20.79-49.67-47.37-3.58-18.53,1.37-36.44,11.93-48.91A55.29,55.29,0,0,1,126,139.49s26.76-9.71,43.41,7.14C178.21,155.56,180.87,169.61,180.34,181.22Z"/><path class="cls-9" d="M158.23,154.65c-9.88-2-7.16,14.64,4.09,14.71S170.13,157.11,158.23,154.65Z"/><path class="cls-9" d="M147.65,145.52c-5.43-1.3-3.36,6.89,2.74,7.28S154.2,147.09,147.65,145.52Z"/></g></svg>