<svg xmlns="http://www.w3.org/2000/svg" viewBox="0 0 252 252"><defs><style>.cls-1{isolation:isolate;}.cls-2,.cls-4{fill:#CC8F05;}.cls-3{fill:#f9cb37;}.cls-4{mix-blend-mode:multiply;opacity:0.28;}.cls-5{fill:#7e4100;}.cls-6{fill:#a55d13;}.cls-7{fill:#f7dc54;}.cls-8{fill:#dda403;}.cls-9{fill:#bc8702;}.cls-10{opacity:0.26;}</style></defs><g class="cls-1"><g id="Layer_1" data-name="Layer 1"><path class="cls-2" d="M166,112c7.4,11.18,38.74,8.28,31.14,46.79-12.6,51.32-44.28,74.84-85.37,77.56-11.89.29-38.22-3.91-38.63-23.26,0,0-1-10.73,1.32-14.54,15-24.91,2.39-30.85,19.06-68.53C109.52,96.92,144.79,84.5,166,112Z"/><path class="cls-3" d="M165,114.08c7.13,10.79,34.52,4.09,27.19,41.23-12.16,49.51-42.72,72.2-82.35,74.82-11.47.29-34,.14-34.42-18.54,0,0-.94-10.35,1.27-14,14.47-24,2.31-29.76,18.39-66.1C110.48,99.54,144.5,87.57,165,114.08Z"/><ellipse class="cls-4" cx="170.26" cy="117.3" rx="0.7" ry="3.25" transform="translate(-22.23 192.75) rotate(-55.97)"/><path class="cls-5" d="M184.41,100.53c-9.56,3.63-16.3,15.5-16.3,15.5l2.11,1.39c5.55-7,14.72-12.57,17.11-14Z"/><path class="cls-6" d="M187.33,103.46c-2.39,1.39-11.56,7-17.11,14l1.73,1.14c2.76-6.15,17.33-13.15,17.33-13.15Z"/><path class="cls-7" d="M127.54,137.19s11.72-7,20.73-2.13c8.49,4.56,20.37,8,14.75,21.92s-20.83,35.14-29.74,42.68-22.36,14-28.84,5.31-5.22-26,.62-33.14,10.42-20.31,13-24.59C121.15,142.15,127.54,137.19,127.54,137.19Z"/><path class="cls-8" d="M117.5,204.16c5.38-2.48,8.34-4.39,17.72-12.63,8.91-7.82,21.24-29.16,23.5-35,1.85-4.75,1.31-10.34.7-13.7-2-2.05-5.13-3.85-9.79-5-9.59-7.91-21-1-21-1s-6.16,4.89-9.14,9.87c-2.51,4.2-7,17.1-12.63,24.11-5,6.24-6.83,21.25-2.85,30.44C107.67,204.39,113.21,206.13,117.5,204.16Z"/><path class="cls-9" d="M159.42,142.84c.61,3.36,1.15,8.95-.7,13.7-2.26,5.83-14.59,27.17-23.5,35-9.38,8.24-12.34,10.15-17.72,12.63-4.29,2-9.83.23-13.48-2.84a16.25,16.25,0,0,0,1.77,3.15c6.15,8.44,19.39.86,28-6.56s23.31-28.27,28.79-41.89C162.56,156,165,148.48,159.42,142.84Z"/><path class="cls-3" d="M116.49,166.72s8.12-20.92,16.4-24S145,139.88,145,139.88,130.05,144.33,116.49,166.72Z"/><g class="cls-10"><path class="cls-3" d="M137.89,157.49l-.18,1.43c.13.65.64.69,1.16.9l1.56-2.1s-.55-1.87-.56-1.87S138.1,156.6,137.89,157.49Z"/><path class="cls-3" d="M121.45,183.48l-.57,1.44c-.09.76.32,1,.67,1.49l1.89-1.56s.11-2.25.1-2.26S121.89,182.61,121.45,183.48Z"/><path class="cls-3" d="M141.92,176.67l1.15-.89a4.09,4.09,0,0,0,.63-2.09l-1.78-.22-1.45,2.12S141.2,177.11,141.92,176.67Z"/><path class="cls-3" d="M152.35,153.39l.39-1.46c0-.72-.48-.88-.92-1.23l-1.76,1.85.22,2.1S152,154.28,152.35,153.39Z"/><path class="cls-3" d="M116.75,181.68l-1,1.24a3.07,3.07,0,0,0,0,2l2-.64s.91-2.35.9-2.36S117.39,181,116.75,181.68Z"/><path class="cls-3" d="M131.49,174.22l1.18-.45a4.47,4.47,0,0,0,1.13-2l-1.38-1s-1.8,1.63-1.8,1.64S130.76,174.38,131.49,174.22Z"/><path class="cls-3" d="M147.87,163l.44-1.45c0-.74-.43-.93-.85-1.31l-1.8,1.77s.12,2.15.13,2.15S147.5,163.85,147.87,163Z"/><path class="cls-3" d="M122.12,189.2l-.79,1.36a2.32,2.32,0,0,0,.31,1.78l2-1.1.53-2.37S122.68,188.41,122.12,189.2Z"/><path class="cls-3" d="M146.79,153.91l.62-1.43c.11-.77-.27-1.07-.61-1.56l-1.91,1.48s-.19,2.28-.18,2.29S146.33,154.77,146.79,153.91Z"/><path class="cls-3" d="M129.19,169.33l1.17-.24a4.57,4.57,0,0,0,1.31-1.83l-1.16-1.34s-1.88,1.35-1.89,1.37S128.5,169.35,129.19,169.33Z"/><path class="cls-3" d="M112.57,166l-1.18.39a4.49,4.49,0,0,0-1.19,1.92l1.31,1.13,1.83-1.56S113.29,165.91,112.57,166Z"/><path class="cls-3" d="M133.14,146.54l.91-1.28a2.82,2.82,0,0,0-.08-1.91l-2,.8-.78,2.38S132.53,147.27,133.14,146.54Z"/><path class="cls-3" d="M121.87,172.35l.6.91c.5.24,1-.16,1.69-.47l.44-2.41s-1.59-.55-1.6-.54S121.6,171.69,121.87,172.35Z"/><path class="cls-3" d="M130.28,157.79l.1,1.31c.28.53.83.41,1.43.43L133,157.2s-1-1.48-1-1.47S130.32,156.93,130.28,157.79Z"/><path class="cls-3" d="M151.62,159.05l1,.18c.63-.2,1-.83,1.56-1.48l-.65-1.86-1.94.77S151,158.82,151.62,159.05Z"/><path class="cls-3" d="M106.86,181.05l-1.1,1a3.76,3.76,0,0,0-.46,2.08l1.86,0,1.3-2.23S107.57,180.52,106.86,181.05Z"/><path class="cls-3" d="M134.61,188.12l.09,1.31c.28.54.83.42,1.42.46l1.24-2.33s-1-1.49-1-1.49S134.66,187.26,134.61,188.12Z"/><path class="cls-3" d="M116.25,190.76l-1.19.41a4.7,4.7,0,0,0-1.17,1.94l1.34,1.09,1.82-1.59S117,190.63,116.25,190.76Z"/><path class="cls-3" d="M138.2,148.7l.55-1.44c.07-.76-.34-1-.71-1.46l-1.87,1.59s-.07,2.24-.06,2.25S137.77,149.58,138.2,148.7Z"/><path class="cls-3" d="M125.22,191.11l-.17,1.42c.14.64.66.67,1.18.88l1.55-2.12s-.58-1.85-.6-1.85S125.42,190.21,125.22,191.11Z"/><path class="cls-3" d="M118.1,160.2l-.6-.91c-.5-.24-1,.16-1.69.47l-.44,2.41s1.59.55,1.6.54S118.37,160.86,118.1,160.2Z"/><path class="cls-3" d="M140.51,168.55l1.12,0c.64-.3,1-1,1.45-1.68l-.92-1.61s-1.93,1.07-1.93,1.09S139.86,168.45,140.51,168.55Z"/><path class="cls-3" d="M113.57,187.78l-1.18.27a4.53,4.53,0,0,0-1.28,1.86l1.2,1.28,1.87-1.41S114.26,187.73,113.57,187.78Z"/><path class="cls-3" d="M142.75,145.85l.6-1.44c.1-.77-.29-1.06-.63-1.54l-1.9,1.5s-.17,2.28-.16,2.28S142.29,146.71,142.75,145.85Z"/><path class="cls-3" d="M128.73,158.91l-.43-1.07c-.43-.35-1,0-1.64.17l-.72,2.43,1.43.88S128.91,159.65,128.73,158.91Z"/><path class="cls-3" d="M136.7,184.54l.7.8c.53.16,1.06-.29,1.7-.67l.25-2.36s-1.7-.32-1.71-.31S136.36,184,136.7,184.54Z"/><path class="cls-3" d="M125.9,162.91l-.83-.6c-.58-.05-1.07.48-1.7,1l.06,2.25,1.83-.06S126.34,163.39,125.9,162.91Z"/><path class="cls-3" d="M134.45,175.54l.89.5c.6,0,1.07-.56,1.68-1.09l-.2-2.17L135,173S134,175.11,134.45,175.54Z"/><path class="cls-3" d="M128.1,165.19l-.93-.44c-.61.05-1.07.63-1.67,1.18l.3,2.12,1.9-.34S128.6,165.58,128.1,165.19Z"/><path class="cls-3" d="M142.9,168.38l-1.15.87a4.18,4.18,0,0,0-.65,2.09l1.77.25s1.46-2.1,1.46-2.11S143.63,167.94,142.9,168.38Z"/><path class="cls-3" d="M151.3,143.25l-1,1.18a3.27,3.27,0,0,0-.16,2l2-.47,1-2.34S152,142.61,151.3,143.25Z"/><path class="cls-3" d="M151.58,149.39l.47,1c.44.34,1,0,1.64-.21l.68-2.43s-1.44-.84-1.45-.83S151.4,148.66,151.58,149.39Z"/><path class="cls-3" d="M145.35,136.3l-1.18.41a4.52,4.52,0,0,0-1.16,1.95l1.35,1.07,1.81-1.6S146.07,136.16,145.35,136.3Z"/><path class="cls-3" d="M129.63,191.46l-.6,1.43c-.11.77.28,1.06.62,1.54l1.91-1.5s.17-2.27.16-2.28S130.09,190.6,129.63,191.46Z"/><path class="cls-3" d="M137.4,164.47l.06-1.38c-.2-.61-.73-.57-1.29-.71l-1.42,2.22s.75,1.71.76,1.71S137.27,165.36,137.4,164.47Z"/><path class="cls-3" d="M127.78,195.71l-.47-1.05c-.44-.33-1,0-1.64.23l-.68,2.43,1.46.82S128,196.43,127.78,195.71Z"/><path class="cls-3" d="M122.19,197l-1,1.19a3.15,3.15,0,0,0-.12,2l2-.53,1-2.34S122.85,196.35,122.19,197Z"/><path class="cls-3" d="M125.78,179.6l-.36-1.13c-.4-.4-1-.13-1.6,0l-.84,2.43s1.32,1,1.33,1S125.9,180.37,125.78,179.6Z"/><path class="cls-3" d="M119,195.94l0,1.35c.23.58.78.5,1.35.58l1.34-2.27s-.86-1.61-.87-1.6S119.08,195.07,119,195.94Z"/><path class="cls-3" d="M128.54,178.77l.05-1.38c-.2-.61-.73-.58-1.29-.71l-1.42,2.22s.75,1.71.76,1.71S128.4,179.65,128.54,178.77Z"/><path class="cls-3" d="M118.34,186.64l-.58,1.45c-.09.76.3,1,.65,1.51l1.9-1.54s.13-2.26.12-2.26S118.79,185.78,118.34,186.64Z"/><path class="cls-3" d="M126.12,153.91l.54-1.45c.07-.76-.34-1-.71-1.46l-1.87,1.61s-.06,2.24,0,2.24S125.69,154.78,126.12,153.91Z"/><path class="cls-3" d="M107.32,193.92l-.23,1.44c.1.67.6.74,1.11,1l1.61-2s-.47-1.93-.48-1.93S107.56,193,107.32,193.92Z"/><path class="cls-3" d="M108,188.14l-1.19.62a4.51,4.51,0,0,0-1,2l1.55.73s1.7-1.82,1.7-1.84S108.72,187.88,108,188.14Z"/><path class="cls-3" d="M142.82,148.65l1.12,0c.64-.29,1-1,1.45-1.67l-.91-1.61-1.94,1.07S142.17,148.55,142.82,148.65Z"/><path class="cls-3" d="M116.86,198.46l-.58,1.44c-.09.76.3,1,.65,1.51l1.9-1.53s.13-2.27.12-2.27S117.31,197.59,116.86,198.46Z"/><path class="cls-3" d="M141.23,163.25l1,.36c.62-.09,1.06-.69,1.64-1.28l-.4-2-1.92.47S140.7,162.91,141.23,163.25Z"/><path class="cls-3" d="M110.93,196.4l-1,1.22a3.08,3.08,0,0,0-.08,2l2-.6s.94-2.35.93-2.35S111.58,195.72,110.93,196.4Z"/><path class="cls-3" d="M131.58,152.52l1.18-.28a4.49,4.49,0,0,0,1.27-1.86l-1.2-1.28L131,150.53S130.88,152.57,131.58,152.52Z"/><path class="cls-3" d="M125.55,172.21l-.25,1.44c.09.69.59.77,1.08,1l1.63-2s-.43-2-.44-2S125.81,171.32,125.55,172.21Z"/><path class="cls-3" d="M107,179.06l.94.41c.61-.06,1.07-.64,1.66-1.2l-.33-2.1-1.9.38S106.47,178.68,107,179.06Z"/><path class="cls-3" d="M111.8,172.13l.53,1c.47.29,1-.08,1.67-.34l.57-2.42s-1.52-.71-1.53-.7S111.57,171.44,111.8,172.13Z"/><path class="cls-3" d="M110.62,171.42l-1.12,1a4,4,0,0,0-.53,2.09l1.83.06,1.36-2.19S111.34,170.93,110.62,171.42Z"/><path class="cls-3" d="M117.55,166.57l.66-1.42c.13-.78-.23-1.1-.54-1.61l-1.94,1.39s-.27,2.31-.26,2.32S117.06,167.41,117.55,166.57Z"/><path class="cls-3" d="M112,177.73l0,1.37c.2.6.74.56,1.3.69l1.4-2.23s-.76-1.69-.77-1.69S112.14,176.85,112,177.73Z"/><path class="cls-3" d="M122.42,154.67l.17-1.42c-.14-.65-.65-.69-1.18-.89l-1.54,2.11s.57,1.86.58,1.86S122.21,155.56,122.42,154.67Z"/><path class="cls-3" d="M146,159.29l1.12-1a3.89,3.89,0,0,0,.52-2.09l-1.83-.06-1.36,2.19S145.27,159.78,146,159.29Z"/><path class="cls-3" d="M131.9,188.05l-.46,1.46c0,.73.43.93.85,1.32l1.8-1.76s-.1-2.16-.11-2.16S132.27,187.16,131.9,188.05Z"/><path class="cls-3" d="M143,182.35l.95-1.24a2.94,2.94,0,0,0,.05-2l-2,.63s-.91,2.36-.9,2.36S142.38,183,143,182.35Z"/><path class="cls-3" d="M138.63,177.59l-1.16.23a4.48,4.48,0,0,0-1.32,1.82l1.14,1.35s1.89-1.33,1.9-1.35S139.32,177.57,138.63,177.59Z"/><path class="cls-3" d="M126.8,184.79l-1,1.11a3.43,3.43,0,0,0-.29,2l1.93-.3s1.14-2.29,1.14-2.3S127.48,184.19,126.8,184.79Z"/><path class="cls-3" d="M147.54,174.36l1-1.19a3.15,3.15,0,0,0,.12-2l-2,.53-1,2.34S146.88,175,147.54,174.36Z"/><path class="cls-3" d="M127.27,152.91v1.36c.22.59.76.52,1.33.62l1.36-2.26s-.82-1.63-.83-1.63S127.38,152,127.27,152.91Z"/><path class="cls-3" d="M126.88,147.62V149c.22.58.76.52,1.33.62l1.36-2.26s-.82-1.64-.83-1.64S127,146.74,126.88,147.62Z"/><path class="cls-3" d="M148.1,141.56l1.06-1.09a3.54,3.54,0,0,0,.32-2.06l-1.91.24-1.18,2.29S147.4,142.14,148.1,141.56Z"/><path class="cls-3" d="M110.3,182.81l-.2,1.43c.12.66.62.72,1.13.95l1.59-2.08s-.51-1.9-.52-1.9S110.53,181.91,110.3,182.81Z"/><path class="cls-3" d="M129,188.63l1.14-.12c.64-.34.94-1,1.39-1.75l-1-1.5-1.92,1.21S128.3,188.58,129,188.63Z"/><path class="cls-3" d="M149.83,143.78l.34-1.45c0-.71-.52-.84-1-1.15l-1.71,1.91s.3,2.06.31,2.06S149.53,144.68,149.83,143.78Z"/><path class="cls-3" d="M121.25,157.36l-1.14.91a4.1,4.1,0,0,0-.61,2.09l1.8.17s1.43-2.13,1.42-2.14S122,156.9,121.25,157.36Z"/><path class="cls-3" d="M113.44,197.69l.18,1.26c.32.5.88.33,1.49.3l1.12-2.37s-1.09-1.35-1.1-1.35S113.44,196.86,113.44,197.69Z"/><path class="cls-3" d="M150.69,166.42l.93-1.26a2.87,2.87,0,0,0,0-1.94l-2,.71s-.86,2.36-.85,2.37S150.06,167.13,150.69,166.42Z"/><path class="cls-3" d="M137.76,140.58l-.79-.67c-.57-.08-1.07.42-1.71.87l0,2.29s1.78.08,1.79.07S138.16,141.1,137.76,140.58Z"/><path class="cls-3" d="M119,170.43l-.42,1.45c0,.73.45.91.88,1.28l1.78-1.8s-.16-2.14-.17-2.14S119.3,169.53,119,170.43Z"/><path class="cls-3" d="M132.1,180.13l1.08.07c.64-.24,1-.89,1.51-1.57l-.78-1.74-1.94.92S131.47,180,132.1,180.13Z"/><path class="cls-3" d="M140.68,149.77l-.07-1.33c-.26-.54-.81-.44-1.4-.48L138,150.27s.93,1.52.94,1.52S140.63,150.63,140.68,149.77Z"/><path class="cls-3" d="M117.59,176l-.71,1.4c-.17.78.18,1.13.46,1.67l2-1.29s.36-2.34.35-2.34S118.1,175.16,117.59,176Z"/><path class="cls-3" d="M132.52,185l1.12,0c.64-.3,1-1,1.44-1.68l-.93-1.59-1.93,1.1S131.87,185,132.52,185Z"/><path class="cls-3" d="M137.73,154.6l-.11-1.31c-.29-.52-.84-.39-1.44-.41L135,155.22s1,1.45,1,1.45S137.7,155.45,137.73,154.6Z"/></g></g></g></svg>