<svg id="b851909c-f2fb-4862-9306-1303e0e3c6ca" data-name="Layer 1" xmlns="http://www.w3.org/2000/svg" viewBox="0 0 252 252"><path d="M193.83,47.6a21,21,0,0,1,.71,5.17,18.52,18.52,0,0,1-.76,4.23,35.17,35.17,0,0,0-1.31,8.46,27.81,27.81,0,0,1,10.26-9.86c.31-.16,1.6-.89,1.6-.89s-.21,1.49-.21,1.94c-.28,3.07-.55,6.16-.83,9.21s-.66,6.34-2.76,8.58l5.07-2.22c3.22-1.42,5.16-1.24,10.31-2.69.21-.06.68-.14.68-.14s-.05.52-.05.73a18.5,18.5,0,0,1-2.64,9.36,8.15,8.15,0,0,1-1.39,2,4.32,4.32,0,0,1,.62,0c2,0,4,1.38,5.78,2.29,3,1.48,6.22,2.61,7.55,5.71a4.46,4.46,0,0,1-1.67.32c-2.11,0-4.21-1.38-6-2.72s-3.93-2.71-6-2.71a4.53,4.53,0,0,0-1.61.29c-2.16.86-3.16,3.31-3.94,5.51a21.1,21.1,0,0,0-1.56,6.82c0,3,1.24,5.79,2.57,8.45,2.35,4.6,5.79,8.8,8.35,13.27a44.76,44.76,0,0,1,3.52,36c-.66,1.94-1.45,3.84-2.24,5.74l-3.32,8a63.17,63.17,0,0,1-5,10.26,40.87,40.87,0,0,1-9.54,9.92c-4.16,3.15-6.94,6.2-11.64,8.42a77.66,77.66,0,0,1-14.79,4.8,78,78,0,0,1-15.49,2.55h-1.19a90.9,90.9,0,0,1-12.87-.92,85.11,85.11,0,0,1-8.85-1.34A55.36,55.36,0,0,1,125.7,199l-2.55.94c-8.78,3.12-18.34,4-27.88,4-2.93,0-5.85-.09-8.75-.21-5.89-.26-11.89-.56-17.42-2.56a50.22,50.22,0,0,1-8.75-4.5c-10.93-6.72-21.5-15-27.38-26.37-3.41-6.63-5.08-14-6.19-21.38-1.29-8.67-1.85-17.51-.21-26.16s5.65-17,12.31-22.65c4.29-3.71,9.92-6.56,12-11.88a20.24,20.24,0,0,0,.93-8.07c-.06-1.84.27-4.5-.63-6.1-2.85-5-10.82-3.27-13.77-8.27a17.25,17.25,0,0,1-1-2.71,21.7,21.7,0,0,1,5,1.32A18.36,18.36,0,0,1,45,66.75a35.24,35.24,0,0,0,7.28,4.45A27.68,27.68,0,0,1,47.19,58c0-.35-.21-1.82-.21-1.82s1.3.73,1.7.94l8.14,4.28c2.69,1.42,5.57,3,6.81,5.81,0-2-.1-3.5-.1-5.5-.06-3.49.84-5.21,1.47-10.49a3.26,3.26,0,0,1,.12-.66s.46.24.65.32a18.7,18.7,0,0,1,7.58,6,8,8,0,0,1,1.29,2c.5-2.11,2.85-3.55,4.5-5,2.52-2.21,4.77-4.74,8.13-4.74,0,2.78-2.73,4.69-5.13,6.1S77,58.57,77,61.35c0,2.32,1.82,4.17,3.59,5.72a20.59,20.59,0,0,0,5.65,4.05,14.86,14.86,0,0,0,5.77,1c1,0,2,0,3-.12,5.11-.37,10.28-2,15.37-2.59a46.25,46.25,0,0,1,4.84-.31,70.79,70.79,0,0,1,19.4-7.56,46.28,46.28,0,0,1,9.47-1,35.9,35.9,0,0,1,16.33,3.68c5.06,2.56,9.81,6.6,15.45,6.6h.25a20.23,20.23,0,0,0,7.85-2.26c1.69-.76,4.28-1.48,5.42-2.94,3.59-4.61-1.13-11.33,2.36-16a19,19,0,0,1,2.11-2m0-8a8,8,0,0,0-5,1.78,25.62,25.62,0,0,0-3,2.87c-.17.18-.32.37-.47.56-3.61,4.83-3.06,10.1-2.69,13.59.06.59.14,1.36.17,2l-.5.2c-.53.21-1.07.42-1.63.67l-.43.21a12.29,12.29,0,0,1-4.5,1.35c-1.93-.06-4.52-1.6-7.26-3.22-1.41-.84-2.88-1.71-4.46-2.52a43.6,43.6,0,0,0-19.95-4.54A54.11,54.11,0,0,0,133,53.69a76.21,76.21,0,0,0-19.89,7.45c-1.24.06-2.47.16-3.67.31-2.57.32-5,.82-7.34,1.3A63,63,0,0,1,94.4,64c-.67,0-1.57.1-2.39.1a8.17,8.17,0,0,1-2.52-.3,12.5,12.5,0,0,1-2.79-1.95c2.6-1.56,8.49-5.49,8.57-12.6a8,8,0,0,0-8-8.09c-6,0-9.88,3.53-12.46,5.88A27.2,27.2,0,0,0,69,43.59l-.21-.1a7.94,7.94,0,0,0-3.7-.91,8.09,8.09,0,0,0-3.16.65,8,8,0,0,0-4.53,5.15A11.25,11.25,0,0,0,57,50.5c-.08.68-.17,1.29-.26,1.85L52.4,50.06c-.36-.19-1.49-.83-1.5-.84a8,8,0,0,0-3.92-1,8,8,0,0,0-8,7.24c-.5-.1-1-.18-1.51-.25a8.14,8.14,0,0,0-1.1-.08A8,8,0,0,0,28.7,65.25a26.35,26.35,0,0,0,1.46,4c.11.24.23.46.36.69,3.06,5.19,8.13,6.7,11.49,7.7.54.16,1.25.37,1.81.57,0,.17,0,.34,0,.48,0,.58,0,1.18,0,1.81l0,.43a12.32,12.32,0,0,1-.48,4.64c-.78,1.72-3.15,3.5-5.65,5.37-1.33,1-2.71,2-4.06,3.2-7.51,6.42-12.83,16.09-14.94,27.21-1.58,8.33-1.53,17.49.16,28.83,1,6.77,2.73,15.59,7,23.86,7.35,14.27,20.76,23.65,30.23,29.48a58.59,58.59,0,0,0,10.06,5.16,1.57,1.57,0,0,0,.23.09c6.79,2.46,13.69,2.76,19.79,3,3.36.15,6.33.22,9.1.22,12.19,0,21.83-1.4,30.33-4.38a61.66,61.66,0,0,0,7.83,2.32l.13,0a92.27,92.27,0,0,0,9.5,1.44,98.52,98.52,0,0,0,13.83,1h1.29l.4,0a86.16,86.16,0,0,0,16.88-2.75,86.67,86.67,0,0,0,16.11-5.25l.21-.1a43.93,43.93,0,0,0,9.86-6.7c1.06-.88,2.06-1.72,3.15-2.54a48.82,48.82,0,0,0,11.37-11.84c.08-.11.15-.23.22-.35A70.8,70.8,0,0,0,222,171.36l3.28-7.89c.82-2,1.68-4,2.42-6.23l0-.07a52.89,52.89,0,0,0-4.15-42.44l0,0c-1.27-2.22-2.67-4.29-4-6.29a65.6,65.6,0,0,1-4.13-6.61,14.51,14.51,0,0,1-1.71-4.64,13.31,13.31,0,0,1,.74-3.42c2.63,1.94,6.13,4,10.39,4a12.56,12.56,0,0,0,4.62-.88,8,8,0,0,0,4.4-10.59c-2.34-5.46-7.08-7.72-10.25-9.21a26.77,26.77,0,0,0,1-6.74c0-.08,0-.16,0-.18a8,8,0,0,0-8-8.76,8.55,8.55,0,0,0-1.34.11c-.6.11-1.12.22-1.54.34-.76.21-1.44.39-2.07.53l.06-.73.39-4.26,0-.45c0-.24.08-.76.13-1.1a8,8,0,0,0-10.33-8.75q-.15-.77-.36-1.53a8,8,0,0,0-7.73-5.95Z" style="fill:#fff"/></svg>