<svg id="Layer_46" data-name="Layer 46" xmlns="http://www.w3.org/2000/svg" viewBox="0 0 252 252"><defs><style>.cls-1{fill:#778718;}.cls-2{fill:#688419;}.cls-3{fill:#f5f7b2;}.cls-4,.cls-8{fill:#fff;}.cls-4{opacity:0.49;}.cls-5{fill:#872823;}.cls-6{fill:#660c11;}.cls-7{fill:#ffffa7;opacity:0.18;}.cls-8{opacity:0.35;}</style></defs><path class="cls-1" d="M168,211.76c22-24.38,7.49-47.87,7.49-47.87-6.72-11.08-18.71-16.55-18.71-16.55-.6-.6-1.21-1.14-1.83-1.66-.36-.31-.72-.62-1.09-.92-19.71-15.71-46.24-1.43-46.24-1.43C74.94,166.05,77.27,195.55,77,203.87a26.57,26.57,0,0,0,1.86,8.42C112,242.48,153,221.38,168,211.76Z"/><path class="cls-2" d="M78.88,212.29a47,47,0,0,0,4.62,9.36,41.6,41.6,0,0,0,6.66,8c10.35,9.56,27.67,14.63,54.91-.45,10.23-5.66,17.62-11.58,22.91-17.46C153,221.38,112,242.48,78.88,212.29Z"/><path class="cls-3" d="M168.3,162.55c-5.54-9.51-16-13.89-16-13.89-.51-.5-1-.95-1.55-1.39-.31-.26-.62-.52-.94-.77-16.86-13.11-40.86.43-40.86.43C79.27,168.13,80.26,194,79.74,201.35c-.19,2.56,1.18,9.14,5.07,15.42a32.1,32.1,0,0,0,5.61,6.82c8.8,8,23.94,11.87,48.59-2.4C186.7,193.58,168.3,162.55,168.3,162.55Z"/><circle class="cls-4" cx="150.96" cy="161.37" r="2.28"/><circle class="cls-4" cx="130.5" cy="171.4" r="2.28"/><circle class="cls-4" cx="112.11" cy="213.57" r="2.28"/><circle class="cls-4" cx="94.33" cy="179.23" r="2.28"/><circle class="cls-4" cx="100.22" cy="208.69" r="2.28"/><circle class="cls-4" cx="116.35" cy="180.65" r="1.77"/><circle class="cls-4" cx="107.98" cy="167.06" r="1.77"/><circle class="cls-4" cx="123.08" cy="164.99" r="1.77"/><circle class="cls-4" cx="119.13" cy="152.82" r="1.77"/><circle class="cls-4" cx="90.69" cy="195.3" r="1.77"/><circle class="cls-4" cx="112.89" cy="196.26" r="1.02"/><circle class="cls-4" cx="99.32" cy="187.75" r="1.02"/><circle class="cls-4" cx="113.69" cy="189.04" r="1.02"/><circle class="cls-4" cx="99.12" cy="216.26" r="1.02"/><circle class="cls-4" cx="108.73" cy="221.12" r="1.02"/><circle class="cls-4" cx="92.58" cy="210.82" r="1.02"/><circle class="cls-4" cx="104.08" cy="173.93" r="1.02"/><circle class="cls-4" cx="137.21" cy="156.17" r="1.02"/><path class="cls-5" d="M134.49,190c2.89-6,3.6-16.57,1.29-19.32-1.12-1.34-16.15-2.4-23.46,7.25-4.06,5.37-6.52,12.63-4.17,20A2.65,2.65,0,0,0,110,199.9C120,203.29,130.54,198.24,134.49,190Z"/><path class="cls-6" d="M134.49,190c3.48-6.84,6.07-15.62,1.29-19.32a3.24,3.24,0,0,0-1.24-.52,4.24,4.24,0,0,1,1.58,2.49c.44,4.43-1.61,11-3.66,15.25-3.53,7.35-12.64,12.85-21.59,11.38a4.33,4.33,0,0,1-2.77-1.46s0,.1.05.15A2.65,2.65,0,0,0,110,199.9,20.34,20.34,0,0,0,134.49,190Z"/><path class="cls-7" d="M127.41,177.11c.64-2.82-1.27-5-4.14-4.5a20.1,20.1,0,0,0-11.1,7.06,19.57,19.57,0,0,0-4.26,11.78c-.12,3.26,2.26,4.91,5.26,4.2C119.37,194.19,126.93,179.26,127.41,177.11Z"/><path class="cls-8" d="M110.92,190.58a3.34,3.34,0,0,0,1-.93,7,7,0,0,0,.76-2.1,8,8,0,0,1,.54-1.76c.31-.59.7-.9.59-1.66a1.22,1.22,0,0,0-1.13-1.08c-1.42,0-2,1.64-2.22,2.83a11.9,11.9,0,0,0-.22,2.61,14.34,14.34,0,0,1,.08,1.72.41.41,0,0,0,.62.37Z"/><path class="cls-8" d="M114.91,182.57a2.66,2.66,0,0,0,1.11-.63.89.89,0,0,0,0-1.16.91.91,0,0,0-1.14-.29,1.94,1.94,0,0,0-.83,1.11.73.73,0,0,0,.85,1Z"/></svg>