<svg xmlns="http://www.w3.org/2000/svg" viewBox="0 0 252 252"><g id="be6dbd04-980e-4cce-bb8a-40bf743fa147" data-name="Layer 25"><path d="M160.74,95.17c8.78,21.9,2,54.18-9.38,74.36-4.92,8.76-10.73,15.24-16.53,17.64s-13,.57-13,.57-3.74,6.35-9.68,8.81C93,204.48,42.92,180.5,30.34,149.11c-5.43-13.54-8.14-31.38-1.47-45.86,6.4-13.89,18.73-20.78,29.3-24.19a69.45,69.45,0,0,1,18.75-3.35s25.55-25,53.34-14.4C145,66.94,155.31,81.62,160.74,95.17Z" style="fill:#ce120d"/><path d="M160.74,95.17c8.78,21.9,2,54.18-9.38,74.36-27.71,10.39-61.71-.63-81.4-28.34C56.24,121.86,52.59,98.8,58.17,79.06a69.45,69.45,0,0,1,18.75-3.35s25.55-25,53.34-14.4C145,66.94,155.31,81.62,160.74,95.17Z" style="fill:#dd1c12"/><path d="M121.65,76.29C109.31,79.1,121.08,96.74,134,91S136.53,72.91,121.65,76.29Z" style="fill:#fc3732"/><path d="M104.82,71.35c-6.88,1.33-.27,9.62,6.92,6.9S113.12,69.74,104.82,71.35Z" style="fill:#fc3732"/><path d="M161.18,105.2l-1-1.83c11.59-3.22,17.91-23.48,20.51-55.83l3.8,5.17C180.52,84.06,173.13,101.89,161.18,105.2Z" style="fill:#562d0b"/><path d="M225.91,142.21c1.78-9.09,1.71-18.67-1.67-27.33-10.94-28-46.76-30.56-46.76-30.56S153.3,57.76,124.55,66.5c-15.24,4.63-26.63,18.57-33,31.69C81.33,119.27,85.94,151.54,96,172.4,172.3,203.76,212.36,161.53,225.91,142.21Z" style="fill:#e83d3d"/><path d="M225.91,142.21C212.36,161.53,172.3,203.76,96,172.4c4.45,9.24,10,16.24,15.75,19s13.08,1.42,13.08,1.42,3.38,6.56,9.21,9.4c18.85,9.14,71-11.44,85.73-41.85A75.33,75.33,0,0,0,225.91,142.21Z" style="fill:#e83d3d"/><path d="M204.64,153.09c-9,18.63-31.88,33.85-50.89,40.33-10.37,3.53-19.58,4.47-24.8,1.94-4-1.94-6.41-7-6.42-7.09l-1.29-2.82-3,.73s-5.53,1.28-9.52-.67C93.92,178.35,81.06,128.66,95,99.86c7.25-15,18.25-26.26,29.41-30.25,8.94-3.19,18.28-2.48,27.73,2.1a52.65,52.65,0,0,1,5.49,3.12,56.55,56.55,0,0,1,11,9.32l1.06,1.23,1.63.07a56.48,56.48,0,0,1,20,5.31c9.46,4.59,15.79,11.48,18.81,20.49C214,122.48,211.89,138.12,204.64,153.09Z" style="fill:#f4ec8c"/><path d="M204.64,153.09c-9,18.63-31.88,33.85-50.89,40.33-28.88-17.07-39.73-55.17-24.11-87.79a71.42,71.42,0,0,1,28-30.8,56.55,56.55,0,0,1,11,9.32l1.06,1.23,1.63.07a56.48,56.48,0,0,1,20,5.31c9.46,4.59,15.79,11.48,18.81,20.49C214,122.48,211.89,138.12,204.64,153.09Z" style="fill:#fcf7a2"/><path d="M169.3,86.63s-2.41,6.43-6.47,15.87c-1,2.36-2.11,4.92-3.32,7.6s-2.45,5.53-3.81,8.44-2.7,5.94-4.16,9l-4.4,9.22-4.51,9.16c-1.47,3-3,6-4.47,8.83-2.92,5.71-5.71,11-8.18,15.52-4.89,9-8.46,14.92-8.46,14.92s2.41-6.44,6.47-15.88c2-4.73,4.45-10.21,7.13-16,1.35-2.91,2.7-5.94,4.17-9l4.39-9.22c1.52-3.07,3-6.14,4.52-9.16s3-6,4.46-8.83,2.91-5.6,4.27-8.21,2.69-5,3.92-7.31C165.74,92.5,169.3,86.63,169.3,86.63Z" style="fill:#f9de6b"/><path d="M157.36,141.26c-3.59,7.41-14.37,14.64-18.28,7.7l13-26.83C160.07,123.86,161,133.86,157.36,141.26Z" style="fill:#e2c754;opacity:0.6000000000000001"/><path d="M133.8,129.83c-3.6,7.4-2.59,20.35,5.28,19.13l13-26.83C145.79,116.93,137.39,122.42,133.8,129.83Z" style="fill:#e2c754;opacity:0.6000000000000001"/><path d="M152.4,139.84c.64-3.14-.74-6-1.11-6.1s-2.78,2.12-3.41,5.26C147,143.5,151.49,144.34,152.4,139.84Z" style="fill:#322f20"/><path d="M138.55,133.12c2.07-2.44,5.19-3.16,5.48-2.91s.05,3.5-2,5.94C139,139.65,135.58,136.62,138.55,133.12Z" style="fill:#322f20"/></g></svg>