<svg xmlns="http://www.w3.org/2000/svg" xmlns:xlink="http://www.w3.org/1999/xlink" viewBox="0 0 252 252"><defs><style>.cls-1,.cls-2{fill:none;}.cls-2{stroke:#758a00;stroke-linecap:round;stroke-miterlimit:10;stroke-width:0.38px;}.cls-3{isolation:isolate;}.cls-4{fill:#8d931c;}.cls-5{fill:#fcfade;}.cls-6{fill:#d7e085;}.cls-7{fill:#7c703e;}.cls-8{fill:#70582d;}.cls-9{fill:#d9e32e;}.cls-10{fill:url(#Degradado_sin_nombre_9);}.cls-11{fill:#e7f97d;opacity:0.23;}.cls-12{fill:url(#Degradado_sin_nombre_9-2);}.cls-13{fill:#51601b;opacity:0.11;}.cls-14{opacity:0.7;}.cls-15{fill:#fff;}.cls-16{opacity:0.5;fill:url(#Motivo_nuevo_2);}.cls-17{fill:#51310a;}.cls-18{mix-blend-mode:soft-light;}.cls-19{fill:#5a7230;opacity:0.14;}</style><linearGradient id="Degradado_sin_nombre_9" x1="207.22" y1="75.5" x2="164.53" y2="228.82" gradientTransform="matrix(-1, 0.01, 0.01, 1, 305.28, 24.67)" gradientUnits="userSpaceOnUse"><stop offset="0" stop-color="#ceda00"/><stop offset="1" stop-color="#7e9400"/></linearGradient><linearGradient id="Degradado_sin_nombre_9-2" x1="186.04" y1="157.06" x2="183.45" y2="121.91" xlink:href="#Degradado_sin_nombre_9"/><pattern id="Motivo_nuevo_2" data-name="Motivo nuevo 2" width="10" height="10" patternTransform="matrix(-0.95, 0.01, 0.01, 0.95, 15.04, -76.56)" patternUnits="userSpaceOnUse" viewBox="0 0 10 10"><rect class="cls-1" width="10" height="10"/><path class="cls-2" d="M1.82,10.11l.08.17"/><path class="cls-2" d="M3.5,10.15l0,0"/><path class="cls-2" d="M10.14,4.55l0-.09"/><path class="cls-2" d="M2.94,4.36l.58.21"/><path class="cls-2" d="M6.69,1.39l0,.29"/><path class="cls-2" d="M8.72,4.49l0,.08"/><path class="cls-2" d="M6.41,8,6.25,8"/><path class="cls-2" d="M2.53,8.66l-.13,0"/><path class="cls-2" d="M1.36,6.48l-.09-.12"/><path class="cls-2" d="M.87,1.47.79,1.31"/><path class="cls-2" d="M3.56,1.8l.08-.12"/><path class="cls-2" d="M8.43,2.09H8.6"/><path class="cls-2" d="M8.52,7.71l.08.08"/><path class="cls-2" d="M8.31,9.49l0,.25"/><path class="cls-2" d="M5.09,6.76l.08,0"/><path class="cls-2" d="M5.87,4.74l.09,0"/><path class="cls-2" d="M1.2,3.83H1"/><path class="cls-2" d="M.5,8.78.3,9"/><path class="cls-2" d="M4.39,9.61v.33"/><path class="cls-2" d="M1.82.11,1.9.28"/><path class="cls-2" d="M5,3l-.09.17"/><path class="cls-2" d="M3.31,6.64l.08,0"/><path class="cls-2" d="M7,6,7,6.06"/><path class="cls-2" d="M7.15,3.7l.13.13"/><path class="cls-2" d="M9.13.71v0"/><path class="cls-2" d="M9.56,2.63v0"/><path class="cls-2" d="M7.56,5.35s0,0,0,0"/><path class="cls-2" d="M7.39.79h0"/><path class="cls-2" d="M9.18,6.34h.08"/><path class="cls-2" d="M9.6,8h.17"/><path class="cls-2" d="M5.81,9.62l0,0"/><path class="cls-2" d="M4.31,8.34h.13"/><path class="cls-2" d="M2,7.53l0,0"/><path class="cls-2" d="M.44,5.92l.08,0"/><path class="cls-2" d="M.14,4.55l0-.09"/><path class="cls-2" d="M2,5.31H2"/><path class="cls-2" d="M2,3h.08"/><path class="cls-2" d="M2.44,1.26l0-.13"/><path class="cls-2" d="M3.5.15l0,0"/><path class="cls-2" d="M5,1.69l0-.13"/><path class="cls-2" d="M3.68,3.14l0,0"/><path class="cls-2" d="M4.4,5.19h.13"/><path class="cls-2" d="M6.23,2.76l-.08-.09"/><path class="cls-2" d="M5.67.92s-.07,0,0,0"/><path class="cls-2" d="M7.39,7.74l.08,0"/><path class="cls-2" d="M7.34,9.28l.09.09"/><path class="cls-2" d="M4.39-.39v.33"/></pattern></defs><g class="cls-3"><g id="Layer_22" data-name="Layer 22"><path class="cls-4" d="M169.67,175.38c-4.89-11.47-13.65-21.56-19.12-33.16-.26-.61-.53-1.21-.8-1.78l-.15-.33c-9.81-22.92-26-19-26-19S107.38,117.48,98,140.57C90,160.05,72,175.18,75.73,198.15A46.7,46.7,0,0,0,79.89,211a66.86,66.86,0,0,0,13.29,19.59,28.73,28.73,0,0,0,21.06,8.81l23-.2a28.74,28.74,0,0,0,20.9-9.18c6.41-6.95,14-17.57,15.84-30.31C175.27,190.57,173.18,182.73,169.67,175.38Z"/><path class="cls-5" d="M166.88,175.68c-4.58-10.76-12.8-20.23-17.93-31.11-.25-.57-.5-1.13-.75-1.67,0-.1-.1-.2-.14-.3-5.75-13.44-13.83-17-19.08-17.84-4.6,1.44-5.13,16.76-4.92,27.65.22,3.23.39,6.84.47,10.88,0,0-.35-4.73-.47-10.88-1.6-22.72-6.33-26.49-9.19-26.58C110,127.7,104,132.27,99.64,143c-7.44,18.28-24.37,32.46-20.86,54a44,44,0,0,0,3.9,12.05,62.73,62.73,0,0,0,12.47,18.37,27,27,0,0,0,19.75,8.26h0s9.31-1.08,11-16.55c0,0-1.82,15.11,7.56,16.38l2.95,0h0a27,27,0,0,0,19.6-8.61c6-6.52,13.12-16.48,14.85-28.42C172.13,189.92,170.17,182.57,166.88,175.68Z"/><path class="cls-6" d="M129.78,183.84a69.35,69.35,0,0,1-5.51-9.79l-.73-29-.46,0,.73,29.06a70.54,70.54,0,0,1-4.6,10.36c-1.95,3.57-5.79,7.16-6.47,11-2.33,13,7.91,12.73,12,12.72h-.27L125,232l.55,0L125,208.22h.19c4,0,15.66-.46,12.46-12.67C136.52,191.32,132.28,187.53,129.78,183.84Z"/><path class="cls-7" d="M126.6,190.89s5.33,4.5,6.19,6.28a3.36,3.36,0,0,1-1.54,3.74,3.47,3.47,0,0,1-3.82-.61C126.17,199.23,126.6,190.89,126.6,190.89Z"/><path class="cls-7" d="M122.93,190.93s-4.92,4.94-5.63,6.78a3.33,3.33,0,0,0,1.85,3.59,3.46,3.46,0,0,0,3.76-.93C124.08,199.2,122.93,190.93,122.93,190.93Z"/><path class="cls-8" d="M124.56,229.61s-.49,4.77-2.27,6.88c-.31.38,1.14,1.23,3,1.11,1.6-.11,3.25-.77,2.95-1a15.08,15.08,0,0,1-2.59-7,1.25,1.25,0,0,0-.59-.07A1.35,1.35,0,0,0,124.56,229.61Z"/></g><g id="Layer_21" data-name="Layer 21"><path class="cls-9" d="M136.12,236.78A28.74,28.74,0,0,0,157,227.6c6.41-6.95,14-17.57,15.84-30.3,3.33-23-15-37.85-23.26-57.19-9.81-22.92-26-19-26-19S107.38,117.48,98,140.57C90,160.05,72,175.18,75.73,198.15c2.07,12.7,9.83,23.18,16.36,30A28.73,28.73,0,0,0,113.15,237Z"/><path class="cls-10" d="M137.21,239.19a28.74,28.74,0,0,0,20.9-9.18c6.41-6.95,14-17.57,15.84-30.31,3.33-23-15-37.84-23.26-57.18-9.81-22.92-26-19-26-19S108.47,119.88,99.07,143c-7.94,19.49-26,34.61-22.25,57.59,2.07,12.7,9.83,23.18,16.36,30a28.73,28.73,0,0,0,21.06,8.81Z"/><path class="cls-9" d="M131.07,128.16c-2.26,1.79-5.45,1.9-8.28,1.35s-5.55-1.66-8.42-2-6.08.2-8,2.4c2.59-3.92,7-6.33,11.67-7.23a36.46,36.46,0,0,1,14,.52c2.5.49,5.14,1.21,6.81,3.12l-2.38,0A8,8,0,0,0,131.07,128.16Z"/><path class="cls-11" d="M138.42,130.63a5.26,5.26,0,0,1,2.14,1.34,12.79,12.79,0,0,1,2.47,4.47c3.63,9.33,6.6,19,9.91,28.47.9,2.57,1.77,5.53.42,7.89-1.59,2.78-7.35,4.45-9.87,2.09-2.36-2.22-2.18-7.75-2.93-10.7l-6.45-25.37a13,13,0,0,1-.59-4.49,4.39,4.39,0,0,1,2.37-3.64A3.67,3.67,0,0,1,138.42,130.63Z"/><path class="cls-12" d="M118.73,126c-.2-.09-.39-.19-.58-.29a27.1,27.1,0,0,1,3.34-.57c1-.07,2.07-.43,3.11-.44a21,21,0,0,1,6,.6A13.33,13.33,0,0,1,118.73,126Z"/><path class="cls-13" d="M97.3,230.56c5.89,1.22,11.93-.34,17.3-2.73,3.44-1.54,6.79-3.36,10.44-4.38A27.06,27.06,0,0,1,137,223c6.27,1.09,12.29,3.2,18.74,2.34a18.46,18.46,0,0,0,6.31-2c-1.6,2.12-3.24,4.06-4.8,5.76a28.39,28.39,0,0,1-20.63,9l-22.66.2a28.34,28.34,0,0,1-20.78-8.69L92,228.47A16.33,16.33,0,0,0,97.3,230.56Z"/><g class="cls-14"><path class="cls-15" d="M129,126.52a15.41,15.41,0,0,1-8.67,0,1,1,0,0,0-.5,1.83,17.32,17.32,0,0,0,9.68,0,1,1,0,0,0-.51-1.83Z"/><path class="cls-15" d="M114.13,123.41a15.92,15.92,0,0,0-5.37,2.83.95.95,0,0,0,1.34,1.34l.21-.18.11-.09c-.06,0-.1.08,0,0s.35-.25.54-.37a12.63,12.63,0,0,1,1.19-.68l.62-.3.32-.14.16-.07h0c.45-.19.91-.36,1.37-.53a.94.94,0,0,0-.5-1.82Z"/><path class="cls-15" d="M99.5,142a127.8,127.8,0,0,1-9.25,17.75c-2.86,4.69-5.88,9.3-8.28,14.25a49.08,49.08,0,0,0-3.2,8.35.94.94,0,0,0,1.82.5,60.05,60.05,0,0,1,6.6-14.47c3-5.08,6.26-10,9.07-15.22a110.54,110.54,0,0,0,5.07-10.66,1,1,0,0,0-.66-1.16,1,1,0,0,0-1.17.66Z"/></g><path class="cls-16" d="M98,140.57c9.4-23.09,25.64-19.44,25.64-19.44s16.17-3.94,26,19l.15.33c.27.57.54,1.17.8,1.78,5.47,11.6,14.23,21.69,19.12,33.16,3.51,7.35,5.6,15.19,4.28,24.32-1.85,12.74-9.43,23.36-15.84,30.31a28.74,28.74,0,0,1-20.9,9.18l-23,.2a28.73,28.73,0,0,1-21.06-8.81A66.86,66.86,0,0,1,79.89,211a46.7,46.7,0,0,1-4.16-12.84C72,175.18,90,160.05,98,140.57Z"/><path class="cls-17" d="M118.81,115.45c-.2-.33-.4-.65-.59-1-2-3.45-4.5-7-4.9-11.09-.62-1.07-2.48-.44-2.84.75a4.87,4.87,0,0,0,.81,3.54l5.89,11.19c1.2,2.3,3.09,6.1,4.08,7.9a12.14,12.14,0,0,0,5.93-.12C124.5,123,121.22,119.28,118.81,115.45Z"/><g class="cls-18"><path class="cls-15" d="M122.31,123.4l-1.39-2.24a1,1,0,0,0-.58-.45,1,1,0,0,0-.75.1.94.94,0,0,0-.45.58,1,1,0,0,0,.1.75l1.38,2.24a1,1,0,0,0,.59.45.94.94,0,0,0,.75-.1,1,1,0,0,0,.45-.58,1,1,0,0,0-.1-.75Z"/><path class="cls-15" d="M118.7,120.12a1,1,0,0,0,0-2,1,1,0,0,0,0,2Z"/><path class="cls-15" d="M111.75,105.67h.09a.73.73,0,0,0,.38-.08.79.79,0,0,0,.31-.2.67.67,0,0,0,.2-.32.78.78,0,0,0,.09-.37l0-.26a1,1,0,0,0-.25-.43l-.2-.15a.93.93,0,0,0-.49-.14h-.09a.78.78,0,0,0-.37.09.72.72,0,0,0-.32.2.79.79,0,0,0-.2.31.71.71,0,0,0-.08.38l0,.26a1,1,0,0,0,.25.43l.2.15a1,1,0,0,0,.49.13Z"/></g><path class="cls-19" d="M98.21,225.31c3.41-2.39,3.67-7.25,3.63-11.42-.08-7.42.17-15.45,4.74-21.29,4.71-6,9.68-12.23,20-11.9,7.62.25,15.87,1.14,22.36-2.87a23.17,23.17,0,0,0,10.48-15.54,22.29,22.29,0,0,0,.26-2.29c7.72,11.95,15.42,23.68,13.17,39.18-1.82,12.57-9.3,23-15.62,29.91a28.39,28.39,0,0,1-20.63,9l-22.66.2a28.34,28.34,0,0,1-20.78-8.69c-1.06-1.11-2.15-2.32-3.24-3.62C92.74,226.82,95.85,227,98.21,225.31Z"/></g></g></svg>