<svg id="a1c80f83-7c8d-4112-be89-8106b1d3d08e" data-name="Layer 1" xmlns="http://www.w3.org/2000/svg" viewBox="0 0 252 252"><path d="M193.16,44.46,196.29,50c-4.4,17-9.35,29.52-15.07,37.42a2.49,2.49,0,0,0,.37-.09l5.1-1.52a6.63,6.63,0,0,1,1.56-.18A10.85,10.85,0,0,1,194.61,88c33,25.81,30.86,56.66,11,83.9l0,0Q204.1,174,202.46,176c-16.12,20-38.15,31.51-60.16,31.51a62.1,62.1,0,0,1-19.1-3,65.15,65.15,0,0,1-17.42,2.4A64.12,64.12,0,0,1,67.5,194h.07c-12.1-8.91-22-22-28.22-38.13C26.21,122,27,91.2,71.1,75.06a20.41,20.41,0,0,1,6.69-1.32,6.81,6.81,0,0,1,3.62.81l4.47,3a1.89,1.89,0,0,0,.5.28,2.08,2.08,0,0,0,.68.12,1.93,1.93,0,0,0,1.82-1.25L91,71.84c.69-1.4,2.67-3.63,6.78-4.63a84.08,84.08,0,0,1,16.57-1.75,63.92,63.92,0,0,1,8,.48,41.06,41.06,0,0,1,16-3.18c9.59,0,20.46,3.07,32.92,10.06,4.79,2.75,6.83,5.7,7.09,7.5l.61,5.35v0c5.64-8.64,10.29-22.73,14.14-41.23m0-8a8.45,8.45,0,0,0-1.22.09,8,8,0,0,0-6.61,6.28A195.1,195.1,0,0,1,178.57,68a35.46,35.46,0,0,0-3.27-2.12l-.07,0c-13.11-7.35-25.5-11.08-36.83-11.08a49.42,49.42,0,0,0-17.13,3c-2.25-.2-4.55-.31-6.88-.31a92.16,92.16,0,0,0-18.14,1.91l-.32.07c-6.63,1.61-9.93,5.34-11.41,7.7a15.26,15.26,0,0,0-6.73-1.4,28.37,28.37,0,0,0-9.37,1.78l-.07,0c-20,7.32-33.41,18.26-39.87,32.52-7,15.5-5.9,34.7,3.41,58.7C38.5,175.8,49,190,62.17,200a6.71,6.71,0,0,0,.58.48A71.22,71.22,0,0,0,123,212.83a69.9,69.9,0,0,0,19.27,2.7c24.54,0,48.74-12.57,66.39-34.49,1.05-1.31,2.07-2.64,3.05-4l.36-.46c25.07-34.43,20.5-69-12.56-94.91l-.19-.15A21.74,21.74,0,0,0,195,79.07a174.57,174.57,0,0,0,9-27,8,8,0,0,0-.76-5.92l-3.13-5.58a8,8,0,0,0-7-4.09Z" style="fill:#fff"/></svg>