<svg xmlns="http://www.w3.org/2000/svg" viewBox="0 0 252 252"><defs><style>.cls-1,.cls-11{fill:#6e4b29;}.cls-2{fill:#fbe3a7;}.cls-3{fill:#f6d78b;}.cls-4{fill:#f4ca6d;}.cls-5,.cls-9{fill:#fff;}.cls-6{fill:#28170d;}.cls-10,.cls-7{opacity:0.73;}.cls-10,.cls-8{fill:#a06c3f;}.cls-11,.cls-8{opacity:0.49;}.cls-9{opacity:0.15;}</style></defs><g id="Layer_6" data-name="Layer 6"><path class="cls-1" d="M185.12,182.56c.48-23.39-14.05-45.87-34.54-57.16-11.21-6.18-25.85-9.25-38-3.86-6.24,2.77-13.34,5.95-19.61,10l.08-.07c-1.55,1-3,.76-7.33,5l-.59.37c-.81.76-1.59,1.55-2.33,2.37a37.44,37.44,0,0,0-7,6.4c-18.95,22.84-10.28,63.1,12.59,80.16,16.66,12.43,57.14,16.22,76.41,8.16,13.39-5.6,14.51-15.78,17.08-31.83,0,0,2.21-11.12,2.79-14A22.54,22.54,0,0,0,185.12,182.56Z"/><path class="cls-2" d="M146.64,212.05c5.14-5.25-34.29-61.56-47.72-80.37-1.78,1-3.54,2-5.23,3.1l.07-.07c-1.45.91-2.85.72-6.87,4.73l-.55.35c-.56.53-1.1,1.08-1.63,1.64,13.45,18.38,55.8,75.2,61.8,70.75a.8.8,0,0,0,.13-.13"/><path class="cls-3" d="M180,182.77c.45-22-13.17-43.15-32.37-53.78-10.5-5.81-24.22-8.7-35.57-3.63-4.15,1.85-8.72,3.91-13.13,6.32,13.43,18.81,52.86,75.12,47.72,80.37,4.36,4.79,11.62,12.42,17.94,17.3,9.21-5.54,10.29-14.63,12.45-28.16,0,0,2.06-10.46,2.61-13.13A21.57,21.57,0,0,0,180,182.77Z"/><path class="cls-4" d="M146.64,212.05a.8.8,0,0,1-.13.13c-6,4.45-48.35-52.37-61.8-70.75l-.55.59a35.54,35.54,0,0,0-6.53,6c-17.74,21.5-9.63,59.37,11.8,75.42,15.62,11.69,53.54,15.27,71.59,7.68a28.12,28.12,0,0,0,3.56-1.79C158.26,224.47,151,216.84,146.64,212.05Z"/><path class="cls-2" d="M96,197.43s-11.88-22.11-3.34-26.12,14.51,6.37,19.08,10.74,19.51,17.38,25.13,29.91-8.69,15.11-14.17,13.41S106.82,218.41,96,197.43Z"/><path class="cls-2" d="M127.1,164.13s-7-15.89-.06-16.95,23.67,11.91,32.16,23,11.54,23.7,2.3,28.34-16.3-6.52-20-13.45S128.51,166.71,127.1,164.13Z"/><path class="cls-5" d="M101.12,180.81c-.42,0-.66.25-.77.74A162.56,162.56,0,0,1,121,193.38C113.67,186.42,103.53,180.93,101.12,180.81Z"/><path class="cls-6" d="M127.53,201.93a29.81,29.81,0,0,0-6.57-8.55,162.56,162.56,0,0,0-20.61-11.83C99.64,185,105.71,199,105.71,199c7,13.45,14,16.39,18.58,16S132.35,212.38,127.53,201.93Z"/><path class="cls-5" d="M129.45,158.14c0-.42.32-.64.81-.69a163.21,163.21,0,0,0,9.81,21.64C133.83,171.17,129.34,160.55,129.45,158.14Z"/><path class="cls-6" d="M147.94,186.45a29.51,29.51,0,0,1-7.87-7.36,163.21,163.21,0,0,1-9.81-21.64c3.47-.39,16.89,7,16.89,7,12.72,8.22,15,15.5,14.15,20S157.88,192.26,147.94,186.45Z"/></g><g id="Layer_5" data-name="Layer 5"><path class="cls-1" d="M185.12,182.56c.48-23.39-14.05-45.87-34.54-57.16-11.21-6.18-25.85-9.25-38-3.86-6.24,2.77-13.34,5.95-19.61,10l.08-.07c-1.55,1-3,.76-7.33,5l-.59.37c-.81.76-1.59,1.55-2.33,2.37a37.44,37.44,0,0,0-7,6.4c-18.95,22.84-10.28,63.1,12.59,80.16,16.66,12.43,57.14,16.22,76.41,8.16,13.39-5.6,14.51-15.78,17.08-31.83,0,0,2.21-11.12,2.79-14A22.54,22.54,0,0,0,185.12,182.56Z"/><g class="cls-7"><circle class="cls-8" cx="100.68" cy="154.26" r="1.95"/><circle class="cls-8" cx="94.91" cy="172.88" r="1.95"/><circle class="cls-8" cx="110.37" cy="209.1" r="1.95"/><circle class="cls-8" cx="78.55" cy="200.01" r="1.95"/><circle class="cls-8" cx="100.35" cy="213.64" r="1.95"/><circle class="cls-8" cx="92.36" cy="187.12" r="1.51"/><circle class="cls-8" cx="78.98" cy="184.37" r="1.51"/><circle class="cls-8" cx="86.56" cy="173.74" r="1.51"/><circle class="cls-8" cx="76.67" cy="169.06" r="1.51"/><circle class="cls-8" cx="86.41" cy="211.71" r="1.51"/><circle class="cls-8" cx="100.05" cy="198.45" r="0.87"/><circle class="cls-8" cx="86.79" cy="201.9" r="0.87"/><circle class="cls-8" cx="96.02" cy="193.71" r="0.87"/><circle class="cls-8" cx="104.42" cy="218.77" r="0.87"/><circle class="cls-8" cx="113.09" cy="215.64" r="0.87"/><circle class="cls-8" cx="97.19" cy="219.65" r="0.87"/><circle class="cls-8" cx="80.97" cy="190.82" r="0.87"/><circle class="cls-8" cx="89.36" cy="159.76" r="0.87"/></g><path class="cls-9" d="M157.06,179.25c-4.79-13.19-18.33-20.94-26.37-32.44-2.18-3.11-3.87-7.57-1.41-10.46a7.48,7.48,0,0,1,5.06-2.22c5.27-.52,10.46,1.6,15,4.3a59.09,59.09,0,0,1,26.18,33.48c3,10,2,23.6-8.71,29C156.89,205.86,159.3,185.4,157.06,179.25Z"/><path class="cls-10" d="M97.35,133.31s3.53-2.22,5.64-2.37,5.1-5.58,5.1-5.58l2.59,3.71a26.42,26.42,0,0,1,5.92-.77c3,0,5.09-2.62,5.09-2.62s1.42,6.45-7.46,10.15c0,0-.32,3.37,1.74,4.79,0,0-6.21,3.35-10.72.34,0,0-10.81,3.94-12.45,6.24,0,0-1.4-.88,1.7-6.81,0,0-3.46-5.25-5.19-6.17C89.31,134.22,88.32,133.19,97.35,133.31Z"/><path class="cls-1" d="M110.63,136.56c.07,2.1-10.27,2.76-10.69.74-.31-1.47,2.43-2.79,3.36-3.46a8.71,8.71,0,0,1,2.75-1.51A2.93,2.93,0,0,1,109,133c.64.71.73,1.74,1.22,2.56A2.24,2.24,0,0,1,110.63,136.56Z"/><circle class="cls-11" cx="159.64" cy="200.78" r="1.95"/><circle class="cls-11" cx="155.98" cy="181.63" r="1.95"/><circle class="cls-11" cx="125.33" cy="156.92" r="1.95"/><circle class="cls-11" cx="157.68" cy="150" r="1.95"/><circle class="cls-11" cx="132.04" cy="148.2" r="1.95"/><circle class="cls-11" cx="151.55" cy="167.86" r="1.51"/><circle class="cls-11" cx="164.65" cy="164.01" r="1.51"/><circle class="cls-11" cx="162.95" cy="176.95" r="1.51"/><circle class="cls-11" cx="173.89" cy="176.43" r="1.51"/><circle class="cls-11" cx="145.25" cy="143.36" r="1.51"/><circle class="cls-11" cx="139.43" cy="161.47" r="0.87"/><circle class="cls-11" cx="149.53" cy="152.19" r="0.87"/><circle class="cls-11" cx="145.22" cy="163.76" r="0.87"/><circle class="cls-11" cx="126.04" cy="145.58" r="0.87"/><circle class="cls-11" cx="119.85" cy="152.42" r="0.87"/><circle class="cls-11" cx="132.01" cy="141.41" r="0.87"/><circle class="cls-11" cx="159.86" cy="159.24" r="0.87"/><circle class="cls-11" cx="167.04" cy="190.61" r="0.87"/></g></svg>