<svg id="Layer_4" data-name="Layer 4" xmlns="http://www.w3.org/2000/svg" viewBox="0 0 252 252"><defs><style>.cls-1{fill:#fff;}</style></defs><path class="cls-1" d="M204.71,22.57c7.73,0,14.4,6.82,14.43,6.85l7.08,7.86,8.46,6.35s16.56,13.52,2.48,25.94C229.7,76.15,226,97.41,222.62,116.7c-.57,3.24-1.13,6.43-1.65,9.29q-.71,3.81-1.67,7.59a118.48,118.48,0,0,1-3.76,11.91,81.33,81.33,0,0,1,12.13,27.6q.59,2.64,1,5.35a57.4,57.4,0,0,0,2.66,11c1.1,3.29,1.61,4.8-.1,7.62a2.32,2.32,0,0,1-.61.68c.38.23.3.47-.55,1.22l-.11.09a2.29,2.29,0,0,1-.19.86,11.66,11.66,0,0,1-.52,1.06,3.73,3.73,0,0,1-.23.69c-1.77,4-3.48,4.77-7.19,6.56a77.2,77.2,0,0,0-11.9,7c-1.85,1.3-3.72,2.51-5.59,3.65a96.87,96.87,0,0,1-50.57,14,107.28,107.28,0,0,1-27.59-3.67,116.34,116.34,0,0,1-27.72-11.45c-1.83-.36-3.67-.76-5.53-1.23a74.5,74.5,0,0,0-13.45-2.26c-4.06-.35-5.93-.51-9-3.59a4.17,4.17,0,0,1-.78-1.12,4.67,4.67,0,0,1-.31-.81,5.8,5.8,0,0,1-.84-.24,4.05,4.05,0,0,1-1.18-.67c-3.34-2.74-3.67-4.59-4.38-8.61a74.18,74.18,0,0,0-3.45-13.19q-1.11-3.18-2-6.31c-.14-.52-.27-1-.41-1.56L57,178c-1.51-2.46-3.16-5.2-4.84-8-10-16.6-21-34.89-30.41-38.27-17.68-6.38-6.86-24.8-6.83-24.86l.46-.71a16.76,16.76,0,0,1,1.37-3.78A25,25,0,0,0,12,100.65c-2.58-.63-3.33-1.24-3.14-2,.14-.54.67-.83,1.34-1.2.86-.47,2.07-1.13,2-2.17-.17-2.07.19-3,1.58-3.12h.19c1.08,0,2.75.68,5.45,1.78l.37.15,2,.82,2.67-7.37S28,78.92,36.7,78.92c2.8,0,6.14.89,10,3.24,6.4,3.86,19.54,4.93,33.53,5.31a120,120,0,0,1,50.64-34.7q3.68-1.31,7.41-2.34c2.8-.78,5.93-1.62,9.11-2.47,18.91-5.08,39.76-10.68,45.65-18.7,3.68-5,7.78-6.69,11.62-6.69m0-8c-4.91,0-12,1.73-18.07,10-.75,1-3.63,3.79-14.24,7.67-8,2.91-17.67,5.51-27,8h-.05c-3.24.87-6.3,1.7-9.12,2.48-2.64.74-5.31,1.58-7.93,2.5A127.58,127.58,0,0,0,76.79,79.35c-20.54-.81-24.55-3.22-25.92-4A27.59,27.59,0,0,0,36.7,70.92c-11,0-17.54,8.44-19.67,13.43l-.08.17a12,12,0,0,0-3-.4c-.29,0-.56,0-.82,0a9.55,9.55,0,0,0-8.67,7.46,9.19,9.19,0,0,0-3.38,5.11,9,9,0,0,0,3.81,9.59A10.72,10.72,0,0,0,6,107c-1.79,4.51-3.72,11.92-1.11,19.1C6.43,130.3,10.12,136,19,139.21c1.18.43,4.64,2.39,11.22,11.38,5,6.79,10.09,15.28,15.05,23.5,1.48,2.45,3,5,4.42,7.29,0,.17.09.34.14.52.63,2.26,1.35,4.56,2.15,6.82a65.58,65.58,0,0,1,3.11,11.92c.8,4.52,1.55,8.78,7.19,13.41a12.08,12.08,0,0,0,1.37,1,12.17,12.17,0,0,0,1.1,1.28c5.1,5.2,9.42,5.57,14,6a66.65,66.65,0,0,1,12.15,2c1.5.38,3,.74,4.69,1.07A124.13,124.13,0,0,0,124.1,237a115.45,115.45,0,0,0,29.65,3.94,104.07,104.07,0,0,0,54.71-15.19c2-1.23,4.06-2.55,6-3.94a68.1,68.1,0,0,1,10.79-6.3c4.14-2,8.05-3.89,11-10.5.13-.29.25-.58.35-.88s.28-.59.42-.91a8.72,8.72,0,0,0,1.36-2.58c3.15-5.68,1.66-10.09.47-13.67a48,48,0,0,1-2.33-9.63c-.29-2-.66-4-1.09-6a88,88,0,0,0-11.09-26.87c1-3,1.92-6,2.66-8.92.69-2.69,1.29-5.43,1.78-8.12.54-2.91,1.11-6.19,1.67-9.36,1.67-9.56,3.39-19.44,5.59-27.65,2.91-10.92,5.42-14,6.37-14.87,7.07-6.24,8.46-12.9,8.38-17.38-.2-11.47-10-19.82-11.08-20.73l-.13-.11-.14-.11-7.84-5.88-6.57-7.29-.13-.15-.15-.14c-1.48-1.51-9.59-9.2-20.09-9.2Z"/></svg>