<svg id="a624d745-8e83-4be5-afc5-77a652bc8ecd" data-name="Layer 3" xmlns="http://www.w3.org/2000/svg" viewBox="0 0 252 252"><path d="M96,50.44c10.27,0,20.34,4.69,28.39,15.11C127.9,70.88,136.86,73,144.46,78a50.88,50.88,0,0,1,17.21-3.17c16.23,0,30.21,9.08,35.08,28.05a12.58,12.58,0,0,0,1.39,3.75c2.9-2,11.16-7,19.19-7l.82,0,1.53,3.84,1,2.56s-14.08.59-20,4.38c8.13,10.33,24,21.72,6.15,47.76-22.83,30.22-49,43.45-76.34,43.45a98,98,0,0,1-32.74-6A64.22,64.22,0,0,1,84.34,188a108.55,108.55,0,0,1-14.21,1.87H69c-12.35,0-37.07-4.52-37.47-23.28,0,0-1-10.72,1.32-14.53,15-24.91,2.39-30.85,19.06-68.53C61.8,63,79.16,50.44,96,50.44m0-8c-10.06,0-20.23,3.61-29.41,10.44A73.66,73.66,0,0,0,44.68,80.09a2.56,2.56,0,0,1-.11.24c-9,20.27-10,32.26-10.83,41.9C33,131,32.44,137.24,26,148c-3.14,5.16-2.91,14.09-2.46,19.13.35,11.14,7.08,20.19,19,25.51,11,4.92,23.06,5.3,26.49,5.3h1.35l.33,0a118.31,118.31,0,0,0,11.85-1.38A71.16,71.16,0,0,0,94.78,203l.32.12a106.1,106.1,0,0,0,35.41,6.42,89.56,89.56,0,0,0,43.72-11.39c14.11-7.8,27.23-19.65,39-35.24a3.15,3.15,0,0,0,.22-.29c15.88-23.14,8.85-38.16,1.22-48.08,2.16-.3,4.39-.51,6.37-.6A8,8,0,0,0,228.13,103l-1-2.56-1.53-3.84a8,8,0,0,0-7.08-5q-.58,0-1.17,0A37,37,0,0,0,202.64,95a42.2,42.2,0,0,0-41-28.19,57.08,57.08,0,0,0-16.24,2.44c-2.16-1.2-4.29-2.22-6.24-3.16-3.36-1.61-7.16-3.43-8.15-4.93-.11-.16-.22-.32-.34-.47C121.62,48.91,109.29,42.44,96,42.44Z" style="fill:#fff"/></svg>