<svg xmlns="http://www.w3.org/2000/svg" viewBox="0 0 252 252"><defs><style>.cls-1,.cls-10{fill:#e81c1c;}.cls-2{fill:#af1717;}.cls-3{fill:#e1ccc3;}.cls-4,.cls-5{fill:#ebebeb;}.cls-4{opacity:0.37;}.cls-5{opacity:0.77;}.cls-6{fill:#5c3529;}.cls-7{fill:#69402a;}.cls-8{opacity:0.24;}.cls-9{fill:#dfdfdf;}.cls-10{opacity:0.47;}.cls-11{fill:#f33036;}.cls-12{fill:#ce1313;}.cls-13{fill:#f05151;}.cls-14{fill:#f83e3e;}.cls-15{fill:#951e0b;}.cls-16{fill:#a42e1d;}.cls-17{fill:#b53e31;}</style></defs><g id="Layer_44" data-name="Layer 44"><path class="cls-1" d="M110,137.44l-2.24-1c-1.3-.1-2,.76-3,1.55l1.68,3.75h4S111.3,138.26,110,137.44Z"/><path class="cls-1" d="M97.26,141.37l-.3,2.38c.31,1.28,1.37,1.77,2.45,2.58l3.11-2.46s-1.24-3.79-1.26-3.8S97.65,140,97.26,141.37Z"/><path class="cls-1" d="M88.78,146.36l-1,2.16c-.08,1.29.81,2.06,1.62,3.14l3.73-1.42s-.09-3.94-.11-4S89.58,145.13,88.78,146.36Z"/><path class="cls-1" d="M83.21,152.42l-1.46,1.87c-.35,1.23.34,2.17.91,3.39l4-.55s.78-3.82.77-3.84S84.26,151.41,83.21,152.42Z"/><path class="cls-1" d="M76.52,160.49l-1.36,1.95c-.29,1.25.45,2.16,1.07,3.35l4-.75s.59-3.86.57-3.88S77.52,159.43,76.52,160.49Z"/><path class="cls-1" d="M75.54,164.41l-1.17,2.06c-.19,1.28.63,2.12,1.35,3.26l3.86-1.09s.24-3.92.22-3.93S76.44,163.26,75.54,164.41Z"/><path class="cls-1" d="M69,173.68l-.91,2.21c0,1.3.89,2,1.75,3.08l3.66-1.57s-.24-3.94-.26-4S69.78,172.42,69,173.68Z"/><path class="cls-1" d="M65.89,183.11l-.33,2.38c.29,1.28,1.35,1.78,2.42,2.61l3.14-2.42s-1.19-3.81-1.21-3.82S66.3,181.69,65.89,183.11Z"/><path class="cls-1" d="M65.68,192l.07,2.42c.51,1.22,1.62,1.55,2.81,2.19l2.66-2.93s-1.8-3.59-1.82-3.59S65.85,190.5,65.68,192Z"/><path class="cls-1" d="M65.22,204.35l1,2.24c.93.95,2.07.82,3.39,1l1.25-3.79s-3-2.66-3.06-2.65S64.78,202.9,65.22,204.35Z"/><path class="cls-1" d="M72.52,222.89l1.63,1.87c1.16.64,2.19.18,3.48-.08l.05-4S74,219,74,219,71.68,221.61,72.52,222.89Z"/><path class="cls-1" d="M79.44,231.37l2.14,1.24c1.3.23,2.09-.56,3.2-1.24l-1.33-3.88s-4-.38-4-.36S78.23,230.43,79.44,231.37Z"/><path class="cls-1" d="M89.69,236.43l2.29-.7c1-.79.92-1.94,1.12-3.23l-3.73-1.77s-2.8,2.64-2.8,2.66S88.22,236.66,89.69,236.43Z"/><path class="cls-1" d="M95.62,238.65l1.77,1.74c1.21.55,2.19,0,3.45-.36l-.28-4s-3.76-1.39-3.77-1.38S94.69,237.44,95.62,238.65Z"/><path class="cls-1" d="M118.27,141.11l.1-2.42c-.42-1.25-1.51-1.65-2.65-2.37L112.84,139s1.55,3.69,1.57,3.7S118,142.56,118.27,141.11Z"/><path class="cls-1" d="M122.51,144.61l2.43.12c1.22-.4,1.53-1.49,2.16-2.62l-3-2.89s-3.58,1.51-3.58,1.54S121,144.33,122.51,144.61Z"/><path class="cls-1" d="M132.51,148.48l2.41.42c1.27-.26,1.72-1.29,2.48-2.33l-2.61-3.21s-3.76,1.06-3.76,1.08S131.07,148,132.51,148.48Z"/><path class="cls-1" d="M140.19,153.54l2.18,1.17c1.3.18,2.07-.63,3.15-1.35l-1.45-3.84s-4-.25-4-.23S139,152.64,140.19,153.54Z"/><path class="cls-1" d="M149.13,161.8l2,1.5c1.26.38,2.15-.29,3.34-.82l-.82-4s-3.9-.87-3.91-.85S148,160.72,149.13,161.8Z"/><path class="cls-1" d="M153.7,169.19l1.75,1.76c1.2.56,2.19,0,3.45-.32l-.24-4s-3.75-1.42-3.77-1.41S152.77,168,153.7,169.19Z"/><path class="cls-1" d="M157.25,177.06l1.67,1.82c1.18.62,2.2.13,3.47-.17l-.06-4.05s-3.7-1.57-3.71-1.56S156.37,175.81,157.25,177.06Z"/><path class="cls-1" d="M157.58,184l-.13,2.41c.39,1.26,1.48,1.68,2.61,2.41l2.92-2.67s-1.5-3.72-1.52-3.72S157.87,182.59,157.58,184Z"/><path class="cls-1" d="M157,192.32l-.24,2.4c.34,1.27,1.41,1.73,2.51,2.52l3-2.54s-1.33-3.77-1.35-3.77S157.38,190.89,157,192.32Z"/><path class="cls-1" d="M151.84,200.45l-.32,2.39c.31,1.27,1.36,1.77,2.44,2.59l3.12-2.45s-1.22-3.8-1.24-3.8S152.23,199,151.84,200.45Z"/><path class="cls-1" d="M145.8,209l-1,2.14c-.1,1.3.77,2.09,1.56,3.18l3.76-1.34s0-3.94,0-4S146.63,207.77,145.8,209Z"/><path class="cls-1" d="M140.23,215.38l-1.53,1.81c-.4,1.22.27,2.18.79,3.42l4-.4s.92-3.79.91-3.81S141.32,214.41,140.23,215.38Z"/><path class="cls-1" d="M131.56,222.47,129.75,224c-.59,1.13-.08,2.17.24,3.47l4.06.24s1.52-3.57,1.5-3.58S132.8,221.69,131.56,222.47Z"/><path class="cls-1" d="M124.18,228l-1.54,1.8c-.41,1.22.25,2.18.76,3.42l4-.37s1-3.78.93-3.8S125.28,227.07,124.18,228Z"/><path class="cls-1" d="M115.91,232.07,114.52,234c-.31,1.25.43,2.16,1,3.36l4-.69s.63-3.86.62-3.88S116.92,231,115.91,232.07Z"/><path class="cls-1" d="M69.59,211.13l-1.72,1.64c-.53,1.16,0,2.18.43,3.46l4,0s1.32-3.65,1.31-3.67S70.78,210.29,69.59,211.13Z"/><path class="cls-1" d="M107.84,235l-2,1.28c-.74,1-.37,2.13-.22,3.45l4,.77s2-3.32,2-3.34S109.19,234.36,107.84,235Z"/><path class="cls-2" d="M94,145.19C68.18,166.76,52.88,210.84,86,234c25.56,17.85,64.74-19.94,72.84-40.09C171.28,162.89,119.8,123.63,94,145.19Z"/><path class="cls-3" d="M152.1,188c6.85-25.24-9.5-29.29-15.62-29.92a3.75,3.75,0,0,1-3-2.21c-7.75-17.15-25.82-18.35-37.93-8.13C70.6,168.77,54,209.56,83,228.56,105.42,243.21,146.75,207.73,152.1,188ZM85.16,216.49c-6.83-5.48-5.29-18.61,3.45-29.31s33.27-32.66,41.64-24.87c8.73,8.13-8.17,34-16.91,44.74S92,222,85.16,216.49Z"/><path class="cls-4" d="M82.4,221.92c-7-6.51-10.39-14.92-10.1-25,.44-16,10.8-35.17,25.77-47.63,8.55-7.11,19.92-7.06,27.64.14a26.17,26.17,0,0,1,5.75,8l0,0a12.29,12.29,0,0,0-5.74-.86c-13.33.93-32.44,19.31-39.11,27.55a36.24,36.24,0,0,0-8.11,18.4c-.74,6.76,1.1,12.58,5.19,16.39.26.24.53.47.8.69,4.53,3.67,10.72,4.55,17.44,2.48a35.84,35.84,0,0,0,16.83-11.92,124.13,124.13,0,0,0,15.31-24.36c4.6-10.06,5.59-17.78,3-23a.59.59,0,0,1,.62-.84h0A19.15,19.15,0,0,1,148,166.49c4.75,4.43,5.9,11.81,3.42,22-2.82,11.5-20.61,30.51-39.32,37.78-7,2.71-16.91,4.82-24.83-.47a39.45,39.45,0,0,1-4.87-3.84Z"/><path class="cls-5" d="M77.73,188.86a.5.5,0,0,1-1-.29c2.48-13.5,11.46-28.31,23.7-38.5,7-5.83,16.26-5.83,22.51,0a.5.5,0,0,1-.24.86C107,154,88,174,83.53,179.55A43.84,43.84,0,0,0,77.73,188.86Zm32,31.9a42.36,42.36,0,0,0,12-10.28,128.41,128.41,0,0,0,15.82-25.19c3.48-7.6,5.05-14,4.73-19.31a.5.5,0,0,1,.75-.46,11.19,11.19,0,0,1,2.26,1.62c3.65,3.39,4.42,9.51,2.29,18.18C145,195.7,128,213.67,110.63,220.41,110.33,220.53,110,220.65,109.71,220.76Z"/><path class="cls-6" d="M115.71,209.25C107,220,94.11,224,86.9,218.12s-6-19.28,2.69-30,33.36-32.58,42.23-24.33C141.08,172.39,124.41,198.51,115.71,209.25Z"/><path class="cls-7" d="M89.16,212.82c-5-4.66-3.38-15.53,3.66-24.21,7.81-9.65,24.8-24.07,33.61-24.69a3.63,3.63,0,0,1,2.95.76c2.58,2.41,1.78,8.78-2.21,17.49a118.37,118.37,0,0,1-14.27,22.71c-7.22,8.9-17.91,12.7-23.35,8.29C89.42,213.06,89.28,212.94,89.16,212.82Z"/><g class="cls-8"><path class="cls-9" d="M93.13,197.6a.89.89,0,0,1-.72-.72,7.5,7.5,0,0,1,.3-3.26,21.73,21.73,0,0,1,5.8-9.26,98,98,0,0,1,16.7-12.65,68,68,0,0,1,6.51-3.52.91.91,0,0,1,1.2,1.24c-.46.88-1,1.84-1.63,2.89a110.12,110.12,0,0,1-15.57,19.4C100.52,196.81,95.07,198,93.13,197.6Z"/></g><path class="cls-1" d="M133.77,147.33l-1.2,2c-.2,1.25.58,2.06,1.25,3.15l3.79-1.15s.33-3.84.31-3.85S134.67,146.18,133.77,147.33Z"/><path class="cls-1" d="M143.85,154.19l-2.29.6c-1,.75-1.05,1.86-1.35,3.12l3.49,1.86s3-2.48,3-2.51S145.3,154,143.85,154.19Z"/><path class="cls-1" d="M126.32,141.08l-2,1.27c-.76,1-.44,2.09-.34,3.38l3.89.71s2.06-3.26,2-3.27S127.65,140.48,126.32,141.08Z"/><path class="cls-1" d="M134.57,153.23l-1.19,2.05c-.21,1.26.57,2.06,1.25,3.16l3.78-1.16s.33-3.84.31-3.85S135.47,152.09,134.57,153.23Z"/><path class="cls-1" d="M149.34,164.34l2.25.72c1.27-.07,1.89-1,2.82-1.91l-1.95-3.44s-3.82.51-3.83.53S148,163.7,149.34,164.34Z"/></g><g id="Layer_43" data-name="Layer 43"><path class="cls-1" d="M156.84,160.58c-4.4-7.62-18-16.87-26.32-19.82-45.13-16-60,36.39-61.52,46.29-2.08,13.56-3,29.06,6.14,39.28,8.32,9.29,22.4,10.9,34.72,9,17-2.69,33.52-11.49,42.9-25.92S168.15,180.14,156.84,160.58Z"/><path class="cls-10" d="M134.08,150.66s-4.21-4.09-6,1.13,9.72,15.87,13.2,12.37S145.37,154,134.08,150.66Z"/><path class="cls-11" d="M144.45,178a14.52,14.52,0,0,0,2-4.19,5.1,5.1,0,0,0-5.47-6.45c-5.38.55-11.56-.47-16.51-5.87-3.57-3.9-3.65-7.39-2.09-10.34a5.1,5.1,0,0,0-4.39-7.53c-6.79-.1-15.52,1.82-24.4,9.35-11.63,9.86-19,38.62-7.35,43.75S125.89,205.31,144.45,178Z"/><path class="cls-12" d="M152.76,209.37c5.71-8.79,10.17-17.72,10.23-27.78-10.43,11-32.69,32-53.56,34.75a40.79,40.79,0,0,1-41.54-20.2c-.9,11,.1,22.21,7.25,30.19,8.32,9.29,22.4,10.9,34.72,9C126.86,232.6,143.38,223.8,152.76,209.37Z"/><path class="cls-13" d="M132.31,180.54l-.69,2.24c.09,1.25,1,1.84,1.92,2.75l3.37-2s-.55-3.76-.57-3.76S132.92,179.24,132.31,180.54Z"/><path class="cls-14" d="M95.81,207.76l-1.4,1.87c-.34,1.21.33,2.08.87,3.23l3.83-.7s.76-3.73.74-3.74S96.82,206.74,95.81,207.76Z"/><path class="cls-1" d="M135,217.35l2.31-.33c1.09-.61,1.24-1.71,1.67-2.9l-3.21-2.22s-3.17,2.1-3.17,2.12S133.53,217.35,135,217.35Z"/><path class="cls-1" d="M159.8,188.51l1.08-2.07c.14-1.25-.67-2-1.39-3.05l-3.67,1.33s-.13,3.8-.12,3.81S159,189.69,159.8,188.51Z"/><path class="cls-14" d="M87.64,199.85l-2,1.11c-.81,1-.57,2-.55,3.31l3.78.95s2.24-3.07,2.23-3.09S89,199.34,87.64,199.85Z"/><path class="cls-14" d="M116.47,202.38l2.28.47c1.24-.21,1.75-1.19,2.55-2.17L119,197.51s-3.69.92-3.69.94S115.11,201.91,116.47,202.38Z"/><path class="cls-1" d="M149.23,200.17l1.17-2c.2-1.24-.56-2-1.24-3.11l-3.72,1.15s-.32,3.79-.3,3.8S148.34,201.31,149.23,200.17Z"/><path class="cls-1" d="M95.63,218.19l-1.78,1.51c-.61,1.1-.15,2.1.12,3.35l3.9.17s1.56-3.46,1.55-3.48S96.85,217.42,95.63,218.19Z"/><path class="cls-14" d="M149.49,183.65l1.48-1.8c.4-1.2-.23-2.1-.72-3.27l-3.87.53s-.91,3.69-.9,3.71S148.43,184.63,149.49,183.65Z"/><path class="cls-14" d="M78.19,161.18l-2.34.1c-1.15.49-1.4,1.57-1.95,2.72l3,2.52s3.36-1.77,3.36-1.79S79.62,161.32,78.19,161.18Z"/><path class="cls-13" d="M113.47,191.69l2.19.8c1.26,0,1.9-.92,2.85-1.77l-1.78-3.47s-3.79.36-3.8.38S112.2,191,113.47,191.69Z"/><path class="cls-13" d="M83.86,168.88l-2.27-.57c-1.24.15-1.79,1.11-2.65,2.05l2.13,3.27s3.73-.74,3.74-.76S85.19,169.43,83.86,168.88Z"/><path class="cls-14" d="M126.32,157l2-1.26c.75-1,.43-2.06.33-3.33l-3.84-.69s-2,3.22-2,3.24S125,157.6,126.32,157Z"/><path class="cls-14" d="M97.9,141.34l-2.32-.17c-1.21.36-.84,2.29-1.52,3.37l1.92,2s3.55-1.38,3.55-1.4S99.31,141.65,97.9,141.34Z"/><path class="cls-13" d="M99.33,189.26l.86,2.17c.85.92,2,.81,3.22.95l1.4-3.64s-2.79-2.59-2.81-2.58S99,187.86,99.33,189.26Z"/><path class="cls-14" d="M127.67,142.09l.06-2.34c-.41-1.18-1.46-1.51-2.57-2.14l-2.73,2.79s1.53,3.48,1.55,3.48S127.43,143.51,127.67,142.09Z"/><path class="cls-14" d="M87.68,147.76l-1.78,1.51c-.6,1.11-.14,2.11.13,3.35l3.89.17s1.57-3.46,1.56-3.48S88.9,147,87.68,147.76Z"/><path class="cls-13" d="M118.3,173.17l-.13,2.34c.38,1.19,1.42,1.55,2.51,2.21l2.81-2.7s-1.43-3.53-1.45-3.53S118.58,171.76,118.3,173.17Z"/><path class="cls-1" d="M157.06,197.39l1.88,1.38c1.21.33,2.08-.35,3.23-.9l-.74-3.83s-3.73-.72-3.75-.7S156,196.38,157.06,197.39Z"/><path class="cls-1" d="M69.69,188.53l-2.27.58c-1,.73-1,1.83-1.35,3.06L69.5,194s2.93-2.43,2.92-2.44S71.12,188.37,69.69,188.53Z"/><path class="cls-14" d="M144,146.3l1.58-1.72c.46-1.17-.12-2.1-.54-3.3l-3.89.31s-1.12,3.64-1.11,3.65S142.89,147.22,144,146.3Z"/><path class="cls-1" d="M118.76,229.28l-.15,2.33c.37,1.2,1.41,1.56,2.49,2.24l2.83-2.69s-1.39-3.53-1.41-3.53S119.06,227.87,118.76,229.28Z"/><path class="cls-1" d="M84.49,214.79l-2.27-.53c-1.24.17-1.77,1.13-2.61,2.09l2.18,3.23s3.72-.8,3.72-.82S85.84,215.31,84.49,214.79Z"/><path class="cls-14" d="M135,165.9,136.4,164c.32-1.22-.37-2.08-.93-3.22l-3.82.78s-.68,3.74-.67,3.76S134.05,167,135,165.9Z"/><path class="cls-1" d="M100.83,224.65l-.65,2.24c.1,1.25,1,1.83,1.95,2.72l3.34-2s-.61-3.76-.62-3.76S101.42,223.33,100.83,224.65Z"/><path class="cls-13" d="M95.4,164.68l-.86-2.17c-.85-.92-2-.8-3.22-.94l-1.4,3.64s2.79,2.59,2.81,2.58S95.74,166.08,95.4,164.68Z"/><path class="cls-14" d="M134.39,202.08l2.06,1.09c1.25.16,2-.64,3.07-1.35l-1.29-3.68s-3.79-.18-3.81-.16S133.22,201.23,134.39,202.08Z"/><path class="cls-13" d="M101.85,151.1l1.35-1.9c.31-1.22-.39-2.08-1-3.22l-3.81.81s-.66,3.75-.64,3.76S100.86,152.15,101.85,151.1Z"/><path class="cls-13" d="M110.85,150l.92-2.15c.06-1.25-.8-1.95-1.6-2.94l-3.56,1.58s.14,3.8.15,3.81S110.1,151.19,110.85,150Z"/><path class="cls-14" d="M80.32,206.93l-2.22-.75c-1.25,0-1.87,1-2.8,1.84l1.87,3.42S81,211,81,211,81.61,207.58,80.32,206.93Z"/><path class="cls-14" d="M144.07,165.74l1.46-1.82c.38-1.2-.27-2.09-.77-3.26l-3.86.58s-.87,3.7-.85,3.72S143,166.73,144.07,165.74Z"/><path class="cls-13" d="M115.2,173.49l-.54-2.28c-.7-1-1.81-1.08-3-1.4l-1.92,3.39s2.38,3,2.4,3S115.33,174.92,115.2,173.49Z"/><path class="cls-1" d="M123.47,225.35l1.08,2.07c.94.84,2,.61,3.29.62l1-3.76s-3-2.3-3.05-2.29S123,224,123.47,225.35Z"/><path class="cls-13" d="M109,177.36l-1.38-1.88c-1.05-.68-2.08-.29-3.34-.11l-.45,3.87s3.35,1.81,3.36,1.8S109.71,178.63,109,177.36Z"/><path class="cls-14" d="M121.56,207.7l1.51,1.78c1.1.6,2.11.14,3.35-.13l.17-3.9s-3.47-1.56-3.48-1.55S120.79,206.48,121.56,207.7Z"/><path class="cls-13" d="M112.49,183.51l-1.6-1.7c-1.13-.55-2.11,0-3.34.29l0,3.9s3.54,1.39,3.55,1.38S113.32,184.69,112.49,183.51Z"/><path class="cls-1" d="M138.81,204.25l-2.32.3c-1.1.6-1.26,1.69-1.71,2.88l3.18,2.26s3.2-2.06,3.19-2.08S140.25,204.27,138.81,204.25Z"/><path class="cls-1" d="M160.38,170.18l-2.13,1c-.88.89-.71,2-.79,3.25l3.71,1.22s2.45-2.9,2.44-2.92S161.76,169.77,160.38,170.18Z"/><path class="cls-14" d="M159.38,180.9l.59,2.27c.73,1,1.83,1,3.07,1.34l1.84-3.44s-2.44-2.92-2.46-2.91S159.22,179.47,159.38,180.9Z"/><path class="cls-14" d="M151.2,152.19l-2.28-.52c-1.24.17-1.77,1.14-2.6,2.11l2.2,3.21s3.71-.82,3.72-.84S152.54,152.7,151.2,152.19Z"/><path class="cls-1" d="M108.83,229.8l-1.46,1.83c-.38,1.19.26,2.09.76,3.26l3.86-.58s.88-3.7.86-3.71S109.88,228.82,108.83,229.8Z"/><path class="cls-13" d="M129.7,191.92l.45-2.3c-.21-1.23-1.2-1.73-2.19-2.53l-3.15,2.3s1,3.69,1,3.69S129.23,193.28,129.7,191.92Z"/><path class="cls-1" d="M104.39,235.12l-.59-2.25c-.74-1-1.84-1-3.08-1.33L98.89,235s2.46,2.9,2.48,2.9S104.57,236.56,104.39,235.12Z"/><path class="cls-1" d="M93.83,231.55l-2.1,1c-.86.92-.67,2-.72,3.27L94.75,237s2.38-3,2.37-3S95.2,231.11,93.83,231.55Z"/><path class="cls-14" d="M104.7,205.65l-.38-2.31c-.63-1.08-1.73-1.2-2.93-1.61L99.24,205s2.16,3.13,2.18,3.13S104.73,207.09,104.7,205.65Z"/><path class="cls-1" d="M88.24,226.43l-.3,2.32c.29,1.22,1.3,1.65,2.34,2.39l3-2.49S92.11,225,92.09,225,88.63,225.05,88.24,226.43Z"/><path class="cls-14" d="M109.94,207.08l.45-2.29c-.21-1.24-1.2-1.74-2.19-2.54l-3.15,2.31s1,3.68,1,3.68S109.47,208.44,109.94,207.08Z"/><path class="cls-14" d="M89.35,209.94l-1.43,1.85c-.36,1.21.3,2.09.82,3.25l3.85-.65s.81-3.72.79-3.73S90.38,208.93,89.35,209.94Z"/><path class="cls-13" d="M111.64,162.27l1.35-1.9c.32-1.22-.37-2.08-.94-3.22l-3.82.8s-.66,3.74-.65,3.76S110.65,163.32,111.64,162.27Z"/><path class="cls-1" d="M67.37,210.93l-.78,2.2c0,1.26.93,1.89,1.79,2.84l3.45-1.82s-.39-3.78-.4-3.79S68,209.66,67.37,210.93Z"/><path class="cls-1" d="M70,201.78l-2.33-.18c-1.2.36-1.58,1.4-2.26,2.47l2.65,2.86s3.55-1.36,3.55-1.38S71.42,202.09,70,201.78Z"/><path class="cls-13" d="M143.51,170.59l2.06,1.11c1.24.16,2-.64,3.07-1.35l-1.28-3.68s-3.79-.19-3.8-.17S142.35,169.74,143.51,170.59Z"/><path class="cls-1" d="M83.73,228.52l-1.43,1.85c-.36,1.2.3,2.08.83,3.24L87,233s.81-3.71.79-3.73S84.76,227.51,83.73,228.52Z"/><path class="cls-14" d="M107.48,142.38l.2-2.33c-.35-1.21-1.38-1.59-2.45-2.28l-2.88,2.62s1.33,3.56,1.35,3.57S107.16,143.78,107.48,142.38Z"/><path class="cls-14" d="M137,193.8l1.69,1.61c1.15.49,2.1-.08,3.31-.48l-.24-3.89s-3.61-1.19-3.63-1.18S136.12,192.67,137,193.8Z"/><path class="cls-1" d="M73.37,218.88,71.3,220c-.83.94-.61,2-.62,3.29l3.76,1s2.3-3,2.29-3.05S74.73,218.4,73.37,218.88Z"/><path class="cls-13" d="M122,165.56l2.21.73c1.26-.06,1.87-1,2.79-1.85L125.1,161s-3.77.47-3.78.49S120.69,164.92,122,165.56Z"/><path class="cls-13" d="M106.1,192.84l-.83,2.18c0,1.26.89,1.91,1.73,2.87l3.49-1.74s-.3-3.79-.32-3.8S106.79,191.58,106.1,192.84Z"/><path class="cls-14" d="M135.94,147l1.89,1.38c1.21.33,2.07-.35,3.22-.9l-.74-3.83s-3.73-.72-3.75-.7S134.91,146,135.94,147Z"/><path class="cls-14" d="M72.08,171.67l.9,2.15c.86.91,2,.78,3.22.9l1.34-3.67s-2.82-2.54-2.84-2.53S71.71,170.27,72.08,171.67Z"/><path class="cls-14" d="M68.6,183.24l1.62,1.68c1.13.53,2.1,0,3.33-.34l-.08-3.9s-3.56-1.34-3.58-1.33S67.75,182.07,68.6,183.24Z"/><path class="cls-14" d="M84.83,157.62l.26-2.32c-.32-1.22-1.34-1.63-2.39-2.35l-3,2.56S81,159.1,81,159.1,84.47,159,84.83,157.62Z"/><path class="cls-13" d="M80.94,178.48l.72,2.22c.79,1,1.89.93,3.15,1.16l1.63-3.54s-2.61-2.77-2.63-2.76S80.69,177.06,80.94,178.48Z"/><path class="cls-14" d="M79,176l-2.29.48c-1,.68-1.13,1.78-1.49,3l3.35,2s3-2.3,3-2.32S80.39,175.94,79,176Z"/><path class="cls-13" d="M92.83,175l1.55-1.75c.45-1.17-.15-2.1-.59-3.29l-3.88.37s-1.07,3.65-1,3.67S91.73,175.89,92.83,175Z"/><path class="cls-13" d="M79.94,188.22l-.42,2.29c.23,1.24,1.22,1.72,2.22,2.51l3.12-2.34s-1-3.67-1-3.67S80.4,186.85,79.94,188.22Z"/><path class="cls-13" d="M104.68,159.74l.66-2.24c-.09-1.25-1-1.84-1.93-2.73l-3.36,2s.59,3.76.61,3.76S104.08,161.05,104.68,159.74Z"/><path class="cls-14" d="M146.7,192l2.28-.49c1.06-.68,1.13-1.78,1.48-3l-3.35-2s-3,2.3-3,2.32S145.26,192.07,146.7,192Z"/><path class="cls-1" d="M113.82,226.35l-1.19,2c-.21,1.24.55,2,1.21,3.12l3.74-1.12s.34-3.79.33-3.8S114.71,225.22,113.82,226.35Z"/><path class="cls-1" d="M135.6,228.15l2.05-1.11c.82-.95.58-2,.57-3.3l-3.78-1s-2.24,3.07-2.24,3.09S134.25,228.66,135.6,228.15Z"/><path class="cls-1" d="M128.73,215.51l-2.19-.82c-1.26,0-1.91.9-2.86,1.75l1.75,3.48s3.79-.32,3.8-.34S130,216.2,128.73,215.51Z"/><path class="cls-14" d="M105.28,215.52l-2.19.81c-1,.82-.86,1.92-1,3.19l3.61,1.49s2.66-2.71,2.65-2.73S106.69,215.22,105.28,215.52Z"/><path class="cls-1" d="M145.83,219.23l2.1-1c.86-.92.67-2,.72-3.28l-3.74-1.13s-2.38,3-2.37,3S144.46,219.67,145.83,219.23Z"/><path class="cls-14" d="M116.62,138.46l-2-1.26c-1.23-.25-2.05.48-3.16,1.1l1,3.78s3.77.48,3.78.47S117.71,139.4,116.62,138.46Z"/><path class="cls-13" d="M114,161.77l-.35,2.31c.27,1.22,1.27,1.68,2.3,2.43l3-2.43s-1.1-3.64-1.12-3.65S114.41,160.39,114,161.77Z"/><path class="cls-14" d="M154.92,164l2.21-.76c1-.8.9-1.9,1.11-3.16l-3.57-1.58s-2.72,2.66-2.72,2.68S153.51,164.25,154.92,164Z"/><path class="cls-14" d="M75.57,195.1l-.74,2.22c.06,1.25,1,1.87,1.85,2.79l3.42-1.89s-.47-3.77-.49-3.78S76.21,193.81,75.57,195.1Z"/><path class="cls-1" d="M108.31,224.3l2.12,1c1.25.08,2-.76,3-1.53l-1.5-3.6s-3.8,0-3.81.06S107.09,223.53,108.31,224.3Z"/><path class="cls-14" d="M157.55,169.56l1-2.13c.09-1.25-.75-2-1.53-3l-3.6,1.5s0,3.8.06,3.81S156.78,170.77,157.55,169.56Z"/><path class="cls-13" d="M101.87,163.1l-2.31.38c-1.08.63-1.21,1.72-1.62,2.93l3.25,2.16s3.13-2.16,3.13-2.18S103.31,163.07,101.87,163.1Z"/><path class="cls-1" d="M77.65,223.67l0,2.34c.46,1.17,1.52,1.46,2.65,2.05L83,225.17s-1.66-3.42-1.68-3.42S77.84,222.24,77.65,223.67Z"/><path class="cls-1" d="M153.55,209l2-1.18c.79-1,.51-2,.46-3.32l-3.81-.84s-2.14,3.14-2.13,3.16S152.21,209.52,153.55,209Z"/><path class="cls-14" d="M134.15,147.61l-1.28-2c-1-.74-2.07-.4-3.34-.29l-.64,3.85s3.24,2,3.26,2S134.76,148.91,134.15,147.61Z"/><path class="cls-13" d="M94.45,183l-1.14,2c-.17,1.24.61,2,1.31,3.08l3.7-1.22s.24-3.79.22-3.8S95.31,181.81,94.45,183Z"/><path class="cls-14" d="M116.13,213.08l2,1.25c1.23.24,2.05-.49,3.16-1.12l-1-3.77s-3.77-.46-3.78-.45S115,212.15,116.13,213.08Z"/><path class="cls-13" d="M139.33,170.28l.19-2.32c-.35-1.21-1.38-1.59-2.45-2.28l-2.88,2.63s1.34,3.56,1.36,3.56S139,171.69,139.33,170.28Z"/><path class="cls-13" d="M90.58,191,89,192.69c-.5,1.15,0,2.1.43,3.32l3.89-.19s1.25-3.59,1.23-3.61S91.73,190.14,90.58,191Z"/><path class="cls-1" d="M115.69,221.88l2.08,1.08c1.24.14,2-.67,3-1.39l-1.32-3.67s-3.8-.14-3.81-.12S114.52,221,115.69,221.88Z"/><path class="cls-13" d="M132.73,175.45l.12-2.33c-.39-1.2-1.44-1.55-2.53-2.2l-2.79,2.73s1.46,3.51,1.48,3.51S132.46,176.86,132.73,175.45Z"/><path class="cls-15" d="M135.51,148.49c1.1-2.14.49-5.57,2.24-7.21a6.37,6.37,0,0,1,6.85-1.13c2.24,1,4.84,2.71,3.16,5.3-1.86,3.35-4.62,6.8-5.07,10.66a5,5,0,0,1-2.75,3.34,6.15,6.15,0,0,1-6.28.17c-2.54-1.59-3.3-3.51-2.33-6.34C131.94,151.5,134.42,150.63,135.51,148.49Z"/><path class="cls-16" d="M133.23,155.55c-.46-.56-.82-1.32-.23-3a5,5,0,0,1,1.36-1.45,10.16,10.16,0,0,0,2.71-3.09,11.61,11.61,0,0,0,1-3.75c.17-1.2.35-2.45.88-2.94a4.46,4.46,0,0,1,4.74-.78,6.57,6.57,0,0,1,2.36,1.53c.24.29.34.45,0,1l0,.06,0,.05c-.44.8-.94,1.6-1.46,2.45-1.62,2.62-3.45,5.59-3.84,8.91-.07.57-.77,1.32-1.79,1.9a4.34,4.34,0,0,1-4.32.22A5.72,5.72,0,0,1,133.23,155.55Z"/><path class="cls-17" d="M134.81,153.25c-.07-.08-.2-.24.05-1,.17-.18.57-.52.84-.76a11.92,11.92,0,0,0,3.18-3.68,13.31,13.31,0,0,0,1.16-4.35,10.9,10.9,0,0,1,.37-1.89,2.58,2.58,0,0,1,2.56-.36,9.71,9.71,0,0,1,1.06.55c-.33.57-.7,1.16-1.07,1.78-1.7,2.75-3.61,5.85-4.1,9.5a3,3,0,0,1-.86.66,2.48,2.48,0,0,1-2.35.25A3.56,3.56,0,0,1,134.81,153.25Z"/></g></svg>