<svg xmlns="http://www.w3.org/2000/svg" viewBox="0 0 252 252"><defs><style>.cls-1{isolation:isolate;}.cls-2{fill:#dec63e;}.cls-3,.cls-6{fill:#999998;}.cls-3{mix-blend-mode:overlay;}.cls-4{fill:#caca36;}.cls-5{mix-blend-mode:screen;}.cls-12,.cls-13,.cls-16,.cls-19,.cls-7,.cls-9{mix-blend-mode:multiply;}.cls-16,.cls-8{fill:#f9e178;}.cls-9{fill:#d8b523;}.cls-10{fill:#fff9e9;}.cls-11{fill:#fbd14b;}.cls-12{fill:#fce7ae;}.cls-13{fill:#fff4d7;}.cls-14{fill:#fffefd;}.cls-15{fill:#fff9ce;}.cls-17{fill:#fff7e6;}.cls-18{fill:#fff4e1;}.cls-19{fill:#fcf3de;}</style></defs><g class="cls-1"><g id="Layer_10" data-name="Layer 10"><polygon class="cls-2" points="196.2 157.38 192 165.38 196.01 173.47 190.74 180.8 193.43 189.42 186.98 195.72 188.07 204.67 180.56 209.66 180.22 214.22 179.89 218.66 171.5 221.97 168.81 230.58 159.88 231.75 155.03 239.34 149.68 236.83 147.31 242.23 142.33 239.03 139.3 244.12 134.73 240.36 131.18 245.08 127.01 240.88 123.03 245.25 119.25 240.71 113.34 244.53 108.58 239.35 102.23 242.39 98.21 236.62 91.49 238.7 88.44 232.36 81.45 233.26 79.64 226.46 72.63 225.92 71.27 217.52 63.69 213.66 64.58 205.2 58.14 199.65 60.81 191.56 55.54 184.88 59.53 177.37 55.32 169.97 60.32 163.07 57.07 155.2 61.37 150.38 62.74 148.84 60.08 140.75 66.1 134.71 63.72 126.52 69.83 120.57 67.4 112.4 73.34 106.29 70.54 98.24 75.78 93.68 72.31 87.65 77.45 82.98 73.98 76.94 79.23 72.39 76.06 66.2 81.62 62.04 79.06 55.58 85.07 52.1 83.58 45.23 90.22 42.89 90.21 35.85 97.19 34.98 98.75 28.12 105.72 28.94 109.02 22.73 115.47 25.49 120.51 20.59 126.05 25.21 132.48 21.94 136.62 27.86 142.85 26.51 143.67 26.33 146.21 33.08 153.42 33.33 154.24 40.5 161.16 42.53 160.1 49.67 167.12 54.59 166.04 63.11 172.89 68.28 171.52 76.75 178.19 82.14 176.53 90.57 183.02 96.18 183 96.3 181.08 104.54 187.38 110.37 185.28 119.16 191.43 125.77 188.84 134.42 194.52 141.44 191.22 149.85 196.2 157.38"/><polygon class="cls-3" points="92.69 69.78 87.98 72.5 89.99 77.56 85.63 80.83 88.12 85.68 84 89.25 86.72 93.97 82.69 97.64 85.41 102.36 81.3 105.94 83.5 112.25 78.84 117.04 80.74 123.44 75.96 128.11 77.82 134.53 73.11 139.26 75.19 145.61 70.74 150.6 73.3 156.77 69.38 162.17 72.67 167.97 69.54 173.86 73.68 179.09 71.58 185.43 76.63 189.79 75.94 196.42 81.87 199.45 82.94 206.03 88.44 206.45 89.86 211.78 95.33 211.08 97.72 216.05 103 214.41 106.14 218.94 111.12 216.56 114.85 220.62 119.49 217.62 122.45 221.18 125.57 217.76 128.84 221.05 131.63 217.35 135.21 220.29 137.58 216.31 141.48 218.82 143.34 214.58 147.53 216.55 151.34 210.6 158.34 209.68 160.45 202.93 167.02 200.34 167.55 193.28 173.44 189.37 172.58 182.35 177.64 177.41 175.53 170.66 179.66 164.91 176.52 158.57 179.81 152.3 175.91 146.4 178.49 139.81 174.04 134.3 176.07 127.52 171.25 122.34 172.9 115.45 167.96 110.88 169.48 104.33 164.39 99.92 165.69 93.32 160.46 89.09 161.54 82.45 156.16 78.4 157.01 71.73 151.51 67.86 152.34 62.27 146.91 60.68 146.28 55.06 140.62 54.86 138.63 49.57 133.1 50.77 129.86 46.14 124.82 48.7 120.48 45.07 116.53 48.91 111.47 46.74 108.89 51.62 103.42 50.98 102.19 56.35 96.72 57.04 96.73 62.55 91.53 64.39 92.69 69.78"/><path class="cls-4" d="M191.22,149.85l3.3-8.41-5.68-7,2.59-8.65-6.15-6.61,2.1-8.79-6.3-5.83L183,96.3l0-.12-6.49-5.61,1.66-8.43-6.67-5.39,1.37-8.47L166,63.11l1.08-8.52-7-4.92,1.06-7.14-6.92-2-.82-7.17-7.21-.25-2.54-6.75-.82.18-6.23,1.35-4.14-5.92-6.43,3.27-5.54-4.62-5,4.9L109,22.72l-3.3,6.22-7-.82L97.19,35l-7,.87v7l-6.63,2.34,1.48,6.87-6,3.48L81.62,62l-5.56,4.17,3.17,6.18L74,76.94l3.47,6-5.14,4.67,3.47,6-5.24,4.56,2.8,8.05L67.4,112.4l2.42,8.17-6.1,6,2.38,8.19-6,6,2.66,8.09-1.38,1.54-4.29,4.82,3.25,7.87-5,6.9,4.21,7.4-4,7.51,5.27,6.68-2.67,8.09,6.44,5.55-.89,8.46,7.58,3.86,1.36,8.4,7,.54,1.81,6.8,7-.9,3,6.34,6.72-2.08,4,5.77,6.35-3,4.76,5.18,5.91-3.82,3.78,4.54,4-4.37,4.17,4.2,3.55-4.72,4.57,3.76,3-5.09,5,3.2,2.38-5.4,5.35,2.52,4.85-7.61,8.93-1.16L171.5,222l8.39-3.31.33-4.44.34-4.56,7.51-5L187,195.72l6.45-6.3-2.69-8.62,5.27-7.33-4-8.09,4.2-8Zm-5.42-1.22,4.6,7L186.52,163l3.7,7.47-4.87,6.77,2.49,8-6,5.81,1,8.27L176,203.86l-.62,8.31-.16.06-7.58,3-2.48,8-8.26,1.08-4.48,7L147.43,229l-2.19,5L140.65,231l-2.8,4.69-4.21-3.47-3.29,4.36-3.85-3.87-3.68,4-3.49-4.2-5.46,3.53-4.39-4.78-5.87,2.81-3.71-5.33-6.2,1.92-2.82-5.85-6.45.82-1.67-6.27-6.48-.5L75,211.13l-7-3.57.83-7.82-5.95-5.13,2.47-7.46L60.49,181l3.7-6.94L60.3,167.2l4.62-6.36-3-7.27,2.8-3.14,2.43-2.73-2.45-7.48,5.56-5.58-2.2-7.56,5.64-5.49L71.45,114l5.48-5.64L74.35,101l4.84-4.22L76,91.19l4.74-4.32-3.2-5.57,4.85-4.2-2.93-5.72,5.13-3.84-2.37-6,5.56-3.21L86.4,52l6.13-2.16v-6.5l6.44-.8,1.44-6.34,6.44.76,3-5.74,6,2.55,4.65-4.52,5.11,4.27,5.94-3L135.37,36l6.52-1.41,2.34,6.23,1.57.05,5.09.18.75,6.62,6.4,1.88-1,6.59,6.49,4.55-1,7.87,6.33,4.76-1.27,7.83,6.17,5-1.45,7.36-.08.42,6,5.18-1.79,7.73,5.82,5.38-1.94,8.11,5.68,6.11-2.4,8,5.25,6.48Z"/><g class="cls-5"><path class="cls-6" d="M80.83,95.74c.6-4.22,2.86-7.38,5-7.07s3.48,4,2.88,8.19-2.86,7.38-5,7.07S80.23,100,80.83,95.74Z"/><path class="cls-6" d="M82.39,81.59a4.44,4.44,0,1,1,3.78,5A4.46,4.46,0,0,1,82.39,81.59Z"/></g><g class="cls-7"><path class="cls-8" d="M151.39,216.75c3.27-2.71,7.07-3.54,8.48-1.84s-.1,5.29-3.37,8-7.08,3.54-8.49,1.84S148.11,219.47,151.39,216.75Z"/><path class="cls-8" d="M162.06,207.33a4.44,4.44,0,1,1-.59,6.26A4.44,4.44,0,0,1,162.06,207.33Z"/></g><path class="cls-9" d="M134.08,34.77c.31,1.92-5.67,4.47-13.34,5.69s-14.14.67-14.44-1.25,5.66-4.47,13.33-5.69S133.77,32.85,134.08,34.77Z"/><polygon class="cls-9" points="81.13 141.63 85.56 144.9 88.69 140.42 85.22 142.96 81.13 141.63"/><polygon class="cls-9" points="90.41 164.76 94.84 168.03 97.97 163.55 94.5 166.1 90.41 164.76"/><polygon class="cls-9" points="90.07 146.55 94.5 149.81 97.63 145.34 94.16 147.88 90.07 146.55"/><polygon class="cls-9" points="86.93 153.89 91.36 157.15 94.49 152.68 91.02 155.22 86.93 153.89"/><polygon class="cls-9" points="72.12 157.27 76.55 160.53 79.68 156.06 76.21 158.6 72.12 157.27"/><polygon class="cls-9" points="71.92 123.32 76.35 126.59 79.48 122.11 76.01 124.65 71.92 123.32"/><polygon class="cls-9" points="96.03 123.44 100.46 126.71 103.59 122.23 100.12 124.78 96.03 123.44"/><polygon class="cls-9" points="101.68 142.39 106.11 145.65 109.24 141.18 105.77 143.72 101.68 142.39"/><polygon class="cls-9" points="107.99 130.96 112.42 134.22 115.55 129.75 112.08 132.29 107.99 130.96"/><polygon class="cls-9" points="114.1 141.95 118.53 145.21 121.66 140.74 118.19 143.28 114.1 141.95"/><polygon class="cls-9" points="118.16 117.87 122.59 121.14 125.72 116.66 122.25 119.2 118.16 117.87"/><polygon class="cls-9" points="107.46 108.65 111.89 111.91 115.02 107.44 111.55 109.98 107.46 108.65"/><polygon class="cls-9" points="98.49 114.58 102.92 117.85 106.05 113.38 102.58 115.92 98.49 114.58"/><polygon class="cls-9" points="88.22 102.49 92.65 105.76 95.78 101.28 92.31 103.83 88.22 102.49"/><polygon class="cls-9" points="74.58 109.33 79.01 112.6 82.14 108.12 78.67 110.66 74.58 109.33"/><polygon class="cls-9" points="83.53 69.47 87.96 72.74 91.09 68.27 87.62 70.81 83.53 69.47"/><polygon class="cls-9" points="96.97 80.83 101.4 84.1 104.53 79.62 101.06 82.17 96.97 80.83"/><polygon class="cls-9" points="98.3 94.58 102.73 97.84 105.86 93.37 102.39 95.91 98.3 94.58"/><polygon class="cls-9" points="114.09 82.15 118.52 85.42 121.65 80.94 118.18 83.48 114.09 82.15"/><polygon class="cls-9" points="120.33 91.06 124.77 94.32 127.89 89.85 124.42 92.39 120.33 91.06"/><polygon class="cls-9" points="133.96 86.46 138.39 89.72 141.52 85.25 138.05 87.79 133.96 86.46"/><polygon class="cls-9" points="136.45 76.51 140.88 79.78 144.01 75.3 140.54 77.85 136.45 76.51"/><polygon class="cls-9" points="146.65 86.85 151.08 90.12 154.21 85.64 150.74 88.19 146.65 86.85"/><polygon class="cls-9" points="140.36 102.27 144.79 105.53 147.92 101.06 144.45 103.6 140.36 102.27"/><polygon class="cls-9" points="152.2 96.92 156.64 100.19 159.76 95.71 156.29 98.25 152.2 96.92"/><polygon class="cls-9" points="163.82 106.13 168.25 109.4 171.38 104.92 167.91 107.47 163.82 106.13"/><polygon class="cls-9" points="167.59 85.49 172.02 88.76 175.15 84.29 171.68 86.83 167.59 85.49"/><polygon class="cls-9" points="160.47 76.73 164.9 79.99 168.03 75.52 164.56 78.06 160.47 76.73"/><polygon class="cls-9" points="157.23 89.14 161.66 92.4 164.79 87.93 161.32 90.47 157.23 89.14"/><polygon class="cls-9" points="171.99 99.2 176.42 102.47 179.55 97.99 176.08 100.53 171.99 99.2"/><polygon class="cls-9" points="157.16 64.48 161.59 67.75 164.72 63.27 161.25 65.81 157.16 64.48"/><polygon class="cls-9" points="148.26 72.64 152.69 75.91 155.82 71.43 152.35 73.97 148.26 72.64"/><polygon class="cls-9" points="140.19 57.04 144.62 60.31 147.75 55.84 144.28 58.38 140.19 57.04"/><polygon class="cls-9" points="138.98 49.49 143.41 52.75 146.54 48.28 143.07 50.82 138.98 49.49"/><polygon class="cls-9" points="152.49 51.61 156.92 54.87 160.05 50.4 156.58 52.94 152.49 51.61"/><polygon class="cls-9" points="141.55 38.48 145.98 41.74 149.11 37.27 145.64 39.81 141.55 38.48"/><polygon class="cls-9" points="128.03 39.96 132.46 43.23 135.59 38.76 132.12 41.3 128.03 39.96"/><polygon class="cls-9" points="112.98 45.03 117.41 48.3 120.54 43.82 117.07 46.36 112.98 45.03"/><polygon class="cls-9" points="99.96 43.88 104.39 47.15 107.52 42.68 104.05 45.22 99.96 43.88"/><polygon class="cls-9" points="97.85 34.78 102.29 38.05 105.42 33.57 101.94 36.12 97.85 34.78"/><polygon class="cls-9" points="107.83 28.86 112.26 32.13 115.39 27.65 111.92 30.19 107.83 28.86"/><polygon class="cls-9" points="133.57 30.94 138 34.2 141.13 29.73 137.66 32.27 133.57 30.94"/><polygon class="cls-9" points="134.78 66.07 139.22 69.33 142.34 64.86 138.88 67.4 134.78 66.07"/><polygon class="cls-9" points="126.72 56.04 131.15 59.31 134.28 54.84 130.81 57.38 126.72 56.04"/><polygon class="cls-9" points="120.58 68.34 125.01 71.6 128.14 67.13 124.67 69.67 120.58 68.34"/><polygon class="cls-9" points="113.03 51.25 117.46 54.52 120.59 50.05 117.12 52.59 113.03 51.25"/><polygon class="cls-9" points="106.41 68.61 110.84 71.88 113.97 67.41 110.5 69.95 106.41 68.61"/><polygon class="cls-9" points="102.26 51.85 106.69 55.11 109.82 50.64 106.35 53.18 102.26 51.85"/><polygon class="cls-9" points="96.15 62.09 100.58 65.36 103.71 60.88 100.24 63.43 96.15 62.09"/><polygon class="cls-9" points="89.56 51.89 94 55.16 97.13 50.68 93.65 53.22 89.56 51.89"/><polygon class="cls-9" points="81.95 59.59 86.38 62.86 89.51 58.39 86.04 60.93 81.95 59.59"/><polygon class="cls-9" points="132.35 146.63 136.78 149.9 139.91 145.42 136.44 147.97 132.35 146.63"/><polygon class="cls-9" points="121.33 153.38 125.76 156.65 128.89 152.17 125.42 154.71 121.33 153.38"/><polygon class="cls-9" points="126.81 169.49 131.24 172.75 134.37 168.28 130.9 170.82 126.81 169.49"/><polygon class="cls-9" points="132.9 159.06 137.33 162.33 140.46 157.85 136.99 160.4 132.9 159.06"/><polygon class="cls-9" points="142.73 173.92 147.16 177.19 150.29 172.72 146.82 175.26 142.73 173.92"/><polygon class="cls-9" points="146.54 155.8 150.97 159.06 154.1 154.59 150.63 157.13 146.54 155.8"/><polygon class="cls-9" points="149.62 167.83 154.06 171.1 157.19 166.62 153.71 169.16 149.62 167.83"/><polygon class="cls-9" points="160.48 149.11 164.91 152.38 168.04 147.91 164.57 150.45 160.48 149.11"/><polygon class="cls-9" points="177.33 140.73 181.76 144 184.89 139.52 181.42 142.07 177.33 140.73"/><polygon class="cls-9" points="178.23 152.08 182.66 155.35 185.79 150.87 182.32 153.41 178.23 152.08"/><polygon class="cls-9" points="160.24 171.92 164.67 175.18 167.8 170.71 164.33 173.25 160.24 171.92"/><polygon class="cls-9" points="174.98 167.57 179.41 170.84 182.54 166.37 179.07 168.91 174.98 167.57"/><polygon class="cls-9" points="177.6 184 182.04 187.26 185.16 182.79 181.69 185.33 177.6 184"/><polygon class="cls-9" points="164.78 186.72 169.21 189.99 172.34 185.51 168.87 188.06 164.78 186.72"/><polygon class="cls-9" points="147.53 179.69 151.96 182.95 155.09 178.48 151.62 181.02 147.53 179.69"/><polygon class="cls-9" points="145.48 191.11 149.91 194.38 153.04 189.91 149.57 192.45 145.48 191.11"/><polygon class="cls-9" points="131.04 182.32 135.47 185.59 138.6 181.11 135.13 183.66 131.04 182.32"/><polygon class="cls-9" points="132.87 193.81 137.3 197.07 140.43 192.6 136.96 195.14 132.87 193.81"/><polygon class="cls-9" points="125.23 211.58 129.66 214.84 132.79 210.37 129.32 212.91 125.23 211.58"/><polygon class="cls-9" points="120.41 201.75 124.84 205.01 127.97 200.54 124.5 203.08 120.41 201.75"/><polygon class="cls-9" points="109.88 218 114.31 221.27 117.44 216.8 113.97 219.34 109.88 218"/><polygon class="cls-9" points="109.82 207.81 114.25 211.07 117.38 206.6 113.91 209.14 109.82 207.81"/><polygon class="cls-9" points="107.14 231.85 111.57 235.12 114.7 230.64 111.23 233.18 107.14 231.85"/><polygon class="cls-9" points="98.25 224.76 102.68 228.02 105.81 223.55 102.34 226.09 98.25 224.76"/><polygon class="cls-9" points="118.51 233.1 122.94 236.36 126.08 231.89 122.6 234.43 118.51 233.1"/><polygon class="cls-9" points="122.36 220.91 126.79 224.17 129.92 219.7 126.45 222.24 122.36 220.91"/><polygon class="cls-9" points="132.28 236.57 136.71 239.83 139.84 235.36 136.37 237.9 132.28 236.57"/><polygon class="cls-9" points="134.71 218.93 139.14 222.2 142.27 217.72 138.8 220.27 134.71 218.93"/><polygon class="cls-9" points="140.06 208.23 144.49 211.5 147.62 207.02 144.15 209.56 140.06 208.23"/><polygon class="cls-9" points="143.22 214.67 147.65 217.93 150.78 213.46 147.31 216 143.22 214.67"/><polygon class="cls-9" points="152.85 200.93 157.28 204.2 160.41 199.73 156.94 202.27 152.85 200.93"/><polygon class="cls-9" points="160 221.42 164.43 224.68 167.56 220.21 164.09 222.75 160 221.42"/><polygon class="cls-9" points="171.86 202.53 176.29 205.79 179.42 201.32 175.95 203.86 171.86 202.53"/><polygon class="cls-9" points="174.3 193.53 178.73 196.8 181.86 192.32 178.39 194.87 174.3 193.53"/><polygon class="cls-9" points="123.33 134.09 127.76 137.35 130.89 132.88 127.42 135.42 123.33 134.09"/><polygon class="cls-9" points="88.44 134.08 92.87 137.35 96 132.87 92.53 135.41 88.44 134.08"/><polygon class="cls-9" points="83.95 116.91 88.39 120.17 91.51 115.7 88.04 118.24 83.95 116.91"/><polygon class="cls-9" points="70.5 136.44 74.93 139.7 78.06 135.23 74.59 137.77 70.5 136.44"/><polygon class="cls-9" points="65.15 148.93 69.58 152.19 72.71 147.72 69.24 150.26 65.15 148.93"/><polygon class="cls-9" points="61.79 164.57 66.22 167.84 69.35 163.36 65.88 165.9 61.79 164.57"/><polygon class="cls-9" points="59.06 171.76 63.49 175.02 66.62 170.55 63.15 173.09 59.06 171.76"/><polygon class="cls-9" points="60.85 182.95 65.28 186.22 68.41 181.75 64.94 184.29 60.85 182.95"/><polygon class="cls-9" points="66.77 195.74 71.2 199.01 74.33 194.53 70.86 197.07 66.77 195.74"/><polygon class="cls-9" points="74.52 207.56 78.95 210.83 82.08 206.35 78.61 208.89 74.52 207.56"/><polygon class="cls-9" points="81.13 195.43 85.56 198.7 88.69 194.22 85.22 196.77 81.13 195.43"/><polygon class="cls-9" points="89.67 200.34 94.1 203.6 97.23 199.13 93.76 201.67 89.67 200.34"/><polygon class="cls-9" points="84.59 211.05 89.02 214.32 92.15 209.84 88.68 212.39 84.59 211.05"/><polygon class="cls-9" points="74.78 221.62 79.22 224.89 82.34 220.42 78.87 222.96 74.78 221.62"/><polygon class="cls-9" points="85.7 228.75 90.13 232.01 93.26 227.54 89.79 230.08 85.7 228.75"/><polygon class="cls-9" points="91.23 219.9 95.66 223.16 98.79 218.69 95.32 221.23 91.23 219.9"/><polygon class="cls-9" points="99.37 207.49 103.8 210.76 106.93 206.28 103.46 208.82 99.37 207.49"/><polygon class="cls-9" points="101.66 194.82 106.09 198.09 109.22 193.61 105.75 196.15 101.66 194.82"/><polygon class="cls-9" points="101.14 183.35 105.57 186.61 108.7 182.14 105.22 184.68 101.14 183.35"/><polygon class="cls-9" points="99.41 172.52 103.84 175.78 106.97 171.31 103.5 173.85 99.41 172.52"/><polygon class="cls-9" points="97.23 158.91 101.66 162.17 104.79 157.7 101.32 160.24 97.23 158.91"/><polygon class="cls-9" points="105.7 152.88 110.13 156.14 113.26 151.67 109.79 154.21 105.7 152.88"/><polygon class="cls-9" points="112.62 165.19 117.05 168.46 120.18 163.98 116.71 166.52 112.62 165.19"/><polygon class="cls-9" points="115.98 180.97 120.41 184.24 123.54 179.77 120.07 182.31 115.98 180.97"/><polygon class="cls-9" points="115.81 191.88 120.24 195.15 123.37 190.67 119.9 193.21 115.81 191.88"/><polygon class="cls-9" points="77.79 184.3 82.22 187.57 85.35 183.09 81.88 185.63 77.79 184.3"/><polygon class="cls-9" points="92.32 189.67 96.75 192.94 99.88 188.46 96.41 191 92.32 189.67"/><polygon class="cls-9" points="78.23 177.25 82.66 180.52 85.79 176.04 82.32 178.59 78.23 177.25"/><polygon class="cls-9" points="79.15 168.55 83.58 171.82 86.71 167.34 83.24 169.88 79.15 168.55"/><polygon class="cls-9" points="90.44 177.86 94.87 181.13 98 176.65 94.53 179.19 90.44 177.86"/><polygon class="cls-9" points="135.01 126.13 139.44 129.4 142.57 124.92 139.1 127.47 135.01 126.13"/><polygon class="cls-9" points="139.31 112.25 143.74 115.51 146.87 111.04 143.4 113.58 139.31 112.25"/><polygon class="cls-9" points="131.27 117.42 135.71 120.69 138.83 116.21 135.36 118.75 131.27 117.42"/><polygon class="cls-9" points="121.12 101.89 125.55 105.16 128.68 100.69 125.21 103.23 121.12 101.89"/><polygon class="cls-9" points="155.55 128.94 159.98 132.21 163.11 127.73 159.64 130.27 155.55 128.94"/><polygon class="cls-9" points="158.94 114.79 163.37 118.06 166.5 113.58 163.03 116.12 158.94 114.79"/><polygon class="cls-9" points="168.41 134.95 172.84 138.21 175.97 133.74 172.5 136.28 168.41 134.95"/><polygon class="cls-9" points="144.71 137.06 149.14 140.32 152.27 135.85 148.8 138.39 144.71 137.06"/><polygon class="cls-9" points="168.25 158.1 172.68 161.37 175.81 156.9 172.34 159.44 168.25 158.1"/><polygon class="cls-9" points="183.39 160.66 187.82 163.93 190.95 159.45 187.48 161.99 183.39 160.66"/><polygon class="cls-9" points="180.04 125.31 184.47 128.58 187.6 124.11 184.13 126.65 180.04 125.31"/><polygon class="cls-9" points="176.31 112.01 180.74 115.28 183.87 110.81 180.4 113.35 176.31 112.01"/><polygon class="cls-10" points="191.92 156.06 187.96 163.6 191.74 171.24 186.76 178.15 189.31 186.28 183.22 192.23 184.25 200.68 177.16 205.39 176.84 209.69 176.53 213.88 168.62 217 166.08 225.13 157.65 226.22 153.07 233.4 148.03 231.02 145.78 236.12 141.09 233.1 138.24 237.9 133.92 234.35 130.57 238.81 126.64 234.85 122.88 238.96 119.31 234.68 113.73 238.29 109.24 233.4 103.25 236.27 99.46 230.82 93.12 232.79 90.24 226.81 83.65 227.65 81.94 221.23 75.32 220.73 74.03 212.8 66.89 209.16 67.73 201.17 61.65 195.94 64.17 188.31 59.19 182 62.96 174.91 58.99 167.93 63.71 161.43 60.64 154 64.69 149.45 65.99 148 63.48 140.36 69.16 134.66 66.92 126.94 72.67 121.32 70.39 113.61 76 107.84 73.35 100.25 78.29 95.95 75.02 90.26 79.87 85.85 76.6 80.15 81.55 75.86 78.56 70.02 83.81 66.09 81.39 60 87.06 56.72 85.66 50.23 91.92 48.02 91.91 41.38 98.49 40.56 99.97 34.09 106.55 34.86 109.66 29 115.75 31.6 120.5 26.98 125.73 31.34 131.79 28.26 135.71 33.84 141.58 32.56 142.35 32.4 144.75 38.77 151.56 39.01 152.32 45.77 158.85 47.68 157.85 54.42 164.48 59.07 163.46 67.11 169.93 71.98 168.63 79.97 174.93 85.06 173.37 93.01 179.49 98.31 179.47 98.42 177.66 106.19 183.6 111.7 181.62 119.99 187.42 126.22 184.97 134.39 190.34 141.01 187.22 148.95 191.92 156.06"/><polygon class="cls-11" points="188.68 155.05 184.89 162.25 188.5 169.55 183.76 176.15 186.19 183.91 180.37 189.58 181.36 197.65 174.59 202.15 174.28 206.26 173.98 210.25 166.43 213.24 164.01 220.99 155.96 222.04 151.59 228.89 146.77 226.62 144.63 231.49 140.15 228.61 137.43 233.18 133.31 229.8 130.11 234.05 126.35 230.27 122.76 234.2 119.36 230.11 114.03 233.56 109.75 228.89 104.03 231.63 100.4 226.43 94.35 228.31 91.6 222.6 85.31 223.4 83.68 217.28 77.36 216.8 76.13 209.23 69.31 205.75 70.11 198.13 64.31 193.12 66.71 185.84 61.96 179.82 65.56 173.06 61.77 166.39 66.28 160.18 63.34 153.09 67.21 148.74 68.45 147.36 66.06 140.06 71.48 134.63 69.34 127.25 74.83 121.89 72.65 114.53 78 109.02 75.48 101.78 80.2 97.66 77.07 92.23 81.7 88.02 78.58 82.59 83.31 78.49 80.45 72.92 85.46 69.16 83.15 63.34 88.57 60.21 87.23 54.02 93.21 51.91 93.2 45.57 99.48 44.79 100.89 38.61 107.17 39.34 110.14 33.75 115.96 36.23 120.5 31.82 125.48 35.99 131.27 33.04 135.01 38.37 140.62 37.15 141.36 36.99 143.65 43.08 150.14 43.3 150.88 49.76 157.11 51.59 156.16 58.02 162.48 62.46 161.51 70.13 167.68 74.78 166.44 82.42 172.46 87.27 170.96 94.86 176.81 99.92 176.79 100.03 175.06 107.45 180.73 112.7 178.84 120.62 184.38 126.57 182.05 134.36 187.17 140.69 184.19 148.27 188.68 155.05"/><path class="cls-12" d="M161.51,70.13l.61-4.79.36-2.88L156.15,58l1-6.42-6.24-1.83-.73-6.46-6.49-.23L141.36,37l-.74.15L135,38.37,131.28,33l-5.8,3-5-4.17-1,1L116,36.23l-5.82-2.49-3,5.6-6.28-.73-1.41,6.18-6.28.78v6.34l-6,2.11,1.33,6.19-5.41,3.13,2.31,5.82-5,3.75,2.86,5.58-4.73,4.1L81.7,88l-4.63,4.21,3.13,5.43-4.72,4.12L78,109l-5.36,5.51,2.18,7.35-5.49,5.37.08.3,2.06,7.08-5.42,5.43,2.39,7.3-1.23,1.38-3.88,4.35,2.94,7.09-4.51,6.21,3.79,6.66L62,179.83l4.75,6-2.4,7.28,5.8,5-.8,7.63,6.82,3.48,1.23,7.57,6.32.48,1.63,6.12,6.29-.8,2.75,5.71,6.05-1.88,3.63,5.2,5.71-2.74,4.29,4.67,5.33-3.45,3.4,4.1,3.59-3.94,3.75,3.78,3.21-4.25,4.12,3.39,2.72-4.59,4.48,2.89,2.14-4.87,4.82,2.27L156,222l8-1,2.42-7.76,7.56-3,.29-4,.31-4.11,6.77-4.49-.33-2.72-.66-5.35,5.82-5.67-2.43-7.76,4.74-6.61-3.61-7.29,3.8-7.2-4.5-6.78,3-7.58-5.11-6.33,2.33-7.79-5.54-5.95,1.89-7.91-5.67-5.26,1.72-7.42,0-.11L171,94.86l1.49-7.59-6-4.86,1.24-7.63Zm1.06,11L161.47,88l5.36,4.33-1.33,6.78,5.22,4.5,0,.11-1.53,6.61,5.05,4.69-1.68,7.06,4.94,5.31-2.09,7L180,140l-2.66,6.75,4,6-3.38,6.43,3.22,6.51-4.24,5.88,2.17,6.92-5.19,5.07.88,7.19L172.88,192l-4.15,2.76-.27,3.67L168.2,202l-6.75,2.65-2.16,6.93-7.18.94-3.9,6.1-4.29-2L142,221l-4-2.57-2.44,4.09-3.67-3-2.86,3.8-3.35-3.37-3.19,3.51-3-3.66-4.76,3.07-3.82-4.15-5.1,2.44-3.23-4.64-5.41,1.67L94.7,213l-5.61.72-1.46-5.47L82,207.84l-1.1-6.75L74.82,198l.72-6.81-5.18-4.46,2.14-6.5-4.23-5.37,3.21-6-3.38-6,4-5.54L69.5,151,73,147.14l1.1-1.23-2.13-6.51,4.83-4.85L74.85,128l4.4-4.28.5-.5-2-6.56,4.78-4.92-2.26-6.46,4.21-3.67-2.79-4.84L85.88,93l-2.79-4.85,4.21-3.65-2.54-5,4.47-3.35L87.17,71,92,68.16l-1.19-5.52,5.33-1.88V55.11l5.61-.7L103,48.89l5.61.66,2.64-5,5.19,2.22,4-3.93,3.43,2.87,1,.85,5.17-2.64,3.32,4.76,5-1.08.66-.14,2,5.42,5.8.2.65,5.76,5.56,1.63-.85,5.74.31.22,5.34,3.74L157.07,77Z"/><polygon class="cls-13" points="154.27 126.79 154.62 125.76 154.62 125.76 154.62 125.75 147.84 123.28 147.61 120.01 147.33 116.08 147.33 116.08 147.33 116.08 140.12 116.4 136.89 109.94 136.88 109.94 136.88 109.94 132.07 112.18 130.34 112.99 124.89 108.25 124.89 108.25 124.89 108.25 123.22 110.08 120.02 113.58 113.17 111.3 110.69 118.08 103.49 118.59 103.49 118.59 103.49 118.59 103.81 125.8 101.73 126.84 97.35 129.03 98.23 130.92 100.4 135.57 95.67 141.02 95.91 141.25 100.99 145.9 99.3 150.99 98.71 152.75 98.71 152.75 98.71 152.75 105.49 155.22 105.76 159.01 106 162.42 106 162.42 106 162.43 110.27 162.24 113.21 162.1 116.44 168.56 119.37 167.19 122.98 165.51 128.43 170.25 128.43 170.25 128.44 170.25 129.82 168.74 133.31 164.93 140.16 167.21 142.64 160.43 149.83 159.92 149.83 159.92 149.84 159.92 149.52 152.7 153.71 150.6 155.97 149.48 155.97 149.47 155.97 149.47 152.93 142.93 155.33 140.16 157.66 137.48 156.6 136.5 152.34 132.6 154.27 126.79"/><polygon class="cls-10" points="154.2 101.82 151.71 118.77 157.52 130.83 152.35 144.32 155.68 160.51 148.62 168.51 148.97 186.36 141.1 187.62 138.4 204.39 130.91 198.76 125.58 211.93 119.62 200.21 112.47 207.75 108.94 191.77 101.06 192.56 100.5 174.74 93.09 168.62 95.58 151.67 89.76 139.6 94.94 126.11 91.61 109.92 98.67 101.92 98.32 84.08 106.19 82.81 108.89 66.04 116.38 71.67 121.71 58.5 127.66 70.22 134.82 62.68 138.35 78.66 146.23 77.87 146.79 95.69 154.2 101.82"/><polygon class="cls-14" points="143.17 113.87 141.58 124.7 145.3 132.41 141.99 141.03 144.12 151.39 139.61 156.5 139.83 167.91 134.8 168.71 133.07 179.43 128.29 175.83 124.88 184.25 121.07 176.76 116.5 181.58 114.25 171.37 109.21 171.87 108.85 160.48 104.11 156.56 105.71 145.73 101.99 138.02 105.3 129.4 103.17 119.04 107.68 113.93 107.45 102.53 112.48 101.72 114.22 91 119 94.6 122.41 86.18 126.21 93.67 130.79 88.85 133.04 99.06 138.08 98.56 138.44 109.95 143.17 113.87"/><path class="cls-15" d="M154.2,101.83l-7.42-6.14-.55-17.82-7.88.79-3.54-16-7.15,7.54-6-11.72-5.33,13.18-7.49-5.63-2.7,16.77-7.88,1.25.35,17.86-7,8,3.33,16.2L89.77,139.6l5.81,12.07-2.49,17,7.41,6.12.56,17.83,7.87-.8,3.54,16,7.15-7.54,6,11.72,5.33-13.17,7.48,5.64,2.71-16.78,7.87-1.26-.35-17.86,7.06-8-3.33-16.21,5.18-13.47-5.83-12.08Zm-5,41.49,3,14.41-6.28,7.12.31,15.89-7,1.12-2.42,14.95-6.66-5-4.75,11.72-5.3-10.43-6.36,6.71-3.14-14.22-7,.71L103,170.4,96.45,165l2.21-15.11-5.17-10.73,4.6-12-3-14.41,6.28-7.11L101.1,89.7l7-1.14,2.41-14.92,6.67,5,4.74-11.71,5.31,10.42,6.36-6.71,3.14,14.22,7-.69.5,15.85,6.59,5.47-2.21,15.08,5.17,10.75Z"/><ellipse class="cls-16" cx="169.46" cy="132.4" rx="8.54" ry="5.35" transform="translate(-29.28 50.25) rotate(-15.54)"/><path class="cls-17" d="M166.22,125.69c4.54-1.26,8.87,0,9.66,2.87s-2.25,6.17-6.79,7.44-8.87,0-9.66-2.87S161.68,127,166.22,125.69Z"/><path class="cls-18" d="M166.22,125.69c4.54-1.26,8.87,0,9.66,2.87s-2.25,6.17-6.79,7.44-8.87,0-9.66-2.87S161.68,127,166.22,125.69Z"/><path class="cls-14" d="M165.26,126.33c2.54-.7,5,0,5.39,1.6s-1.25,3.45-3.79,4.15-5,0-5.39-1.59S162.73,127,165.26,126.33Z"/><path class="cls-19" d="M166.22,125.69c-4.55,1.27-7.58,4.6-6.79,7.45s5.11,4.12,9.66,2.85,7.59-4.59,6.79-7.44S170.76,124.43,166.22,125.69Zm7.15,2.63c.64,2.29-1.81,5-5.46,6s-7.14,0-7.78-2.3,1.81-5,5.47-6S172.73,126,173.37,128.32Z"/><ellipse class="cls-16" cx="144.75" cy="63.22" rx="8.54" ry="5.35" transform="translate(5.22 137.26) rotate(-51.54)"/><path class="cls-17" d="M138.19,59.7c2.94-3.7,7.19-5.2,9.5-3.37s1.81,6.32-1.12,10-7.19,5.19-9.5,3.36S135.26,63.39,138.19,59.7Z"/><path class="cls-18" d="M138.19,59.7c2.94-3.7,7.19-5.2,9.5-3.37s1.81,6.32-1.12,10-7.19,5.19-9.5,3.36S135.26,63.39,138.19,59.7Z"/><path class="cls-14" d="M137.79,60.78c1.64-2.06,4-2.9,5.3-1.88s1,3.53-.62,5.59-4,2.9-5.31,1.88S136.16,62.84,137.79,60.78Z"/><path class="cls-19" d="M138.19,59.69c-2.93,3.7-3.43,8.18-1.12,10s6.56.33,9.49-3.37,3.44-8.17,1.13-10S141.13,56,138.19,59.69Zm7.33-2.07c1.86,1.48,1.46,5.08-.9,8.05s-5.78,4.19-7.65,2.71-1.45-5.09.91-8.06S143.66,56.14,145.52,57.62Z"/><ellipse class="cls-16" cx="156.93" cy="87.22" rx="8.54" ry="5.35" transform="translate(-8.97 155.86) rotate(-51.54)"/><path class="cls-17" d="M150.36,83.7c2.94-3.69,7.19-5.2,9.5-3.36s1.81,6.32-1.12,10-7.19,5.2-9.5,3.36S147.43,87.39,150.36,83.7Z"/><path class="cls-18" d="M150.36,83.7c2.94-3.69,7.19-5.2,9.5-3.36s1.81,6.32-1.12,10-7.19,5.2-9.5,3.36S147.43,87.39,150.36,83.7Z"/><path class="cls-14" d="M150,84.78c1.64-2.06,4-2.9,5.31-1.87s1,3.52-.63,5.58-4,2.91-5.3,1.88S148.33,86.84,150,84.78Z"/><path class="cls-19" d="M150.36,83.7c-2.93,3.7-3.43,8.18-1.12,10s6.56.34,9.5-3.36,3.44-8.18,1.12-10S153.3,80,150.36,83.7Zm7.33-2.08c1.86,1.48,1.46,5.08-.9,8.06s-5.78,4.19-7.65,2.7-1.45-5.08.91-8S155.83,80.14,157.69,81.62Z"/><ellipse class="cls-16" cx="164.7" cy="108.52" rx="8.54" ry="5.35" transform="translate(-22.71 170.01) rotate(-51.54)"/><path class="cls-17" d="M158.14,105c2.93-3.69,7.19-5.2,9.5-3.36s1.81,6.32-1.13,10-7.18,5.2-9.5,3.36S155.21,108.69,158.14,105Z"/><path class="cls-18" d="M158.14,105c2.93-3.69,7.19-5.2,9.5-3.36s1.81,6.32-1.13,10-7.18,5.2-9.5,3.36S155.21,108.69,158.14,105Z"/><path class="cls-14" d="M157.74,106.08c1.64-2.06,4-2.9,5.3-1.87s1,3.52-.63,5.58-4,2.91-5.3,1.88S156.1,108.14,157.74,106.08Z"/><path class="cls-19" d="M158.14,105c-2.94,3.7-3.44,8.18-1.12,10s6.56.34,9.49-3.36,3.44-8.18,1.13-10S161.07,101.31,158.14,105Zm7.33-2.08c1.86,1.48,1.46,5.08-.9,8.06s-5.79,4.19-7.65,2.7-1.45-5.08.91-8.05S163.6,101.44,165.47,102.92Z"/><path class="cls-16" d="M118.79,46.72c.2-4.71,2.76-8.43,5.71-8.3s5.18,4,5,8.76-2.76,8.43-5.71,8.3S118.59,51.43,118.79,46.72Z"/><ellipse class="cls-17" cx="122.1" cy="48.19" rx="8.54" ry="5.35" transform="translate(68.72 168.11) rotate(-87.54)"/><ellipse class="cls-18" cx="122.1" cy="48.19" rx="8.54" ry="5.35" transform="translate(68.72 168.11) rotate(-87.54)"/><path class="cls-14" d="M117.07,49.07c.11-2.63,1.54-4.71,3.18-4.64s2.89,2.26,2.78,4.89S121.49,54,119.84,54,117,51.7,117.07,49.07Z"/><path class="cls-19" d="M116.75,48c-.2,4.71,2,8.63,5,8.76s5.51-3.59,5.7-8.31-2-8.63-5-8.76S117,43.25,116.75,48Zm4.71-6c2.38.1,4.17,3.25,4,7.05s-2.22,6.78-4.6,6.68-4.16-3.26-4-7.05S119.09,41.87,121.46,42Z"/><path class="cls-16" d="M97.36,65.24c-2.61-3.93-2.72-8.44-.26-10.07s6.57.23,9.17,4.16,2.73,8.44.27,10.08S100,69.17,97.36,65.24Z"/><path class="cls-17" d="M96.44,67.44c-2.61-3.93-2.73-8.44-.26-10.07s6.56.23,9.17,4.16,2.72,8.44.26,10.07S99,71.37,96.44,67.44Z"/><path class="cls-18" d="M96.44,67.44c-2.61-3.93-2.73-8.44-.26-10.07s6.56.23,9.17,4.16,2.72,8.44.26,10.07S99,71.37,96.44,67.44Z"/><path class="cls-14" d="M97.34,68.16c-1.45-2.2-1.52-4.72-.14-5.63s3.66.13,5.12,2.33,1.52,4.71.15,5.62S98.8,70.35,97.34,68.16Z"/><path class="cls-19" d="M96.44,67.44c2.61,3.94,6.71,5.8,9.17,4.16s2.35-6.13-.26-10.07-6.71-5.8-9.18-4.16S93.84,63.51,96.44,67.44Zm.29-7.61c2-1.31,5.28.18,7.38,3.35s2.2,6.79.21,8.11S99,71.1,96.94,67.93,94.75,61.14,96.73,59.83Z"/><path class="cls-16" d="M87.56,82.82c-2.61-3.93-2.73-8.44-.27-10.07s6.57.23,9.18,4.17,2.72,8.44.26,10.07S90.16,86.75,87.56,82.82Z"/><path class="cls-17" d="M86.63,85C84,81.09,83.91,76.58,86.37,75s6.57.23,9.18,4.16,2.72,8.44.26,10.08S89.24,89,86.63,85Z"/><path class="cls-18" d="M86.63,85C84,81.09,83.91,76.58,86.37,75s6.57.23,9.18,4.16,2.72,8.44.26,10.08S89.24,89,86.63,85Z"/><path class="cls-14" d="M87.54,85.74c-1.46-2.2-1.52-4.71-.15-5.63s3.67.13,5.12,2.33,1.52,4.71.15,5.62S89,87.93,87.54,85.74Z"/><path class="cls-19" d="M86.63,85c2.61,3.94,6.72,5.8,9.18,4.16s2.34-6.13-.27-10.07S88.83,73.32,86.37,75,84,81.09,86.63,85Zm.29-7.61c2-1.31,5.29.18,7.38,3.35s2.2,6.79.22,8.11-5.29-.19-7.39-3.36S84.94,78.73,86.92,77.41Z"/><path class="cls-16" d="M82.82,105.14c-2.6-3.93-2.72-8.44-.26-10.07s6.57.23,9.18,4.16,2.72,8.44.26,10.07S85.43,109.07,82.82,105.14Z"/><path class="cls-17" d="M81.9,107.34c-2.61-3.93-2.72-8.44-.26-10.08s6.57.24,9.17,4.17,2.73,8.44.27,10.07S84.51,111.27,81.9,107.34Z"/><path class="cls-18" d="M81.9,107.34c-2.61-3.93-2.72-8.44-.26-10.08s6.57.24,9.17,4.17,2.73,8.44.27,10.07S84.51,111.27,81.9,107.34Z"/><path class="cls-14" d="M82.81,108.05c-1.46-2.19-1.52-4.71-.15-5.62s3.67.13,5.12,2.32,1.52,4.71.15,5.62S84.26,110.24,82.81,108.05Z"/><path class="cls-19" d="M81.9,107.34c2.61,3.93,6.71,5.79,9.18,4.16s2.34-6.14-.27-10.07-6.71-5.8-9.17-4.16S79.3,103.41,81.9,107.34Zm.29-7.62c2-1.31,5.28.19,7.38,3.35s2.2,6.79.21,8.11-5.28-.19-7.38-3.35S80.21,101,82.19,99.72Z"/><ellipse class="cls-16" cx="81.35" cy="127.53" rx="5.35" ry="8.54" transform="translate(-66.56 159.18) rotate(-69.54)"/><path class="cls-17" d="M80,134.86c-4.42-1.65-7.16-5.23-6.13-8s5.45-3.67,9.87-2,7.16,5.23,6.13,8S84.45,136.51,80,134.86Z"/><path class="cls-18" d="M80,134.86c-4.42-1.65-7.16-5.23-6.13-8s5.45-3.67,9.87-2,7.16,5.23,6.13,8S84.45,136.51,80,134.86Z"/><path class="cls-14" d="M81.18,134.9c-2.46-.92-4-2.91-3.42-4.46s3-2.05,5.51-1.13,4,2.92,3.42,4.46S83.65,135.82,81.18,134.9Z"/><path class="cls-19" d="M80,134.86c4.42,1.65,8.84.74,9.87-2s-1.71-6.34-6.13-8-8.84-.74-9.87,2S75.62,133.21,80,134.86Zm-4.24-6.33c.83-2.23,4.38-3,7.94-1.63s5.77,4.2,4.94,6.44-4.39,2.95-8,1.62S75,130.76,75.79,128.53Z"/><path class="cls-16" d="M83.23,155.81c-4.54,1.27-8.87,0-9.66-2.86s2.25-6.18,6.8-7.44,8.87,0,9.66,2.86S87.78,154.55,83.23,155.81Z"/><path class="cls-17" d="M85,157.37c-4.55,1.26-8.87,0-9.66-2.86s2.25-6.18,6.79-7.44,8.87,0,9.66,2.86S89.58,156.11,85,157.37Z"/><path class="cls-18" d="M85,157.37c-4.55,1.26-8.87,0-9.66-2.86s2.25-6.18,6.79-7.44,8.87,0,9.66,2.86S89.58,156.11,85,157.37Z"/><path class="cls-14" d="M86,156.73c-2.54.7-5,0-5.4-1.6s1.26-3.45,3.8-4.15,4.95,0,5.39,1.6S88.53,156,86,156.73Z"/><path class="cls-19" d="M85,157.37c4.55-1.27,7.58-4.6,6.79-7.44s-5.11-4.13-9.66-2.86-7.59,4.59-6.79,7.44S80.5,158.63,85,157.37Zm-7.15-2.63c-.64-2.29,1.8-5,5.46-6s7.14,0,7.78,2.3-1.81,5-5.47,6S78.53,157,77.89,154.74Z"/><ellipse class="cls-16" cx="81.82" cy="177.24" rx="8.54" ry="5.35" transform="translate(-107.86 131.09) rotate(-51.54)"/><path class="cls-17" d="M88.39,180.77c-2.94,3.69-7.19,5.2-9.5,3.36s-1.81-6.32,1.12-10,7.19-5.2,9.5-3.37S91.32,177.07,88.39,180.77Z"/><path class="cls-18" d="M88.39,180.77c-2.94,3.69-7.19,5.2-9.5,3.36s-1.81-6.32,1.12-10,7.19-5.2,9.5-3.37S91.32,177.07,88.39,180.77Z"/><path class="cls-14" d="M88.79,179.69c-1.64,2.06-4,2.9-5.31,1.87s-1-3.52.63-5.59,4-2.9,5.3-1.87S90.42,177.62,88.79,179.69Z"/><path class="cls-19" d="M88.39,180.77c2.93-3.7,3.43-8.18,1.12-10s-6.56-.34-9.5,3.36-3.44,8.17-1.12,10S85.45,184.46,88.39,180.77Zm-7.34,2.07c-1.85-1.47-1.45-5.08.91-8.05s5.78-4.19,7.65-2.71,1.45,5.09-.91,8.06S82.92,184.32,81.05,182.84Z"/><ellipse class="cls-16" cx="89.68" cy="200.53" rx="8.54" ry="5.35" transform="translate(-123.13 146.04) rotate(-51.54)"/><path class="cls-17" d="M96.24,204.06c-2.93,3.69-7.19,5.2-9.5,3.36s-1.81-6.32,1.13-10,7.18-5.2,9.49-3.37S99.17,200.36,96.24,204.06Z"/><path class="cls-18" d="M96.24,204.06c-2.93,3.69-7.19,5.2-9.5,3.36s-1.81-6.32,1.13-10,7.18-5.2,9.49-3.37S99.17,200.36,96.24,204.06Z"/><path class="cls-14" d="M96.64,203c-1.64,2.06-4,2.9-5.3,1.87s-1-3.52.63-5.59,4-2.9,5.3-1.87S98.28,200.91,96.64,203Z"/><path class="cls-19" d="M96.24,204.06c2.94-3.7,3.44-8.18,1.12-10s-6.56-.34-9.49,3.36-3.44,8.17-1.13,10S93.31,207.75,96.24,204.06Zm-7.33,2.07c-1.86-1.47-1.46-5.08.9-8s5.78-4.19,7.65-2.71,1.45,5.09-.91,8.06S90.77,207.61,88.91,206.13Z"/><ellipse class="cls-16" cx="101.17" cy="216.76" rx="8.54" ry="5.35" transform="translate(-131.49 161.18) rotate(-51.54)"/><path class="cls-17" d="M107.74,220.29c-2.94,3.69-7.19,5.19-9.5,3.36s-1.81-6.32,1.12-10,7.19-5.2,9.5-3.37S110.67,216.59,107.74,220.29Z"/><path class="cls-18" d="M107.74,220.29c-2.94,3.69-7.19,5.19-9.5,3.36s-1.81-6.32,1.12-10,7.19-5.2,9.5-3.37S110.67,216.59,107.74,220.29Z"/><path class="cls-14" d="M108.13,219.2c-1.63,2.07-4,2.91-5.3,1.88s-1-3.53.63-5.59,4-2.9,5.3-1.87S109.77,217.14,108.13,219.2Z"/><path class="cls-19" d="M107.74,220.29c2.93-3.7,3.43-8.18,1.11-10s-6.55-.33-9.49,3.37-3.44,8.17-1.12,10S104.8,224,107.74,220.29Zm-7.34,2.07c-1.86-1.47-1.45-5.08.91-8.05s5.78-4.19,7.65-2.71,1.45,5.09-.91,8.06S102.27,223.84,100.4,222.36Z"/><path class="cls-16" d="M128.75,222.73c-.21,4.71-2.76,8.43-5.71,8.31s-5.18-4-5-8.77,2.76-8.43,5.71-8.3S129,218,128.75,222.73Z"/><path class="cls-17" d="M130.79,221.5c-.21,4.71-2.76,8.43-5.71,8.3s-5.18-4.05-5-8.76,2.76-8.43,5.71-8.31S131,216.78,130.79,221.5Z"/><path class="cls-18" d="M130.79,221.5c-.21,4.71-2.76,8.43-5.71,8.3s-5.18-4.05-5-8.76,2.76-8.43,5.71-8.31S131,216.78,130.79,221.5Z"/><path class="cls-14" d="M130.47,220.39c-.11,2.63-1.54,4.7-3.18,4.63s-2.89-2.26-2.78-4.89,1.54-4.7,3.19-4.63S130.59,217.76,130.47,220.39Z"/><path class="cls-19" d="M130.79,221.5c.2-4.72-2-8.64-5-8.76s-5.51,3.58-5.7,8.3,2,8.64,5,8.76S130.58,226.21,130.79,221.5Zm-4.72,6c-2.37-.11-4.16-3.26-4-7.05s2.22-6.79,4.6-6.69,4.16,3.26,4,7.06S128.45,227.59,126.07,227.49Z"/><ellipse class="cls-16" cx="157.18" cy="181.61" rx="5.35" ry="8.54" transform="translate(-74.18 117.09) rotate(-33.54)"/><ellipse class="cls-17" cx="158.1" cy="179.41" rx="5.35" ry="8.54" transform="translate(-72.81 117.24) rotate(-33.54)"/><ellipse class="cls-18" cx="158.1" cy="179.41" rx="5.35" ry="8.54" transform="translate(-72.81 117.24) rotate(-33.54)"/><path class="cls-14" d="M161.65,175.74c1.45,2.2,1.52,4.71.15,5.62s-3.67-.13-5.13-2.32-1.52-4.71-.14-5.62S160.19,173.55,161.65,175.74Z"/><path class="cls-19" d="M162.56,176.45c-2.61-3.93-6.72-5.79-9.18-4.15s-2.35,6.13.27,10.06,6.71,5.8,9.17,4.17S165.16,180.39,162.56,176.45Zm-.3,7.62c-2,1.31-5.28-.19-7.37-3.35s-2.2-6.79-.22-8.11,5.29.19,7.39,3.36S164.25,182.75,162.26,184.07Z"/><ellipse class="cls-16" cx="150.41" cy="202.57" rx="5.35" ry="8.54" transform="translate(-86.89 116.85) rotate(-33.54)"/><ellipse class="cls-17" cx="151.34" cy="200.37" rx="5.35" ry="8.54" transform="translate(-85.52 116.99) rotate(-33.54)"/><ellipse class="cls-18" cx="151.34" cy="200.37" rx="5.35" ry="8.54" transform="translate(-85.52 116.99) rotate(-33.54)"/><path class="cls-14" d="M154.89,196.7c1.45,2.2,1.52,4.71.14,5.62s-3.66-.12-5.12-2.32-1.52-4.71-.14-5.62S153.43,194.51,154.89,196.7Z"/><path class="cls-19" d="M155.8,197.42c-2.62-3.94-6.72-5.8-9.18-4.16s-2.35,6.13.26,10.07,6.71,5.79,9.18,4.16S158.4,201.35,155.8,197.42Zm-.3,7.61c-2,1.31-5.28-.18-7.38-3.35s-2.19-6.79-.21-8.11,5.29.19,7.38,3.36S157.49,203.71,155.5,205Z"/><ellipse class="cls-16" cx="143.99" cy="217.45" rx="5.35" ry="8.54" transform="translate(-96.18 115.78) rotate(-33.54)"/><ellipse class="cls-17" cx="144.91" cy="215.25" rx="5.35" ry="8.54" transform="translate(-94.81 115.92) rotate(-33.54)"/><ellipse class="cls-18" cx="144.91" cy="215.25" rx="5.35" ry="8.54" transform="translate(-94.81 115.92) rotate(-33.54)"/><path class="cls-14" d="M148.46,211.58c1.46,2.19,1.52,4.71.15,5.62s-3.67-.13-5.12-2.32-1.52-4.71-.15-5.62S147,209.39,148.46,211.58Z"/><path class="cls-19" d="M149.37,212.29c-2.61-3.93-6.71-5.79-9.18-4.16s-2.34,6.14.27,10.07,6.71,5.8,9.17,4.17S152,216.22,149.37,212.29Zm-.29,7.62c-2,1.31-5.28-.19-7.38-3.35s-2.2-6.79-.21-8.11,5.28.19,7.38,3.35S151.06,218.59,149.08,219.91Z"/><path class="cls-16" d="M168,149.64c4.42,1.65,7.17,5.23,6.14,8s-5.45,3.67-9.87,2-7.17-5.23-6.14-8S163.62,148,168,149.64Z"/><path class="cls-17" d="M167.5,147.32c4.42,1.64,7.16,5.22,6.13,8s-5.45,3.67-9.87,2-7.16-5.23-6.13-8S163.08,145.67,167.5,147.32Z"/><path class="cls-18" d="M167.5,147.32c4.42,1.64,7.16,5.22,6.13,8s-5.45,3.67-9.87,2-7.16-5.23-6.13-8S163.08,145.67,167.5,147.32Z"/><path class="cls-14" d="M166.35,147.27c2.46.92,4,2.92,3.42,4.46s-3,2.05-5.51,1.13-4-2.91-3.42-4.46S163.88,146.35,166.35,147.27Z"/><path class="cls-19" d="M167.5,147.31c-4.42-1.64-8.84-.73-9.87,2s1.71,6.34,6.13,8,8.84.75,9.87-2S171.91,149,167.5,147.31Zm4.24,6.34c-.83,2.22-4.38,2.95-7.94,1.62s-5.77-4.2-4.94-6.43,4.39-3,7.95-1.63S172.57,151.42,171.74,153.65Z"/></g></g></svg>