<?xml version="1.0" encoding="utf-8"?>
<!-- Generator: Adobe Illustrator 24.3.0, SVG Export Plug-In . SVG Version: 6.00 Build 0)  -->
<svg version="1.1" id="Layer_30" xmlns="http://www.w3.org/2000/svg" xmlns:xlink="http://www.w3.org/1999/xlink" x="0px" y="0px"
	 viewBox="0 0 252 252" style="enable-background:new 0 0 252 252;" xml:space="preserve">
<style type="text/css">
	.st0{fill:#6E4B29;}
	.st1{fill:#C4DD58;}
	.st2{opacity:0.34;fill:#97AA29;enable-background:new    ;}
	.st3{fill:#443B31;}
	.st4{opacity:0.34;fill:#FFFFFF;enable-background:new    ;}
	.st5{opacity:0.17;fill:#97AA29;enable-background:new    ;}
	.st6{fill:#F9F4EF;}
	.st7{opacity:0.96;fill:#FFFFFF;enable-background:new    ;}
</style>
<path class="st0" d="M69.7,149.3c5.5-6.7,13.6-10.7,21.6-14.4c6.2-2.9,12.6-5.6,19.3-6.9c14.7-2.9,38.7,1.4,47.7,14.6
	c5.5,8.2,9.7,17.2,12.4,26.7c2.4,8,6,19.7,4.4,28c-3.2,16.2-20.2,31.3-34.7,37.3c-18.9,7.9-42.1,5.5-58.4-6.7
	C59.6,211.2,51.1,171.7,69.7,149.3z"/>
<path class="st1" d="M74.9,145.9c-5.6,7.8-7.3,17.8-6.5,27.4c1.7,20.9,15.3,40.6,34.4,49.3s43.1,5.9,59.4-7.4
	c4.8-3.7,8.7-8.5,11.4-14c2.1-5,3.2-10.3,3.2-15.7c0.5-22.9-13.8-45-33.9-56.1c-11-6.1-25.3-9.1-37.2-3.8
	C95.1,130.4,81.9,136.3,74.9,145.9z"/>
<path class="st2" d="M106.8,196.1c-0.2-1.5-0.6-3-1-4.5c-1.1-2.3-2.9-4.1-5.2-5.2c-2.2-1.1-4.6-1.9-6.9-2.8
	c-1.4-0.5-2.7-1.3-3.7-2.3c-2.5-2.7-1.8-7.1,0.2-10.1s5-5.3,7.3-8.1c1.6-1.9,2.9-4.2,5.1-5.4c3.1-1.7,7.4-0.9,10-3.4
	c1.1-1.2,1.6-2.8,2.5-4.1c1.9-2.5,4.8-4,7.9-4.1c3.1,0,6.2,0.7,8.9,2.1c2.3,1,4.4,2.4,6.2,4.2c2,2.2,3.2,5,4.7,7.6
	c1.9,3.2,4.3,6,7.2,8.3c1.1,0.7,2.1,1.7,2.9,2.8c0.7,1.3,1.1,2.8,1.1,4.3c0.3,3.6,0.1,7.6-2.1,10.5c-2.1,2.7-5.5,3.9-8,6.1
	c-1.9,1.8-3.2,4.1-5,6c-4.8,5.1-11.5,4.7-17.7,6.4C114.5,206.1,108.3,202.8,106.8,196.1z"/>
<path class="st1" d="M108.7,170.9c-0.6-0.2-1.1-0.6-1.6-1c-1.3-1.4,0.4-3.8,2.3-4.2s4,0.2,5.8-0.4c2.8-0.8,4.2-3.9,5.8-6.3
	s4.6-4.8,7.2-3.4c1.6,0.8,2.3,2.7,2.9,4.4c1.2,3.1,2.8,6.1,4.9,8.8c2.2,2.9,4.9,5.8,5.2,9.5c0.3,3.2-1.4,6.2-3,9
	c-0.9,1.6-2,3.3-3.8,3.7c-1.2,0.3-2.5-0.1-3.8-0.1c-4,0.1-7,4.4-11,4.4c-3.6-0.1-6.1-3.6-7.4-6.9
	C110.5,183.6,113.7,173.5,108.7,170.9z"/>
<path class="st3" d="M103.7,182.6c5-1.6-4.4-5.7-3.8-1.1c0.2,0.5,0.6,0.9,1.1,1C101.8,182.8,102.8,182.9,103.7,182.6z"/>
<path class="st3" d="M120.1,149.5L120.1,149.5h0.2H120.1z"/>
<path class="st3" d="M120.1,149.5c-0.8,0.2-1.1,1.2-1.2,2c-0.2,0.7-0.2,1.3,0,2c0.2,0.7,0.8,1.1,1.5,1.1c0.7-0.1,1.2-0.8,1.4-1.5
	c0.2-0.7,0.2-1.5,0-2.2C121.4,150.2,120.8,149.7,120.1,149.5z"/>
<path class="st3" d="M129.2,149.6h-0.1c0.2-0.2-0.1-0.5-0.4-0.5s-0.4,0.3-0.5,0.5c-0.3,0.7-0.3,1.5,0,2.2c0.1,0.1,0.2,0.3,0.4,0.3
	c0.1,0,0.3,0,0.4-0.1C129.6,151.4,129.7,150.3,129.2,149.6z"/>
<path class="st3" d="M143.8,166.9c0.7,0.1,1.5-0.1,2.1-0.6c3.3-3.3-6-4.6-3.9-0.3C142.4,166.6,143,166.9,143.8,166.9z"/>
<path class="st3" d="M137.5,160.2c0.6-0.5,1-1.1,1-1.9c0.1-4.7-7.5,0.9-3,2.5C136.3,160.9,137,160.7,137.5,160.2z"/>
<path class="st3" d="M105.3,163.2c-0.1-0.7-0.5-1.3-1.2-1.8c-1-0.8-3-1.4-3,0.2c0,0.1,0,0.3,0,0.4
	C101.5,163.5,105.6,166.1,105.3,163.2z"/>
<path class="st3" d="M107.5,195.4c-0.8-0.5-0.9,0.1-1.8,0.3c-1,0-1.9,0.3-2.8,0.9c-0.8,0.6-0.9,1.7-0.3,2.5c0,0,0.1,0.1,0.1,0.1
	c0.6,0.4,1.3,0.4,2,0.2c1.3-0.2,2.4-0.9,3.1-2C108.3,196.7,108.1,195.8,107.5,195.4z"/>
<path class="st3" d="M104.1,191.6c0,0.5,0.5,0.9,1,1.1c0.5,0.2,1.1,0.3,1.7,0.2c2.9-0.7-0.1-4.1-2.3-2
	C104.3,191.1,104.2,191.4,104.1,191.6z"/>
<path class="st3" d="M98.2,174.2c0.1-0.5-0.4-0.9-0.9-1.2c-0.5-0.3-1.1-0.4-1.7-0.4c-3,0.4-0.4,4.1,2,2.3
	C97.9,174.8,98.1,174.5,98.2,174.2z"/>
<path class="st3" d="M114.6,160.6c0.4-0.4,0.3-1,0.1-1.5c-0.2-0.6-0.6-1-1-1.4c-2.5-1.6-2.9,2.9,0.1,3
	C114.1,160.8,114.4,160.8,114.6,160.6z"/>
<path class="st3" d="M121.6,201.6c-0.5,0-0.9,0.6-1,1.1c-0.2,0.6-0.2,1.2-0.1,1.7c0.9,2.8,4.1-0.4,1.8-2.4
	C122.1,201.8,121.9,201.7,121.6,201.6z"/>
<path class="st3" d="M112.9,200c0.2,0,0.3-0.2,0.3-0.3C113.1,199.9,112.7,200.1,112.9,200z"/>
<path class="st3" d="M113.2,199.5C113.2,199.4,113.1,199.3,113.2,199.5z"/>
<path class="st3" d="M113.2,199.5C113.2,199.5,113.2,199.6,113.2,199.5L113.2,199.5L113.2,199.5z"/>
<path class="st3" d="M113.2,199.7L113.2,199.7c0,0.2-0.1,0.3-0.3,0.3C112.7,200.1,113.1,199.9,113.2,199.7c0,0,0-0.1,0-0.1
	c-0.9,0.7-1.5,1.7-1.6,2.8c-0.1,0.6,0,1.2,0.3,1.7c0.3,0.5,0.9,0.8,1.4,0.7c0.7-0.2,1.2-0.8,1.4-1.5c0.3-0.7,0.3-1.5,0.1-2.2
	C114.6,200.3,114,199.8,113.2,199.7z"/>
<path class="st3" d="M129.7,198.1c-0.8,0.7-0.5,3.1-0.3,4c0.3,1,1.2,2.1,2.2,2c0.6-0.2,1.1-0.6,1.4-1.1
	C133.9,201.3,132,196,129.7,198.1z"/>
<path class="st3" d="M136.6,197.5c-0.5-0.4-1.1-0.4-1.6-0.1c-1.3,0.9,0.2,3,1.1,3.5c0.6,0.4,1.3,0.4,1.9,0
	C139,200,137.9,198.2,136.6,197.5z"/>
<path class="st3" d="M147.8,196.5c0.3,0.1,0.6,0.2,0.9,0.1l0.2-0.1c0.5-0.3,0.7-0.8,0.6-1.3C149.2,193.2,144.7,195.2,147.8,196.5z"
	/>
<path class="st3" d="M98.2,188.8c-0.3,0-0.6,0-0.9,0.2l-0.1,0.1c-0.3,0.4-0.4,1-0.1,1.5C98,192.4,101.5,188.8,98.2,188.8z"/>
<path class="st3" d="M142.2,188.1c-0.2,0.2-0.3,0.4-0.4,0.6c-0.7,1.9,2.7,4.5,3.8,2.5S143.5,186.7,142.2,188.1z"/>
<path class="st3" d="M146.7,183.7c0.2,0.3,0.5,0.5,0.9,0.7c0.4,0.2,0.9,0.3,1.4,0.4c1.2,0.3,2.8,0.2,3.2-0.9
	C153.3,181,144.7,180.3,146.7,183.7z"/>
<path class="st3" d="M142.9,176.1C142.9,176.1,142.9,176.1,142.9,176.1c1.1,3.7,6.8-1.1,3.3-1.9C145,173.8,142.4,174.4,142.9,176.1z
	"/>
<path class="st4" d="M135.1,142.7c3.8,1.9,7,4.8,9.2,8.4c2.1,3.3,3.6,7.4,7.1,9.1c0.4,0.2,0.9,0.3,1.4,0.3c0.8-0.3,1.5-0.9,1.8-1.7
	c1.8-4,1.2-8.8-0.8-12.7s-5.1-7.1-8.5-9.9s-6.7-5.3-10.8-6.6c-3.3-1-12.1-1.9-12.9,3C120.7,139,131.2,140.7,135.1,142.7z"/>
<path class="st5" d="M132.5,223.4c-2.8,0.5-5.8,0.5-8.6,0.1c-3-0.3-5.9,0.1-8.9-0.8c-2.5-0.7-5-1.9-7.5-2.8c-2.1-0.7-4.5-2-4.3-4.2
	c0.1-1.5,1.7-2.6,3.3-2.8c1.6,0,3.1,0.3,4.6,0.8c3.3,1,6.8,1.3,10.2,1c6.1-0.6,12-3.5,18.1-2.8c1.6,0.2,3.4,0.9,3.7,2.5
	c0.1,0.7,0,1.4-0.4,2.1C141,220.4,136.7,222.5,132.5,223.4z"/>
<path class="st6" d="M175.8,196.2c-0.1-0.4,0.4-3.8,0.4-4.1c-0.4,1.6-2.4,7.5-3.1,8.9c-2.6,5.4-6.5,10.1-11.2,13.8
	c-16.1,13-39.8,16-58.8,7.3c-9.5-4.4-17.6-11.3-23.5-19.9c-6-8.6-9.7-18.6-10.6-29c-0.8-10.5,1.4-20.1,6.4-27
	c2.5-3.3,5.5-6.2,8.9-8.6l-0.1,0.1c0,0,2.5-2.3,2.4-2.3c-1.5,1-3,0.8-7.2,4.9l-0.6,0.4c-1.6,1.5-3.1,3.1-4.3,4.9
	c-5.2,7.1-7.5,16.9-6.6,27.7c0.9,10.6,4.6,20.8,10.8,29.5c6,8.8,14.3,15.8,24,20.2c19.8,8.8,42.9,5.9,60-7.4
	c4.9-3.8,8.8-8.6,11.5-14.2c0.3-0.6,0.5-1.1,0.7-1.8C174.8,199,175.7,196.9,175.8,196.2z"/>
<path class="st7" d="M108.7,170.9c-0.6-0.2-1.1-0.6-1.6-1c-1.3-1.4,0.4-3.8,2.3-4.2s4,0.2,5.8-0.4c2.8-0.8,4.2-3.9,5.8-6.3
	s4.6-4.8,7.2-3.4c1.6,0.8,2.3,2.7,2.9,4.4c1.2,3.1,2.8,6.1,4.9,8.8c2.2,2.9,4.9,5.8,5.2,9.5c0.3,3.2-1.4,6.2-3,9
	c-0.9,1.6-2,3.3-3.8,3.7c-1.2,0.3-2.5-0.1-3.8-0.1c-4,0.1-7,4.4-11,4.4c-3.6-0.1-6.1-3.6-7.4-6.9
	C110.5,183.6,113.7,173.5,108.7,170.9z"/>
</svg>
