<?xml version="1.0" encoding="utf-8"?>
<!-- Generator: Adobe Illustrator 24.3.0, SVG Export Plug-In . SVG Version: 6.00 Build 0)  -->
<svg version="1.1" id="Layer_38" xmlns="http://www.w3.org/2000/svg" xmlns:xlink="http://www.w3.org/1999/xlink" x="0px" y="0px"
	 viewBox="0 0 252 252" style="enable-background:new 0 0 252 252;" xml:space="preserve">
<style type="text/css">
	.st0{fill:#BC470C;}
	.st1{fill:#D35109;}
	.st2{fill:#FBB116;}
	.st3{opacity:0.8;fill:#FFC917;}
	.st4{fill:#562D0B;}
	.st5{fill:#5C3529;}
	.st6{fill:#69402A;}
	.st7{opacity:0.24;}
	.st8{fill:#DFDFDF;}
</style>
<path class="st0" d="M69.4,208.7c4,9,10.5,16.6,18.8,22c25.1,16.6,56.5,8.1,76.5-16.8c0.9-1.1,1.7-2.2,2.5-3.3
	C123.3,238.1,83.9,218.2,69.4,208.7z"/>
<path class="st1" d="M158.4,143.1c-2.7-2-5.2-2-6.4-1.7l-4.1,1.2c-0.8,0.3-1.7-0.2-2-1c0-0.1-0.1-0.3-0.1-0.4l-0.5-4.3
	c-0.2-1.4-1.9-3.8-5.7-6c-32.9-18.5-52.2-2.9-66,22.8c-10,18.5-11.4,38.6-4.2,55c14.5,9.5,53.9,29.4,97.8,1.9
	C183.2,188.7,184.9,163.9,158.4,143.1z"/>
<path class="st2" d="M153.7,147.1c-2.5-2-5.8-2.7-8.9-1.8l-3.9,1.3c-0.7,0.3-1.5,0-1.8-0.8c-0.1-0.2-0.1-0.3-0.1-0.5l-0.3-4.2
	c-0.5-4.4-3.9-6.8-5-7.5c-25.1-11.1-43.8,1.3-55.7,22.9c-14,25.5-10.9,53.7,10.2,67.7s48.3,5.5,66.2-17.1
	C169.6,188,172.1,165.1,153.7,147.1z"/>
<path class="st3" d="M136.4,197c-10.3,15.6-28.5,21.6-40.7,13.6s-13.8-27.2-3.5-42.8s28.5-21.6,40.7-13.6S146.7,181.4,136.4,197z"/>
<path class="st4" d="M144.4,143.2c0.3,0.7,0.6,1.5,1,2.1c5.5-6,10.2-17,14.3-32.7l-2.5-4.5C153.8,124.4,149.6,136.5,144.4,143.2z"/>
<path class="st5" d="M120.5,195c-5.1,8.6-13.7,12.9-19,9.8s-5.6-12.7-0.4-21.2s20.4-26.8,27.1-22.2
	C135.1,166.2,125.6,186.5,120.5,195z"/>
<path class="st6" d="M102.6,200.8c-3.8-2.6-3.5-10.4,0.7-17.3c4.6-7.7,15.2-19.8,21.2-21.4c0.7-0.3,1.4-0.2,2.1,0.2
	c2,1.4,1.9,5.9-0.2,12.4c-2.1,6.1-4.8,12-8.1,17.6c-4.3,7.1-11.3,11.1-15.4,8.7L102.6,200.8z"/>
<g class="st7">
	<path class="st8" d="M104.1,189.7c-0.3,0-0.5-0.2-0.5-0.4c-0.2-0.8-0.2-1.5,0-2.3c0.5-2.6,1.6-5.1,3.3-7.2c3.1-4,6.6-7.6,10.4-10.9
		c1.6-1.4,3-2.4,4.2-3.3c0.3-0.2,0.6-0.1,0.8,0.1c0.1,0.2,0.2,0.4,0.1,0.6c-0.2,0.7-0.5,1.4-0.9,2.2c-2.5,5.5-5.6,10.6-9.2,15.4
		C109.2,188.3,105.5,189.7,104.1,189.7z"/>
</g>
</svg>
