<svg xmlns="http://www.w3.org/2000/svg" viewBox="0 0 252 252"><defs><style>.cls-1{isolation:isolate;}.cls-2{fill:#2f4c2d;}.cls-3{fill:#f1fdbd;}.cls-4{fill:#f83b3b;}.cls-5{fill:#3d0e0a;}.cls-6{fill:#4d1b17;}.cls-7{mix-blend-mode:screen;opacity:0.4;}.cls-8{fill:#fff;}</style></defs><g class="cls-1"><g id="Layer_32" data-name="Layer 32"><path class="cls-2" d="M121.52,49.05s-.23-.32-.61-.94c-.21-.34-.46-.89-.74-1.48a17.6,17.6,0,0,1-.62-2,17.29,17.29,0,0,1-.45-5.35,20.72,20.72,0,0,1,1.49-6.67,15.35,15.35,0,0,1,4.87-6.6,11.41,11.41,0,0,1,4.22-2,9.32,9.32,0,0,1,5,.28,11.48,11.48,0,0,1,4.24,2.6,11.61,11.61,0,0,1,2.87,4.17,6.73,6.73,0,0,1,.5,2.8,3.27,3.27,0,0,1-2.06,2.89l-.28.09-.16,0-.35.05a2.1,2.1,0,0,1-1.34-.3A2.59,2.59,0,0,1,137,34.91a8.25,8.25,0,0,1,0-2.71,13.76,13.76,0,0,1,.5-2.46,5.4,5.4,0,0,1,.21-.66l.22-.55a8,8,0,0,1,.53-1.14,13,13,0,0,1,3.17-3.91,15.11,15.11,0,0,1,4.12-2.59,13.2,13.2,0,0,1,4.69-1A9.11,9.11,0,0,1,155.05,21a7.32,7.32,0,0,1,1.83,1.58,10,10,0,0,1,.67,1c.15.31.3.59.44.93a20.29,20.29,0,0,1,1.13,3.95c.13.6.26,1.2.42,1.7a2.35,2.35,0,0,0,.61,1.1c.35.42,1.45.17,2.32-.19.45-.19.91-.41,1.32-.62s.82-.46,1.25-.71a13,13,0,0,1,2.55-1.23,5,5,0,0,1,2.63-.16,6.3,6.3,0,0,1,3,1.89,4.37,4.37,0,0,0,.95.78h0a1.08,1.08,0,0,1-1,1.9,1.13,1.13,0,0,1-.55-.72,2.47,2.47,0,0,0-.5-.92,4.89,4.89,0,0,0-2.26-1.41c-1.06-.25-2.41.29-4,1.28-.38.24-.85.53-1.28.76s-1,.49-1.49.72a7.44,7.44,0,0,1-1.78.52,4.46,4.46,0,0,1-1.1,0,2.67,2.67,0,0,1-1.16-.53,3.84,3.84,0,0,1-1.22-1.9,18.41,18.41,0,0,1-.51-1.89,20.64,20.64,0,0,0-1-3.52c-.13-.28-.3-.59-.45-.88s-.31-.46-.47-.68a4.7,4.7,0,0,0-1.32-1.1,6.81,6.81,0,0,0-3.61-.77,11.43,11.43,0,0,0-3.93.92,14,14,0,0,0-3.51,2.3,11.13,11.13,0,0,0-2.57,3.26,11.57,11.57,0,0,0-1.17,4.08,7.19,7.19,0,0,0,0,1.93c0,.23.19.38,0,.23a.33.33,0,0,0-.23-.07l-.06,0,.11,0,.28-.09a1,1,0,0,0,.35-.77,4.15,4.15,0,0,0-.36-1.69,9.51,9.51,0,0,0-5.62-5.18,6.41,6.41,0,0,0-3.52-.14,7,7,0,0,0-1.63.62,5.15,5.15,0,0,0-.74.43,6.36,6.36,0,0,0-.73.52,12.36,12.36,0,0,0-3.83,5.48,17.7,17.7,0,0,0-1.14,5.73,14.08,14.08,0,0,0,.47,4.39,12.89,12.89,0,0,0,.5,1.49c.2.36.31.64.47.92l.63.92a1.67,1.67,0,0,1-2.75,1.89Z"/><path class="cls-2" d="M214.59,141.68c0,53.68-32.81,105.13-92,97.19C66.19,245,31.52,195.36,31.52,141.68s38.25-104,91.06-97.18C178.05,36.59,214.59,88,214.59,141.68Z"/><path class="cls-3" d="M211.34,141.68c0,51.77-35.15,101.58-88.76,93.73-53,3.46-87.81-42-87.81-93.73S73,42.25,122.58,48C175.61,41.05,211.34,89.92,211.34,141.68Z"/><path class="cls-4" d="M207.45,141.68c0,49.2-35.15,98-84.87,90-49.56,3.72-83.92-40.84-83.92-90S74.17,45,122.47,51.42C173.56,43.44,207.45,92.49,207.45,141.68Z"/><path class="cls-5" d="M141.81,72.79a11.91,11.91,0,0,0,.63,3.17c.36,1.17.77,2.14,1.15,2.21s1-.78,1.69-1.78a11.53,11.53,0,0,0,1.6-2.84,2.58,2.58,0,1,0-5.07-.76Z"/><path class="cls-6" d="M142.42,73.08c-.07,1.06.77,4.06,1.35,4.14.43.09,2.27-2.53,2.53-3.56a2,2,0,1,0-3.88-.58Z"/><g class="cls-7"><path class="cls-8" d="M143.41,76.83c0,.07-.06.08-.09.07s-.1-.1-.13-.17a1.14,1.14,0,0,1-.09-.26c0-.1-.07-.26,0-.34s.17.09.2.18a2.09,2.09,0,0,1,.08.36A.43.43,0,0,1,143.41,76.83Z"/></g><g class="cls-7"><path class="cls-8" d="M143.06,75.3a1.07,1.07,0,0,1,0,.47c-.07.18-.21-.1-.27-.27l-.09-.3-.18-.73a3.15,3.15,0,0,1-.09-.42.36.36,0,0,1,.08-.29c.08-.08.16,0,.21.12a3.58,3.58,0,0,1,.19.75l.1.45Z"/></g><path class="cls-5" d="M163.46,83.1c-1,1-2.55,4.72-2,5.3s4.38-.74,5.46-1.6a2.54,2.54,0,1,0-3.43-3.7Z"/><path class="cls-6" d="M163.73,83.69c-.74.77-2,3.62-1.58,4.09s3.39-.56,4.21-1.24a2,2,0,1,0-2.63-2.85Z"/><g class="cls-7"><path class="cls-8" d="M162.11,87.23a.07.07,0,0,1-.11,0,.34.34,0,0,1,0-.22,1.61,1.61,0,0,1,.09-.26c0-.09.11-.25.23-.25s.07.18,0,.28a1.66,1.66,0,0,1-.16.33A.41.41,0,0,1,162.11,87.23Z"/></g><g class="cls-7"><path class="cls-8" d="M162.81,85.81a1,1,0,0,1-.28.38c-.17.1-.1-.22-.05-.39l.13-.29.33-.67a2.69,2.69,0,0,1,.19-.38.33.33,0,0,1,.25-.17c.11,0,.12.11.09.22a4.1,4.1,0,0,1-.34.7l-.2.41Z"/></g><path class="cls-5" d="M176.63,103.11c-1.26.56-4.15,3.43-3.85,4.2.23.6,4.38.91,5.68.46a2.52,2.52,0,1,0-1.83-4.66Z"/><path class="cls-6" d="M176.66,103.76c-1,.43-3.21,2.62-3,3.24.18.47,3.38.7,4.37.34a1.93,1.93,0,1,0-1.4-3.58Z"/><g class="cls-7"><path class="cls-8" d="M173.84,106.46a.07.07,0,0,1-.1,0,.34.34,0,0,1,.08-.2L174,106c.07-.07.2-.19.31-.15s0,.2-.06.28a1.72,1.72,0,0,1-.28.25A.3.3,0,0,1,173.84,106.46Z"/></g><g class="cls-7"><path class="cls-8" d="M175,105.39a1.1,1.1,0,0,1-.4.24c-.2,0,0-.24.1-.38l.22-.22.56-.51a2.08,2.08,0,0,1,.32-.27.35.35,0,0,1,.29-.07c.11,0,.07.14,0,.24a4.15,4.15,0,0,1-.57.53l-.34.3Z"/></g><path class="cls-5" d="M183.05,126.12c-1.37.22-4.86,2.27-4.77,3.12.06.65,4,1.95,5.4,1.83a2.51,2.51,0,1,0-.63-4.95Z"/><path class="cls-6" d="M182.92,126.75c-1.06.17-3.76,1.74-3.69,2.4.05.51,3.12,1.51,4.17,1.41a1.93,1.93,0,1,0-.48-3.81Z"/><g class="cls-7"><path class="cls-8" d="M179.52,128.67c-.07,0-.09,0-.09-.08a.39.39,0,0,1,.14-.18l.23-.16c.09-.06.24-.13.33-.07s0,.2-.13.26a1.29,1.29,0,0,1-.33.17A.28.28,0,0,1,179.52,128.67Z"/></g><g class="cls-7"><path class="cls-8" d="M180.92,127.91a.91.91,0,0,1-.45.14c-.19,0,.05-.23.19-.34l.27-.16.67-.35A1.85,1.85,0,0,1,182,127a.37.37,0,0,1,.31,0c.09.06,0,.15-.06.22a3.8,3.8,0,0,1-.68.38l-.41.2Z"/></g><path class="cls-5" d="M183.87,150c-1.38-.1-5.26,1.08-5.36,1.92-.08.65,3.47,2.84,4.83,3a2.51,2.51,0,1,0,.53-5Z"/><path class="cls-6" d="M183.59,150.56c-1.06-.09-4.05.82-4.13,1.48s2.67,2.19,3.72,2.34a1.93,1.93,0,1,0,.41-3.82Z"/><g class="cls-7"><path class="cls-8" d="M179.85,151.64a.08.08,0,0,1-.07-.09c0-.06.1-.11.17-.15l.26-.1c.1,0,.26-.08.34,0s-.09.18-.18.22a2.11,2.11,0,0,1-.36.09A.44.44,0,0,1,179.85,151.64Z"/></g><g class="cls-7"><path class="cls-8" d="M181.38,151.23a1.25,1.25,0,0,1-.47,0c-.18-.07.1-.22.27-.29l.3-.1.73-.18a2.73,2.73,0,0,1,.41-.1.36.36,0,0,1,.29.08c.08.08,0,.16-.11.21a3.59,3.59,0,0,1-.75.2l-.45.11Z"/></g><path class="cls-5" d="M179.06,173.36c-1.32-.43-5.36-.21-5.67.56-.24.6,2.68,3.6,3.94,4.14a2.52,2.52,0,1,0,1.73-4.7Z"/><path class="cls-6" d="M178.65,173.87c-1-.34-4.13-.19-4.38.42s2.07,2.78,3,3.18a1.93,1.93,0,1,0,1.33-3.6Z"/><g class="cls-7"><path class="cls-8" d="M174.75,174a.07.07,0,0,1,0-.11.41.41,0,0,1,.21-.1l.27,0c.11,0,.28,0,.33.09s-.13.15-.23.17a2.41,2.41,0,0,1-.38,0A.88.88,0,0,1,174.75,174Z"/></g><g class="cls-7"><path class="cls-8" d="M176.35,174a1,1,0,0,1-.46-.09c-.17-.11.15-.18.32-.22h1.06a2.06,2.06,0,0,1,.43,0,.33.33,0,0,1,.26.15c.06.1,0,.15-.15.17a4.07,4.07,0,0,1-.78,0h-.68Z"/></g><path class="cls-5" d="M168,194.6c-1.11-.82-5-2-5.52-1.37s1.28,4.26,2.27,5.23A2.54,2.54,0,1,0,168,194.6Z"/><path class="cls-6" d="M167.47,194.94c-.84-.64-3.83-1.54-4.25-1.06s1,3.29,1.75,4a1.95,1.95,0,1,0,2.5-3Z"/><g class="cls-7"><path class="cls-8" d="M163.76,193.77c0-.05,0-.09,0-.12a.35.35,0,0,1,.21,0,1.31,1.31,0,0,1,.27.06c.11,0,.26.08.28.2s-.17.1-.27.08a1.89,1.89,0,0,1-.35-.13A.46.46,0,0,1,163.76,193.77Z"/></g><g class="cls-7"><path class="cls-8" d="M165.26,194.29a1.2,1.2,0,0,1-.41-.24c-.12-.16.2-.13.38-.09l.3.08.71.25c.13.05.27.08.4.14a.4.4,0,0,1,.2.23c0,.11-.09.13-.21.11a3.54,3.54,0,0,1-.74-.24l-.43-.16Z"/></g><path class="cls-5" d="M148.82,209a11.2,11.2,0,0,0-1.74-2.72c-.77-1-1.5-1.7-1.88-1.64s-.62,1.08-.91,2.28a11.63,11.63,0,0,0-.47,3.22,2.58,2.58,0,1,0,5-1.14Z"/><path class="cls-6" d="M148.16,209c-.33-1-2.21-3.48-2.78-3.38s-1.18,3.2-1,4.26a2,2,0,1,0,3.83-.88Z"/><g class="cls-7"><path class="cls-8" d="M145.86,205.82c0-.06,0-.1.06-.1a.32.32,0,0,1,.18.11.91.91,0,0,1,.18.21c.07.08.16.22.11.32s-.19,0-.26-.09a2.36,2.36,0,0,1-.2-.31A.37.37,0,0,1,145.86,205.82Z"/></g><g class="cls-7"><path class="cls-8" d="M146.74,207.12a1.16,1.16,0,0,1-.18-.43c0-.2.23,0,.35.14l.19.26.43.61a2.16,2.16,0,0,1,.24.35.36.36,0,0,1,0,.3c0,.1-.15.05-.23,0a3.64,3.64,0,0,1-.46-.63l-.25-.38Z"/></g><path class="cls-5" d="M108.44,209.64c.13-1.36-.85-5.38-1.62-5.47-.32,0-1,.74-1.8,1.72a10.23,10.23,0,0,0-1.68,2.79,2.71,2.71,0,0,0,2,3.27A2.68,2.68,0,0,0,108.44,209.64Z"/><path class="cls-6" d="M107.85,209.32c.12-1-.62-4.12-1.24-4.22-.47-.07-2.4,2.45-2.67,3.49a2,2,0,1,0,3.91.73Z"/><g class="cls-7"><path class="cls-8" d="M107,205.5a.07.07,0,0,1,.09-.06.35.35,0,0,1,.13.18,1.07,1.07,0,0,1,.09.27c0,.1.06.26,0,.33s-.17-.09-.2-.19a2.25,2.25,0,0,1-.06-.36A.33.33,0,0,1,107,205.5Z"/></g><g class="cls-7"><path class="cls-8" d="M107.28,207.06a1.24,1.24,0,0,1,0-.47c.08-.18.21.12.28.29l.07.31.15.74a2.7,2.7,0,0,1,.08.41.34.34,0,0,1-.09.29c-.09.07-.17,0-.21-.12a3.31,3.31,0,0,1-.17-.77l-.08-.45Z"/></g><path class="cls-5" d="M86,199.69a10.25,10.25,0,0,0,1.31-2.94c.36-1.18.57-2.28.25-2.56s-4.35,1.06-5.35,2a2.59,2.59,0,1,0,3.79,3.5Z"/><path class="cls-6" d="M85.68,199.12c.66-.8,1.72-3.83,1.23-4.25s-3.38.83-4.13,1.56a2,2,0,1,0,2.9,2.69Z"/><g class="cls-7"><path class="cls-8" d="M87,195.42s.09,0,.11,0a.35.35,0,0,1,0,.23,2.68,2.68,0,0,1-.07.27c0,.1-.09.26-.21.27s-.09-.18-.07-.28a2.55,2.55,0,0,1,.14-.35A.64.64,0,0,1,87,195.42Z"/></g><g class="cls-7"><path class="cls-8" d="M86.42,196.91a1.18,1.18,0,0,1,.25-.4c.17-.11.12.22.08.4l-.1.3-.27.71a2.66,2.66,0,0,1-.16.39.34.34,0,0,1-.24.19c-.11,0-.13-.1-.1-.22a3.39,3.39,0,0,1,.27-.73l.18-.43Z"/></g><path class="cls-5" d="M71,180.33c1.21-.63,4-3.73,3.57-4.48-.29-.58-4.43-.69-5.71-.17A2.57,2.57,0,1,0,71,180.33Z"/><path class="cls-6" d="M70.93,179.67c.94-.48,3.06-2.85,2.76-3.45-.23-.45-3.43-.54-4.41-.12a2.09,2.09,0,0,0-1.13,2.69A2.11,2.11,0,0,0,70.93,179.67Z"/><g class="cls-7"><path class="cls-8" d="M73.57,176.77c.06,0,.1,0,.1,0a.3.3,0,0,1-.06.21c0,.08-.11.15-.17.23s-.19.2-.3.16,0-.2,0-.29a3.19,3.19,0,0,1,.26-.26S73.51,176.79,73.57,176.77Z"/></g><g class="cls-7"><path class="cls-8" d="M72.47,177.93c.1-.09.25-.25.38-.27s0,.24-.07.39l-.21.24-.52.54a2.2,2.2,0,0,1-.31.3.36.36,0,0,1-.29.09c-.11,0-.08-.15,0-.24a3.68,3.68,0,0,1,.54-.58l.32-.32Z"/></g><path class="cls-5" d="M63.45,157.07c1.37-.25,4.81-2.39,4.71-3.25-.07-.65-4.07-1.94-5.44-1.8a2.56,2.56,0,1,0,.73,5Z"/><path class="cls-6" d="M63.57,156.42c1.05-.18,3.72-1.83,3.64-2.5-.06-.51-3.14-1.5-4.2-1.39a2,2,0,1,0,.56,3.89Z"/><g class="cls-7"><path class="cls-8" d="M66.93,154.42c.06,0,.09,0,.08.07a.27.27,0,0,1-.13.19l-.22.17c-.09.06-.24.14-.33.07s0-.2.12-.26a1.74,1.74,0,0,1,.33-.18A.28.28,0,0,1,66.93,154.42Z"/></g><g class="cls-7"><path class="cls-8" d="M65.54,155.21a1,1,0,0,1,.44-.15c.2,0,0,.24-.18.36l-.26.16-.66.37a2.64,2.64,0,0,1-.37.2.34.34,0,0,1-.31,0c-.09-.06,0-.16.06-.23a4,4,0,0,1,.67-.39l.41-.22Z"/></g><path class="cls-5" d="M62.6,132.66c1.37.12,5.28-1,5.4-1.88.1-.66-3.43-3-4.76-3.19a2.57,2.57,0,1,0-.64,5.07Z"/><path class="cls-6" d="M62.88,132.06c1,.1,4.08-.77,4.18-1.44s-2.64-2.29-3.69-2.46A2.1,2.1,0,0,0,61,129.84,2.08,2.08,0,0,0,62.88,132.06Z"/><g class="cls-7"><path class="cls-8" d="M66.66,131c.06,0,.08.06.06.1a.3.3,0,0,1-.17.14,2.18,2.18,0,0,1-.27.11c-.1,0-.27.07-.34,0s.1-.18.19-.22a2.22,2.22,0,0,1,.37-.09A.44.44,0,0,1,66.66,131Z"/></g><g class="cls-7"><path class="cls-8" d="M65.1,131.41a1.07,1.07,0,0,1,.47,0c.19.07-.11.22-.27.29l-.3.09-.73.18a2,2,0,0,1-.41.09.38.38,0,0,1-.3-.08c-.07-.09,0-.16.12-.21a3.59,3.59,0,0,1,.75-.2l.45-.1Z"/></g><path class="cls-5" d="M68.29,108.89c1.27.48,5.41.47,5.72-.32.25-.6-2.45-3.77-3.68-4.38a2.57,2.57,0,1,0-2,4.7Z"/><path class="cls-6" d="M68.73,108.39c1,.39,4.17.39,4.42-.23s-1.91-2.92-2.85-3.37a2,2,0,1,0-1.57,3.6Z"/><g class="cls-7"><path class="cls-8" d="M72.66,108.44c.06,0,.06.08,0,.11a.31.31,0,0,1-.2.09,2.66,2.66,0,0,1-.28,0c-.11,0-.28,0-.33-.11s.14-.15.25-.17a2.36,2.36,0,0,1,.37,0A.45.45,0,0,1,72.66,108.44Z"/></g><g class="cls-7"><path class="cls-8" d="M71.06,108.39a.92.92,0,0,1,.46.11c.16.12-.17.18-.35.2h-.32l-.75,0a2.07,2.07,0,0,1-.43,0,.37.37,0,0,1-.25-.16c0-.1,0-.16.17-.17a3.39,3.39,0,0,1,.78,0l.47,0Z"/></g><path class="cls-5" d="M80.9,87.91a10.37,10.37,0,0,0,2.89,1.39c1.18.4,2.27.65,2.56.34s-.93-4.39-1.84-5.41a2.59,2.59,0,1,0-3.61,3.68Z"/><path class="cls-6" d="M81.48,87.59c.78.69,3.77,1.83,4.21,1.35s-.73-3.4-1.43-4.17a2,2,0,1,0-2.78,2.82Z"/><g class="cls-7"><path class="cls-8" d="M85.14,89s0,.09,0,.11a.27.27,0,0,1-.22,0,1.38,1.38,0,0,1-.27-.08c-.1,0-.26-.1-.26-.21s.18-.09.28-.06a1.68,1.68,0,0,1,.34.15A.29.29,0,0,1,85.14,89Z"/></g><g class="cls-7"><path class="cls-8" d="M83.66,88.4a1.2,1.2,0,0,1,.4.26c.1.17-.22.11-.4.07l-.3-.11-.7-.3a2.59,2.59,0,0,1-.38-.17.36.36,0,0,1-.19-.24c0-.12.11-.13.22-.1a3.83,3.83,0,0,1,.73.29l.42.19Z"/></g><path class="cls-5" d="M101.36,74.39a10.62,10.62,0,0,0,1.7,2.74c.75.93,1.51,1.74,1.92,1.66s.66-1.1,1-2.3a10.92,10.92,0,0,0,.5-3.2,2.72,2.72,0,0,0-1.07-1.77,2.59,2.59,0,0,0-2.08-.46A2.7,2.7,0,0,0,101.36,74.39Z"/><path class="cls-6" d="M102,74.43c.29,1,2.16,3.52,2.77,3.42.45-.07,1.26-3.25,1.12-4.27a2,2,0,1,0-3.89.85Z"/><g class="cls-7"><path class="cls-8" d="M104.31,77.6c0,.07,0,.1-.06.09s-.13-.06-.19-.12-.12-.14-.18-.21-.16-.24-.1-.33.19,0,.26.11a1.16,1.16,0,0,1,.2.32A.37.37,0,0,1,104.31,77.6Z"/></g><g class="cls-7"><path class="cls-8" d="M103.43,76.26a1.21,1.21,0,0,1,.18.44c0,.2-.23,0-.36-.15l-.19-.25-.42-.61c-.08-.12-.17-.23-.24-.35a.42.42,0,0,1,0-.31c.05-.1.15,0,.24,0a4.2,4.2,0,0,1,.45.63l.25.38Z"/></g><path class="cls-5" d="M139.06,86.56a12.49,12.49,0,0,0,.41,3.15c.26,1.17.54,2.21.88,2.26s.92-.78,1.63-1.73a12.7,12.7,0,0,0,1.7-2.74,2.4,2.4,0,1,0-4.62-.94Z"/><path class="cls-6" d="M139.6,86.84c-.1,1,.48,4.1,1,4.2s2.23-2.45,2.56-3.46a1.84,1.84,0,1,0-3.53-.74Z"/><g class="cls-7"><path class="cls-8" d="M140.28,90.64c0,.06-.06.07-.09.06a.39.39,0,0,1-.1-.18,1.07,1.07,0,0,1-.06-.27c0-.1-.05-.26,0-.33s.14.1.17.19,0,.24,0,.37A.85.85,0,0,1,140.28,90.64Z"/></g><g class="cls-7"><path class="cls-8" d="M140.07,89.08a1.24,1.24,0,0,1,0,.47c-.08.18-.18-.12-.24-.29l-.06-.31-.12-.73a2.7,2.7,0,0,1-.06-.41.39.39,0,0,1,.09-.29c.08-.08.15,0,.18.11a3.27,3.27,0,0,1,.14.77l.06.45Z"/></g><path class="cls-5" d="M158,97.5c-1,.89-3.1,4.37-2.67,4.92s4.3-.48,5.46-1.24A2.35,2.35,0,1,0,158,97.5Z"/><path class="cls-6" d="M158.22,98.08c-.81.68-2.43,3.35-2.08,3.79s3.33-.37,4.21-1a1.8,1.8,0,1,0-2.13-2.82Z"/><g class="cls-7"><path class="cls-8" d="M156.17,101.36s-.09,0-.1,0a.3.3,0,0,1,0-.2c0-.08.08-.17.13-.25s.14-.23.25-.22.05.17,0,.26a2,2,0,0,1-.21.3A.45.45,0,0,1,156.17,101.36Z"/></g><g class="cls-7"><path class="cls-8" d="M157,100a1.2,1.2,0,0,1-.32.35c-.18.08-.06-.21,0-.37l.16-.27.41-.62a3.07,3.07,0,0,1,.24-.35.37.37,0,0,1,.26-.16c.11,0,.1.11,0,.22a4.22,4.22,0,0,1-.42.65l-.25.38Z"/></g><path class="cls-5" d="M168.28,116.83c-1.29.44-4.51,2.9-4.29,3.62.17.55,4.22,1.1,5.56.77a2.33,2.33,0,1,0-1.27-4.39Z"/><path class="cls-6" d="M168.25,117.43c-1,.33-3.51,2.22-3.33,2.78s3.27.85,4.29.59a1.79,1.79,0,1,0-1-3.37Z"/><g class="cls-7"><path class="cls-8" d="M165.13,119.74c-.06,0-.09,0-.09-.06a.3.3,0,0,1,.11-.18l.2-.18c.08-.07.22-.17.32-.12s0,.18-.09.25a2,2,0,0,1-.3.21A.71.71,0,0,1,165.13,119.74Z"/></g><g class="cls-7"><path class="cls-8" d="M166.42,118.82a1.16,1.16,0,0,1-.42.2c-.2,0,0-.22.14-.34l.25-.19.61-.43c.11-.08.23-.17.35-.24a.41.41,0,0,1,.3,0c.1,0,0,.14,0,.22a4.2,4.2,0,0,1-.63.45l-.38.26Z"/></g><path class="cls-5" d="M172,138.32c-1.35.07-5.12,1.58-5.1,2.34,0,.58,3.78,2.18,5.16,2.22a2.33,2.33,0,1,0-.06-4.56Z"/><path class="cls-6" d="M171.84,138.88c-1.06.05-4,1.2-4,1.8s2.93,1.69,4,1.71a1.79,1.79,0,1,0,0-3.51Z"/><g class="cls-7"><path class="cls-8" d="M168.22,140.28c-.06,0-.08,0-.07-.08s.08-.11.15-.15l.25-.12c.09,0,.25-.1.34,0s-.07.17-.16.22a1.8,1.8,0,0,1-.35.12A.38.38,0,0,1,168.22,140.28Z"/></g><g class="cls-7"><path class="cls-8" d="M169.71,139.74a1.48,1.48,0,0,1-.46.08c-.2,0,.07-.21.23-.3l.29-.11.7-.26c.13,0,.26-.1.4-.13a.38.38,0,0,1,.3,0c.09.06,0,.14-.09.2a4.12,4.12,0,0,1-.72.27l-.44.15Z"/></g><path class="cls-5" d="M170,160c-1.32-.3-5.36.15-5.54.88-.14.56,3.05,3.12,4.36,3.53A2.33,2.33,0,1,0,170,160Z"/><path class="cls-6" d="M169.62,160.52c-1-.24-4.14.09-4.28.67s2.36,2.41,3.37,2.72a1.79,1.79,0,1,0,.91-3.39Z"/><g class="cls-7"><path class="cls-8" d="M165.77,160.89c-.06,0-.07-.06-.05-.09a.32.32,0,0,1,.18-.1l.27-.06c.11,0,.28,0,.34.07s-.11.14-.21.17a2.23,2.23,0,0,1-.37,0A.43.43,0,0,1,165.77,160.89Z"/></g><g class="cls-7"><path class="cls-8" d="M167.34,160.77a1,1,0,0,1-.46-.05c-.18-.09.13-.18.3-.22l.31,0,.75-.05a2.88,2.88,0,0,1,.42,0,.38.38,0,0,1,.28.11c.06.09,0,.15-.14.17a4.92,4.92,0,0,1-.78.07l-.45,0Z"/></g><path class="cls-5" d="M161.73,180.27c-1.18-.72-5.08-1.61-5.5-1s1.81,4,2.86,4.82a2.35,2.35,0,1,0,2.64-3.78Z"/><path class="cls-6" d="M161.24,180.62c-.9-.57-3.9-1.27-4.24-.81s1.39,3.06,2.22,3.71a1.8,1.8,0,1,0,2-2.9Z"/><g class="cls-7"><path class="cls-8" d="M157.5,179.68a.06.06,0,0,1,0-.1.42.42,0,0,1,.21,0l.26,0c.11,0,.27.07.3.18s-.15.1-.25.08a1.61,1.61,0,0,1-.36-.1A.51.51,0,0,1,157.5,179.68Z"/></g><g class="cls-7"><path class="cls-8" d="M159,180.11a1.19,1.19,0,0,1-.42-.21c-.14-.14.17-.12.35-.1l.3.07.72.19c.13,0,.27.07.4.12a.44.44,0,0,1,.22.2c0,.11-.07.13-.18.12a4.13,4.13,0,0,1-.75-.19l-.43-.13Z"/></g><path class="cls-5" d="M145.41,194.93a12.33,12.33,0,0,0-1.85-2.61c-.77-.89-1.51-1.66-1.83-1.57s-.45,1.12-.63,2.31a12.19,12.19,0,0,0-.21,3.19,2.4,2.4,0,1,0,4.52-1.32Z"/><path class="cls-6" d="M144.79,194.92c-.39-1-2.33-3.35-2.82-3.25-.21.06-.37.87-.5,1.8a8.82,8.82,0,0,0-.13,2.47,1.83,1.83,0,1,0,3.45-1Z"/><g class="cls-7"><path class="cls-8" d="M142.42,191.9c0-.06,0-.09,0-.09s.12.06.18.11l.18.21c.07.08.17.22.13.32s-.18,0-.25-.1-.13-.2-.21-.31A.31.31,0,0,1,142.42,191.9Z"/></g><g class="cls-7"><path class="cls-8" d="M143.34,193.18a1.14,1.14,0,0,1-.21-.41c0-.2.21,0,.33.12l.2.24.44.59a2.1,2.1,0,0,1,.26.33.48.48,0,0,1,.06.3c0,.1-.14.06-.22,0a3.61,3.61,0,0,1-.48-.6l-.26-.36Z"/></g><path class="cls-5" d="M110.39,195.92a12,12,0,0,0-.31-3.18c-.24-1.15-.53-2.21-.89-2.29s-1,.75-1.73,1.71a11.61,11.61,0,0,0-1.72,2.7,2.42,2.42,0,1,0,4.65,1.06Z"/><path class="cls-6" d="M109.85,195.61c.15-1-.37-4.1-.9-4.23-.22-.06-.78.56-1.36,1.31a8.74,8.74,0,0,0-1.3,2.11,1.85,1.85,0,1,0,3.56.81Z"/><g class="cls-7"><path class="cls-8" d="M109.25,191.79c0-.06.06-.07.09,0a.32.32,0,0,1,.1.18,2.68,2.68,0,0,1,.07.27c0,.11,0,.27-.05.34s-.15-.11-.18-.21a2,2,0,0,1,0-.36A.33.33,0,0,1,109.25,191.79Z"/></g><g class="cls-7"><path class="cls-8" d="M109.44,193.37a1.23,1.23,0,0,1,0-.47c.08-.18.18.12.24.29l0,.3.1.73a3,3,0,0,1,.06.42.46.46,0,0,1-.1.29c-.09.07-.15,0-.19-.13a3.78,3.78,0,0,1-.12-.75l0-.45Z"/></g><path class="cls-5" d="M90.55,185.49c1-1,2.69-4.61,2.22-5.16-.19-.22-1.25,0-2.42.38A11.14,11.14,0,0,0,87.4,182a2.4,2.4,0,1,0,3.15,3.51Z"/><path class="cls-6" d="M90.31,184.93c.74-.75,2.1-3.54,1.73-4s-3.34.63-4.15,1.28a1.84,1.84,0,1,0,2.42,2.7Z"/><g class="cls-7"><path class="cls-8" d="M92.05,181.47s.09,0,.1,0a.27.27,0,0,1,0,.21,1.39,1.39,0,0,1-.1.26c0,.1-.13.25-.24.25s-.06-.18,0-.27a1.79,1.79,0,0,1,.18-.33A.41.41,0,0,1,92.05,181.47Z"/></g><g class="cls-7"><path class="cls-8" d="M91.29,182.87a1.32,1.32,0,0,1,.29-.37c.17-.1.09.2,0,.37l-.13.28-.35.66a2.53,2.53,0,0,1-.2.36.43.43,0,0,1-.25.18c-.11,0-.11-.11-.08-.21a5,5,0,0,1,.35-.69l.22-.39Z"/></g><path class="cls-5" d="M78.69,166.51c1.28-.5,4.33-3.12,4.11-3.85-.2-.55-4.3-.95-5.6-.59a2.38,2.38,0,1,0,1.49,4.44Z"/><path class="cls-6" d="M78.7,165.9c1-.37,3.36-2.39,3.18-3s-3.33-.73-4.33-.44a1.83,1.83,0,1,0,1.15,3.41Z"/><g class="cls-7"><path class="cls-8" d="M81.68,163.43c.07,0,.1,0,.1,0a.35.35,0,0,1-.1.19c-.06.07-.13.13-.2.2s-.21.17-.31.13,0-.19.08-.26a3.25,3.25,0,0,1,.29-.23A.64.64,0,0,1,81.68,163.43Z"/></g><g class="cls-7"><path class="cls-8" d="M80.44,164.41a1.36,1.36,0,0,1,.41-.22c.2,0,0,.23-.13.36l-.23.2-.58.46c-.11.08-.22.18-.34.25a.37.37,0,0,1-.3.06c-.1,0-.06-.14,0-.22a3.66,3.66,0,0,1,.6-.49l.36-.27Z"/></g><path class="cls-5" d="M74.31,144.61c1.36-.07,5.14-1.61,5.11-2.38,0-.59-3.76-2.24-5.14-2.29a2.37,2.37,0,1,0,0,4.67Z"/><path class="cls-6" d="M74.52,144c1,0,4-1.23,3.94-1.83s-2.9-1.73-4-1.76a1.82,1.82,0,1,0,0,3.59Z"/><g class="cls-7"><path class="cls-8" d="M78.13,142.62c.06,0,.08,0,.07.08s-.08.11-.15.15l-.24.12c-.1.05-.26.1-.34,0s.06-.17.15-.22a3.62,3.62,0,0,1,.35-.13A.76.76,0,0,1,78.13,142.62Z"/></g><g class="cls-7"><path class="cls-8" d="M76.64,143.17a1.09,1.09,0,0,1,.47-.08c.19,0-.08.21-.23.29l-.3.12-.7.26a2.7,2.7,0,0,1-.4.14.42.42,0,0,1-.3,0c-.08-.07,0-.15.09-.21a4.22,4.22,0,0,1,.73-.27l.43-.15Z"/></g><path class="cls-5" d="M76.83,122.43c1.33.35,5.36,0,5.59-.71.17-.56-2.9-3.28-4.19-3.75a2.37,2.37,0,1,0-1.4,4.46Z"/><path class="cls-6" d="M77.21,122c1,.27,4.12,0,4.3-.55s-2.23-2.53-3.23-2.89A1.83,1.83,0,1,0,77.21,122Z"/><g class="cls-7"><path class="cls-8" d="M81.07,121.69c.06,0,.07.07.05.1a.31.31,0,0,1-.19.1l-.27,0c-.11,0-.27,0-.33-.08s.11-.14.21-.16a2.26,2.26,0,0,1,.37,0A.43.43,0,0,1,81.07,121.69Z"/></g><g class="cls-7"><path class="cls-8" d="M79.5,121.76a1.2,1.2,0,0,1,.46.07c.17.09-.14.18-.31.21l-.31,0-.75,0a2.94,2.94,0,0,1-.42,0,.38.38,0,0,1-.27-.12c-.06-.09,0-.15.14-.17a4,4,0,0,1,.78,0h.68Z"/></g><path class="cls-5" d="M86.36,102.2c1.11.78,5,2,5.45,1.38s-1.47-4.09-2.49-5a2.39,2.39,0,1,0-3,3.66Z"/><path class="cls-6" d="M86.87,101.87c.86.63,3.85,1.54,4.21,1.08S90,99.79,89.16,99.07a1.84,1.84,0,1,0-2.29,2.8Z"/><g class="cls-7"><path class="cls-8" d="M90.57,103.06c.05,0,0,.08,0,.1a.29.29,0,0,1-.21,0,1.31,1.31,0,0,1-.27-.06c-.1,0-.26-.08-.28-.19s.16-.09.26-.07a1.61,1.61,0,0,1,.35.12A.34.34,0,0,1,90.57,103.06Z"/></g><g class="cls-7"><path class="cls-8" d="M89.08,102.54a1.11,1.11,0,0,1,.41.23c.12.15-.19.11-.37.08l-.3-.09-.71-.25a2.58,2.58,0,0,1-.39-.14.38.38,0,0,1-.21-.22c0-.11.08-.12.2-.1a3.9,3.9,0,0,1,.73.24l.43.16Z"/></g><path class="cls-5" d="M104,88.31A11.94,11.94,0,0,0,105.73,91c.77.94,1.51,1.72,1.85,1.62s.51-1.13.73-2.3a11.88,11.88,0,0,0,.26-3.21A2.43,2.43,0,1,0,104,88.31Z"/><path class="cls-6" d="M104.57,88.32c.36,1,2.27,3.46,2.79,3.32s.93-3.22.75-4.26a1.86,1.86,0,1,0-3.54.94Z"/><g class="cls-7"><path class="cls-8" d="M106.9,91.42c0,.06,0,.09-.05.09a.41.41,0,0,1-.17-.11l-.19-.21c-.06-.08-.16-.22-.11-.32s.18,0,.25.1a1.74,1.74,0,0,1,.2.3A.35.35,0,0,1,106.9,91.42Z"/></g><g class="cls-7"><path class="cls-8" d="M106,90.12a1.16,1.16,0,0,1,.2.42c0,.2-.22,0-.34-.15l-.19-.25-.44-.6a3,3,0,0,1-.25-.34.36.36,0,0,1,0-.3c0-.1.13-.06.22,0a4.25,4.25,0,0,1,.46.63l.26.38Z"/></g></g></g></svg>