<svg id="ff5c79c2-7a7d-4e15-b497-b516a633f4ea" data-name="Layer 1" xmlns="http://www.w3.org/2000/svg" viewBox="0 0 252 252"><g style="isolation:isolate"><path d="M89,61.55h.33a65,65,0,0,1,9.25.71,70.48,70.48,0,0,1,28,10.62c.57-.36,1.14-.73,1.72-1.08,7.74-4.53,18.29-9.25,27.69-9.25a22.2,22.2,0,0,1,7.45,1.19c3.24,1.14,5.88,4,8.73,5.82a28.21,28.21,0,0,0,8.75,3.76,12,12,0,0,0,2.76.28c1.8,0,3.66-.26,5.47-.26a13.78,13.78,0,0,1,1.71.1c8.81,1.12,16.27,9.86,20.27,17.21a66.48,66.48,0,0,1,3.83,8.42c8.63,22.79,4.82,49.29-10.6,68.06-4.5,5.47-8.77,10.8-15,14.32a55.75,55.75,0,0,1-20.14,7.17,97.6,97.6,0,0,1-11.85.81c-7.43,0-14.79-1.15-21.5-4.62a35.75,35.75,0,0,0-9.65-3.13l-.53.75c-2.08,2.89-4.35,7.1-7.71,7.1a4.27,4.27,0,0,1-1.29-.2,15.58,15.58,0,0,0-4.53-.55c-5.66,0-13.38,1.68-22.09,1.68-10.71,0-22.93-2.53-34.69-13.81a75.67,75.67,0,0,1-22.84-51.91c-.3-11.44,1.42-27,10-34.62,2.57-2.27,6.33-3.19,9.33-4.8a28.43,28.43,0,0,0,7.54-5.81,13.16,13.16,0,0,0,2-3c-.18-1-.4-2-.67-3,0-.11-.07-.22-.1-.34-.28-1-.59-1.91-1-2.85a12.22,12.22,0,0,0-.6-1.34l-.15-.28a16.47,16.47,0,0,0-1.11-1.85c-.28-.4-.56-.78-.87-1.15l-.1-.13c.36-.23.68-.47,1-.72a11.75,11.75,0,0,0,1.06-.93l.12-.12a3.75,3.75,0,0,0,.47-.55.83.83,0,0,0,.16-.46c0-.17-.29-.23-.63-.23l.06,0h0l.25-.16c1.33.36,2,2.91,2.6,4.42a4.27,4.27,0,0,0,.33.68c.17.29.37.58.56.87.53.81,1.11,1.58,1.72,2.34,5.25-6.9,16.13-9.14,24.4-9.14m0-8h0c-3.63,0-13.56.46-22.07,5a9.63,9.63,0,0,0-5.45-3.92,7.85,7.85,0,0,0-2.09-.28A8,8,0,0,0,55,55.64l-.25.16a7.3,7.3,0,0,0-.72.52,8,8,0,0,0-2.41,3.2,8,8,0,0,0-1.13,10.95l.1.13.24.3a6.62,6.62,0,0,1,.4.53c.23.35.41.64.54.89l.09.18.15.28,0,0,.18.45c.19.49.37,1,.54,1.55a20,20,0,0,1-4.69,3.42c-.75.41-1.7.8-2.71,1.23a28.13,28.13,0,0,0-8.17,4.64c-11.71,10.35-13,30-12.7,40.83a83.27,83.27,0,0,0,25.26,57.43l0,0c11.25,10.79,24.41,16,40.23,16a122.86,122.86,0,0,0,14.28-1,76.54,76.54,0,0,1,7.81-.65,8.27,8.27,0,0,1,2.2.2,12.42,12.42,0,0,0,3.62.55c5.54,0,9.15-3.54,11.58-6.72a28.42,28.42,0,0,1,2.72,1.15c7.16,3.68,15.37,5.47,25.09,5.47a103.85,103.85,0,0,0,12.83-.87l.21,0a63.42,63.42,0,0,0,23-8.16c7.28-4.13,12.09-10,16.74-15.63l.43-.53a75.19,75.19,0,0,0,16-36.4,78.55,78.55,0,0,0-4.15-39.57,72.8,72.8,0,0,0-4.28-9.4c-2.47-4.55-11.65-19.48-26.29-21.34a23.69,23.69,0,0,0-2.72-.16c-1.19,0-2.31.08-3.3.15-.8.06-1.55.11-2.17.11a4.47,4.47,0,0,1-.91-.06,20.37,20.37,0,0,1-6.25-2.69l-.06,0c-.67-.43-1.49-1.07-2.35-1.75a28,28,0,0,0-8-4.87A30.58,30.58,0,0,0,156,54.55c-10.53,0-21.43,4.63-29.38,9A78.51,78.51,0,0,0,99.7,54.35a73.46,73.46,0,0,0-10.38-.8Z" style="fill:#fff"/></g></svg>