<svg xmlns="http://www.w3.org/2000/svg" viewBox="0 0 252 252"><g id="a4cc411f-3adc-41d3-b0bf-f57fb1a11fb1" data-name="Layer 6"><path d="M163.09,131.28c.54-26.41-15.86-51.79-39-64.55-12.66-7-29.19-10.44-42.87-4.36-7,3.14-15,6.72-22.13,11.31l.09-.08c-1.76,1.09-3.44.86-8.29,5.68l-.66.41c-.92.87-1.8,1.76-2.63,2.69a42.48,42.48,0,0,0-7.87,7.22C18.33,115.4,28.11,160.86,54,180.12c18.81,14,64.53,18.32,86.28,9.22,15.13-6.32,16.39-17.82,19.29-36,0,0,2.5-12.55,3.16-15.75A26.27,26.27,0,0,0,163.09,131.28Z" style="fill:#6e4b29"/><g style="opacity:0.73"><circle cx="67.73" cy="99.32" r="2.2" style="fill:#a06c3f;opacity:0.49"/><circle cx="61.22" cy="120.35" r="2.2" style="fill:#a06c3f;opacity:0.49"/><circle cx="78.67" cy="161.25" r="2.2" style="fill:#a06c3f;opacity:0.49"/><circle cx="42.75" cy="150.99" r="2.2" style="fill:#a06c3f;opacity:0.49"/><circle cx="67.37" cy="166.38" r="2.2" style="fill:#a06c3f;opacity:0.49"/><circle cx="58.34" cy="136.44" r="1.71" style="fill:#a06c3f;opacity:0.49"/><circle cx="43.23" cy="133.33" r="1.71" style="fill:#a06c3f;opacity:0.49"/><circle cx="51.79" cy="121.32" r="1.71" style="fill:#a06c3f;opacity:0.49"/><circle cx="40.62" cy="116.04" r="1.71" style="fill:#a06c3f;opacity:0.49"/><circle cx="51.62" cy="164.2" r="1.71" style="fill:#a06c3f;opacity:0.49"/><circle cx="67.03" cy="149.23" r="0.99" style="fill:#a06c3f;opacity:0.49"/><circle cx="52.04" cy="153.13" r="0.99" style="fill:#a06c3f;opacity:0.49"/><circle cx="62.48" cy="143.87" r="0.99" style="fill:#a06c3f;opacity:0.49"/><circle cx="71.96" cy="172.17" r="0.99" style="fill:#a06c3f;opacity:0.49"/><circle cx="81.75" cy="168.64" r="0.99" style="fill:#a06c3f;opacity:0.49"/><circle cx="63.79" cy="173.16" r="0.99" style="fill:#a06c3f;opacity:0.49"/><circle cx="45.48" cy="140.61" r="0.99" style="fill:#a06c3f;opacity:0.49"/><circle cx="54.96" cy="105.54" r="0.99" style="fill:#a06c3f;opacity:0.49"/></g><path d="M131.41,127.54C126,112.65,110.7,103.9,101.62,90.92,99.16,87.4,97.25,82.37,100,79.1a8.45,8.45,0,0,1,5.71-2.5c6-.6,11.82,1.8,17,4.85a66.67,66.67,0,0,1,29.57,37.81c3.4,11.31,2.24,26.65-9.83,32.7C131.21,157.6,133.94,134.49,131.41,127.54Z" style="fill:#fff;opacity:0.15"/><path d="M64,75.66s4-2.5,6.38-2.67,5.75-6.3,5.75-6.3L79,70.88A29.5,29.5,0,0,1,85.71,70c3.33,0,5.74-3,5.74-3S93.06,74.34,83,78.52c0,0-.36,3.8,2,5.4,0,0-7,3.78-12.1.39,0,0-12.21,4.45-14.06,7,0,0-1.59-1,1.92-7.7,0,0-3.91-5.93-5.86-7C54.9,76.69,53.77,75.53,64,75.66Z" style="fill:#a06c3f;opacity:0.73"/><path d="M79,79.34c.08,2.37-11.6,3.11-12.08.84-.35-1.67,2.75-3.16,3.8-3.91a9.51,9.51,0,0,1,3.1-1.7,3.29,3.29,0,0,1,3.3.77c.71.8.82,2,1.37,2.89A2.55,2.55,0,0,1,79,79.34Z" style="fill:#6e4b29"/><circle cx="134.31" cy="151.86" r="2.2" style="fill:#6e4b29;opacity:0.49"/><circle cx="130.19" cy="130.23" r="2.2" style="fill:#6e4b29;opacity:0.49"/><circle cx="95.57" cy="102.32" r="2.2" style="fill:#6e4b29;opacity:0.49"/><circle cx="132.11" cy="94.51" r="2.2" style="fill:#6e4b29;opacity:0.49"/><circle cx="103.14" cy="92.49" r="2.2" style="fill:#6e4b29;opacity:0.49"/><circle cx="125.17" cy="114.68" r="1.71" style="fill:#6e4b29;opacity:0.49"/><circle cx="139.97" cy="110.33" r="1.71" style="fill:#6e4b29;opacity:0.49"/><circle cx="138.05" cy="124.95" r="1.71" style="fill:#6e4b29;opacity:0.49"/><circle cx="150.4" cy="124.37" r="1.71" style="fill:#6e4b29;opacity:0.49"/><circle cx="118.06" cy="87.01" r="1.71" style="fill:#6e4b29;opacity:0.49"/><circle cx="111.5" cy="107.47" r="0.99" style="fill:#6e4b29;opacity:0.49"/><circle cx="122.89" cy="96.99" r="0.99" style="fill:#6e4b29;opacity:0.49"/><circle cx="118.03" cy="110.06" r="0.99" style="fill:#6e4b29;opacity:0.49"/><circle cx="96.37" cy="89.53" r="0.99" style="fill:#6e4b29;opacity:0.49"/><circle cx="89.38" cy="97.25" r="0.99" style="fill:#6e4b29;opacity:0.49"/><circle cx="103.11" cy="84.82" r="0.99" style="fill:#6e4b29;opacity:0.49"/><circle cx="134.57" cy="104.95" r="0.99" style="fill:#6e4b29;opacity:0.49"/><circle cx="142.67" cy="140.37" r="0.99" style="fill:#6e4b29;opacity:0.49"/><path d="M179.52,187.17C204,177.33,221,152.31,223.66,126c1.46-14.38-1.81-31-12.76-41.16-5.64-5.26-12.08-11.23-19.07-16l.11,0c-1.69-1.18-2.14-2.83-8.47-5.4l-.64-.45c-1.15-.51-2.32-1-3.5-1.36a42.06,42.06,0,0,0-9.73-4.42c-32.11-9.59-70.11,17.2-77.73,48.51-5.56,22.81,8.39,66.55,25.27,83,11.74,11.45,22.81,8.11,40.64,3.69,0,0,12.52-2.62,15.73-3.27A26,26,0,0,0,179.52,187.17Z" style="fill:#603f24"/><path d="M131.87,160.21c7.73,3,48.82-62.83,62.44-85.1-1.8-1.42-3.65-2.8-5.54-4.07l.11,0c-1.59-1.11-2-2.65-7.95-5l-.61-.42c-.8-.36-1.61-.67-2.43-1-13.15,22.1-53.49,91.21-46.22,95.48a.7.7,0,0,0,.2.08" style="fill:#fbe3a7"/><path d="M177,181.93c23.07-9.26,39-32.75,41.59-57.4,1.4-13.48-1.66-29-11.94-38.57-3.77-3.5-7.92-7.33-12.37-10.85-13.62,22.27-54.71,88.12-62.44,85.1-3.06,6.64-7.78,17.56-10.05,26.29,9.82,7.13,19.74,4.22,34.76.49,0,0,11.78-2.47,14.8-3.08A25,25,0,0,0,177,181.93Z" style="fill:#f6d78b"/><path d="M131.87,160.21a.7.7,0,0,1-.2-.08c-7.27-4.27,33.07-73.38,46.22-95.48l-.85-.31a39.61,39.61,0,0,0-9.15-4.12c-30.17-8.95-65.95,16.22-73.16,45.58-5.25,21.39,7.79,62.38,23.65,77.79a30.58,30.58,0,0,0,3.44,2.91C124.09,177.77,128.81,166.85,131.87,160.21Z" style="fill:#f4ca6d"/><path d="M124.68,101.09s17.72-22.12,25.66-15-.21,17.9-2.73,24.58-9.44,28-20,39.33-19.54-2.36-20.2-8.81S107.67,121.64,124.68,101.09Z" style="fill:#fbe3a7"/><path d="M173,118.73s13.43-14.27,17.58-7.55-1.92,29.86-9.69,43.58-19.53,22.47-28.43,14.91-.43-19.82,5.14-26.72S171,121.34,173,118.73Z" style="fill:#fbe3a7"/><path d="M144.22,99.1c-.17-.45-.56-.58-1.11-.47a183.11,183.11,0,0,1-3.19,26.65C143.94,114.62,145.16,101.66,144.22,99.1Z" style="fill:#fff"/><path d="M133.94,135.88a33.8,33.8,0,0,0,6-10.6,183.11,183.11,0,0,0,3.19-26.65c-3.86.77-15.79,13.3-15.79,13.3-10.91,13.18-10.86,21.77-8.43,26.38S125.21,145.51,133.94,135.88Z" style="fill:#28170d"/><path d="M180.3,118.53c.45-.17.8,0,1.08.54a181.3,181.3,0,0,0-18.17,19.75C168.69,128.83,177.75,119.48,180.3,118.53Z" style="fill:#fff"/><path d="M159,150.25a33.83,33.83,0,0,1,4.17-11.43,181.3,181.3,0,0,1,18.17-19.75c1.93,3.43.17,20.64.17,20.64-2.92,16.86-9.49,22.41-14.57,23.56S157.4,163.15,159,150.25Z" style="fill:#28170d"/></g></svg>