<svg id="f0aa9698-e163-410e-97aa-06d2b20eeabc" data-name="Layer 1" xmlns="http://www.w3.org/2000/svg" viewBox="0 0 252 252"><g style="isolation:isolate"><path d="M170.5,35.52a2.63,2.63,0,0,1,1.23.3,2.77,2.77,0,0,1,2.12,1.08,2.42,2.42,0,0,1,.32,2.38,3,3,0,0,1-1.41,1.61l-.14.18.23.14a2,2,0,0,1,.4,2.72,3.3,3.3,0,0,1-.22.3c-.4.69-.73,1.49-1.1,2.29a5.37,5.37,0,0,1,.8-.15,1.94,1.94,0,0,1,.34,0c2.17,0,2.82,2.75,1.41,4.21a6.08,6.08,0,0,1-1.69,1.19c-.1.25-.22.49-.33.73A126.33,126.33,0,0,1,173.92,73a194.83,194.83,0,0,1-1.74,24.14c-.51,3.92-1.11,7.82-1.89,11.71-.44,2.16-.89,4.31-1.44,6.46a15.46,15.46,0,0,1-.86,3.06c2.69.51,5.76.79,8.87,1.08h0c2.42.22,4.85.46,7.13.83l.6.1,1.1.2.72.15,1,.24.71.2.94.28.61.22c.31.12.62.23.91.36.13,0,.24.12.36.18.32.15.66.3,1,.47,14,8.08,19.38,20,19.32,33.11a55.2,55.2,0,0,1-1,9.8c-.11.56-.22,1.11-.34,1.66s-.3,1.36-.47,2c-.46,1.85-1,3.71-1.6,5.56-.24.72-.49,1.43-.74,2.14-.33.92-.69,1.83-1,2.75q-.72,1.81-1.53,3.63h0c-.49,1.1-1,2.16-1.56,3.2-.18.35-.37.69-.56,1q-.61,1.14-1.29,2.22l-.53.88c-.58.91-1.18,1.78-1.8,2.64-.25.35-.52.7-.78,1-.43.57-.86,1.12-1.31,1.66-.28.35-.57.7-.86,1-.65.76-1.32,1.5-2,2.21-.3.31-.61.6-.92.91-.47.46-.94.91-1.42,1.35s-.71.65-1.07,1c-.54.47-1.09.93-1.65,1.37s-.95.75-1.43,1.11-1.13.84-1.71,1.24l-1.18.79c-.53.35-1.06.68-1.6,1l-1.09.67c-.82.47-1.64.91-2.48,1.34l-1.21.59c-.56.27-1.11.53-1.67.78l-1.22.53q-1.31.54-2.61,1l-1.15.38c-.6.21-1.21.4-1.82.59l-1.27.37c-.7.19-1.41.37-2.11.54q-.74.18-1.47.33c-.71.15-1.43.29-2.14.42l-1.27.2c-.64.1-1.29.18-1.93.26l-.83.11,0,0a58.77,58.77,0,0,1-6.07.32,54.1,54.1,0,0,1-29.14-8.38A53.92,53.92,0,0,1,110,212.92a55.17,55.17,0,0,1-11.63,1.27c-25.84,0-45.51-19.17-53.55-40.39C37.24,154,39.09,128.88,63,118.38c7.73-3.4,16.77-1.85,25.51-3.74.85-.18,1.74-.44,2.65-.73h0c2.87-.93,6-2.34,9.16-3.69,1.21-.53,2.43-1,3.63-1.51l.6-.24,1.06-.39.63-.23,1-.35,1-.28c.42-.13.83-.24,1.24-.34l.89-.21.71-.14.94-.14.59-.06c.42,0,.84-.07,1.24-.07h.23c.85,0,1.69.06,2.51.12a39.46,39.46,0,0,1,12.91,3.08,38.27,38.27,0,0,1,8-.82c1.23,0,2.48.06,3.77.17,7.83.69,14.59,5.66,22.39,8.4,0-1.57.34-3.18.52-4.59.26-2.15.58-4.3.84-6.45.54-4.28,1.16-8.56,1.59-12.86a174.22,174.22,0,0,0,.39-34.4,8.89,8.89,0,0,1-.44-4.48c-.06-.5-.13-1-.2-1.51a1.2,1.2,0,0,1-.92-1.37,10,10,0,0,1,.09-1.1,5.65,5.65,0,0,1,.17-2.35c0-.22-.08-.45-.11-.68a1.67,1.67,0,0,1-.49.08,1.43,1.43,0,0,1-.29,0,1.59,1.59,0,0,1-1.23-1.88,16.36,16.36,0,0,1,.73-2.38h-.1a2.53,2.53,0,0,1-.8.13c-2.37,0-3.65-3.64-1.5-5a17.79,17.79,0,0,1,3.38-1.76,2.46,2.46,0,0,1,1.69,0,19.19,19.19,0,0,1,3-1,3.27,3.27,0,0,1,.53,0m0-8a10.39,10.39,0,0,0-2.15.22l-.16,0c-.76.18-1.51.38-2.26.62a10.69,10.69,0,0,0-3.4.62l-.22.08a26.13,26.13,0,0,0-4.86,2.54,10.55,10.55,0,0,0-4.23,11.92,11.27,11.27,0,0,0,2.5,4.42,9.59,9.59,0,0,0,1.65,3.63,9.15,9.15,0,0,0,1,4.4,16.26,16.26,0,0,0,.66,4.49,167,167,0,0,1-.45,31.94v.09c-.29,2.87-.66,5.71-1,8.72-.18,1.31-.35,2.63-.51,3.94,0,.12,0,.24,0,.36-4.6-2.17-9.42-4.2-15.07-4.7-1.5-.13-3-.2-4.47-.2a46.76,46.76,0,0,0-7.13.54,48.59,48.59,0,0,0-13.14-2.78c-1-.07-1.94-.12-2.92-.14h-.42a19.4,19.4,0,0,0-1.94.1l-.76.08H111c-.48.06-.93.13-1.36.21l-1,.18c-.39.08-.79.18-1.18.28s-1.06.27-1.57.42l-.14,0-1,.3-1.16.4-.13,0-.64.22-1.19.45-.66.26c-1.16.46-2.42,1-3.86,1.6l-1.32.57c-2.59,1.12-5,2.18-7.15,2.87a2,2,0,0,0-.26.09c-.63.19-1.15.34-1.59.43a61.79,61.79,0,0,1-9.48,1c-5.73.31-11.66.63-17.57,3.23-28.06,12.31-31.53,41.82-22.51,65.59a75.7,75.7,0,0,0,22.53,31.52,60.55,60.55,0,0,0,38.5,14,63.31,63.31,0,0,0,13.32-1.45,60.67,60.67,0,0,0,11.28-3.62,63.64,63.64,0,0,0,11.77,4.82,62.31,62.31,0,0,0,17.77,2.53c2.12,0,4.26-.11,6.39-.31l.48,0,.79-.11.16,0c.78-.09,1.5-.19,2.18-.29l1.45-.23c.76-.13,1.55-.29,2.42-.47.56-.12,1.12-.24,1.67-.38.86-.2,1.65-.4,2.4-.61l1.44-.42c.65-.2,1.33-.42,2.07-.67l.33-.1,1-.34c1-.35,1.93-.72,3-1.15l1.18-.52.21-.09c.63-.28,1.27-.58,1.9-.88l.19-.09,1.2-.59c1-.52,1.93-1,2.82-1.53.32-.18.63-.38.95-.57l.3-.19c.67-.4,1.27-.78,1.83-1.14l1.35-.91c.61-.42,1.23-.87,2-1.42.55-.41,1.1-.83,1.64-1.27.72-.57,1.32-1.07,1.88-1.57s.83-.73,1.23-1.1,1.05-1,1.64-1.56l.26-.25.8-.79c.75-.79,1.51-1.61,2.3-2.53.28-.33.56-.66.83-1l.16-.19c.51-.61,1-1.25,1.5-1.9l.16-.21.74-1c.75-1,1.42-2,2.06-3l.45-.75.16-.26c.51-.83,1-1.69,1.47-2.54.22-.39.43-.78.64-1.17.69-1.33,1.25-2.48,1.75-3.6l0-.05c.55-1.24,1.09-2.53,1.65-3.93.46-1.14.82-2.09,1.14-3s.56-1.56.81-2.34c.66-2,1.26-4.06,1.77-6.15.19-.75.37-1.51.53-2.28s.26-1.24.38-1.86a63.07,63.07,0,0,0,1.13-11.24c.08-17.38-8-31.24-23.32-40.08-.54-.31-1-.54-1.39-.71l-.08,0c-.21-.11-.41-.2-.61-.29-.49-.22-.92-.38-1.27-.5l-.09,0-.11,0c-.25-.09-.5-.19-.76-.27-.41-.14-.84-.27-1.26-.39l-.93-.25c-.41-.11-.83-.2-1.25-.3l-.88-.18-1.31-.25-.58-.09-.11,0c-2.45-.39-4.95-.65-7.31-.87.07-.36.14-.7.21-1,.75-3.74,1.37-7.63,2-12.29a201.86,201.86,0,0,0,1.81-25.09,134.32,134.32,0,0,0-1-17.79,10.65,10.65,0,0,0,.71-12.27c0-.28,0-.56,0-.84l0,0a10.5,10.5,0,0,0-1.39-10.09l-.07-.09a10.78,10.78,0,0,0-6.44-4,10.68,10.68,0,0,0-3.23-.5Z" style="fill:#fff"/></g></svg>