<svg xmlns="http://www.w3.org/2000/svg" xmlns:xlink="http://www.w3.org/1999/xlink" viewBox="0 0 252 252"><defs><clipPath id="b35a869e-af20-49a2-970e-791079aed74b"><path d="M143.85,54.94C124.92,40,100.64,34.32,75.72,45.21c-46.6,6.64-67.3,58.56-54.63,104.28,6.83,24.66,22,45.92,41.79,57.38,16.93,9.79,37.26,12.43,58.72,3.91C173.9,203.57,189.71,152,177,106.27,171.32,85.66,159.39,67.19,143.85,54.94Z" style="fill:none"/></clipPath></defs><g style="isolation:isolate"><g id="adfb44fc-ef29-40c2-9b7e-b06d96d8a38b" data-name="Layer 32"><path d="M143.85,54.94C124.92,40,100.64,34.32,75.72,45.21c-46.6,6.64-67.3,58.56-54.63,104.28,6.83,24.66,22,45.92,41.79,57.38C177.66,190,154.05,86.79,143.85,54.94Z" style="fill:#96c054"/><path d="M143.85,54.94c10.2,31.85,33.81,135-81,151.93,16.93,9.79,37.26,12.43,58.72,3.91C173.9,203.57,189.71,152,177,106.27,171.32,85.66,159.39,67.19,143.85,54.94Z" style="fill:#7a9e3c"/><g style="clip-path:url(#b35a869e-af20-49a2-970e-791079aed74b)"><path d="M111.78,190a8.71,8.71,0,0,1-.45-3.12c0-1.12.54-2.43-.09-3.73-1.06-2.21-3.08-.78-4.37-3.41s-.71-5.3-1.34-7.88c-.79-3.25-3.12-2.9-3.19-6.71,1.41-1.21,2.09-5.38.53-8s-3.75-2.48-5.21-5.41a30.41,30.41,0,0,1-1.82-5.46c-1.11-3.94-1.83-7.81-3-11.83A12.29,12.29,0,0,0,90.91,130c-1.39-1.76-3.23-2.15-4.44-4.15-2.89-4.77.25-8.14,1.38-10.88.46-1.12,1.43-2.45.73-4.07-.78-1.78-3.49-2.75-4.55-4.42-2.56-4,.23-5.61-.33-9.18-.3-1.93-2-2.74-2.88-4.07a37.36,37.36,0,0,1-2.44-4.66A7.83,7.83,0,0,1,77.51,86c0-.72.75-.67.7-1.65-.1-1.91-1.82-3.08-2.46-4.46-1.63-3.53,3.12-5,3.56-6.54.62-2.2-3.13-2.4-4.48-4.43a43.33,43.33,0,0,1-3.69-8.31c-.62-1.65-1.74-3.65-1.43-5.38s1.8-2.6,2-4.49c-3.5-3.5-1.46-6.61-1.05-10.46A57.29,57.29,0,0,0,62,43.8c.37.79,1,.89,1.48,1.51a8.25,8.25,0,0,1,1.45,4.35c.22,3.79-3.31,4.92-3.84,6.86-.59,2.16,2.55,2,3.67,4,1.45,2.67,2.82,5.77,4.44,8.65a16,16,0,0,1,2.06,8.57c0,2-.66,4.89.24,7.07,1.18,2.86,2.91,2.74,3.2,6.87.24,3.37-.78,6-.22,9.69.52,3.33,2.9,4.71,3.48,7.76s-1.9,5.15-2.25,7.66c-.54,3.85,3.06,4.64,4.65,7.27,2.36,3.9,2.15,6,2.36,10.17,1.77,1.21,3.2.82,4.8,3.62a8.79,8.79,0,0,1,.91,7.15c-.89,3.23.28,3.61,2.18,5.9a22.68,22.68,0,0,1,3.57,7.51c-1.49.82-2.23,7.06-.31,9.81.9,1.28,1.92,1,2.82,2.62a21.59,21.59,0,0,1,1.87,6.81c.17,1.39.09,4.34.7,5.68s.75.63,1.58,1.53a6.13,6.13,0,0,1,1.29,2.63c1,2.78.79,5.35.84,7.78a98.5,98.5,0,0,0,9-4.84C111.87,190.33,111.82,190.2,111.78,190Z" style="fill:#2f4c2d"/><path d="M66.06,206.08c0-.26.36-.3.63-.41s-.1-.59-.69-1.21a13.4,13.4,0,0,1-2.38-3.61,6.71,6.71,0,0,0-1.51-2.33,23,23,0,0,0-1.85-1.41,9,9,0,0,1-2.92-2.9,6.05,6.05,0,0,1-.26-.6,31.1,31.1,0,0,1-4.1-4.52,8.68,8.68,0,0,1-1.15-2.84,9.18,9.18,0,0,0-1.67-2.86c-.71-.95-1.13-1-1.55-2.28A10.26,10.26,0,0,1,48.4,179c-.38-2.75-2.91-3.88-4.79-6a23.55,23.55,0,0,1-4.89-8.36c-.93-2.75-1.11-5.7-1.94-8.48-.66-.58-1.33-1.34-2-2-1.28-1.28-1.71-1.51-1.77-3.6-.07-2.39,1.3-5,.18-7.36-.47-1-1.34-1.78-1.87-2.69a23.25,23.25,0,0,1-1.85-4.23c-.79-2.36-1.29-5.15-2.08-7.38-.34-1-.72-1.75-1-2.65-.52-1.59-.26-1.84,0-3.61.42-2.85-.39-4-1-6a18,18,0,0,1-1-6.64,59.76,59.76,0,0,1,.69-7.74c.21-1.16.46-2.55.74-3.64a11.26,11.26,0,0,0,.75-3.2c0-.93-1.18-3.48.17-5.2.57-2.57-1-1.19-.08-4.36.68-2.31,1.55-3.43,1.8-5.26a6.59,6.59,0,0,1,.33-2.18c.4-1.23.71-1.74,1.17-2.9a5.48,5.48,0,0,0,.53-1.66,58.61,58.61,0,0,0-3.38,6.43c-.08.2.77.07-1.79,5.39-.84,1.76-2.11,3.74-2.58,5.84-.28,1.28.27,1.17.43,1.84A14.91,14.91,0,0,1,21.91,96a30.88,30.88,0,0,0-.85,4.46c-.24,1.62-.72,3.6-1,5.37-.33,2-.66,3.85-.8,5.85a17.34,17.34,0,0,0,.67,6.15A6,6,0,0,0,22,121.51c.94.83,1.46,1.88,1.78,4.22a23.74,23.74,0,0,1-.2,7.15c-.39,2-1.33,3.25-1.75,4.89.86.37,1.86-.4,2.56,1.13.84,1.81.46,5,.29,6.67-.16,1.49-1,2.82-.24,4.45s2.31,2.46,3.24,3.88c2.53,3.88,2.43,7.2,2.32,10.18s2,3.31,3.94,5.07c1.63,1.51,5.94,6.49,6.64,8.56s-1.19,2.63,1.77,5.09c1,.84,2,1.07,3,2.18a9.14,9.14,0,0,1,1.21,1.76,9.07,9.07,0,0,1,1.38,1.59c.9,1.36,1.26,2.66,2.62,4,.82.82,1.7,1.63,2.43,2.44a26.73,26.73,0,0,0,2.5,2.49c1.49,1.26,3,2.65,2.68,3.23-.07.14-.27.23-.22.42s.6.73,1.13,1.2a3.69,3.69,0,0,1,1.07,1.28c0,.13,0,.25.15.45a6.18,6.18,0,0,0,1.08.87A13.67,13.67,0,0,1,63,206.11c.21.21.37.4.65.64l2.5-.4A1,1,0,0,1,66.06,206.08Z" style="fill:#2f4c2d"/><path d="M145.79,61.4c-1.09-1.07-1.94-2.16-3-3.27A6,6,0,0,1,141,57.06a2,2,0,0,1-.68-1.15,10.72,10.72,0,0,0-2.45-3,5.45,5.45,0,0,0-1.57-1.11,15.56,15.56,0,0,1-1.77-1.29c-1.63-1.29-2.78-2.32-2.73-2.54-.53-.39-1.09-.82-1.61-1.22-1.05-.59-1.58-.87-2.64-1.42.32.29.71.64,1.23,1.07a70.17,70.17,0,0,1,7.8,7.68c2.07,2.37-1.14.44-.37,1.84.39.71,1.58.86,2.57,1.84a8.65,8.65,0,0,1,1.78,2.76c.44,1.11-.78,1.71.28,3.34a4.65,4.65,0,0,0,2.15,1.5A5.33,5.33,0,0,1,145.19,68a20,20,0,0,0,.95,2.42A10.76,10.76,0,0,0,148.71,73h0C147.77,68.77,146.77,64.85,145.79,61.4Z" style="fill:#2f4c2d"/><path d="M149.85,125.37c-.21-2.41.63-4.5.2-7a26.8,26.8,0,0,0-2.55-7c-1.06-2.29-2-4.59-3.25-6.77-.48-.84-1-1.61-1.52-2.44-.88-1.46-.62-1.22-.18-2.45.53-1.49,1.85-4.24.8-6.19-.4-.74-1.41-1.38-1.93-2a14.66,14.66,0,0,1-1.69-2.36c-1.14-1.88-2-4-3.64-5.57-1.06-1-1.6-1.14-1.54-2.49,0-.83.47-1.41.48-2.26-1-.95-.11-2,.29-2.42a12.92,12.92,0,0,1-3.75-4.18c-1.09-1.87-.83-3.06-1.56-4.73a21.7,21.7,0,0,1-.95-2.46,10.81,10.81,0,0,0-.45-2.12c-.46-.78-1.6-1.35-2.25-2a19.32,19.32,0,0,1-1.74-2.45,15.12,15.12,0,0,1-2.27-4.33c-.54-1.7-.32-2.36-2-4.3-1.33-1.56-2.84-2.3-4.2-3.72a10.16,10.16,0,0,1-2.53-3.9,5.37,5.37,0,0,0-.74-2,10,10,0,0,0-.76-.93c-2-.56-3-.8-5.06-1.21a35.46,35.46,0,0,1,3.92,4c1.53,1.81,1.64,2.87,2.6,4.62a35.67,35.67,0,0,0,3.54,4.86c1.25,1.48,3.17,2.76,3.76,4.41a4.63,4.63,0,0,1-.54,3.85c-.67,1.23-.84,1.84.14,4s1.39,3.38,3.39,4.63c2.52,1.58,2.63,2.35,2.23,4.57-.32,1.77-.34,3.78-.59,5.74a4.42,4.42,0,0,1,3.72,2.52c1.11,1.92.61,3.07.6,4.83,0,2.27.74,3.11,2.61,4.54s3.26,2.45,4.08,4.92c.7,2.11,0,3.54-.52,5.25-.63,2,0,2.72,1.09,4.7a11.77,11.77,0,0,1,1.68,5.55,16.1,16.1,0,0,0-.2,2.84c.24,1.09.64,1.19,1.38,1.88,1.52,1.42,1.79,3.4,2.34,5.62a65.5,65.5,0,0,1,1,6.59c-1.89.27-.13,3,.44,4.17a19.58,19.58,0,0,1,1.65,4.84c.49,2.33,2,8.45-.31,9.73a9,9,0,0,0,1.21,2.68,97.42,97.42,0,0,0,4.92-18.21A23.38,23.38,0,0,1,149.85,125.37Z" style="fill:#2f4c2d"/><path d="M84.6,202.2c-.15-.19-.3-.37-.45-.58a17.4,17.4,0,0,1-3-6.29,28.08,28.08,0,0,1-.79-6A21.23,21.23,0,0,1,80,186.4a6.48,6.48,0,0,1-1.23-3.76v0c-2-2.76-4.85-5.46-5.18-8.45a26.76,26.76,0,0,1-1.09-3.65c-.86-3.83-1.91-2.77-3.66-5.32-1.44-2.12-1.08-5-2.36-7.29-1.56-2.78-3.65-2.82-5.28-5.76a22.2,22.2,0,0,1-2.37-7.51c-.39-3.32.85-3.41,1.32-5.9.51-2.67-.62-3.54-2-5.1-2.35-2.68-2.36-4.51-1.33-7.43a5.82,5.82,0,0,0,.53-3.44c-.21-1.17-1.07-2.62-1.7-2.51-.18-3.74-.91-3-2.34-4.39s-1-3-.76-5.31c.49-5.43-2.16-9.38-3.8-12.94a14.16,14.16,0,0,1-1.21-6.68c.06-2,.58-4.16.1-6-.37-1.37-1.77-1.88-1.91-3.27-.22-2.26,2.52-4.28,1.73-7-1.59-.13-2.91.25-2.95-3.8a17.83,17.83,0,0,1,.61-4.65c.55-2.25.33-1.39.13-3.17-.44-4,1.42-5.1,2.24-8a5.84,5.84,0,0,0,.19-1.87,61.39,61.39,0,0,0-7.11,6.86c.5.19.92,1,1,2.28.08,3.59-1.85,7.21-3.15,9.57.52,1.29,1.54,1.35,2.25,2.74.93,1.84,1.27,4.64,1.19,8.27-.07,3.19-.58,3.75-1.64,6-1.2,2.47-.4,2.45.55,3.53,2.42,2.75.46,9.58.82,14.3.22,2.83,1.46,2.48,2.56,4a15.09,15.09,0,0,1,2.28,6.71c.49,4.24-.4,9,.49,13.16.93,4.37,5,3.94,6.22,9.33.46,2.14.06,4.22.13,6.18a25.84,25.84,0,0,0,1.35,7c.9,2.85,2.21,3.39,3.44,5.77a22.57,22.57,0,0,0,1.43,3c.74,1,1.64,1.64,2.39,2.7,1.49,2.12,2.61,4.46,2,6-.31.74-1.21.66-.55,2.25.52,1.24,1.74,1.87,2.47,2.76a14.91,14.91,0,0,1,2.9,5.86c1.47,1.4,2.82,2.87,2.6,4.45-.08.64-.49,1.39.09,2.14.46.6,1,1.15,1.4,1.76.76,1.11,1.51,2.24,2.12,3.36a12.39,12.39,0,0,1,1.52,3.73,8,8,0,0,0,.66,3.23c.66,1.21,2,2.36,2.6,3.51Q82.15,202.92,84.6,202.2Z" style="fill:#2f4c2d"/><path d="M65.69,208.45c.85.66,1.38,1.17,2.16,1.78,1.48.83,2.23,1.23,3.74,2-.75-.64-1.56-1.37-2.31-2.06-1.28-.58-2.54-1.2-3.79-1.86Z" style="fill:none;stroke:#2f4c2d;stroke-miterlimit:10"/><path d="M135.37,164.52c-1.69,0-3.28-3.89-3.86-6.12-.8-3.09-1.64-5.2.23-6.82-.1-2-2.49-3.77-3.39-5.12-1.5-2.22-2-5.1-2.76-7.92s-1.28-5.81-2.19-8.55c-.77-2.35-3.72-5.3-4.07-7.62-.23-1.57.84-2,1.57-2.38,1-.5,1.48-.42,2.08-1.76,1.12-2.51-.94-3.28-2.25-5.93a15.69,15.69,0,0,1-1.84-8.54c.15-1.44.81-2.14-.33-3.6-1-1.25-1.86-.83-2.71-2.59-1.47-3,1.51-3.8-.63-5.56-1.42-1.17-4.61-3-3.12-5.5a3.35,3.35,0,0,1-.57-5.43c1.59-1.2,1.58-3.26,2.21-5.4-2.83-2.61-6.47-5.27-8.7-8.9-1.18-1.94-1.36-3.48-3.11-5-1.55-1.34-3-.9-4.36-2-1.64-1.29-1.21-3.53-2-5.32-.33-.8-.86-1.45-1.15-2.26A29.94,29.94,0,0,1,93.81,49,9.58,9.58,0,0,1,93.32,47c0-.92.77-1.21.82-2.05.1-2-1.71-1.6-2.83-3s-1.91-4.47-1.21-5.24a58.93,58.93,0,0,0-6.06.5c1.31,3.31.21,4.42-1.47,5.74,1.93,5,6.87,2.63,9.06,7.92,2.08,5,1,10.71,4.84,15.89A7.85,7.85,0,0,0,99.07,69c.69.4,1.93.51,2.56,1.18,1.8,1.89.13,3.78,0,5.44s.3,3.44-.38,5c-.6,1.37-2.17,1.44-2.51,3.11,1.53,1.3,5.82,1.48,4.32,5.06-1.25,3,1.09,9,2.64,11.2,2.23,3.16,5,6.39,5.8,10.45a7.41,7.41,0,0,1-.46,4.47c-.4,1,2.32,3.23,2.61,5.82a24,24,0,0,0,1.9,7.61c1.13,2.15.1,5.94.55,8.42.35,1.94,3.9,7.25,4.39,8.16.82,1.52-.11,2.77.77,4.4,1.63,3,3.42,5.05,3,9.11-.19,1.83-1.29,3.11-1.47,4.82a17.34,17.34,0,0,0,.73,5c.43,1.79.84,3.57,1.26,5.34.28,1.16,2.13,2.86,3.35,4.39a80.59,80.59,0,0,0,6.7-7.63A22.6,22.6,0,0,1,135.37,164.52Z" style="fill:#2f4c2d"/><path d="M141.87,202.79c0-.11,0-.22,0-.34a2.24,2.24,0,0,1-.23-1.35,2.08,2.08,0,0,1,.95-1.59,1.44,1.44,0,0,0,.05-.57c-.51-.23-.85-.4-.82-2.1a4.73,4.73,0,0,1,.36-1.83,1.84,1.84,0,0,0-.24-.41c-2.09-.11-3.09-4.8-2.36-8.54.23-1.16.65-1.37.19-2.58-.39-1-1.42-1.65-1.95-2.64a9.89,9.89,0,0,1-.82-7.22c-1.55.28-2.12-1.34-2.22-3.36a80.59,80.59,0,0,1-6.7,7.63,7.44,7.44,0,0,1,.84,1.26c1,2,.71,4.55.91,6.81a19.84,19.84,0,0,1-.38,6.59c-.35,1.6-.88,3.87-.09,5.55s2,1.79,2.56,4.16a10.75,10.75,0,0,1,.19,3.36c-.06.75-.49,2.26-.17,3a70.11,70.11,0,0,0,8.53-3A8.71,8.71,0,0,1,141.87,202.79Z" style="fill:#213a1f"/><path d="M158.7,189.25a4.9,4.9,0,0,1-.87-2.07A9,9,0,0,1,159,183a12.44,12.44,0,0,0,.57-2.6,18.36,18.36,0,0,1,.66-2.25,14.72,14.72,0,0,0,.86-2.61,5.09,5.09,0,0,0-.12-2,17.37,17.37,0,0,0-1-3.38,29.08,29.08,0,0,1-1.71-3.75,21,21,0,0,1-.48-4.7c-.13-1.75-.73-3.36-.59-5.3.11-1.68,1-3.71.83-5.3s-1.56-1.9-1.93-3.38a13.34,13.34,0,0,1-.31-4.59c.24-1.61,1-3.09,1.29-4.66a2.78,2.78,0,0,0,0-1.68c-1.5-.78-3.05-.9-4.46-2.9a12.47,12.47,0,0,1-1.33-2.69,97.42,97.42,0,0,1-4.92,18.21c.08.15.16.3.23.46a12,12,0,0,1,.87,3.77c.05,1.14-.45,2.22-.49,3.29a14.84,14.84,0,0,0,.55,4.05c.53,1.62,1.41,1.36,2.34,2s.8,1.22.87,2.79a41.2,41.2,0,0,0,.89,7.48,26.55,26.55,0,0,0,.75,3.28c.43,1,1.15.9,1.78,1.22a1.85,1.85,0,0,1,.89,2.12,14.91,14.91,0,0,1-1.54,3.26,37.38,37.38,0,0,0-2.24,5.28c-1,3.52.52,2.57,1.4,3.13s1.18,3.95,1.12,5.81c0,.29,0,.53-.05.76a59.19,59.19,0,0,0,4.93-4.1,2,2,0,0,1-.12-.41C158.37,192.52,159.11,190.12,158.7,189.25Z" style="fill:#213a1f"/><path d="M153.78,78.31c1.71,2,2.65,2.8,2.92,5,.17,1.29.49,3.55,1.7,4.92a13.81,13.81,0,0,1,1.93,2,9.37,9.37,0,0,1,1.37,3.61c.21,2.3-.68,3.93.51,6.94a6.17,6.17,0,0,1,.69,3,14.41,14.41,0,0,0-.09,3.24,3.3,3.3,0,0,1,2.13,2.56c.2,1.28-.18,2.51,0,3.89.2,1.69.92,2.55,1.39,4.18.69,2.39.41,2.31,1.69,2.91s.78,2.51.64,4.19a33.76,33.76,0,0,0,0,5.51,9.44,9.44,0,0,0,1.42,3.91,16.29,16.29,0,0,1,1.41,3.74c.36,1.3,1,2.24.92,3.89,0,2.1-.61,3.15-1.44,3.82a7,7,0,0,0,.72,3.42,8.18,8.18,0,0,1,0,3.84c-.2,1.39-.36,2.76-.5,4.11-.19,1.86.23,1.65.27,2.91a30.47,30.47,0,0,1-.72,4.27,12.49,12.49,0,0,0-.44,3.18c.08.76.54.37.52,1.24a31.66,31.66,0,0,1-.76,4,15.46,15.46,0,0,1-1.37,4.12c-.55,1-1.08,1.73-1.62,2.66-.49,2.09.33.51.27,1.35-.05.57-.83,2.59-1.13,3.57-.11.37-.32,1-.51,1.63a59.34,59.34,0,0,0,4.9-8.85c.09-.21.17-.48.43-1.28s.95-2.92,1.64-4.45c.55-1.21,1.32-2.62,1.9-4.08.85-2.11.61-2.61.41-2.87-.33-.41-1.48-2.34.14-6.17.71-1.69,1.22-2.25,1.41-4.3.25-2.74,1.08-2.78,1.83-5.14s-.21-2.73-.31-4.34a31,31,0,0,1,.87-6.42c-1.27,1.07-1.66-2.05-1.58-4.52s.6-4.3-.07-6.73a9.76,9.76,0,0,0-.6-1.78c-.27-.38-.58-.1-.87-.26-.74-.42-1-1.68-1.26-3.07a32.66,32.66,0,0,1-.58-4.12,15.94,15.94,0,0,1-.07-3.22,7.7,7.7,0,0,1-2-4.7c0-1.19,1-1.69,1.48-2.26-.18-2.32-3.79-5.22-4.75-7.31-1.14-2.49,2-2,0-4.53a11.63,11.63,0,0,1-1.88-2.42,4.11,4.11,0,0,0-1.24-1.55,9.62,9.62,0,0,1-1-.91c-.38-.66-.06-.84-.22-1.45A4,4,0,0,0,163,87.34a8.42,8.42,0,0,1-2.28-3.06,2.4,2.4,0,0,0,.67-2.17,7.61,7.61,0,0,0-1.09-2.92c-.75-.21-.68.61-1.73-.21a19.64,19.64,0,0,1-2-2.14,5.71,5.71,0,0,1-1.51-2.76A3,3,0,0,0,154.3,72c-.69-.77-1.44-1.2-2.24-2.18a5,5,0,0,1-1.09-2c-.15-.55-.2-1-.33-1.52s.31-.65-.49-1.62A15.41,15.41,0,0,1,146.38,62l-.59-.56c1,3.45,2,7.37,2.93,11.65a21.23,21.23,0,0,1,2.49,2.16C152.12,76.19,152.89,77.3,153.78,78.31Z" style="fill:#213a1f"/><path d="M66.27,206.66a2.31,2.31,0,0,1-.16-.31l-2.5.4a3.21,3.21,0,0,0,.32.27l1,.77a3.2,3.2,0,0,1,.26.24l.34.26c1.25.66,2.51,1.28,3.79,1.86-.78-.72-1.49-1.4-2-1.93C66.52,207.43,66.27,207,66.27,206.66Z" style="fill:#213a1f"/><path d="M92.2,212.94a13.78,13.78,0,0,1-1.31-3.18,7.26,7.26,0,0,0-2-3.37c-.65-.61-1.35-1.2-2-1.83a15.81,15.81,0,0,1-2.33-2.36q-2.46.72-5,1.36c0,.08.09.15.12.22a1.57,1.57,0,0,1-.28,1.73c-.53.83.9,1.57,2.11,2.43a6,6,0,0,1,2.26,2.51,2.91,2.91,0,0,0,1.42,1.82c.54.33,1.15.64,1.66,1a20.2,20.2,0,0,1,2.68,2.3c1.6.16,3.21.28,4.84.31a7.08,7.08,0,0,1-1.33-1.3A4.77,4.77,0,0,1,92.2,212.94Z" style="fill:#213a1f"/><path d="M115.64,201c.36-.54,1.36-1,1.18-2.08a16.06,16.06,0,0,0-1.84-2.72,18.14,18.14,0,0,1-3.07-5.69,98.5,98.5,0,0,1-9,4.84c0,.18,0,.36,0,.54.94,1.08,1.35-.24,2.28,1a24.29,24.29,0,0,1,1.44,4.14c1,2.85,1.54,5.61,2.88,8a14.26,14.26,0,0,1,1.52,3.25c.17.63.25,1.17.35,1.71,1.72-.41,3.44-.88,5.17-1.44a23.52,23.52,0,0,1-2.27-5A7.9,7.9,0,0,1,115.64,201Z" style="fill:#213a1f"/></g><path d="M184.32,52.6s-.07-.34-.15-1c0-.35,0-.88,0-1.46a14.63,14.63,0,0,1,.22-1.8,15.56,15.56,0,0,1,1.6-4.47,18.37,18.37,0,0,1,3.65-4.82,13.63,13.63,0,0,1,6.34-3.52,10,10,0,0,1,4.13-.07,8.29,8.29,0,0,1,3.88,2,10,10,0,0,1,2.46,3.65,10.32,10.32,0,0,1,.78,4.41,5.81,5.81,0,0,1-.63,2.43,2.87,2.87,0,0,1-2.72,1.57l-.25,0-.15,0-.3-.09a1.9,1.9,0,0,1-1-.73,2.35,2.35,0,0,1-.23-1.8,7.37,7.37,0,0,1,1-2.19,12.87,12.87,0,0,1,1.3-1.8c.14-.16.22-.26.42-.46l.37-.35a8.16,8.16,0,0,1,.84-.73,11.74,11.74,0,0,1,4-2,13.52,13.52,0,0,1,4.27-.57,11.5,11.5,0,0,1,4.14.92,7.84,7.84,0,0,1,3.33,2.6,6.13,6.13,0,0,1,.9,1.94,8.31,8.31,0,0,1,.16,1.07c0,.3,0,.58,0,.9a18.46,18.46,0,0,1-.54,3.59,14.49,14.49,0,0,0-.29,1.53,2,2,0,0,0,.09,1.1c.13.47,1.1.67,1.93.7.44,0,.88,0,1.29,0s.83-.07,1.27-.11a11,11,0,0,1,2.5-.06,4.44,4.44,0,0,1,2.17.84,5.64,5.64,0,0,1,1.75,2.63,3.73,3.73,0,0,0,.47,1h0a.95.95,0,1,1-1.51,1.15,1,1,0,0,1-.18-.78,2.1,2.1,0,0,0-.07-.92,4.28,4.28,0,0,0-1.29-2c-.76-.59-2.05-.66-3.7-.44-.39.05-.88.11-1.31.14s-1,0-1.46,0a6.94,6.94,0,0,1-1.62-.23,4.08,4.08,0,0,1-.89-.4,2.46,2.46,0,0,1-.74-.86,3.28,3.28,0,0,1-.28-2,14.36,14.36,0,0,1,.28-1.7A17.8,17.8,0,0,0,221,46.3c0-.27,0-.58,0-.87s-.08-.49-.13-.72a4,4,0,0,0-.66-1.37,5.94,5.94,0,0,0-2.62-1.94,9.92,9.92,0,0,0-3.5-.7,12.14,12.14,0,0,0-3.66.55,10,10,0,0,0-3.27,1.68,10.28,10.28,0,0,0-2.43,2.85,6.67,6.67,0,0,0-.69,1.57c0,.2,0,.38-.05.19a.27.27,0,0,0-.17-.13h-.05l.1,0,.26,0a.8.8,0,0,0,.57-.48,3.83,3.83,0,0,0,.32-1.5,8.41,8.41,0,0,0-2.61-6.22,5.72,5.72,0,0,0-2.78-1.41,6.7,6.7,0,0,0-1.55-.1,4.53,4.53,0,0,0-.75.08,4.77,4.77,0,0,0-.78.15,10.86,10.86,0,0,0-5.08,3,15.59,15.59,0,0,0-3,4.19,12.44,12.44,0,0,0-1.24,3.7,11.3,11.3,0,0,0-.14,1.38c0,.37,0,.63,0,.91l.17,1a1.48,1.48,0,0,1-2.91.51Z" style="fill:#2f4c2d"/><path d="M225.16,161.25c-19.7,43.16-65,72.5-109.65,44.39-47.58-15.8-57.27-68.42-37.57-111.58s68.94-69.61,108.9-44.73C234.35,63.33,244.86,118.09,225.16,161.25Z" style="fill:#2f4c2d"/><path d="M222.55,160.06c-19,41.63-65.54,68.78-105.78,42.8-43.91-16.68-55.21-66-36.21-107.6s67.25-65.92,105-43.15C230.75,66,241.55,118.43,222.55,160.06Z" style="fill:#f1fdbd"/><path d="M219.42,158.63c-18,39.56-64.25,65.94-101.29,41.26-41.22-15.2-52.5-63.64-34.44-103.21s64-64.68,100.52-41.82C228.23,67.19,237.47,119.07,219.42,158.63Z" style="fill:#f83b3b"/><path d="M191.92,79.14a10.5,10.5,0,0,0-.66,2.78c-.14,1.08-.16,2,.12,2.2s1.07-.27,2-.81a10,10,0,0,0,2.33-1.7,2.28,2.28,0,1,0-3.8-2.47Z" style="fill:#3d0e0a"/><path d="M192.3,79.59c-.44.84-.87,3.56-.43,3.83s2.75-1.2,3.34-1.93a1.75,1.75,0,1,0-2.91-1.9Z" style="fill:#4d1b17"/><g style="opacity:0.4;mix-blend-mode:screen"><path d="M191.72,83s-.07,0-.09,0a.27.27,0,0,1,0-.18,2.29,2.29,0,0,1,0-.25c0-.09.05-.23.15-.26s.1.13.09.22a1.32,1.32,0,0,1-.07.32A.43.43,0,0,1,191.72,83Z" style="fill:#fff"/></g><g style="opacity:0.4;mix-blend-mode:screen"><path d="M192,81.62a.86.86,0,0,1-.16.38c-.12.13-.13-.16-.12-.32l0-.27.12-.65c0-.12,0-.25.08-.37a.29.29,0,0,1,.17-.2c.09,0,.13.06.13.16a3.24,3.24,0,0,1-.12.68l-.09.4Z" style="fill:#fff"/></g><path d="M205.54,95.37c-1.13.47-3.78,2.86-3.58,3.52s3.81,1,5,.72a2.25,2.25,0,1,0-1.41-4.24Z" style="fill:#3d0e0a"/><path d="M205.55,96c-.88.35-2.93,2.18-2.77,2.71s2.93.79,3.84.55A1.73,1.73,0,1,0,205.55,96Z" style="fill:#4d1b17"/><g style="opacity:0.4;mix-blend-mode:screen"><path d="M203,98.2c-.06,0-.08,0-.09,0a.37.37,0,0,1,.08-.17,1.37,1.37,0,0,1,.17-.17c.07-.07.19-.16.28-.12s0,.17-.06.24a2.56,2.56,0,0,1-.26.2A.29.29,0,0,1,203,98.2Z" style="fill:#fff"/></g><g style="opacity:0.4;mix-blend-mode:screen"><path d="M204,97.32a1,1,0,0,1-.36.2c-.18,0,0-.21.1-.33L204,97l.51-.42a1.63,1.63,0,0,1,.29-.23.32.32,0,0,1,.26,0c.1,0,.06.13,0,.21a2.75,2.75,0,0,1-.52.44l-.32.26Z" style="fill:#fff"/></g><path d="M208.79,116.3c-1.22,0-4.59,1.23-4.63,2,0,.57,3.19,2.33,4.4,2.45a2.23,2.23,0,1,0,.23-4.42Z" style="fill:#3d0e0a"/><path d="M208.57,116.84c-.94,0-3.53.93-3.57,1.51s2.46,1.8,3.39,1.88a1.71,1.71,0,1,0,.18-3.39Z" style="fill:#4d1b17"/><g style="opacity:0.4;mix-blend-mode:screen"><path d="M205.32,118c-.06,0-.07,0-.06-.08s.08-.09.14-.13l.22-.11c.09,0,.23-.08.3,0s-.07.16-.15.2a1.41,1.41,0,0,1-.31.1A.32.32,0,0,1,205.32,118Z" style="fill:#fff"/></g><g style="opacity:0.4;mix-blend-mode:screen"><path d="M206.66,117.54a1,1,0,0,1-.42,0c-.17,0,.08-.2.22-.27l.26-.1.63-.2a2.47,2.47,0,0,1,.36-.11.34.34,0,0,1,.27.06c.07.07,0,.14-.09.19a3.53,3.53,0,0,1-.65.21l-.39.12Z" style="fill:#fff"/></g><path d="M205.51,137.16c-1.18-.32-4.74.05-5,.76-.19.54,2.53,3.05,3.68,3.45a2.22,2.22,0,1,0,1.3-4.21Z" style="fill:#3d0e0a"/><path d="M205.17,137.62c-.9-.25-3.66,0-3.84.58s1.95,2.36,2.83,2.66a1.71,1.71,0,1,0,1-3.24Z" style="fill:#4d1b17"/><g style="opacity:0.4;mix-blend-mode:screen"><path d="M201.73,137.91a.07.07,0,0,1,0-.09.34.34,0,0,1,.18-.09l.24,0c.1,0,.24,0,.3.07s-.11.14-.2.16-.21,0-.33,0A.41.41,0,0,1,201.73,137.91Z" style="fill:#fff"/></g><g style="opacity:0.4;mix-blend-mode:screen"><path d="M203.14,137.82a1,1,0,0,1-.41,0c-.15-.09.12-.17.28-.21l.28,0,.66,0c.12,0,.25,0,.37,0a.31.31,0,0,1,.24.12c.05.08,0,.14-.13.16a3.87,3.87,0,0,1-.69.05l-.4,0Z" style="fill:#fff"/></g><path d="M197.41,156.65c-1.07-.59-4.62-1.06-5-.42s1.75,3.55,2.77,4.21a2.22,2.22,0,1,0,2.24-3.79Z" style="fill:#3d0e0a"/><path d="M197,157c-.82-.46-3.56-.82-3.87-.32s1.34,2.74,2.14,3.24A1.71,1.71,0,1,0,197,157Z" style="fill:#4d1b17"/><g style="opacity:0.4;mix-blend-mode:screen"><path d="M193.57,156.51a.06.06,0,0,1,0-.1.36.36,0,0,1,.19-.06H194c.09,0,.24,0,.27.14s-.14.11-.23.11a1.8,1.8,0,0,1-.32-.06A.37.37,0,0,1,193.57,156.51Z" style="fill:#fff"/></g><g style="opacity:0.4;mix-blend-mode:screen"><path d="M195,156.74a.84.84,0,0,1-.39-.15c-.13-.12.16-.14.32-.13l.27,0,.66.12a2.29,2.29,0,0,1,.36.07.33.33,0,0,1,.21.17c0,.1-.06.13-.17.13a3.75,3.75,0,0,1-.67-.11l-.4-.08Z" style="fill:#fff"/></g><path d="M185,173.69c-.9-.83-4.23-2.14-4.76-1.63s.83,3.88,1.65,4.77a2.22,2.22,0,1,0,3.11-3.14Z" style="fill:#3d0e0a"/><path d="M184.45,173.94c-.69-.64-3.25-1.67-3.67-1.26s.63,3,1.27,3.67a1.71,1.71,0,1,0,2.4-2.41Z" style="fill:#4d1b17"/><g style="opacity:0.4;mix-blend-mode:screen"><path d="M181.27,172.61s0-.08,0-.09a.33.33,0,0,1,.2,0l.24.07c.09,0,.22.1.23.2s-.16.07-.25.05a2,2,0,0,1-.3-.14A.2.2,0,0,1,181.27,172.61Z" style="fill:#fff"/></g><g style="opacity:0.4;mix-blend-mode:screen"><path d="M182.56,173.19a1,1,0,0,1-.34-.24c-.1-.15.19-.1.34-.06l.26.1.6.28a3.49,3.49,0,0,1,.34.15.37.37,0,0,1,.16.22c0,.1-.09.11-.19.09a3.91,3.91,0,0,1-.63-.28l-.37-.17Z" style="fill:#fff"/></g><path d="M168.3,186.72c-.59-1.07-3.3-3.42-3.93-3.13s-.54,3.9-.1,5a2.24,2.24,0,1,0,4-1.9Z" style="fill:#3d0e0a"/><path d="M167.72,186.79c-.44-.83-2.51-2.65-3-2.42s-.42,3-.07,3.88a1.72,1.72,0,1,0,3.09-1.46Z" style="fill:#4d1b17"/><g style="opacity:0.4;mix-blend-mode:screen"><path d="M165.17,184.48a.06.06,0,0,1,0-.09.28.28,0,0,1,.18.06l.2.14c.07.06.18.17.15.27s-.17,0-.25,0a1.25,1.25,0,0,1-.23-.23S165.19,184.53,165.17,184.48Z" style="fill:#fff"/></g><g style="opacity:0.4;mix-blend-mode:screen"><path d="M166.19,185.45c-.08-.09-.22-.22-.24-.34s.2,0,.33.06l.22.18.47.46c.09.09.19.17.27.26a.34.34,0,0,1,.08.26c0,.1-.12.07-.21,0a3.1,3.1,0,0,1-.5-.46l-.29-.29Z" style="fill:#fff"/></g><path d="M147.57,191.24a10.11,10.11,0,0,0-.4-2.83c-.26-1-.58-1.91-.91-2s-.89.64-1.57,1.49a10,10,0,0,0-1.55,2.42,2.28,2.28,0,1,0,4.43.92Z" style="fill:#3d0e0a"/><path d="M147.05,191c.11-.94-.49-3.61-1-3.73s-2.13,2.14-2.4,3a1.74,1.74,0,1,0,3.39.7Z" style="fill:#4d1b17"/><g style="opacity:0.4;mix-blend-mode:screen"><path d="M146.36,187.6a.06.06,0,0,1,.08,0c.05,0,.08.09.11.15a2,2,0,0,1,.06.23c0,.1,0,.24,0,.3s-.14-.08-.17-.17a1.07,1.07,0,0,1,0-.32A.22.22,0,0,1,146.36,187.6Z" style="fill:#fff"/></g><g style="opacity:0.4;mix-blend-mode:screen"><path d="M146.59,189a1.13,1.13,0,0,1,0-.41c.07-.17.18.1.24.24l.06.28.12.65a2.25,2.25,0,0,1,.06.36.32.32,0,0,1-.08.26c-.08.06-.14,0-.18-.11a3.62,3.62,0,0,1-.14-.67l-.06-.4Z" style="fill:#fff"/></g><path d="M114.86,176.94c.61-1,1.29-4.63.71-5-.25-.15-1.12.22-2.08.73a9.5,9.5,0,0,0-2.38,1.62,2.4,2.4,0,0,0,.44,3.38A2.36,2.36,0,0,0,114.86,176.94Z" style="fill:#3d0e0a"/><path d="M114.5,176.47c.48-.8,1-3.55.56-3.85s-2.84,1.09-3.43,1.82a1.77,1.77,0,1,0,2.87,2Z" style="fill:#4d1b17"/><g style="opacity:0.4;mix-blend-mode:screen"><path d="M115.2,173.08c0-.05.08,0,.1,0a.28.28,0,0,1,0,.19,1,1,0,0,1,0,.24c0,.09,0,.24-.15.26s-.1-.14-.09-.23a1.87,1.87,0,0,1,.08-.32A.29.29,0,0,1,115.2,173.08Z" style="fill:#fff"/></g><g style="opacity:0.4;mix-blend-mode:screen"><path d="M114.87,174.45a1,1,0,0,1,.18-.38c.13-.12.12.17.11.33l0,.27-.15.65a2.49,2.49,0,0,1-.09.37.31.31,0,0,1-.18.19c-.1,0-.13-.07-.12-.17a4.11,4.11,0,0,1,.14-.68l.11-.39Z" style="fill:#fff"/></g><path d="M100.49,160.71a8.87,8.87,0,0,0,2.12-1.88c.73-.82,1.3-1.62,1.15-2s-3.89-.74-5-.35a2.29,2.29,0,1,0,1.77,4.2Z" style="fill:#3d0e0a"/><path d="M100.42,160.13c.83-.4,2.78-2.45,2.55-3s-3-.57-3.9-.26a1.76,1.76,0,1,0,1.35,3.23Z" style="fill:#4d1b17"/><g style="opacity:0.4;mix-blend-mode:screen"><path d="M102.84,157.64s.09,0,.09,0a.3.3,0,0,1-.07.19c0,.06-.1.13-.16.19s-.17.18-.26.14,0-.18,0-.25a2.61,2.61,0,0,1,.24-.23A.5.5,0,0,1,102.84,157.64Z" style="fill:#fff"/></g><g style="opacity:0.4;mix-blend-mode:screen"><path d="M101.83,158.63a.89.89,0,0,1,.35-.23c.17,0,0,.21-.09.34l-.19.21-.48.47a3.2,3.2,0,0,1-.27.25.29.29,0,0,1-.26.07c-.1,0-.07-.13,0-.21a3.78,3.78,0,0,1,.49-.49l.3-.28Z" style="fill:#fff"/></g><path d="M95.51,139.63c1.2-.06,4.55-1.54,4.52-2.29,0-.57-3.31-2.19-4.54-2.24a2.27,2.27,0,1,0,0,4.53Z" style="fill:#3d0e0a"/><path d="M95.69,139.07c.94,0,3.51-1.17,3.49-1.76s-2.56-1.69-3.5-1.72a1.75,1.75,0,1,0,0,3.48Z" style="fill:#4d1b17"/><g style="opacity:0.4;mix-blend-mode:screen"><path d="M98.89,137.71s.07,0,.06.08a.22.22,0,0,1-.13.14.94.94,0,0,1-.22.12c-.08,0-.22.1-.3,0s.06-.17.14-.22a2.24,2.24,0,0,1,.31-.11A.33.33,0,0,1,98.89,137.71Z" style="fill:#fff"/></g><g style="opacity:0.4;mix-blend-mode:screen"><path d="M97.57,138.24a.88.88,0,0,1,.41-.08c.18,0-.06.21-.2.29l-.26.12-.62.24a1.48,1.48,0,0,1-.35.13.31.31,0,0,1-.27,0c-.07-.06,0-.14.08-.2a4.51,4.51,0,0,1,.64-.26l.38-.14Z" style="fill:#fff"/></g><path d="M98,118.16c1.19.3,4.74-.16,5-.89.18-.55-2.57-3.06-3.72-3.45A2.27,2.27,0,1,0,98,118.16Z" style="fill:#3d0e0a"/><path d="M98.31,117.68c.91.24,3.66-.11,3.84-.68s-2-2.36-2.86-2.65a1.74,1.74,0,1,0-1,3.33Z" style="fill:#4d1b17"/><g style="opacity:0.4;mix-blend-mode:screen"><path d="M101.75,117.3s.06.06,0,.09a.32.32,0,0,1-.18.1,1.68,1.68,0,0,1-.24.06c-.09,0-.24,0-.29-.07s.11-.14.19-.16a1.84,1.84,0,0,1,.33,0A.37.37,0,0,1,101.75,117.3Z" style="fill:#fff"/></g><g style="opacity:0.4;mix-blend-mode:screen"><path d="M100.34,117.42a.93.93,0,0,1,.41,0c.15.09-.12.18-.27.22l-.28,0-.66,0a2.36,2.36,0,0,1-.38,0,.34.34,0,0,1-.24-.11c0-.09,0-.14.13-.17a3.11,3.11,0,0,1,.69-.07l.4,0Z" style="fill:#fff"/></g><path d="M106.25,98.21c1.06.6,4.62,1.11,5,.47s-1.68-3.64-2.66-4.31a2.27,2.27,0,1,0-2.38,3.84Z" style="fill:#3d0e0a"/><path d="M106.7,97.83c.8.47,3.56.88,3.89.38s-1.29-2.81-2.07-3.33a1.74,1.74,0,1,0-1.82,3Z" style="fill:#4d1b17"/><g style="opacity:0.4;mix-blend-mode:screen"><path d="M110.12,98.39a.06.06,0,0,1,0,.1.29.29,0,0,1-.19.05h-.25c-.1,0-.24,0-.27-.14s.14-.11.24-.11a1.8,1.8,0,0,1,.32.06A.39.39,0,0,1,110.12,98.39Z" style="fill:#fff"/></g><g style="opacity:0.4;mix-blend-mode:screen"><path d="M108.72,98.13a1.09,1.09,0,0,1,.39.15c.12.13-.17.14-.33.14l-.28,0-.65-.12a2.09,2.09,0,0,1-.36-.08.31.31,0,0,1-.21-.17c0-.1.07-.13.17-.13a4,4,0,0,1,.68.11l.4.09Z" style="fill:#fff"/></g><path d="M119.55,81.19c.84.85,4.17,2.36,4.72,1.84s-.59-3.93-1.36-4.87a2.27,2.27,0,1,0-3.36,3Z" style="fill:#3d0e0a"/><path d="M120.08,81c.65.67,3.21,1.84,3.64,1.44s-.45-3-1-3.77A1.75,1.75,0,1,0,120.08,81Z" style="fill:#4d1b17"/><g style="opacity:0.4;mix-blend-mode:screen"><path d="M123.23,82.43s0,.08,0,.1a.28.28,0,0,1-.2,0l-.24-.08c-.09,0-.22-.11-.22-.21s.17-.07.26,0a1.34,1.34,0,0,1,.29.15A.32.32,0,0,1,123.23,82.43Z" style="fill:#fff"/></g><g style="opacity:0.4;mix-blend-mode:screen"><path d="M122,81.8a.93.93,0,0,1,.33.26c.08.15-.2.08-.35,0l-.26-.12-.6-.3a3.47,3.47,0,0,1-.33-.18.3.3,0,0,1-.14-.22c0-.1.1-.1.2-.08a4,4,0,0,1,.62.31l.36.19Z" style="fill:#fff"/></g><path d="M137.39,69a9.08,9.08,0,0,0,1.82,2.18c.79.75,1.58,1.35,1.93,1.2.51-.21.86-3.87.51-5A2.29,2.29,0,1,0,137.39,69Z" style="fill:#3d0e0a"/><path d="M138,68.9c.37.84,2.36,2.85,2.88,2.63s.67-3,.38-3.88A1.75,1.75,0,1,0,138,68.9Z" style="fill:#4d1b17"/><g style="opacity:0.4;mix-blend-mode:screen"><path d="M140.39,71.39c0,.06,0,.09,0,.09a.29.29,0,0,1-.18-.07l-.19-.16c-.07-.07-.17-.18-.13-.28s.18,0,.25.06a1.31,1.31,0,0,1,.22.25A.44.44,0,0,1,140.39,71.39Z" style="fill:#fff"/></g><g style="opacity:0.4;mix-blend-mode:screen"><path d="M139.43,70.35a.8.8,0,0,1,.22.36c0,.17-.21,0-.34-.09l-.2-.2-.45-.5a1.67,1.67,0,0,1-.25-.28.29.29,0,0,1-.06-.26c0-.1.13-.06.21,0a3.33,3.33,0,0,1,.48.51l.27.3Z" style="fill:#fff"/></g><path d="M158.81,65.58a9.53,9.53,0,0,0,.36,2.83c.26,1,.58,2,.93,2s.94-.64,1.63-1.49a9.31,9.31,0,0,0,1.58-2.39,2.43,2.43,0,0,0-.21-1.82,2.33,2.33,0,0,0-1.5-1.13A2.38,2.38,0,0,0,158.81,65.58Z" style="fill:#3d0e0a"/><path d="M159.33,65.86c-.13.93.45,3.63,1,3.77s2.2-2.15,2.47-3a1.77,1.77,0,1,0-3.45-.75Z" style="fill:#4d1b17"/><g style="opacity:0.4;mix-blend-mode:screen"><path d="M160,69.25a.06.06,0,0,1-.08,0,.3.3,0,0,1-.11-.17,2.17,2.17,0,0,1-.07-.24c0-.09,0-.24,0-.3s.15.1.17.19a1.14,1.14,0,0,1,.05.33S160,69.2,160,69.25Z" style="fill:#fff"/></g><g style="opacity:0.4;mix-blend-mode:screen"><path d="M159.78,67.85a1,1,0,0,1,0,.41c-.08.17-.19-.1-.24-.25l-.06-.27-.11-.65a2.25,2.25,0,0,1-.06-.36.33.33,0,0,1,.09-.26c.08-.06.14,0,.18.11a3,3,0,0,1,.13.68l.06.39Z" style="fill:#fff"/></g><path d="M184.65,89.2a11.4,11.4,0,0,0-.82,2.69c-.22,1-.37,2-.13,2.14s1-.29,2-.79A11.36,11.36,0,0,0,188,91.65a2.12,2.12,0,1,0-3.37-2.45Z" style="fill:#3d0e0a"/><path d="M185,89.63c-.46.79-1.13,3.47-.77,3.73s2.7-1.15,3.33-1.84A1.62,1.62,0,1,0,185,89.63Z" style="fill:#4d1b17"/><g style="opacity:0.4;mix-blend-mode:screen"><path d="M184.14,92.93s-.07,0-.09,0a.27.27,0,0,1,0-.18,2,2,0,0,1,.05-.24c0-.09.06-.23.15-.26s.08.14.07.22-.07.2-.1.31A.52.52,0,0,1,184.14,92.93Z" style="fill:#fff"/></g><g style="opacity:0.4;mix-blend-mode:screen"><path d="M184.54,91.6a1.16,1.16,0,0,1-.18.37c-.13.12-.1-.16-.08-.31l.06-.27.18-.64c0-.11,0-.24.09-.35a.36.36,0,0,1,.18-.2c.09,0,.12.06.11.16a4,4,0,0,1-.17.66l-.12.39Z" style="fill:#fff"/></g><path d="M195.9,105c-1.15.34-4.11,2.37-4,3s3.64,1.19,4.85,1a2.28,2.28,0,0,0,2-2.53A2.26,2.26,0,0,0,195.9,105Z" style="fill:#3d0e0a"/><path d="M195.84,105.5c-.9.25-3.18,1.8-3.06,2.28s2.8.93,3.73.77a1.59,1.59,0,1,0-.67-3Z" style="fill:#4d1b17"/><g style="opacity:0.4;mix-blend-mode:screen"><path d="M193,107.38c-.06,0-.08,0-.08,0s.05-.1.1-.15l.19-.15c.08,0,.2-.13.29-.09s0,.16-.1.22a1.2,1.2,0,0,1-.27.16A.38.38,0,0,1,193,107.38Z" style="fill:#fff"/></g><g style="opacity:0.4;mix-blend-mode:screen"><path d="M194.17,106.65a1.17,1.17,0,0,1-.39.15c-.17,0,0-.19.15-.29l.22-.16.56-.35c.11-.06.21-.14.32-.19a.37.37,0,0,1,.27,0c.08,0,0,.13,0,.19a3.77,3.77,0,0,1-.57.38l-.35.21Z" style="fill:#fff"/></g><path d="M197,124.27c-1.19-.12-4.69.68-4.78,1.34-.06.5,3,2.43,4.19,2.66a2.06,2.06,0,1,0,.59-4Z" style="fill:#3d0e0a"/><path d="M196.8,124.74c-.93-.11-3.63.5-3.7,1s2.32,1.88,3.23,2a1.58,1.58,0,1,0,.47-3.07Z" style="fill:#4d1b17"/><g style="opacity:0.4;mix-blend-mode:screen"><path d="M193.44,125.45c-.05,0-.06,0-.05-.07a.25.25,0,0,1,.15-.11l.24-.08c.09,0,.23,0,.3,0s-.09.14-.17.17a1.64,1.64,0,0,1-.32,0A.37.37,0,0,1,193.44,125.45Z" style="fill:#fff"/></g><g style="opacity:0.4;mix-blend-mode:screen"><path d="M194.82,125.19a1.19,1.19,0,0,1-.42,0c-.16-.07.1-.18.25-.23l.27-.06.64-.12a2.38,2.38,0,0,1,.37-.06.37.37,0,0,1,.26.07c.06.07,0,.13-.11.16a3.62,3.62,0,0,1-.67.14l-.4.07Z" style="fill:#fff"/></g><path d="M192.18,142.93c-1.12-.45-4.71-.61-5,0-.2.47,2.24,3.14,3.33,3.68a2.06,2.06,0,1,0,1.64-3.69Z" style="fill:#3d0e0a"/><path d="M191.81,143.31c-.87-.35-3.63-.49-3.83,0s1.73,2.43,2.57,2.83a1.58,1.58,0,1,0,1.26-2.83Z" style="fill:#4d1b17"/><g style="opacity:0.4;mix-blend-mode:screen"><path d="M188.39,143.1s0-.06,0-.08.11-.06.18-.07h.24c.09,0,.24,0,.28.11s-.11.11-.2.11a1.27,1.27,0,0,1-.33,0A.24.24,0,0,1,188.39,143.1Z" style="fill:#fff"/></g><g style="opacity:0.4;mix-blend-mode:screen"><path d="M189.79,143.22a1.13,1.13,0,0,1-.41-.11c-.14-.1.14-.14.3-.15H190l.66.06a2.33,2.33,0,0,1,.37,0,.34.34,0,0,1,.23.14c0,.08-.05.12-.15.13a4,4,0,0,1-.68-.06l-.4,0Z" style="fill:#fff"/></g><path d="M182.54,159.63c-1-.73-4.36-1.85-4.78-1.33s1.31,3.63,2.21,4.44a2.06,2.06,0,1,0,2.57-3.11Z" style="fill:#3d0e0a"/><path d="M182.09,159.9c-.74-.57-3.37-1.45-3.69-1s1,2.81,1.71,3.43a1.58,1.58,0,1,0,2-2.39Z" style="fill:#4d1b17"/><g style="opacity:0.4;mix-blend-mode:screen"><path d="M178.85,158.78s0-.08,0-.09.11,0,.18,0l.24.06c.09,0,.23.08.24.18s-.14.07-.23.05a2.22,2.22,0,0,1-.3-.11A.33.33,0,0,1,178.85,158.78Z" style="fill:#fff"/></g><g style="opacity:0.4;mix-blend-mode:screen"><path d="M180.16,159.26a1,1,0,0,1-.35-.21c-.11-.14.17-.1.32-.06l.26.08.62.23a3.65,3.65,0,0,1,.35.14.38.38,0,0,1,.18.2c0,.09-.08.1-.18.08a4.1,4.1,0,0,1-.64-.23l-.38-.15Z" style="fill:#fff"/></g><path d="M168.49,172.88c-.68-1-3.49-3.16-4-2.85s0,3.85.54,4.92a2.08,2.08,0,1,0,3.5-2.07Z" style="fill:#3d0e0a"/><path d="M168,173c-.52-.79-2.67-2.45-3.11-2.21s0,3,.42,3.81A1.59,1.59,0,1,0,168,173Z" style="fill:#4d1b17"/><g style="opacity:0.4;mix-blend-mode:screen"><path d="M165.31,170.86c0-.05,0-.08,0-.09a.33.33,0,0,1,.18,0l.2.13c.08.06.19.16.17.25s-.15,0-.23,0a2.46,2.46,0,0,1-.25-.22S165.33,170.91,165.31,170.86Z" style="fill:#fff"/></g><g style="opacity:0.4;mix-blend-mode:screen"><path d="M166.37,171.76a1.31,1.31,0,0,1-.26-.32c-.06-.17.19,0,.32,0l.22.17.5.42a3.22,3.22,0,0,1,.28.24.43.43,0,0,1,.11.25c0,.09-.11.07-.2,0a3.49,3.49,0,0,1-.52-.43l-.31-.26Z" style="fill:#fff"/></g><path d="M150,178.68a11,11,0,0,0-.53-2.78c-.29-1-.6-1.88-.9-1.94s-.77.75-1.35,1.64a11.31,11.31,0,0,0-1.34,2.48,2.12,2.12,0,1,0,4.12.6Z" style="fill:#3d0e0a"/><path d="M149.5,178.45c0-.94-.65-3.55-1.08-3.65-.19,0-.62.56-1.07,1.26a8.66,8.66,0,0,0-1,1.94,1.63,1.63,0,1,0,3.16.45Z" style="fill:#4d1b17"/><g style="opacity:0.4;mix-blend-mode:screen"><path d="M148.7,175.15c0-.06,0-.07.07-.06s.07.09.1.16,0,.15.07.23.05.24,0,.3-.13-.08-.16-.17a1.65,1.65,0,0,1-.06-.32A.66.66,0,0,1,148.7,175.15Z" style="fill:#fff"/></g><g style="opacity:0.4;mix-blend-mode:screen"><path d="M149,176.51a1.13,1.13,0,0,1,0-.41c.05-.17.16.08.22.23l.07.26.14.64a1.9,1.9,0,0,1,.08.36.33.33,0,0,1-.06.26c-.06.07-.13,0-.17-.09a3.53,3.53,0,0,1-.16-.66l-.08-.39Z" style="fill:#fff"/></g><path d="M121.46,166.63a10.19,10.19,0,0,0,.92-2.68c.23-1,.38-2,.13-2.17s-1.07.25-2,.74a10.41,10.41,0,0,0-2.38,1.55,2.14,2.14,0,1,0,3.35,2.56Z" style="fill:#3d0e0a"/><path d="M121.14,166.18c.51-.78,1.21-3.43.83-3.74-.15-.13-.83.17-1.57.56a7.58,7.58,0,0,0-1.82,1.22,1.64,1.64,0,1,0,2.56,2Z" style="fill:#4d1b17"/><g style="opacity:0.4;mix-blend-mode:screen"><path d="M122.06,162.89s.08,0,.09,0a.26.26,0,0,1,0,.18,2,2,0,0,1,0,.24c0,.09-.07.23-.16.26s-.08-.14-.06-.23a1.24,1.24,0,0,1,.1-.31A.52.52,0,0,1,122.06,162.89Z" style="fill:#fff"/></g><g style="opacity:0.4;mix-blend-mode:screen"><path d="M121.63,164.23a1.1,1.1,0,0,1,.2-.37c.12-.12.1.16.08.31l-.07.27-.18.62c0,.12-.06.24-.11.36s-.11.17-.19.19-.12-.07-.1-.17a3.16,3.16,0,0,1,.18-.65l.12-.38Z" style="fill:#fff"/></g><path d="M109.34,151c1.14-.46,3.85-2.72,3.68-3.34-.07-.25-1-.45-2.09-.58a9.51,9.51,0,0,0-2.84-.06,2.12,2.12,0,1,0,1.25,4Z" style="fill:#3d0e0a"/><path d="M109.35,150.41c.87-.33,3-2.07,2.85-2.56s-2.91-.71-3.81-.49a1.62,1.62,0,1,0,1,3Z" style="fill:#4d1b17"/><g style="opacity:0.4;mix-blend-mode:screen"><path d="M112,148.27s.08,0,.08,0,0,.11-.09.17l-.18.16c-.07.06-.19.15-.28.12s0-.17.08-.23a1.24,1.24,0,0,1,.26-.19A.41.41,0,0,1,112,148.27Z" style="fill:#fff"/></g><g style="opacity:0.4;mix-blend-mode:screen"><path d="M110.9,149.12a1,1,0,0,1,.37-.19c.17,0,0,.19-.12.31l-.21.18-.52.39a1.66,1.66,0,0,1-.3.22.31.31,0,0,1-.26.05c-.09,0,0-.12,0-.19a3.21,3.21,0,0,1,.53-.43l.32-.23Z" style="fill:#fff"/></g><path d="M106.77,131.34c1.21.06,4.62-.92,4.71-1.59,0-.51-3.1-2.34-4.29-2.52a2.1,2.1,0,1,0-.42,4.11Z" style="fill:#3d0e0a"/><path d="M107,130.85c.92.06,3.58-.69,3.64-1.22s-2.4-1.81-3.32-1.94a1.61,1.61,0,1,0-.32,3.16Z" style="fill:#4d1b17"/><g style="opacity:0.4;mix-blend-mode:screen"><path d="M110.31,130a.06.06,0,0,1,0,.08.22.22,0,0,1-.15.11,1.57,1.57,0,0,1-.23.09c-.09,0-.23.06-.3,0s.08-.15.16-.18a1.83,1.83,0,0,1,.32-.07A.36.36,0,0,1,110.31,130Z" style="fill:#fff"/></g><g style="opacity:0.4;mix-blend-mode:screen"><path d="M108.94,130.29a1,1,0,0,1,.42,0c.16,0-.09.18-.24.24l-.26.08-.64.15a2.33,2.33,0,0,1-.36.08.36.36,0,0,1-.26-.06c-.07-.07,0-.13.09-.17a2.91,2.91,0,0,1,.66-.17l.4-.09Z" style="fill:#fff"/></g><path d="M111.28,112.12c1.12.44,4.73.59,5,0s-2.2-3.17-3.29-3.72a2.09,2.09,0,1,0-1.69,3.76Z" style="fill:#3d0e0a"/><path d="M111.66,111.74c.87.35,3.64.47,3.84,0s-1.7-2.46-2.54-2.87a1.61,1.61,0,1,0-1.3,2.9Z" style="fill:#4d1b17"/><g style="opacity:0.4;mix-blend-mode:screen"><path d="M115.08,111.92s.06.07,0,.09a.27.27,0,0,1-.17.07h-.25c-.09,0-.24,0-.28-.1s.12-.12.21-.13.21,0,.32,0Z" style="fill:#fff"/></g><g style="opacity:0.4;mix-blend-mode:screen"><path d="M113.69,111.82a1,1,0,0,1,.4.1c.14.11-.14.14-.29.16h-.28l-.66-.06a2.31,2.31,0,0,1-.37,0,.34.34,0,0,1-.23-.14c0-.09,0-.13.15-.14a4,4,0,0,1,.68,0l.4,0Z" style="fill:#fff"/></g><path d="M121.45,95.21c.94.77,4.3,2,4.75,1.48s-1.12-3.7-2-4.56a2.1,2.1,0,1,0-2.76,3.08Z" style="fill:#3d0e0a"/><path d="M121.93,95c.72.6,3.31,1.54,3.66,1.14s-.86-2.85-1.54-3.51A1.62,1.62,0,1,0,121.93,95Z" style="fill:#4d1b17"/><g style="opacity:0.4;mix-blend-mode:screen"><path d="M125.13,96.17s0,.08,0,.1a.27.27,0,0,1-.18,0l-.24-.06c-.09,0-.23-.09-.24-.19s.15-.07.24,0a2.34,2.34,0,0,1,.3.12Z" style="fill:#fff"/></g><g style="opacity:0.4;mix-blend-mode:screen"><path d="M123.84,95.65a1.15,1.15,0,0,1,.35.22c.1.15-.18.1-.33.06l-.26-.09-.61-.25a3.49,3.49,0,0,1-.34-.15.35.35,0,0,1-.18-.2c0-.1.09-.11.18-.09a3.9,3.9,0,0,1,.64.26l.37.16Z" style="fill:#fff"/></g><path d="M136.53,82.44c.61,1,3.31,3.4,3.88,3.11s.32-3.83-.15-5a2.12,2.12,0,1,0-3.73,1.86Z" style="fill:#3d0e0a"/><path d="M137.07,82.36c.46.82,2.53,2.66,3,2.42s.25-3-.12-3.83a1.62,1.62,0,1,0-2.87,1.41Z" style="fill:#4d1b17"/><g style="opacity:0.4;mix-blend-mode:screen"><path d="M139.61,84.67c0,.06,0,.09,0,.09a.28.28,0,0,1-.18-.06,1.25,1.25,0,0,1-.19-.15c-.07-.06-.18-.16-.16-.26s.17,0,.24,0a2.5,2.5,0,0,1,.23.23A.31.31,0,0,1,139.61,84.67Z" style="fill:#fff"/></g><g style="opacity:0.4;mix-blend-mode:screen"><path d="M138.6,83.71a1,1,0,0,1,.25.33c0,.17-.2,0-.33-.06l-.21-.19-.48-.45a2.2,2.2,0,0,1-.26-.27.28.28,0,0,1-.09-.25c0-.09.11-.07.2,0a3.67,3.67,0,0,1,.5.47l.29.28Z" style="fill:#fff"/></g><path d="M155.78,77.73a11,11,0,0,0,.46,2.78c.28,1,.58,1.93.9,2s.82-.73,1.42-1.59A10.12,10.12,0,0,0,160,78.41a2.15,2.15,0,1,0-4.17-.68Z" style="fill:#3d0e0a"/><path d="M156.28,78c-.08.92.55,3.62,1,3.69s1.93-2.24,2.17-3.15a1.64,1.64,0,1,0-3.19-.54Z" style="fill:#4d1b17"/><g style="opacity:0.4;mix-blend-mode:screen"><path d="M157,81.31s0,.07-.07,0a.28.28,0,0,1-.1-.15,2,2,0,0,1-.07-.23c0-.1-.05-.24,0-.31s.14.09.17.17,0,.21,0,.32A.26.26,0,0,1,157,81.31Z" style="fill:#fff"/></g><g style="opacity:0.4;mix-blend-mode:screen"><path d="M156.77,79.93a1.19,1.19,0,0,1,0,.42c-.06.16-.17-.1-.22-.25l-.06-.27-.14-.64c0-.12-.06-.24-.07-.37a.44.44,0,0,1,.07-.26c.07-.06.14,0,.17.1a3.73,3.73,0,0,1,.15.68l.07.4Z" style="fill:#fff"/></g></g></g></svg>