<svg xmlns="http://www.w3.org/2000/svg" xmlns:xlink="http://www.w3.org/1999/xlink" viewBox="0 0 252 252"><defs><linearGradient id="b1ceab56-c683-4ed0-8c57-d0871feb2e26" x1="242.25" y1="4.65" x2="191.9" y2="185.49" gradientTransform="matrix(-0.95, 0.31, 0.31, 0.95, 264.09, -28.48)" gradientUnits="userSpaceOnUse"><stop offset="0" stop-color="#ceda00"/><stop offset="1" stop-color="#7e9400"/></linearGradient><linearGradient id="b87b632d-b15c-4097-b22a-ab244302b0ac" x1="217.27" y1="100.85" x2="214.21" y2="59.39" xlink:href="#b1ceab56-c683-4ed0-8c57-d0871feb2e26"/><pattern id="ed4a7e67-3d3e-460a-8390-1e479468e410" data-name="Motivo nuevo 2" width="10" height="10" patternTransform="matrix(-0.95, 0.01, 0.01, 0.95, 15.04, -76.56)" patternUnits="userSpaceOnUse" viewBox="0 0 10 10"><rect width="10" height="10" style="fill:none"/><path d="M1.82,10.11l.08.17" style="fill:none;stroke:#758a00;stroke-linecap:round;stroke-miterlimit:10;stroke-width:0.378729px"/><path d="M3.5,10.15l0,0" style="fill:none;stroke:#758a00;stroke-linecap:round;stroke-miterlimit:10;stroke-width:0.378729px"/><path d="M10.14,4.55l0-.09" style="fill:none;stroke:#758a00;stroke-linecap:round;stroke-miterlimit:10;stroke-width:0.378729px"/><path d="M2.94,4.36l.58.21" style="fill:none;stroke:#758a00;stroke-linecap:round;stroke-miterlimit:10;stroke-width:0.378729px"/><path d="M6.69,1.39l0,.29" style="fill:none;stroke:#758a00;stroke-linecap:round;stroke-miterlimit:10;stroke-width:0.378729px"/><path d="M8.72,4.49l0,.08" style="fill:none;stroke:#758a00;stroke-linecap:round;stroke-miterlimit:10;stroke-width:0.378729px"/><path d="M6.41,8,6.25,8" style="fill:none;stroke:#758a00;stroke-linecap:round;stroke-miterlimit:10;stroke-width:0.378729px"/><path d="M2.53,8.66l-.13,0" style="fill:none;stroke:#758a00;stroke-linecap:round;stroke-miterlimit:10;stroke-width:0.378729px"/><path d="M1.36,6.48l-.09-.12" style="fill:none;stroke:#758a00;stroke-linecap:round;stroke-miterlimit:10;stroke-width:0.378729px"/><path d="M.87,1.47.79,1.31" style="fill:none;stroke:#758a00;stroke-linecap:round;stroke-miterlimit:10;stroke-width:0.378729px"/><path d="M3.56,1.8l.08-.12" style="fill:none;stroke:#758a00;stroke-linecap:round;stroke-miterlimit:10;stroke-width:0.378729px"/><path d="M8.43,2.09H8.6" style="fill:none;stroke:#758a00;stroke-linecap:round;stroke-miterlimit:10;stroke-width:0.378729px"/><path d="M8.52,7.71l.08.08" style="fill:none;stroke:#758a00;stroke-linecap:round;stroke-miterlimit:10;stroke-width:0.378729px"/><path d="M8.31,9.49l0,.25" style="fill:none;stroke:#758a00;stroke-linecap:round;stroke-miterlimit:10;stroke-width:0.378729px"/><path d="M5.09,6.76l.08,0" style="fill:none;stroke:#758a00;stroke-linecap:round;stroke-miterlimit:10;stroke-width:0.378729px"/><path d="M5.87,4.74l.09,0" style="fill:none;stroke:#758a00;stroke-linecap:round;stroke-miterlimit:10;stroke-width:0.378729px"/><path d="M1.2,3.83H1" style="fill:none;stroke:#758a00;stroke-linecap:round;stroke-miterlimit:10;stroke-width:0.378729px"/><path d="M.5,8.78.3,9" style="fill:none;stroke:#758a00;stroke-linecap:round;stroke-miterlimit:10;stroke-width:0.378729px"/><path d="M4.39,9.61v.33" style="fill:none;stroke:#758a00;stroke-linecap:round;stroke-miterlimit:10;stroke-width:0.378729px"/><path d="M1.82.11,1.9.28" style="fill:none;stroke:#758a00;stroke-linecap:round;stroke-miterlimit:10;stroke-width:0.378729px"/><path d="M5,3l-.09.17" style="fill:none;stroke:#758a00;stroke-linecap:round;stroke-miterlimit:10;stroke-width:0.378729px"/><path d="M3.31,6.64l.08,0" style="fill:none;stroke:#758a00;stroke-linecap:round;stroke-miterlimit:10;stroke-width:0.378729px"/><path d="M7,6,7,6.06" style="fill:none;stroke:#758a00;stroke-linecap:round;stroke-miterlimit:10;stroke-width:0.378729px"/><path d="M7.15,3.7l.13.13" style="fill:none;stroke:#758a00;stroke-linecap:round;stroke-miterlimit:10;stroke-width:0.378729px"/><path d="M9.13.71v0" style="fill:none;stroke:#758a00;stroke-linecap:round;stroke-miterlimit:10;stroke-width:0.378729px"/><path d="M9.56,2.63v0" style="fill:none;stroke:#758a00;stroke-linecap:round;stroke-miterlimit:10;stroke-width:0.378729px"/><path d="M7.56,5.35s0,0,0,0" style="fill:none;stroke:#758a00;stroke-linecap:round;stroke-miterlimit:10;stroke-width:0.378729px"/><path d="M7.39.79h0" style="fill:none;stroke:#758a00;stroke-linecap:round;stroke-miterlimit:10;stroke-width:0.378729px"/><path d="M9.18,6.34h.08" style="fill:none;stroke:#758a00;stroke-linecap:round;stroke-miterlimit:10;stroke-width:0.378729px"/><path d="M9.6,8h.17" style="fill:none;stroke:#758a00;stroke-linecap:round;stroke-miterlimit:10;stroke-width:0.378729px"/><path d="M5.81,9.62l0,0" style="fill:none;stroke:#758a00;stroke-linecap:round;stroke-miterlimit:10;stroke-width:0.378729px"/><path d="M4.31,8.34h.13" style="fill:none;stroke:#758a00;stroke-linecap:round;stroke-miterlimit:10;stroke-width:0.378729px"/><path d="M2,7.53l0,0" style="fill:none;stroke:#758a00;stroke-linecap:round;stroke-miterlimit:10;stroke-width:0.378729px"/><path d="M.44,5.92l.08,0" style="fill:none;stroke:#758a00;stroke-linecap:round;stroke-miterlimit:10;stroke-width:0.378729px"/><path d="M.14,4.55l0-.09" style="fill:none;stroke:#758a00;stroke-linecap:round;stroke-miterlimit:10;stroke-width:0.378729px"/><path d="M2,5.31H2" style="fill:none;stroke:#758a00;stroke-linecap:round;stroke-miterlimit:10;stroke-width:0.378729px"/><path d="M2,3h.08" style="fill:none;stroke:#758a00;stroke-linecap:round;stroke-miterlimit:10;stroke-width:0.378729px"/><path d="M2.44,1.26l0-.13" style="fill:none;stroke:#758a00;stroke-linecap:round;stroke-miterlimit:10;stroke-width:0.378729px"/><path d="M3.5.15l0,0" style="fill:none;stroke:#758a00;stroke-linecap:round;stroke-miterlimit:10;stroke-width:0.378729px"/><path d="M5,1.69l0-.13" style="fill:none;stroke:#758a00;stroke-linecap:round;stroke-miterlimit:10;stroke-width:0.378729px"/><path d="M3.68,3.14l0,0" style="fill:none;stroke:#758a00;stroke-linecap:round;stroke-miterlimit:10;stroke-width:0.378729px"/><path d="M4.4,5.19h.13" style="fill:none;stroke:#758a00;stroke-linecap:round;stroke-miterlimit:10;stroke-width:0.378729px"/><path d="M6.23,2.76l-.08-.09" style="fill:none;stroke:#758a00;stroke-linecap:round;stroke-miterlimit:10;stroke-width:0.378729px"/><path d="M5.67.92s-.07,0,0,0" style="fill:none;stroke:#758a00;stroke-linecap:round;stroke-miterlimit:10;stroke-width:0.378729px"/><path d="M7.39,7.74l.08,0" style="fill:none;stroke:#758a00;stroke-linecap:round;stroke-miterlimit:10;stroke-width:0.378729px"/><path d="M7.34,9.28l.09.09" style="fill:none;stroke:#758a00;stroke-linecap:round;stroke-miterlimit:10;stroke-width:0.378729px"/><path d="M4.39-.39v.33" style="fill:none;stroke:#758a00;stroke-linecap:round;stroke-miterlimit:10;stroke-width:0.378729px"/></pattern></defs><g style="isolation:isolate"><g id="f1eaabc0-56ae-4b22-a743-49b96b6e1a2e" data-name="Layer 22"><path d="M126.33,190a33.89,33.89,0,0,0,20.15-17.86c4.68-10.12,9.35-24.78,6.82-39.75-4.58-27.06-30.5-37.07-46.78-55.79-19.3-22.19-36-11.93-36-11.93s-19.55,1.77-21.77,31.1c-1.86,24.74-16.66,48.25-4.16,72.69C51.47,182,64,191,73.78,196.27a33.89,33.89,0,0,0,26.83,2.28Z" style="fill:#d9e32e"/><path d="M128.42,192.33a33.89,33.89,0,0,0,20.15-17.86c4.69-10.12,9.36-24.78,6.82-39.75-4.58-27.07-30.49-37.07-46.78-55.79C89.32,56.74,72.58,67,72.58,67S53,68.77,50.82,98.1c-1.87,24.74-16.67,48.25-4.17,72.69,6.91,13.51,19.42,22.48,29.23,27.79a33.86,33.86,0,0,0,26.82,2.28Z" style="fill:url(#b1ceab56-c683-4ed0-8c57-d0871feb2e26)"/><path d="M81.4,69.89C79.51,72.73,76,74,72.59,74.4s-6.84.15-10.18.78-6.76,2.42-8.06,5.57c1.48-5.34,5.62-9.66,10.48-12.33s10.39-3.84,15.9-4.48c3-.35,6.2-.5,8.78,1l-2.67.89A9.52,9.52,0,0,0,81.4,69.89Z" style="fill:#d9e32e"/><path d="M90.55,70a6.31,6.31,0,0,1,2.88.73,15.4,15.4,0,0,1,4.39,4.13c7.44,9.17,14.27,18.94,21.42,28.38,1.93,2.56,4,5.57,3.32,8.71-.78,3.7-6.65,7.65-10.33,5.91-3.46-1.64-5.25-7.91-7.16-11q-8.2-13.08-16.4-26.16a14.79,14.79,0,0,1-2.29-4.83A5.16,5.16,0,0,1,87.72,71,4.37,4.37,0,0,1,90.55,70Z" style="fill:#e7f97d;opacity:0.23"/><path d="M66.77,72q-.37,0-.75-.12A32.19,32.19,0,0,1,69.56,70c1.13-.45,2.17-1.23,3.34-1.61a24.68,24.68,0,0,1,7-1.51A15.76,15.76,0,0,1,66.77,72Z" style="fill:url(#b87b632d-b15c-4097-b22a-ab244302b0ac)"/><path d="M80.5,197.07c7-.76,13.26-4.69,18.43-9.32,3.31-3,6.41-6.22,10.14-8.68a31.92,31.92,0,0,1,13.2-4.82c7.44-1,15-.85,21.9-4.14a21.77,21.77,0,0,0,6.35-4.54c-1,3-2.17,5.72-3.31,8.2a33.45,33.45,0,0,1-19.88,17.61L102,199.8a33.43,33.43,0,0,1-26.47-2.24l-1.64-.93A18.91,18.91,0,0,0,80.5,197.07Z" style="fill:#51601b;opacity:0.11"/><g style="opacity:0.7000000000000001"><path d="M78.5,68.8a18.2,18.2,0,0,1-9.74,3.11,1.12,1.12,0,0,0,.1,2.23,20.38,20.38,0,0,0,10.87-3.47A1.12,1.12,0,0,0,78.5,68.8Z" style="fill:#fff"/><path d="M60.65,70.68a18.78,18.78,0,0,0-5,5.13,1.13,1.13,0,0,0,.49,1.51,1.15,1.15,0,0,0,1.5-.49l.17-.28.1-.14c0,.07-.09.12,0,0s.31-.41.48-.61c.34-.41.71-.81,1.09-1.19l.59-.56.31-.28.15-.14c.07-.05.11-.09,0,0,.44-.38.89-.74,1.35-1.09A1.12,1.12,0,0,0,62.2,71a1.14,1.14,0,0,0-1.55-.33Z" style="fill:#fff"/><path d="M51,96.88a149.1,149.1,0,0,1-4,23.27c-1.51,6.3-3.24,12.57-4.14,19a57.93,57.93,0,0,0-.58,10.53,1.12,1.12,0,0,0,2.23-.1A70.55,70.55,0,0,1,46.68,131c1.55-6.79,3.4-13.52,4.68-20.37a131,131,0,0,0,1.84-13.8A1.14,1.14,0,0,0,52,95.71,1.15,1.15,0,0,0,51,96.88Z" style="fill:#fff"/></g><path d="M48.72,95.79c2.22-29.33,21.77-31.1,21.77-31.1s16.73-10.26,36,11.93l.28.31c.52.54,1,1.12,1.55,1.71,10.33,11,23.82,19.21,33.45,30.32,6.6,7,11.78,15,13.59,25.76,2.54,15-2.13,29.63-6.82,39.75a33.89,33.89,0,0,1-20.15,17.86l-25.72,8.53a33.86,33.86,0,0,1-26.82-2.28,78.55,78.55,0,0,1-22-17.18,54.9,54.9,0,0,1-9.32-12.92C32.06,144,46.86,120.53,48.72,95.79Z" style="opacity:0.5;fill:url(#ed4a7e67-3d3e-460a-8390-1e479468e410)"/><path d="M63,60.05c-.34-.28-.68-.58-1-.87C58.49,56,54.45,53,52.51,48.5c-1.09-1-2.95.4-2.92,1.86S50.74,53,51.78,54L62.44,64.48c2.18,2.14,5.68,5.73,7.43,7.39a14,14,0,0,0,6.61-2.28C72.16,66.51,67.13,63.48,63,60.05Z" style="fill:#51310a"/><g style="mix-blend-mode:soft-light"><path d="M69.76,67.89l-2.37-2a1,1,0,0,0-.69-.28,1,1,0,0,0-.69.28,1,1,0,0,0,0,1.38l2.37,2a1,1,0,0,0,.69.28,1,1,0,0,0,.69-.28,1,1,0,0,0,0-1.38Z" style="fill:#fff"/><path d="M64.25,65.22a1,1,0,0,0,0-1.95,1,1,0,0,0,0,1.95Z" style="fill:#fff"/><path d="M51.49,51.48l.09,0a.67.67,0,0,0,.33-.18.84.84,0,0,0,.26-.27.66.66,0,0,0,.11-.36.74.74,0,0,0,0-.39L52.17,50a1.17,1.17,0,0,0-.35-.35l-.24-.09a.92.92,0,0,0-.52,0l-.09,0a.74.74,0,0,0-.33.17.78.78,0,0,0-.26.28.66.66,0,0,0-.11.36.74.74,0,0,0,0,.39l.09.23a1.06,1.06,0,0,0,.35.35l.24.1a.92.92,0,0,0,.52,0Z" style="fill:#fff"/></g><path d="M79.62,190.85c3-3.92,1.5-9.47-.06-14.13-2.76-8.31-5.39-17.41-2.37-25.63,3.12-8.44,6.45-17.23,18.12-20.57,8.65-2.47,18.24-4.46,24.07-11.31A27.23,27.23,0,0,0,125.52,98a24.24,24.24,0,0,0-.53-2.67c13,10.63,25.87,21,29,39.24,2.5,14.76-2.11,29.23-6.73,39.22a33.45,33.45,0,0,1-19.88,17.61L102,199.8a33.43,33.43,0,0,1-26.47-2.24c-1.58-.87-3.25-1.83-4.94-2.89C74,194.52,77.57,193.57,79.62,190.85Z" style="fill:#5a7230;opacity:0.14"/><path d="M193.67,170c6-13.43,7.69-29.11,13.33-43.14.31-.72.61-1.43.89-2.13l.16-.39c11.94-26.87-4.44-37.69-4.44-37.69s-9.88-17-37.38-6.57c-23.21,8.78-50.77,5.32-67.63,27A55.14,55.14,0,0,0,90.84,121a79,79,0,0,0-6.27,27.21,33.88,33.88,0,0,0,9.29,25.27l18.61,19.69a33.87,33.87,0,0,0,24.71,10.71c11.15,0,26.41-2,38.9-10.64C185,187,190.14,178.92,193.67,170Z" style="fill:#8d931c"/><path d="M191.18,167.81c5.62-12.59,7.21-27.29,12.5-40.46.29-.67.57-1.34.83-2,.05-.12.1-.24.16-.36,7-15.75,3.62-25.63.1-30.81-4.93-2.82-18.61,9-27.84,17.93-2.62,2.79-5.6,5.83-9,9.15,0,0,3.8-4.11,9-9.15,18.35-19.61,17.81-26.72,15.6-29.27-5.55-2.72-14.28-4.21-27.09.64-21.77,8.23-47.62,5-63.42,25.3a51.75,51.75,0,0,0-7.29,13,74.14,74.14,0,0,0-5.87,25.51,31.75,31.75,0,0,0,8.71,23.7h0s8.41,7.19,23.16-3.74c0,0-14.52,10.56-8.09,19.68,1.14,1.22,2,2.13,2.39,2.53h0a31.76,31.76,0,0,0,23.16,10c10.47,0,24.78-1.89,36.49-10C183.08,183.78,187.87,176.19,191.18,167.81Z" style="fill:#fcfade"/><path d="M154.35,142.29a82.07,82.07,0,0,1,4-12.62l24.46-23.87-.38-.39-24.53,24a83.42,83.42,0,0,1-12.65,4.34c-4.65,1.18-10.83.74-14.68,3.22-13.14,8.45-4.66,17.05-1.41,20.54l-.22-.23L108.91,176.8l.46.47,20-19.57.15.16c3.2,3.51,13,13.17,21,.61C153.29,154.12,153.16,147.41,154.35,142.29Z" style="fill:#d7e085"/><path d="M145.71,145.2s.38,8.22-.47,10.4a3.94,3.94,0,0,1-4.46,1.66,4.09,4.09,0,0,1-2.54-3.79C138.14,151.52,145.71,145.2,145.71,145.2Z" style="fill:#7c703e"/><path d="M142.72,142.06s-8.22-.29-10.38.58a3.94,3.94,0,0,0-1.62,4.48,4.1,4.1,0,0,0,3.82,2.5C136.49,149.69,142.72,142.06,142.72,142.06Z" style="fill:#7c703e"/><path d="M110.59,174.51s-4.51,3.4-7.76,3.57c-.58,0-.15,2,1.48,3.52,1.38,1.3,3.29,2.19,3.28,1.71a17.86,17.86,0,0,1,3.94-7.83s0-.18-.41-.58A1.67,1.67,0,0,0,110.59,174.51Z" style="fill:#70582d"/></g></g></svg>