<?xml version="1.0" encoding="utf-8"?>
<!-- Generator: Adobe Illustrator 24.3.0, SVG Export Plug-In . SVG Version: 6.00 Build 0)  -->
<svg version="1.1" id="Layer_2" xmlns="http://www.w3.org/2000/svg" xmlns:xlink="http://www.w3.org/1999/xlink" x="0px" y="0px"
	 viewBox="0 0 252 252" style="enable-background:new 0 0 252 252;" xml:space="preserve">
<style type="text/css">
	.st0{fill:#DEC63E;}
	.st1{fill:#F9E178;}
	.st2{opacity:0.6;}
	.st3{fill:#DEEABA;}
	.st4{fill:#D8B523;}
	.st5{fill:#593F29;}
	.st6{fill:#997356;}
	.st7{fill:#999998;}
	.st8{fill:#CACA36;}
	.st9{fill:#FFF9E9;}
	.st10{fill:#FBD14B;}
	.st11{fill:#FCE7AE;}
	.st12{fill:#FFF4D7;}
	.st13{fill:#FFFEFD;}
	.st14{fill:#FFF9CE;}
	.st15{fill:#FFF7E6;}
	.st16{fill:#FFF4E1;}
	.st17{fill:#FCF3DE;}
</style>
<g>
	<g>
		<g>
			<polygon class="st0" points="153.2,127.6 153,135.3 159.2,140 158,147.7 163.4,153.3 160.8,160.6 165.1,167 161.2,173.7 
				162.7,177.4 164.2,180.9 159,186.7 160.3,194.3 153.8,198.6 153,206.3 148,206.5 148.2,211.5 143.2,211 142.8,216 137.8,214.9 
				136.9,219.9 132.1,218.3 130.7,223.1 126.1,221.1 123,226.3 117.4,224.2 113.7,228.9 108.3,226 104,230.2 99.2,226.5 94.2,229.9 
				90.2,225.4 84.6,227.7 80.3,221.7 73,221.7 70.5,214.8 63.4,213 62.3,205.8 55.7,202.7 55.9,195.4 49.8,191.3 51,184.1 
				45.5,179.3 47,174 47.4,172.3 42.3,167.1 44.6,160.1 39.6,154.7 42,147.8 37,142.5 39.2,135.5 34,130.4 36.3,124.9 31.3,121.6 
				33.4,116 28.5,112.7 30.7,107.2 25.9,103.7 28.6,98.4 24.2,94.4 27.4,89.4 23.7,84.7 27.9,80.3 25.1,74.9 30.2,71.6 28.7,65.7 
				34.4,63.7 34.6,57.6 40.6,57.3 42.6,51.6 48.6,53 52.3,48 57.7,51 62,47.6 62.5,47.1 67.1,51.3 72.7,48.7 76.1,53.9 82.2,52.8 
				84.1,58.7 91.4,59.8 93.8,66.8 101.1,68.1 103.3,75.1 110.5,76.7 112.4,83.8 119.6,85.6 119.6,85.7 121.3,92.8 128.4,94.9 
				130.1,102.4 137.4,105.1 138.7,112.8 145.8,116 146.5,123.7 			"/>
			<path class="st1" d="M146.5,123.7l-0.7-7.7l-7.1-3.2l-1.3-7.6l-7.3-2.7l-1.8-7.6l-7.1-2.1l-1.7-7.1l0-0.1l-7.1-1.8l-2-7.1
				l-7.2-1.6l-2.2-7l-7.2-1.3l-2.4-7l-7.3-1.1l-1.9-5.9l-6.1,1.1l-3.4-5.2l-5.6,2.6l-4.5-4.2L62,47.6L57.7,51L52.3,48l-3.7,5l-6-1.4
				l-2,5.7l-6,0.4l-0.1,6l-5.7,2l1.4,5.9l-5,3.3l2.7,5.4l-4.2,4.3l3.8,4.7l-3.3,5l4.5,4l-2.7,5.3l4.8,3.5l-2.3,5.5l5,3.3l-2.2,5.6
				l5,3.3l-2.3,5.5l5.2,5.1l-2.2,7l5,5.3l-2.4,6.9l5,5.4l-2.3,6.9l5.1,5.2L47,174l-1.4,5.4l5.5,4.8l-1.2,7.2l6.1,4.1l-0.2,7.3
				l6.6,3.1l1.1,7.2l7.1,1.8l2.6,6.8l7.3,0.1l4.3,5.9l5.6-2.3l4,4.5l5-3.4l4.8,3.7l4.4-4.2l5.3,2.9l3.7-4.8l5.6,2.2l3.1-5.2l4.6,2
				l1.4-4.9l4.8,1.6l0.9-5l5,1.1l0.4-5.1l5,0.5l-0.2-5.1l5.1-0.1l0.8-7.7l6.4-4.3l-1.2-7.6l5.2-5.8l-1.4-3.5l-1.5-3.6l3.9-6.7
				l-4.3-6.5l2.5-7.3l-5.4-5.6l1.2-7.7l-6.2-4.7l0.2-7.8L146.5,123.7z M141.8,124.9l6.2,3.6l-0.1,7.2l5.7,4.3l-1.1,7.1l5,5.2
				l-2.3,6.8l4,6l-3.6,6.2l2.7,6.6l-0.1,0.1l-4.7,5.2l1.1,7.1l-5.9,4l-0.7,7.1l-4.7,0.1l0.2,4.7l-4.7-0.5l-0.3,4.7l-4.6-1l-0.9,4.6
				l-4.4-1.5l-1.3,4.5l-4.3-1.9l-2.8,4.8l-5.2-2l-3.4,4.4l-4.9-2.7l-4,3.9l-4.4-3.4l-4.6,3.1l-3.7-4.2l-5.2,2.1l-3.9-5.5l-6.7-0.1
				l-2.4-6.3l-6.5-1.7l-1-6.7l-6.1-2.9l0.2-6.7l-5.6-3.8l1.1-6.7l-5.1-4.4l0.9-3.5l0.8-3l-4.7-4.8l2.1-6.4l-4.6-5l2.2-6.4l-4.6-4.9
				l2-6.4L38,131l2.1-5.1l-4.6-3l2-5.1l-4.6-3l2.1-5.1l-4.4-3.3l2.5-4.9l-4.1-3.7l3-4.6l-3.5-4.3l3.9-4l-2.5-5l4.6-3.1l-1.3-5.4
				l5.2-1.9l0.1-5.6l5.6-0.3l1.8-5.3l5.6,1.3l3.4-4.6l5,2.7l4.5-3.6l4.2,3.9l1.2-0.6l4-1.8l3.1,4.8l5.6-1l1.8,5.4l6.7,1l2.2,6.4
				l6.7,1.2l2,6.5l6.6,1.5l1.7,6.2l0.1,0.4l6.6,1.7l1.6,6.6l6.5,1.9l1.6,7l6.7,2.5l1.2,7.1l6.5,3L141.8,124.9z"/>
			<g class="st2">
				<path class="st3" d="M40.9,124.5c-1.2-3.5-0.6-6.8,1.2-7.4c1.8-0.6,4.2,1.7,5.4,5.2c1.2,3.5,0.6,6.8-1.2,7.4
					C44.5,130.3,42.1,128,40.9,124.5z"/>
				<path class="st3" d="M36.7,113.1c-0.7-2,0.4-4.2,2.4-4.8c2-0.7,4.2,0.4,4.8,2.4c0.7,2-0.4,4.2-2.4,4.8
					C39.5,116.1,37.4,115.1,36.7,113.1z"/>
			</g>
			<g>
				
					<ellipse transform="matrix(0.4032 -0.9151 0.9151 0.4032 -89.1255 246.8799)" class="st1" cx="144.7" cy="191.8" rx="6.6" ry="3.4"/>
				<path class="st1" d="M146.1,179.1c0.8-1.9,3.1-2.8,5-2c1.9,0.8,2.8,3.1,2,5c-0.8,1.9-3.1,2.8-5,2
					C146.2,183.2,145.3,181,146.1,179.1z"/>
			</g>
			<path class="st4" d="M58.4,57.3c1,1.4-2.6,5.6-8.1,9.5c-5.4,3.9-10.6,5.9-11.6,4.6c-1-1.4,2.6-5.6,8.1-9.5
				C52.3,58,57.4,55.9,58.4,57.3z"/>
			<path class="st5" d="M59.6,40.1c-0.2,0.3-0.5,0.6-0.8,0.9c-1.8,1.7-3.3,3.6-4.5,5.7c-0.6,1-1.1,2.1-1.5,3.2
				c-0.4,1.1-0.7,2.2-0.9,3.4c-0.3,1.8-0.4,3.7-0.1,5.6c0.1,0.6,0.2,1.2,0.3,1.8c0.2,1.3,0.6,2.5,1,3.7c0,0.1,0.1,0.2,0.1,0.3
				c-0.8,0.7-1.8,1.4-2.8,2.1l-0.1,0.1c-1.1,0.8-2.3,1.5-3.3,2.2c-0.3-0.4-0.6-0.9-0.8-1.3c-0.7-1.2-1.4-2.5-1.9-3.8
				c-0.1-0.3-0.2-0.6-0.3-0.8c-1.3-3.2-2-6.8-2-10.4c0-1.8,0.1-3.6,0.4-5.5c0.3-1.8,0.8-3.6,1.4-5.3c1.3-3.4,3-6.6,5.1-9.4l0.1-0.1
				c1.9-2.6,5.3-3.4,8.1-2.1c0.4,0.2,0.8,0.4,1.1,0.7C61.1,33,61.7,37.1,59.6,40.1z"/>
			<path class="st6" d="M59.6,40.1c-0.2,0.3-0.5,0.6-0.8,0.9c-1.8,1.7-3.3,3.6-4.5,5.7c-0.6,1-1.1,2.1-1.5,3.2
				c-0.4,1.1-0.7,2.2-0.9,3.4c-0.3,1.8-0.4,3.7-0.1,5.6c0.1,0.6,0.2,1.2,0.3,1.8c0.2,1.3,0.6,2.5,1,3.7c0,0.1,0.1,0.2,0.1,0.3
				c-0.8,0.7-1.8,1.4-2.8,2.1l-0.1,0.1c-0.5-0.9-0.9-1.7-1.3-2.7c-0.1-0.3-0.2-0.6-0.3-0.8c-1.3-3.2-2-6.8-2-10.4
				c0-1.8,0.1-3.6,0.4-5.5c0.3-1.8,0.8-3.6,1.4-5.3c1.3-3.4,3-6.6,5.1-9.4l0.1-0.1c0.9-1.2,2-2,3.3-2.4c0.4,0.2,0.8,0.4,1.1,0.7
				C61.1,33,61.7,37.1,59.6,40.1z"/>
			<polygon class="st4" points="58.8,159.7 63.4,160.5 64.1,155.8 62.4,159.1 			"/>
			<polygon class="st4" points="74.8,173.9 79.4,174.7 80.1,170 78.4,173.3 			"/>
			<polygon class="st4" points="67.5,160 72.2,160.8 72.9,156.2 71.2,159.5 			"/>
			<polygon class="st4" points="67.9,166.8 72.6,167.7 73.3,163 71.6,166.3 			"/>
			<polygon class="st4" points="57.9,175.1 62.5,175.9 63.2,171.3 61.5,174.6 			"/>
			<polygon class="st4" points="44.7,149.1 49.3,149.9 50,145.3 48.3,148.6 			"/>
			<polygon class="st4" points="63.2,140 67.9,140.8 68.6,136.1 66.9,139.4 			"/>
			<polygon class="st4" points="74.8,152.4 79.5,153.2 80.2,148.5 78.5,151.8 			"/>
			<polygon class="st4" points="75.3,141.2 80,142 80.6,137.3 79,140.6 			"/>
			<polygon class="st4" points="84.2,147.2 88.9,148.1 89.6,143.4 87.9,146.7 			"/>
			<polygon class="st4" points="78.1,127.2 82.7,128 83.4,123.4 81.7,126.7 			"/>
			<polygon class="st4" points="66.3,124.2 71,125 71.7,120.4 70,123.7 			"/>
			<polygon class="st4" points="61.7,132.2 66.4,133 67.1,128.4 65.4,131.7 			"/>
			<polygon class="st4" points="49.2,126.9 53.9,127.7 54.5,123.1 52.8,126.3 			"/>
			<polygon class="st4" points="41.3,137.4 46,138.2 46.7,133.5 45,136.8 			"/>
			<polygon class="st4" points="32.9,103.3 37.6,104.1 38.3,99.5 36.6,102.8 			"/>
			<polygon class="st4" points="47.6,106.9 52.3,107.7 52.9,103.1 51.3,106.3 			"/>
			<polygon class="st4" points="53.9,116.9 58.6,117.7 59.2,113.1 57.6,116.4 			"/>
			<polygon class="st4" points="61.3,101.3 65.9,102.1 66.6,97.5 64.9,100.8 			"/>
			<polygon class="st4" points="69.5,105.8 74.1,106.6 74.8,101.9 73.1,105.2 			"/>
			<polygon class="st4" points="78.2,97 82.8,97.8 83.5,93.2 81.8,96.5 			"/>
			<polygon class="st4" points="76.3,88.4 80.9,89.2 81.6,84.6 79.9,87.9 			"/>
			<polygon class="st4" points="88.1,92.4 92.7,93.3 93.4,88.6 91.7,91.9 			"/>
			<polygon class="st4" points="89.1,106.7 93.8,107.5 94.5,102.9 92.8,106.2 			"/>
			<polygon class="st4" points="96.2,98 100.9,98.9 101.5,94.2 99.8,97.5 			"/>
			<polygon class="st4" points="108.7,100.7 113.3,101.5 114,96.8 112.3,100.1 			"/>
			<polygon class="st4" points="103.6,83.4 108.3,84.2 109,79.5 107.3,82.8 			"/>
			<polygon class="st4" points="94.8,79.4 99.4,80.2 100.1,75.5 98.4,78.8 			"/>
			<polygon class="st4" points="97.1,90.1 101.7,90.9 102.4,86.3 100.7,89.6 			"/>
			<polygon class="st4" points="112.3,92.2 116.9,93 117.6,88.4 115.9,91.7 			"/>
			<polygon class="st4" points="87.5,71.2 92.2,72 92.9,67.4 91.2,70.7 			"/>
			<polygon class="st4" points="83.8,80.9 88.5,81.7 89.2,77.1 87.5,80.4 			"/>
			<polygon class="st4" points="71.7,72 76.3,72.8 77,68.2 75.3,71.5 			"/>
			<polygon class="st4" points="67.8,66.7 72.5,67.5 73.2,62.9 71.5,66.2 			"/>
			<polygon class="st4" points="79,63.1 83.7,63.9 84.4,59.3 82.7,62.6 			"/>
			<polygon class="st4" points="65.6,57.3 70.2,58.1 70.9,53.4 69.2,56.7 			"/>
			<polygon class="st4" points="55.8,63.6 60.4,64.4 61.1,59.8 59.4,63 			"/>
			<polygon class="st4" points="46.2,73.3 50.8,74.1 51.5,69.4 49.8,72.7 			"/>
			<polygon class="st4" points="35.7,77.4 40.4,78.2 41.1,73.5 39.4,76.8 			"/>
			<polygon class="st4" points="30.6,71.2 35.3,72 35.9,67.4 34.3,70.6 			"/>
			<polygon class="st4" points="36,62.8 40.6,63.6 41.3,59 39.6,62.3 			"/>
			<polygon class="st4" points="56.6,54.5 61.2,55.3 61.9,50.7 60.2,54 			"/>
			<polygon class="st4" points="71,81 75.6,81.8 76.3,77.2 74.6,80.5 			"/>
			<polygon class="st4" points="60.9,76.4 65.6,77.2 66.3,72.6 64.6,75.9 			"/>
			<polygon class="st4" points="60.9,88.2 65.6,89 66.3,84.4 64.6,87.7 			"/>
			<polygon class="st4" points="48.6,78 53.2,78.8 53.9,74.2 52.2,77.5 			"/>
			<polygon class="st4" points="50.2,93.9 54.8,94.7 55.5,90.1 53.8,93.3 			"/>
			<polygon class="st4" points="40.5,82.6 45.2,83.4 45.9,78.8 44.2,82.1 			"/>
			<polygon class="st4" points="39.8,92.8 44.4,93.6 45.1,89 43.4,92.3 			"/>
			<polygon class="st4" points="30.8,87.5 35.5,88.3 36.1,83.7 34.5,87 			"/>
			<polygon class="st4" points="27.9,96.3 32.6,97.2 33.3,92.5 31.6,95.8 			"/>
			<polygon class="st4" points="100,143.8 104.7,144.6 105.4,140 103.7,143.3 			"/>
			<polygon class="st4" points="94.2,153.3 98.8,154.1 99.5,149.4 97.8,152.7 			"/>
			<polygon class="st4" points="104.5,163.5 109.2,164.3 109.9,159.7 108.2,163 			"/>
			<polygon class="st4" points="105.2,153.2 109.9,154 110.6,149.3 108.9,152.6 			"/>
			<polygon class="st4" points="118.5,160.8 123.1,161.6 123.8,157 122.1,160.3 			"/>
			<polygon class="st4" points="114.4,145.4 119.1,146.2 119.8,141.6 118.1,144.9 			"/>
			<polygon class="st4" points="121.4,153.5 126.1,154.3 126.8,149.7 125.1,152.9 			"/>
			<polygon class="st4" points="122.6,135 127.2,135.8 127.9,131.1 126.2,134.4 			"/>
			<polygon class="st4" points="132.3,122 137,122.9 137.6,118.2 136,121.5 			"/>
			<polygon class="st4" points="137.4,130.4 142,131.2 142.7,126.6 141,129.9 			"/>
			<polygon class="st4" points="131.2,152.6 135.8,153.4 136.5,148.7 134.8,152 			"/>
			<polygon class="st4" points="140.8,143.6 145.5,144.4 146.1,139.7 144.5,143 			"/>
			<polygon class="st4" points="149.1,155.2 153.8,156 154.5,151.3 152.8,154.6 			"/>
			<polygon class="st4" points="140.3,162.2 145,163 145.7,158.3 144,161.6 			"/>
			<polygon class="st4" points="124.4,163.4 129,164.2 129.7,159.6 128,162.9 			"/>
			<polygon class="st4" points="127.2,173 131.8,173.8 132.5,169.1 130.8,172.4 			"/>
			<polygon class="st4" points="112.7,171.8 117.4,172.6 118.1,167.9 116.4,171.2 			"/>
			<polygon class="st4" points="118.5,179.9 123.2,180.7 123.9,176 122.2,179.3 			"/>
			<polygon class="st4" points="119.5,196.4 124.1,197.3 124.8,192.6 123.1,195.9 			"/>
			<polygon class="st4" points="112,190.7 116.7,191.6 117.4,186.9 115.7,190.2 			"/>
			<polygon class="st4" points="110.2,207.3 114.8,208.1 115.5,203.4 113.8,206.7 			"/>
			<polygon class="st4" points="106.2,199.5 110.9,200.3 111.6,195.6 109.9,198.9 			"/>
			<polygon class="st4" points="113.4,219 118,219.8 118.7,215.1 117,218.4 			"/>
			<polygon class="st4" points="103.8,216.9 108.5,217.7 109.2,213.1 107.5,216.4 			"/>
			<polygon class="st4" points="122.6,215.6 127.2,216.4 127.9,211.7 126.2,215 			"/>
			<polygon class="st4" points="120.9,204.7 125.5,205.5 126.2,200.9 124.5,204.2 			"/>
			<polygon class="st4" points="134.5,212.9 139.1,213.7 139.8,209.1 138.1,212.4 			"/>
			<polygon class="st4" points="129.6,198.5 134.2,199.3 134.9,194.6 133.2,197.9 			"/>
			<polygon class="st4" points="129.6,188.2 134.2,189 134.9,184.4 133.2,187.6 			"/>
			<polygon class="st4" points="134.5,191.9 139.1,192.7 139.8,188.1 138.1,191.4 			"/>
			<polygon class="st4" points="136.6,177.7 141.3,178.5 142,173.8 140.3,177.1 			"/>
			<polygon class="st4" points="150,190.7 154.6,191.5 155.3,186.8 153.6,190.1 			"/>
			<polygon class="st4" points="151.8,171.6 156.5,172.4 157.2,167.8 155.5,171.1 			"/>
			<polygon class="st4" points="150.2,163.8 154.9,164.6 155.6,159.9 153.9,163.2 			"/>
			<polygon class="st4" points="88.3,137.7 92.9,138.5 93.6,133.8 91.9,137.1 			"/>
			<polygon class="st4" points="61.5,151.1 66.1,151.9 66.8,147.2 65.1,150.5 			"/>
			<polygon class="st4" points="51.5,139.6 56.1,140.4 56.8,135.8 55.1,139 			"/>
			<polygon class="st4" points="48.6,159.7 53.3,160.6 54,155.9 52.3,159.2 			"/>
			<polygon class="st4" points="49.3,171.4 54,172.2 54.6,167.6 53,170.9 			"/>
			<polygon class="st4" points="52.7,184.7 57.4,185.5 58.1,180.9 56.4,184.2 			"/>
			<polygon class="st4" points="53.4,191.3 58,192.1 58.7,187.4 57,190.7 			"/>
			<polygon class="st4" points="59.1,199.2 63.7,200 64.4,195.3 62.7,198.6 			"/>
			<polygon class="st4" points="68.5,206.7 73.2,207.5 73.9,202.9 72.2,206.2 			"/>
			<polygon class="st4" points="79,212.8 83.7,213.6 84.3,209 82.7,212.3 			"/>
			<polygon class="st4" points="79.4,201 84.1,201.8 84.8,197.1 83.1,200.4 			"/>
			<polygon class="st4" points="87.9,201.5 92.5,202.3 93.2,197.6 91.5,200.9 			"/>
			<polygon class="st4" points="88.1,211.6 92.7,212.4 93.4,207.8 91.7,211.1 			"/>
			<polygon class="st4" points="84.6,223.5 89.3,224.3 89.9,219.7 88.3,223 			"/>
			<polygon class="st4" points="95.7,224.8 100.4,225.6 101.1,221 99.4,224.3 			"/>
			<polygon class="st4" points="96.6,215.9 101.2,216.7 101.9,212.1 100.2,215.3 			"/>
			<polygon class="st4" points="98.1,203.2 102.7,204 103.4,199.4 101.7,202.7 			"/>
			<polygon class="st4" points="95,192.6 99.6,193.4 100.3,188.8 98.6,192.1 			"/>
			<polygon class="st4" points="90.1,184 94.8,184.8 95.5,180.2 93.8,183.5 			"/>
			<polygon class="st4" points="84.7,176.4 89.3,177.2 90,172.5 88.3,175.8 			"/>
			<polygon class="st4" points="77.8,166.7 82.4,167.6 83.1,162.9 81.4,166.2 			"/>
			<polygon class="st4" points="82,158.9 86.6,159.7 87.3,155 85.6,158.3 			"/>
			<polygon class="st4" points="92,165.7 96.7,166.5 97.3,161.8 95.7,165.1 			"/>
			<polygon class="st4" points="100.6,176.5 105.3,177.3 106,172.7 104.3,176 			"/>
			<polygon class="st4" points="104.7,184.9 109.3,185.7 110,181.1 108.3,184.4 			"/>
			<polygon class="st4" points="72.6,193.7 77.2,194.5 77.9,189.9 76.2,193.2 			"/>
			<polygon class="st4" points="85.8,192.3 90.5,193.1 91.2,188.4 89.5,191.7 			"/>
			<polygon class="st4" points="70.2,188.1 74.9,188.9 75.6,184.3 73.9,187.6 			"/>
			<polygon class="st4" points="67.6,181.1 72.2,181.9 72.9,177.3 71.2,180.5 			"/>
			<polygon class="st4" points="79.8,183.9 84.5,184.7 85.2,180.1 83.5,183.4 			"/>
			<polygon class="st4" points="94.2,127.1 98.9,127.9 99.5,123.2 97.9,126.5 			"/>
			<polygon class="st4" points="92.2,114.8 96.8,115.6 97.5,110.9 95.8,114.2 			"/>
			<polygon class="st4" points="88,121.8 92.6,122.6 93.3,118 91.6,121.3 			"/>
			<polygon class="st4" points="74.2,113.8 78.9,114.6 79.6,110 77.9,113.3 			"/>
			<polygon class="st4" points="111.1,121.3 115.7,122.2 116.4,117.5 114.7,120.8 			"/>
			<polygon class="st4" points="108.2,109.2 112.9,110 113.6,105.4 111.9,108.6 			"/>
			<polygon class="st4" points="123.2,121 127.9,121.8 128.6,117.2 126.9,120.5 			"/>
			<polygon class="st4" points="105.8,131.7 110.5,132.6 111.2,127.9 109.5,131.2 			"/>
			<polygon class="st4" points="132,138.9 136.7,139.7 137.3,135 135.7,138.3 			"/>
			<polygon class="st4" points="144.6,135 149.3,135.8 149.9,131.2 148.3,134.5 			"/>
			<polygon class="st4" points="128.5,109.2 133.1,110 133.8,105.3 132.1,108.6 			"/>
			<polygon class="st4" points="120.5,100.4 125.2,101.2 125.8,96.6 124.2,99.8 			"/>
		</g>
	</g>
</g>
<g>
	<g>
		<g>
			<polygon class="st0" points="201.9,185.4 195.4,189.6 194.9,197.3 187.9,200.6 186.2,208.2 178.7,210.2 175.7,217.4 168,217.9 
				165.8,221.2 163.6,224.4 155.9,223.3 150.3,228.6 143.1,225.7 136.2,229.3 133.3,225.1 129.2,228.2 126.8,223.7 122.4,226.2 
				120.6,221.4 115.9,223.5 114.5,218.5 109.7,220.1 108.8,215.1 102.7,215.5 101.4,209.6 95.3,209.1 94.8,203.1 88.8,201.8 
				89.2,195.8 83.6,193.5 85.2,187.6 80.1,184.2 82.7,177.3 78.6,171.2 82.9,165.3 80.4,158.3 85.9,153.4 84.8,146.2 90.9,142.2 
				90.9,134.9 97.6,131.9 98.5,124.6 103.8,122.8 105.5,122.2 106.9,115 114,113 115.7,105.9 122.8,104 124.5,96.9 131.5,94.8 
				132.8,87.6 138.7,86.4 138.7,80.4 144.5,79.1 144.5,73.1 150.3,71.9 150.6,65.9 156.5,65.2 157.4,59.2 163.3,59.2 165.2,53.4 
				171.1,54.5 174.1,49.2 179.7,51.5 183.8,47 188.7,50.6 193.8,47.3 197.5,52.1 203.3,50.6 205.5,56.4 211.7,56.7 212.3,62.9 
				217.5,64.6 218.2,64.8 217.3,70.9 222.6,74.2 220.1,79.9 224.5,84.3 220.6,89.2 223.8,95.9 219.4,101.9 222.3,108.6 217.7,114.4 
				220.4,121.3 215.6,126.9 218.1,133.9 218,133.9 213,139.3 215.3,146.4 210,152.1 211.8,159.6 206.2,165 207.4,172.7 201.4,177.6 
							"/>
			<polygon class="st7" points="161.5,75.7 156.9,75.7 156.2,80.4 151.6,81 151.4,85.6 146.8,86.6 146.8,91.3 142.2,92.3 142.2,97 
				137.6,97.9 136.6,103.6 131.1,105.2 129.8,110.8 124.2,112.3 122.9,117.9 117.3,119.4 116.2,125.1 110.7,126.9 110,132.6 
				104.8,135 104.8,140.8 99.9,143.9 100.8,149.5 96.6,153.4 98.5,158.8 95.1,163.5 98.3,168.3 96.3,173.7 100.3,176.3 99.1,180.9 
				103.5,182.7 103.1,187.5 107.8,188.5 108.2,193.2 113,193.6 114,198.2 118.8,197.9 119.5,201.8 123.3,200.6 124.3,204.5 
				128,202.9 129.4,206.6 132.9,204.6 134.8,208.2 138,205.8 140.3,209 145.7,206.2 151.3,208.5 155.7,204.3 161.8,205.2 
				165.2,200.1 171.2,199.7 173.6,194 179.5,192.5 180.8,186.5 186.3,184 186.6,177.9 191.8,174.6 191.4,168.5 196.1,164.7 
				195.1,158.6 199.5,154.4 198.1,148.5 202.3,144 200.5,138.5 204.4,134.2 202.5,128.8 206.3,124.4 204.1,119 207.8,114.4 
				205.5,109.1 208.9,104.5 206.5,99.2 209.5,95.4 206.1,91.9 208,87.4 203.8,84.9 204.6,80 199.9,78.6 199.5,73.7 194.6,73.5 
				192.9,69 188.3,70.2 185.4,66.4 181.4,68.9 177.6,66.1 174.4,69.6 170,67.8 167.6,72 163,71.1 			"/>
			<path class="st8" d="M201.4,177.6l6-4.9l-1.3-7.7l5.6-5.4l-1.8-7.6l5.3-5.7l-2.2-7.1l4.9-5.4l0.1-0.1l-2.5-7l4.8-5.6l-2.7-6.9
				l4.6-5.8l-2.9-6.8l4.4-5.9l-3.2-6.7l3.8-4.9l-4.3-4.5l2.4-5.7l-5.3-3.3l1-6.1l-0.7-0.2l-5.2-1.6l-0.6-6.2l-6.2-0.3l-2.2-5.8
				l-5.9,1.5l-3.7-4.8l-5.1,3.3l-4.9-3.6l-4.1,4.5l-5.6-2.3l-3,5.3l-6-1.1l-1.8,5.8l-6,0.1l-0.8,5.9l-5.9,0.8l-0.3,6l-5.9,1.2l0,6
				l-5.8,1.3l0,6l-5.9,1.2l-1.3,7.2l-7.1,2.1l-1.7,7.2l-7.1,1.9L114,113l-7.1,2l-1.5,7.2l-1.7,0.6l-5.3,1.8l-0.9,7.3l-6.7,3l0,7.3
				l-6.2,3.9l1.1,7.2l-5.4,4.9l2.5,6.9l-4.3,6l4,6.1l-2.5,6.9l5,3.4l-1.5,5.9l5.6,2.3l-0.4,6l5.9,1.3l0.6,6l6.1,0.4l1.4,5.9l6.1-0.4
				l0.9,5l4.8-1.6l1.3,4.9l4.7-2l1.8,4.8l4.4-2.5l2.4,4.5l4.1-3l2.9,4.2l6.9-3.6l7.2,2.9l5.7-5.3l7.7,1.1l2.1-3.2l2.2-3.3l7.8-0.6
				l3-7.2l7.5-2l1.6-7.6l7.1-3.3l0.4-7.8l6.6-4.2L201.4,177.6z M197.8,174.4l0.5,7.2l-6,3.9l-0.4,7.2l-6.5,3l-1.5,7l-6.9,1.8
				l-2.8,6.6l-7.2,0.5l-4,6l-0.1,0l-7-1l-5.2,4.9l-6.6-2.7l-6.3,3.4l-2.7-3.8l-3.8,2.8l-2.2-4.2l-4.1,2.3l-1.7-4.4l-4.3,1.9
				l-1.2-4.5l-4.5,1.5l-0.8-4.6l-5.6,0.3l-1.3-5.5l-5.6-0.4l-0.5-5.6l-5.5-1.2l0.4-5.6l-5.2-2.1l1.4-5.4l-4.6-3.1l2.4-6.3l-3.7-5.7
				l3.9-5.5l-2.3-6.4l5-4.5l-1-6.7l5.7-3.6l0-6.8l6.2-2.8l0.8-6.7l3.4-1.2l3-1l1.3-6.6l6.5-1.8l1.6-6.6l6.6-1.7l1.5-6.6l6.5-1.9
				l1.2-6.7l5.4-1.1l0-5.5l5.4-1.2l0-5.5l5.4-1.1l0.2-5.5l5.5-0.7l0.8-5.5l5.5,0l1.7-5.3l5.5,1l2.8-4.9l5.2,2.1l3.8-4.1l4.5,3.3
				l4.7-3l3.4,4.4l5.4-1.4l2,5.4l5.7,0.3l0.5,5.7l5.5,1.7l-0.9,5.7l1.2,0.7l3.7,2.3l-2.3,5.3l4,4.1l-3.5,4.5l2.9,6.2l-4.1,5.5
				l2.7,6.3l-4.3,5.3l2.5,6.4l-4.2,4.9l-0.2,0.3l2.3,6.4l-4.6,5l2.1,6.5l-4.9,5.3l1.7,7l-5.2,5l1.2,7.1L197.8,174.4z"/>
			<g>
				<path class="st7" d="M141.6,90.1c2.2-2.9,5.3-4.3,6.8-3.2c1.5,1.2,0.9,4.5-1.3,7.4c-2.2,2.9-5.3,4.3-6.8,3.2
					S139.4,93,141.6,90.1z"/>
				<path class="st7" d="M148.8,80.1c1.3-1.7,3.7-2,5.4-0.7c1.7,1.3,2,3.7,0.7,5.4c-1.3,1.7-3.7,2-5.4,0.7
					C147.8,84.2,147.5,81.8,148.8,80.1z"/>
			</g>
			<g>
				<path class="st1" d="M143.1,210.8c3.6-0.6,6.8,0.4,7.1,2.2c0.3,1.9-2.3,3.9-5.9,4.6c-3.6,0.6-6.8-0.4-7.1-2.2
					C136.8,213.5,139.5,211.5,143.1,210.8z"/>
				<path class="st1" d="M155.1,208.3c2.1-0.4,4.1,1,4.4,3.1c0.4,2.1-1,4.1-3.1,4.4c-2.1,0.4-4.1-1-4.4-3.1S153,208.7,155.1,208.3z"
					/>
			</g>
			<path class="st4" d="M207.5,67c-0.6,1.6-6.1,0.9-12.4-1.4c-6.3-2.3-10.9-5.5-10.3-7.1c0.6-1.6,6.1-0.9,12.4,1.4
				S208,65.4,207.5,67z"/>
			<polygon class="st4" points="122.3,124.6 124.3,129 128.5,126.9 124.8,127.4 			"/>
			<polygon class="st4" points="119.5,145.9 121.4,150.2 125.6,148.2 122,148.7 			"/>
			<polygon class="st4" points="126.9,132.1 128.9,136.4 133.1,134.4 129.4,134.9 			"/>
			<polygon class="st4" points="121.5,136.3 123.4,140.6 127.7,138.6 124,139 			"/>
			<polygon class="st4" points="108.9,132.5 110.9,136.9 115.1,134.8 111.4,135.3 			"/>
			<polygon class="st4" points="123.2,107 125.1,111.3 129.4,109.3 125.7,109.7 			"/>
			<polygon class="st4" points="141.2,117.3 143.2,121.7 147.4,119.6 143.7,120.1 			"/>
			<polygon class="st4" points="137.4,133.9 139.4,138.3 143.6,136.2 139.9,136.7 			"/>
			<polygon class="st4" points="147,128 148.9,132.4 153.2,130.4 149.5,130.8 			"/>
			<polygon class="st4" points="146.9,138.9 148.9,143.2 153.1,141.2 149.4,141.6 			"/>
			<polygon class="st4" points="160.2,122.6 162.1,126.9 166.4,124.9 162.7,125.3 			"/>
			<polygon class="st4" points="156.1,111.1 158,115.4 162.3,113.4 158.6,113.8 			"/>
			<polygon class="st4" points="146.8,111.7 148.8,116.1 153,114 149.3,114.5 			"/>
			<polygon class="st4" points="144.3,98.3 146.2,102.6 150.5,100.6 146.8,101 			"/>
			<polygon class="st4" points="131.2,97.6 133.1,102 137.3,99.9 133.7,100.4 			"/>
			<polygon class="st4" points="154.8,71.5 156.7,75.9 161,73.9 157.3,74.3 			"/>
			<polygon class="st4" points="160.1,85.8 162,90.1 166.2,88.1 162.6,88.5 			"/>
			<polygon class="st4" points="155.2,96.6 157.1,101 161.4,99 157.7,99.4 			"/>
			<polygon class="st4" points="172.3,94 174.3,98.4 178.5,96.4 174.8,96.8 			"/>
			<polygon class="st4" points="173.2,103.4 175.2,107.7 179.4,105.7 175.7,106.1 			"/>
			<polygon class="st4" points="185.4,105.7 187.3,110.1 191.6,108 187.9,108.5 			"/>
			<polygon class="st4" points="191.5,99.3 193.4,103.7 197.7,101.6 194,102.1 			"/>
			<polygon class="st4" points="194.7,111.4 196.7,115.7 200.9,113.7 197.2,114.2 			"/>
			<polygon class="st4" points="183.5,120.3 185.4,124.6 189.7,122.6 186,123 			"/>
			<polygon class="st4" points="194.6,121.3 196.6,125.7 200.8,123.6 197.1,124.1 			"/>
			<polygon class="st4" points="199.4,133.2 201.4,137.5 205.6,135.5 201.9,135.9 			"/>
			<polygon class="st4" points="211,119.3 213,123.6 217.2,121.6 213.5,122 			"/>
			<polygon class="st4" points="209.4,109.7 211.3,114 215.6,112 211.9,112.4 			"/>
			<polygon class="st4" points="201.7,117.6 203.6,122 207.9,119.9 204.2,120.4 			"/>
			<polygon class="st4" points="208.5,131.4 210.4,135.8 214.7,133.7 211,134.2 			"/>
			<polygon class="st4" points="212.1,99.1 214.1,103.4 218.3,101.4 214.6,101.8 			"/>
			<polygon class="st4" points="202,101.4 203.9,105.8 208.2,103.7 204.5,104.2 			"/>
			<polygon class="st4" points="202.6,86.3 204.5,90.6 208.8,88.6 205.1,89.1 			"/>
			<polygon class="st4" points="204.9,80.1 206.8,84.5 211.1,82.4 207.4,82.9 			"/>
			<polygon class="st4" points="214.1,87.5 216,91.8 220.3,89.8 216.6,90.2 			"/>
			<polygon class="st4" points="211.5,73 213.4,77.3 217.7,75.3 214,75.7 			"/>
			<polygon class="st4" points="200.7,68.3 202.7,72.7 206.9,70.6 203.2,71.1 			"/>
			<polygon class="st4" points="187.3,65.7 189.2,70.1 193.5,68 189.8,68.5 			"/>
			<polygon class="st4" points="178,59.3 179.9,63.7 184.2,61.7 180.5,62.1 			"/>
			<polygon class="st4" points="180.3,51.6 182.2,56 186.5,53.9 182.8,54.4 			"/>
			<polygon class="st4" points="190.3,51.4 192.2,55.8 196.5,53.7 192.8,54.2 			"/>
			<polygon class="st4" points="208.7,63.9 210.6,68.3 214.9,66.2 211.2,66.7 			"/>
			<polygon class="st4" points="194.7,90.8 196.6,95.1 200.9,93.1 197.2,93.5 			"/>
			<polygon class="st4" points="192.9,79.8 194.8,84.2 199.1,82.1 195.4,82.6 			"/>
			<polygon class="st4" points="183.1,86.4 185,90.8 189.3,88.8 185.6,89.2 			"/>
			<polygon class="st4" points="184.7,70.4 186.6,74.8 190.9,72.7 187.2,73.2 			"/>
			<polygon class="st4" points="172.3,80.6 174.3,85 178.5,82.9 174.8,83.4 			"/>
			<polygon class="st4" points="176.3,66.3 178.3,70.6 182.5,68.6 178.8,69 			"/>
			<polygon class="st4" points="167.4,71.4 169.3,75.7 173.6,73.7 169.9,74.1 			"/>
			<polygon class="st4" points="166.8,60.9 168.7,65.3 173,63.2 169.3,63.7 			"/>
			<polygon class="st4" points="157.8,63.5 159.8,67.8 164,65.8 160.3,66.2 			"/>
			<polygon class="st4" points="158.6,150.1 160.5,154.5 164.8,152.5 161.1,152.9 			"/>
			<polygon class="st4" points="147.5,150.5 149.4,154.9 153.7,152.8 150,153.3 			"/>
			<polygon class="st4" points="144.7,164.9 146.7,169.3 150.9,167.2 147.2,167.7 			"/>
			<polygon class="st4" points="153.7,159.7 155.7,164 159.9,162 156.2,162.4 			"/>
			<polygon class="st4" points="154.8,175 156.7,179.4 161,177.3 157.3,177.8 			"/>
			<polygon class="st4" points="165.3,163.1 167.3,167.4 171.5,165.4 167.8,165.8 			"/>
			<polygon class="st4" points="162.5,173.4 164.5,177.7 168.7,175.7 165,176.1 			"/>
			<polygon class="st4" points="178.6,164 180.6,168.3 184.8,166.3 181.1,166.7 			"/>
			<polygon class="st4" points="194.8,164.8 196.8,169.2 201,167.2 197.3,167.6 			"/>
			<polygon class="st4" points="190.7,173.7 192.6,178.1 196.9,176 193.2,176.5 			"/>
			<polygon class="st4" points="168.8,181 170.7,185.3 175,183.3 171.3,183.7 			"/>
			<polygon class="st4" points="181.7,184 183.6,188.3 187.9,186.3 184.2,186.7 			"/>
			<polygon class="st4" points="176.7,197.4 178.6,201.7 182.8,199.7 179.2,200.1 			"/>
			<polygon class="st4" points="165.9,194 167.8,198.3 172.1,196.3 168.4,196.7 			"/>
			<polygon class="st4" points="155.9,181.4 157.9,185.7 162.1,183.7 158.4,184.1 			"/>
			<polygon class="st4" points="149.5,189.1 151.5,193.4 155.7,191.4 152,191.8 			"/>
			<polygon class="st4" points="142.5,176.4 144.4,180.7 148.6,178.7 145,179.1 			"/>
			<polygon class="st4" points="138.9,185.7 140.9,190.1 145.1,188.1 141.4,188.5 			"/>
			<polygon class="st4" points="125.7,195.8 127.6,200.1 131.8,198.1 128.2,198.6 			"/>
			<polygon class="st4" points="126.2,186.4 128.2,190.7 132.4,188.7 128.7,189.1 			"/>
			<polygon class="st4" points="111.4,194.1 113.4,198.4 117.6,196.4 113.9,196.8 			"/>
			<polygon class="st4" points="115.7,186.4 117.6,190.8 121.9,188.7 118.2,189.2 			"/>
			<polygon class="st4" points="103.5,203.3 105.4,207.7 109.7,205.6 106,206.1 			"/>
			<polygon class="st4" points="99.8,194.2 101.8,198.6 106,196.5 102.3,197 			"/>
			<polygon class="st4" points="111.5,209.1 113.4,213.4 117.7,211.4 114,211.8 			"/>
			<polygon class="st4" points="119.5,201.6 121.5,205.9 125.7,203.9 122,204.3 			"/>
			<polygon class="st4" points="120.3,217.5 122.3,221.9 126.5,219.9 122.8,220.3 			"/>
			<polygon class="st4" points="129.6,205.4 131.6,209.7 135.8,207.7 132.1,208.1 			"/>
			<polygon class="st4" points="138.2,199.6 140.1,203.9 144.4,201.9 140.7,202.3 			"/>
			<polygon class="st4" points="137.8,205.8 139.8,210.1 144,208.1 140.3,208.5 			"/>
			<polygon class="st4" points="150.9,199.6 152.8,203.9 157.1,201.9 153.4,202.3 			"/>
			<polygon class="st4" points="147.5,218 149.5,222.3 153.7,220.3 150,220.7 			"/>
			<polygon class="st4" points="164.5,208.9 166.4,213.2 170.7,211.2 167,211.6 			"/>
			<polygon class="st4" points="170.1,203.1 172.1,207.5 176.3,205.5 172.6,205.9 			"/>
			<polygon class="st4" points="157.2,136.9 159.1,141.2 163.4,139.2 159.7,139.6 			"/>
			<polygon class="st4" points="131,122.1 133,126.4 137.2,124.4 133.5,124.8 			"/>
			<polygon class="st4" points="135,107.3 136.9,111.6 141.1,109.6 137.5,110 			"/>
			<polygon class="st4" points="116.6,116.2 118.5,120.5 122.8,118.5 119.1,119 			"/>
			<polygon class="st4" points="107.3,123.3 109.2,127.6 113.4,125.6 109.7,126 			"/>
			<polygon class="st4" points="98.1,133.6 100,137.9 104.3,135.9 100.6,136.3 			"/>
			<polygon class="st4" points="93,137.8 94.9,142.2 99.2,140.1 95.5,140.6 			"/>
			<polygon class="st4" points="89.6,147 91.5,151.3 95.7,149.3 92.1,149.7 			"/>
			<polygon class="st4" points="88.6,159.1 90.5,163.4 94.7,161.4 91.1,161.8 			"/>
			<polygon class="st4" points="89.3,171.2 91.3,175.6 95.5,173.6 91.8,174 			"/>
			<polygon class="st4" points="99.5,165 101.4,169.3 105.6,167.3 102,167.7 			"/>
			<polygon class="st4" points="103.8,172.3 105.7,176.6 110,174.6 106.3,175 			"/>
			<polygon class="st4" points="95.4,178.1 97.4,182.5 101.6,180.5 97.9,180.9 			"/>
			<polygon class="st4" points="83.6,181.9 85.5,186.2 89.8,184.2 86.1,184.6 			"/>
			<polygon class="st4" points="88.7,191.9 90.7,196.2 94.9,194.2 91.2,194.6 			"/>
			<polygon class="st4" points="96.6,187.6 98.6,191.9 102.8,189.9 99.1,190.3 			"/>
			<polygon class="st4" points="108,181.8 109.9,186.1 114.2,184.1 110.5,184.5 			"/>
			<polygon class="st4" points="115.1,173.2 117,177.6 121.3,175.5 117.6,176 			"/>
			<polygon class="st4" points="119.6,164.4 121.5,168.7 125.8,166.7 122.1,167.1 			"/>
			<polygon class="st4" points="122.9,155.6 124.8,159.9 129.1,157.9 125.4,158.3 			"/>
			<polygon class="st4" points="127.1,144.4 129,148.8 133.2,146.7 129.6,147.2 			"/>
			<polygon class="st4" points="136,143.5 137.9,147.8 142.2,145.8 138.5,146.2 			"/>
			<polygon class="st4" points="135.9,155.7 137.9,160 142.1,158 138.4,158.4 			"/>
			<polygon class="st4" points="131.7,168.9 133.7,173.3 137.9,171.2 134.2,171.7 			"/>
			<polygon class="st4" points="127,177 128.9,181.4 133.2,179.4 129.5,179.8 			"/>
			<polygon class="st4" points="101.7,155.2 103.6,159.5 107.9,157.5 104.2,157.9 			"/>
			<polygon class="st4" points="110.3,165.4 112.2,169.7 116.5,167.7 112.8,168.1 			"/>
			<polygon class="st4" points="105,150.1 106.9,154.4 111.2,152.4 107.5,152.8 			"/>
			<polygon class="st4" points="109.4,144 111.3,148.3 115.6,146.3 111.9,146.7 			"/>
			<polygon class="st4" points="113.9,155.7 115.8,160.1 120.1,158.1 116.4,158.5 			"/>
			<polygon class="st4" points="169.3,135.9 171.2,140.2 175.5,138.2 171.8,138.6 			"/>
			<polygon class="st4" points="178.4,127.3 180.4,131.7 184.6,129.6 180.9,130.1 			"/>
			<polygon class="st4" points="170.2,127.8 172.2,132.1 176.4,130.1 172.7,130.5 			"/>
			<polygon class="st4" points="169.2,111.8 171.1,116.2 175.4,114.1 171.7,114.6 			"/>
			<polygon class="st4" points="183.5,146.7 185.5,151.1 189.7,149.1 186,149.5 			"/>
			<polygon class="st4" points="192.1,137.6 194,141.9 198.3,139.9 194.6,140.3 			"/>
			<polygon class="st4" points="190.6,156.7 192.5,161.1 196.8,159 193.1,159.5 			"/>
			<polygon class="st4" points="171.9,148.2 173.9,152.6 178.1,150.5 174.4,151 			"/>
			<polygon class="st4" points="180.6,174 182.6,178.3 186.8,176.3 183.1,176.8 			"/>
			<polygon class="st4" points="190.9,182.4 192.8,186.7 197.1,184.7 193.4,185.1 			"/>
			<polygon class="st4" points="203.4,154.4 205.4,158.8 209.6,156.7 205.9,157.2 			"/>
			<polygon class="st4" points="206.3,142.9 208.2,147.2 212.5,145.2 208.8,145.6 			"/>
			<polygon class="st9" points="199.3,182.5 193.1,186.5 192.7,193.8 186,196.9 184.5,204.1 177.4,206 174.5,212.7 167.2,213.3 
				165.2,216.3 163.1,219.3 155.9,218.3 150.5,223.3 143.7,220.6 137.3,224 134.5,220.1 130.6,223 128.4,218.7 124.2,221.1 
				122.5,216.6 118.1,218.5 116.8,213.9 112.3,215.3 111.4,210.6 105.7,211 104.4,205.4 98.7,205 98.2,199.3 92.6,198.1 93,192.4 
				87.7,190.2 89.1,184.7 84.4,181.5 86.8,175 82.9,169.2 87,163.6 84.6,157.1 89.8,152.4 88.7,145.6 94.6,141.9 94.6,134.9 
				100.9,132.1 101.7,125.2 106.7,123.5 108.3,123 109.6,116.2 116.3,114.3 117.9,107.6 124.6,105.8 126.2,99.1 132.8,97.1 
				134.1,90.3 139.6,89.2 139.6,83.5 145.1,82.3 145.1,76.6 150.6,75.5 150.8,69.8 156.5,69.1 157.2,63.5 162.9,63.5 164.6,58 
				170.2,59 173,54.1 178.3,56.2 182.2,52 186.8,55.4 191.6,52.3 195.1,56.8 200.6,55.4 202.7,60.9 208.5,61.2 209.1,67 214,68.6 
				214.7,68.8 213.8,74.6 218.8,77.6 216.5,83 220.5,87.2 216.9,91.9 219.9,98.2 215.7,103.8 218.5,110.2 214.1,115.6 216.7,122.1 
				212.2,127.4 214.5,134 214.4,134 209.8,139.1 211.9,145.7 206.9,151.1 208.6,158.3 203.3,163.3 204.5,170.6 198.8,175.2 			"/>
			<polygon class="st10" points="197.3,180.4 191.4,184.2 191,191.2 184.6,194.1 183.1,201 176.4,202.8 173.7,209.2 166.7,209.7 
				164.7,212.7 162.8,215.5 155.8,214.6 150.7,219.4 144.3,216.7 138.1,220 135.4,216.3 131.7,219 129.6,214.9 125.6,217.2 
				124,212.9 119.8,214.7 118.6,210.3 114.2,211.7 113.4,207.2 107.9,207.5 106.7,202.2 101.2,201.8 100.7,196.4 95.4,195.2 
				95.8,189.8 90.7,187.7 92.1,182.4 87.6,179.4 89.9,173.2 86.2,167.7 90.1,162.3 87.8,156.1 92.7,151.6 91.7,145.1 97.3,141.6 
				97.3,135 103.3,132.2 104.1,125.7 108.9,124 110.4,123.5 111.7,117 118.1,115.3 119.6,108.8 126,107.1 127.5,100.7 133.9,98.8 
				135,92.3 140.3,91.3 140.3,85.9 145.6,84.7 145.5,79.3 150.8,78.2 151,72.8 156.4,72.1 157.1,66.8 162.5,66.7 164.2,61.5 
				169.5,62.5 172.2,57.7 177.3,59.8 180.9,55.8 185.3,59 189.9,56.1 193.3,60.4 198.5,59 200.5,64.3 206.1,64.5 206.6,70.1 
				211.4,71.6 212,71.8 211.1,77.3 215.9,80.2 213.7,85.4 217.6,89.4 214.1,93.8 217,99.8 213,105.2 215.6,111.3 211.5,116.5 
				213.9,122.7 209.6,127.8 211.8,134 211.7,134.1 207.3,138.9 209.3,145.3 204.5,150.4 206.2,157.2 201.1,162.1 202.2,169 
				196.8,173.4 			"/>
			<path class="st11" d="M213,105.2l2.5-3.3l1.5-2l-2.9-6l3.5-4.4l-3.9-4l2.2-5.2l-4.8-2.9l0.9-5.5l-0.6-0.2l-4.7-1.5l-0.5-5.6
				l-5.6-0.3l-2-5.3l-1.2,0.3l-4.1,1.1l-3.3-4.3l-4.6,2.9l-4.4-3.2l-3.7,4l-5-2.1l-2.7,4.8l-5.4-1l-1.6,5.2l-5.4,0l-0.7,5.3
				l-5.3,0.7l-0.2,5.4l-5.3,1.1l0,5.4l-5.3,1.2l0,5.4l-5.3,1.1l-1.2,6.5l-6.4,1.9l-1.5,6.4l-6.4,1.7l-0.1,0.3l-1.5,6.2l-6.4,1.8
				l-1.3,6.5l-1.5,0.5l-4.8,1.6l-0.8,6.6l-6,2.7l0,6.6l-5.6,3.6l1,6.5l-4.9,4.4l2.2,6.2l-3.8,5.4l3.6,5.5l-2.3,6.2l4.5,3l-1.4,5.3
				l5.1,2.1l-0.4,5.4l5.3,1.2l0.5,5.4l5.5,0.4l1.2,5.3l5.5-0.3l0.8,4.5l4.4-1.4l1.2,4.4l4.2-1.8l1.7,4.3l4-2.3l2.1,4.1l3.7-2.7
				l2.7,3.8l6.2-3.3l6.5,2.6l5.1-4.8l6.9,1l1.9-2.9l2-3l7-0.5l0.9-2.2l1.8-4.3l6.8-1.8l1.5-6.9l6.4-2.9l0.4-7l5.9-3.8l-0.5-7
				l5.4-4.4l-1.1-6.9l5.1-4.8l-1.6-6.8l4.8-5.1l-2-6.4l4.4-4.8l0.1-0.1l-2.2-6.3l4.3-5.1l-2.4-6.2l4.2-5.2L213,105.2z M209.1,113.9
				l-3.7,4.6l2.2,5.5l-3.9,4.5l2,5.6l-0.1,0.1l-4,4.3l1.8,5.7l-4.3,4.6l1.4,6.1l-4.5,4.3l1,6.2l-4.9,3.9l0.4,6.2l-5.3,3.4l-0.4,6.2
				l-5.7,2.6l-1.3,6.1l-6,1.6l-2.4,5.8l-1.9,0.1l-4.3,0.3l-1.8,2.6l-1.7,2.6l-6.2-0.9l-4.6,4.3l-5.8-2.3l-5.5,2.9l-2.4-3.3l-3.3,2.4
				l-1.9-3.6l-3.6,2l-1.5-3.8l-3.8,1.6l-1.1-4l-3.9,1.3l-0.7-4l-4.9,0.3l-1.1-4.7l-4.9-0.3l-0.4-4.9l-4.8-1l0.3-4.9l-4.5-1.8
				l1.2-4.7l-4-2.7l2-5.5l-3.3-4.9l3.4-4.8l-2-5.5l4.4-4l-0.9-5.8l5-3.2l0-5.9l5.4-2.4l0.7-5.9l4.2-1.4l1.3-0.5l1.2-5.8l5.7-1.6
				l1.4-5.7l5.1-1.3l0.6-0.2l1.3-5.7l5.7-1.7l1.1-5.8l4.7-1l0-4.8l4.7-1.1l0-4.8l4.7-0.9l0.2-4.8l4.8-0.6l0.7-4.8l4.8,0l1.5-4.6
				l4.8,0.9l2.4-4.2l4.5,1.9l3.3-3.6l3.9,2.9l4.1-2.6l2.9,3.9l4.7-1.2l1.3,3.6l0.4,1.1l5,0.2l0.5,5l4.2,1.3l0.5,0.2l-0.8,4.9
				l4.3,2.6l-2,4.6l3.5,3.6l-3.1,3.9l0.1,0.3l2.4,5.1l-3.6,4.8L209.1,113.9z"/>
		</g>
	</g>
	<polygon class="st12" points="183.5,144.6 184.2,144 184.2,144 184.2,144 180.1,139.2 181.4,136.7 182.8,133.6 182.8,133.6 
		182.8,133.6 177.3,130.8 177.6,124.6 177.6,124.6 177.6,124.6 173,124.2 171.4,124.1 169.3,118.2 169.3,118.2 169.3,118.2 
		167.3,118.9 163.4,120.1 159.2,115.5 154.5,119.5 148.9,116.9 148.9,116.9 148.9,116.9 146.1,122.4 144.1,122.3 139.9,122.1 
		139.7,123.9 139.4,128.3 133.5,130.4 133.6,130.6 135.4,136.3 132,139.4 130.8,140.4 130.8,140.4 130.8,140.4 134.8,145.2 
		133.4,148.1 132.1,150.8 132.1,150.8 132.1,150.8 135.4,152.5 137.7,153.6 137.4,159.8 140.1,160.1 143.6,160.3 145.6,166.2 
		145.6,166.2 145.6,166.2 147.3,165.6 151.6,164.3 155.7,168.9 160.5,164.9 166.1,167.5 166.1,167.5 166.1,167.5 168.9,162 
		172.9,162.2 175.1,162.3 175.1,162.3 175.1,162.3 175.6,156.1 178.6,155.1 181.5,154.1 181.1,152.9 179.6,148.1 	"/>
	<g>
		<polygon class="st9" points="194,125.8 185,137.5 184.2,149 174.6,156.9 170.2,170.5 161.5,173.5 154.2,187 147.7,184.6 
			138.6,196 135.4,188.6 125.8,196.2 126.3,184.9 117.7,187.5 121.9,174 115.6,171.3 122.8,157.7 119.8,149.9 128.9,138.3 
			129.7,126.8 139.3,118.9 143.7,105.3 152.4,102.3 159.7,88.8 166.1,91.2 175.3,79.8 178.5,87.2 188.1,79.6 187.6,90.9 196.1,88.3 
			192,101.7 198.2,104.5 191.1,118.1 		"/>
		<polygon class="st13" points="180.7,130.2 174.9,137.6 174.4,145 168.2,150.1 165.4,158.7 159.9,160.6 155.2,169.3 151.1,167.7 
			145.2,175.1 143.2,170.3 137,175.2 137.3,167.9 131.9,169.6 134.5,161 130.5,159.2 135.1,150.5 133.2,145.6 139,138.1 
			139.5,130.8 145.7,125.7 148.5,117.1 154,115.1 158.7,106.5 162.8,108 168.7,100.7 170.7,105.5 176.9,100.6 176.5,107.8 
			182,106.2 179.4,114.8 183.3,116.5 178.8,125.2 		"/>
		<path class="st14" d="M194,125.8l-2.9-7.7l7.2-13.6l-6.2-2.8l4.1-13.5l-8.6,2.6l0.5-11.3l-9.6,7.6l-3.2-7.4l-9.2,11.4l-6.4-2.4
			l-7.3,13.5l-8.7,3l-4.4,13.6l-9.6,7.9l-0.8,11.5l-9.1,11.7l3,7.7l-7.2,13.6l6.2,2.8l-4.1,13.5l8.6-2.6l-0.5,11.3l9.6-7.6l3.2,7.4
			l9.2-11.4l6.4,2.4l7.3-13.5l8.7-3l4.4-13.6l9.6-7.9l0.8-11.5L194,125.8z M172.6,154.8l-3.9,12.1l-7.7,2.7l-6.5,12l-5.7-2.1
			l-8.2,10.2l-2.9-6.6l-8.5,6.8l0.5-10.1l-7.6,2.3l3.7-12l-5.6-2.5l6.4-12.1l-2.6-6.9l8.1-10.4l0.7-10.2l8.6-7.1l3.9-12.1l7.7-2.7
			l6.5-12l5.7,2.1l8.1-10.2l2.9,6.6l8.5-6.8L184.2,96l7.6-2.3l-3.7,12l5.6,2.5l-6.4,12.1l2.6,6.9l-8.1,10.4l-0.7,10.3L172.6,154.8z"
			/>
	</g>
	<g>
		
			<ellipse transform="matrix(0.2421 -0.9703 0.9703 0.2421 -4.7558 304.4262)" class="st1" cx="192.5" cy="155.3" rx="4.6" ry="7.4"/>
		<path class="st15" d="M192.9,148.9c3.9,1,6.6,3.8,6,6.3c-0.6,2.5-4.3,3.7-8.3,2.7s-6.6-3.8-6-6.3S189,147.9,192.9,148.9z"/>
		<path class="st16" d="M192.9,148.9c3.9,1,6.6,3.8,6,6.3c-0.6,2.5-4.3,3.7-8.3,2.7s-6.6-3.8-6-6.3S189,147.9,192.9,148.9z"/>
		<path class="st13" d="M191.9,148.9c2.2,0.5,3.7,2.1,3.4,3.5c-0.3,1.4-2.4,2.1-4.6,1.5c-2.2-0.5-3.7-2.1-3.4-3.5
			C187.6,149,189.7,148.4,191.9,148.9z"/>
		<path class="st17" d="M192.9,148.8c-3.9-1-7.6,0.2-8.3,2.7c-0.6,2.5,2.1,5.3,6,6.2c3.9,1,7.6-0.2,8.3-2.7
			C199.5,152.6,196.8,149.8,192.9,148.8z M197.1,153.9c-0.5,2-3.5,3-6.6,2.2c-3.2-0.8-5.3-3-4.9-5c0.5-2,3.5-3,6.6-2.2
			C195.5,149.6,197.6,151.9,197.1,153.9z"/>
	</g>
	<g>
		
			<ellipse transform="matrix(0.9273 -0.3744 0.3744 0.9273 -19.9851 82.9075)" class="st1" cx="203.4" cy="92.9" rx="7.4" ry="4.6"/>
		<path class="st15" d="M199.9,87.5c3.8-1.5,7.6-0.8,8.6,1.5c1,2.4-1.3,5.5-5.1,7c-3.8,1.5-7.6,0.8-8.6-1.5
			C193.9,92.1,196.2,89,199.9,87.5z"/>
		<path class="st16" d="M199.9,87.5c3.8-1.5,7.6-0.8,8.6,1.5c1,2.4-1.3,5.5-5.1,7c-3.8,1.5-7.6,0.8-8.6-1.5
			C193.9,92.1,196.2,89,199.9,87.5z"/>
		<path class="st13" d="M199.2,88.1c2.1-0.8,4.2-0.5,4.8,0.8c0.5,1.3-0.7,3.1-2.8,3.9c-2.1,0.8-4.2,0.5-4.8-0.8
			S197.1,88.9,199.2,88.1z"/>
		<path class="st17" d="M199.9,87.5c-3.8,1.5-6.1,4.7-5.1,7c1,2.4,4.8,3,8.5,1.5c3.8-1.5,6.1-4.7,5.1-7
			C207.5,86.6,203.7,85.9,199.9,87.5z M206.3,89c0.8,1.9-1.1,4.4-4.1,5.7c-3,1.2-6.1,0.7-6.9-1.2c-0.8-1.9,1.1-4.4,4.1-5.7
			C202.5,86.6,205.6,87.1,206.3,89z"/>
	</g>
	<g>
		<ellipse transform="matrix(0.9273 -0.3744 0.3744 0.9273 -28.74 84.1891)" class="st1" cx="202.3" cy="116.1" rx="7.4" ry="4.6"/>
		<path class="st15" d="M198.9,110.6c3.8-1.5,7.6-0.8,8.6,1.5c1,2.4-1.3,5.5-5.1,7c-3.8,1.5-7.6,0.8-8.6-1.5
			C192.8,115.3,195.1,112.1,198.9,110.6z"/>
		<path class="st16" d="M198.9,110.6c3.8-1.5,7.6-0.8,8.6,1.5c1,2.4-1.3,5.5-5.1,7c-3.8,1.5-7.6,0.8-8.6-1.5
			C192.8,115.3,195.1,112.1,198.9,110.6z"/>
		<path class="st13" d="M198.1,111.3c2.1-0.8,4.2-0.5,4.8,0.8s-0.7,3.1-2.8,3.9c-2.1,0.8-4.2,0.5-4.8-0.8S196,112.1,198.1,111.3z"/>
		<path class="st17" d="M198.9,110.6c-3.8,1.5-6.1,4.7-5.1,7c1,2.4,4.8,3,8.5,1.5c3.8-1.5,6.1-4.7,5.1-7
			C206.5,109.8,202.6,109.1,198.9,110.6z M205.2,112.2c0.8,1.9-1.1,4.4-4.1,5.7c-3,1.2-6.1,0.7-6.9-1.2c-0.8-1.9,1.1-4.4,4.1-5.7
			C201.4,109.7,204.5,110.3,205.2,112.2z"/>
	</g>
	<g>
		
			<ellipse transform="matrix(0.9273 -0.3744 0.3744 0.9273 -36.1921 84.3839)" class="st1" cx="199.1" cy="135.3" rx="7.4" ry="4.6"/>
		<path class="st15" d="M195.6,129.9c3.8-1.5,7.6-0.8,8.6,1.5c1,2.4-1.3,5.5-5.1,7c-3.8,1.5-7.6,0.8-8.6-1.5
			C189.6,134.6,191.9,131.4,195.6,129.9z"/>
		<path class="st16" d="M195.6,129.9c3.8-1.5,7.6-0.8,8.6,1.5c1,2.4-1.3,5.5-5.1,7c-3.8,1.5-7.6,0.8-8.6-1.5
			C189.6,134.6,191.9,131.4,195.6,129.9z"/>
		<path class="st13" d="M194.9,130.5c2.1-0.8,4.2-0.5,4.8,0.8c0.5,1.3-0.7,3.1-2.8,3.9c-2.1,0.8-4.2,0.5-4.8-0.8
			S192.8,131.4,194.9,130.5z"/>
		<path class="st17" d="M195.6,129.9c-3.8,1.5-6.1,4.7-5.1,7c1,2.4,4.8,3,8.5,1.5c3.8-1.5,6.1-4.7,5.1-7
			C203.2,129.1,199.4,128.4,195.6,129.9z M202,131.5c0.8,1.9-1.1,4.4-4.1,5.7c-3,1.2-6.1,0.7-6.9-1.2c-0.8-1.9,1.1-4.4,4.1-5.7
			C198.2,129,201.3,129.6,202,131.5z"/>
	</g>
	<g>
		<path class="st1" d="M190.9,69.5c2.2-3.4,5.7-5.1,7.8-3.8c2.2,1.3,2.2,5.2,0,8.7c-2.2,3.4-5.7,5.1-7.8,3.8
			C188.8,76.8,188.8,72.9,190.9,69.5z"/>
		<ellipse transform="matrix(0.5301 -0.848 0.848 0.5301 29.5507 197.2882)" class="st15" cx="192.8" cy="72" rx="7.4" ry="4.6"/>
		<ellipse transform="matrix(0.5301 -0.848 0.848 0.5301 29.5507 197.2882)" class="st16" cx="192.8" cy="72" rx="7.4" ry="4.6"/>
		<path class="st13" d="M188.6,70.5c1.2-1.9,3.2-2.9,4.4-2.1c1.2,0.8,1.2,2.9,0,4.8c-1.2,1.9-3.2,2.9-4.4,2.1
			C187.4,74.6,187.4,72.4,188.6,70.5z"/>
		<path class="st17" d="M188.9,69.5c-2.2,3.5-2.1,7.3,0,8.7c2.2,1.3,5.6-0.3,7.8-3.8c2.2-3.4,2.2-7.3,0-8.7
			C194.5,64.4,191,66.1,188.9,69.5z M194.9,67.1c1.7,1.1,1.7,4.2,0,7c-1.7,2.8-4.5,4.1-6.3,3.1c-1.7-1.1-1.7-4.2,0-7
			C190.4,67.3,193.2,66,194.9,67.1z"/>
	</g>
	<g>
		<path class="st1" d="M167,74.3c-0.3-4.1,1.5-7.5,4.1-7.7c2.5-0.2,4.8,3,5.1,7c0.3,4.1-1.5,7.5-4.1,7.7
			C169.5,81.5,167.3,78.3,167,74.3z"/>
		<path class="st15" d="M165.4,75.5c-0.3-4.1,1.5-7.5,4.1-7.7c2.5-0.2,4.8,3,5.1,7c0.3,4.1-1.5,7.5-4.1,7.7
			C167.9,82.7,165.6,79.6,165.4,75.5z"/>
		<path class="st16" d="M165.4,75.5c-0.3-4.1,1.5-7.5,4.1-7.7c2.5-0.2,4.8,3,5.1,7c0.3,4.1-1.5,7.5-4.1,7.7
			C167.9,82.7,165.6,79.6,165.4,75.5z"/>
		<path class="st13" d="M165.7,76.4c-0.2-2.3,0.9-4.2,2.3-4.3c1.4-0.1,2.7,1.7,2.9,3.9c0.2,2.3-0.9,4.2-2.3,4.3
			C167.2,80.5,165.9,78.7,165.7,76.4z"/>
		<path class="st17" d="M165.3,75.5c0.3,4.1,2.6,7.2,5.1,7c2.5-0.2,4.4-3.6,4.1-7.7c-0.3-4.1-2.6-7.2-5.1-7
			C166.9,68,165.1,71.5,165.3,75.5z M168.8,69.9c2-0.1,3.9,2.4,4.1,5.6c0.2,3.3-1.2,6-3.3,6.2c-2,0.1-3.9-2.4-4.1-5.7
			C165.3,72.8,166.8,70.1,168.8,69.9z"/>
	</g>
	<g>
		<path class="st1" d="M152.2,83.3c-0.3-4.1,1.5-7.5,4.1-7.7c2.5-0.2,4.8,3,5.1,7c0.3,4.1-1.5,7.5-4.1,7.7
			C154.7,90.5,152.4,87.3,152.2,83.3z"/>
		<path class="st15" d="M150.5,84.5c-0.3-4.1,1.5-7.5,4.1-7.7c2.5-0.2,4.8,3,5.1,7c0.3,4.1-1.5,7.5-4.1,7.7
			C153.1,91.7,150.8,88.6,150.5,84.5z"/>
		<path class="st16" d="M150.5,84.5c-0.3-4.1,1.5-7.5,4.1-7.7c2.5-0.2,4.8,3,5.1,7c0.3,4.1-1.5,7.5-4.1,7.7
			C153.1,91.7,150.8,88.6,150.5,84.5z"/>
		<path class="st13" d="M150.9,85.4c-0.2-2.3,0.9-4.2,2.3-4.3c1.4-0.1,2.7,1.7,2.9,3.9c0.2,2.3-0.9,4.2-2.3,4.3
			C152.3,89.5,151.1,87.7,150.9,85.4z"/>
		<path class="st17" d="M150.5,84.5c0.3,4.1,2.6,7.2,5.1,7c2.5-0.2,4.4-3.6,4.1-7.7c-0.3-4.1-2.6-7.2-5.1-7
			C152.1,77,150.2,80.5,150.5,84.5z M154,78.9c2-0.1,3.9,2.4,4.1,5.6c0.2,3.3-1.2,6-3.3,6.2c-2,0.1-3.9-2.4-4.1-5.7
			C150.5,81.8,151.9,79.1,154,78.9z"/>
	</g>
	<g>
		<path class="st1" d="M139.1,98c-0.3-4.1,1.5-7.5,4.1-7.7c2.5-0.2,4.8,3,5.1,7c0.3,4.1-1.5,7.5-4.1,7.7
			C141.7,105.2,139.4,102,139.1,98z"/>
		<path class="st15" d="M137.5,99.2c-0.3-4.1,1.5-7.5,4.1-7.7c2.5-0.2,4.8,3,5.1,7c0.3,4.1-1.5,7.5-4.1,7.7
			C140.1,106.4,137.8,103.3,137.5,99.2z"/>
		<path class="st16" d="M137.5,99.2c-0.3-4.1,1.5-7.5,4.1-7.7c2.5-0.2,4.8,3,5.1,7c0.3,4.1-1.5,7.5-4.1,7.7
			C140.1,106.4,137.8,103.3,137.5,99.2z"/>
		<path class="st13" d="M137.9,100.2c-0.2-2.3,0.9-4.2,2.3-4.3c1.4-0.1,2.7,1.7,2.9,3.9c0.2,2.3-0.9,4.2-2.3,4.3
			C139.3,104.2,138,102.4,137.9,100.2z"/>
		<path class="st17" d="M137.5,99.2c0.3,4.1,2.6,7.2,5.1,7c2.5-0.2,4.4-3.6,4.1-7.7c-0.3-4.1-2.6-7.2-5.1-7
			C139,91.8,137.2,95.2,137.5,99.2z M140.9,93.7c2-0.1,3.9,2.4,4.1,5.6c0.2,3.3-1.2,6-3.3,6.2c-2,0.1-3.9-2.4-4.1-5.7
			C137.4,96.6,138.9,93.8,140.9,93.7z"/>
	</g>
	<g>
		
			<ellipse transform="matrix(0.7662 -0.6426 0.6426 0.7662 -43.3099 109.2704)" class="st1" cx="128.5" cy="114.1" rx="4.6" ry="7.4"/>
		<path class="st15" d="M124.4,119.1c-2.6-3.1-3.1-7-1.2-8.6c1.9-1.6,5.6-0.4,8.3,2.7c2.6,3.1,3.1,7,1.2,8.6
			C130.7,123.4,127,122.2,124.4,119.1z"/>
		<path class="st16" d="M124.4,119.1c-2.6-3.1-3.1-7-1.2-8.6c1.9-1.6,5.6-0.4,8.3,2.7c2.6,3.1,3.1,7,1.2,8.6
			C130.7,123.4,127,122.2,124.4,119.1z"/>
		<path class="st13" d="M125.2,119.6c-1.5-1.7-1.8-3.9-0.7-4.8c1.1-0.9,3.2-0.2,4.6,1.5c1.5,1.7,1.8,3.9,0.7,4.8
			C128.8,122,126.7,121.3,125.2,119.6z"/>
		<path class="st17" d="M124.4,119.1c2.6,3.1,6.3,4.3,8.3,2.7c1.9-1.6,1.4-5.5-1.2-8.6c-2.6-3.1-6.3-4.3-8.3-2.7
			C121.2,112.1,121.8,116,124.4,119.1z M123.9,112.5c1.6-1.3,4.5-0.4,6.6,2.2c2.1,2.5,2.5,5.6,1,6.9c-1.6,1.3-4.5,0.3-6.6-2.2
			C122.8,116.9,122.3,113.9,123.9,112.5z"/>
	</g>
	<g>
		<path class="st1" d="M117.9,136.2c-3.9-1-6.6-3.8-6-6.3c0.6-2.5,4.3-3.7,8.3-2.7s6.6,3.8,6,6.3
			C125.5,135.9,121.8,137.1,117.9,136.2z"/>
		<path class="st15" d="M118.6,138.1c-3.9-1-6.6-3.8-6-6.3c0.6-2.5,4.3-3.7,8.3-2.7c3.9,1,6.6,3.8,6,6.3
			C126.2,137.9,122.5,139.1,118.6,138.1z"/>
		<path class="st16" d="M118.6,138.1c-3.9-1-6.6-3.8-6-6.3c0.6-2.5,4.3-3.7,8.3-2.7c3.9,1,6.6,3.8,6,6.3
			C126.2,137.9,122.5,139.1,118.6,138.1z"/>
		<path class="st13" d="M119.6,138c-2.2-0.5-3.7-2.1-3.4-3.5c0.3-1.4,2.4-2.1,4.6-1.5c2.2,0.5,3.7,2.1,3.4,3.5
			C123.8,137.9,121.8,138.6,119.6,138z"/>
		<path class="st17" d="M118.6,138.1c3.9,1,7.6-0.2,8.3-2.7c0.6-2.5-2.1-5.3-6-6.2c-3.9-1-7.6,0.2-8.3,2.7
			C111.9,134.3,114.6,137.1,118.6,138.1z M114.3,133.1c0.5-2,3.5-3,6.6-2.2c3.2,0.8,5.3,3,4.9,5c-0.5,2-3.5,3-6.6,2.2
			C116,137.3,113.8,135.1,114.3,133.1z"/>
	</g>
	<g>
		
			<ellipse transform="matrix(0.9273 -0.3744 0.3744 0.9273 -48.9375 51.3627)" class="st1" cx="107.7" cy="151.6" rx="7.4" ry="4.6"/>
		<path class="st15" d="M111.1,157.1c-3.8,1.5-7.6,0.8-8.6-1.5c-1-2.4,1.3-5.5,5.1-7c3.8-1.5,7.6-0.8,8.6,1.5
			C117.2,152.4,114.9,155.5,111.1,157.1z"/>
		<path class="st16" d="M111.1,157.1c-3.8,1.5-7.6,0.8-8.6-1.5c-1-2.4,1.3-5.5,5.1-7c3.8-1.5,7.6-0.8,8.6,1.5
			C117.2,152.4,114.9,155.5,111.1,157.1z"/>
		<path class="st13" d="M111.9,156.4c-2.1,0.8-4.2,0.5-4.8-0.8c-0.5-1.3,0.7-3.1,2.8-3.9c2.1-0.8,4.2-0.5,4.8,0.8
			C115.3,153.8,114,155.6,111.9,156.4z"/>
		<path class="st17" d="M111.1,157.1c3.8-1.5,6.1-4.7,5.1-7c-1-2.4-4.8-3-8.5-1.5c-3.8,1.5-6.1,4.7-5.1,7
			C103.5,157.9,107.4,158.6,111.1,157.1z M104.8,155.5c-0.8-1.9,1.1-4.4,4.1-5.7c3-1.2,6.1-0.7,6.9,1.2c0.8,1.9-1.1,4.4-4.1,5.7
			C108.6,157.9,105.5,157.4,104.8,155.5z"/>
	</g>
	<g>
		
			<ellipse transform="matrix(0.9273 -0.3744 0.3744 0.9273 -57.0179 51.3735)" class="st1" cx="103.7" cy="172.4" rx="7.4" ry="4.6"/>
		<path class="st15" d="M107.1,177.9c-3.8,1.5-7.6,0.8-8.6-1.5c-1-2.4,1.3-5.5,5.1-7c3.8-1.5,7.6-0.8,8.6,1.5
			C113.2,173.2,110.9,176.3,107.1,177.9z"/>
		<path class="st16" d="M107.1,177.9c-3.8,1.5-7.6,0.8-8.6-1.5c-1-2.4,1.3-5.5,5.1-7c3.8-1.5,7.6-0.8,8.6,1.5
			C113.2,173.2,110.9,176.3,107.1,177.9z"/>
		<path class="st13" d="M107.9,177.2c-2.1,0.8-4.2,0.5-4.8-0.8c-0.5-1.3,0.7-3.1,2.8-3.9c2.1-0.8,4.2-0.5,4.8,0.8
			C111.3,174.6,110,176.4,107.9,177.2z"/>
		<path class="st17" d="M107.1,177.9c3.8-1.5,6.1-4.7,5.1-7c-1-2.4-4.8-3-8.5-1.5c-3.8,1.5-6.1,4.7-5.1,7
			C99.5,178.7,103.4,179.4,107.1,177.9z M100.7,176.3c-0.8-1.9,1.1-4.4,4.1-5.7c3-1.2,6.1-0.7,6.9,1.2c0.8,1.9-1.1,4.4-4.1,5.7
			C104.6,178.7,101.5,178.2,100.7,176.3z"/>
	</g>
	<g>
		
			<ellipse transform="matrix(0.9273 -0.3744 0.3744 0.9273 -63.2786 53.2581)" class="st1" cx="105.4" cy="189.5" rx="7.4" ry="4.6"/>
		<path class="st15" d="M108.8,194.9c-3.8,1.5-7.6,0.8-8.6-1.5c-1-2.4,1.3-5.5,5.1-7c3.8-1.5,7.6-0.8,8.6,1.5
			C114.9,190.2,112.6,193.4,108.8,194.9z"/>
		<path class="st16" d="M108.8,194.9c-3.8,1.5-7.6,0.8-8.6-1.5c-1-2.4,1.3-5.5,5.1-7c3.8-1.5,7.6-0.8,8.6,1.5
			C114.9,190.2,112.6,193.4,108.8,194.9z"/>
		<path class="st13" d="M109.6,194.3c-2.1,0.8-4.2,0.5-4.8-0.8c-0.5-1.3,0.7-3.1,2.8-3.9c2.1-0.8,4.2-0.5,4.8,0.8
			C113,191.7,111.7,193.4,109.6,194.3z"/>
		<path class="st17" d="M108.8,194.9c3.8-1.5,6.1-4.7,5.1-7c-1-2.4-4.8-3-8.5-1.5c-3.8,1.5-6.1,4.7-5.1,7
			C101.2,195.7,105.1,196.4,108.8,194.9z M102.5,193.3c-0.8-1.9,1.1-4.4,4.1-5.7c3-1.2,6.1-0.7,6.9,1.2c0.8,1.9-1.1,4.4-4.1,5.7
			C106.3,195.8,103.2,195.3,102.5,193.3z"/>
	</g>
	<g>
		<path class="st1" d="M123.6,205.7c-2.2,3.4-5.7,5.1-7.8,3.8c-2.2-1.3-2.2-5.2,0-8.7c2.2-3.4,5.7-5.1,7.8-3.8
			C125.7,198.3,125.7,202.2,123.6,205.7z"/>
		<path class="st15" d="M125.6,205.6c-2.2,3.4-5.7,5.1-7.8,3.8c-2.2-1.3-2.2-5.2,0-8.7c2.2-3.4,5.7-5.1,7.8-3.8
			C127.8,198.3,127.8,202.2,125.6,205.6z"/>
		<path class="st16" d="M125.6,205.6c-2.2,3.4-5.7,5.1-7.8,3.8c-2.2-1.3-2.2-5.2,0-8.7c2.2-3.4,5.7-5.1,7.8-3.8
			C127.8,198.3,127.8,202.2,125.6,205.6z"/>
		<path class="st13" d="M125.8,204.6c-1.2,1.9-3.2,2.9-4.4,2.1c-1.2-0.8-1.2-2.9,0-4.8c1.2-1.9,3.2-2.9,4.4-2.1
			C127,200.6,127.1,202.7,125.8,204.6z"/>
		<path class="st17" d="M125.6,205.6c2.2-3.5,2.1-7.3,0-8.7c-2.2-1.3-5.6,0.3-7.8,3.8c-2.2,3.4-2.2,7.3,0,8.7
			C120,210.8,123.5,209.1,125.6,205.6z M119.5,208.1c-1.7-1.1-1.7-4.2,0-7c1.7-2.8,4.5-4.1,6.3-3.1c1.7,1.1,1.7,4.2,0,7
			C124.1,207.8,121.3,209.2,119.5,208.1z"/>
	</g>
	<g>
		
			<ellipse transform="matrix(0.9976 -6.957982e-02 6.957982e-02 0.9976 -12.6129 11.7496)" class="st1" cx="162.4" cy="186.9" rx="4.6" ry="7.4"/>
		
			<ellipse transform="matrix(0.9976 -6.957982e-02 6.957982e-02 0.9976 -12.5216 11.8597)" class="st15" cx="164" cy="185.7" rx="4.6" ry="7.4"/>
		
			<ellipse transform="matrix(0.9976 -6.957982e-02 6.957982e-02 0.9976 -12.5216 11.8597)" class="st16" cx="164" cy="185.7" rx="4.6" ry="7.4"/>
		<path class="st13" d="M168.2,184.4c0.2,2.3-0.9,4.2-2.3,4.3c-1.4,0.1-2.7-1.7-2.9-3.9c-0.2-2.3,0.9-4.2,2.3-4.3
			C166.8,180.4,168,182.2,168.2,184.4z"/>
		<path class="st17" d="M168.6,185.4c-0.3-4.1-2.6-7.2-5.1-7c-2.5,0.2-4.4,3.6-4.1,7.7c0.3,4.1,2.6,7.2,5.1,7
			C167,192.8,168.9,189.4,168.6,185.4z M165.1,190.9c-2,0.1-3.9-2.4-4.1-5.6c-0.2-3.3,1.2-6,3.3-6.2c2-0.1,3.9,2.4,4.1,5.7
			C168.6,188,167.2,190.8,165.1,190.9z"/>
	</g>
	<g>
		
			<ellipse transform="matrix(0.9976 -6.957982e-02 6.957982e-02 0.9976 -13.5403 10.8079)" class="st1" cx="148.4" cy="199.8" rx="4.6" ry="7.4"/>
		
			<ellipse transform="matrix(0.9976 -6.957982e-02 6.957982e-02 0.9976 -13.449 10.918)" class="st15" cx="150" cy="198.5" rx="4.6" ry="7.4"/>
		
			<ellipse transform="matrix(0.9976 -6.957982e-02 6.957982e-02 0.9976 -13.449 10.918)" class="st16" cx="150" cy="198.5" rx="4.6" ry="7.4"/>
		<path class="st13" d="M154.2,197.3c0.2,2.3-0.9,4.2-2.3,4.3c-1.4,0.1-2.7-1.7-2.9-3.9c-0.2-2.3,0.9-4.2,2.3-4.3
			C152.8,193.3,154.1,195,154.2,197.3z"/>
		<path class="st17" d="M154.6,198.2c-0.3-4.1-2.6-7.2-5.1-7c-2.5,0.2-4.4,3.6-4.1,7.7c0.3,4.1,2.6,7.2,5.1,7
			C153,205.7,154.9,202.2,154.6,198.2z M151.1,203.8c-2,0.1-3.9-2.4-4.1-5.6c-0.2-3.3,1.2-6,3.3-6.2c2-0.1,3.9,2.4,4.1,5.7
			C154.7,200.9,153.2,203.6,151.1,203.8z"/>
	</g>
	<g>
		
			<ellipse transform="matrix(0.9976 -6.957982e-02 6.957982e-02 0.9976 -14.1534 10.0532)" class="st1" cx="137.2" cy="208.2" rx="4.6" ry="7.4"/>
		
			<ellipse transform="matrix(0.9976 -6.957982e-02 6.957982e-02 0.9976 -14.062 10.1633)" class="st15" cx="138.9" cy="206.9" rx="4.6" ry="7.4"/>
		
			<ellipse transform="matrix(0.9976 -6.957982e-02 6.957982e-02 0.9976 -14.062 10.1633)" class="st16" cx="138.9" cy="206.9" rx="4.6" ry="7.4"/>
		<path class="st13" d="M143.1,205.7c0.2,2.3-0.9,4.2-2.3,4.3c-1.4,0.1-2.7-1.7-2.9-3.9c-0.2-2.3,0.9-4.2,2.3-4.3
			C141.6,201.7,142.9,203.4,143.1,205.7z"/>
		<path class="st17" d="M143.5,206.6c-0.3-4.1-2.6-7.2-5.1-7c-2.5,0.2-4.4,3.6-4.1,7.7c0.3,4.1,2.6,7.2,5.1,7
			C141.9,214.1,143.7,210.7,143.5,206.6z M140,212.2c-2,0.1-3.9-2.4-4.1-5.6c-0.2-3.3,1.2-6,3.3-6.2c2-0.1,3.9,2.4,4.1,5.7
			C143.5,209.3,142,212.1,140,212.2z"/>
	</g>
	<g>
		<path class="st1" d="M184.1,167.6c2.6,3.1,3.1,7,1.2,8.6c-1.9,1.6-5.6,0.4-8.3-2.7c-2.6-3.1-3.1-7-1.2-8.6
			C177.8,163.3,181.5,164.5,184.1,167.6z"/>
		<path class="st15" d="M184.7,165.6c2.6,3.1,3.1,7,1.2,8.6c-1.9,1.6-5.6,0.4-8.3-2.7c-2.6-3.1-3.1-7-1.2-8.6
			C178.4,161.3,182.1,162.5,184.7,165.6z"/>
		<path class="st16" d="M184.7,165.6c2.6,3.1,3.1,7,1.2,8.6c-1.9,1.6-5.6,0.4-8.3-2.7c-2.6-3.1-3.1-7-1.2-8.6
			C178.4,161.3,182.1,162.5,184.7,165.6z"/>
		<path class="st13" d="M183.8,165.1c1.5,1.7,1.8,3.9,0.7,4.8c-1.1,0.9-3.2,0.2-4.6-1.5c-1.5-1.7-1.8-3.9-0.7-4.8
			C180.3,162.7,182.4,163.3,183.8,165.1z"/>
		<path class="st17" d="M184.7,165.6c-2.6-3.1-6.3-4.3-8.3-2.7c-1.9,1.6-1.4,5.5,1.2,8.6c2.6,3.1,6.3,4.3,8.3,2.7
			C187.8,172.6,187.3,168.7,184.7,165.6z M185.2,172.2c-1.6,1.3-4.5,0.4-6.6-2.2c-2.1-2.5-2.5-5.6-1-6.9c1.6-1.3,4.5-0.3,6.6,2.2
			C186.3,167.7,186.7,170.8,185.2,172.2z"/>
	</g>
</g>
</svg>
