<svg id="Layer_6" data-name="Layer 6" xmlns="http://www.w3.org/2000/svg" viewBox="0 0 252 252"><defs><style>.cls-1{fill:#6e4b29;}.cls-2{fill:#fbe3a7;}.cls-3{fill:#f6d78b;}.cls-4{fill:#f4ca6d;}.cls-5{fill:#fff;}.cls-6{fill:#28170d;}</style></defs><path class="cls-1" d="M185.12,182.56c.48-23.39-14.05-45.87-34.54-57.16-11.21-6.18-25.85-9.25-38-3.86-6.24,2.77-13.34,5.95-19.61,10l.08-.07c-1.55,1-3,.76-7.33,5l-.59.37c-.81.76-1.59,1.55-2.33,2.37a37.44,37.44,0,0,0-7,6.4c-18.95,22.84-10.28,63.1,12.59,80.16,16.66,12.43,57.14,16.22,76.41,8.16,13.39-5.6,14.51-15.78,17.08-31.83,0,0,2.21-11.12,2.79-14A22.54,22.54,0,0,0,185.12,182.56Z"/><path class="cls-2" d="M146.64,212.05c5.14-5.25-34.29-61.56-47.72-80.37-1.78,1-3.54,2-5.23,3.1l.07-.07c-1.45.91-2.85.72-6.87,4.73l-.55.35c-.56.53-1.1,1.08-1.63,1.64,13.45,18.38,55.8,75.2,61.8,70.75a.8.8,0,0,0,.13-.13"/><path class="cls-3" d="M180,182.77c.45-22-13.17-43.15-32.37-53.78-10.5-5.81-24.22-8.7-35.57-3.63-4.15,1.85-8.72,3.91-13.13,6.32,13.43,18.81,52.86,75.12,47.72,80.37,4.36,4.79,11.62,12.42,17.94,17.3,9.21-5.54,10.29-14.63,12.45-28.16,0,0,2.06-10.46,2.61-13.13A21.57,21.57,0,0,0,180,182.77Z"/><path class="cls-4" d="M146.64,212.05a.8.8,0,0,1-.13.13c-6,4.45-48.35-52.37-61.8-70.75l-.55.59a35.54,35.54,0,0,0-6.53,6c-17.74,21.5-9.63,59.37,11.8,75.42,15.62,11.69,53.54,15.27,71.59,7.68a28.12,28.12,0,0,0,3.56-1.79C158.26,224.47,151,216.84,146.64,212.05Z"/><path class="cls-2" d="M96,197.43s-11.88-22.11-3.34-26.12,14.51,6.37,19.08,10.74,19.51,17.38,25.13,29.91-8.69,15.11-14.17,13.41S106.82,218.41,96,197.43Z"/><path class="cls-2" d="M127.1,164.13s-7-15.89-.06-16.95,23.67,11.91,32.16,23,11.54,23.7,2.3,28.34-16.3-6.52-20-13.45S128.51,166.71,127.1,164.13Z"/><path class="cls-5" d="M101.12,180.81c-.42,0-.66.25-.77.74A162.56,162.56,0,0,1,121,193.38C113.67,186.42,103.53,180.93,101.12,180.81Z"/><path class="cls-6" d="M127.53,201.93a29.81,29.81,0,0,0-6.57-8.55,162.56,162.56,0,0,0-20.61-11.83C99.64,185,105.71,199,105.71,199c7,13.45,14,16.39,18.58,16S132.35,212.38,127.53,201.93Z"/><path class="cls-5" d="M129.45,158.14c0-.42.32-.64.81-.69a163.21,163.21,0,0,0,9.81,21.64C133.83,171.17,129.34,160.55,129.45,158.14Z"/><path class="cls-6" d="M147.94,186.45a29.51,29.51,0,0,1-7.87-7.36,163.21,163.21,0,0,1-9.81-21.64c3.47-.39,16.89,7,16.89,7,12.72,8.22,15,15.5,14.15,20S157.88,192.26,147.94,186.45Z"/></svg>