<?xml version="1.0" encoding="utf-8"?>
<!-- Generator: Adobe Illustrator 24.3.0, SVG Export Plug-In . SVG Version: 6.00 Build 0)  -->
<svg version="1.1" id="Layer_2" xmlns="http://www.w3.org/2000/svg" xmlns:xlink="http://www.w3.org/1999/xlink" x="0px" y="0px"
	 viewBox="0 0 252 252" style="enable-background:new 0 0 252 252;" xml:space="preserve">
<style type="text/css">
	.st0{fill:#FFFFFF;}
</style>
<g>
	<path class="st0" d="M54.2,29.6c0.9,0,1.9,0.2,2.7,0.6c0.4,0.2,0.8,0.4,1.1,0.7c2.9,2.1,3.6,6.3,1.5,9.2c-0.2,0.3-0.5,0.6-0.8,0.9
		c-1.8,1.7-3.3,3.6-4.5,5.7c-0.4,0.6-0.7,1.3-1,1.9l4.5,2.4l4.3-3.4l0.6-0.4l4.5,4.2l5.6-2.6l3.4,5.2l6.1-1.1l1.9,5.9l7.3,1.1l2.4,7
		l7.2,1.3l2.2,7l7.2,1.6l2,7.1l7.1,1.8l0,0.1l1.7,7.1l7.1,2.1l0.2,0.8l3-0.9l1.3-7.2l5.9-1.2l0-6l5.8-1.3l0-6l5.9-1.2l0.3-6l5.9-0.8
		l0.8-5.9l6-0.1l1.8-5.8l6,1.1l3-5.3l5.6,2.3l4.1-4.5l4.9,3.6l5.1-3.3l3.7,4.8l5.9-1.5l2.2,5.8l6.2,0.3l0.6,6.2l5.2,1.6l0.7,0.2
		l-1,6.1l5.3,3.3l-2.4,5.7l4.3,4.5l-3.8,4.9l3.2,6.7l-4.4,5.9l2.9,6.8l-4.6,5.8l2.7,6.9l-4.8,5.6l2.5,7l-0.1,0.1l-4.9,5.4l2.2,7.1
		l-5.3,5.7l1.8,7.6l-5.6,5.4l1.3,7.7l-6,4.9l0.5,7.8l-6.6,4.2l-0.4,7.8l-7.1,3.3l-1.6,7.6l-7.5,2l-3,7.2l-7.8,0.6l-2.2,3.3l-2.1,3.2
		l-7.7-1.1l-5.7,5.3l-7.2-2.9l-6.9,3.6l-2.9-4.2l-4.1,3l-2.4-4.5l-3.4,1.9l-0.4,0.7l-0.5-0.2l-0.1,0.1l-0.1-0.1l-5-1.9l-3.7,4.8
		l-5.3-2.9l-4.4,4.2l-4.8-3.7l-5,3.4l-4-4.5l-5.6,2.3l-4.3-5.9l-7.3-0.1l-2.6-6.8l-7.1-1.8l-1.1-7.2l-6.6-3.1l0.2-7.3l-6.1-4.1
		l1.2-7.2l-5.5-4.8L47,174l0.5-1.7l-5.1-5.2l2.3-6.9l-5-5.4l2.4-6.9l-5-5.3l2.2-7l-5.2-5.1l2.3-5.5l-5-3.3l2.2-5.6l-5-3.3l2.3-5.5
		l-4.8-3.5l2.7-5.3l-4.5-4l3.3-5l-3.8-4.7l4.2-4.3l-2.7-5.4l5-3.3l-1.4-5.9l5.7-2l0.1-6l6-0.4l1.3-3.6c0-0.3,0-0.7,0-1
		c0-1.8,0.1-3.6,0.4-5.5c0.3-1.8,0.8-3.6,1.4-5.3c1.3-3.4,3-6.6,5.1-9.4l0.1-0.1C50.2,30.5,52.2,29.6,54.2,29.6 M54.2,22.6
		L54.2,22.6c-4.3,0-8.4,2.1-11,5.6l-0.1,0.1c0,0,0,0,0,0.1c-2.6,3.6-4.6,7.3-6,11.1c0,0,0,0,0,0.1c-0.8,2.3-1.4,4.4-1.7,6.5
		c-0.3,1.5-0.4,3.1-0.5,4.6l-0.7,0c-3.6,0.2-6.5,3.2-6.6,6.8l0,1.2l-1.2,0.4c-3.4,1.2-5.3,4.8-4.4,8.2l0.3,1.1l-0.9,0.6
		c-2.9,2-4,5.8-2.4,9l0.5,1l-0.7,0.8c-2.5,2.5-2.6,6.5-0.4,9.2l0.6,0.7l-0.5,0.7c-1.9,2.9-1.4,6.8,1.2,9.1l0.5,0.4l-0.3,0.5
		c-1.5,3.1-0.6,6.8,2.1,8.8l0.4,0.3L22,110c-1.3,3.1-0.2,6.7,2.6,8.5l0.3,0.2l-0.1,0.3c-1.2,3.1-0.1,6.5,2.7,8.4l0.2,0.1l-0.1,0.2
		c-1.1,2.6-0.5,5.7,1.6,7.7l2.1,2.1l-0.9,2.9c-0.8,2.4-0.2,5.1,1.6,6.9l2.1,2.3l-1,2.9c-0.8,2.4-0.3,5.2,1.5,7l2.2,2.3l-1,3
		c-0.8,2.5-0.2,5.3,1.7,7.1l2.3,2.3l-0.9,3.2c-0.7,2.6,0.1,5.4,2.2,7.1l2.6,2.2l-0.6,3.4c-0.4,2.7,0.7,5.4,3,7l2.9,1.9l-0.1,3.5
		c-0.1,2.8,1.5,5.3,4,6.5l3.2,1.5l0.5,3.5c0.4,2.8,2.5,5.1,5.2,5.8l3.5,0.9l1.3,3.4c1,2.7,3.6,4.5,6.5,4.5l3.7,0l2.2,3
		c1.3,1.9,3.5,2.9,5.7,2.9c0.9,0,1.8-0.2,2.6-0.5l1-0.4l0.7,0.8c1.4,1.6,3.3,2.4,5.2,2.4c1.3,0,2.7-0.4,3.9-1.2l0.8-0.6l0.8,0.6
		c1.3,1,2.8,1.5,4.3,1.5c1.8,0,3.5-0.7,4.8-1.9l0.7-0.6l0.8,0.4c1.1,0.6,2.2,0.9,3.3,0.9c2.1,0,4.2-0.9,5.5-2.7l0.5-0.6
		c0.1,0.1,0.3,0.1,0.4,0.1c0.4,0.2,0.9,0.3,1.3,0.3c0.6,0.1,1.1,0.2,1.7,0.2c0.4,0,0.9,0,1.3-0.1c0.9,0.9,2.1,1.5,3.3,1.8
		c0.5,0.1,1,0.2,1.5,0.2c0.9,0,1.7-0.2,2.6-0.5c1.3,1,2.9,1.6,4.5,1.6c1.1,0,2.2-0.3,3.3-0.8l4-2.1l4.2,1.7c0.9,0.3,1.7,0.5,2.6,0.5
		c1.7,0,3.5-0.7,4.8-1.9l3.2-3l4.4,0.6c0.3,0,0.7,0.1,1,0.1c2.3,0,4.5-1.1,5.8-3.1l2.1-3.2l0.3-0.4l4.3-0.3c2.6-0.2,4.9-1.8,6-4.3
		l1.7-4l4.2-1.1c2.5-0.7,4.5-2.7,5.1-5.3l0.9-4.2l3.9-1.8c2.4-1.1,3.9-3.4,4.1-6l0.2-4.2l3.5-2.3c2.1-1.4,3.4-3.8,3.2-6.4l-0.3-4.1
		l3.2-2.6c2-1.6,2.9-4.1,2.5-6.6l-0.7-4l3-2.8c1.8-1.7,2.5-4.3,2-6.7l-0.9-3.9l2.7-2.9c1.7-1.8,2.3-4.5,1.6-6.9l-1-3.2l2.2-2.4
		c0-0.1,0.1-0.1,0.1-0.2l0.1-0.1c1.7-1.9,2.2-4.6,1.3-6.9l-1.1-3.1l2.2-2.5c1.7-2,2.2-4.7,1.2-7.1l-1.2-3.1l2.1-2.6
		c1.6-2,2-4.8,1-7.2l-1.3-3.1l2-2.7c1.6-2.1,1.8-4.8,0.7-7.2l-1.3-2.8l1.2-1.5c2.2-2.8,1.9-6.7-0.5-9.2l-1.1-1.1l0.6-1.4
		c1.4-3.2,0.2-6.9-2.8-8.7l-1.3-0.8l0.2-1.5c0.5-3.4-1.5-6.7-4.8-7.8l-0.7-0.2l-0.8-0.3l-0.2-1.6c-0.3-3.5-3.2-6.2-6.7-6.3l-1.6-0.1
		l-0.6-1.5c-1-2.8-3.7-4.5-6.6-4.5c-0.6,0-1.2,0.1-1.8,0.2l-1.3,0.4l-0.8-1.1c-1.4-1.8-3.5-2.8-5.6-2.8c-1.3,0-2.6,0.4-3.8,1.1
		l-1.1,0.7l-1-0.7c-1.2-0.9-2.7-1.4-4.1-1.4c-1.9,0-3.8,0.8-5.2,2.3l-0.8,0.9l-1.1-0.4c-0.9-0.4-1.8-0.5-2.7-0.5
		c-2.5,0-4.8,1.3-6.1,3.6l-0.5,1l-1.1-0.2c-0.4-0.1-0.8-0.1-1.2-0.1c-3,0-5.7,1.9-6.7,4.9l-0.3,0.9l-0.9,0c-3.5,0-6.4,2.6-6.9,6
		l-0.1,0.6l-0.6,0.1c-3.4,0.4-6,3.2-6.1,6.7l0,0.5l-0.5,0.1c-3.3,0.7-5.6,3.6-5.6,6.9l0,0.4l-0.4,0.1c-3.2,0.7-5.5,3.6-5.5,6.9
		l0,0.2l-0.2,0c-2.2,0.4-4,1.9-4.9,3.8l-0.1-0.5c0-0.1,0-0.1,0-0.2l0-0.1c-0.7-2.4-2.6-4.3-5-5l-3.2-0.8l-0.9-3.2
		c-0.7-2.5-2.7-4.4-5.2-5l-3.2-0.7l-1-3.2c-0.8-2.5-2.9-4.3-5.4-4.8l-3.2-0.6L98,57.5c-0.9-2.4-3-4.2-5.6-4.6l-3-0.5l-0.6-1.8
		c-1-2.9-3.7-4.8-6.6-4.8c-0.4,0-0.8,0-1.2,0.1l-1.5,0.3l-0.8-1.3c-1.3-2-3.6-3.2-5.9-3.2c-1,0-2,0.2-2.9,0.6L68.4,43l-1.1-1
		c-0.2-0.2-0.4-0.3-0.6-0.5c2.4-5.7,0.7-12.5-4.5-16.3c0,0,0,0,0,0c-0.8-0.6-1.5-1-2.4-1.4C58.1,23,56.2,22.6,54.2,22.6L54.2,22.6z"
		/>
</g>
</svg>
