<svg id="b35fb4c7-3d49-42c8-9877-5d8326fe6540" data-name="Layer 1" xmlns="http://www.w3.org/2000/svg" viewBox="0 0 252 252"><path d="M91.82,41a2.22,2.22,0,0,1,1.55.64c1.36,1,2.71,2.08,4,3.19a4.55,4.55,0,0,1,1.32,5.63c-1.93,5.1-4,10.19-4.21,15.73a40.66,40.66,0,0,0,1.25,11.15c.16.67.33,1,.77,1a2.26,2.26,0,0,0,.7-.15,7.72,7.72,0,0,1,2.64-.46,8,8,0,0,1,2.27.33,9.19,9.19,0,0,1,4.43-1.23,26.64,26.64,0,0,1,10.74-2.13,28.16,28.16,0,0,1,16.42,5c.68.2,1.36.42,2,.66,3.43,1.22,6.64,3,8.51,6.22.14.23.3.44.44.66h.38a14.46,14.46,0,0,0,1.61-.37l.33-.14h.08a10.06,10.06,0,0,0,1.08-.42,16.67,16.67,0,0,1,3.85-.39c1.76,0,3.54.16,5.3.16,2.36,1,4.79,1.88,7,3,.83.42,1.64.86,2.44,1.33a4.93,4.93,0,0,0,2.41,1.7,2.16,2.16,0,0,0,.43.14,26.76,26.76,0,0,1,4.94,4.57c.09.11.19.21.29.31a2.74,2.74,0,0,0,1.91,1.43,3.45,3.45,0,0,0,1.53.76c.5.12,1,.22,1.5.32a9,9,0,0,1,2.85,1.87,13.18,13.18,0,0,1,1.68,1.82,7.15,7.15,0,0,0,.53.7l.48,1a24.33,24.33,0,0,0,1.8,3.79,1,1,0,0,0,0,.24c-.15,1.2,0,1.83,1.32,2.34a21.91,21.91,0,0,1,9,7.11,20.24,20.24,0,0,0,2.09,2.44,5.78,5.78,0,0,1,2,3.31c.25,2.13,1.67,3.16,3.07,4.51,7.48,7.22,10.86,15.88,8.86,26.36-.39,2.06-.45,4.18-.83,6.24a11.73,11.73,0,0,1-3.24,6.81,1.45,1.45,0,0,0-.47,1.21,19.06,19.06,0,0,1,0,2,11.54,11.54,0,0,1-4.47,9.5c-3,2.46-6,4.85-9.8,6-.75.23-.87.78-1.16,1.31-2.71,5-6.78,8.34-12.39,9.18a4.33,4.33,0,0,0-3.6,2.31c-2.64,4.23-8.82,7-14.42,7a14,14,0,0,1-5.06-.89,2,2,0,0,0-1-.24,2,2,0,0,0-1.51.69,10.94,10.94,0,0,1-7.36,2.85l-.64,0-.64,0a11.59,11.59,0,0,1-3.36-.5,9.32,9.32,0,0,0-3.41-.66,13.18,13.18,0,0,0-5.43,1.38,19.75,19.75,0,0,1-8.13,1.74,25.83,25.83,0,0,1-10.08-2.24c-1-.41-1.89-.89-2.82-1.37a6.39,6.39,0,0,1-2.17.29h-.71c-.53,0-6.84-.18-7.94-.22a10,10,0,0,1-4.11-1.37l-.22-.12-.43-.17a18.28,18.28,0,0,0-3.5-.51c-.53,0-7.59-1.63-10.37-4.06l-.44-.43a1.21,1.21,0,0,0-.32-.11.19.19,0,0,0,.07-.13,30.83,30.83,0,0,1-6.15-8.2s.17-1.06-.67-1.19-4.23-.84-5.78-2.3-11.92-5-13.68-20.26c0,0,0-.2.07-.47s0-.49,0-.74V167a.9.9,0,0,0-.65-.77c-1.1-.26-10.77-2.34-16-15.94a27.08,27.08,0,0,1-1-3.14,21.91,21.91,0,0,1-.8-5.78v-.76c0-.26,0-.52,0-.78a4.8,4.8,0,0,0,.12-.64c0-.11,0-.21,0-.32a4.23,4.23,0,0,0-.45-2.17c-.41-.67-.79-3.22-.65-6.61a29.16,29.16,0,0,1,.69-5.58,32,32,0,0,1,1.51-5.2c.21-.58.43-1.17.66-1.75.1-.27.21-.53.33-.79a19.14,19.14,0,0,0,2-6.69,7.51,7.51,0,0,1,.37-2.21A16.69,16.69,0,0,1,48,100.57c.56-.58,1.14-1.13,1.73-1.66,4.19-7.84,14.05-13.93,23-14.26a9.08,9.08,0,0,1,3.91-.89h.13a4.6,4.6,0,0,1,.81-.19,7.94,7.94,0,0,1,3.79-1.71c-.1-1.21-.21-2.39-.37-3.57A50.11,50.11,0,0,1,87.59,45.5,23.38,23.38,0,0,1,90,42a2.25,2.25,0,0,1,.24-.3A2.23,2.23,0,0,1,91.82,41m0-8h0a10.13,10.13,0,0,0-7.27,3.05,9,9,0,0,0-.86,1,31,31,0,0,0-3,4.41,58.27,58.27,0,0,0-8,34.73c-.6.15-1.19.32-1.78.53-10.82,1-22,7.91-27.54,17.13-.4.38-.77.75-1.13,1.12a24.33,24.33,0,0,0-6.55,10.76,16.46,16.46,0,0,0-.65,3.81A11.15,11.15,0,0,1,34,113.18c0,.09-.09.18-.13.28-.2.43-.38.85-.54,1.27s-.44,1.16-.68,1.82a40,40,0,0,0-1.85,6.35,36.62,36.62,0,0,0-.85,7,25.36,25.36,0,0,0,1,9.27l0,.5v1h0v.85a30.43,30.43,0,0,0,1,7.69,38.57,38.57,0,0,0,1.24,4c4.35,11.31,11.32,16.61,16.56,19.08,2.67,14.66,12.06,20.34,15.72,22.55l.44.27a17.26,17.26,0,0,0,5.52,3,38.76,38.76,0,0,0,5.44,7.11,8.08,8.08,0,0,0,2.37,2.29c5.14,4.29,14.55,5.79,14.64,5.79l.41,0c.56,0,.93.08,1.17.11a18.43,18.43,0,0,0,6.59,2c.18,0,.36,0,.55,0,.77,0,7.44.23,8.23.23h.71l.83,0,1,.47a33.91,33.91,0,0,0,13.2,2.87A27.7,27.7,0,0,0,138,216.57a6,6,0,0,1,2.17-.68,1.35,1.35,0,0,1,.5.11c.2.08.39.15.59.21a19.83,19.83,0,0,0,5.68.84h1.28a19,19,0,0,0,10.08-2.9,23.49,23.49,0,0,0,4.81.49c8.15,0,16.16-3.81,20.42-9.59a24.24,24.24,0,0,0,16.11-11.5,41.38,41.38,0,0,0,9.84-6.44,19.63,19.63,0,0,0,7.48-15.52,20,20,0,0,0,3.61-9c.22-1.23.34-2.4.45-3.44s.19-1.8.33-2.52c2.41-12.61-1.45-24.23-11.16-33.61l-.67-.62-.23-.22a13.81,13.81,0,0,0-4.26-7.07,12.5,12.5,0,0,1-1.1-1.31,30.09,30.09,0,0,0-9.55-8.39,5.62,5.62,0,0,0-.34-.64,15.57,15.57,0,0,1-1.19-2.51c-.09-.24-.19-.48-.3-.71l-.21-.43-.27-.58a8.6,8.6,0,0,0-1.08-1.66l-.3-.41a22,22,0,0,0-2.57-2.8,17.16,17.16,0,0,0-5.24-3.41,8.07,8.07,0,0,0-1.5-.45l-.49-.1a2,2,0,0,0-.32-.18,34.56,34.56,0,0,0-6.29-5.79,7.86,7.86,0,0,0-1.81-1,7.66,7.66,0,0,0-1.62-1.26c-.93-.55-1.87-1.06-2.88-1.57-1.82-.92-3.64-1.66-5.4-2.37-.7-.28-1.4-.56-2.09-.86a8.16,8.16,0,0,0-3.12-.63c-.7,0-1.47,0-2.28-.07-1,0-1.95-.09-3-.09a25.84,25.84,0,0,0-4.29.32,26,26,0,0,0-9.28-5.4c-.41-.15-.8-.28-1.18-.4a36.73,36.73,0,0,0-20-5.7A35.2,35.2,0,0,0,104.65,69a14.94,14.94,0,0,0-2.12.39c-.06-1-.08-1.9,0-2.85.18-3.93,1.73-8,3.37-12.34l.22-.57a12.59,12.59,0,0,0-3.62-14.91c-1.3-1.11-2.62-2.14-4-3.17A10.16,10.16,0,0,0,91.82,33Z" style="fill:#fff"/></svg>