<?xml version="1.0" encoding="utf-8"?>
<!-- Generator: Adobe Illustrator 24.3.0, SVG Export Plug-In . SVG Version: 6.00 Build 0)  -->
<svg version="1.1" id="Layer_8" xmlns="http://www.w3.org/2000/svg" xmlns:xlink="http://www.w3.org/1999/xlink" x="0px" y="0px"
	 viewBox="0 0 252 252" style="enable-background:new 0 0 252 252;" xml:space="preserve">
<style type="text/css">
	.st0{fill:#3F5315;}
	.st1{fill:#F9F3E3;}
	.st2{fill:#53861C;}
	.st3{fill:#8FB752;}
	.st4{fill:#FCFBF5;}
	.st5{fill:#111224;}
</style>
<path class="st0" d="M175.1,190.6c3.9-4.1,4.7-12.5,1.5-16.9c-0.8-1-1.1-2.3-0.6-3.5c1.1-4.6-0.1-8.8-3.1-12.4
	c-0.3-0.4-0.7-0.6-0.6-1.3c0.3-3.3-0.6-6.4-1.5-9.4c-0.8-3-3-5.4-5.9-6.5c-0.5-0.2-1-0.5-1.6-0.7c-0.4-0.1-0.7-0.4-0.8-0.8
	c-0.9-2-2.3-3.6-4.2-4.7c-1.5-1-3.1-1.7-4.5-2.6c-7.4-4.9-15.1-5-23.1-1.6c-1.5,0.6-2.7,1.4-4.4,0.9c-1.1-0.2-2.2,0-3.2,0.5
	c-0.8,0.3-1.7,0.6-2.5,0.8c-3.1,0.8-6,2.4-8.3,4.6c-0.5,0.7-1.4,0.8-2.1,0.4c0,0-0.1-0.1-0.1-0.1l-0.2-0.1c-1.1,0.2-2.3,0.3-3.5,0.3
	l-0.9,0.1c-0.2,0.1-0.5,0.1-0.7,0.2c-0.7,0.2-1.3,0.4-1.9,0.7c-0.9,0.4-1.7,0.9-2.3,1.6c-0.2,0.4-0.5,0.7-0.7,1.1
	c-0.3,0.4-0.6,0.7-1.1,0.9c-0.4,0.6-1,0.9-1.7,1c-0.1,0.1-0.2,0.1-0.3,0.1c-1.8,0.6-3.5,1.3-5.1,2.3c-0.1,0.1-0.2,0.2-0.2,0.3
	c-0.5,0.6-1.3,1.1-2.1,1.3c-0.6,0.5-1.2,0.9-1.8,1.4c-1.6,1.3-3,2.9-4.6,4.4c-1,2.4-2.3,4.6-2.8,7.1c0,0.3,0,0.6,0,1v0.1
	c0,0.7-0.1,1.3-0.4,1.9l0,0c-0.2,0.9-0.5,1.7-0.8,2.6c-1.8,4.7-2.4,9.8-1.6,14.7c0.1,0.3,0.2,0.7,0.3,1c0.2,0.5,0.3,1,0.4,1.4
	c0.2,0.5,0.3,1.1,0.3,1.7c0.1,0.8,0.2,1.7,0.4,2.5c0.5,2.6,1.2,5.1,2.2,7.5c0.2,0.4,0.3,0.7,0.5,1.1l0,0c0.1,0.1,0.1,0.3,0.2,0.4
	l0.2,0.4l1,1.4l0.2,0.2c0.3,0.2,0.5,0.4,0.7,0.7c1.2,1.2,2.4,2.3,3.7,3.4l0.2,0.1c0.3,0.2,0.7,0.5,1,0.7c0.1,0,0.3,0.1,0.4,0.2
	c1.2,0.8,2.6,1.3,4.1,1.6c0.9,0.1,1,0.5,1,1.3c0.1,2.1,0.6,4.2,1.6,6.1c2.9,5.7,7.8,9,13.5,11.5c0.5,0.2,1.1,0.3,1.7,0.2
	c0.6,0,0.8,0.2,1,0.7c0.7,2.1,2.1,4,3.9,5.3c4.4,3.5,9.8,5.4,15.4,5.3c1.8,0.1,3.6-0.4,5.2-1.3c0.6-0.4,1.5-0.4,2.1,0
	c3.1,1.6,6.2,2,9.3,0.2c0.2-0.2,0.5-0.2,0.8-0.1c1.1,0.2,2.3-0.1,3.1-0.9c0.7-0.6,1.6-1,2.5-1.3l0.4-0.3c0.1-0.2,0.4-0.3,0.7-0.3
	c1.2-0.6,2.3-1.4,3.3-2.3c1.6-2.1,3.8-3.5,5.7-5.3c3.9-3.8,6.3-8.3,6.2-13.8c-0.1-2.7,0.3-5,2.3-7c0.7-0.9,1.3-1.9,1.7-3
	c1.1-2.2,1.2-4.7,0.4-7C174.3,192,174.4,191.1,175.1,190.6z M172.1,158.4c0.7,0.7,1.2,1.5,1.7,2.4c1.1,2.8,2,5.6,1.4,8.6
	c-0.2,1.1-0.8,2-1.7,2.6c0.1-4.7-1.6-8.6-3.4-12.5c-0.2-0.5-1.1-1.2-0.6-1.5C170.3,157.5,171.4,157.6,172.1,158.4L172.1,158.4z
	 M161.6,140.8c0.2-0.4,0.6-0.3,0.9-0.2c2.8,1.2,5.7,2.2,6.8,5.5c1.1,3,1.8,6.1,1.9,9.2c0,1.1-0.2,1.6-1.4,1.4
	c-1,0.2-1.2-0.3-1.2-1.2c0.1-1.3,0-2.6-0.3-3.9c-1-2.9-2.5-5.6-4.3-8.1c-0.6-0.8-1.3-1.4-2-2.2C161.9,141.3,161.5,141.1,161.6,140.8
	L161.6,140.8z M161,138.7c-1.4,0.8-2.3-0.3-3.2-0.9c-3.7-2.4-7.7-4.2-12-5.2c-0.1,0-0.1-0.1-0.3-0.3
	C152.1,131.3,158.6,134.4,161,138.7L161,138.7z M131,131.1c5.9-2.9,12.8-3.1,18.9-0.5c0.2,0.1,0.4,0.2,0.8,0.4H148c-2,0-4,0.2-6,0.6
	c-0.7,0.2-1.4,0-2-0.4c-0.1-0.2-0.3-0.5-0.5-0.4c-2.5,0.6-5.1,0.2-7.5,1.1c-1.8,0.7-3.5,1.7-4.9,3.1c-0.1,0.1-0.2,0.4-0.4,0.2
	s0-0.3,0.1-0.5C127.7,133.1,129.2,131.8,131,131.1z M104.4,141c1.1,0.2,0.5-0.4,0.5-0.8l-3.1,0.4c1.8-2.8,6.3-3.6,8.8-1.7
	c0.6,0.1,1.1,0.5,1.7,0c0.5-1.4,1.7-2,2.7-2.7c2.1-1.4,4.6-2.5,7.1-3c1.5-0.3,2.9-1.4,4.6-1c0.9,0.2,0.6,0.5,0.1,0.8
	c-1,1.6-1.6,3.3-2,5.1c-0.1,0.7-0.6,0.9-1.2,0.9c-3.3,0.1-6.3,1.6-8.2,4.3c-0.6,0.9-1.8,1.2-2.8,0.6c-0.3-0.2-0.5-0.4-0.6-0.6
	c-0.7-1.3-2-2.2-3.5-2.4c1.3,0.7,2.4,1.8,3.1,3.1c-1.5-1.2-3.3-1.9-5.2-2c-1.9-0.3-3.8,0.3-5.7,0C101.6,141.2,103,140.8,104.4,141z
	 M81.3,160.1c0.1-2.8,1.3-5.4,3.3-7.3c0-0.2,0.1-0.4,0.3-0.5c2.2-2.6,4.8-4.7,7.8-6.3c3.7-2.2,7.9-3.3,12.1-3.1
	c1.6,0.1,3.3,0,4.9,1.1c-11.2-2.9-23.5,8.2-26.6,16.8c-0.3,0.6-0.9,0.9-1.6,0.7C81,161.2,81.3,160.6,81.3,160.1z M78.6,180.6
	c-1.3-4.6-0.5-9.1,0.9-13.6c0.3-1.5,1-2.9,2-4.1c-0.5,1.8-0.9,3.7-1.4,5.5c0.1,4-0.2,8,0.3,12c0.2,0.8-0.4,1.1-1,1.3
	C78.6,181.8,78.7,181,78.6,180.6z M90.2,201.6c-0.2-0.2-0.5-0.4-0.7-0.6c0,0.3,0,0.6,0,0.8l0.1,0.2l-0.2-0.1
	c-2.4-0.8-3.9-2.7-5.4-4.6c-2.8-3.4-4.5-7.6-4.9-12c-0.1-1-0.6-2.3,1-2.7c0.7-0.6,0.8,0,0.9,0.5c0.7,3.5,2.1,6.9,4,10
	c0.5,1.1,1.2,2.1,2,2.9c0.7,0.7,1,1.7,0.8,2.7l0,0l0.2,0.3c0.5,0.6,0.5,1.6,1.5,1.9c-0.1-1-1-1.8-1.1-3.2c1.2,1.1,2.1,2.4,2.7,3.8
	l1.5,1.6C91.3,203.4,90.7,202.6,90.2,201.6z M108.9,222.3c-5.2-2.6-9.9-5.7-12.5-11.2c-0.6-1.5-1-3-1.2-4.6
	c-0.1-0.4-0.3-1.1,0.2-1.3s0.9,0.1,1.3,0.4c0.9-0.1,1.1,0.7,1.3,1.3c1.4,4.3,4.2,7.9,8,10.3c0.4,0.3,0.7,0.6,0.9,1
	c0.2,0.2,0.3,0.4,0.7,0.4c1.7-0.2,2.1,0.1,2.1,1.7c0,0.4,0,0.9,0,1.3S109.9,222.9,108.9,222.3z M111.6,221.8
	c0.2,0.6-0.2,0.9-0.8,0.9s-0.5-0.5-0.6-0.9c0-0.6,0-1.2,0-1.8c0-0.4-0.5-0.9,0.2-1c0.6-0.1,1.1,0.3,1.3,0.8
	C112.1,220.5,111.6,221.2,111.6,221.8z M133.5,233.3c-2.1-0.7-4.3-0.8-6.3-1.9c-0.1,0.9,0.8,0.8,1,1.3l5,0.9
	c-5.2,1-12.8-1.2-16.8-4.8c-1.2-1.1-2.6-2.1-3.1-3.8c-0.2-0.1-0.3-0.3-0.3-0.6l0,0c-0.8-1.3-0.1-2.7-0.2-4.1
	c0.6,0.2,0.5,0.6,0.6,0.9c1,0.7,1.8,1.6,2.4,2.7c2.5,3.2,5.9,4.9,9.4,6.5c0.7,0.3,1.5,0.4,2.3,0.4c2.6,0.3,5.2,0.9,7.8,1.6
	C134.4,233.6,134.4,233.7,133.5,233.3L133.5,233.3z M136.2,232c-0.3,0.5-0.8,0.3-1.1,0.2c-0.7-0.1-1.4-0.4-2.3-0.7
	c0.9-0.2,1.6-0.4,2.3-0.5c0.4-0.1,0.7-0.3,1,0.2C136.2,231.4,136.4,231.7,136.2,232L136.2,232z M146.8,233.2
	c-2.5,1.8-5.1,1.1-7.6-0.1c-1.9-0.9-2.1-1.4-2.1-3c0.8,0.7,1.1,2,2.4,2c-0.3-0.8-1.2-1.2-1.5-2c-0.1-0.4-0.3-0.7,0.1-1
	s0.6,0,0.9,0.1c1.9,1,4,1.4,6.1,1.2c1.5-0.1,1.8,0.5,1.8,1.7C146.9,232.5,146.8,232.8,146.8,233.2L146.8,233.2z M148.1,230.6
	c-0.3,0.7,0.1,1.5-0.6,2.3c-0.1-0.9-0.2-1.5-0.3-2.2c0-0.3,0.2-0.4,0.4-0.4S148.2,230.4,148.1,230.6z M150.7,232.5
	c-0.5,0.4-1.2,0.4-1.6-0.1c0,0,0,0,0,0c-0.2-0.7-0.1-1.5,0.2-2.1c0.1-0.2,0.5,0,0.5,0.4s-0.5,0.7-0.2,1.3c0.8-0.8,1.2-2.4,2.9-1.4
	C152.2,231.4,151.4,231.9,150.7,232.5L150.7,232.5z M154,230.5l-0.2-0.1c0-0.1,0-0.2,0.1-0.2s0.1,0,0.2,0.1L154,230.5z M150.1,229
	c-0.7-0.2-1.5-0.2-2.2,0c-2.1,0.5-4.3,0.6-6.5,0.1c-1.5-0.3-2.8-0.8-3.1-2.9c-0.8,1-1.6,1.7-2.1,2.5c-0.7,0.9-1.7,1.5-2.9,1.6
	c-7.3,0.7-13-2.3-17.6-7.8c-1-1.2-1.6-2.8-2.6-3.9s-2.8-0.5-4.2-1.1c-4.8-2-8.5-6.1-10-11.1c-0.1-0.8-0.7-1.4-1.5-1.6
	c-1.4-0.4-2.6-1.3-3.6-2.4c-3.5-3.8-7.1-7.5-9.4-12.2c-3.7-7.4-4.6-15.8-2.6-23.8c1.7-6.4,5.4-12.1,10.7-16.1c2.4-2,5.1-3.6,8-4.7
	c2.8-1,5.9-1.1,8.8-0.3c1.1,0.3,2.1-0.4,3.2-0.2c1.7,0.4,2.8-0.2,4-1.7c1.8-2.5,4.9-3.8,8-3.3c0.6,0.1,0.7-0.2,0.9-0.6
	c2.4-5.4,6.7-7.5,12.4-7.1c6.2,0.5,12.2,1.8,17.5,5.2s9.7,7.6,11.6,13.9c0.6,1.8,1.1,3.6,0.2,5.4c-0.2,0.5,0.1,0.7,0.3,1
	c3,3.8,4.6,8.5,4.6,13.3c-0.1,1.9,0.2,3.7,0.8,5.5c1,3.1,1.1,6.4,0.2,9.5c-0.7,2.7-2.1,4.9-5,5.6c2.5,3,2.8,7.2,0.7,10.5
	c-0.4,0.8-1.1,1.4-2,1.8c-1.5,0.4-1.4,1.2-0.8,2.2c0.6,1.3,0.7,2.8,0.1,4.1c-1,3.3-2.5,6.4-4.4,9.3c-1,1.4-2,2.8-3.8,3.2
	c-0.5,0.1-0.5,0.5-0.6,0.8c-0.2,1-0.6,2-1.1,2.9C155.1,228.8,152.5,229.9,150.1,229z M173.8,190.3
	C173.8,190.3,173.8,190.3,173.8,190.3C173.8,190.4,173.7,190.4,173.8,190.3L173.8,190.3z M169.3,203.7c-0.2,1.3-0.4,2.3-1.6,3
	C167.4,205.2,168.1,204.4,169.3,203.7L169.3,203.7z M158.3,227.5c-0.4,0.4-0.8,0.8-1.2,1.1c-0.5,0.6-1.2,1-2,1.1
	c0.7-1.3,1.8-2.2,2.4-3.3c0.3-0.6,0.3,0.3,0.4,0.5C158.3,226.9,158.6,227.1,158.3,227.5L158.3,227.5z M159.3,225.9
	c-0.9,0-0.8-1-1-1.6s0.4-0.7,1-0.9c0.5,0.4,1.4,0.8,1.5,1.4S160,226,159.3,225.9L159.3,225.9z M165.6,220.1c-0.6,0.8-1,1.8-2.1,2
	c0.1,0.2-0.1,0.5-0.3,0.6c-0.4,0.6-0.9,1.1-1.6,1.4c-0.5,0.1-1.1,0.2-1.3-0.5s0.2-0.9,0.5-1.2c2-2.2,3.5-4.7,4.7-7.4l0.3-0.3
	c-0.1-0.3,0-0.6,0.3-0.9c0-0.7,0.3-1.5,0.9-2c-0.1-0.4,0-0.9,0.3-1.3c0-0.4-0.1-0.9,0.5-1.1c-0.4-0.9,0.1-2,1.1-2.3
	c0.1,0,0.2-0.1,0.3-0.1C169.8,211.7,168.5,216.4,165.6,220.1L165.6,220.1z M169.8,204.4c0.3-1.1,0.4-2,0.7-2.8
	c0.9-2.6,0.9-5.5,0-8.1c-0.2-0.6-0.1-0.8,0.6-0.9c2.3-0.5,2.9-0.1,3,2.4C174.2,198.1,172.8,201.3,169.8,204.4L169.8,204.4z
	 M173.8,190.2c0-0.3,0-0.6,0.1-0.8c1.3-4.9,1.1-10.1-0.5-14.9c-0.3-0.9,0.2-1.1,0.7-1.5s0.9,0,1.1,0.4c1.5,1.7,2.3,4,2.3,6.2
	c0.1,2.5-0.3,4.9-1.2,7.2C175.8,188.2,174.9,189.4,173.8,190.2L173.8,190.2z"/>
<path class="st1" d="M168.1,191.7c2.5,3,2.8,7.2,0.7,10.5c-0.4,0.8-1.1,1.4-2,1.8c-1.5,0.4-1.4,1.2-0.8,2.2c0.6,1.3,0.7,2.8,0.1,4.1
	c-1,3.3-2.5,6.4-4.4,9.3c-1,1.4-2,2.8-3.8,3.2c-0.5,0.1-0.5,0.5-0.6,0.8c-0.2,1-0.6,2-1.1,2.9c-1.1,2.2-3.7,3.3-6,2.5
	c-0.7-0.2-1.5-0.2-2.2,0c-2.1,0.5-4.3,0.6-6.5,0.1c-1.5-0.3-2.8-0.8-3.1-2.9c-0.8,1-1.6,1.7-2.1,2.5c-0.7,0.9-1.7,1.5-2.9,1.6
	c-7.3,0.7-13-2.3-17.6-7.8c-1-1.2-1.6-2.8-2.6-3.9s-2.8-0.5-4.2-1.1c-4.8-2-8.5-6.1-10-11.1c-0.1-0.8-0.7-1.4-1.5-1.6
	c-1.4-0.4-2.6-1.3-3.6-2.4c-3.5-3.8-7.1-7.5-9.4-12.2c-3.7-7.4-4.6-15.8-2.6-23.8c1.7-6.4,5.4-12.1,10.7-16.1c2.4-2,5.1-3.6,8-4.7
	c2.8-1,5.9-1.1,8.8-0.3c1.1,0.3,2.1-0.4,3.2-0.2c1.7,0.4,2.8-0.2,4-1.7c1.8-2.5,4.9-3.8,8-3.3c0.6,0.1,0.7-0.2,0.9-0.6
	c2.4-5.4,6.7-7.5,12.4-7.1c6.2,0.5,12.2,1.8,17.5,5.2s9.7,7.6,11.6,13.9c0.6,1.8,1.1,3.6,0.2,5.4c-0.2,0.5,0.1,0.7,0.3,1
	c3,3.8,4.6,8.5,4.6,13.3c-0.1,1.9,0.2,3.7,0.8,5.5c1,3.1,1.1,6.4,0.2,9.5C172.5,188.8,171.1,191,168.1,191.7z M115.6,212.4
	L115.6,212.4c-0.4,1.3-2.1,1.2-2.7,2.4c2.2,0.3,5.1-1,6.8-2.9c3.2-3.5,5.6-7.7,8.6-11.4c0,0-0.1-0.2-0.1-0.2
	c-0.4-0.2-0.7,0.6-1.2,0.1c1.4-2.2,4.2-2.9,5.6-5.1c0.2-0.3,0.6-0.3,0.8-0.1c0,0,0,0,0.1,0.1c0.3,0.3-0.1,0.5-0.2,0.7
	c-0.9,1.5-2,2.9-3.1,4.2c-3.7,4.9-7,10.1-11.5,14.3c-0.8,0.9-1.5,1.9-2,3.1c-0.5,1,0.2,1.6,0.8,2s0.7-0.5,0.9-0.9
	c0.5-0.7,0.8-1.5,1.4-2.1s0.8-1.9,1.9-2.3c0.2,0.4,0,0.5-0.1,0.7c-1,1.5-2,3-2.8,4.6c-0.5,0.7-0.3,1.7,0.3,2.3
	c1.6,1.6,3.5,2.8,5.6,3.8c0.8,0.5,1.8,0.5,2.6-0.1c1.6-0.9,3-2.1,4.2-3.5c0.2-0.2,0.4-0.6,0.7-0.4c0.4,0.3,0,0.6-0.2,0.8
	c-0.9,1.1-2,2-3.2,2.7c-0.5,0.2-1.4,0.6-1.3,1.3s1.1,0.3,1.6,0.5c0.1,0.1,0.3,0.1,0.4,0.1c1.8,0.1,3.6,0.5,5.1-1
	c0.4-0.4,0.5-1.1,1.1-1.4c1.1-0.8,1.7-2.2,1.6-3.6c0-5.6,0-11.3,0-16.9c-0.1-0.8,0.2-1.7,0.7-2.4c-0.6,3.9,0.3,7.5,0.5,11
	c0.1,2.6,0.5,5.1,0.8,7.7c0.1,1,1,1.7,1,2.8c0.1,1,0.6,1.8,1.4,2.3c0.4,0.3,0.9,0.4,1.3,0.1c0.4-0.3,0-0.6-0.1-1
	c-0.4-1-0.5-2.1-0.4-3.2c0.8,1,0.8,2.3,1.2,3.4c0.2,0.7,0.6,1,1.3,0.9l4.2-0.6c0.4-0.1,0.6-0.2,0.4-0.6c-0.2-0.3-0.4-0.5,0-1
	c0.5,0.5,0.9,1.1,1.4,1.6c0.6,0.6,1.3,0.9,2,0c0.9-1,1.5-2.3,1.8-3.6c0.4-0.8,0.1-1.8-0.5-2.4c-3.6-3.5-6.1-7.9-9-12
	c-0.2-0.2-0.3-0.5-0.1-0.8c0.5,0,0.6,0.5,0.9,0.8c1.2,1.6,2.2,3.4,3.5,4.9s3,3,4.5,4.5c0.8,0.7,1.7,1.2,2.6,1.6c1.2,0.6,2-0.1,2.6-1
	s0.5-1.6-0.6-2.1c-0.2-0.1-0.3-0.3-0.2-0.5c0,0,0-0.1,0.1-0.1c0.3-0.1,0.5,0.2,0.7,0.3c0.6,0.3,1.3,0.4,1.7-0.3s-0.3-1-0.7-1.3
	s-0.9-0.6-1-1.3c2.4,1,2.5,1,3.3-1.2c1-2.7,1.8-4.7-2.1-6.6c-1.3-0.6-2.5-1.2-3.9-1.6c-2.2-0.7-4.5-1.4-6.8-1.9
	c-1.7-0.3-3.6-0.5-5-1.8c2.8,0.6,5.7,1.1,8.6,1.4c3.3,0.2,6.6,1,10,1c1.3,0.1,2.5-0.7,3-1.9c0.3-0.5,0.5-1,0.9-1.4
	c-4.1,1-8.2,1.2-12.4,0.8c0.8-0.5,1.7,0.1,2.6-0.1c2.7-0.5,5.5-0.1,8.2-1.1c0.9-0.3,1.4-0.8,1.3-1.5c0-1.2-0.2-2.3-0.7-3.4
	c-0.3-0.7-1.1-1.2-1.9-1.1c-2.6-0.1-5.2-0.3-7.7-0.7c-4.4-0.6-8.8-1.5-13.1-2.7c-1.8-0.5-3.5-1.2-5.1-2.2c0.1-0.3,0.5-0.4,0.8-0.3
	c0,0,0.1,0.1,0.1,0.1c1,0.6,2.1,1,3.3,1.2c6.6,2.1,13.5,3,20.4,2.8c2-0.1,4.1-0.6,5.2-2.3c2.1-3.1,2.1-6.8,1.6-10.5
	c0-0.3-0.4-0.6-0.3-0.9c0.4-1.6-0.5-1.3-1.5-1.2c-1.7,0.3-3.2,1.1-4.8,1.5c-4.4,1-8.8,1.6-13.2,2.1c-2.5,0.3-5,0-7.5,0.4
	c-1.2,0.2-2.5,0.2-3.7-0.2c0.3-0.2,0.4-0.3,0.5-0.3c2.8-0.1,5.6-0.5,8.4-0.8c5-0.5,10.1-1,15-2.4c1.8-0.5,3.5-1.3,5-2.4
	c0.4-0.2,0.6-0.7,0.6-1.1c0-0.3,0-0.6-0.2-0.8s-0.5,0.1-0.7,0.2c-0.6,0.5-1.3,0.9-2,1.4c-0.2,0.2-0.6,0.2-0.7-0.1
	c-0.1-0.2,0-0.4,0.2-0.5c0,0,0.1,0,0.1,0c0.9-0.4,1.7-1,2.4-1.7c1-0.5,1.4-1.8,0.8-2.8c-0.1-0.3-0.3-0.5-0.6-0.7
	c-0.2-0.2-0.6-0.3-0.4-0.6c0.8-2.3-1-4-1.6-5.9c-0.3-1-1.1-1.4-2.2-0.7c-1.3,0.7-2.6,1.2-4,1.6c-3.4,1.2-6.9,1.3-10.3,2.1
	c-4.2,0.9-8.5,1.2-12.8,0.9c-0.3,0-0.7,0.2-0.7-0.6h1.7c1.5,0.1,3,0.1,4.5-0.1c5.6-1,11.3-1.7,16.7-3.7c1.6-0.5,3-1.4,4-2.7
	c-1.8,0.4-3.4,1-5.1,1.5c-0.2,0.1-0.6,0.3-0.7-0.2s0.3-0.4,0.6-0.4c2.1-0.2,3.8-1.2,5.7-2c0.9-0.4,1.3-1.4,0.9-2.3
	c-0.1-0.2-0.2-0.3-0.3-0.4c-0.1-0.1-0.4-0.3-0.4-0.4c0.2-2.6-1.6-4.4-2.8-6.4c-0.6-1.2-2-1.8-3.2-1.3c-1.7,0.6-3.3,1.5-4.7,2.6
	c-2.4,1.7-5,3.2-7.6,4.4c-3.1,1.3-6.4,2.2-9.5,3.4c-1.2,0.4-2.4,0.9-3.8,1.4c0.8-1.5,2.2-1.3,3.1-2.1c1.6-1.1,3.4-1.8,5.3-2.2
	c2.3-0.6,4.5-1.5,6.6-2.6c3.2-1.7,6.1-3.9,8.6-6.6c0.8-0.9,0.5-1.3-0.1-2s-1.1-0.8-1.8,0.2c-1.5,2.2-3.5,4.1-5.8,5.5
	c-0.3,0.2-0.6,0.5-0.9,0.2s0.2-0.7,0.5-0.8c1.9-1,3.5-2.3,4.8-4c1.4-1.6,1.4-1.9-0.4-2.9c-0.3-0.2-0.7-0.4-1-0.6
	c-2.6-1-5.4-1.9-8.1-2.4c-3.9-0.9-8-0.6-11.6,0.9c-0.5,0.2-0.9,0.6-1.2,1c-0.6,0.9-1.2,1.8-1.9,2.6c-1,1.2-1.5,2.8-1.4,4.3
	c0.1,1.6,0.3,3.3,0.6,4.9c0.3,3.1,1.2,6.1,2.6,8.9c0.9,1.7,1.7,3.5,2.3,5.3c0.9,3,1.5,6.1,1.9,9.2c0.6,3.6,1.7,7,2.6,10.5
	c1,4.2,2.1,8.4,3.3,12.5c0.5,0.2,0.4-0.5,0.8-0.5c0.2,0,0.3,0.3,0.2,0.4c-0.2,0.9-0.5,1.7-1,2.4c0.4-1.1-0.3-1.6-0.9-2.2
	c-1.2-1.2-2.2-2.7-3-4.2c-2.8-4.7-5.3-9.5-7.5-14.5c-1.4-3.3-2.6-6.7-3.6-10.2c-0.7-2.5-1.2-5-2.5-7.3c-2.2-3.9-5.3-7.2-7.4-11.1
	c-0.3-0.6-0.9-1-1.6-0.9c-1.5,0.1-2.9,0.1-4.4-0.1c-5.9-1-10.3,1.6-14.4,5.3c-0.7,0.6-1.1,1.2,0.2,1.6c-0.5,0.2-1,0.2-1.5,0
	c-0.7-0.2-1.1,0.3-1.3,0.8c-0.3,0.6,0.3,0.8,0.7,1c1.5,0.8,3.3,1.1,5,1c3.1-0.5,6.2-0.5,9.3,0c2.6,0.6,5.1,1.3,7.7,2
	c0.3,0.1,0.7,0,0.6,0.4c-0.1,0.6-0.5,0.2-0.8,0.2c-3.3-0.4-6.6-1-9.9-1.3c-4.1-0.3-8.2-0.8-12.2-0.1c-1.4,0.2-3.2,0.4-3.9,1.8
	c-1.6,3.2-3.6,6.2-3.5,10c0.1,1.9,0,2.1,1.8,1.3c2.2-1,4.4-1.7,6.7-2.4c3.3-0.8,6.7-1.2,10.1-1.2c2.8-0.1,5.5,0.4,8.2,0.3
	c2.1,0,4.1,0.3,6.1,1c1.2,0.3,2.1,1.1,2.5,2.2c-0.2,0.1-0.3,0.1-0.3,0.1c-0.2,0-0.4-0.1-0.5-0.2c-2.4-1.1-5.1-1.6-7.7-1.4
	c-3.2,0.1-6.4,0.1-9.6,0.2c-3-0.1-5.9,0.3-8.7,1.1c-2.8,0.8-5.5,2.1-7.7,3.9c-1,0.8-0.5,1.8-0.5,2.8s0.9,0.3,1.3,0.7
	c-0.2,0.2-0.4,0.4-0.5,0.7c-0.8,1.6,0.1,3,0.5,4.5c0.3,1.1,1.1-0.5,1.6,0.1c0.1,0.4-0.2,0.6-0.4,0.9c-0.9,1.4,0,2.6,0.7,3.4
	c0.5,0.6,1.8,0,2.6-0.6c2.2-1.7,4.6-3,7.1-3.9c2.6-1,5.3-1.7,8-2.6c3.9-1.2,7.9-2.1,11.9-2.9c1.5-0.2,3.1-0.2,4.6-0.1
	c0.3,0,0.6,0.1,0.6,0.5s-0.4,0.4-0.7,0.4c-1-0.1-1.9,0.3-2.8,0.3c-3-0.1-5.8,0.9-8.7,1.5c-3.2,0.8-6.3,1.8-9.3,3.1
	c-3.5,1.2-6.7,3.2-9.5,5.6c-2.1,2-2.1,2.1-0.2,4.4c0.3,0.4,0.5,0.7,0.8,1.1c0.8-0.2,0.7-1.4,2-1.4c-1.5,1.4-1.2,2.5,0.1,3.5
	c0.1,0.1,0.2,0.2,0.3,0.3c1.5,1.7,1.4,1.7,3.7,0.9c1.4-0.6,3-0.9,4.5-0.8c-2.1,0.6-4.2,1.3-6.3,2.2c1.1,0.5,2.1,0.8,2.9,1.3
	c1.1,0.6,2.4,0.7,3.6,0.2c3.7-1.1,7.4-2.5,10.9-4c5.5-2.4,9.4-6.4,12.6-11.3c0.3-0.4,0.5-1,1.1-1.2c0,0.2,0.1,0.4,0.1,0.5
	c-1.9,4.5-4.5,8.5-8.8,11.1c-3.7,2.2-7.6,3.8-11.7,4.8c-1.7,0.4-3.3,0.8-4.9,1.1c-1,0.2-1.3,0.8-0.8,1.7c1.1,2.2,2,4.4,4,6.1
	c0.6,0.6,1.4,0.7,2.2,0.4c1.3-0.4,2.6-0.6,4-0.9c0,0.5-0.4,0.8-0.9,0.8c-0.9,0.2-1.8,0.4-2.6,0.5c-0.5,0.1-0.8,0.3-0.5,0.9
	s3.2,1.5,3.9,1.2C113.1,213.8,114.2,212.8,115.6,212.4L115.6,212.4z"/>
<path class="st2" d="M84.9,152.2c2.2-2.6,4.8-4.7,7.8-6.2c3.7-2.2,7.9-3.3,12.1-3.1c1.6,0.1,3.3,0,4.9,1.1
	c-11.2-2.9-23.5,8.2-26.6,16.8c-1.2,0-1.4-0.5-1.1-1.6c0.7-2.2,1.6-4.3,2.6-6.4l0,0C84.7,152.6,84.8,152.4,84.9,152.2z"/>
<path class="st2" d="M110.5,138.9c0.6,0.1,1.1,0.5,1.7,0c0.6,0.9,1.2,1.7,1.7,2.6c0.5,0.7,0.9,0.7,1.4,0c0.9-1.3,2-2.4,3.2-3.4
	c1.6-1.3,3.1-2.7,5.2-3.2c0,0.4-0.5,0.9,0.2,1.4c-0.4-0.9,1.3-0.9,0.7-1.9c0.3-0.3,0.5-0.6,0.7-1c0.1-0.4,0.6-0.7,1-0.6
	c0.1,0,0.2,0.1,0.3,0.2c-1,1.6-1.6,3.3-2,5.1c-0.1,0.7-0.6,0.9-1.2,0.9c-3.3,0.1-6.3,1.6-8.2,4.3c-0.6,0.9-1.8,1.2-2.8,0.6
	c-0.3-0.2-0.5-0.4-0.6-0.6c-0.7-1.3-2-2.2-3.5-2.4c1.3,0.7,2.4,1.8,3.1,3.1c-1.5-1.2-3.3-1.9-5.2-2c-1.9-0.3-3.8,0.3-5.7,0
	c1.1-0.7,2.5-1,3.8-0.9c1.1,0.2,0.5-0.4,0.5-0.8c1.3-0.4,2.5-1.4,3.9-1C109.3,139.5,110.1,139.4,110.5,138.9z"/>
<path class="st3" d="M123.8,134.9c-2.1,0.5-3.7,1.9-5.2,3.2c-1.2,1-2.3,2.1-3.2,3.4c-0.5,0.7-0.9,0.7-1.4,0
	c-0.6-0.9-1.2-1.7-1.7-2.6c0.5-1.4,1.7-2,2.7-2.7c2.1-1.4,4.6-2.5,7.1-3c1.5-0.3,2.9-1.4,4.6-1c0.9,0.2,0.6,0.5,0.1,0.8
	c-0.4-0.3-0.9-0.2-1.2,0.1c-0.1,0.1-0.1,0.2-0.2,0.3c-0.2,0.4-0.4,0.7-0.7,1l-0.6,0.3L123.8,134.9L123.8,134.9z"/>
<path class="st2" d="M113.4,221.5c1,0.7,1.8,1.6,2.4,2.7c2.5,3.2,5.9,4.9,9.4,6.5c0.7,0.3,1.5,0.4,2.3,0.4c2.6,0.3,5.2,0.9,7.8,1.6
	c-0.9,0.8-0.9,0.9-1.8,0.6c-2.1-0.7-4.3-0.8-6.3-1.9c-0.1,0.9,0.8,0.8,1,1.3c-1.3-0.1-2.5-0.4-3.7-0.8c-4.2-1.1-7.9-2.9-10.5-6.5
	c-0.1-0.2-0.3-0.3-0.6-0.4l0,0c0-0.2-0.1-0.5-0.3-0.6l0,0C112.9,223.5,113.1,222.5,113.4,221.5z"/>
<path class="st3" d="M168.4,151.7c-1-2.9-2.5-5.6-4.3-8.1c-0.6-0.8-1.3-1.4-2-2.2c-0.2-0.2-0.6-0.4-0.4-0.7s0.6-0.3,0.9-0.2
	c2.8,1.2,5.7,2.2,6.8,5.5c1.1,3,1.8,6.1,1.9,9.2c0,1.1-0.2,1.6-1.4,1.4c-0.2-1.5-0.4-3.1-0.6-4.6
	C169.2,151.4,168.9,151.4,168.4,151.7z"/>
<path class="st2" d="M80.1,161c-0.1,0.7-0.2,1.4-0.3,2.1l0,0c0.3-0.6,0.4-1.3,0.3-1.9L80.1,161z"/>
<path class="st3" d="M173.8,190.3c0-0.3,0-0.6,0.1-0.8c1.3-4.9,1.1-10.1-0.5-14.9c-0.3-0.9,0.2-1.1,0.7-1.5s0.9,0,1.1,0.4
	c1.5,1.7,2.3,4,2.3,6.2c0.1,2.5-0.3,4.9-1.2,7.2C175.8,188.2,174.9,189.4,173.8,190.3L173.8,190.3z M175.2,185.2l0.2-0.3l-0.1-0.1
	C175.3,184.9,175.2,185,175.2,185.2l-0.2,0.2l0.1,0.1L175.2,185.2z"/>
<path class="st2" d="M96.6,205.6c0.9-0.1,1.1,0.7,1.3,1.3c1.4,4.3,4.2,7.9,8,10.3c0.4,0.3,0.7,0.6,0.9,1c0.2,0.2,0.3,0.4,0.7,0.4
	c1.7-0.2,2.1,0.1,2.1,1.7c0,0.4,0,0.9,0,1.3c-0.4-0.3-0.8,0-1.2-0.2c-3-1.8-6.1-3.5-8.2-6.5C98.2,212.1,96.9,208.9,96.6,205.6z"/>
<path class="st3" d="M89.5,201.9c-2.4-0.8-3.9-2.7-5.4-4.6c-2.8-3.4-4.5-7.6-4.9-12c-0.1-1-0.6-2.3,1-2.7c0,0.5,0,1,0.1,1.5
	c1,4.6,2.9,9,5.7,12.8c0.4,0.8,1.1,1.4,1.8,1.9l0,0l0.2,0.3c0.5,0.6,0.5,1.6,1.5,1.9l0,0L89.5,201.9L89.5,201.9z"/>
<path class="st3" d="M173.5,172c0.1-4.7-1.6-8.6-3.4-12.5c-0.2-0.5-1.1-1.2-0.6-1.5c0.8-0.5,1.9-0.4,2.6,0.3
	c0.7,0.7,1.2,1.5,1.7,2.4c1.1,2.8,2,5.6,1.4,8.6C175,170.5,174.4,171.4,173.5,172z"/>
<path class="st3" d="M140,131.3c-0.1-0.2-0.3-0.5-0.5-0.4c-2.5,0.6-5.1,0.2-7.5,1.1c-1.8,0.7-3.5,1.7-4.9,3.1l-0.2-0.2
	c0.9-1.7,2.4-3,4.1-3.7c5.9-2.9,12.8-3.1,18.9-0.5c0.2,0.1,0.4,0.2,0.8,0.4H148c-0.9-0.5-1.9-0.8-2.9-0.8
	C143.3,130.3,141.6,130.7,140,131.3z"/>
<path class="st3" d="M96.6,205.6c0.3,3.3,1.6,6.5,3.6,9.2c2.1,3,5.2,4.7,8.2,6.5c0.4,0.2,0.8-0.1,1.2,0.2c-0.1,0.5,0.3,1.4-0.8,0.8
	c-5.2-2.6-9.9-5.7-12.5-11.2c-0.6-1.5-1-3-1.2-4.6c-0.1-0.4-0.3-1.1,0.2-1.3S96.2,205.3,96.6,205.6z"/>
<path class="st3" d="M145.5,132.3c6.6-1,13.1,2.1,15.6,6.4c-1.4,0.8-2.3-0.3-3.2-0.9c-3.7-2.4-7.7-4.2-12-5.2
	C145.8,132.6,145.7,132.4,145.5,132.3z"/>
<path class="st3" d="M169.8,204.4c0.3-1.1,0.4-2,0.7-2.8c0.9-2.6,0.9-5.5,0-8.1c-0.2-0.6-0.1-0.8,0.6-0.9c2.3-0.5,2.9-0.1,3,2.4
	C174.2,198.1,172.8,201.3,169.8,204.4z"/>
<path class="st2" d="M139.5,232.1c-0.3-0.8-1.2-1.2-1.5-2c-0.1-0.4-0.3-0.7,0.1-1s0.6,0,0.9,0.1c1.9,1,4,1.4,6.1,1.2
	c1.5-0.1,1.8,0.5,1.8,1.7c0,0.3,0,0.7-0.1,1C144.3,234,141.6,233.6,139.5,232.1z"/>
<path class="st2" d="M161.7,224c-0.5,0.1-1.1,0.2-1.3-0.5s0.2-0.9,0.5-1.2c2-2.2,3.5-4.7,4.7-7.4l0.3-0.3l0,0
	c0.3-0.2,0.3-0.5,0.3-0.9l0,0c0.7-0.4,1-1.2,0.9-2l0,0c0.4-0.3,0.2-0.8,0.3-1.3s-0.1-0.9,0.5-1.1c0.1,1,0.1,2,0,2.9
	c-0.6,3.5-2,6.8-4.1,9.6l0,0c-0.2,0.1-0.3,0.3-0.3,0.6l0,0C162.5,222.8,162.1,223.4,161.7,224z"/>
<path class="st3" d="M80.4,180.4c0.2,0.8-0.4,1.1-1,1.3c-0.8,0.2-0.7-0.6-0.8-1.1c-1.3-4.6-0.5-9.1,0.9-13.6c0.3-1.5,1-2.9,2-4.1
	c-0.5,1.8-0.9,3.7-1.4,5.5c-1.2,3.8-1.4,7.8-0.6,11.7C79.7,180.8,80.1,180.5,80.4,180.4z"/>
<path class="st2" d="M87.8,198.8c-0.8-0.4-1.4-1.1-1.8-1.8c-2.8-3.8-4.7-8.2-5.7-12.8c-0.1-0.5-0.1-1-0.1-1.5c0.7-0.6,0.8,0,0.9,0.5
	c0.7,3.5,2.1,6.9,4,10c0.5,1.1,1.2,2.1,2,2.9C87.7,196.8,88,197.8,87.8,198.8z"/>
<path class="st3" d="M113.3,225.2c0.2,0,0.4,0.2,0.6,0.4c2.6,3.6,6.3,5.4,10.5,6.5c1.2,0.4,2.4,0.7,3.7,0.8l5,0.9
	c-5.2,1-12.8-1.2-16.8-4.8C115.2,227.9,113.8,226.9,113.3,225.2z"/>
<path class="st3" d="M163.6,222.1c2.1-2.8,3.5-6.1,4.1-9.6c0.1-1,0.1-2,0-2.9c-0.4-0.9,0.1-2,1.1-2.3c0.1,0,0.2-0.1,0.3-0.1
	c0.7,4.6-0.6,9.3-3.5,13C165.1,220.8,164.7,221.8,163.6,222.1z"/>
<path class="st3" d="M110.5,138.9c-0.5,0.5-1.2,0.6-1.8,0.3c-1.4-0.4-2.7,0.6-3.9,1l-3.1,0.4C103.6,137.8,108.1,136.9,110.5,138.9z"
	/>
<path class="st2" d="M80.4,180.4c-0.3,0.1-0.7,0.4-0.8-0.2c-0.9-3.9-0.7-7.9,0.6-11.7C80.2,172.4,80,176.4,80.4,180.4z"/>
<path class="st3" d="M139.5,232.1c2.1,1.5,4.9,1.8,7.3,1c-2.5,1.8-5.1,1.1-7.6-0.1c-1.9-0.9-2.1-1.4-2.1-3
	C137.9,230.8,138.2,232.1,139.5,232.1z"/>
<path class="st3" d="M84.7,152.8c-1,2.1-1.9,4.2-2.6,6.4c-0.3,1.1-0.1,1.6,1.1,1.6c-0.3,0.6-0.9,0.9-1.6,0.7
	c-0.6-0.2-0.3-0.9-0.3-1.4C81.4,157.3,82.6,154.7,84.7,152.8z"/>
<path class="st2" d="M140,131.3c1.6-0.7,3.4-1,5.1-1c1,0,2,0.3,2.9,0.8c-2,0-4,0.2-6,0.6C141.3,132,140.6,131.8,140,131.3z"/>
<path class="st2" d="M152.5,230.5c-0.4,0.9-1.2,1.4-1.8,2c-0.5,0.4-1.2,0.4-1.6-0.1c0,0,0,0,0,0c-0.2-0.7-0.1-1.5,0.2-2.1
	c0.1-0.2,0.5,0,0.5,0.4s-0.5,0.7-0.2,1.3C150.5,231.1,150.9,229.6,152.5,230.5z"/>
<path class="st2" d="M168.4,151.7c0.5-0.3,0.9-0.4,0.9,0.4c0.1,1.5,0.4,3.1,0.6,4.6c-1,0.2-1.2-0.3-1.2-1.2
	C168.8,154.3,168.7,153,168.4,151.7z"/>
<path class="st2" d="M159.3,223.5c0.5,0.4,1.4,0.8,1.5,1.4s-0.8,1.1-1.4,1.1c-0.9,0-0.8-1-1-1.6S158.8,223.7,159.3,223.5z"/>
<path class="st2" d="M110.2,221.8c0-0.6,0-1.2,0-1.8c0-0.4-0.5-0.9,0.2-1c0.6-0.1,1.1,0.3,1.3,0.8c0.3,0.7-0.2,1.4-0.2,2
	L110.2,221.8z"/>
<path class="st2" d="M90.2,201.6l-0.7-0.6l0,0c-0.1-1-1-1.8-1.1-3.2c1.2,1.1,2.1,2.4,2.7,3.8L90.2,201.6z"/>
<path class="st2" d="M132.8,231.6c0.9-0.2,1.6-0.4,2.3-0.5c0.4-0.1,0.7-0.3,1,0.2c0.1,0.2,0.4,0.5,0.2,0.8c-0.3,0.5-0.8,0.3-1.1,0.2
	C134.4,232.1,133.7,231.8,132.8,231.6z"/>
<path class="st2" d="M157.1,228.6c-0.5,0.6-1.2,1-2,1.1c0.7-1.3,1.8-2.2,2.4-3.3c0.3-0.6,0.3,0.3,0.4,0.5
	C157.7,227.5,156.8,227.7,157.1,228.6z"/>
<path class="st2" d="M167.6,206.6c-0.2-1.4,0.5-2.2,1.6-3C169,204.9,168.9,206,167.6,206.6z"/>
<path class="st3" d="M90.2,201.6l0.9,0.1l1.5,1.6l0,0C91.3,203.4,90.7,202.6,90.2,201.6z"/>
<path class="st2" d="M147.6,232.8c-0.1-0.9-0.2-1.5-0.3-2.2c0-0.3,0.2-0.4,0.4-0.4s0.5,0.2,0.5,0.4
	C147.9,231.2,148.2,232,147.6,232.8z"/>
<path class="st3" d="M113.4,221.5c-0.3,1-0.4,2.1-0.3,3.2c-0.8-1.3-0.1-2.7-0.2-4.1C113.4,220.7,113.3,221.1,113.4,221.5z"/>
<path class="st3" d="M110.2,221.8h1.3c0.2,0.6-0.2,0.9-0.8,0.9S110.3,222.2,110.2,221.8z"/>
<path class="st3" d="M157.1,228.6c-0.3-0.9,0.7-1.1,0.9-1.7c0.4,0.1,0.7,0.2,0.3,0.6C157.9,227.9,157.5,228.2,157.1,228.6z"/>
<path class="st3" d="M167,211.8c0.1,0.8-0.2,1.6-0.9,2C166.2,213.1,166.5,212.4,167,211.8z"/>
<path class="st3" d="M161.7,224c0.4-0.6,0.8-1.2,1.6-1.4C162.9,223.3,162.4,223.8,161.7,224z"/>
<path class="st3" d="M167.3,210.6c-0.1,0.4,0.1,0.9-0.3,1.3C166.9,211.4,167,210.9,167.3,210.6z"/>
<path class="st2" d="M154,230.5l-0.2-0.1c0-0.1,0-0.2,0.1-0.2s0.1,0,0.2,0.1S154,230.4,154,230.5z"/>
<path class="st3" d="M166.1,213.8c0,0.3,0,0.6-0.3,0.9C165.8,214.4,165.9,214,166.1,213.8z"/>
<path class="st3" d="M84.9,152.2c-0.1,0.2-0.2,0.4-0.3,0.5C84.6,152.6,84.7,152.3,84.9,152.2z"/>
<path class="st3" d="M127.1,135.1c-0.1,0.1-0.2,0.4-0.4,0.2s0-0.3,0.1-0.5L127.1,135.1z"/>
<path class="st3" d="M163.3,222.6c0-0.2,0.1-0.5,0.3-0.6C163.7,222.3,163.5,222.5,163.3,222.6z"/>
<path class="st3" d="M113,224.6c0.2,0.1,0.3,0.3,0.3,0.6C113.1,225.1,113,224.8,113,224.6z"/>
<path class="st1" d="M154.5,231.4l-0.4,0.3L154.5,231.4z"/>
<path class="st3" d="M173.8,190.3c0,0,0,0.1-0.1,0.1c0,0-0.1,0-0.1,0L173.8,190.3L173.8,190.3z"/>
<path class="st2" d="M88,199.1l-0.2-0.3L88,199.1z"/>
<path class="st3" d="M89.5,201.9l0.1,0.2L89.5,201.9L89.5,201.9z"/>
<path class="st3" d="M165.9,214.7l-0.3,0.3L165.9,214.7z"/>
<polygon class="st3" points="92.6,203.3 92.7,203.4 92.6,203.3 "/>
<path class="st4" d="M116.8,210.4c-1.4,0.4-2.5,1.4-3.8,2c-0.8,0.3-3.6-0.5-3.9-1.2s0-0.8,0.5-0.9c0.9-0.2,1.8-0.4,2.6-0.5
	c0.5,0,0.8-0.3,0.9-0.8c-1.4,0.3-2.7,0.5-4,0.9c-0.7,0.3-1.6,0.1-2.2-0.4c-2-1.6-2.9-3.9-4-6.1c-0.5-0.9-0.2-1.5,0.8-1.7
	c1.7-0.4,3.3-0.8,4.9-1.1c4.1-1,8.1-2.6,11.7-4.8c4.3-2.6,6.9-6.6,8.9-11.1c0-0.1,0-0.3-0.1-0.5c-0.6,0.2-0.8,0.8-1.1,1.2
	c-3.2,4.9-7.2,8.9-12.6,11.3c-3.6,1.5-7.2,2.9-10.9,4c-1.2,0.4-2.5,0.3-3.6-0.2c-0.9-0.5-1.8-0.8-2.9-1.3c2.1-0.8,4.1-1.6,6.3-2.2
	c-1.5-0.1-3.1,0.2-4.5,0.8c-2.2,0.7-2.2,0.8-3.7-0.9c-0.1-0.1-0.2-0.2-0.3-0.3c-1.3-1-1.6-2.1-0.1-3.5c-1.3,0-1.2,1.2-2,1.4
	c-0.2-0.4-0.5-0.8-0.8-1.1c-1.8-2.2-1.9-2.4,0.2-4.4c2.8-2.5,6-4.4,9.5-5.6c3-1.3,6.1-2.3,9.3-3.1c2.9-0.6,5.7-1.6,8.7-1.5
	c0.9,0,1.8-0.4,2.8-0.3c0.3,0,0.6,0,0.7-0.4s-0.3-0.5-0.6-0.5c-1.5-0.1-3.1-0.1-4.6,0.1c-4,0.9-8,1.7-11.9,2.9
	c-2.7,0.8-5.4,1.6-8,2.6c-2.6,0.9-5,2.3-7.2,3.9c-0.8,0.7-2.1,1.2-2.6,0.6c-0.7-0.8-1.6-2-0.7-3.4c0.2-0.3,0.5-0.5,0.4-0.9
	c-0.5-0.6-1.2,1.1-1.6-0.1c-0.4-1.4-1.3-2.9-0.5-4.5c0.2-0.3,0.3-0.5,0.5-0.7c-0.4-0.4-1.4,0.2-1.3-0.7s-0.4-2,0.5-2.8
	c2.3-1.8,4.9-3.2,7.8-3.9c2.9-0.8,5.9-1.2,8.9-1.2c3.2-0.1,6.4-0.2,9.6-0.2c2.6-0.1,5.3,0.4,7.7,1.4c0.2,0.1,0.4,0.1,0.5,0.2
	c0.1,0,0.2-0.1,0.3-0.1c-0.4-1.1-1.3-2-2.5-2.2c-2-0.7-4-1-6.1-1c-2.7,0.1-5.4-0.4-8.2-0.3c-3.4,0-6.8,0.4-10.1,1.2
	c-2.3,0.6-4.5,1.4-6.7,2.4c-1.8,0.8-1.8,0.6-1.8-1.3c-0.2-3.8,1.9-6.8,3.5-10c0.7-1.5,2.5-1.6,3.9-1.8c4.1-0.7,8.2-0.1,12.2,0.1
	c3.3,0.2,6.6,0.9,9.9,1.3c0.3,0,0.7,0.4,0.8-0.2c0-0.4-0.3-0.4-0.6-0.4c-2.6-0.6-5.1-1.4-7.7-2c-3.1-0.5-6.2-0.5-9.3,0
	c-1.7,0.1-3.5-0.2-5-1c-0.4-0.2-1-0.3-0.7-1c0.2-0.5,0.6-1,1.3-0.8c0.5,0.2,1,0.2,1.5,0c-1.3-0.5-0.9-1-0.2-1.6
	c4.1-3.7,8.5-6.3,14.4-5.3c1.5,0.2,2.9,0.2,4.4,0.1c0.7-0.1,1.3,0.3,1.6,0.9c2.1,3.9,5.2,7.2,7.4,11.1c1.3,2.3,1.8,4.8,2.5,7.3
	c1,3.5,2.2,6.9,3.6,10.2c2.2,5,4.7,9.8,7.5,14.5c0.8,1.6,1.8,3,3,4.2c0.6,0.6,1.3,1.1,0.9,2.2c0.5-0.7,0.8-1.5,1-2.4
	c0-0.2,0-0.4-0.2-0.4c-0.4-0.1-0.2,0.6-0.8,0.5c-1.2-4.1-2.3-8.3-3.3-12.5c-0.9-3.5-2-7-2.6-10.5c-0.3-3.1-1-6.2-1.9-9.2
	c-0.6-1.8-1.4-3.6-2.3-5.3c-1.4-2.8-2.2-5.8-2.6-8.9c-0.3-1.6-0.5-3.3-0.6-4.9c-0.1-1.6,0.4-3.1,1.4-4.3c0.7-0.8,1.3-1.8,1.9-2.6
	c0.3-0.4,0.7-0.8,1.2-1c3.7-1.5,7.8-1.8,11.6-0.9c2.8,0.6,5.5,1.4,8.1,2.4c0.3,0.2,0.7,0.4,1,0.6c1.8,1,1.8,1.3,0.4,2.9
	c-1.3,1.7-2.9,3-4.8,4c-0.3,0.1-0.8,0.4-0.5,0.8s0.6,0,0.9-0.2c2.3-1.4,4.3-3.3,5.8-5.5c0.6-1,1.1-0.8,1.8-0.2s1,1,0.1,2
	c-2.5,2.6-5.4,4.8-8.6,6.6c-2.1,1.1-4.3,2-6.6,2.6c-1.9,0.4-3.7,1.2-5.3,2.2c-0.9,0.7-2.3,0.6-3.1,2.1c1.5-0.5,2.6-1,3.8-1.4
	c3.1-1.2,6.4-2.1,9.5-3.4c2.7-1.2,5.2-2.7,7.6-4.4c1.4-1.1,3-2,4.7-2.6c1.2-0.5,2.6,0.1,3.2,1.3c1.2,2,3,3.8,2.8,6.4
	c0,0.1,0.3,0.2,0.4,0.4c0.6,0.8,0.5,1.9-0.2,2.5c-0.1,0.1-0.3,0.2-0.4,0.3c-1.9,0.8-3.6,1.8-5.7,2c-0.3,0-0.6,0.1-0.6,0.4
	s0.4,0.3,0.7,0.2c1.7-0.5,3.4-1.1,5.1-1.5c-1,1.3-2.4,2.2-4,2.7c-5.4,2-11.1,2.8-16.7,3.7c-1.5,0.1-3,0.2-4.5,0.1H137
	c0,0.7,0.5,0.6,0.7,0.6c4.3,0.3,8.6,0,12.8-0.9c3.4-0.8,7-0.9,10.3-2.1c1.4-0.4,2.7-1,4-1.6c1.1-0.6,1.9-0.3,2.2,0.7
	c0.6,2,2.4,3.6,1.6,5.9c-0.1,0.3,0.2,0.4,0.4,0.6c0.9,0.7,1.1,2,0.4,2.9c-0.2,0.2-0.4,0.4-0.7,0.6c-0.7,0.7-1.5,1.2-2.4,1.7
	c-0.2,0-0.4,0.2-0.3,0.4c0,0,0,0.1,0,0.1c0.2,0.3,0.5,0.3,0.7,0.1c0.7-0.4,1.3-0.9,2-1.4c0.2-0.2,0.5-0.5,0.7-0.2s0.1,0.5,0.2,0.8
	c0,0.4-0.2,0.8-0.6,1.1c-1.5,1.1-3.2,2-5,2.4c-4.9,1.4-9.9,1.8-15,2.4c-2.8,0.3-5.6,0.7-8.4,0.8c-0.1,0-0.2,0.1-0.5,0.3
	c1.2,0.4,2.5,0.4,3.7,0.2c2.5-0.5,5-0.1,7.5-0.4c4.4-0.4,8.9-1.1,13.2-2.1c1.6-0.4,3.1-1.3,4.8-1.5c1-0.2,1.9-0.4,1.5,1.2
	c-0.1,0.3,0.2,0.6,0.3,0.9c0.5,3.6,0.5,7.3-1.6,10.5c-1.1,1.7-3.3,2.2-5.2,2.3c-6.9,0.3-13.8-0.6-20.4-2.6c-1.2-0.2-2.3-0.6-3.3-1.2
	c-0.3-0.2-0.6-0.2-0.8,0.1c0,0-0.1,0.1-0.1,0.1c1.6,0.9,3.3,1.7,5.1,2.2c4.3,1.2,8.6,2.2,13.1,2.7c2.6,0.4,5.1,0.6,7.7,0.7
	c0.8,0,1.6,0.4,1.9,1.1c0.4,1.1,0.7,2.3,0.7,3.4c0.1,0.7-0.4,1.2-1.3,1.5c-2.7,0.9-5.5,0.5-8.2,1.1c-0.9,0.2-1.7-0.4-2.6,0.1
	c4.1,0.4,8.3,0.2,12.4-0.8c-0.3,0.5-0.6,0.9-0.9,1.4c-0.5,1.2-1.7,1.9-3,1.9c-3.4,0-6.6-0.8-10-1c-2.9-0.3-5.8-0.8-8.6-1.4
	c1.4,1.3,3.3,1.5,5,1.8c2.3,0.5,4.5,1.1,6.8,1.9c1.3,0.4,2.6,1,3.9,1.6c3.9,1.9,3.1,3.9,2.1,6.6c-0.8,2.2-0.9,2.1-3.3,1.2
	c0.1,0.7,0.6,0.9,1,1.3s1.1,0.6,0.7,1.3s-1.1,0.6-1.7,0.3c-0.2-0.1-0.4-0.4-0.7-0.3c-0.1,0.1-0.2,0.4,0,0.5c0,0,0.1,0.1,0.1,0.1
	c1.1,0.4,1.2,1.2,0.6,2.1s-1.5,1.6-2.6,1c-1-0.4-1.8-1-2.6-1.6c-1.5-1.5-3.1-2.9-4.5-4.5s-2.3-3.3-3.5-4.9c-0.2-0.3-0.3-0.8-0.9-0.8
	c-0.3,0.3-0.1,0.5,0.1,0.8c2.9,4.1,5.3,8.5,9,12c0.7,0.6,0.9,1.6,0.5,2.4c-0.3,1.3-0.9,2.6-1.8,3.6c-0.8,0.8-1.4,0.6-2,0
	c-0.5-0.5-0.9-1-1.4-1.6c-0.4,0.5-0.1,0.7,0,1c0.3,0.4,0.1,0.6-0.4,0.6l-4.2,0.6c-0.7,0.1-1.1-0.2-1.3-0.9c-0.4-1.1-0.3-2.3-1.2-3.4
	c-0.1,1.1,0,2.2,0.4,3.2c0.1,0.3,0.6,0.7,0.1,1c-0.4,0.3-1,0.2-1.3-0.1c-0.8-0.5-1.3-1.4-1.4-2.3c0-1.1-0.9-1.8-1-2.8
	c-0.3-2.6-0.7-5.1-0.8-7.7c-0.1-3.6-1-7.1-0.5-11c-0.5,0.7-0.8,1.5-0.7,2.4c0,5.6,0,11.3,0,16.9c0.2,1.4-0.4,2.7-1.6,3.6
	c-0.6,0.4-0.6,1-1.1,1.4c-1.5,1.4-3.3,1.1-5.1,1c-0.2,0-0.4,0-0.6-0.1c-0.5-0.2-1.4,0.2-1.6-0.5c-0.1-0.8,0.8-1.1,1.3-1.3
	c1.2-0.7,2.3-1.6,3.2-2.7c0.2-0.2,0.6-0.5,0.2-0.8c-0.3-0.2-0.5,0.1-0.7,0.4c-1.2,1.4-2.7,2.5-4.2,3.5c-0.7,0.6-1.8,0.7-2.6,0.1
	c-2.1-0.9-3.9-2.2-5.6-3.8c-0.7-0.6-0.8-1.5-0.3-2.3c0.8-1.6,1.7-3.1,2.8-4.6c0.1-0.2,0.4-0.3,0.1-0.7c-1,0.4-1.3,1.5-1.9,2.3
	s-0.9,1.5-1.4,2.1c-0.3,0.3-0.3,1.3-0.9,0.9s-1.3-1.1-0.8-2c0.5-1.1,1.2-2.2,2-3.1c4.5-4.2,7.8-9.4,11.5-14.3
	c1.2-1.3,2.2-2.7,3.1-4.2c0.1-0.2,0.5-0.4,0.2-0.7c-0.2-0.2-0.6-0.2-0.8,0c0,0,0,0-0.1,0.1c-1.4,2.2-4.2,2.9-5.6,5.1
	c0.5,0.6,0.7-0.3,1.1-0.1c0,0.1,0.1,0.2,0.1,0.2c-3,3.7-5.4,7.8-8.6,11.4c-1.8,1.9-4.6,3.2-6.8,2.9
	C114.6,211.7,116.4,211.8,116.8,210.4c0.8,0.1,1.6-0.5,1.7-1.3c0.9-0.3,1.5-1.1,1.6-2.1c-0.7,0.6-1.5,1.1-1.6,2.1
	C117.6,209.1,117.2,209.8,116.8,210.4z M128.4,212.4l-0.4,0.4c-0.9,0.9-1.5,2.2-1.6,3.5c-0.1,1.2,0.7,2.2,1.9,2.4
	c0.5,0.1,1-0.1,1.5-0.4c2.9-2.2,4.1-5.3,4.6-8.8c0.1-0.9-0.5-1.4-1.5-0.8c-1.6,0.9-3,2-4.1,3.4L128.4,212.4z M103,159.5L103,159.5
	c-1.4-0.5-2.9-0.6-4.3-0.2c-1.1,0.2-1.8,1.1-1.8,2.2c-0.1,1,0.6,2,1.6,2.2c3,0.8,6.3,0.6,9.2-0.6c1.2-0.5,1.2-1.2,0.1-1.9
	C106.3,160.4,104.7,159.8,103,159.5L103,159.5z M117.1,184.6c-1.2,0-2.4,0.1-3.6,0.4c-2.7,0.5-5.3,1.2-7.4,3.2c-1.2,1-1.6,2.6-0.8,4
	c0.6,1.4,2.2,2.2,3.7,1.8c4.3-1,8.2-3.3,11.1-6.7c0.6-0.5,0.8-1.2,0.6-1.9c-0.3-0.9-1.2-0.7-1.8-0.7
	C118.3,184.5,117.9,184.5,117.1,184.6L117.1,184.6z M157.6,186.1c1.1,0,2.3-0.1,3.4-0.5c1.2-0.4,2-1.4,2.1-2.6
	c0.3-1.3-0.4-2.6-1.6-3.2c-2.2-0.9-4.5-1.8-6.7,0c-0.5,0.4-1.2,0.7-1.8,0.7c-1.8,0.1-3.4,0.6-5.2,0.8c-0.6,0.1-1.2,0.1-1.4,0.7
	s0.2,1.2,0.7,1.6c0.8,0.6,1.6,1,2.5,1.2C152.2,185.6,154.9,186.1,157.6,186.1L157.6,186.1z M145.2,138.3c-1.6,0.2-3.2,0.7-4.5,1.6
	c-0.8,0.5-1.7,0.8-1.4,2.1c0.1,0.4-0.3,0.9-0.6,1.2c-0.7,1.1-1.7,1.9-2.8,2.5c-0.4,0.2-1,0.5-0.3,1c0.9,0.7,1.9,1.4,2.9,1.2
	c3.4-0.7,6.7-1.6,9.3-4.1c1.1-0.9,1.4-2.4,0.8-3.6C148,138.9,146.7,138.1,145.2,138.3z M147.8,157c1.1-0.5,2.2,0,3.4-0.4
	c2.2-0.7,4.5-0.9,6.6-1.9c2-0.8,4-1.7,5.9-2.6c0.2-0.1,0.4-0.3,0.3-0.6s-0.4-0.2-0.6-0.1s-0.5,0.3-0.7,0.4
	c-3.6,1.9-7.4,3.3-11.3,4.1c-1.1,0.2-2.2,0.2-3.4,0.2c-0.3,0-0.6,0.1-0.6,0.5S147.6,157,147.8,157z M133.3,223.9
	c2.8-1.6,4.3-11.2,2.3-14.3C136,214.6,136.2,219.5,133.3,223.9L133.3,223.9z M151.6,191.8c2.3,2.2,9.9,3.4,12.4,1.9
	C159.5,193.8,155.4,193.8,151.6,191.8L151.6,191.8z M102.9,154.1v-0.2h-6.4v0.2H102.9z M127.7,199.3c-0.9,0.3-1.6,1.1-1.8,2.1
	C127,200.9,127.2,200,127.7,199.3L127.7,199.3z M89.5,176.3c-0.8,0.1-1.5,0.6-1.8,1.3C88.5,177.6,89.2,177.1,89.5,176.3z M125.2,202
	c-1.2,0.5-1.3,0.6-1.3,1.6C124.4,203.2,125,202.8,125.2,202z M91.2,175.7c0-0.3-0.2-0.4-0.4-0.3c-0.3,0.1-0.8,0.2-0.8,0.6
	s0.2,0.4,0.4,0.3S91.1,176.1,91.2,175.7z M159.9,209.7l-0.3-0.3c-0.1,0.1-0.2,0.2-0.2,0.3s0.1,0.2,0.2,0.3L159.9,209.7z"/>
<path class="st0" d="M124.1,134.6l0.6-0.3c0.7,1-1,1-0.7,1.9c-0.7-0.5-0.3-0.9-0.2-1.4l0,0L124.1,134.6z"/>
<path class="st2" d="M124.1,134.6l-0.3,0.3L124.1,134.6z"/>
<path class="st0" d="M175.2,185.1l0.1-0.4l0.1,0.1L175.2,185.1L175.2,185.1z"/>
<path class="st0" d="M175.2,185.2l-0.1,0.4l-0.1-0.1L175.2,185.2L175.2,185.2z"/>
<path class="st5" d="M115.9,186.5c0.8,0,1.2,0,1.7,0c0.7,0,1.5-0.1,1.8,0.7c0.2,0.7,0,1.5-0.6,1.9c-2.9,3.3-6.8,5.7-11.1,6.7
	c-1.5,0.4-3-0.3-3.7-1.8c-0.7-1.4-0.4-3,0.8-4c2.1-2,4.7-2.7,7.4-3.2C113.5,186.6,114.7,186.5,115.9,186.5z M112.2,187.7
	c-2.2,0.3-4.3,1.2-6,2.7c-0.5,0.5-0.9,1.1-0.3,1.9c0.1,0.1,0.3,0.2,0.5,0.2c0.1,0,0.3-0.1,0.3-0.3c0,0,0-0.1,0-0.1
	c-0.5-0.9,0.3-1.3,0.8-1.7c1.5-1.1,3.2-1.7,5-1.9c0.3,0,0.8,0,0.8-0.4S112.6,187.8,112.2,187.7z"/>
<path class="st5" d="M156.5,188.1c-2.7,0-5.5-0.5-8.1-1.3c-0.9-0.3-1.8-0.7-2.5-1.2c-0.5-0.4-1-0.9-0.7-1.6s0.8-0.7,1.4-0.7
	c1.7-0.1,3.4-0.7,5.2-0.8c0.7,0,1.3-0.3,1.8-0.7c2.3-1.8,4.5-0.9,6.7,0c1.2,0.6,1.9,1.9,1.6,3.2c-0.1,1.2-0.9,2.3-2.1,2.6
	C158.7,188,157.6,188.1,156.5,188.1z M160.2,184.6c0.5-1.3,0.1-1.8-0.6-2.2c-1-0.6-2.3-0.7-3.4-0.4c-0.3,0.1-0.9,0-0.9,0.5
	s0.6,0.2,0.9,0.2C157.8,182.5,159.4,182.4,160.2,184.6L160.2,184.6z"/>
<path class="st5" d="M144.1,140.3c1.4-0.2,2.8,0.7,3.4,2c0.6,1.2,0.3,2.7-0.8,3.6c-2.6,2.5-5.9,3.4-9.3,4.1c-1,0.2-2.1-0.6-2.9-1.2
	c-0.6-0.5-0.1-0.8,0.3-1c1.1-0.6,2.1-1.5,2.8-2.5c0.3-0.4,0.7-0.8,0.6-1.2c-0.4-1.3,0.6-1.6,1.4-2.1
	C140.9,141.1,142.5,140.5,144.1,140.3z M144.3,141.2c-1.2,0-2.3,0.4-3.2,1.1c-0.3,0.2-0.9,0.5-0.6,0.9s0.7-0.1,1-0.3
	c1-0.7,2.1-1.3,3.4-0.8c0.3,0.1,0.5,0.8,0.9,0.2s-0.2-0.8-0.6-1C144.9,141.3,144.6,141.2,144.3,141.2z"/>
<path class="st5" d="M127.5,214.1c1.1-1.4,2.5-2.5,4.1-3.4c1-0.6,1.6-0.1,1.5,0.8c-0.5,3.4-1.7,6.6-4.6,8.8c-1,0.7-2.3,0.4-3-0.5
	c-0.3-0.4-0.4-0.9-0.4-1.5c0.1-1.3,0.7-2.6,1.6-3.5l0.2,0.2c-0.3,0.6-0.6,1.2-0.9,1.9c-0.3,0.5-0.3,1.1,0.1,1.6
	c0.2,0.2,0.4,0.3,0.6,0.2c0.1-0.1,0.2-0.2,0.2-0.3c-1-1.7,0.6-2.5,1.2-3.6c0.3-0.6,1.5-0.9,1-1.4s-1,0.6-1.6,0.9L127.5,214.1z"/>
<path class="st5" d="M117.3,200.7c1.7-0.7,3.4-1,5.2-1.1c1.2-0.1,1.5,0.7,0.9,1.4c-2,2.8-4.6,5-8.1,5.6c-1.2,0.1-2.2-0.7-2.4-1.9
	c-0.1-0.5,0.1-1,0.4-1.5c0.7-1.1,1.8-2,3.1-2.4l0.1,0.3c-0.6,0.4-1.2,0.8-1.7,1.3c-0.5,0.3-0.8,0.9-0.6,1.5c0,0.2,0.2,0.4,0.5,0.5
	c0.1,0,0.3-0.1,0.3-0.1c-0.1-1.9,1.7-1.9,2.7-2.7c0.5-0.4,1.7-0.1,1.5-0.7c-0.2-0.6-1.2,0.1-1.8,0L117.3,200.7z"/>
<path class="st5" d="M102.9,175.7c1.8-0.2,3.6,0,5.3,0.5c1.1,0.3,1.2,1.1,0.5,1.6c-2.7,2.1-5.8,3.5-9.4,3.1
	c-1.2-0.2-1.9-1.3-1.7-2.5c0.1-0.5,0.4-1,0.8-1.3c1-0.9,2.3-1.4,3.6-1.4l0,0.3c-0.7,0.2-1.3,0.4-2,0.7c-0.6,0.1-1,0.6-1,1.2
	c0,0.2,0.1,0.5,0.3,0.6c0.1,0,0.3,0,0.4,0c0.5-1.9,2.1-1.4,3.4-1.8c0.6-0.2,1.7,0.4,1.7-0.3c0-0.7-1.1-0.3-1.8-0.5L102.9,175.7z"/>
<path class="st5" d="M101.8,161.4c1.7,0.3,3.3,0.9,4.7,1.8c1.1,0.6,1.1,1.4-0.1,1.9c-2.9,1.2-6.1,1.4-9.2,0.6
	c-1-0.2-1.7-1.2-1.6-2.2c0-1.1,0.8-2,1.8-2.2C99,160.9,100.5,161,101.8,161.4c-0.9,0.5-1.8,0-2.7,0.2c-0.7,0.1-1.4,0.1-1.8,0.9
	c-0.2,0.2-0.1,0.6,0.1,0.8c0.3,0.2,0.5,0.1,0.6-0.3c0.2-0.6,0.7-0.6,1.2-0.6c1.2-0.1,2.4,0,3.5,0.4c0.3,0.1,0.6,0.2,0.7-0.1
	s-0.2-0.4-0.4-0.6S101.8,162.2,101.8,161.4z"/>
<path class="st1" d="M146.6,159c-0.2,0-0.5,0-0.5-0.3s0.3-0.4,0.6-0.5c1.1-0.1,2.2-0.1,3.4-0.2c4-0.8,7.8-2.2,11.4-4.1
	c0.2-0.1,0.5-0.3,0.7-0.4s0.5-0.2,0.6,0.1s-0.1,0.4-0.3,0.6c-1.9,1-3.9,1.9-5.9,2.6c-2.1,0.9-4.4,1.2-6.6,1.9
	C148.9,158.9,147.7,158.5,146.6,159z"/>
<path class="st1" d="M132.1,225.8c2.9-4.4,2.6-9.2,2.3-14.3C136.5,214.6,134.9,224.2,132.1,225.8z"/>
<path class="st1" d="M150.4,193.8c3.8,2,7.9,2,12.4,1.9C160.4,197.2,152.8,196,150.4,193.8z"/>
<path class="st1" d="M101.8,156.1h-6.4v-0.2h6.4L101.8,156.1z"/>
<path class="st1" d="M126.5,201.2c-0.4,0.7-0.7,1.6-1.8,2.1C124.9,202.3,125.6,201.5,126.5,201.2z"/>
<path class="st1" d="M117.3,211c0.1-1,0.9-1.5,1.6-2.1C118.8,209.9,118.2,210.7,117.3,211z"/>
<path class="st1" d="M88.4,178.3c-0.3,0.7-1,1.3-1.8,1.3C86.9,178.9,87.6,178.4,88.4,178.3z"/>
<path class="st1" d="M124,204c-0.2,0.8-0.8,1.1-1.3,1.6C122.8,204.6,122.8,204.5,124,204z"/>
<path class="st1" d="M90,177.6c-0.1,0.4-0.4,0.5-0.8,0.6s-0.5,0-0.4-0.3s0.5-0.5,0.8-0.6C89.8,177.3,90,177.4,90,177.6z"/>
<path class="st1" d="M117.3,211c-0.1,0.8-0.9,1.5-1.7,1.4l0,0C116.1,211.8,116.5,211.1,117.3,211z"/>
<path class="st1" d="M158.8,211.7l-0.3,0.3c-0.1-0.1-0.2-0.2-0.2-0.3s0.1-0.2,0.2-0.3L158.8,211.7z"/>
<path class="st5" d="M126.8,214.8l0.4-0.4l0.2,0.2L127,215L126.8,214.8z"/>
<path class="st5" d="M127.2,214.4l0.3-0.3l0.2,0.2l-0.2,0.3L127.2,214.4z"/>
<path class="st1" d="M112.2,187.7c0.4,0,0.9-0.1,0.9,0.4s-0.5,0.4-0.8,0.4c-1.8,0.2-3.5,0.9-5,1.9c-0.5,0.4-1.3,0.7-0.8,1.7
	c0.1,0.1,0,0.3-0.1,0.4c0,0-0.1,0-0.1,0c-0.2,0-0.4-0.1-0.5-0.2c-0.6-0.7-0.2-1.4,0.3-1.9C107.8,189,109.9,188,112.2,187.7z"/>
<path class="st1" d="M160.2,184.6c-0.8-2.2-2.4-2.1-4-1.9c-0.3,0-0.8,0.4-0.9-0.2s0.5-0.5,0.9-0.5c1.2-0.3,2.4-0.1,3.4,0.4
	C160.3,182.8,160.7,183.3,160.2,184.6z"/>
<path class="st1" d="M144.3,141.2c0.3,0.1,0.6,0.1,0.9,0.3c0.4,0.2,0.8,0.5,0.6,1s-0.6-0.1-0.9-0.2c-1.3-0.5-2.3,0.1-3.4,0.8
	c-0.3,0.2-0.6,0.9-1,0.3s0.3-0.7,0.6-0.9C142,141.6,143.1,141.2,144.3,141.2z"/>
<path class="st1" d="M127.4,214.6l0.2-0.3c0.6-0.3,1-1.5,1.6-0.9s-0.7,0.8-1,1.4c-0.6,1.1-2.2,2-1.2,3.6c0,0-0.1,0.2-0.2,0.3
	c-0.2,0.1-0.5,0-0.6-0.2c-0.4-0.4-0.4-1.1-0.1-1.6c0.3-0.6,0.6-1.3,0.9-1.9L127.4,214.6z"/>
<path class="st1" d="M101.8,161.4c0,0.7,0.7,0.4,1,0.7s0.6,0.2,0.4,0.6s-0.4,0.2-0.7,0.1c-1.1-0.4-2.3-0.6-3.5-0.4
	c-0.4,0-1,0-1.2,0.6c-0.1,0.4-0.3,0.5-0.6,0.3c-0.2-0.2-0.3-0.5-0.1-0.8c0.4-0.7,1.1-0.7,1.8-0.9C100,161.4,100.9,162,101.8,161.4
	L101.8,161.4z"/>
<path class="st5" d="M147.3,154.9c-0.1,0.2-0.5,0.4-0.3,0.7c0.2,0.3,0.5,0.1,0.7-0.1c0.9-0.7,2-1.2,3.2-1.4c0.4-0.1,0.9-0.3,1.3,0.2
	c0.2,0.3,0.4,0.4,0.6,0.1c0.2-0.2,0.1-0.6-0.1-0.8c-0.6-0.6-1.3-0.4-2-0.3c-0.9,0.1-1.7,0.9-2.6,0.7c1.2-0.9,2.6-1.4,4.1-1.4
	c1.1-0.1,2.1,0.5,2.4,1.6c0.4,1,0,2.1-0.9,2.6c-2.7,1.7-5.8,2.4-8.9,2.1c-1.3-0.1-1.5-0.8-0.6-1.8c1.1-1.3,2.5-2.3,4-3.1
	C148.3,154.7,147.4,154.7,147.3,154.9z"/>
<path class="st5" d="M149.5,168.1c-0.2,0.2-0.6,0.2-0.5,0.6c0.1,0.3,0.4,0.3,0.7,0.2c1.1-0.4,2.3-0.5,3.5-0.3c0.5,0,1,0,1.1,0.6
	c0.1,0.4,0.3,0.5,0.6,0.3c0.2-0.2,0.3-0.5,0.1-0.8c-0.4-0.7-1.1-0.8-1.8-0.9c-0.9-0.2-1.9,0.3-2.7-0.2c1.4-0.5,2.9-0.4,4.3,0
	c1.1,0.2,1.8,1.2,1.7,2.3c0,1.1-0.7,2-1.7,2.1c-3.1,0.7-6.3,0.4-9.2-1c-1.2-0.5-1.1-1.3,0-1.9c1.5-0.8,3.1-1.3,4.8-1.6
	C150.5,168.2,149.7,167.9,149.5,168.1z"/>
<path class="st5" d="M151.6,202c-0.2,0.1-0.6,0.1-0.6,0.4c0,0.4,0.4,0.3,0.7,0.3c1.2-0.1,2.4,0,3.5,0.5c0.4,0.1,1,0.2,1,0.9
	c0,0.4,0.1,0.6,0.5,0.4c0.3-0.1,0.4-0.4,0.3-0.7c-0.2-0.8-0.9-1-1.6-1.3c-0.9-0.4-1.9-0.1-2.6-0.8c1.5-0.1,3,0.2,4.2,0.9
	c1,0.5,1.5,1.6,1.2,2.6c-0.2,1-1.1,1.8-2.2,1.7c-3.2,0-6.2-1-8.7-2.9c-1.1-0.8-0.8-1.5,0.4-1.9c1.6-0.5,3.4-0.7,5.1-0.5
	C152.6,202.3,151.9,201.9,151.6,202z"/>
</svg>
