<svg xmlns="http://www.w3.org/2000/svg" xmlns:xlink="http://www.w3.org/1999/xlink" viewBox="0 0 252 252"><defs><style>.cls-1,.cls-2{fill:none;}.cls-2{stroke:#758a00;stroke-linecap:round;stroke-miterlimit:10;stroke-width:0.38px;}.cls-3{fill:#778718;}.cls-4{fill:#688419;}.cls-5{fill:#f5f7b2;}.cls-10,.cls-6{fill:#fff;}.cls-14,.cls-6{opacity:0.49;}.cls-7{fill:#872823;}.cls-8{fill:#660c11;}.cls-9{fill:#ffffa7;opacity:0.18;}.cls-10{opacity:0.35;}.cls-11{fill:#8ba226;}.cls-12,.cls-13{fill:#b8d124;}.cls-12{opacity:0.71;}.cls-14{fill:#516b11;}.cls-15{fill:#4a660c;}.cls-16{fill:#8c6743;}.cls-17{fill:#75512e;}.cls-18{fill:#c6a178;}.cls-19{opacity:0.5;fill:url(#Motivo_nuevo_2);}</style><pattern id="Motivo_nuevo_2" data-name="Motivo nuevo 2" width="10" height="10" patternTransform="matrix(-0.78, -0.69, -0.67, 0.76, 94.79, -42.85)" patternUnits="userSpaceOnUse" viewBox="0 0 10 10"><rect class="cls-1" width="10" height="10"/><path class="cls-2" d="M1.82,10.11l.08.17"/><path class="cls-2" d="M3.5,10.15l0,0"/><path class="cls-2" d="M10.14,4.55l0-.09"/><path class="cls-2" d="M2.94,4.36l.58.21"/><path class="cls-2" d="M6.69,1.39l0,.29"/><path class="cls-2" d="M8.72,4.49l0,.08"/><path class="cls-2" d="M6.41,8,6.25,8"/><path class="cls-2" d="M2.53,8.66l-.13,0"/><path class="cls-2" d="M1.36,6.48l-.09-.12"/><path class="cls-2" d="M.87,1.47.79,1.31"/><path class="cls-2" d="M3.56,1.8l.08-.12"/><path class="cls-2" d="M8.43,2.09H8.6"/><path class="cls-2" d="M8.52,7.71l.08.08"/><path class="cls-2" d="M8.31,9.49l0,.25"/><path class="cls-2" d="M5.09,6.76l.08,0"/><path class="cls-2" d="M5.87,4.74l.09,0"/><path class="cls-2" d="M1.2,3.83H1"/><path class="cls-2" d="M.5,8.78.3,9"/><path class="cls-2" d="M4.39,9.61v.33"/><path class="cls-2" d="M1.82.11,1.9.28"/><path class="cls-2" d="M5,3l-.09.17"/><path class="cls-2" d="M3.31,6.64l.08,0"/><path class="cls-2" d="M7,6,7,6.06"/><path class="cls-2" d="M7.15,3.7l.13.13"/><path class="cls-2" d="M9.13.71v0"/><path class="cls-2" d="M9.56,2.63v0"/><path class="cls-2" d="M7.56,5.35s0,0,0,0"/><path class="cls-2" d="M7.39.79h0"/><path class="cls-2" d="M9.18,6.34h.08"/><path class="cls-2" d="M9.6,8h.17"/><path class="cls-2" d="M5.81,9.62l0,0"/><path class="cls-2" d="M4.31,8.34h.13"/><path class="cls-2" d="M2,7.53l0,0"/><path class="cls-2" d="M.44,5.92l.08,0"/><path class="cls-2" d="M.14,4.55l0-.09"/><path class="cls-2" d="M2,5.31H2"/><path class="cls-2" d="M2,3h.08"/><path class="cls-2" d="M2.44,1.26l0-.13"/><path class="cls-2" d="M3.5.15l0,0"/><path class="cls-2" d="M5,1.69l0-.13"/><path class="cls-2" d="M3.68,3.14l0,0"/><path class="cls-2" d="M4.4,5.19h.13"/><path class="cls-2" d="M6.23,2.76l-.08-.09"/><path class="cls-2" d="M5.67.92s-.07,0,0,0"/><path class="cls-2" d="M7.39,7.74l.08,0"/><path class="cls-2" d="M7.34,9.28l.09.09"/><path class="cls-2" d="M4.39-.39v.33"/></pattern></defs><g id="Layer_46" data-name="Layer 46"><path class="cls-3" d="M168,211.76c22-24.38,7.49-47.87,7.49-47.87-6.72-11.08-18.71-16.55-18.71-16.55-.6-.6-1.21-1.14-1.83-1.66-.36-.31-.72-.62-1.09-.92-19.71-15.71-46.24-1.43-46.24-1.43C74.94,166.05,77.27,195.55,77,203.87a26.57,26.57,0,0,0,1.86,8.42C112,242.48,153,221.38,168,211.76Z"/><path class="cls-4" d="M78.88,212.29a47,47,0,0,0,4.62,9.36,41.6,41.6,0,0,0,6.66,8c10.35,9.56,27.67,14.63,54.91-.45,10.23-5.66,17.62-11.58,22.91-17.46C153,221.38,112,242.48,78.88,212.29Z"/><path class="cls-5" d="M168.3,162.55c-5.54-9.51-16-13.89-16-13.89-.51-.5-1-.95-1.55-1.39-.31-.26-.62-.52-.94-.77-16.86-13.11-40.86.43-40.86.43C79.27,168.13,80.26,194,79.74,201.35c-.19,2.56,1.18,9.14,5.07,15.42a32.1,32.1,0,0,0,5.61,6.82c8.8,8,23.94,11.87,48.59-2.4C186.7,193.58,168.3,162.55,168.3,162.55Z"/><circle class="cls-6" cx="150.96" cy="161.37" r="2.28"/><circle class="cls-6" cx="130.5" cy="171.4" r="2.28"/><circle class="cls-6" cx="112.11" cy="213.57" r="2.28"/><circle class="cls-6" cx="94.33" cy="179.23" r="2.28"/><circle class="cls-6" cx="100.22" cy="208.69" r="2.28"/><circle class="cls-6" cx="116.35" cy="180.65" r="1.77"/><circle class="cls-6" cx="107.98" cy="167.06" r="1.77"/><circle class="cls-6" cx="123.08" cy="164.99" r="1.77"/><circle class="cls-6" cx="119.13" cy="152.82" r="1.77"/><circle class="cls-6" cx="90.69" cy="195.3" r="1.77"/><circle class="cls-6" cx="112.89" cy="196.26" r="1.02"/><circle class="cls-6" cx="99.32" cy="187.75" r="1.02"/><circle class="cls-6" cx="113.69" cy="189.04" r="1.02"/><circle class="cls-6" cx="99.12" cy="216.26" r="1.02"/><circle class="cls-6" cx="108.73" cy="221.12" r="1.02"/><circle class="cls-6" cx="92.58" cy="210.82" r="1.02"/><circle class="cls-6" cx="104.08" cy="173.93" r="1.02"/><circle class="cls-6" cx="137.21" cy="156.17" r="1.02"/><path class="cls-7" d="M134.49,190c2.89-6,3.6-16.57,1.29-19.32-1.12-1.34-16.15-2.4-23.46,7.25-4.06,5.37-6.52,12.63-4.17,20A2.65,2.65,0,0,0,110,199.9C120,203.29,130.54,198.24,134.49,190Z"/><path class="cls-8" d="M134.49,190c3.48-6.84,6.07-15.62,1.29-19.32a3.24,3.24,0,0,0-1.24-.52,4.24,4.24,0,0,1,1.58,2.49c.44,4.43-1.61,11-3.66,15.25-3.53,7.35-12.64,12.85-21.59,11.38a4.33,4.33,0,0,1-2.77-1.46s0,.1.05.15A2.65,2.65,0,0,0,110,199.9,20.34,20.34,0,0,0,134.49,190Z"/><path class="cls-9" d="M127.41,177.11c.64-2.82-1.27-5-4.14-4.5a20.1,20.1,0,0,0-11.1,7.06,19.57,19.57,0,0,0-4.26,11.78c-.12,3.26,2.26,4.91,5.26,4.2C119.37,194.19,126.93,179.26,127.41,177.11Z"/><path class="cls-10" d="M110.92,190.58a3.34,3.34,0,0,0,1-.93,7,7,0,0,0,.76-2.1,8,8,0,0,1,.54-1.76c.31-.59.7-.9.59-1.66a1.22,1.22,0,0,0-1.13-1.08c-1.42,0-2,1.64-2.22,2.83a11.9,11.9,0,0,0-.22,2.61,14.34,14.34,0,0,1,.08,1.72.41.41,0,0,0,.62.37Z"/><path class="cls-10" d="M114.91,182.57a2.66,2.66,0,0,0,1.11-.63.89.89,0,0,0,0-1.16.91.91,0,0,0-1.14-.29,1.94,1.94,0,0,0-.83,1.11.73.73,0,0,0,.85,1Z"/></g><g id="Layer_45" data-name="Layer 45"><path class="cls-3" d="M84.87,202.56c30.58-62.43,57.47-61.24,68.39-57.25C133.55,129.6,107,143.88,107,143.88c-32.66,22.71-30.33,52.22-30.57,60.53-.09,2.91,1.77,10.45,6.47,17.78C80.62,212.66,84.87,202.56,84.87,202.56Z"/><path class="cls-11" d="M174.89,164.43c-6.71-11.07-18.71-16.55-18.71-16.55-.6-.59-1.21-1.13-1.82-1.66-7.69.52-26,4.28-42.44,26.94-21.34,29.34-26.64,48.12-22.33,57.05,10.35,9.56,27.66,14.64,54.9-.44C197.18,200.6,174.89,164.43,174.89,164.43Z"/><path class="cls-11" d="M111.92,173.16c16.47-22.66,34.75-26.42,42.44-26.94-.37-.31-.73-.62-1.1-.91-10.92-4-37.81-5.18-68.39,57.25,0,0-4.25,10.1-2,19.63a40.72,40.72,0,0,0,6.67,8C85.28,221.28,90.58,202.5,111.92,173.16Z"/><path class="cls-12" d="M155.77,196.52c-1.13,11.27,14.69,4.86,13.82-7.52S157.13,182.94,155.77,196.52Z"/><path class="cls-13" d="M165.64,170.5c-2.75-4.79-7.24,2.25-3.38,6.91S169,176.28,165.64,170.5Z"/><circle class="cls-14" cx="145.24" cy="164.14" r="2.13"/><circle class="cls-14" cx="126.15" cy="173.5" r="2.13"/><circle class="cls-14" cx="108.97" cy="212.87" r="2.13"/><circle class="cls-14" cx="92.38" cy="180.82" r="2.13"/><circle class="cls-14" cx="97.87" cy="208.32" r="2.13"/><circle class="cls-14" cx="112.93" cy="182.13" r="1.65"/><circle class="cls-14" cx="105.11" cy="169.45" r="1.65"/><circle class="cls-14" cx="119.22" cy="167.52" r="1.65"/><circle class="cls-14" cx="115.53" cy="156.16" r="1.65"/><circle class="cls-14" cx="88.97" cy="195.81" r="1.65"/><circle class="cls-14" cx="109.7" cy="196.72" r="0.95"/><circle class="cls-14" cx="97.04" cy="188.77" r="0.95"/><circle class="cls-14" cx="110.45" cy="189.97" r="0.95"/><circle class="cls-14" cx="96.84" cy="215.38" r="0.95"/><circle class="cls-14" cx="105.82" cy="219.92" r="0.95"/><circle class="cls-14" cx="90.74" cy="210.3" r="0.95"/><circle class="cls-14" cx="101.48" cy="175.86" r="0.95"/><circle class="cls-14" cx="132.41" cy="159.28" r="0.95"/><ellipse class="cls-15" cx="155.45" cy="150.81" rx="2.43" ry="4.16" transform="translate(-60.65 165.26) rotate(-47.96)"/><path class="cls-16" d="M159.31,144.49a36.24,36.24,0,0,1-5.57,5.54l.31.28.45.38a5.19,5.19,0,0,0,.45.37,9.34,9.34,0,0,0,1.1.65c.26.12.52.23.78.32a19,19,0,0,0,4.14-4.21,29.36,29.36,0,0,0,3.51-5.73,36.35,36.35,0,0,0,2.51-7l.22,0a1,1,0,0,0,.91-.78,6.77,6.77,0,0,0,0-1.35.91.91,0,0,0-.95-.89,4.46,4.46,0,0,1-2.42-.75,1,1,0,0,0-1.31.31c-1,1.18-.69,1.35-.25,2.55s-.82,4.29-1.34,5.54A26.51,26.51,0,0,1,159.31,144.49Z"/><path class="cls-17" d="M166,134.83a37.32,37.32,0,0,1-2.52,7,29.36,29.36,0,0,1-3.51,5.73,19.78,19.78,0,0,1-4,4.12l0,0c.26.12.52.23.78.32a19,19,0,0,0,4.14-4.21,29.36,29.36,0,0,0,3.51-5.73,36.35,36.35,0,0,0,2.51-7l.22,0a1,1,0,0,0,.91-.78,6.77,6.77,0,0,0,0-1.35.91.91,0,0,0-.95-.89h-.28a.9.9,0,0,1,.27.63,6.77,6.77,0,0,1,0,1.35,1,1,0,0,1-.91.78Z"/><path class="cls-18" d="M163.79,132.57a4.45,4.45,0,0,0,1.87,1Z"/><path class="cls-18" d="M163.46,132.83l0-.34a.43.43,0,0,0,0,.44,3.87,3.87,0,0,0,1.94,1.19c.65.26,1.06-.8.41-1.06-.3-.12-.61-.22-.91-.35s-.54-.35-.84-.46-.82.19-.65.58Z"/><path class="cls-19" d="M169,157.32c15.58,10,10.51,42.21,1.81,50.37-5.44,8.51-11.06,9.79-18.66,16.12-10.59,8.83-16.13,10.33-26.28,12.87-8.33,2.08-15.76,2.72-23.55.54-2.61-.73-13.9-9.81-15.94-11.59-6.56-5.74-8.48-12.62-8.88-21.2A71.64,71.64,0,0,1,81,179.24c1.25-4.55,2.32-8.28,5.25-12.32,13.59-18.66,14.86-21.74,35-27.9,23-7.05,42.22,13.41,42.22,13.41"/></g></svg>