<svg xmlns="http://www.w3.org/2000/svg" xmlns:xlink="http://www.w3.org/1999/xlink" viewBox="0 0 252 252"><defs><style>.cls-1{mask:url(#mask);filter:url(#luminosity-noclip-3);}.cls-2,.cls-4{mix-blend-mode:multiply;}.cls-2{fill:url(#linear-gradient);}.cls-3{mask:url(#mask-2);filter:url(#luminosity-noclip-4);}.cls-4{fill:url(#linear-gradient-2);}.cls-5{fill:#c15905;}.cls-6{fill:url(#radial-gradient);}.cls-7{fill:#ad2d2a;}.cls-8{fill:#d7df23;opacity:0.3;}.cls-9{fill:#7d2609;}.cls-12,.cls-15,.cls-17,.cls-9{opacity:0.5;}.cls-10{fill:url(#radial-gradient-2);}.cls-11{fill:#521906;}.cls-12{fill:#7b2509;}.cls-13{fill:url(#linear-gradient-3);}.cls-14{mask:url(#mask-3);}.cls-15{fill:url(#linear-gradient-4);}.cls-16{mask:url(#mask-4);}.cls-17{fill:url(#linear-gradient-5);}.cls-18{fill:#d35f00;}.cls-19{fill:#efae2e;}.cls-19,.cls-24{opacity:0.43;}.cls-20{fill:url(#linear-gradient-6);}.cls-21{fill:url(#linear-gradient-7);}.cls-22{fill:url(#linear-gradient-8);}.cls-23{fill:#9f3c1b;opacity:0.4;}.cls-25{fill:#f4ad31;opacity:0.49;}.cls-26{filter:url(#luminosity-noclip-2);}.cls-27{filter:url(#luminosity-noclip);}</style><filter id="luminosity-noclip" x="79.72" y="-8317" width="51.72" height="32766" filterUnits="userSpaceOnUse" color-interpolation-filters="sRGB"><feFlood flood-color="#fff" result="bg"/><feBlend in="SourceGraphic" in2="bg"/></filter><mask id="mask" x="79.72" y="-8317" width="51.72" height="32766" maskUnits="userSpaceOnUse"><g class="cls-27"/></mask><linearGradient id="linear-gradient" x1="115.4" y1="132.78" x2="76.27" y2="183.41" gradientUnits="userSpaceOnUse"><stop offset="0"/><stop offset="0.5" stop-color="#fff"/><stop offset="1"/></linearGradient><filter id="luminosity-noclip-2" x="109.19" y="-8317" width="60.63" height="32766" filterUnits="userSpaceOnUse" color-interpolation-filters="sRGB"><feFlood flood-color="#fff" result="bg"/><feBlend in="SourceGraphic" in2="bg"/></filter><mask id="mask-2" x="109.19" y="-8317" width="60.63" height="32766" maskUnits="userSpaceOnUse"><g class="cls-26"/></mask><linearGradient id="linear-gradient-2" x1="1585.92" y1="-520.07" x2="1546.79" y2="-469.45" gradientTransform="translate(1779.44 4.19) rotate(-169.58)" xlink:href="#linear-gradient"/><radialGradient id="radial-gradient" cx="127.07" cy="179.43" r="53.01" gradientUnits="userSpaceOnUse"><stop offset="0" stop-color="#fcc066"/><stop offset="1" stop-color="#ffd129"/></radialGradient><radialGradient id="radial-gradient-2" cx="113.97" cy="166.8" r="59.04" gradientUnits="userSpaceOnUse"><stop offset="0" stop-color="#9f3c1b"/><stop offset="0.19" stop-color="#9b3a1a"/><stop offset="0.4" stop-color="#8e3416"/><stop offset="0.61" stop-color="#792b11"/><stop offset="0.82" stop-color="#5c1d09"/><stop offset="0.88" stop-color="#521906"/></radialGradient><linearGradient id="linear-gradient-3" x1="85.66" y1="146.18" x2="240.57" y2="278.28" gradientUnits="userSpaceOnUse"><stop offset="0" stop-color="#f7941e"/><stop offset="1" stop-color="#f22a42"/></linearGradient><filter id="luminosity-noclip-3" x="79.72" y="127.92" width="51.72" height="64.55" filterUnits="userSpaceOnUse" color-interpolation-filters="sRGB"><feFlood flood-color="#fff" result="bg"/><feBlend in="SourceGraphic" in2="bg"/></filter><mask id="mask-3" x="79.72" y="127.92" width="51.72" height="64.55" maskUnits="userSpaceOnUse"><g class="cls-1"><path class="cls-2" d="M131.16,128.63c-6.4-1.92-13,.39-18.86,3.11a68.05,68.05,0,0,0-18.6,12.79c-5.9,5.82-10.76,12.67-12.5,20.88-1.7,8.05-2.54,19.2.92,26.89a.32.32,0,0,0,.61-.12c0-8.58.37-16,4.72-23.68a90.27,90.27,0,0,1,12.38-16.82c4.16-4.45,8.51-8.67,13-12.75,5-4.5,11.07-9.55,18.13-9.47C131.46,129.47,131.64,128.77,131.16,128.63Z"/></g></mask><linearGradient id="linear-gradient-4" x1="115.4" y1="132.78" x2="76.27" y2="183.41" gradientUnits="userSpaceOnUse"><stop offset="0" stop-color="#fff"/><stop offset="0.5" stop-color="#fff"/><stop offset="1" stop-color="#fff"/></linearGradient><filter id="luminosity-noclip-4" x="109.19" y="176.2" width="60.63" height="55.92" filterUnits="userSpaceOnUse" color-interpolation-filters="sRGB"><feFlood flood-color="#fff" result="bg"/><feBlend in="SourceGraphic" in2="bg"/></filter><mask id="mask-4" x="109.19" y="176.2" width="60.63" height="55.92" maskUnits="userSpaceOnUse"><g class="cls-3"><path class="cls-4" d="M109.41,230.19c5.94,3,12.91,2,19.1.34a68.07,68.07,0,0,0,20.62-9.21C156,216.66,162,210.8,165.19,203c3.13-7.61,6-18.42,4-26.61a.32.32,0,0,0-.62,0c-1.6,8.43-3.26,15.66-8.93,22.43a89.66,89.66,0,0,1-15.21,14.31c-4.89,3.62-9.94,7-15.12,10.18-5.7,3.53-12.62,7.4-19.54,6C109.26,229.31,109,230,109.41,230.19Z"/></g></mask><linearGradient id="linear-gradient-5" x1="1585.92" y1="-520.07" x2="1546.79" y2="-469.45" gradientTransform="translate(1779.44 4.19) rotate(-169.58)" xlink:href="#linear-gradient-4"/><linearGradient id="linear-gradient-6" x1="1.74" y1="86.41" x2="10.27" y2="86.41" gradientTransform="matrix(0.8, 0.6, -0.6, 0.8, 206.29, 63.26)" gradientUnits="userSpaceOnUse"><stop offset="0" stop-color="#8d9308"/><stop offset="1" stop-color="#816c37"/></linearGradient><linearGradient id="linear-gradient-7" x1="5.13" y1="85.06" x2="13.69" y2="85.06" xlink:href="#linear-gradient-6"/><linearGradient id="linear-gradient-8" x1="-1.34" y1="86.85" x2="4.24" y2="86.85" xlink:href="#linear-gradient-6"/></defs><g id="Layer_34" data-name="Layer 34"><path class="cls-5" d="M181.74,180.91a61.73,61.73,0,0,1-6.89,18.25,74.82,74.82,0,0,1-15.78,19.47C146.09,229.79,127.2,236,111,234a64.83,64.83,0,0,0,13,3.63,64,64,0,0,0,18.43-.4c13.26-2.12,23.31-8.87,31.2-19.68,7.75-10.62,11.73-22.64,11.06-35.86a85.44,85.44,0,0,0-2.23-15.42A49.48,49.48,0,0,1,181.74,180.91Z"/><path class="cls-6" d="M124,231.85c19.4-2,36.88-13.8,47.12-30.62,6.25-10.27,9.67-22.24,9.34-33.6-.31-10.74-4.78-23.92-14.8-28.91-3.68-1.83-6.86-1.41-11-1.44-6.84-.06-10.1-5.05-15.36-7.81-7.29-3.82-16-3.1-24-.16a57.9,57.9,0,0,0-11.91,6.14,72.32,72.32,0,0,0-18.84,17.64c-11.4,15.81-14.34,35.77-6.41,52a46.33,46.33,0,0,0,8.58,12.22c2.95,3,4.67,7,7.74,9.86,2.89,2.64,6.77,2.12,10.66,2.69C111.47,230.75,117.35,232.56,124,231.85ZM106.2,210.78c-.79-14.86-4-30.14,3.56-43.92,4.93-9,13.92-15.83,23.62-14.1a2.65,2.65,0,0,1,3,.42c6,1.52,10.12,8.62,11.68,14.11,2.13,7.47.32,15.34-3,22.16a27.61,27.61,0,0,1-15.78,13.88c-7.29,2.71-15.1,4.16-21.79,8.27C106.81,212,106.23,211.34,106.2,210.78Z"/><path class="cls-7" d="M140.8,192.41c3.95-6,7-14.08,5.8-21.43a23.16,23.16,0,0,0-7.2-13.51,38.61,38.61,0,0,1,3.38,11.46c.45,14.52-9,24.67-21.67,30.23-.18.08-.37-.18-.2-.3,4.44-3,9.54-5.48,12.91-9.77s6.09-9.69,6.62-15.26a27.34,27.34,0,0,0-1.2-12.12c-1.1-3-2.9-8.08-6.88-7.69a.2.2,0,0,1-.16-.35l0,0c-10.81-.22-20,9.29-23.42,19.63-3.93,12-1.78,23.92-1,36.15C118.56,203.45,133.57,203.46,140.8,192.41Zm-8.12-14.58a11.16,11.16,0,0,1,.09-1.42.88.88,0,0,1,1.32-.44c1.55,1,.06,3.65-.79,4.65-.67.79-2.17,2.79-3.4,2.56a0,0,0,0,1,0-.07A14.56,14.56,0,0,0,132,180,9.57,9.57,0,0,0,132.68,177.83Zm-3.41-13a.54.54,0,0,1,.56.29c.65,1.22-.71,2.79-1.32,3.81-.84,1.4-2.15,2.39-3.16,3.68,0,0,0,0,0,0a21.89,21.89,0,0,1,1.67-4.7C127.55,166.91,128,165.16,129.27,164.88Zm-6.61-2.83a16.48,16.48,0,0,1,1.82-2.29.85.85,0,0,1,1.4,1,18.65,18.65,0,0,1-1.73,2c-.55.66-1.25,1.08-1.62,1.88-.06.13-.3.16-.31,0A4.27,4.27,0,0,1,122.66,162.05Zm-11.6,24.32a5.67,5.67,0,0,1-.44-3.78,9.78,9.78,0,0,1,1.47-4,.42.42,0,0,1,.74.15c.48,2.6-1.13,5.18-1.73,7.62Zm1.13,13.45s-.08,0-.07,0a31.14,31.14,0,0,1,1.07-4.66c.19-.7.07-3,1.42-2.48a.86.86,0,0,1,.59.67C115.42,196.16,113.31,197.53,112.19,199.82Zm6.29-33.13a13.53,13.53,0,0,1-1.84,2.63,10.62,10.62,0,0,0-1.73,3.08.07.07,0,0,1-.13,0c-.16-2.25.51-5.44,2.72-6.57C118,165.56,118.74,166.12,118.48,166.69Zm.85,9.76c-.78-1.21-.47-2.73-.24-4.08.17-1,.48-2.91,1.46-3.38a.48.48,0,0,1,.58.12c.81.79.08,2.34-.31,3.19-.62,1.32-1.45,2.57-1.31,4.09A.1.1,0,0,1,119.33,176.45Zm.29,10.94c.55-.75,1.14-1.55,1.75-2.25s1.4-1.26,2-2,.85-1.87,1.43-2.73a.85.85,0,0,1,1.2-.23.89.89,0,0,1,.38.77,7.17,7.17,0,0,1-2.4,4.17c-1.25,1.15-2.76,1.61-4.24,2.39A.08.08,0,0,1,119.62,187.39Z"/><path class="cls-8" d="M110.48,183.92a5.38,5.38,0,0,1,.14-1.33,9.78,9.78,0,0,1,1.47-4,.42.42,0,0,1,.74.15,5.58,5.58,0,0,1,.07,1.47c.68-1,1.37-1.95,2-2.88,1.31-1.79,2.73-3.49,4.18-5.17.17-1,.5-2.74,1.42-3.18a.48.48,0,0,1,.58.12,1.4,1.4,0,0,1,.13.18,50.44,50.44,0,0,1,4.34-5c.12-.18.26-.35.39-.53,1.09-1.54,2.91-3.88,2.69-5.91a6.25,6.25,0,0,0-2.09-3.41c-8.28,2.45-15,10.35-17.77,18.83a52.67,52.67,0,0,0-2.27,17.82A70.76,70.76,0,0,1,110.48,183.92Zm12.18-21.87a16.48,16.48,0,0,1,1.82-2.29.85.85,0,0,1,1.4,1,18.65,18.65,0,0,1-1.73,2c-.55.66-1.25,1.08-1.62,1.88-.06.13-.3.16-.31,0A4.27,4.27,0,0,1,122.66,162.05Zm-5.16,3.77c.51-.26,1.24.3,1,.87a13.53,13.53,0,0,1-1.84,2.63,10.62,10.62,0,0,0-1.73,3.08.07.07,0,0,1-.13,0C114.62,170.14,115.29,167,117.5,165.82Z"/><path class="cls-9" d="M146.6,171a23.16,23.16,0,0,0-7.2-13.51,38.61,38.61,0,0,1,3.38,11.46c.45,14.52-9,24.67-21.67,30.23-.18.08-.37-.18-.2-.3,4.44-3,9.54-5.48,12.91-9.77s6.09-9.69,6.62-15.26a27.34,27.34,0,0,0-1.2-12.12c-1-2.66-2.52-7-5.65-7.62,13,14.43-1,39.21-18.32,46.23q-3.64,4.31-7,8.85c10.72-5.72,25.42-5.86,32.55-16.76C144.75,186.36,147.81,178.33,146.6,171Z"/><path class="cls-10" d="M145,189.45c3.36-6.82,5.17-14.69,3-22.16-1.56-5.49-5.73-12.59-11.68-14.11a2.65,2.65,0,0,0-3-.42c-9.7-1.73-18.69,5.14-23.62,14.1-7.6,13.78-4.35,29.06-3.56,43.92,0,.56.61,1.19,1.22.82,6.69-4.11,14.5-5.56,21.79-8.27A27.61,27.61,0,0,0,145,189.45Zm-36.17-16.19c3.4-10.34,12.61-19.85,23.42-19.63l0,0a.2.2,0,0,0,.16.35c4-.39,5.78,4.71,6.88,7.69a27.34,27.34,0,0,1,1.2,12.12c-.53,5.57-3.2,10.92-6.62,15.26s-8.47,6.8-12.91,9.77c-.17.12,0,.38.2.3,12.67-5.56,22.12-15.71,21.67-30.23a38.61,38.61,0,0,0-3.38-11.46A23.16,23.16,0,0,1,146.6,171c1.21,7.35-1.85,15.38-5.8,21.43-7.23,11.05-22.24,11-33,17C107,197.18,104.89,185.22,108.82,173.26Z"/><path class="cls-11" d="M125.35,172.66c1-1.29,2.32-2.28,3.16-3.68.61-1,2-2.59,1.32-3.81a.54.54,0,0,0-.56-.29c-1.27.28-1.72,2-2.3,3.06a21.89,21.89,0,0,0-1.67,4.7S125.34,172.69,125.35,172.66Z"/><path class="cls-11" d="M120.82,172.3c.39-.85,1.12-2.4.31-3.19a.48.48,0,0,0-.58-.12c-1,.47-1.29,2.41-1.46,3.38-.23,1.35-.54,2.87.24,4.08a.1.1,0,0,0,.18-.06C119.37,174.87,120.2,173.62,120.82,172.3Z"/><path class="cls-11" d="M112.83,178.75a.42.42,0,0,0-.74-.15,9.78,9.78,0,0,0-1.47,4,5.67,5.67,0,0,0,.44,3.78h0C111.7,183.93,113.31,181.35,112.83,178.75Z"/><path class="cls-11" d="M122.53,164.63c.37-.8,1.07-1.22,1.62-1.88a18.65,18.65,0,0,0,1.73-2,.85.85,0,0,0-1.4-1,16.48,16.48,0,0,0-1.82,2.29,4.27,4.27,0,0,0-.44,2.56C122.23,164.79,122.47,164.76,122.53,164.63Z"/><path class="cls-11" d="M117.5,165.82c-2.21,1.13-2.88,4.32-2.72,6.57a.07.07,0,0,0,.13,0,10.62,10.62,0,0,1,1.73-3.08,13.53,13.53,0,0,0,1.84-2.63C118.74,166.12,118,165.56,117.5,165.82Z"/><path class="cls-11" d="M126.36,180.94a.89.89,0,0,0-.38-.77.85.85,0,0,0-1.2.23c-.58.86-.79,1.88-1.43,2.73s-1.37,1.3-2,2-1.2,1.5-1.75,2.25a.08.08,0,0,0,.1.11c1.48-.78,3-1.24,4.24-2.39A7.17,7.17,0,0,0,126.36,180.94Z"/><path class="cls-11" d="M129.9,183.18c1.23.23,2.73-1.77,3.4-2.56.85-1,2.34-3.61.79-4.65a.88.88,0,0,0-1.32.44,11.16,11.16,0,0,0-.09,1.42A9.57,9.57,0,0,1,132,180a14.56,14.56,0,0,1-2.12,3.14A0,0,0,0,0,129.9,183.18Z"/><path class="cls-11" d="M114.61,192.66c-1.35-.5-1.23,1.78-1.42,2.48a31.14,31.14,0,0,0-1.07,4.66s.06,0,.07,0c1.12-2.29,3.23-3.66,3-6.49A.86.86,0,0,0,114.61,192.66Z"/><path class="cls-8" d="M144.34,166.74c-.07-.12-.27-.06-.24.08,2.57,12.3-6.75,25.68-15.92,32.92a.17.17,0,0,0,.18.29c6.55-3,12.17-7,15.36-13.54S148,173.21,144.34,166.74Z"/><path class="cls-12" d="M185.4,182l-.23.07a3.29,3.29,0,0,1,0,1,1.83,1.83,0,0,0,.15,1.37C185.32,183.64,185.36,182.82,185.4,182Z"/><path class="cls-13" d="M179.33,150.71c-3.64-6.63-10.32-14.5-18.26-15.51-2.92-.36-6.11.57-9-.11a25.66,25.66,0,0,1-7.89-3.38c-2.56-1.64-4.95-4.22-7.86-5.25-9.74-3.43-22.76,2.06-31.67,7.26a68.22,68.22,0,0,0-30.85,40.74c-7.67,29.24,14.72,43.77,16.89,53.83.81,3.77,5.8,3.64,9.4,4.1a32.2,32.2,0,0,1,11.42,3.18c9.27,4.79,19.94,4.69,30.05,3.43a50.32,50.32,0,0,0,18.15-6.46c5.62-3.17,9.46-8,13.52-12.9,13.89-16.92,17.32-40.8,9.55-61.34A59.24,59.24,0,0,0,179.33,150.71Zm-74.25,79.11c-3.89-.57-7.77,0-10.66-2.69-3.07-2.81-4.79-6.88-7.74-9.86a46.33,46.33,0,0,1-8.58-12.22c-7.93-16.19-5-36.15,6.41-52a72.32,72.32,0,0,1,18.84-17.64,57.9,57.9,0,0,1,11.91-6.14c8.08-2.94,16.76-3.66,24,.16,5.26,2.76,8.52,7.75,15.36,7.81,4.16,0,7.34-.39,11,1.44,10,5,14.49,18.17,14.8,28.91.33,11.36-3.09,23.33-9.34,33.6-10.24,16.82-27.72,28.59-47.12,30.62C117.35,232.56,111.47,230.75,105.08,229.82Zm68.46-12.32c-7.89,10.81-17.94,17.56-31.2,19.68a64,64,0,0,1-18.43.4A64.83,64.83,0,0,1,111,234c16.24,2.06,35.13-4.16,48.11-15.32a74.82,74.82,0,0,0,15.78-19.47,61.73,61.73,0,0,0,6.89-18.25,49.48,49.48,0,0,0,.63-14.69,85.44,85.44,0,0,1,2.23,15.42C185.27,194.86,181.29,206.88,173.54,217.5Z"/><g class="cls-14"><path class="cls-15" d="M131.16,128.63c-6.4-1.92-13,.39-18.86,3.11a68.05,68.05,0,0,0-18.6,12.79c-5.9,5.82-10.76,12.67-12.5,20.88-1.7,8.05-2.54,19.2.92,26.89a.32.32,0,0,0,.61-.12c0-8.58.37-16,4.72-23.68a90.27,90.27,0,0,1,12.38-16.82c4.16-4.45,8.51-8.67,13-12.75,5-4.5,11.07-9.55,18.13-9.47C131.46,129.47,131.64,128.77,131.16,128.63Z"/></g><g class="cls-16"><path class="cls-17" d="M109.41,230.19c5.94,3,12.91,2,19.1.34a68.07,68.07,0,0,0,20.62-9.21C156,216.66,162,210.8,165.19,203c3.13-7.61,6-18.42,4-26.61a.32.32,0,0,0-.62,0c-1.6,8.43-3.26,15.66-8.93,22.43a89.66,89.66,0,0,1-15.21,14.31c-4.89,3.62-9.94,7-15.12,10.18-5.7,3.53-12.62,7.4-19.54,6C109.26,229.31,109,230,109.41,230.19Z"/></g></g><g id="Layer_33" data-name="Layer 33"><path class="cls-18" d="M179.33,150.71c-3.64-6.63-10.32-14.5-18.26-15.51-2.92-.36-6.11.57-9-.11a25.66,25.66,0,0,1-7.89-3.38c-2.56-1.64-4.95-4.22-7.86-5.25-9.74-3.43-22.76,2.06-31.67,7.26a68.22,68.22,0,0,0-30.85,40.74c-7.67,29.24,14.72,43.77,16.89,53.83.81,3.77,5.8,3.64,9.4,4.1a32.2,32.2,0,0,1,11.42,3.18c9.27,4.79,19.94,4.69,30.05,3.43a50.32,50.32,0,0,0,18.15-6.46c5.62-3.17,9.46-8,13.52-12.9,13.89-16.92,17.32-40.8,9.55-61.34A59.24,59.24,0,0,0,179.33,150.71Z"/><path class="cls-19" d="M167.17,139.52c-2.46-2.42-4.23-3-7.34-3.62-1.71,1.07-2.54,1.14-3,3a10.11,10.11,0,0,0-.41,5.06c-.76-.23-1.51-.48-2.27-.76-5.42-2-9.05-6.3-11.53-11.36,0,0-.09,0-.07,0a23.68,23.68,0,0,0,9.73,12c4.84,3,11,3.57,16.07,6.37a16,16,0,0,1,6.23,6.21c2.83,9,.76,20-2.13,28.63-4.16,12.4-11.81,23.61-21.11,32.79-7.11,7-18.2,16.68-28.25,18.52,5.25,3.73,17.84,1.55,22.94-.1,19.52-6.33,32.61-23.45,37.31-43.43C187.79,173.84,185.09,157,167.17,139.52Zm.42,8.39a5.82,5.82,0,0,1,3.86,2.25A24.31,24.31,0,0,0,167.59,147.91Z"/><path class="cls-20" d="M158.23,142a18.87,18.87,0,0,1,1.78-6.15,49.52,49.52,0,0,1,3.35-6.1c.27-.44.83-.91.93-1.43a1.1,1.1,0,0,0,0-.4l-.15,0c-.4-.12-.8-.27-1.2-.43a36.61,36.61,0,0,1-8.82,11,17.25,17.25,0,0,1-3.34,2.36,4.69,4.69,0,0,1-.56.24,17.23,17.23,0,0,0,4,2.11c1.34.49,2.7.9,4.06,1.31A8.64,8.64,0,0,1,158.23,142Z"/><path class="cls-21" d="M164.3,127.93a1.1,1.1,0,0,1,0,.4c-.1.52-.66,1-.93,1.43a49.52,49.52,0,0,0-3.35,6.1,18.87,18.87,0,0,0-1.78,6.15,8.64,8.64,0,0,0,.1,2.47,2.17,2.17,0,0,0,.24.63,2.63,2.63,0,0,0,2.91.86,7.12,7.12,0,0,1-.64-.73,6.75,6.75,0,0,1-.45-.69c-1.06-1.89-.77-3.89-.18-6.24a25.7,25.7,0,0,1,2.12-5.46c.14-.28.28-.57.43-.83a4.82,4.82,0,0,1,.39-.56c.92-1.15,2.65-2.77,2.34-4l-.23-.13C165.6,127.88,165.51,128.25,164.3,127.93Z"/><path class="cls-22" d="M159.44,131.27a28.47,28.47,0,0,1-4.21,4.15c-1.61,1.32-3.45,3-5.48,3.66a6.61,6.61,0,0,1-1.62.27l-.49,0c.42,0,1.19,1.25,1.59,1.49a1.15,1.15,0,0,0,1,.18,4.69,4.69,0,0,0,.56-.24,17.25,17.25,0,0,0,3.34-2.36,36.61,36.61,0,0,0,8.82-11q-.49-.21-1-.45a.84.84,0,0,1-.06.14,15.24,15.24,0,0,1-1.51,2.85c-.06.08-.1.16-.16.23C160,130.59,159.71,130.93,159.44,131.27Z"/><path class="cls-23" d="M160.39,130c-.06.08-.1.16-.16.23-.25.36-.52.7-.79,1a.12.12,0,0,0-.05,0,6.36,6.36,0,0,0,1.53.18,13.93,13.93,0,0,0,2.4-.23c.94-1.14,2.46-2.65,2.17-3.79l-.23-.13c.34.53.25.9-1,.58l-.15,0c-.4-.12-.8-.27-1.2-.43s-.66-.29-1-.45a.84.84,0,0,1-.06.14A15.24,15.24,0,0,1,160.39,130Z"/><path class="cls-23" d="M158,134.46c1.15.08,2.31.15,3.47.14.23-.51.46-1,.71-1.51a8.77,8.77,0,0,1-2.45,0,10.38,10.38,0,0,1-1.63-.39c-.5.53-1,1-1.58,1.53A12.68,12.68,0,0,0,158,134.46Z"/><path class="cls-23" d="M156.12,138.14a35.31,35.31,0,0,0,4.13.06,21.1,21.1,0,0,1,.82-2.56,16.39,16.39,0,0,1-5.45.13,4.68,4.68,0,0,1-.64-.14c-.71.59-1.46,1.23-2.25,1.81A13.9,13.9,0,0,0,156.12,138.14Z"/><path class="cls-23" d="M148.21,139.77a26.59,26.59,0,0,0,8.48,2.92c1,.13,2.08.23,3.12.31a8.31,8.31,0,0,1,.07-3.21,21.42,21.42,0,0,1-6.54,0,9.64,9.64,0,0,1-2.91-1c-.22.09-.45.18-.68.25a6.61,6.61,0,0,1-1.62.27l-.49,0C147.8,139.38,148,139.55,148.21,139.77Z"/><path class="cls-23" d="M160.39,144.55a3.69,3.69,0,0,1-.24-.49,35.56,35.56,0,0,1-3.73-.16l1.91.58a2.17,2.17,0,0,0,.24.63,2.63,2.63,0,0,0,2.91.86,7.12,7.12,0,0,1-.64-.73A6.75,6.75,0,0,1,160.39,144.55Z"/><g class="cls-24"><circle class="cls-25" cx="132.12" cy="152.99" r="2.16"/><circle class="cls-25" cx="115.07" cy="166.14" r="2.16"/><circle class="cls-25" cx="105.97" cy="208.67" r="2.16"/><circle class="cls-25" cx="83.03" cy="180.22" r="2.16"/><circle class="cls-25" cx="94.04" cy="206.4" r="2.16"/><circle class="cls-25" cx="103.7" cy="177.37" r="1.67"/><circle class="cls-25" cx="93.38" cy="166.37" r="1.67"/><circle class="cls-25" cx="106.98" cy="161.6" r="1.67"/><circle class="cls-25" cx="101.03" cy="151.07" r="1.67"/><circle class="cls-25" cx="82.68" cy="195.79" r="1.67"/><circle class="cls-25" cx="103.44" cy="192.5" r="0.96"/><circle class="cls-25" cx="89.26" cy="187.17" r="0.96"/><circle class="cls-25" cx="102.82" cy="185.65" r="0.96"/><circle class="cls-25" cx="94.45" cy="213.62" r="0.96"/><circle class="cls-25" cx="104.27" cy="216.31" r="0.96"/><circle class="cls-25" cx="87.36" cy="209.81" r="0.96"/><circle class="cls-25" cx="91.07" cy="173.47" r="0.96"/><circle class="cls-25" cx="118.41" cy="150.76" r="0.96"/></g></g></svg>