<svg id="Layer_22" data-name="Layer 22" xmlns="http://www.w3.org/2000/svg" viewBox="0 0 252 252"><defs><style>.cls-1{fill:#8d931c;}.cls-2{fill:#fcfade;}.cls-3{fill:#d7e085;}.cls-4{fill:#7c703e;}.cls-5{fill:#70582d;}</style></defs><path class="cls-1" d="M169.67,175.38c-4.89-11.47-13.65-21.56-19.12-33.16-.26-.61-.53-1.21-.8-1.78l-.15-.33c-9.81-22.92-26-19-26-19S107.38,117.48,98,140.57C90,160.05,72,175.18,75.73,198.15A46.7,46.7,0,0,0,79.89,211a66.86,66.86,0,0,0,13.29,19.59,28.73,28.73,0,0,0,21.06,8.81l23-.2a28.74,28.74,0,0,0,20.9-9.18c6.41-6.95,14-17.57,15.84-30.31C175.27,190.57,173.18,182.73,169.67,175.38Z"/><path class="cls-2" d="M166.88,175.68c-4.58-10.76-12.8-20.23-17.93-31.11-.25-.57-.5-1.13-.75-1.67,0-.1-.1-.2-.14-.3-5.75-13.44-13.83-17-19.08-17.84-4.6,1.44-5.13,16.76-4.92,27.65.22,3.23.39,6.84.47,10.88,0,0-.35-4.73-.47-10.88-1.6-22.72-6.33-26.49-9.19-26.58C110,127.7,104,132.27,99.64,143c-7.44,18.28-24.37,32.46-20.86,54a44,44,0,0,0,3.9,12.05,62.73,62.73,0,0,0,12.47,18.37,27,27,0,0,0,19.75,8.26h0s9.31-1.08,11-16.55c0,0-1.82,15.11,7.56,16.38l2.95,0h0a27,27,0,0,0,19.6-8.61c6-6.52,13.12-16.48,14.85-28.42C172.13,189.92,170.17,182.57,166.88,175.68Z"/><path class="cls-3" d="M129.78,183.84a69.35,69.35,0,0,1-5.51-9.79l-.73-29-.46,0,.73,29.06a70.54,70.54,0,0,1-4.6,10.36c-1.95,3.57-5.79,7.16-6.47,11-2.33,13,7.91,12.73,12,12.72h-.27L125,232l.55,0L125,208.22h.19c4,0,15.66-.46,12.46-12.67C136.52,191.32,132.28,187.53,129.78,183.84Z"/><path class="cls-4" d="M126.6,190.89s5.33,4.5,6.19,6.28a3.36,3.36,0,0,1-1.54,3.74,3.47,3.47,0,0,1-3.82-.61C126.17,199.23,126.6,190.89,126.6,190.89Z"/><path class="cls-4" d="M122.93,190.93s-4.92,4.94-5.63,6.78a3.33,3.33,0,0,0,1.85,3.59,3.46,3.46,0,0,0,3.76-.93C124.08,199.2,122.93,190.93,122.93,190.93Z"/><path class="cls-5" d="M124.56,229.61s-.49,4.77-2.27,6.88c-.31.38,1.14,1.23,3,1.11,1.6-.11,3.25-.77,2.95-1a15.08,15.08,0,0,1-2.59-7,1.25,1.25,0,0,0-.59-.07A1.35,1.35,0,0,0,124.56,229.61Z"/></svg>