<svg id="Layer_14" data-name="Layer 14" xmlns="http://www.w3.org/2000/svg" viewBox="0 0 252 252"><defs><style>.cls-1{fill:#84bb01;}.cls-2{fill:#ff9f96;}.cls-3{fill:#f06c62;}.cls-4{fill:#f7c859;}</style></defs><path class="cls-1" d="M143.62,125.28l1,.24c14.9,3.78,26.66,11.08,35.6,24.11a49.44,49.44,0,0,1,6.78,41A62.82,62.82,0,0,1,180,205.85c-6.62,10.92-15.61,20.56-26.8,26.72s-24.68,8.65-37.23,5.57c-11.11-2.72-21-9.66-28.32-18.52s-12.13-19.53-15.1-30.57C68.35,173.3,68,154.54,82.93,144.56c2-1.34,4.2-2.46,5.84-4.22s2.48-3.69,3.69-5.57c5.08-7.9,14.6-12.07,24-12.88C125.58,121.1,134.71,123,143.62,125.28Z"/><path class="cls-2" d="M142.21,130.26l.88.22c13.52,3.43,24.19,10.05,32.3,21.88a44.81,44.81,0,0,1,6.16,37.15,58,58,0,0,1-6.3,13.86c-6,9.89-14.16,18.64-24.31,24.24s-22.4,7.85-33.78,5c-10.08-2.47-19.07-8.77-25.69-16.8s-11-17.73-13.71-27.74c-3.84-14.29-4.12-31.31,9.39-40.37a28.48,28.48,0,0,0,5.3-3.82,33.86,33.86,0,0,0,3.35-5.06c4.61-7.16,13.24-11,21.79-11.69C125.84,126.47,134.13,128.23,142.21,130.26Z"/><path class="cls-3" d="M135.11,155.52l.42.11c6.58,1.67,11.78,4.89,15.72,10.65a21.84,21.84,0,0,1,3,18.07,28.37,28.37,0,0,1-3.07,6.75,32.54,32.54,0,0,1-11.83,11.79,23.1,23.1,0,0,1-16.44,2.46,24,24,0,0,1-12.5-8.18,35.48,35.48,0,0,1-6.66-13.49c-1.87-7-2-15.24,4.57-19.64a14.52,14.52,0,0,0,2.58-1.87,15.84,15.84,0,0,0,1.62-2.46c2.25-3.48,6.45-5.32,10.61-5.68S131.17,154.54,135.11,155.52Z"/><path class="cls-4" d="M114.55,169.06c-1.88,2.1-5.15-.82-3.27-2.93s5.16.82,3.27,2.93Z"/><path class="cls-4" d="M108.83,171.79c-1.88,2.1-5.15-.82-3.26-2.92s5.15.82,3.26,2.92Z"/><path class="cls-4" d="M104.84,175.29l0,.69a2.21,2.21,0,0,1-2.07,2.31,2.17,2.17,0,0,1-1.58-.56,2.24,2.24,0,0,1-.73-1.51l0-.69a2.19,2.19,0,0,1,4.38-.24Z"/><path class="cls-4" d="M105.1,185.46c-1.88,2.1-5.15-.82-3.26-2.93s5.15.82,3.26,2.93Z"/><path class="cls-4" d="M110.74,193.77c-1.88,2.11-5.15-.81-3.27-2.92s5.16.82,3.27,2.92Z"/><path class="cls-4" d="M118.69,200.24c-1.88,2.1-5.15-.82-3.27-2.93s5.16.82,3.27,2.93Z"/><path class="cls-4" d="M131.42,205.74l.36.33a2.2,2.2,0,0,1,.18,3.1,2.21,2.21,0,0,1-1.52.72,2.28,2.28,0,0,1-1.58-.55l-.36-.33a2.24,2.24,0,0,1-.73-1.51,2.19,2.19,0,0,1,2.07-2.31,2.28,2.28,0,0,1,1.58.55Z"/><path class="cls-4" d="M136.86,207.34l-.36-.32a2.27,2.27,0,0,1-.73-1.52,2.19,2.19,0,0,1,2.07-2.31,2.29,2.29,0,0,1,1.58.56l.36.32a2.27,2.27,0,0,1,.73,1.52,2.19,2.19,0,0,1-2.07,2.31,2.29,2.29,0,0,1-1.58-.56Z"/><path class="cls-4" d="M142.82,199.59c-1.89,2.1-5.16-.82-3.27-2.92s5.15.82,3.27,2.92Z"/><path class="cls-4" d="M139.77,191.3c-1.88,2.11-5.16-.81-3.27-2.92s5.15.82,3.27,2.92Z"/><path class="cls-4" d="M147.74,191.9l-.33.36a2.24,2.24,0,0,1-1.51.73,2.21,2.21,0,0,1-2.31-2.07,2.24,2.24,0,0,1,.56-1.58l.32-.37a2.21,2.21,0,0,1,3.1-.17,2.21,2.21,0,0,1,.72,1.52,2.23,2.23,0,0,1-.55,1.58Z"/><path class="cls-4" d="M154,190c-1.88,2.1-5.16-.82-3.27-2.93s5.15.82,3.27,2.93Z"/><path class="cls-4" d="M156.35,182.28c-1.88,2.1-5.15-.82-3.27-2.93s5.16.82,3.27,2.93Z"/><path class="cls-4" d="M150.57,173.62l0-.69a2.21,2.21,0,0,1,2.07-2.31,2.21,2.21,0,0,1,1.58.56,2.26,2.26,0,0,1,.73,1.51l0,.69a2.23,2.23,0,0,1-.56,1.58,2.18,2.18,0,0,1-1.51.73,2.22,2.22,0,0,1-1.58-.55,2.27,2.27,0,0,1-.73-1.52Z"/><path class="cls-4" d="M149.52,168c-1.88,2.1-5.15-.82-3.27-2.93s5.16.82,3.27,2.93Z"/><path class="cls-4" d="M143.26,164l-.32.36a2.27,2.27,0,0,1-1.52.73,2.21,2.21,0,0,1-2.31-2.07,2.29,2.29,0,0,1,.56-1.58l.32-.37a2.28,2.28,0,0,1,1.52-.72,2.19,2.19,0,0,1,1.75,3.65Z"/><path class="cls-4" d="M134.66,158.28c-1.88,2.11-5.15-.82-3.27-2.92s5.16.82,3.27,2.92Z"/><path class="cls-4" d="M126.43,156.15l-.32.36a2.26,2.26,0,0,1-1.51.73,2.21,2.21,0,0,1-2.32-2.07,2.29,2.29,0,0,1,.56-1.58l.32-.37a2.32,2.32,0,0,1,1.52-.72,2.19,2.19,0,0,1,1.75,3.65Z"/><path class="cls-4" d="M119,158.07l-.69,0a2.27,2.27,0,0,1-1.59-.56A2.19,2.19,0,0,1,116,156a2.16,2.16,0,0,1,.55-1.58,2.27,2.27,0,0,1,1.52-.73l.68,0a2.25,2.25,0,0,1,1.59.56,2.19,2.19,0,0,1,.72,1.51,2.16,2.16,0,0,1-.55,1.58,2.26,2.26,0,0,1-1.51.73Z"/><path class="cls-4" d="M116.94,162.37l-.32.36a2.29,2.29,0,0,1-1.52.73,2.21,2.21,0,0,1-2.31-2.07,2.29,2.29,0,0,1,.56-1.58l.32-.37a2.3,2.3,0,0,1,1.52-.72,2.19,2.19,0,0,1,2.31,2.07,2.29,2.29,0,0,1-.56,1.58Z"/><path class="cls-4" d="M117,173.24l-.18-.17a2.19,2.19,0,1,1,2.93-3.26l.18.16a2.24,2.24,0,0,1,.73,1.51,2.19,2.19,0,0,1-2.07,2.31,2.32,2.32,0,0,1-1.59-.55Z"/><path class="cls-4" d="M121.59,205.77l-.37-.32a2.28,2.28,0,0,1-.72-1.52,2.19,2.19,0,0,1,2.06-2.31,2.3,2.3,0,0,1,1.59.56l.36.32a2.27,2.27,0,0,1,.73,1.52,2.21,2.21,0,0,1-2.07,2.31,2.29,2.29,0,0,1-1.58-.56Z"/></svg>