<svg xmlns="http://www.w3.org/2000/svg" viewBox="0 0 252 252"><defs><style>.cls-1{fill:#99123a;}.cls-2{fill:#db4b5f;}.cls-3{fill:#eb5867;}.cls-4{fill:#872823;}.cls-5{fill:#660c11;}.cls-6{fill:#ffffa7;opacity:0.18;}.cls-7{fill:#fff;opacity:0.35;}.cls-8{fill:#cd1948;}.cls-9{fill:#ad1544;}.cls-10{fill:#b61643;}.cls-11{fill:#660c21;}.cls-12{fill:#8c6743;}.cls-13{fill:#75512e;}.cls-14{fill:#c6a178;}.cls-15{fill:#ba936c;}.cls-16{fill:#eac31f;}.cls-16,.cls-17,.cls-18,.cls-19,.cls-20{fill-rule:evenodd;}.cls-17{fill:#eaa211;}.cls-18{fill:#c18705;}.cls-19{fill:#7d8e3f;}.cls-20{fill:#f9e573;opacity:0.49;}</style></defs><g id="Layer_48" data-name="Layer 48"><path class="cls-1" d="M176.24,186.35a52.68,52.68,0,0,0-4.57-22.79c-3.3-7-8.42-14.46-15.28-19.22a25.65,25.65,0,0,0-18.09-4.92l-.77.08a46.3,46.3,0,0,0-13.66-2.64,41,41,0,0,0-8.29.74c-1.76.26-3.53.53-5.33.64s-3.41,0-5.11,0A29.4,29.4,0,0,0,89.77,142c-11.19,6.34-16.7,23.75-17.26,37.43-.65,15.85,2,31.31,13.63,41.9,10.75,9.83,26.23,14,40.26,12.34,5.32.52,11.56.12,18.88-.87,9.79-1.31,17.17-8.32,22-15.42,5-7.39,8-17,8.78-26.77C176.16,189.19,176.23,187.77,176.24,186.35Z"/><path class="cls-2" d="M80.65,158.7a63.57,63.57,0,0,0-4.48,21.16c-.55,14.72,1.75,29.08,11.72,38.93a42.21,42.21,0,0,0,34.62,11.46,67.39,67.39,0,0,0,16.24-.8,20.13,20.13,0,0,0,4.93-1.4C86.81,224.38,80.28,180.73,80.65,158.7Z"/><path class="cls-3" d="M161.44,165.11c-2.83-6.52-7.24-13.43-13.14-17.86a20.88,20.88,0,0,0-15.55-4.57l-.67.08a36.9,36.9,0,0,0-11.74-2.46,32.72,32.72,0,0,0-7.13.69c-1.51.24-3,.49-4.58.59s-2.93,0-4.4,0A23.71,23.71,0,0,0,91,145.08c-4.5,2.76-7.93,7.77-10.36,13.62-.37,22,6.16,65.68,63,69.35,6-2.52,10.69-7.69,14-12.93,4.32-6.87,6.91-15.79,7.55-24.87.1-1.32.15-2.64.17-4A52.38,52.38,0,0,0,161.44,165.11Z"/><path class="cls-4" d="M126.6,179.91c-1.77-4.6-7.1-10.34-9.74-10.49-1.29-.07-9.49,7.47-8,16.29.82,4.91,3.48,9.92,8.66,12.41a2,2,0,0,0,2,0A15,15,0,0,0,126.6,179.91Z"/><path class="cls-5" d="M126.6,179.91c-1.77-4.6-7.1-10.34-9.74-10.49a1.87,1.87,0,0,0-.91.41c2.81,1.36,7,6.15,8.49,10.11a15,15,0,0,1-7,18.13l.1.05a2,2,0,0,0,2,0A15,15,0,0,0,126.6,179.91Z"/><path class="cls-6" d="M116.06,177.17a2.57,2.57,0,0,0-4.52,0,14.88,14.88,0,0,0-1.83,9.55,14.44,14.44,0,0,0,4.17,8.26c1.7,1.72,3.79,1.27,4.93-.7C121.17,190.16,117,178.52,116.06,177.17Z"/><path class="cls-7" d="M114.94,192.87a2.41,2.41,0,0,0,0-1,5.11,5.11,0,0,0-.75-1.47,5.72,5.72,0,0,1-.66-1.18c-.17-.47-.14-.84-.6-1.16a.91.91,0,0,0-1.16.06c-.72.76-.11,1.88.4,2.62a8.82,8.82,0,0,0,1.29,1.45,11.14,11.14,0,0,1,1,.83.3.3,0,0,0,.51-.15Z"/><path class="cls-7" d="M112.66,186.66a1.94,1.94,0,0,0,.22-.91.65.65,0,0,0-.62-.59.69.69,0,0,0-.74.46,1.49,1.49,0,0,0,.18,1,.53.53,0,0,0,.47.3.51.51,0,0,0,.49-.27Z"/><path class="cls-8" d="M170.46,172.21c-.74,1-.29,2.54-.19,3.73.06.83.11,1.67.16,2.51.09,1.65.11,3.32.08,5a71.83,71.83,0,0,1-.77,9.26,1.3,1.3,0,1,0,2.57.4,63.22,63.22,0,0,0,.71-9.72c0-1.82-.07-3.64-.25-5.45-.11-1-.24-2.07-.42-3.08s-.26-2.22-1.13-2.74a.6.6,0,0,0-.76.11Z"/><path class="cls-8" d="M170.31,198.35a11.45,11.45,0,0,0-1.57,3.24c-.39,1-.76,2.11-1.18,3.14a34.07,34.07,0,0,1-1.45,3.2c-.46.88-1.35,1.78-1,2.84a.9.9,0,0,0,.86.63c1.31.06,2.17-2.37,2.61-3.34s.85-2.08,1.25-3.14c.7-1.89,1.64-4.07,1.55-6.14a.64.64,0,0,0-1.12-.43Z"/></g><g id="Layer_47" data-name="Layer 47"><path class="cls-9" d="M147.15,169.22c.34-3.11.61-6.24.84-9.4.4-5.75.41-13.31-5.28-17.53-5.13-3.8-12.52-5-18.84-5.43a41,41,0,0,0-8.29.74c-1.76.26-3.53.53-5.33.64s-3.41,0-5.11,0A29.31,29.31,0,0,0,89.77,142c-11.19,6.34-16.7,23.75-17.26,37.43-.65,15.85,2,31.31,13.63,41.9,12.28,11.23,30.73,15.11,46.14,11.26C141.26,230.34,145.36,185.59,147.15,169.22Z"/><path class="cls-1" d="M146.15,162.29c-.68-2.38-1.45-4.72-2.29-7-.72-2-1.53-4-2.11-6s-23.27-3.58-25.36-3.38c-16.18,1.5-23.06,35-22.85,44,.18,7.36-.14,40.46,21.82,43.9a16.64,16.64,0,0,0,10.07-2,37.72,37.72,0,0,0,15.27-15.48c4.29-7.86,6.45-17,7.57-26A71.43,71.43,0,0,0,146.15,162.29Z"/><path class="cls-10" d="M176.23,186.46a52.7,52.7,0,0,0-4.57-22.8c-6.27-13.31-19.34-28.64-37.89-23.34-6.52,1.86-17.84,4.31-24.39,12.47s-12.77,33.41-7.59,55.29c5.82,24.66,18.24,28.12,43.49,24.72,9.79-1.31,17.17-8.32,22-15.42C173,209,176.12,197.63,176.23,186.46Z"/><path class="cls-1" d="M157.7,221.28c5.24-8.48,8.15-19.82,8.34-31,.14-8.05-2-20-4.35-26.93-9.32-27.39-36.51-21-27.92-23.16,18.82-4.82,31.63,10,37.9,23.35a52.68,52.68,0,0,1,4.57,22.79c-.11,11.17-3.23,22.49-9,30.93-4.31,6.34-10.66,12.6-18.95,14.81A40.81,40.81,0,0,0,157.7,221.28Z"/><path class="cls-8" d="M77.73,165.27c3.78-14.22,8.78-19.52,17.76-20.43,3.71-.37,11.08,4.76,1,14.62-6.32,6.21-8,14.28-11,31.56-1.46,8.43-6.65,6.84-8.18.57A49,49,0,0,1,77.73,165.27Z"/><path class="cls-8" d="M102.61,181.64c.58-6,1.54-19.92,13.34-26.93,9-5.36,29.57-5.43,28.16,9.67-.93,9.91-14.53,15.17-17.1,33.17-1.47,10.26-17.44,17.24-20.7,10A44.89,44.89,0,0,1,102.23,187C102.31,185.23,102.44,183.43,102.61,181.64Z"/><path class="cls-1" d="M114.58,144.48a24.78,24.78,0,0,1,1.11-2.94,4.4,4.4,0,0,1,2.94-2.46,13,13,0,0,1,6.8.55c1.78.57,4.2,1.7,4.6,3.89.47,2.65-2.23,4.14-4.2,4.69a20.61,20.61,0,0,1-5,.73,24.31,24.31,0,0,1-3.19-.07,6.63,6.63,0,0,0-6.72,2.18C109.07,153.13,114.11,146.06,114.58,144.48Z"/><path class="cls-11" d="M122.42,141a2.89,2.89,0,0,1,2.53,2.38c.22,1.68-1.33,2.76-2.48,3.09-5,1.47-6.42.63-6.49.36C115.19,143.74,119.77,140.83,122.42,141Z"/><path class="cls-8" d="M83.91,212.93c-.42,1.06.84,2.68,1.38,3.47a29.85,29.85,0,0,0,3.27,3.81,43.26,43.26,0,0,0,3.85,3.46c.66.51,1.32,1,2,1.44s1.47,1.09,2.35.64a.79.79,0,0,0,.4-.83,2.21,2.21,0,0,0-1.28-1.37c-.26-.15-.52-.3-.77-.46-.55-.35-1.09-.72-1.62-1.1a42.56,42.56,0,0,1-3.59-3,45.26,45.26,0,0,1-3.27-3.37c-.47-.54-.94-1.07-1.38-1.64a5.09,5.09,0,0,0-1-1.19.26.26,0,0,0-.35.14Z"/><path class="cls-8" d="M170.46,172.21c-.74,1-.29,2.54-.19,3.73.06.83.11,1.67.16,2.51.09,1.65.11,3.32.08,5a71.83,71.83,0,0,1-.77,9.26,1.3,1.3,0,1,0,2.57.4,63.22,63.22,0,0,0,.71-9.72c0-1.82-.07-3.64-.25-5.45-.11-1-.24-2.07-.42-3.08s-.26-2.22-1.13-2.74a.6.6,0,0,0-.76.11Z"/><path class="cls-8" d="M170.31,198.35a11.45,11.45,0,0,0-1.57,3.24c-.39,1-.76,2.11-1.18,3.14a34.07,34.07,0,0,1-1.45,3.2c-.46.88-1.35,1.78-1,2.84a.9.9,0,0,0,.86.63c1.31.06,2.17-2.37,2.61-3.34s.85-2.08,1.25-3.14c.7-1.89,1.64-4.07,1.55-6.14a.64.64,0,0,0-1.12-.43Z"/><path class="cls-12" d="M118.46,136.84c.77,3.42.31,10.31.27,10.44l.56-.05.78-.08a6.8,6.8,0,0,0,.77-.11,11.66,11.66,0,0,0,1.63-.47,7.89,7.89,0,0,0,1-.46,25.48,25.48,0,0,0-.31-7.84,38.87,38.87,0,0,0-2.34-8.64,49.39,49.39,0,0,0-4.48-8.82l.18-.23a1.39,1.39,0,0,0,.08-1.59,9,9,0,0,0-1.31-1.24,1.19,1.19,0,0,0-1.72.1,6,6,0,0,1-2.95,1.66,1.33,1.33,0,0,0-.88,1.55c.21,2.06.67,1.9,2.23,2.57s3.4,4.71,4.15,6.36A36.09,36.09,0,0,1,118.46,136.84Z"/><path class="cls-13" d="M115.24,121.5a49.39,49.39,0,0,1,4.48,8.82,38.64,38.64,0,0,1,2.34,8.63,26.48,26.48,0,0,1,.35,7.64l.06,0a7.89,7.89,0,0,0,1-.46,25.48,25.48,0,0,0-.31-7.84,38.87,38.87,0,0,0-2.34-8.64,49.39,49.39,0,0,0-4.48-8.82l.18-.23a1.39,1.39,0,0,0,.08-1.59,9,9,0,0,0-1.31-1.24,1.19,1.19,0,0,0-1.72.1,2.29,2.29,0,0,1-.27.27,1.35,1.35,0,0,1,.87.31,9,9,0,0,1,1.3,1.24,1.38,1.38,0,0,1-.08,1.59Z"/><path class="cls-14" d="M111,121.6a6.06,6.06,0,0,0,2.7-.87Z"/><path class="cls-14" d="M111,122.16l-.3-.34a.58.58,0,0,0,.44.39,5.1,5.1,0,0,0,2.93-.8c.84-.38.2-1.75-.65-1.36-.39.18-.77.39-1.17.56s-.83.21-1.21.41-.56,1,0,1.14Z"/><path class="cls-15" d="M118.44,133.83c0,1.43.59,2.83.82,4.23a26.33,26.33,0,0,1,.24,4.44c0,.87,1.26.73,1.27-.14a22.78,22.78,0,0,0-.35-4.81,8.94,8.94,0,0,0-1.41-3.87c-.16-.19-.55-.18-.57.15Z"/></g><g id="Layer_23" data-name="Layer 23"><path class="cls-16" d="M16.71,64.09S1,78.17,15.32,89.74c9.51,7.67,14.49,36,19.51,57.71,13.67,59.24,73.37,105.4,134.94,86.71,15.61-4.74,17.56-1.4,22.44-6.83a4.1,4.1,0,0,0,.95-2.18,4,4,0,0,0,2.17-1c5.44-4.87,2.1-6.83,6.84-22.44C220.86,140.19,174.7,80.5,115.46,66.82c-21.75-5-50-10-57.71-19.51C46.17,33,32.1,48.7,32.1,48.7l-7,8.44Z"/><path class="cls-17" d="M16.71,64.09S1,78.17,15.32,89.74c9.51,7.67,14.49,36,19.51,57.71,13.67,59.24,73.37,105.4,134.94,86.71,15.61-4.74,17.56-1.4,22.44-6.83a4.1,4.1,0,0,0,.95-2.18,4,4,0,0,0,2.17-1c5.44-4.87,2.1-6.83,6.84-22.44a99.48,99.48,0,0,0,2.51-10.26c-1.64,2.87-3.31,5.77-5.18,8.54-.67,0-2.32,3.66-3.82,2.58-5.76-4.13-7.08-12.64-15.87-22.68A251.39,251.39,0,0,0,153,153.6c24.59,29.73,28.42,29.69,37.09,59.48,1.47,5-.78,7.87-3.44,9.45-12.76,5.4-9.92,8.87-61.7-11.26C87.29,196.63,52.36,140.54,43,112.05c-.53-1.61-5-15.55-13.06-27.15-5.46-7.82-14.72-9.14-11.49-15C21.88,63.6,25.09,60.62,32.1,62,47,65.06,66.71,77.68,73.51,83.5A87.5,87.5,0,0,0,49.62,65.82c-7.35-3.71-12.9-5.12-15-10.95-1.78-4.83,3.94-9.51,4-11.28-5.82,3.26-9.31,8.5-13.47,13.55Z"/><path class="cls-18" d="M9.35,77.27c-.42,4,.9,8.38,6,12.47,9.51,7.67,14.49,36,19.51,57.71C48,204.6,104.05,249.57,163.27,235.88,115.9,241.71,70.19,204.52,49.8,161.6,40.05,141.07,36.36,117.92,29,99.77,25,90,19.63,86.89,13.36,81.69a20.87,20.87,0,0,1-4-4.42ZM181.41,231.49Z"/><path class="cls-19" d="M17.22,64.64s-15.1,13.5-1.43,24.51c8.38,6.76,13.24,28.73,17.65,48.66.7,3.17,1.39,6.28,2.13,9.47.59,2.58,1.27,5.13,2,7.63a121.57,121.57,0,0,0,47.76,64.9c22.33,15,49.67,21.83,77.71,15.36q3.26-.75,6.48-1.73a77.77,77.77,0,0,1,14-3c3.78-.5,5.52-.73,8.12-3.62a3,3,0,0,0,.49-.78,4.26,4.26,0,0,0,.28-1l.08-.55.55-.08a4.26,4.26,0,0,0,1-.28,2.63,2.63,0,0,0,.77-.48c2.9-2.6,3.13-4.35,3.63-8.13a77.77,77.77,0,0,1,3-14q1-3.22,1.73-6.48c6.47-28-.32-55.37-15.36-77.71a121.57,121.57,0,0,0-64.9-47.76c-2.5-.76-5-1.44-7.63-2-3.19-.74-6.3-1.43-9.47-2.13C85.88,61,63.92,56.16,57.16,47.78c-11-13.67-24.47,1.39-24.51,1.43l-7,8.46-8.46,7ZM14.85,90.32c-15-12.13,1.31-26.75,1.36-26.79l8.41-6.92,6.92-8.41c0-.05,14.66-16.41,26.79-1.36,6.43,8,28.12,12.77,47.81,17.13,3.31.73,6.56,1.45,9.49,2.12q3.89.9,7.73,2.07a123.05,123.05,0,0,1,65.71,48.36c15.26,22.66,22.14,50.4,15.57,78.88q-.75,3.27-1.76,6.58a77.37,77.37,0,0,0-2.94,13.73c-.54,4.16-.79,6.08-4.11,9a4.15,4.15,0,0,1-1.18.75,4.7,4.7,0,0,1-.85.28,4.7,4.7,0,0,1-.28.85,4.2,4.2,0,0,1-.75,1.19c-3,3.31-4.89,3.56-9.05,4.1A77.37,77.37,0,0,0,170,234.87c-2.21.67-4.41,1.26-6.58,1.76-28.48,6.57-56.22-.31-78.88-15.57a123,123,0,0,1-48.36-65.71q-1.17-3.84-2.07-7.73c-.67-2.92-1.39-6.18-2.12-9.48C27.62,118.45,22.82,96.75,14.85,90.32Z"/><path class="cls-20" d="M124,74.22s31,9,53.2,36.4,21.41,37.93,23.53,49c3.21,16.73-8.36-8.51-9.76-14-4.37-17-30.86-59.47-67-71.45ZM40.38,69.77S33.61,63,29.09,63.25s-8,4.64-9.16,6.14,2.82,1.89,6.53-.5S34,67.76,38.25,70s2.13-.25,2.13-.25ZM57.85,51.82S51.07,45,46.55,45.29s-8,4.64-9.15,6.15,2.82,1.88,6.52-.5,7.53-1.13,11.79,1.13,2.14-.25,2.14-.25Zm124.7,147.41a90,90,0,0,0-24.09-32.62c-17.31-14.8-4,.5,1.51,6.52s18.82,28.11,21.08,31.62S182.55,199.23,182.55,199.23Z"/></g></svg>