<svg id="Layer_2" data-name="Layer 2" xmlns="http://www.w3.org/2000/svg" viewBox="0 0 252 252"><defs><style>.cls-1{fill:#eac31f;}.cls-1,.cls-10,.cls-11,.cls-12,.cls-13,.cls-14,.cls-15,.cls-2,.cls-3,.cls-4,.cls-5,.cls-6,.cls-7,.cls-8,.cls-9{fill-rule:evenodd;}.cls-2{fill:#eaa211;}.cls-3{fill:#c18705;}.cls-4{fill:#7d8e3f;}.cls-5{fill:#f9e573;opacity:0.49;}.cls-6{fill:#fbae49;}.cls-7{fill:#726835;}.cls-8{fill:#737e3d;}.cls-9{fill:#f15f22;}.cls-10{fill:#fbb03b;}.cls-11{fill:#f6cd2b;}.cls-12{fill:#e78625;}.cls-13{fill:#2e2113;}.cls-14{fill:#231f20;}.cls-15{fill:#fff;}</style></defs><path class="cls-1" d="M218.62,29.93s-14.34-14.67-25-.24c-7,9.57-34.26,15.63-55.14,21.44C81.64,67,39.45,126.89,60.25,185.82c5.28,14.94,2.12,17,7.6,21.48a4,4,0,0,0,2.15.82,4,4,0,0,0,1,2.07c5,5.06,6.71,1.73,22.07,5.65,60.55,15.47,116.46-31.91,127.16-90,3.92-21.32,7.53-49,16.43-56.84,13.43-11.85-2.46-24.83-2.46-24.83l-8.49-6.37Z"/><path class="cls-2" d="M218.62,29.93s-14.34-14.67-25-.24c-7,9.57-34.26,15.63-55.14,21.44C81.64,67,39.45,126.89,60.25,185.82c5.28,14.94,2.12,17,7.6,21.48a4,4,0,0,0,2.15.82,4,4,0,0,0,1,2.07c5,5.06,6.71,1.73,22.07,5.65a95.65,95.65,0,0,0,10.06,2c-2.86-1.47-5.74-3-8.51-4.66,0-.65-3.65-2.1-2.67-3.6,3.76-5.76,12-7.41,21.32-16.38A244.74,244.74,0,0,0,137.68,166c-27.77,25.15-27.57,28.86-56.1,38.57-4.82,1.64-7.67-.41-9.32-2.93-5.79-12.14-9-9.24,8.25-60.35,12.57-37.17,65.48-73.5,92.71-83.82C174.77,56.93,188.1,52,199,43.67,206.36,38,207.23,29,213.08,31.86c6.24,3.06,9.27,6,8.19,12.92C219,59.32,207.61,79,202.25,85.89a85.24,85.24,0,0,0,16.12-24c3.28-7.3,4.41-12.74,10-15.08,4.61-1.94,9.4,3.41,11.12,3.44-3.41-5.51-8.65-8.67-13.73-12.48Z"/><path class="cls-3" d="M205.51,23.37c-3.88-.24-8.09,1.23-11.84,6.32-7,9.57-34.26,15.63-55.14,21.44C83.65,66.41,42.45,122.72,58.29,179.58c-7.7-45.7,26.4-91.67,67.16-113.31,19.49-10.35,41.79-14.93,59.09-22.91,9.27-4.27,12.08-9.61,16.86-15.92a20.26,20.26,0,0,1,4.11-4.07ZM63.34,197Z"/><path class="cls-4" d="M218.1,30.45s-13.74-14.07-23.84-.33c-6.19,8.43-27.29,14.1-46.44,19.24-3,.82-6,1.62-9.1,2.47q-3.72,1.05-7.32,2.31A118,118,0,0,0,70.51,103.3c-13.62,22.32-19,49.13-11.53,76.06.58,2.08,1.23,4.16,2,6.21A76,76,0,0,1,64.45,199c.64,3.65.94,5.33,3.86,7.73a3.08,3.08,0,0,0,.77.44,4.31,4.31,0,0,0,1,.22l.54.06.1.53a3.94,3.94,0,0,0,.31,1,2.73,2.73,0,0,0,.51.73c2.65,2.7,4.35,2.84,8,3.16a75.46,75.46,0,0,1,13.69,2.3q3.17.81,6.36,1.39c27.49,5.07,53.72-2.71,74.73-18.27a118,118,0,0,0,43.53-65q.95-3.69,1.64-7.49c.58-3.13,1.11-6.18,1.65-9.28,3.42-19.54,7.18-41.06,15-48,12.78-11.28-2.41-23.68-2.45-23.72l-8.52-6.39-7.13-7.91Zm-25-1.19c11.11-15.13,26,.11,26,.16l7.08,7.86,8.46,6.35s16.56,13.52,2.48,25.94C229.7,76.15,226,97.41,222.62,116.7c-.57,3.24-1.13,6.43-1.65,9.29q-.71,3.81-1.67,7.59a119.53,119.53,0,0,1-44.07,65.86C153.9,215.22,127.29,223.11,99.37,218c-2.14-.39-4.29-.87-6.46-1.42a74.5,74.5,0,0,0-13.45-2.26c-4.06-.35-5.93-.51-9-3.59a4.17,4.17,0,0,1-.78-1.12,4.67,4.67,0,0,1-.31-.81,5.8,5.8,0,0,1-.84-.24,4.05,4.05,0,0,1-1.18-.67c-3.34-2.74-3.67-4.59-4.38-8.61a74.18,74.18,0,0,0-3.45-13.19q-1.11-3.18-2-6.31C50,152.4,55.44,125.19,69.26,102.54a119.54,119.54,0,0,1,61.66-49.77q3.68-1.31,7.41-2.34c2.8-.78,5.93-1.62,9.11-2.47C166.35,42.88,187.2,37.28,193.09,29.26Z"/><path class="cls-5" d="M213.44,134.51S206,165,180.43,187.7s-35.87,22.42-46.52,25c-16.1,3.84,7.89-8.48,13.11-10.08,16.27-5,56.37-32.52,66.42-68.07Zm.69-81.36s6.28-6.87,5.84-11.24-4.85-7.59-6.36-8.62-1.7,2.82.77,6.31,1.43,7.25-.58,11.49.33,2.06.33,2.06Zm18.18,16.16s6.28-6.87,5.84-11.24-4.85-7.59-6.36-8.62-1.71,2.82.77,6.31S234,63,232,67.25s.33,2.06.33,2.06ZM94.69,196.7a87.64,87.64,0,0,0,30.61-24.79c13.61-17.44-.66-3.87-6.27,1.75s-26.45,19.48-29.76,21.82S94.69,196.7,94.69,196.7Z"/><path class="cls-2" d="M15.56,107.18S5.15,124.93,22,131c11.18,4,24.38,28.29,35.63,46.56,30.64,49.76,100.18,73.27,151.85,37.06,13.11-9.18,15.94-6.74,18.84-13.21a3.34,3.34,0,0,0,.21-.68c-2.11,3.57-5.45,2.12-16,7.77C167,232.75,98.58,206.78,64.59,163.37c-12.48-15.94-27.4-36.92-38.41-41.3-10.61-4.22-11.13-11.19-10.12-15.67l-.5.78Zm213.68,91.54a3.67,3.67,0,0,0,1-1.09l-.39-.19a3.5,3.5,0,0,1-.8.39A3.72,3.72,0,0,1,229.24,198.72Z"/><path class="cls-3" d="M12.69,121.5c.82,3.76,3.37,7.36,9.32,9.51,11.18,4,24.38,28.29,35.63,46.56C87.2,225.58,153,249.15,204,218.23c-42.34,20.06-96.15.37-128.11-32.42-15.28-15.69-25.72-35.65-38.1-49.9-6.64-7.65-12.58-8.84-20-11.63a20.3,20.3,0,0,1-5.07-2.78Zm206.84,87.08Z"/><path class="cls-6" d="M39.31,105s-8.35-4.07-12.48-2.44-6.07,6.74-6.67,8.46,3.2.84,5.92-2.49,6.67-3.37,11.32-2.64S39.31,105,39.31,105Z"/><path class="cls-7" d="M20.56,103.77a23.08,23.08,0,0,0-8.42-3.83c-6.39-1.56,1-1.41.75-4.74s.93-2.77,6.59-.47c1.52.62,3.09,1.3,4.58,2l-1.51,4.18Z"/><path class="cls-8" d="M17.4,102.66l-.29-.15A25.3,25.3,0,0,0,12,100.65c-2.58-.63-3.33-1.24-3.14-2,.14-.54.67-.83,1.34-1.2.86-.47,2.07-1.13,2-2.17-.17-2.07.19-3,1.58-3.12,1.08-.09,2.78.61,5.64,1.77l.37.15L22,95l.43.19-.09.25-.69,1-.22-.1L19.2,95.4l-.37-.15c-2.67-1.08-4.25-1.73-5-1.67-.28,0-.33.49-.25,1.56.16,2-1.54,2.91-2.74,3.56-.36.2-.6.18-.62.27s.55-.11,2.07.27a26,26,0,0,1,5.44,2l.41.21-.47.69S17.58,102.3,17.4,102.66Z"/><path class="cls-9" d="M17.7,102.1s-8.15,13.36,8.48,20c11,4.38,25.93,25.36,38.41,41.3,34,43.41,102.36,69.38,147.9,45.14,11.55-6.15,14.48-3.89,16.6-8.85a2.62,2.62,0,0,0,0-1.83,2.74,2.74,0,0,0,1.51-1.08c2.8-4.62-.79-5.59-2.63-18.37-7.23-50.38-69.14-88.94-124.89-90-20.46-.38-46.5.32-56.64-5.78-15.29-9.2-21.37,5.18-21.37,5.18l-2.76,7.61Z"/><path class="cls-10" d="M17.7,102.1S11.48,112.32,21,119.3h0a23.11,23.11,0,0,0,5.16,2.77c11,4.38,25.93,25.36,38.41,41.3,34,43.41,102.36,69.38,147.9,45.14,11.55-6.15,14.48-3.89,16.6-8.85a2.62,2.62,0,0,0,0-1.83,2.74,2.74,0,0,0,1.51-1.08c2.8-4.62-.79-5.59-2.63-18.37-7.23-50.38-69.14-88.94-124.89-90-20.46-.38-46.5.32-56.64-5.78-4-2.41-7.38-3.2-10.18-3.06h0C28.36,80,25.05,87.8,25.05,87.8l-2.76,7.61L17.7,102.1Zm5.57,15.13a13.93,13.93,0,0,1-.09-10.81c2.43-5.62,7.76-6.27,14.14-2.59s13.26,8,31.95,26.15,54.27,48.78,80,53.05,44.85-16.44,23.94-35.59-54.39-31.36-72-34.81-59.32-9-64.66-15c-4.39-5-4-11.91,2.4-16.44,2.26,1.28,5.19,2.87,8.91,4.75C59.22,91.65,79.65,91,87.06,91.12s25.41-1.62,51.69,5.14,46.61,22.37,57.21,30.38,25.25,30,26.79,41.72,3.28,15.1,4.95,21-2.51,6.7-2.51,6.7,1.63-.08.3,2.68-.15,0-13.47,5.63-28.06,13.38-62.67,7.92-63.42-30.13-75-42S52.7,143.06,45,132.68,23.27,117.23,23.27,117.23Z"/><path class="cls-11" d="M28.59,101.67s5.68-5.21,25.26,11.82c10.75,9.35,21.41,21.91,38.35,35.74,16.73,13.65,39.72,28.62,54.41,31.77,15.56,3.33,26.64-1.39,31.09-8.6s4.86-19.54-16.71-33.12-39-20.28-45.31-22S62.76,107,59.13,106.21s-15.79-3.54-20.57-6.45C35,97.62,34,95.29,33.85,92.27a11.38,11.38,0,0,0,2.72,5.33c5.34,6.06,47,11.58,64.66,15s51.11,15.66,72,34.81,1.84,39.85-23.94,35.59S88,148.13,69.27,130s-25.58-22.47-31.95-26.15c-3.27-1.88-6.26-2.63-8.73-2.16Z"/><path class="cls-8" d="M16.73,106.7c-.94,4.3-.38,10.87,9.63,14.84,9.7,3.86,22.13,20,33.41,34.63,1.79,2.33,3.55,4.62,5.38,7q2.22,2.85,4.61,5.55C86.64,187.81,110.24,203,135,211s50.64,8.85,72.15-.62c1.67-.74,3.3-1.52,4.89-2.37a60.07,60.07,0,0,1,10.8-4.54c3-1,4.45-1.44,5.58-4.09a1.6,1.6,0,0,0,.11-.39l0-.64a3.15,3.15,0,0,0-.11-.47l-.14-.43.44-.16a2.83,2.83,0,0,0,.76-.37,1.75,1.75,0,0,0,.48-.5c1.49-2.46,1-3.84,0-6.83a57.37,57.37,0,0,1-2.71-11.24c-.25-1.76-.58-3.51-1-5.26-5-22.63-21.13-42.58-42.39-57.36s-47.72-24.42-73.42-26.37c-2.42-.19-4.85-.3-7.28-.35-3,0-5.92-.09-8.89-.12-18.69-.2-39.28-.42-48.21-5.79-14.55-8.76-20.37,5-20.39,5L23,95.73a66.55,66.55,0,0,0-4.16,6.18c-1,1.81-1.15,3.37-2.06,4.79ZM15,110c.19,4.26,2.56,9.24,11,12.6,9.24,3.67,21.51,19.6,32.65,34.06,1.87,2.43,3.71,4.82,5.38,7,1.49,1.89,3,3.77,4.68,5.62,17.09,19.37,41,34.73,66.06,42.83s51.39,9,73.23-.64c1.67-.73,3.32-1.54,5-2.41a59.11,59.11,0,0,1,10.62-4.46c1-.33,1.89-.61,2.62-.92-1.2,1.48-2.66,2.19-5,3.33a77.25,77.25,0,0,0-12.11,7.08q-2.7,1.89-5.51,3.59c-24.15,14.63-51.66,17-77,10.19a116.6,116.6,0,0,1-64.09-44.32c-1.46-2-2.87-4.16-4.2-6.33-1.65-2.68-3.24-5.3-4.84-8-10.14-16.81-21.3-35.33-31.15-38.88C10,125.9,12.93,114.93,15,110Zm215.6,87.78c.38.23.3.47-.55,1.22l-.11.09a2.29,2.29,0,0,1-.19.86,11.66,11.66,0,0,1-.52,1.06,3.73,3.73,0,0,1-.23.69c-1.77,4-3.48,4.77-7.19,6.56a77.2,77.2,0,0,0-11.9,7c-1.85,1.3-3.72,2.51-5.59,3.65-24.53,14.86-52.44,17.21-78.16,10.36a118.08,118.08,0,0,1-64.89-44.88c-1.5-2.09-2.93-4.23-4.27-6.4-1.51-2.46-3.16-5.2-4.84-8-10-16.6-21-34.89-30.41-38.27-17.68-6.38-6.86-24.8-6.83-24.86l.46-.71a16.16,16.16,0,0,1,1.68-4.36l4.57-6.68,2.75-7.58s6.34-15,22.37-5.34c8.49,5.11,28.83,5.33,47.28,5.53,3.1,0,6.15.07,8.9.12,2.44,0,4.9.16,7.38.35,26,2,52.8,11.72,74.34,26.71s37.9,35.25,43,58.22q.59,2.64,1,5.35a57.4,57.4,0,0,0,2.66,11c1.1,3.29,1.61,4.8-.1,7.62A2.32,2.32,0,0,1,230.6,197.78Z"/><path class="cls-12" d="M61,112.47c33.53,7.41,45.89,9.64,64.1,18.73,7.47,3.73,15.48,4.94,27,13.9,36.62,28.39,1.45,37.8-19.32,23.9C111.17,154.53,86.41,132.49,61,112.47Z"/><path class="cls-13" d="M153.65,160.49c.59-1.36,2.51-1.82,4.3-1s2.75,2.56,2.16,3.93-2.52,1.82-4.31,1S153.05,161.86,153.65,160.49Z"/><path class="cls-14" d="M153.43,160.4a2.53,2.53,0,0,1,1.82-1.41,4.34,4.34,0,0,1,2.77.32,4.46,4.46,0,0,1,2.1,1.87,2.59,2.59,0,0,1,.2,2.32,2.54,2.54,0,0,1-1.82,1.41,4.41,4.41,0,0,1-2.77-.32,4.56,4.56,0,0,1-2.1-1.87,2.6,2.6,0,0,1-.2-2.32Zm2-1a2.22,2.22,0,0,0-1.59,1.23,2.3,2.3,0,0,0,.18,2,3.85,3.85,0,0,0,1.84,1.63,3.8,3.8,0,0,0,2.42.29,2.22,2.22,0,0,0,1.59-1.24,2.29,2.29,0,0,0-.17-2,4,4,0,0,0-1.84-1.63A3.89,3.89,0,0,0,155.45,159.36Z"/><path class="cls-15" d="M154.44,160.38a2.06,2.06,0,0,1,1.48-.82c.93,0,1.46.36,1.41.57s-.64-.11-1.27-.09a1.64,1.64,0,0,0-1,.41C154.63,160.94,154.4,160.69,154.44,160.38Z"/><path class="cls-13" d="M150.86,151.81c.51-1.19,2.2-1.59,3.76-.89s2.4,2.24,1.89,3.43-2.21,1.59-3.77.89S150.34,153,150.86,151.81Z"/><path class="cls-14" d="M150.67,151.73a2.22,2.22,0,0,1,1.59-1.24,3.8,3.8,0,0,1,2.42.29,3.9,3.9,0,0,1,1.84,1.63,2.29,2.29,0,0,1,.17,2,2.21,2.21,0,0,1-1.59,1.23,3.87,3.87,0,0,1-2.42-.28,4,4,0,0,1-1.84-1.64,2.27,2.27,0,0,1-.17-2Zm1.77-.91a1.92,1.92,0,0,0-1.39,1.08,2,2,0,0,0,.15,1.77,3.44,3.44,0,0,0,1.61,1.43,3.33,3.33,0,0,0,2.12.25,1.85,1.85,0,0,0,1.23-2.86,3.47,3.47,0,0,0-1.6-1.43A3.41,3.41,0,0,0,152.44,150.82Z"/><path class="cls-15" d="M151.56,151.71a1.77,1.77,0,0,1,1.28-.72c.82,0,1.28.32,1.24.5s-.57-.09-1.11-.07a1.42,1.42,0,0,0-.87.35C151.72,152.2,151.52,152,151.56,151.71Z"/><path class="cls-13" d="M143.11,160.06c.55-1.26,2.34-1.68,4-.94s2.55,2.37,2,3.64-2.33,1.68-4,.94S142.57,161.33,143.11,160.06Z"/><path class="cls-14" d="M142.91,160a2.37,2.37,0,0,1,1.69-1.3,4,4,0,0,1,2.57.3,4.11,4.11,0,0,1,2,1.73,2.45,2.45,0,0,1,.18,2.15,2.33,2.33,0,0,1-1.68,1.3,4,4,0,0,1-2.57-.3,4.11,4.11,0,0,1-2-1.73,2.42,2.42,0,0,1-.19-2.15Zm1.88-1a2,2,0,0,0-1.47,1.15,2.08,2.08,0,0,0,.16,1.87,3.76,3.76,0,0,0,4,1.78,2,2,0,0,0,1.47-1.14,2.1,2.1,0,0,0-.16-1.88,3.76,3.76,0,0,0-4-1.78Z"/><path class="cls-15" d="M143.86,160a1.85,1.85,0,0,1,1.36-.76c.87,0,1.36.33,1.31.52s-.6-.1-1.17-.07a1.47,1.47,0,0,0-.92.37C144,160.48,143.82,160.25,143.86,160Z"/><path class="cls-13" d="M148.22,157.46c.43-1,1.84-1.33,3.15-.75s2,1.88,1.58,2.88-1.85,1.33-3.15.74S147.78,158.46,148.22,157.46Z"/><path class="cls-14" d="M148.06,157.39a1.84,1.84,0,0,1,1.33-1,3.19,3.19,0,0,1,2,.23A3.36,3.36,0,0,1,153,158a1.91,1.91,0,0,1,.14,1.7,1.84,1.84,0,0,1-1.33,1,3.19,3.19,0,0,1-2-.23,3.41,3.41,0,0,1-1.54-1.37,1.94,1.94,0,0,1-.14-1.7Zm1.48-.76a1.65,1.65,0,0,0-1.17.9,1.72,1.72,0,0,0,.13,1.49,2.89,2.89,0,0,0,1.35,1.19,2.73,2.73,0,0,0,1.77.21,1.64,1.64,0,0,0,1.17-.9,1.68,1.68,0,0,0-.13-1.49,2.89,2.89,0,0,0-1.35-1.19A2.73,2.73,0,0,0,149.54,156.63Z"/><path class="cls-15" d="M148.8,157.38a1.49,1.49,0,0,1,1.08-.61c.68,0,1.07.27,1,.42s-.47-.08-.92-.06a1.15,1.15,0,0,0-.73.3C148.94,157.79,148.77,157.61,148.8,157.38Z"/><path class="cls-13" d="M150,168.12c.43-1,1.84-1.33,3.14-.75s2,1.87,1.57,2.87-1.84,1.33-3.14.74S149.52,169.11,150,168.12Z"/><path class="cls-14" d="M149.8,168.05a1.82,1.82,0,0,1,1.33-1,3.16,3.16,0,0,1,2,.23,3.25,3.25,0,0,1,1.54,1.37,1.92,1.92,0,0,1,.14,1.69,1.84,1.84,0,0,1-1.33,1,3.17,3.17,0,0,1-2-.24,3.29,3.29,0,0,1-1.54-1.36,1.92,1.92,0,0,1-.14-1.69Zm1.48-.76a1.61,1.61,0,0,0-1.17.9,1.7,1.7,0,0,0,.13,1.48,2.91,2.91,0,0,0,1.34,1.19,2.8,2.8,0,0,0,1.77.21,1.65,1.65,0,0,0,1.17-.9,1.69,1.69,0,0,0-.13-1.48,2.93,2.93,0,0,0-1.34-1.2A2.79,2.79,0,0,0,151.28,167.29Z"/><path class="cls-15" d="M150.54,168a1.49,1.49,0,0,1,1.07-.6c.69,0,1.07.27,1,.42s-.47-.08-.93-.06a1.14,1.14,0,0,0-.72.29C150.68,168.44,150.51,168.26,150.54,168Z"/><path class="cls-13" d="M152.19,174.7c.43-1,1.84-1.33,3.14-.75a2.38,2.38,0,0,1,1.58,2.87c-.43,1-1.84,1.33-3.14.74A2.37,2.37,0,0,1,152.19,174.7Z"/><path class="cls-14" d="M152,174.63a1.84,1.84,0,0,1,1.33-1,3.19,3.19,0,0,1,2,.23,3.23,3.23,0,0,1,1.53,1.37,1.89,1.89,0,0,1,.15,1.69,1.84,1.84,0,0,1-1.33,1,3.2,3.2,0,0,1-2-.24,3.26,3.26,0,0,1-1.53-1.36,1.92,1.92,0,0,1-.15-1.69Zm1.48-.76a1.59,1.59,0,0,0-1.16.9,1.66,1.66,0,0,0,.13,1.48,3,3,0,0,0,3.11,1.4,1.64,1.64,0,0,0,1.16-.9,1.66,1.66,0,0,0-.13-1.48,2.83,2.83,0,0,0-1.34-1.2A2.79,2.79,0,0,0,153.51,173.87Z"/><path class="cls-15" d="M152.77,174.61a1.52,1.52,0,0,1,1.08-.6c.68,0,1.07.27,1,.42s-.47-.08-.92-.06a1.17,1.17,0,0,0-.73.29C152.91,175,152.74,174.84,152.77,174.61Z"/><path class="cls-13" d="M152.27,169.75c.43-1,1.84-1.33,3.14-.74a2.37,2.37,0,0,1,1.58,2.86c-.43,1-1.84,1.33-3.14.75A2.38,2.38,0,0,1,152.27,169.75Z"/><path class="cls-14" d="M152.11,169.68a1.89,1.89,0,0,1,1.33-1,3.41,3.41,0,0,1,3.56,1.6,1.91,1.91,0,0,1,.15,1.7,1.87,1.87,0,0,1-1.33,1,3.43,3.43,0,0,1-3.56-1.6,1.94,1.94,0,0,1-.15-1.7Zm1.48-.76a1.64,1.64,0,0,0-1.16.9,1.68,1.68,0,0,0,.13,1.49,3,3,0,0,0,3.11,1.39,1.59,1.59,0,0,0,1.16-.9,1.67,1.67,0,0,0-.13-1.48,2.82,2.82,0,0,0-1.34-1.19A2.87,2.87,0,0,0,153.59,168.92Z"/><path class="cls-15" d="M152.86,169.67a1.49,1.49,0,0,1,1.07-.6c.68,0,1.07.27,1,.42s-.47-.08-.92-.07a1.17,1.17,0,0,0-.73.3C153,170.08,152.83,169.9,152.86,169.67Z"/><path class="cls-13" d="M160.72,159.08c.44-1,1.84-1.33,3.15-.74a2.37,2.37,0,0,1,1.57,2.86c-.43,1-1.84,1.33-3.14.75S160.29,160.08,160.72,159.08Z"/><path class="cls-14" d="M160.57,159a1.85,1.85,0,0,1,1.32-1,3.2,3.2,0,0,1,2,.24,3.26,3.26,0,0,1,1.53,1.36,1.89,1.89,0,0,1,.15,1.69,1.84,1.84,0,0,1-1.33,1,3.15,3.15,0,0,1-2-.23,3.25,3.25,0,0,1-1.54-1.37,1.89,1.89,0,0,1-.14-1.69Zm1.47-.76a1.64,1.64,0,0,0-1.16.9,1.66,1.66,0,0,0,.13,1.48,2.83,2.83,0,0,0,1.34,1.2,2.79,2.79,0,0,0,1.77.2,1.59,1.59,0,0,0,1.16-.9,1.66,1.66,0,0,0-.12-1.48,2.89,2.89,0,0,0-1.35-1.19A2.79,2.79,0,0,0,162,158.25Z"/><path class="cls-15" d="M161.31,159a1.49,1.49,0,0,1,1.07-.6c.68,0,1.07.26,1,.41s-.47-.08-.92-.06a1.2,1.2,0,0,0-.73.3C161.44,159.41,161.28,159.23,161.31,159Z"/><path class="cls-13" d="M153.7,164.56c.51-1.17,2.16-1.56,3.69-.88s2.35,2.19,1.85,3.36-2.16,1.56-3.69.88S153.2,165.73,153.7,164.56Z"/><path class="cls-14" d="M153.52,164.47a2.14,2.14,0,0,1,1.56-1.2,3.77,3.77,0,0,1,2.37.27,3.84,3.84,0,0,1,1.8,1.6,2.24,2.24,0,0,1,.17,2,2.17,2.17,0,0,1-1.56,1.21,3.78,3.78,0,0,1-2.37-.28,3.89,3.89,0,0,1-1.8-1.6,2.24,2.24,0,0,1-.17-2Zm1.73-.89a1.93,1.93,0,0,0-1.36,1.06,2,2,0,0,0,.15,1.74,3.39,3.39,0,0,0,1.57,1.4,3.28,3.28,0,0,0,2.08.24,1.91,1.91,0,0,0,1.36-1.06,2,2,0,0,0-.15-1.74,3.37,3.37,0,0,0-1.57-1.39A3.29,3.29,0,0,0,155.25,163.58Z"/><path class="cls-15" d="M154.39,164.46a1.77,1.77,0,0,1,1.26-.71c.8,0,1.25.32,1.21.49s-.55-.09-1.09-.07a1.33,1.33,0,0,0-.85.35C154.55,164.94,154.35,164.73,154.39,164.46Z"/><path class="cls-13" d="M158.54,155.62c.43-1,1.84-1.33,3.14-.74s2,1.86,1.58,2.86-1.84,1.33-3.15.75S158.1,156.62,158.54,155.62Z"/><path class="cls-14" d="M158.38,155.55a1.84,1.84,0,0,1,1.33-1,3.17,3.17,0,0,1,2,.24,3.29,3.29,0,0,1,1.54,1.36,1.92,1.92,0,0,1,.14,1.69,1.85,1.85,0,0,1-1.32,1,3.19,3.19,0,0,1-2-.23,3.23,3.23,0,0,1-1.53-1.37,1.89,1.89,0,0,1-.15-1.69Zm1.48-.76a1.64,1.64,0,0,0-1.16.9,1.66,1.66,0,0,0,.12,1.48,2.91,2.91,0,0,0,1.35,1.2,2.78,2.78,0,0,0,1.77.2,1.59,1.59,0,0,0,1.16-.9,1.66,1.66,0,0,0-.13-1.48,2.86,2.86,0,0,0-1.34-1.19A2.73,2.73,0,0,0,159.86,154.79Z"/><path class="cls-15" d="M159.12,155.54a1.49,1.49,0,0,1,1.08-.6c.68,0,1.06.26,1,.41s-.47-.08-.93-.06a1.14,1.14,0,0,0-.72.3C159.26,156,159.09,155.77,159.12,155.54Z"/><path class="cls-13" d="M149.75,163.19c.43-1,1.84-1.34,3.14-.75s2,1.87,1.58,2.87-1.84,1.33-3.15.74A2.37,2.37,0,0,1,149.75,163.19Z"/><path class="cls-14" d="M149.59,163.11a1.87,1.87,0,0,1,1.33-1,3.23,3.23,0,0,1,2,.24,3.29,3.29,0,0,1,1.54,1.36,1.94,1.94,0,0,1,.15,1.7,1.91,1.91,0,0,1-1.33,1,3.41,3.41,0,0,1-3.56-1.6,1.91,1.91,0,0,1-.15-1.7Zm1.48-.76a1.63,1.63,0,0,0-1.16.91,1.7,1.7,0,0,0,.12,1.48,3,3,0,0,0,3.12,1.4,1.63,1.63,0,0,0,1.16-.91,1.67,1.67,0,0,0-.13-1.48,2.82,2.82,0,0,0-1.34-1.19A2.87,2.87,0,0,0,151.07,162.35Z"/><path class="cls-15" d="M150.33,163.1a1.49,1.49,0,0,1,1.08-.6c.68,0,1.07.27,1,.42s-.47-.08-.92-.06a1.14,1.14,0,0,0-.73.29C150.47,163.51,150.3,163.33,150.33,163.1Z"/><path class="cls-13" d="M138.12,155.26c.59-1.37,2.52-1.83,4.3-1s2.75,2.55,2.16,3.92-2.52,1.82-4.31,1S137.52,156.62,138.12,155.26Z"/><path class="cls-14" d="M137.9,155.16a2.53,2.53,0,0,1,1.82-1.41,4.34,4.34,0,0,1,2.77.32,4.46,4.46,0,0,1,2.1,1.87,2.6,2.6,0,0,1,.2,2.32,2.52,2.52,0,0,1-1.81,1.41,4.43,4.43,0,0,1-2.78-.32,4.5,4.5,0,0,1-2.1-1.87,2.6,2.6,0,0,1-.2-2.32Zm2-1a2.25,2.25,0,0,0-1.59,1.23,2.3,2.3,0,0,0,.18,2,3.92,3.92,0,0,0,1.84,1.64,3.86,3.86,0,0,0,2.42.28,2.19,2.19,0,0,0,1.59-1.24,2.27,2.27,0,0,0-.17-2,4,4,0,0,0-1.84-1.64A3.89,3.89,0,0,0,139.92,154.12Z"/><path class="cls-15" d="M138.92,155.14a2,2,0,0,1,1.47-.82c.93,0,1.46.36,1.41.57s-.64-.11-1.26-.09a1.65,1.65,0,0,0-1,.41C139.1,155.7,138.87,155.45,138.92,155.14Z"/><path class="cls-13" d="M135.33,146.57c.52-1.19,2.2-1.59,3.76-.89s2.4,2.24,1.89,3.43-2.21,1.6-3.77.89S134.81,147.77,135.33,146.57Z"/><path class="cls-14" d="M135.14,146.49a2.22,2.22,0,0,1,1.59-1.24,3.8,3.8,0,0,1,2.42.29,3.9,3.9,0,0,1,1.84,1.63,2.33,2.33,0,0,1,.18,2,2.25,2.25,0,0,1-1.59,1.23,3.89,3.89,0,0,1-2.43-.28,4,4,0,0,1-1.84-1.63,2.29,2.29,0,0,1-.17-2Zm1.77-.91a1.92,1.92,0,0,0-1.39,1.08,2,2,0,0,0,.15,1.77,3.44,3.44,0,0,0,1.61,1.43,3.33,3.33,0,0,0,2.12.25,2,2,0,0,0,1.39-1.08,2,2,0,0,0-.16-1.78,3.4,3.4,0,0,0-1.6-1.42A3.34,3.34,0,0,0,136.91,145.58Z"/><path class="cls-15" d="M136,146.47a1.8,1.8,0,0,1,1.28-.72c.82,0,1.28.32,1.24.5s-.56-.09-1.11-.07a1.42,1.42,0,0,0-.87.35C136.19,147,136,146.75,136,146.47Z"/><path class="cls-13" d="M127.59,154.83c.54-1.27,2.33-1.69,4-1s2.55,2.37,2,3.64-2.33,1.69-4,.94S127,156.09,127.59,154.83Z"/><path class="cls-14" d="M127.39,154.74a2.32,2.32,0,0,1,1.68-1.31,4.06,4.06,0,0,1,2.57.3,4.16,4.16,0,0,1,2,1.73,2.42,2.42,0,0,1,.18,2.15,2.37,2.37,0,0,1-1.68,1.31,4.13,4.13,0,0,1-2.57-.3,4.22,4.22,0,0,1-2-1.73,2.39,2.39,0,0,1-.18-2.15Zm1.87-1a2.05,2.05,0,0,0-1.47,1.15,2.1,2.1,0,0,0,.16,1.88,3.67,3.67,0,0,0,1.7,1.51,3.53,3.53,0,0,0,2.25.26,2,2,0,0,0,1.47-1.14,2.1,2.1,0,0,0-.16-1.88,3.76,3.76,0,0,0-4-1.78Z"/><path class="cls-15" d="M128.33,154.72a1.85,1.85,0,0,1,1.36-.76c.87,0,1.36.34,1.31.53s-.6-.1-1.17-.08a1.47,1.47,0,0,0-.92.37C128.5,155.24,128.29,155,128.33,154.72Z"/><path class="cls-13" d="M132.69,152.22c.43-1,1.84-1.33,3.15-.74a2.39,2.39,0,0,1,1.58,2.87c-.44,1-1.85,1.33-3.15.75S132.25,153.22,132.69,152.22Z"/><path class="cls-14" d="M132.53,152.15a1.84,1.84,0,0,1,1.33-1,3.19,3.19,0,0,1,2,.23,3.36,3.36,0,0,1,1.54,1.37,1.94,1.94,0,0,1,.15,1.7,1.88,1.88,0,0,1-1.34,1,3.2,3.2,0,0,1-2-.23,3.41,3.41,0,0,1-1.54-1.37,1.94,1.94,0,0,1-.14-1.7Zm1.48-.76a1.68,1.68,0,0,0-1.17.9,1.72,1.72,0,0,0,.13,1.49,2.89,2.89,0,0,0,1.35,1.19,2.73,2.73,0,0,0,1.77.21,1.61,1.61,0,0,0,1.17-.9,1.68,1.68,0,0,0-.13-1.49,2.89,2.89,0,0,0-1.35-1.19A2.73,2.73,0,0,0,134,151.39Z"/><path class="cls-15" d="M133.27,152.14a1.46,1.46,0,0,1,1.08-.6c.68,0,1.07.26,1,.41s-.47-.08-.92-.06a1.15,1.15,0,0,0-.73.3C133.41,152.55,133.24,152.37,133.27,152.14Z"/><path class="cls-13" d="M134.43,162.88c.43-1,1.84-1.33,3.14-.75s2,1.87,1.57,2.87-1.83,1.33-3.14.74S134,163.88,134.43,162.88Z"/><path class="cls-14" d="M134.27,162.81a1.84,1.84,0,0,1,1.33-1,3.16,3.16,0,0,1,2,.23,3.3,3.3,0,0,1,1.54,1.37,1.92,1.92,0,0,1,.14,1.69,1.84,1.84,0,0,1-1.33,1,3.23,3.23,0,0,1-2-.23,3.36,3.36,0,0,1-1.54-1.37,1.92,1.92,0,0,1-.14-1.69Zm1.48-.76a1.63,1.63,0,0,0-1.17.9,1.69,1.69,0,0,0,.13,1.48,2.91,2.91,0,0,0,1.34,1.19,2.75,2.75,0,0,0,1.78.21,1.64,1.64,0,0,0,1.16-.9,1.66,1.66,0,0,0-.13-1.48,2.93,2.93,0,0,0-1.34-1.2A2.79,2.79,0,0,0,135.75,162.05Z"/><path class="cls-15" d="M135,162.8a1.49,1.49,0,0,1,1.08-.61c.68,0,1.06.27,1,.42s-.47-.08-.93-.06a1.19,1.19,0,0,0-.72.29C135.15,163.2,135,163,135,162.8Z"/><path class="cls-13" d="M136.66,169.46c.43-1,1.84-1.33,3.14-.75a2.38,2.38,0,0,1,1.58,2.87c-.43,1-1.84,1.33-3.14.75A2.38,2.38,0,0,1,136.66,169.46Z"/><path class="cls-14" d="M136.5,169.39a1.86,1.86,0,0,1,1.33-1,3.19,3.19,0,0,1,2,.23,3.28,3.28,0,0,1,1.53,1.37,1.89,1.89,0,0,1,.15,1.69,1.84,1.84,0,0,1-1.33,1,3.19,3.19,0,0,1-2-.23,3.33,3.33,0,0,1-1.53-1.37,1.92,1.92,0,0,1-.15-1.69Zm1.48-.76a1.61,1.61,0,0,0-1.16.9A1.66,1.66,0,0,0,137,171a2.77,2.77,0,0,0,1.34,1.19,2.73,2.73,0,0,0,1.77.21,1.64,1.64,0,0,0,1.16-.9,1.66,1.66,0,0,0-.13-1.48,2.83,2.83,0,0,0-1.34-1.2A2.79,2.79,0,0,0,138,168.63Z"/><path class="cls-15" d="M137.25,169.38a1.45,1.45,0,0,1,1.07-.6c.68,0,1.07.26,1,.41s-.47-.08-.92-.06a1.23,1.23,0,0,0-.73.29C137.38,169.78,137.21,169.6,137.25,169.38Z"/><path class="cls-13" d="M136.74,164.52a2.3,2.3,0,0,1,3.14-.75,2.38,2.38,0,0,1,1.58,2.87c-.43,1-1.84,1.33-3.14.74S136.31,165.51,136.74,164.52Z"/><path class="cls-14" d="M136.58,164.44a1.91,1.91,0,0,1,1.33-1,3.41,3.41,0,0,1,3.56,1.6,1.91,1.91,0,0,1,.15,1.7,1.87,1.87,0,0,1-1.33,1,3.43,3.43,0,0,1-3.56-1.6,1.94,1.94,0,0,1-.15-1.7Zm1.48-.76a1.63,1.63,0,0,0-1.16.91,1.67,1.67,0,0,0,.13,1.48,2.82,2.82,0,0,0,1.34,1.19,2.87,2.87,0,0,0,1.77.21,1.63,1.63,0,0,0,1.16-.91,1.7,1.7,0,0,0-.12-1.48,3,3,0,0,0-3.12-1.4Z"/><path class="cls-15" d="M137.33,164.43a1.49,1.49,0,0,1,1.07-.6c.68,0,1.07.27,1,.42s-.47-.08-.92-.06a1.19,1.19,0,0,0-.73.29C137.46,164.84,137.3,164.66,137.33,164.43Z"/><path class="cls-13" d="M145.19,153.84c.44-1,1.84-1.33,3.15-.74a2.37,2.37,0,0,1,1.57,2.86c-.43,1-1.84,1.33-3.14.75S144.76,154.84,145.19,153.84Z"/><path class="cls-14" d="M145,153.77a1.87,1.87,0,0,1,1.32-1,3.2,3.2,0,0,1,2,.24,3.26,3.26,0,0,1,1.53,1.36,1.89,1.89,0,0,1,.15,1.69,1.82,1.82,0,0,1-1.33,1,3.16,3.16,0,0,1-2-.23,3.29,3.29,0,0,1-1.54-1.36,1.94,1.94,0,0,1-.14-1.7Zm1.47-.76a1.64,1.64,0,0,0-1.16.9,1.66,1.66,0,0,0,.13,1.48,2.88,2.88,0,0,0,1.34,1.2,2.79,2.79,0,0,0,1.77.2,1.59,1.59,0,0,0,1.16-.9,1.66,1.66,0,0,0-.12-1.48,2.89,2.89,0,0,0-1.35-1.19A2.86,2.86,0,0,0,146.51,153Z"/><path class="cls-15" d="M145.78,153.76a1.49,1.49,0,0,1,1.07-.6c.69,0,1.07.26,1,.41s-.47-.07-.92-.06a1.14,1.14,0,0,0-.72.3C145.92,154.17,145.75,154,145.78,153.76Z"/><path class="cls-13" d="M138.17,159.32c.51-1.17,2.16-1.56,3.69-.87s2.35,2.19,1.85,3.36-2.16,1.56-3.69.87S137.67,160.49,138.17,159.32Z"/><path class="cls-14" d="M138,159.24a2.17,2.17,0,0,1,1.56-1.21,3.77,3.77,0,0,1,2.37.27,3.84,3.84,0,0,1,1.8,1.6,2.24,2.24,0,0,1,.17,2,2.17,2.17,0,0,1-1.56,1.21,3.72,3.72,0,0,1-2.37-.28,3.89,3.89,0,0,1-1.8-1.6,2.22,2.22,0,0,1-.17-2Zm1.73-.89a1.89,1.89,0,0,0-1.36,1.05,2,2,0,0,0,.15,1.74,3.34,3.34,0,0,0,1.57,1.4,3.28,3.28,0,0,0,2.08.24,1.89,1.89,0,0,0,1.36-1.06,1.94,1.94,0,0,0-.15-1.73,3.34,3.34,0,0,0-1.57-1.4A3.28,3.28,0,0,0,139.72,158.35Z"/><path class="cls-15" d="M138.86,159.22a1.74,1.74,0,0,1,1.26-.7c.8,0,1.25.31,1.21.48s-.55-.09-1.08-.07a1.34,1.34,0,0,0-.85.35C139,159.7,138.82,159.49,138.86,159.22Z"/><path class="cls-13" d="M143,150.38c.43-1,1.84-1.33,3.14-.74s2,1.87,1.58,2.86-1.84,1.33-3.15.75A2.38,2.38,0,0,1,143,150.38Z"/><path class="cls-14" d="M142.85,150.31a1.84,1.84,0,0,1,1.33-1,3.16,3.16,0,0,1,2,.24,3.29,3.29,0,0,1,1.54,1.36,1.89,1.89,0,0,1,.14,1.69,1.82,1.82,0,0,1-1.32,1,3.19,3.19,0,0,1-2-.23A3.26,3.26,0,0,1,143,152a1.91,1.91,0,0,1-.15-1.7Zm1.48-.76a1.64,1.64,0,0,0-1.16.9,1.66,1.66,0,0,0,.12,1.48,2.91,2.91,0,0,0,1.35,1.2,2.78,2.78,0,0,0,1.77.2,1.59,1.59,0,0,0,1.16-.9,1.67,1.67,0,0,0-.13-1.48,3,3,0,0,0-3.11-1.4Z"/><path class="cls-15" d="M143.59,150.3a1.49,1.49,0,0,1,1.08-.6c.68,0,1.07.26,1,.41s-.47-.07-.93-.06a1.14,1.14,0,0,0-.72.3C143.73,150.71,143.56,150.53,143.59,150.3Z"/><path class="cls-13" d="M134.22,158c.43-1,1.84-1.33,3.14-.75s2,1.87,1.58,2.87-1.84,1.33-3.14.74A2.37,2.37,0,0,1,134.22,158Z"/><path class="cls-14" d="M134.06,157.88a1.82,1.82,0,0,1,1.33-1,3.15,3.15,0,0,1,2,.23,3.24,3.24,0,0,1,1.54,1.36,1.94,1.94,0,0,1,.15,1.7,1.86,1.86,0,0,1-1.33,1,3.2,3.2,0,0,1-2-.24,3.26,3.26,0,0,1-1.53-1.36,1.89,1.89,0,0,1-.15-1.69Zm1.48-.76a1.59,1.59,0,0,0-1.16.9,1.66,1.66,0,0,0,.13,1.48,2.82,2.82,0,0,0,1.34,1.19,2.87,2.87,0,0,0,1.77.21,1.64,1.64,0,0,0,1.16-.9,1.66,1.66,0,0,0-.13-1.48,2.83,2.83,0,0,0-1.34-1.2A2.79,2.79,0,0,0,135.54,157.12Z"/><path class="cls-15" d="M134.8,157.86a1.52,1.52,0,0,1,1.08-.6c.68,0,1.07.27,1,.42s-.47-.08-.92-.06a1.14,1.14,0,0,0-.73.29C134.94,158.27,134.77,158.09,134.8,157.86Z"/><path class="cls-13" d="M131.46,139.26c.6-1.36,2.52-1.82,4.31-1s2.75,2.56,2.16,3.93-2.52,1.82-4.31,1S130.87,140.63,131.46,139.26Z"/><path class="cls-14" d="M131.25,139.16a2.56,2.56,0,0,1,1.82-1.41,4.69,4.69,0,0,1,4.87,2.19,2.6,2.6,0,0,1,.2,2.32,2.51,2.51,0,0,1-1.82,1.41,4.34,4.34,0,0,1-2.77-.32,4.46,4.46,0,0,1-2.1-1.87,2.59,2.59,0,0,1-.2-2.32Zm2-1a2.24,2.24,0,0,0-1.59,1.24,2.27,2.27,0,0,0,.18,2,3.87,3.87,0,0,0,1.83,1.63,3.83,3.83,0,0,0,2.43.28,2.2,2.2,0,0,0,1.59-1.23,2.26,2.26,0,0,0-.18-2,3.87,3.87,0,0,0-1.83-1.63A3.83,3.83,0,0,0,133.27,138.12Z"/><path class="cls-15" d="M132.26,139.15a2.05,2.05,0,0,1,1.48-.83c.93,0,1.46.37,1.41.57s-.65-.1-1.27-.08a1.56,1.56,0,0,0-1,.4C132.45,139.71,132.22,139.46,132.26,139.15Z"/><path class="cls-13" d="M128.67,130.58c.52-1.19,2.21-1.59,3.77-.89s2.4,2.23,1.88,3.43-2.2,1.59-3.76.89S128.16,131.77,128.67,130.58Z"/><path class="cls-14" d="M128.49,130.49a2.21,2.21,0,0,1,1.59-1.23,3.87,3.87,0,0,1,2.42.28,4,4,0,0,1,1.84,1.64,2.27,2.27,0,0,1,.17,2,2.22,2.22,0,0,1-1.59,1.24,3.8,3.8,0,0,1-2.42-.29,3.9,3.9,0,0,1-1.84-1.63,2.29,2.29,0,0,1-.17-2Zm1.76-.91a1.85,1.85,0,0,0-1.23,2.86,3.47,3.47,0,0,0,1.6,1.43,3.41,3.41,0,0,0,2.12.24,1.92,1.92,0,0,0,1.39-1.08,2,2,0,0,0-.15-1.77,3.44,3.44,0,0,0-1.61-1.43A3.33,3.33,0,0,0,130.25,129.58Z"/><path class="cls-15" d="M129.37,130.48a1.77,1.77,0,0,1,1.29-.72c.82,0,1.28.32,1.23.5s-.56-.1-1.1-.08a1.43,1.43,0,0,0-.87.36C129.54,131,129.34,130.75,129.37,130.48Z"/><path class="cls-13" d="M120.93,138.83c.55-1.26,2.34-1.69,4-.94s2.55,2.37,2,3.63-2.33,1.69-4,.95S120.38,140.1,120.93,138.83Z"/><path class="cls-14" d="M120.73,138.74a2.41,2.41,0,0,1,1.69-1.31,4.3,4.3,0,0,1,4.51,2,2.43,2.43,0,0,1,.19,2.15,2.34,2.34,0,0,1-1.69,1.31,4,4,0,0,1-2.56-.3,4.12,4.12,0,0,1-2-1.73,2.42,2.42,0,0,1-.19-2.15Zm1.88-1a2.06,2.06,0,0,0-1.48,1.14,2.14,2.14,0,0,0,.17,1.88,3.8,3.8,0,0,0,4,1.78,2.07,2.07,0,0,0,1.47-1.15,2.14,2.14,0,0,0-.16-1.88,3.65,3.65,0,0,0-1.71-1.51A3.51,3.51,0,0,0,122.61,137.78Z"/><path class="cls-15" d="M121.67,138.73A1.91,1.91,0,0,1,123,138c.86,0,1.35.34,1.31.53s-.6-.1-1.18-.08a1.5,1.5,0,0,0-.92.38C121.85,139.24,121.64,139,121.67,138.73Z"/><path class="cls-13" d="M126,136.23a2.31,2.31,0,0,1,3.15-.75c1.31.59,2,1.87,1.58,2.87s-1.84,1.34-3.15.75S125.6,137.23,126,136.23Z"/><path class="cls-14" d="M125.88,136.16a1.86,1.86,0,0,1,1.33-1,3.27,3.27,0,0,1,2,.24,3.3,3.3,0,0,1,1.54,1.37,1.92,1.92,0,0,1,.14,1.69,1.86,1.86,0,0,1-1.33,1,3.2,3.2,0,0,1-2-.24,3.25,3.25,0,0,1-1.54-1.37,1.89,1.89,0,0,1-.14-1.69Zm1.48-.77a1.62,1.62,0,0,0-1.17.91,1.66,1.66,0,0,0,.13,1.48,3,3,0,0,0,3.12,1.41,1.66,1.66,0,0,0,1.17-.91,1.7,1.7,0,0,0-.13-1.48,2.91,2.91,0,0,0-1.35-1.2A2.87,2.87,0,0,0,127.36,135.39Z"/><path class="cls-15" d="M126.62,136.14a1.49,1.49,0,0,1,1.08-.6c.68,0,1.07.27,1,.42s-.47-.08-.93-.06a1.14,1.14,0,0,0-.72.29C126.76,136.55,126.59,136.37,126.62,136.14Z"/><path class="cls-13" d="M127.77,146.88c.44-1,1.84-1.33,3.15-.74a2.37,2.37,0,0,1,1.57,2.86c-.43,1-1.84,1.34-3.14.75S127.34,147.88,127.77,146.88Z"/><path class="cls-14" d="M127.62,146.81a1.87,1.87,0,0,1,1.32-1,3.41,3.41,0,0,1,3.56,1.6,1.91,1.91,0,0,1,.15,1.7,1.87,1.87,0,0,1-1.33,1,3.24,3.24,0,0,1-2-.24,3.29,3.29,0,0,1-1.54-1.36,1.94,1.94,0,0,1-.14-1.7Zm1.47-.76a1.64,1.64,0,0,0-1.16.9,1.68,1.68,0,0,0,.13,1.49,2.86,2.86,0,0,0,1.34,1.19,2.79,2.79,0,0,0,1.77.2,1.59,1.59,0,0,0,1.16-.9,1.66,1.66,0,0,0-.12-1.48,2.89,2.89,0,0,0-1.35-1.19A2.86,2.86,0,0,0,129.09,146.05Z"/><path class="cls-15" d="M128.36,146.8a1.49,1.49,0,0,1,1.07-.6c.69,0,1.07.27,1,.42s-.47-.08-.92-.07a1.14,1.14,0,0,0-.72.3C128.5,147.21,128.33,147,128.36,146.8Z"/><path class="cls-13" d="M130,153.46c.43-1,1.84-1.33,3.14-.74s2,1.87,1.58,2.86-1.84,1.34-3.15.75A2.38,2.38,0,0,1,130,153.46Z"/><path class="cls-14" d="M129.85,153.39a1.87,1.87,0,0,1,1.33-1,3.23,3.23,0,0,1,2,.24,3.29,3.29,0,0,1,1.54,1.36,1.94,1.94,0,0,1,.15,1.7,1.91,1.91,0,0,1-1.33,1,3.41,3.41,0,0,1-3.56-1.6,1.91,1.91,0,0,1-.15-1.7Zm1.48-.76a1.63,1.63,0,0,0-1.16.91,1.7,1.7,0,0,0,.12,1.48,3,3,0,0,0,3.12,1.4,1.63,1.63,0,0,0,1.16-.91,1.67,1.67,0,0,0-.13-1.48,2.82,2.82,0,0,0-1.34-1.19A2.87,2.87,0,0,0,131.33,152.63Z"/><path class="cls-15" d="M130.59,153.38a1.49,1.49,0,0,1,1.08-.6c.68,0,1.07.27,1,.42s-.47-.08-.92-.07a1.15,1.15,0,0,0-.73.3C130.73,153.79,130.56,153.61,130.59,153.38Z"/><path class="cls-13" d="M130.09,148.52c.43-1,1.84-1.33,3.14-.74a2.37,2.37,0,0,1,1.58,2.86c-.43,1-1.84,1.33-3.14.75A2.38,2.38,0,0,1,130.09,148.52Z"/><path class="cls-14" d="M129.93,148.45a1.84,1.84,0,0,1,1.33-1,3.15,3.15,0,0,1,2,.23,3.31,3.31,0,0,1,1.54,1.37,1.92,1.92,0,0,1,.15,1.69,1.86,1.86,0,0,1-1.33,1,3.19,3.19,0,0,1-2-.23,3.28,3.28,0,0,1-1.53-1.37,1.89,1.89,0,0,1-.15-1.69Zm1.48-.76a1.64,1.64,0,0,0-1.16.9,1.66,1.66,0,0,0,.13,1.48,2.77,2.77,0,0,0,1.34,1.19,2.73,2.73,0,0,0,1.77.21,1.61,1.61,0,0,0,1.16-.9,1.66,1.66,0,0,0-.13-1.48,2.82,2.82,0,0,0-1.34-1.19A2.73,2.73,0,0,0,131.41,147.69Z"/><path class="cls-15" d="M130.67,148.44a1.48,1.48,0,0,1,1.08-.6c.68,0,1.07.26,1,.41s-.47-.08-.92-.06a1.15,1.15,0,0,0-.73.3C130.81,148.84,130.64,148.66,130.67,148.44Z"/><path class="cls-13" d="M138.54,137.85c.43-1,1.84-1.33,3.14-.75a2.38,2.38,0,0,1,1.58,2.87c-.43,1-1.84,1.33-3.14.74A2.37,2.37,0,0,1,138.54,137.85Z"/><path class="cls-14" d="M138.38,137.78a1.84,1.84,0,0,1,1.33-1,3.19,3.19,0,0,1,2,.23,3.23,3.23,0,0,1,1.53,1.37,1.89,1.89,0,0,1,.15,1.69,1.84,1.84,0,0,1-1.33,1,3.2,3.2,0,0,1-2-.24,3.26,3.26,0,0,1-1.53-1.36,1.92,1.92,0,0,1-.15-1.69Zm1.48-.76a1.59,1.59,0,0,0-1.16.9,1.66,1.66,0,0,0,.13,1.48,3,3,0,0,0,3.11,1.4,1.64,1.64,0,0,0,1.16-.9,1.66,1.66,0,0,0-.13-1.48,2.83,2.83,0,0,0-1.34-1.2A2.79,2.79,0,0,0,139.86,137Z"/><path class="cls-15" d="M139.12,137.76a1.52,1.52,0,0,1,1.08-.6c.68,0,1.07.27,1,.42s-.47-.08-.92-.06a1.23,1.23,0,0,0-.73.29C139.26,138.17,139.09,138,139.12,137.76Z"/><path class="cls-13" d="M131.52,143.32c.51-1.17,2.16-1.56,3.69-.87s2.35,2.19,1.84,3.36-2.15,1.56-3.68.87S131,144.49,131.52,143.32Z"/><path class="cls-14" d="M131.34,143.24a2.18,2.18,0,0,1,1.55-1.21,3.74,3.74,0,0,1,2.38.28,3.84,3.84,0,0,1,1.8,1.6,2.22,2.22,0,0,1,.17,2,2.17,2.17,0,0,1-1.56,1.21,4,4,0,0,1-4.17-1.87,2.24,2.24,0,0,1-.17-2Zm1.73-.89a1.89,1.89,0,0,0-1.36,1.06,1.91,1.91,0,0,0,.15,1.73,3.34,3.34,0,0,0,1.57,1.4,3.28,3.28,0,0,0,2.08.24,1.89,1.89,0,0,0,1.36-1.05,2,2,0,0,0-.15-1.74,3.34,3.34,0,0,0-1.57-1.4A3.28,3.28,0,0,0,133.07,142.35Z"/><path class="cls-15" d="M132.21,143.23a1.73,1.73,0,0,1,1.26-.71c.8,0,1.25.31,1.21.49s-.55-.09-1.09-.07a1.38,1.38,0,0,0-.85.34C132.37,143.7,132.17,143.49,132.21,143.23Z"/><path class="cls-13" d="M136.36,134.39c.43-1,1.84-1.33,3.14-.75s2,1.87,1.57,2.87-1.84,1.33-3.14.74S135.92,135.38,136.36,134.39Z"/><path class="cls-14" d="M136.2,134.32a1.82,1.82,0,0,1,1.33-1,3.16,3.16,0,0,1,2,.23,3.25,3.25,0,0,1,1.54,1.37,1.92,1.92,0,0,1,.14,1.69,1.84,1.84,0,0,1-1.33,1,3.17,3.17,0,0,1-2-.24,3.29,3.29,0,0,1-1.54-1.36,1.92,1.92,0,0,1-.14-1.69Zm1.48-.76a1.61,1.61,0,0,0-1.17.9,1.7,1.7,0,0,0,.13,1.48,2.91,2.91,0,0,0,1.34,1.19,2.8,2.8,0,0,0,1.77.21,1.65,1.65,0,0,0,1.17-.9,1.69,1.69,0,0,0-.13-1.48,2.93,2.93,0,0,0-1.34-1.2A2.79,2.79,0,0,0,137.68,133.56Z"/><path class="cls-15" d="M136.94,134.3a1.49,1.49,0,0,1,1.07-.6c.69,0,1.07.27,1,.42s-.46-.08-.92-.06a1.19,1.19,0,0,0-.72.29C137.08,134.71,136.91,134.53,136.94,134.3Z"/><path class="cls-13" d="M127.57,142c.43-1,1.84-1.33,3.14-.74s2,1.87,1.58,2.86-1.84,1.33-3.15.75S127.13,143,127.57,142Z"/><path class="cls-14" d="M127.41,141.88a1.84,1.84,0,0,1,1.33-1,3.17,3.17,0,0,1,2,.24,3.29,3.29,0,0,1,1.54,1.36,1.92,1.92,0,0,1,.14,1.69,1.82,1.82,0,0,1-1.33,1,3.17,3.17,0,0,1-2-.23,3.23,3.23,0,0,1-1.53-1.37,1.89,1.89,0,0,1-.15-1.69Zm1.48-.76a1.68,1.68,0,0,0-1.17.9,1.69,1.69,0,0,0,.13,1.48,2.91,2.91,0,0,0,1.35,1.2,2.78,2.78,0,0,0,1.77.2,1.59,1.59,0,0,0,1.16-.9,1.66,1.66,0,0,0-.13-1.48,2.91,2.91,0,0,0-1.34-1.19A2.8,2.8,0,0,0,128.89,141.12Z"/><path class="cls-15" d="M128.15,141.87a1.49,1.49,0,0,1,1.08-.6c.68,0,1.06.26,1,.41s-.47-.08-.93-.06a1.14,1.14,0,0,0-.72.3C128.29,142.28,128.12,142.1,128.15,141.87Z"/><path class="cls-13" d="M118.48,154.06c.6-1.37,2.52-1.83,4.31-1s2.75,2.56,2.16,3.92-2.52,1.82-4.31,1S117.89,155.42,118.48,154.06Z"/><path class="cls-14" d="M118.27,154a2.53,2.53,0,0,1,1.82-1.41,4.34,4.34,0,0,1,2.77.32,4.46,4.46,0,0,1,2.1,1.87,2.6,2.6,0,0,1,.2,2.32,2.53,2.53,0,0,1-1.82,1.41,4.34,4.34,0,0,1-2.77-.32,4.46,4.46,0,0,1-2.1-1.87,2.6,2.6,0,0,1-.2-2.32Zm2-1a2.23,2.23,0,0,0-1.59,1.23,2.26,2.26,0,0,0,.18,2,4,4,0,0,0,4.26,1.92,2.21,2.21,0,0,0,1.59-1.24,2.25,2.25,0,0,0-.18-2,4,4,0,0,0-4.26-1.92Z"/><path class="cls-15" d="M119.28,153.94a2.06,2.06,0,0,1,1.48-.82c.93,0,1.46.36,1.41.57s-.65-.11-1.27-.08a1.56,1.56,0,0,0-1,.4C119.47,154.5,119.24,154.25,119.28,153.94Z"/><path class="cls-13" d="M115.7,145.37c.51-1.19,2.2-1.59,3.76-.89s2.4,2.24,1.88,3.43-2.2,1.6-3.76.9S115.18,146.57,115.7,145.37Z"/><path class="cls-14" d="M115.51,145.29a2.18,2.18,0,0,1,1.59-1.23,3.73,3.73,0,0,1,2.42.28,4,4,0,0,1,1.84,1.63,2.29,2.29,0,0,1,.17,2,2.18,2.18,0,0,1-1.59,1.23,3.87,3.87,0,0,1-2.42-.28,4,4,0,0,1-1.84-1.63,2.29,2.29,0,0,1-.17-2Zm1.76-.91a2,2,0,0,0-1.39,1.08,2,2,0,0,0,.16,1.77,3.47,3.47,0,0,0,1.6,1.43,3.34,3.34,0,0,0,2.12.25,1.92,1.92,0,0,0,1.39-1.08,2,2,0,0,0-.15-1.77,3.39,3.39,0,0,0-1.61-1.43A3.33,3.33,0,0,0,117.27,144.38Z"/><path class="cls-15" d="M116.39,145.28a1.77,1.77,0,0,1,1.29-.72c.82,0,1.28.31,1.23.49s-.56-.09-1.1-.07a1.42,1.42,0,0,0-.87.35C116.56,145.76,116.36,145.55,116.39,145.28Z"/><path class="cls-13" d="M104,150.67c.55-1.27,2.33-1.69,4-.95s2.54,2.37,2,3.64-2.33,1.69-4,.95S103.4,151.93,104,150.67Z"/><path class="cls-14" d="M103.75,150.58a2.32,2.32,0,0,1,1.68-1.31,4.06,4.06,0,0,1,2.57.3,4.22,4.22,0,0,1,2,1.73,2.43,2.43,0,0,1,.19,2.15,2.38,2.38,0,0,1-1.69,1.31,4.06,4.06,0,0,1-2.57-.3,4.22,4.22,0,0,1-1.95-1.73,2.42,2.42,0,0,1-.18-2.15Zm1.87-1a2,2,0,0,0-1.47,1.14,2.1,2.1,0,0,0,.16,1.88,3.62,3.62,0,0,0,1.7,1.51,3.54,3.54,0,0,0,2.25.26,2,2,0,0,0,1.47-1.14,2.1,2.1,0,0,0-.16-1.88,3.62,3.62,0,0,0-1.7-1.51A3.53,3.53,0,0,0,105.62,149.62Z"/><path class="cls-15" d="M104.69,150.56a1.91,1.91,0,0,1,1.36-.76c.87,0,1.36.34,1.31.53s-.6-.1-1.17-.08a1.45,1.45,0,0,0-.92.38C104.86,151.08,104.65,150.85,104.69,150.56Z"/><path class="cls-13" d="M106.86,145.66c.43-1,1.84-1.33,3.15-.74a2.38,2.38,0,0,1,1.58,2.87c-.44,1-1.85,1.33-3.15.75S106.42,146.66,106.86,145.66Z"/><path class="cls-14" d="M106.7,145.59a1.84,1.84,0,0,1,1.33-1,3.19,3.19,0,0,1,2,.23,3.31,3.31,0,0,1,1.54,1.37,1.91,1.91,0,0,1,.15,1.7,1.86,1.86,0,0,1-1.33,1,3.18,3.18,0,0,1-2-.23,3.31,3.31,0,0,1-1.54-1.37,1.91,1.91,0,0,1-.15-1.7Zm1.48-.76a1.64,1.64,0,0,0-1.16.9,1.68,1.68,0,0,0,.12,1.49,2.89,2.89,0,0,0,1.35,1.19,2.75,2.75,0,0,0,1.78.21,1.61,1.61,0,0,0,1.16-.9,1.68,1.68,0,0,0-.13-1.49A2.82,2.82,0,0,0,110,145,2.76,2.76,0,0,0,108.18,144.83Z"/><path class="cls-15" d="M107.44,145.58a1.48,1.48,0,0,1,1.08-.6c.69,0,1.07.26,1,.41s-.47-.08-.92-.06a1.17,1.17,0,0,0-.73.3C107.58,146,107.41,145.81,107.44,145.58Z"/><path class="cls-13" d="M114.79,161.68c.44-1,1.84-1.33,3.15-.75s2,1.87,1.57,2.87-1.84,1.33-3.14.75S114.36,162.68,114.79,161.68Z"/><path class="cls-14" d="M114.64,161.61a1.85,1.85,0,0,1,1.32-1,3.19,3.19,0,0,1,2,.23,3.28,3.28,0,0,1,1.53,1.37,1.89,1.89,0,0,1,.15,1.69,1.84,1.84,0,0,1-1.33,1,3.16,3.16,0,0,1-2-.23,3.3,3.3,0,0,1-1.54-1.37,1.92,1.92,0,0,1-.14-1.69Zm1.47-.76a1.64,1.64,0,0,0-1.16.9,1.66,1.66,0,0,0,.13,1.48,2.81,2.81,0,0,0,1.34,1.19,2.73,2.73,0,0,0,1.77.21,1.64,1.64,0,0,0,1.16-.9,1.66,1.66,0,0,0-.12-1.48,2.84,2.84,0,0,0-1.35-1.19A2.72,2.72,0,0,0,116.11,160.85Z"/><path class="cls-15" d="M115.38,161.6a1.45,1.45,0,0,1,1.07-.6c.69,0,1.07.26,1,.41s-.47-.08-.92-.06a1.14,1.14,0,0,0-.72.3C115.52,162,115.35,161.82,115.38,161.6Z"/><path class="cls-13" d="M129.56,168.26c.43-1,1.84-1.33,3.14-.75s2,1.87,1.58,2.87-1.84,1.33-3.15.74A2.37,2.37,0,0,1,129.56,168.26Z"/><path class="cls-14" d="M129.4,168.19a1.84,1.84,0,0,1,1.33-1,3.15,3.15,0,0,1,2,.23,3.25,3.25,0,0,1,1.54,1.37,1.89,1.89,0,0,1,.14,1.69,1.85,1.85,0,0,1-1.32,1,3.2,3.2,0,0,1-2-.24,3.26,3.26,0,0,1-1.53-1.36,1.89,1.89,0,0,1-.15-1.69Zm1.48-.76a1.59,1.59,0,0,0-1.16.9,1.66,1.66,0,0,0,.12,1.48,2.89,2.89,0,0,0,1.35,1.19,2.79,2.79,0,0,0,1.77.21,1.64,1.64,0,0,0,1.16-.9,1.66,1.66,0,0,0-.13-1.48,2.88,2.88,0,0,0-1.34-1.2A2.79,2.79,0,0,0,130.88,167.43Z"/><path class="cls-15" d="M130.14,168.17a1.49,1.49,0,0,1,1.08-.6c.68,0,1.07.27,1,.42s-.47-.08-.93-.06a1.19,1.19,0,0,0-.72.29C130.28,168.58,130.11,168.4,130.14,168.17Z"/><path class="cls-13" d="M149.9,145.4c.43-1,1.84-1.33,3.14-.75s2,1.87,1.57,2.87-1.83,1.33-3.14.75S149.46,146.4,149.9,145.4Z"/><path class="cls-14" d="M149.74,145.33a1.84,1.84,0,0,1,1.33-1,3.16,3.16,0,0,1,2,.23,3.3,3.3,0,0,1,1.54,1.37,1.92,1.92,0,0,1,.14,1.69,1.84,1.84,0,0,1-1.33,1,3.16,3.16,0,0,1-2-.23,3.3,3.3,0,0,1-1.54-1.37,1.92,1.92,0,0,1-.14-1.69Zm1.48-.76a1.68,1.68,0,0,0-1.17.9,1.69,1.69,0,0,0,.13,1.48,2.86,2.86,0,0,0,1.34,1.19,2.75,2.75,0,0,0,1.78.21,1.66,1.66,0,0,0,1.16-.9,1.69,1.69,0,0,0-.13-1.48,2.86,2.86,0,0,0-1.34-1.19A2.73,2.73,0,0,0,151.22,144.57Z"/><path class="cls-15" d="M150.48,145.32a1.45,1.45,0,0,1,1.07-.6c.69,0,1.07.26,1,.41s-.47-.08-.93-.06a1.14,1.14,0,0,0-.72.3C150.62,145.72,150.45,145.54,150.48,145.32Z"/><path class="cls-13" d="M155.57,140.47c.44-1,1.84-1.33,3.15-.74a2.37,2.37,0,0,1,1.57,2.86c-.43,1-1.84,1.33-3.14.75S155.14,141.47,155.57,140.47Z"/><path class="cls-14" d="M155.42,140.4a1.85,1.85,0,0,1,1.32-1,3.19,3.19,0,0,1,2,.23A3.33,3.33,0,0,1,160.3,141a1.89,1.89,0,0,1,.15,1.69,1.84,1.84,0,0,1-1.33,1,3.15,3.15,0,0,1-2-.23,3.3,3.3,0,0,1-1.54-1.37,1.89,1.89,0,0,1-.14-1.69Zm1.47-.76a1.64,1.64,0,0,0-1.16.9,1.66,1.66,0,0,0,.13,1.48,2.88,2.88,0,0,0,1.34,1.2,2.79,2.79,0,0,0,1.77.2,1.61,1.61,0,0,0,1.16-.9A1.66,1.66,0,0,0,160,141a2.84,2.84,0,0,0-1.35-1.19A2.72,2.72,0,0,0,156.89,139.64Z"/><path class="cls-15" d="M156.16,140.39a1.45,1.45,0,0,1,1.07-.6c.68,0,1.07.26,1,.41s-.47-.08-.92-.06a1.2,1.2,0,0,0-.73.3C156.29,140.79,156.13,140.61,156.16,140.39Z"/><path class="cls-13" d="M164.54,151.16c.44-1,1.84-1.33,3.15-.75a2.38,2.38,0,0,1,1.57,2.87c-.43,1-1.84,1.33-3.14.74S164.11,152.15,164.54,151.16Z"/><path class="cls-14" d="M164.39,151.09a1.82,1.82,0,0,1,1.32-1,3.19,3.19,0,0,1,2,.23,3.23,3.23,0,0,1,1.53,1.37,1.89,1.89,0,0,1,.15,1.69,1.84,1.84,0,0,1-1.33,1,3.16,3.16,0,0,1-2-.24,3.29,3.29,0,0,1-1.54-1.36,1.89,1.89,0,0,1-.14-1.69Zm1.47-.76a1.59,1.59,0,0,0-1.16.9,1.66,1.66,0,0,0,.13,1.48,2.86,2.86,0,0,0,1.34,1.19,2.8,2.8,0,0,0,1.77.21,1.64,1.64,0,0,0,1.16-.9,1.66,1.66,0,0,0-.12-1.48,2.91,2.91,0,0,0-1.35-1.2A2.78,2.78,0,0,0,165.86,150.33Z"/><path class="cls-15" d="M165.13,151.07a1.49,1.49,0,0,1,1.07-.6c.68,0,1.07.27,1,.42s-.47-.08-.92-.06a1.19,1.19,0,0,0-.73.29C165.27,151.48,165.1,151.3,165.13,151.07Z"/><path class="cls-13" d="M161.61,165.68c.43-1,1.84-1.34,3.14-.75a2.38,2.38,0,0,1,1.58,2.87c-.43,1-1.84,1.33-3.14.74A2.37,2.37,0,0,1,161.61,165.68Z"/><path class="cls-14" d="M161.45,165.6a1.89,1.89,0,0,1,1.33-1,3.41,3.41,0,0,1,3.56,1.6,1.91,1.91,0,0,1,.15,1.7,1.87,1.87,0,0,1-1.33,1,3.41,3.41,0,0,1-3.56-1.6,1.94,1.94,0,0,1-.15-1.7Zm1.48-.76a1.63,1.63,0,0,0-1.16.91,1.67,1.67,0,0,0,.13,1.48,2.82,2.82,0,0,0,1.34,1.19,2.87,2.87,0,0,0,1.77.21,1.63,1.63,0,0,0,1.16-.91,1.67,1.67,0,0,0-.13-1.48,2.82,2.82,0,0,0-1.34-1.19A2.87,2.87,0,0,0,162.93,164.84Z"/><path class="cls-15" d="M162.2,165.59a1.49,1.49,0,0,1,1.07-.6c.68,0,1.07.27,1,.42s-.47-.08-.92-.06a1.17,1.17,0,0,0-.73.29C162.33,166,162.17,165.82,162.2,165.59Z"/><path class="cls-13" d="M160.23,172c.48-1.11,2.05-1.49,3.51-.83s2.24,2.09,1.76,3.2-2.06,1.49-3.51.84S159.74,173.08,160.23,172Z"/><path class="cls-14" d="M160.05,171.88a2.09,2.09,0,0,1,1.48-1.15,3.6,3.6,0,0,1,2.27.26,3.68,3.68,0,0,1,1.71,1.53,2.13,2.13,0,0,1,.17,1.89,2.06,2.06,0,0,1-1.49,1.15,3.57,3.57,0,0,1-2.26-.26,3.69,3.69,0,0,1-1.72-1.52,2.14,2.14,0,0,1-.16-1.9Zm1.65-.85a1.83,1.83,0,0,0-1.3,1,1.89,1.89,0,0,0,.15,1.66,3.18,3.18,0,0,0,1.5,1.33,3.1,3.1,0,0,0,2,.23,1.79,1.79,0,0,0,1.29-1,1.83,1.83,0,0,0-.14-1.65,3.25,3.25,0,0,0-1.5-1.34A3.18,3.18,0,0,0,161.7,171Z"/><path class="cls-15" d="M160.88,171.87a1.66,1.66,0,0,1,1.2-.67c.76,0,1.19.29,1.15.46s-.52-.09-1-.07a1.32,1.32,0,0,0-.81.33C161,172.32,160.84,172.12,160.88,171.87Z"/><path class="cls-13" d="M143.47,166.72c.48-1.12,2.05-1.49,3.51-.84s2.25,2.09,1.76,3.21-2.06,1.49-3.51.83S143,167.83,143.47,166.72Z"/><path class="cls-14" d="M143.29,166.64a2.07,2.07,0,0,1,1.48-1.15,3.53,3.53,0,0,1,2.27.26,3.67,3.67,0,0,1,1.71,1.52,2.15,2.15,0,0,1,.17,1.9,2.09,2.09,0,0,1-1.49,1.15,3.8,3.8,0,0,1-4-1.79,2.12,2.12,0,0,1-.16-1.89Zm1.65-.85a1.83,1.83,0,0,0-1.3,1,1.87,1.87,0,0,0,.15,1.65,3.32,3.32,0,0,0,3.48,1.57,1.79,1.79,0,0,0,1.29-1,1.85,1.85,0,0,0-.14-1.66,3.18,3.18,0,0,0-1.5-1.33A3.11,3.11,0,0,0,144.94,165.79Z"/><path class="cls-15" d="M144.12,166.62a1.66,1.66,0,0,1,1.2-.67c.76,0,1.2.3,1.15.47s-.52-.09-1-.07a1.26,1.26,0,0,0-.81.33C144.27,167.08,144.09,166.88,144.12,166.62Z"/><path class="cls-13" d="M143.63,173.63c.48-1.11,2.05-1.49,3.51-.83s2.25,2.09,1.76,3.2-2.05,1.49-3.51.84S143.14,174.75,143.63,173.63Z"/><path class="cls-14" d="M143.45,173.55a2.09,2.09,0,0,1,1.49-1.15,3.57,3.57,0,0,1,2.26.26,3.63,3.63,0,0,1,1.71,1.53,2.1,2.1,0,0,1,.17,1.89,2.06,2.06,0,0,1-1.49,1.15,3.51,3.51,0,0,1-2.26-.26,3.69,3.69,0,0,1-1.72-1.52,2.14,2.14,0,0,1-.16-1.9Zm1.65-.85a1.83,1.83,0,0,0-1.3,1,1.89,1.89,0,0,0,.15,1.66,3.33,3.33,0,0,0,3.48,1.56,1.83,1.83,0,0,0,1.3-1,1.87,1.87,0,0,0-.15-1.65,3.32,3.32,0,0,0-3.48-1.57Z"/><path class="cls-15" d="M144.28,173.54a1.66,1.66,0,0,1,1.2-.67c.76,0,1.2.29,1.15.46s-.52-.09-1-.07a1.38,1.38,0,0,0-.81.33C144.43,174,144.25,173.79,144.28,173.54Z"/><path class="cls-13" d="M121.15,165.69c.49-1.11,2.06-1.49,3.52-.83s2.24,2.09,1.76,3.2-2.06,1.49-3.51.83S120.67,166.8,121.15,165.69Z"/><path class="cls-14" d="M121,165.61a2.07,2.07,0,0,1,1.48-1.15,3.6,3.6,0,0,1,2.27.26,3.68,3.68,0,0,1,1.71,1.53,2.16,2.16,0,0,1,.17,1.89,2.09,2.09,0,0,1-1.49,1.15,3.56,3.56,0,0,1-2.26-.26,3.66,3.66,0,0,1-1.72-1.53,2.12,2.12,0,0,1-.16-1.89Zm1.65-.85a1.83,1.83,0,0,0-1.3,1,1.92,1.92,0,0,0,.14,1.66,3.23,3.23,0,0,0,1.5,1.33,3.18,3.18,0,0,0,2,.23,1.79,1.79,0,0,0,1.3-1,1.83,1.83,0,0,0-.14-1.65,3.25,3.25,0,0,0-1.5-1.34A3.18,3.18,0,0,0,122.63,164.76Z"/><path class="cls-15" d="M121.81,165.6a1.64,1.64,0,0,1,1.2-.67c.76,0,1.19.29,1.15.46s-.52-.09-1-.07a1.32,1.32,0,0,0-.81.33C122,166.05,121.77,165.85,121.81,165.6Z"/><path class="cls-13" d="M107.5,157.73c.48-1.12,2-1.49,3.51-.84s2.24,2.09,1.76,3.21-2.06,1.48-3.51.83S107,158.84,107.5,157.73Z"/><path class="cls-14" d="M107.32,157.65a2.07,2.07,0,0,1,1.48-1.15,3.53,3.53,0,0,1,2.27.26,3.72,3.72,0,0,1,1.71,1.52,2.18,2.18,0,0,1,.17,1.9,2.09,2.09,0,0,1-1.49,1.15,3.8,3.8,0,0,1-4-1.79,2.12,2.12,0,0,1-.16-1.89Zm1.65-.85a1.83,1.83,0,0,0-1.3,1,1.9,1.9,0,0,0,.14,1.65,3.27,3.27,0,0,0,1.51,1.34,3.14,3.14,0,0,0,2,.23,1.79,1.79,0,0,0,1.3-1,1.85,1.85,0,0,0-.14-1.66A3.18,3.18,0,0,0,111,157,3.11,3.11,0,0,0,109,156.8Z"/><path class="cls-15" d="M108.15,157.63a1.66,1.66,0,0,1,1.2-.67c.76,0,1.19.3,1.15.47s-.52-.09-1-.07a1.26,1.26,0,0,0-.81.33C108.3,158.09,108.11,157.89,108.15,157.63Z"/><path class="cls-13" d="M87.08,142.31c.48-1.11,2-1.48,3.51-.83s2.24,2.09,1.76,3.2-2.06,1.49-3.51.84S86.59,143.43,87.08,142.31Z"/><path class="cls-14" d="M86.9,142.23a2.09,2.09,0,0,1,1.48-1.15,3.78,3.78,0,0,1,4,1.79,2.16,2.16,0,0,1,.17,1.89A2.06,2.06,0,0,1,91,145.91a3.5,3.5,0,0,1-2.26-.26,3.69,3.69,0,0,1-1.72-1.52,2.14,2.14,0,0,1-.16-1.9Zm1.65-.85a1.86,1.86,0,0,0-1.3,1,1.89,1.89,0,0,0,.15,1.66,3.33,3.33,0,0,0,3.48,1.56,1.79,1.79,0,0,0,1.29-1A1.83,1.83,0,0,0,92,143a3.25,3.25,0,0,0-1.5-1.34A3.18,3.18,0,0,0,88.55,141.38Z"/><path class="cls-15" d="M87.73,142.22a1.66,1.66,0,0,1,1.2-.67c.76,0,1.19.29,1.15.46s-.52-.09-1-.07a1.38,1.38,0,0,0-.81.33C87.88,142.68,87.69,142.47,87.73,142.22Z"/><path class="cls-13" d="M97.7,117.25c.48-1.11,2.06-1.48,3.51-.83s2.25,2.09,1.77,3.2-2.06,1.49-3.52.84S97.22,118.37,97.7,117.25Z"/><path class="cls-14" d="M97.52,117.17A2.09,2.09,0,0,1,99,116a3.84,3.84,0,0,1,4,1.79,2.12,2.12,0,0,1,.16,1.89,2.06,2.06,0,0,1-1.48,1.16,3.61,3.61,0,0,1-2.27-.27,3.66,3.66,0,0,1-1.71-1.52,2.18,2.18,0,0,1-.17-1.9Zm1.66-.84a1.78,1.78,0,0,0-1.3,1A1.85,1.85,0,0,0,98,119a3.18,3.18,0,0,0,1.5,1.33,3.11,3.11,0,0,0,2,.23,1.84,1.84,0,0,0,1.3-1,1.92,1.92,0,0,0-.14-1.66,3.23,3.23,0,0,0-1.5-1.33A3,3,0,0,0,99.18,116.33Z"/><path class="cls-15" d="M98.35,117.16a1.66,1.66,0,0,1,1.2-.67c.77,0,1.2.3,1.16.46s-.53-.08-1-.07a1.29,1.29,0,0,0-.81.34C98.51,117.62,98.32,117.41,98.35,117.16Z"/><path class="cls-13" d="M102.14,122.54c.49-1.12,2.06-1.49,3.52-.83s2.24,2.08,1.76,3.2-2.06,1.49-3.51.83S101.66,123.65,102.14,122.54Z"/><path class="cls-14" d="M102,122.46a2.07,2.07,0,0,1,1.48-1.15,3.6,3.6,0,0,1,2.27.26,3.68,3.68,0,0,1,1.71,1.53,2.15,2.15,0,0,1,.17,1.89,2.09,2.09,0,0,1-1.49,1.15,3.56,3.56,0,0,1-2.26-.26,3.66,3.66,0,0,1-1.72-1.53,2.12,2.12,0,0,1-.16-1.89Zm1.65-.85a1.83,1.83,0,0,0-1.3,1,1.9,1.9,0,0,0,.14,1.65,3.3,3.3,0,0,0,1.5,1.34,3.18,3.18,0,0,0,2,.23,1.79,1.79,0,0,0,1.3-1,1.86,1.86,0,0,0-.14-1.66,3.23,3.23,0,0,0-1.5-1.33A3.18,3.18,0,0,0,103.62,121.61Z"/><path class="cls-15" d="M102.8,122.45a1.69,1.69,0,0,1,1.2-.68c.76,0,1.19.3,1.15.47s-.52-.09-1-.07a1.32,1.32,0,0,0-.81.33C103,122.9,102.76,122.7,102.8,122.45Z"/><path class="cls-13" d="M67.78,113.15c.49-1.12,2.06-1.49,3.52-.83s2.24,2.09,1.76,3.2-2.06,1.49-3.51.83S67.3,114.26,67.78,113.15Z"/><path class="cls-14" d="M67.61,113.07a2.07,2.07,0,0,1,1.48-1.15,3.6,3.6,0,0,1,2.27.26,3.68,3.68,0,0,1,1.71,1.53,2.15,2.15,0,0,1,.17,1.89,2.09,2.09,0,0,1-1.49,1.15,3.56,3.56,0,0,1-2.26-.26A3.66,3.66,0,0,1,67.77,115a2.12,2.12,0,0,1-.16-1.89Zm1.65-.85a1.83,1.83,0,0,0-1.3,1,1.9,1.9,0,0,0,.14,1.65,3.24,3.24,0,0,0,1.5,1.34,3.18,3.18,0,0,0,2,.23,1.79,1.79,0,0,0,1.3-1,1.86,1.86,0,0,0-.14-1.66,3.23,3.23,0,0,0-1.5-1.33A3.18,3.18,0,0,0,69.26,112.22Z"/><path class="cls-15" d="M68.44,113.06a1.69,1.69,0,0,1,1.2-.68c.76,0,1.19.3,1.15.47s-.52-.09-1-.07a1.32,1.32,0,0,0-.81.33C68.59,113.51,68.4,113.31,68.44,113.06Z"/><path class="cls-13" d="M64.35,117.83c.48-1.11,2.06-1.49,3.51-.83s2.25,2.09,1.76,3.2-2.05,1.49-3.51.84S63.87,119,64.35,117.83Z"/><path class="cls-14" d="M64.17,117.75a2.09,2.09,0,0,1,1.49-1.15,3.57,3.57,0,0,1,2.26.26,3.66,3.66,0,0,1,1.72,1.53,2.12,2.12,0,0,1,.16,1.89,2.07,2.07,0,0,1-1.48,1.15,3.53,3.53,0,0,1-2.27-.26,3.72,3.72,0,0,1-1.71-1.52,2.18,2.18,0,0,1-.17-1.9Zm1.65-.85a1.79,1.79,0,0,0-1.29,1,1.85,1.85,0,0,0,.14,1.66,3.18,3.18,0,0,0,1.5,1.33,3.11,3.11,0,0,0,2,.23,1.83,1.83,0,0,0,1.3-1,1.87,1.87,0,0,0-.15-1.65,3.32,3.32,0,0,0-3.48-1.57Z"/><path class="cls-15" d="M65,117.74a1.66,1.66,0,0,1,1.2-.67c.77,0,1.2.29,1.16.46s-.53-.09-1-.07a1.41,1.41,0,0,0-.81.33C65.16,118.19,65,118,65,117.74Z"/><path class="cls-13" d="M57.64,111.73c.48-1.12,2-1.49,3.51-.84s2.24,2.09,1.76,3.21-2.06,1.48-3.51.83S57.15,112.84,57.64,111.73Z"/><path class="cls-14" d="M57.46,111.65a2.1,2.1,0,0,1,1.48-1.16,3.61,3.61,0,0,1,2.27.27,3.66,3.66,0,0,1,1.71,1.52,2.18,2.18,0,0,1,.17,1.9,2.09,2.09,0,0,1-1.49,1.15,3.8,3.8,0,0,1-4-1.79,2.12,2.12,0,0,1-.16-1.89Zm1.65-.85a1.83,1.83,0,0,0-1.3,1,1.9,1.9,0,0,0,.14,1.65,3.2,3.2,0,0,0,1.51,1.33,3.08,3.08,0,0,0,2,.24,1.82,1.82,0,0,0,1.3-1,1.85,1.85,0,0,0-.14-1.66,3.18,3.18,0,0,0-1.5-1.33A3.11,3.11,0,0,0,59.11,110.8Z"/><path class="cls-15" d="M58.29,111.63a1.66,1.66,0,0,1,1.2-.67c.76,0,1.19.3,1.15.47s-.52-.09-1-.07a1.26,1.26,0,0,0-.81.33C58.44,112.09,58.25,111.89,58.29,111.63Z"/><path class="cls-13" d="M71.2,125c.48-1.11,2.06-1.49,3.51-.83s2.25,2.09,1.76,3.2-2,1.49-3.51.83S70.72,126.1,71.2,125Z"/><path class="cls-14" d="M71,124.91a2.09,2.09,0,0,1,1.49-1.15,3.57,3.57,0,0,1,2.26.26,3.66,3.66,0,0,1,1.72,1.53,2.12,2.12,0,0,1,.16,1.89,2.09,2.09,0,0,1-1.48,1.15,3.6,3.6,0,0,1-2.27-.26,3.68,3.68,0,0,1-1.71-1.53,2.12,2.12,0,0,1-.17-1.89Zm1.65-.85a1.79,1.79,0,0,0-1.29,1,1.83,1.83,0,0,0,.14,1.65A3.32,3.32,0,0,0,75,128.29a1.83,1.83,0,0,0,1.3-1,1.87,1.87,0,0,0-.15-1.65,3.32,3.32,0,0,0-3.48-1.57Z"/><path class="cls-15" d="M71.85,124.9a1.66,1.66,0,0,1,1.2-.67c.77,0,1.2.29,1.16.46s-.53-.09-1-.07a1.34,1.34,0,0,0-.81.33C72,125.35,71.82,125.15,71.85,124.9Z"/><path class="cls-13" d="M109.36,120.13c.48-1.11,2-1.49,3.51-.83s2.25,2.09,1.76,3.2-2,1.49-3.51.83S108.87,121.25,109.36,120.13Z"/><path class="cls-14" d="M109.18,120.05a2.09,2.09,0,0,1,1.49-1.15,3.57,3.57,0,0,1,2.26.26,3.66,3.66,0,0,1,1.72,1.53,2.12,2.12,0,0,1,.16,1.89,2.06,2.06,0,0,1-1.49,1.15,3.57,3.57,0,0,1-2.26-.26,3.63,3.63,0,0,1-1.71-1.53,2.12,2.12,0,0,1-.17-1.89Zm1.65-.85a1.83,1.83,0,0,0-1.3,1,1.89,1.89,0,0,0,.15,1.66,3.23,3.23,0,0,0,1.5,1.33,3.17,3.17,0,0,0,2,.23,1.83,1.83,0,0,0,1.3-1,1.87,1.87,0,0,0-.15-1.65,3.32,3.32,0,0,0-3.48-1.57Z"/><path class="cls-15" d="M110,120a1.66,1.66,0,0,1,1.2-.67c.77,0,1.2.29,1.15.46s-.52-.09-1-.07a1.34,1.34,0,0,0-.81.33C110.16,120.49,110,120.29,110,120Z"/><path class="cls-13" d="M107.05,123.12c.48-1.11,2.06-1.49,3.51-.83s2.25,2.09,1.76,3.2-2,1.49-3.51.84S106.57,124.24,107.05,123.12Z"/><path class="cls-14" d="M106.87,123a2.09,2.09,0,0,1,1.49-1.15,3.57,3.57,0,0,1,2.26.26,3.66,3.66,0,0,1,1.72,1.53,2.12,2.12,0,0,1,.16,1.89,2.07,2.07,0,0,1-1.48,1.15,3.6,3.6,0,0,1-2.27-.26,3.72,3.72,0,0,1-1.71-1.52,2.15,2.15,0,0,1-.17-1.9Zm1.65-.85a1.79,1.79,0,0,0-1.29,1,1.85,1.85,0,0,0,.14,1.66,3.23,3.23,0,0,0,1.5,1.33,3.11,3.11,0,0,0,2,.23,1.83,1.83,0,0,0,1.3-1,1.87,1.87,0,0,0-.15-1.65,3.32,3.32,0,0,0-3.48-1.57Z"/><path class="cls-15" d="M107.7,123a1.66,1.66,0,0,1,1.2-.67c.77,0,1.2.29,1.16.46s-.53-.09-1-.07a1.34,1.34,0,0,0-.81.33C107.86,123.48,107.67,123.28,107.7,123Z"/><path class="cls-13" d="M119.71,124.07c.48-1.11,2.05-1.49,3.51-.83s2.25,2.09,1.76,3.2-2,1.49-3.51.83S119.22,125.19,119.71,124.07Z"/><path class="cls-14" d="M119.53,124a2.09,2.09,0,0,1,1.49-1.15,3.57,3.57,0,0,1,2.26.26,3.66,3.66,0,0,1,1.72,1.53,2.12,2.12,0,0,1,.16,1.89,2.06,2.06,0,0,1-1.49,1.15,3.57,3.57,0,0,1-2.26-.26,3.69,3.69,0,0,1-1.72-1.52,2.14,2.14,0,0,1-.16-1.9Zm1.65-.85a1.83,1.83,0,0,0-1.3,1,1.89,1.89,0,0,0,.15,1.66,3.18,3.18,0,0,0,1.5,1.33,3.1,3.1,0,0,0,2,.23,1.83,1.83,0,0,0,1.3-1,1.87,1.87,0,0,0-.15-1.65,3.32,3.32,0,0,0-3.48-1.57Z"/><path class="cls-15" d="M120.36,124a1.66,1.66,0,0,1,1.2-.67c.77,0,1.2.29,1.15.46s-.52-.09-1-.07a1.34,1.34,0,0,0-.81.33C120.51,124.43,120.33,124.23,120.36,124Z"/><path class="cls-13" d="M122.27,127.55c.49-1.12,2.06-1.49,3.52-.84s2.24,2.09,1.76,3.21-2.06,1.48-3.51.83S121.79,128.66,122.27,127.55Z"/><path class="cls-14" d="M122.1,127.47a2.08,2.08,0,0,1,1.48-1.16,3.61,3.61,0,0,1,2.27.27,3.66,3.66,0,0,1,1.71,1.52,2.18,2.18,0,0,1,.17,1.9,2.09,2.09,0,0,1-1.49,1.15,3.8,3.8,0,0,1-4-1.79,2.12,2.12,0,0,1-.16-1.89Zm1.65-.85a1.83,1.83,0,0,0-1.3,1,1.87,1.87,0,0,0,.14,1.65,3.18,3.18,0,0,0,1.5,1.33,3.12,3.12,0,0,0,2,.24,1.82,1.82,0,0,0,1.3-1,1.85,1.85,0,0,0-.14-1.66,3.18,3.18,0,0,0-1.5-1.33A3.11,3.11,0,0,0,123.75,126.62Z"/><path class="cls-15" d="M122.93,127.45a1.64,1.64,0,0,1,1.2-.67c.76,0,1.19.3,1.15.47s-.52-.09-1-.07a1.26,1.26,0,0,0-.81.33C123.08,127.91,122.89,127.71,122.93,127.45Z"/><path class="cls-13" d="M143.28,133c.48-1.11,2.05-1.49,3.51-.83s2.24,2.09,1.76,3.2-2.06,1.49-3.51.83S142.79,134.1,143.28,133Z"/><path class="cls-14" d="M143.1,132.9a2.09,2.09,0,0,1,1.48-1.15,3.6,3.6,0,0,1,2.27.26,3.68,3.68,0,0,1,1.71,1.53,2.13,2.13,0,0,1,.17,1.89,2.06,2.06,0,0,1-1.49,1.15,3.57,3.57,0,0,1-2.26-.26,3.66,3.66,0,0,1-1.72-1.53,2.12,2.12,0,0,1-.16-1.89Zm1.65-.85a1.83,1.83,0,0,0-1.3,1,1.89,1.89,0,0,0,.15,1.66,3.33,3.33,0,0,0,3.48,1.56,1.79,1.79,0,0,0,1.29-1,1.83,1.83,0,0,0-.14-1.65,3.25,3.25,0,0,0-1.5-1.34A3.18,3.18,0,0,0,144.75,132.05Z"/><path class="cls-15" d="M143.93,132.89a1.66,1.66,0,0,1,1.2-.67c.76,0,1.2.29,1.15.46s-.52-.09-1-.07a1.32,1.32,0,0,0-.81.33C144.08,133.34,143.9,133.14,143.93,132.89Z"/><path class="cls-13" d="M134.66,128.34a2.2,2.2,0,0,1,3-.72,2.28,2.28,0,0,1,1.51,2.74,2.2,2.2,0,0,1-3,.71A2.27,2.27,0,0,1,134.66,128.34Z"/><path class="cls-14" d="M134.51,128.27a1.78,1.78,0,0,1,1.27-1,3.28,3.28,0,0,1,3.4,1.53,1.83,1.83,0,0,1,.14,1.62,1.74,1.74,0,0,1-1.27,1,3,3,0,0,1-1.93-.22,3.15,3.15,0,0,1-1.47-1.3,1.83,1.83,0,0,1-.14-1.62Zm1.41-.73a1.47,1.47,0,0,0-1,2.28,2.72,2.72,0,0,0,1.28,1.14,2.67,2.67,0,0,0,1.69.19,1.52,1.52,0,0,0,1.11-.86,1.61,1.61,0,0,0-.12-1.41,2.74,2.74,0,0,0-1.29-1.14A2.68,2.68,0,0,0,135.92,127.54Z"/><path class="cls-15" d="M135.22,128.26a1.42,1.42,0,0,1,1-.58c.65,0,1,.26,1,.4s-.45-.08-.88-.06a1.12,1.12,0,0,0-.69.28C135.35,128.65,135.19,128.47,135.22,128.26Z"/><path class="cls-13" d="M170.09,161.9a2,2,0,0,1,2.68-.64,2,2,0,0,1,1.35,2.45,2,2,0,0,1-2.68.63A2,2,0,0,1,170.09,161.9Z"/><path class="cls-14" d="M170,161.84a1.54,1.54,0,0,1,1.13-.88,2.67,2.67,0,0,1,1.73.2,2.78,2.78,0,0,1,1.31,1.16,1.63,1.63,0,0,1,.12,1.45,1.56,1.56,0,0,1-1.13.88,2.8,2.8,0,0,1-1.73-.2,2.85,2.85,0,0,1-1.31-1.17,1.61,1.61,0,0,1-.12-1.44Zm1.26-.65a1.36,1.36,0,0,0-1,.77,1.41,1.41,0,0,0,.1,1.26,2.41,2.41,0,0,0,1.15,1,2.47,2.47,0,0,0,1.51.18,1.32,1.32,0,0,0,.88-2,2.44,2.44,0,0,0-1.14-1A2.39,2.39,0,0,0,171.22,161.19Z"/><path class="cls-15" d="M170.59,161.83a1.28,1.28,0,0,1,.92-.52c.58,0,.91.23.88.36s-.4-.07-.79,0a.93.93,0,0,0-.62.25C170.71,162.17,170.56,162,170.59,161.83Z"/><path class="cls-13" d="M168.32,168.29c.43-1,1.84-1.33,3.14-.74s2,1.87,1.57,2.86-1.83,1.34-3.14.75S167.88,169.29,168.32,168.29Z"/><path class="cls-14" d="M168.16,168.22a1.87,1.87,0,0,1,1.33-1,3.24,3.24,0,0,1,2,.24,3.29,3.29,0,0,1,1.54,1.36,1.94,1.94,0,0,1,.14,1.7,1.87,1.87,0,0,1-1.33,1,3.41,3.41,0,0,1-3.55-1.6,1.91,1.91,0,0,1-.15-1.7Zm1.48-.76a1.66,1.66,0,0,0-1.17.91,1.7,1.7,0,0,0,.13,1.48,2.91,2.91,0,0,0,1.34,1.19,2.81,2.81,0,0,0,1.78.2,1.59,1.59,0,0,0,1.16-.9,1.67,1.67,0,0,0-.13-1.48,2.91,2.91,0,0,0-1.34-1.19A2.87,2.87,0,0,0,169.64,167.46Z"/><path class="cls-15" d="M168.9,168.21a1.49,1.49,0,0,1,1.08-.6c.68,0,1.06.27,1,.42s-.47-.08-.93-.07a1.14,1.14,0,0,0-.72.3C169,168.62,168.87,168.44,168.9,168.21Z"/><path class="cls-13" d="M164.73,164.19a1.67,1.67,0,0,1,2.29-.54,1.73,1.73,0,0,1,1.16,2.09,1.7,1.7,0,0,1-2.3.55A1.74,1.74,0,0,1,164.73,164.19Z"/><path class="cls-14" d="M164.61,164.14a1.34,1.34,0,0,1,1-.75,2.29,2.29,0,0,1,1.48.17,2.39,2.39,0,0,1,1.12,1,1.3,1.3,0,0,1-.86,2,2.37,2.37,0,0,1-1.48-.18,2.33,2.33,0,0,1-1.12-1,1.41,1.41,0,0,1-.11-1.24Zm1.08-.56a1.21,1.21,0,0,0-.85.66,1.19,1.19,0,0,0,.1,1.08,2.16,2.16,0,0,0,2.27,1,1.18,1.18,0,0,0,.85-.66,1.22,1.22,0,0,0-.09-1.08,2.1,2.1,0,0,0-1-.88A2,2,0,0,0,165.69,163.58Z"/><path class="cls-15" d="M165.15,164.13a1.1,1.1,0,0,1,.79-.44c.5,0,.78.19.75.3s-.34-.05-.67,0a.81.81,0,0,0-.53.22C165.25,164.43,165.13,164.3,165.15,164.13Z"/><path class="cls-13" d="M165.67,155.17c.55-1.27,2.34-1.7,4-.95s2.56,2.39,2,3.66-2.35,1.7-4,1S165.11,156.44,165.67,155.17Z"/><path class="cls-14" d="M165.46,155.08a2.41,2.41,0,0,1,1.7-1.32,4.33,4.33,0,0,1,4.55,2.05,2.44,2.44,0,0,1,.18,2.16,2.38,2.38,0,0,1-1.69,1.32,4.33,4.33,0,0,1-4.55-2,2.44,2.44,0,0,1-.19-2.16Zm1.89-1a2.05,2.05,0,0,0-1.48,1.15,2.12,2.12,0,0,0,.16,1.89,3.68,3.68,0,0,0,1.71,1.53,3.6,3.6,0,0,0,2.27.26,2.09,2.09,0,0,0,1.48-1.15,2.12,2.12,0,0,0-.16-1.89,3.66,3.66,0,0,0-1.72-1.53A3.56,3.56,0,0,0,167.35,154.11Z"/><path class="cls-15" d="M166.41,155.06a1.88,1.88,0,0,1,1.37-.76c.88,0,1.37.34,1.32.53s-.6-.1-1.18-.08a1.42,1.42,0,0,0-.92.38C166.59,155.59,166.37,155.35,166.41,155.06Z"/><path class="cls-13" d="M141.93,145.48c.44-1,1.84-1.33,3.15-.75a2.38,2.38,0,0,1,1.57,2.87c-.43,1-1.84,1.33-3.14.74S141.5,146.47,141.93,145.48Z"/><path class="cls-14" d="M141.78,145.41a1.82,1.82,0,0,1,1.32-1,3.19,3.19,0,0,1,2,.23,3.23,3.23,0,0,1,1.53,1.37,1.89,1.89,0,0,1,.15,1.69,1.84,1.84,0,0,1-1.33,1,3.17,3.17,0,0,1-2-.24,3.29,3.29,0,0,1-1.54-1.36,1.92,1.92,0,0,1-.14-1.69Zm1.47-.76a1.59,1.59,0,0,0-1.16.9,1.66,1.66,0,0,0,.13,1.48,2.86,2.86,0,0,0,1.34,1.19,2.8,2.8,0,0,0,1.77.21,1.64,1.64,0,0,0,1.16-.9,1.66,1.66,0,0,0-.12-1.48,2.91,2.91,0,0,0-1.35-1.2A2.78,2.78,0,0,0,143.25,144.65Z"/><path class="cls-15" d="M142.52,145.39a1.49,1.49,0,0,1,1.07-.6c.69,0,1.07.27,1,.42s-.47-.08-.92-.06a1.14,1.14,0,0,0-.72.29C142.66,145.8,142.49,145.62,142.52,145.39Z"/><path class="cls-13" d="M138.4,141.39c.44-1,1.84-1.33,3.14-.75a2.38,2.38,0,0,1,1.58,2.87c-.43,1-1.84,1.33-3.14.74S138,142.39,138.4,141.39Z"/><path class="cls-14" d="M138.24,141.32a1.88,1.88,0,0,1,1.33-1,3.19,3.19,0,0,1,2,.23,3.28,3.28,0,0,1,1.53,1.37,1.89,1.89,0,0,1,.15,1.69,1.84,1.84,0,0,1-1.33,1,3.15,3.15,0,0,1-2-.23,3.31,3.31,0,0,1-1.54-1.37,1.92,1.92,0,0,1-.15-1.69Zm1.48-.76a1.61,1.61,0,0,0-1.16.9,1.66,1.66,0,0,0,.13,1.48,2.82,2.82,0,0,0,1.34,1.19,2.73,2.73,0,0,0,1.77.21,1.64,1.64,0,0,0,1.16-.9,1.66,1.66,0,0,0-.13-1.48,2.83,2.83,0,0,0-1.34-1.2A2.79,2.79,0,0,0,139.72,140.56Z"/><path class="cls-15" d="M139,141.31a1.45,1.45,0,0,1,1.07-.6c.68,0,1.07.26,1,.41s-.47-.08-.92-.06a1.25,1.25,0,0,0-.73.29C139.12,141.71,139,141.53,139,141.31Z"/><path class="cls-13" d="M147.46,139.69c.43-1,1.84-1.33,3.14-.74s2,1.87,1.58,2.86-1.84,1.33-3.15.75S147,140.69,147.46,139.69Z"/><path class="cls-14" d="M147.3,139.62a1.87,1.87,0,0,1,1.33-1,3.24,3.24,0,0,1,2,.24,3.29,3.29,0,0,1,1.54,1.36,1.92,1.92,0,0,1,.14,1.69,1.86,1.86,0,0,1-1.32,1,3.41,3.41,0,0,1-3.56-1.6,1.91,1.91,0,0,1-.15-1.7Zm1.48-.76a1.68,1.68,0,0,0-1.17.9,1.72,1.72,0,0,0,.13,1.49,2.94,2.94,0,0,0,1.35,1.19,2.78,2.78,0,0,0,1.77.2,1.59,1.59,0,0,0,1.16-.9,1.67,1.67,0,0,0-.13-1.48,2.91,2.91,0,0,0-1.34-1.19A2.87,2.87,0,0,0,148.78,138.86Z"/><path class="cls-15" d="M148,139.61a1.49,1.49,0,0,1,1.08-.6c.68,0,1.06.26,1,.42s-.47-.08-.93-.07a1.14,1.14,0,0,0-.72.3C148.18,140,148,139.84,148,139.61Z"/><path class="cls-13" d="M156.09,147.3c.53-1.23,2.27-1.64,3.88-.92s2.48,2.31,1.94,3.54-2.27,1.64-3.88.92S155.56,148.53,156.09,147.3Z"/><path class="cls-14" d="M155.9,147.21a2.3,2.3,0,0,1,1.63-1.27,4,4,0,0,1,2.5.29,4.1,4.1,0,0,1,1.9,1.68,2.4,2.4,0,0,1,.18,2.09,2.3,2.3,0,0,1-1.64,1.28,4.18,4.18,0,0,1-4.39-2,2.33,2.33,0,0,1-.18-2.09Zm1.82-.93a1.94,1.94,0,0,0-1.43,1.11,2,2,0,0,0,.15,1.82,3.56,3.56,0,0,0,1.66,1.48,3.46,3.46,0,0,0,2.18.25,2,2,0,0,0,1.44-1.11,2.06,2.06,0,0,0-.16-1.83,3.55,3.55,0,0,0-1.66-1.47A3.39,3.39,0,0,0,157.72,146.28Z"/><path class="cls-15" d="M156.81,147.2a1.81,1.81,0,0,1,1.33-.74c.84,0,1.32.32,1.27.51s-.58-.1-1.14-.08a1.47,1.47,0,0,0-.89.37C157,147.7,156.77,147.48,156.81,147.2Z"/><path class="cls-13" d="M125.52,161.72c.43-1,1.84-1.33,3.14-.74a2.37,2.37,0,0,1,1.58,2.86c-.43,1-1.84,1.33-3.14.75A2.38,2.38,0,0,1,125.52,161.72Z"/><path class="cls-14" d="M125.36,161.65a1.86,1.86,0,0,1,1.33-1,3.19,3.19,0,0,1,2,.23,3.33,3.33,0,0,1,1.53,1.37,1.89,1.89,0,0,1,.15,1.69,1.84,1.84,0,0,1-1.33,1,3.19,3.19,0,0,1-2-.23,3.28,3.28,0,0,1-1.53-1.37,1.92,1.92,0,0,1-.15-1.69Zm1.48-.76a1.64,1.64,0,0,0-1.16.9,1.66,1.66,0,0,0,.13,1.48,2.83,2.83,0,0,0,1.34,1.2,2.79,2.79,0,0,0,1.77.2,1.61,1.61,0,0,0,1.16-.9,1.66,1.66,0,0,0-.13-1.48,2.82,2.82,0,0,0-1.34-1.19A2.73,2.73,0,0,0,126.84,160.89Z"/><path class="cls-15" d="M126.11,161.64a1.45,1.45,0,0,1,1.07-.6c.68,0,1.07.26,1,.41s-.47-.08-.92-.06a1.17,1.17,0,0,0-.73.3C126.24,162,126.07,161.86,126.11,161.64Z"/><path class="cls-13" d="M125.56,152.64c.43-1,1.84-1.33,3.14-.74a2.37,2.37,0,0,1,1.58,2.86c-.43,1-1.84,1.33-3.14.75A2.38,2.38,0,0,1,125.56,152.64Z"/><path class="cls-14" d="M125.4,152.57a1.89,1.89,0,0,1,1.33-1,3.41,3.41,0,0,1,3.56,1.6,1.91,1.91,0,0,1,.15,1.7,1.87,1.87,0,0,1-1.33,1,3.43,3.43,0,0,1-3.56-1.6,1.94,1.94,0,0,1-.15-1.7Zm1.48-.76a1.64,1.64,0,0,0-1.16.9,1.68,1.68,0,0,0,.13,1.49,3,3,0,0,0,3.11,1.39,1.59,1.59,0,0,0,1.16-.9,1.67,1.67,0,0,0-.13-1.48,2.82,2.82,0,0,0-1.34-1.19A2.87,2.87,0,0,0,126.88,151.81Z"/><path class="cls-15" d="M126.15,152.56a1.49,1.49,0,0,1,1.07-.6c.68,0,1.07.27,1,.42s-.47-.08-.92-.07a1.17,1.17,0,0,0-.73.3C126.28,153,126.12,152.79,126.15,152.56Z"/><path class="cls-13" d="M118.54,158.12c.51-1.17,2.16-1.56,3.69-.87s2.35,2.19,1.85,3.36-2.16,1.56-3.69.87S118,159.29,118.54,158.12Z"/><path class="cls-14" d="M118.36,158a2.15,2.15,0,0,1,1.55-1.21,3.8,3.8,0,0,1,2.38.27,4,4,0,0,1,1.8,1.6,2.24,2.24,0,0,1,.17,2,2.19,2.19,0,0,1-1.56,1.21,3.71,3.71,0,0,1-2.37-.28,3.79,3.79,0,0,1-1.8-1.6,2.22,2.22,0,0,1-.17-2Zm1.73-.89a1.88,1.88,0,0,0-1.36,1,2,2,0,0,0,.15,1.74,3.34,3.34,0,0,0,1.57,1.4,3.28,3.28,0,0,0,2.08.24,1.91,1.91,0,0,0,1.36-1.06,1.94,1.94,0,0,0-.15-1.73,3.34,3.34,0,0,0-1.57-1.4A3.28,3.28,0,0,0,120.09,157.15Z"/><path class="cls-15" d="M119.23,158a1.74,1.74,0,0,1,1.26-.7c.8,0,1.25.31,1.21.49s-.55-.1-1.09-.08a1.45,1.45,0,0,0-.85.35C119.39,158.5,119.19,158.29,119.23,158Z"/><path class="cls-13" d="M123.38,149.18c.43-1,1.84-1.33,3.14-.74s2,1.87,1.57,2.86-1.84,1.33-3.14.75S122.94,150.18,123.38,149.18Z"/><path class="cls-14" d="M123.22,149.11a1.87,1.87,0,0,1,1.33-1,3.24,3.24,0,0,1,2,.24,3.29,3.29,0,0,1,1.54,1.36,1.94,1.94,0,0,1,.14,1.7,1.87,1.87,0,0,1-1.33,1,3.24,3.24,0,0,1-2-.24,3.29,3.29,0,0,1-1.54-1.36,1.94,1.94,0,0,1-.14-1.7Zm1.48-.76a1.68,1.68,0,0,0-1.17.9,1.72,1.72,0,0,0,.13,1.49,2.91,2.91,0,0,0,1.34,1.19,2.79,2.79,0,0,0,1.77.2,1.61,1.61,0,0,0,1.17-.9,1.7,1.7,0,0,0-.13-1.48,2.91,2.91,0,0,0-1.34-1.19A2.87,2.87,0,0,0,124.7,148.35Z"/><path class="cls-15" d="M124,149.1a1.49,1.49,0,0,1,1.07-.6c.69,0,1.07.27,1,.42s-.47-.08-.93-.07a1.14,1.14,0,0,0-.72.3C124.1,149.51,123.93,149.33,124,149.1Z"/><path class="cls-13" d="M114.59,156.75c.43-1,1.84-1.33,3.14-.75s2,1.87,1.58,2.87-1.84,1.33-3.15.74S114.15,157.74,114.59,156.75Z"/><path class="cls-14" d="M114.43,156.68a1.84,1.84,0,0,1,1.33-1,3.16,3.16,0,0,1,2,.23,3.25,3.25,0,0,1,1.54,1.37,1.92,1.92,0,0,1,.14,1.69,1.85,1.85,0,0,1-1.32,1,3.2,3.2,0,0,1-2-.24,3.26,3.26,0,0,1-1.53-1.36,1.89,1.89,0,0,1-.15-1.69Zm1.48-.76a1.59,1.59,0,0,0-1.16.9,1.66,1.66,0,0,0,.12,1.48,2.89,2.89,0,0,0,1.35,1.19,2.79,2.79,0,0,0,1.77.21,1.64,1.64,0,0,0,1.16-.9,1.66,1.66,0,0,0-.13-1.48,2.88,2.88,0,0,0-1.34-1.2A2.79,2.79,0,0,0,115.91,155.92Z"/><path class="cls-15" d="M115.17,156.66a1.49,1.49,0,0,1,1.08-.6c.68,0,1.06.27,1,.42s-.47-.08-.93-.06a1.19,1.19,0,0,0-.72.29C115.31,157.07,115.14,156.89,115.17,156.66Z"/><path class="cls-13" d="M114,136.38c.59-1.37,2.52-1.83,4.3-1s2.76,2.55,2.16,3.92-2.52,1.82-4.3,1S113.4,137.74,114,136.38Z"/><path class="cls-14" d="M113.77,136.28a2.53,2.53,0,0,1,1.82-1.41,4.37,4.37,0,0,1,2.78.32,4.5,4.5,0,0,1,2.1,1.87,2.6,2.6,0,0,1,.2,2.32,2.55,2.55,0,0,1-1.82,1.41,4.41,4.41,0,0,1-2.77-.32A4.53,4.53,0,0,1,114,138.6a2.66,2.66,0,0,1-.2-2.32Zm2-1a2.21,2.21,0,0,0-1.59,1.23,2.29,2.29,0,0,0,.17,2,4,4,0,0,0,1.84,1.64,3.89,3.89,0,0,0,2.43.28,2.23,2.23,0,0,0,1.59-1.24,2.3,2.3,0,0,0-.18-2,4.08,4.08,0,0,0-4.26-1.91Z"/><path class="cls-15" d="M114.79,136.26a2.05,2.05,0,0,1,1.47-.82c.94,0,1.47.36,1.41.57s-.64-.11-1.26-.09a1.62,1.62,0,0,0-1,.41C115,136.82,114.75,136.57,114.79,136.26Z"/><path class="cls-13" d="M111.2,127.69c.52-1.19,2.2-1.59,3.76-.89s2.41,2.24,1.89,3.43-2.2,1.6-3.76.89S110.68,128.89,111.2,127.69Z"/><path class="cls-14" d="M111,127.61a2.26,2.26,0,0,1,1.59-1.24,3.83,3.83,0,0,1,2.43.29,3.87,3.87,0,0,1,1.83,1.63,2.26,2.26,0,0,1,.18,2,2.23,2.23,0,0,1-1.59,1.23,4.08,4.08,0,0,1-4.26-1.91,2.3,2.3,0,0,1-.18-2Zm1.77-.91a1.94,1.94,0,0,0-1.39,1.08,2,2,0,0,0,.15,1.77,3.44,3.44,0,0,0,1.61,1.43,3.34,3.34,0,0,0,2.12.25,1.94,1.94,0,0,0,1.39-1.08,2,2,0,0,0-.15-1.78A3.38,3.38,0,0,0,114.9,127,3.34,3.34,0,0,0,112.78,126.7Z"/><path class="cls-15" d="M111.9,127.59a1.81,1.81,0,0,1,1.29-.72c.82,0,1.28.32,1.23.5s-.56-.09-1.1-.07a1.42,1.42,0,0,0-.87.35C112.07,128.08,111.86,127.87,111.9,127.59Z"/><path class="cls-13" d="M103.46,136c.55-1.27,2.33-1.69,4-.95s2.55,2.37,2,3.64-2.34,1.68-4,.94S102.91,137.21,103.46,136Z"/><path class="cls-14" d="M103.26,135.86a2.34,2.34,0,0,1,1.69-1.31,4.32,4.32,0,0,1,4.51,2,2.42,2.42,0,0,1,.19,2.15A2.37,2.37,0,0,1,108,140a4,4,0,0,1-2.57-.29,4.11,4.11,0,0,1-1.94-1.74,2.4,2.4,0,0,1-.19-2.14Zm1.87-1a2.07,2.07,0,0,0-1.47,1.15,2.14,2.14,0,0,0,.16,1.88,3.65,3.65,0,0,0,1.71,1.51,3.51,3.51,0,0,0,2.24.26,2.06,2.06,0,0,0,1.48-1.14,2.14,2.14,0,0,0-.17-1.88,3.76,3.76,0,0,0-4-1.78Z"/><path class="cls-15" d="M104.2,135.84a1.87,1.87,0,0,1,1.36-.76c.87,0,1.36.33,1.31.53s-.59-.1-1.17-.08a1.5,1.5,0,0,0-.92.37C104.38,136.36,104.16,136.13,104.2,135.84Z"/><path class="cls-13" d="M108.56,133.34c.43-1,1.85-1.33,3.15-.75s2,1.88,1.58,2.88-1.84,1.33-3.15.75A2.39,2.39,0,0,1,108.56,133.34Z"/><path class="cls-14" d="M108.4,133.27a1.86,1.86,0,0,1,1.33-1,3.18,3.18,0,0,1,2,.23,3.31,3.31,0,0,1,1.54,1.37,1.91,1.91,0,0,1,.15,1.7,1.84,1.84,0,0,1-1.33,1,3.18,3.18,0,0,1-2-.23,3.31,3.31,0,0,1-1.54-1.37,1.91,1.91,0,0,1-.15-1.7Zm1.48-.76a1.64,1.64,0,0,0-1.16.9,1.68,1.68,0,0,0,.13,1.49,2.82,2.82,0,0,0,1.34,1.19,2.76,2.76,0,0,0,1.78.21,1.64,1.64,0,0,0,1.16-.9,1.68,1.68,0,0,0-.12-1.49,2.89,2.89,0,0,0-1.35-1.19A2.75,2.75,0,0,0,109.88,132.51Z"/><path class="cls-15" d="M109.15,133.26a1.45,1.45,0,0,1,1.07-.6c.69,0,1.08.26,1,.41s-.47-.08-.93-.06a1.2,1.2,0,0,0-.73.3C109.28,133.67,109.12,133.49,109.15,133.26Z"/><path class="cls-13" d="M110.3,144c.43-1,1.84-1.33,3.14-.75a2.38,2.38,0,0,1,1.58,2.87c-.43,1-1.84,1.33-3.14.74A2.37,2.37,0,0,1,110.3,144Z"/><path class="cls-14" d="M110.14,143.93a1.84,1.84,0,0,1,1.33-1,3.19,3.19,0,0,1,2,.23A3.23,3.23,0,0,1,115,144.5a1.89,1.89,0,0,1,.15,1.69,1.84,1.84,0,0,1-1.33,1,3.2,3.2,0,0,1-2-.24,3.26,3.26,0,0,1-1.53-1.36,1.92,1.92,0,0,1-.15-1.69Zm1.48-.76a1.59,1.59,0,0,0-1.16.9,1.66,1.66,0,0,0,.13,1.48,2.82,2.82,0,0,0,1.34,1.19,2.73,2.73,0,0,0,1.77.21,1.64,1.64,0,0,0,1.16-.9,1.66,1.66,0,0,0-.13-1.48,2.83,2.83,0,0,0-1.34-1.2A2.79,2.79,0,0,0,111.62,143.17Z"/><path class="cls-15" d="M110.88,143.92a1.51,1.51,0,0,1,1.08-.61c.68,0,1.07.27,1,.42s-.47-.08-.92-.06a1.23,1.23,0,0,0-.73.29C111,144.32,110.85,144.14,110.88,143.92Z"/><path class="cls-13" d="M112.54,150.58c.43-1,1.84-1.33,3.14-.75s2,1.87,1.57,2.87-1.83,1.33-3.14.74S112.1,151.58,112.54,150.58Z"/><path class="cls-14" d="M112.38,150.51a1.84,1.84,0,0,1,1.33-1,3.16,3.16,0,0,1,2,.23,3.25,3.25,0,0,1,1.54,1.37,1.92,1.92,0,0,1,.14,1.69,1.84,1.84,0,0,1-1.33,1,3.23,3.23,0,0,1-2-.23,3.36,3.36,0,0,1-1.54-1.37,1.92,1.92,0,0,1-.14-1.69Zm1.48-.76a1.63,1.63,0,0,0-1.17.9,1.7,1.7,0,0,0,.13,1.48,2.91,2.91,0,0,0,1.34,1.19,2.75,2.75,0,0,0,1.78.21,1.66,1.66,0,0,0,1.16-.9,1.69,1.69,0,0,0-.13-1.48,2.93,2.93,0,0,0-1.34-1.2A2.79,2.79,0,0,0,113.86,149.75Z"/><path class="cls-15" d="M113.12,150.5a1.48,1.48,0,0,1,1.07-.61c.69,0,1.07.27,1,.42s-.47-.08-.93-.06a1.19,1.19,0,0,0-.72.29C113.26,150.9,113.09,150.72,113.12,150.5Z"/><path class="cls-13" d="M112.62,145.63c.43-1,1.84-1.33,3.14-.74s2,1.87,1.58,2.87-1.84,1.33-3.15.74S112.18,146.63,112.62,145.63Z"/><path class="cls-14" d="M112.46,145.56a1.87,1.87,0,0,1,1.33-1,3.24,3.24,0,0,1,2,.24,3.29,3.29,0,0,1,1.54,1.36,1.94,1.94,0,0,1,.14,1.7,1.87,1.87,0,0,1-1.32,1,3.41,3.41,0,0,1-3.56-1.6,1.91,1.91,0,0,1-.15-1.7Zm1.48-.76a1.63,1.63,0,0,0-1.16.91,1.66,1.66,0,0,0,.12,1.48,2.89,2.89,0,0,0,1.35,1.19,2.86,2.86,0,0,0,1.77.21,1.63,1.63,0,0,0,1.16-.91,1.67,1.67,0,0,0-.13-1.48,2.91,2.91,0,0,0-1.34-1.19A2.87,2.87,0,0,0,113.94,144.8Z"/><path class="cls-15" d="M113.2,145.55a1.49,1.49,0,0,1,1.08-.6c.68,0,1.06.27,1,.42s-.47-.08-.93-.07a1.2,1.2,0,0,0-.72.3C113.34,146,113.17,145.78,113.2,145.55Z"/><path class="cls-13" d="M121.07,135c.43-1,1.84-1.33,3.14-.74s2,1.87,1.58,2.86-1.84,1.33-3.15.75A2.38,2.38,0,0,1,121.07,135Z"/><path class="cls-14" d="M120.91,134.89a1.84,1.84,0,0,1,1.33-1,3.16,3.16,0,0,1,2,.24,3.29,3.29,0,0,1,1.54,1.36,1.89,1.89,0,0,1,.14,1.69,1.82,1.82,0,0,1-1.32,1,3.19,3.19,0,0,1-2-.23,3.23,3.23,0,0,1-1.53-1.37,1.89,1.89,0,0,1-.15-1.69Zm1.48-.76a1.64,1.64,0,0,0-1.16.9,1.66,1.66,0,0,0,.12,1.48,2.91,2.91,0,0,0,1.35,1.2,2.78,2.78,0,0,0,1.77.2,1.59,1.59,0,0,0,1.16-.9,1.66,1.66,0,0,0-.13-1.48,3,3,0,0,0-3.11-1.4Z"/><path class="cls-15" d="M121.65,134.88a1.49,1.49,0,0,1,1.08-.6c.68,0,1.07.26,1,.41s-.47-.07-.93-.06a1.14,1.14,0,0,0-.72.3C121.79,135.29,121.62,135.11,121.65,134.88Z"/><path class="cls-13" d="M114.05,140.44c.51-1.17,2.16-1.56,3.68-.88s2.36,2.2,1.85,3.37-2.16,1.56-3.68.87S113.54,141.61,114.05,140.44Z"/><path class="cls-14" d="M113.86,140.36a2.17,2.17,0,0,1,1.56-1.21,3.81,3.81,0,0,1,2.38.27,3.89,3.89,0,0,1,1.8,1.6,2.27,2.27,0,0,1,.17,2,2.19,2.19,0,0,1-1.56,1.21,3.71,3.71,0,0,1-2.37-.28,3.8,3.8,0,0,1-1.8-1.6,2.22,2.22,0,0,1-.18-2Zm1.74-.9a1.93,1.93,0,0,0-1.37,1.06,2,2,0,0,0,.15,1.74,3.41,3.41,0,0,0,1.58,1.4,3.25,3.25,0,0,0,2.07.24,1.9,1.9,0,0,0,1.37-1.06,2,2,0,0,0-.15-1.73,3.36,3.36,0,0,0-1.58-1.4A3.33,3.33,0,0,0,115.6,139.46Z"/><path class="cls-15" d="M114.73,140.34a1.74,1.74,0,0,1,1.26-.7c.8,0,1.26.31,1.21.48s-.55-.09-1.08-.07a1.36,1.36,0,0,0-.85.35C114.9,140.82,114.7,140.61,114.73,140.34Z"/><path class="cls-13" d="M118.88,131.5c.44-1,1.84-1.33,3.15-.74a2.37,2.37,0,0,1,1.57,2.86c-.43,1-1.84,1.33-3.14.75S118.45,132.5,118.88,131.5Z"/><path class="cls-14" d="M118.73,131.43a1.85,1.85,0,0,1,1.32-1,3.2,3.2,0,0,1,2,.24,3.26,3.26,0,0,1,1.53,1.36,1.89,1.89,0,0,1,.15,1.69,1.82,1.82,0,0,1-1.33,1,3.15,3.15,0,0,1-2-.23,3.25,3.25,0,0,1-1.54-1.37,1.89,1.89,0,0,1-.14-1.69Zm1.47-.76a1.64,1.64,0,0,0-1.16.9,1.66,1.66,0,0,0,.13,1.48,2.83,2.83,0,0,0,1.34,1.2,2.79,2.79,0,0,0,1.77.2,1.59,1.59,0,0,0,1.16-.9,1.66,1.66,0,0,0-.12-1.48,2.89,2.89,0,0,0-1.35-1.19A2.79,2.79,0,0,0,120.2,130.67Z"/><path class="cls-15" d="M119.47,131.42a1.49,1.49,0,0,1,1.07-.6c.68,0,1.07.26,1,.41s-.47-.07-.92-.06a1.2,1.2,0,0,0-.73.3C119.6,131.83,119.44,131.65,119.47,131.42Z"/><path class="cls-13" d="M110.09,139.07c.44-1,1.84-1.33,3.15-.75s2,1.87,1.57,2.87-1.84,1.33-3.14.74S109.66,140.06,110.09,139.07Z"/><path class="cls-14" d="M109.94,139a1.86,1.86,0,0,1,1.32-1,3.41,3.41,0,0,1,3.56,1.6,1.91,1.91,0,0,1,.15,1.7,1.87,1.87,0,0,1-1.33,1,3.17,3.17,0,0,1-2-.24,3.29,3.29,0,0,1-1.54-1.36,1.92,1.92,0,0,1-.14-1.69Zm1.47-.76a1.59,1.59,0,0,0-1.16.9,1.67,1.67,0,0,0,.13,1.48,3,3,0,0,0,3.11,1.4,1.64,1.64,0,0,0,1.16-.9,1.66,1.66,0,0,0-.12-1.48,2.91,2.91,0,0,0-1.35-1.2A2.78,2.78,0,0,0,111.41,138.24Z"/><path class="cls-15" d="M110.68,139a1.49,1.49,0,0,1,1.07-.6c.69,0,1.07.27,1,.42s-.47-.08-.92-.06a1.14,1.14,0,0,0-.72.29C110.82,139.39,110.65,139.21,110.68,139Z"/><path class="cls-13" d="M98,134.41c.59-1.36,2.52-1.82,4.3-1s2.75,2.56,2.16,3.93-2.52,1.82-4.31,1S97.39,135.78,98,134.41Z"/><path class="cls-14" d="M97.77,134.31a2.58,2.58,0,0,1,1.82-1.41,4.69,4.69,0,0,1,4.87,2.19,2.6,2.6,0,0,1,.2,2.32,2.49,2.49,0,0,1-1.81,1.41,4.36,4.36,0,0,1-2.78-.32,4.5,4.5,0,0,1-2.1-1.87,2.59,2.59,0,0,1-.2-2.32Zm2-1a2.26,2.26,0,0,0-1.59,1.24,2.3,2.3,0,0,0,.18,2,3.85,3.85,0,0,0,1.84,1.63,3.79,3.79,0,0,0,2.42.28,2.18,2.18,0,0,0,1.59-1.23,2.29,2.29,0,0,0-.17-2,4,4,0,0,0-1.84-1.63A3.83,3.83,0,0,0,99.79,133.27Z"/><path class="cls-15" d="M98.79,134.3a2,2,0,0,1,1.47-.83c.93,0,1.46.37,1.41.57s-.64-.1-1.26-.08a1.59,1.59,0,0,0-1,.4C99,134.86,98.74,134.61,98.79,134.3Z"/><path class="cls-13" d="M95.2,125.73c.52-1.2,2.2-1.59,3.76-.89s2.4,2.23,1.89,3.43-2.21,1.59-3.77.89S94.68,126.92,95.2,125.73Z"/><path class="cls-14" d="M95,125.64a2.21,2.21,0,0,1,1.59-1.23,3.87,3.87,0,0,1,2.42.28,4,4,0,0,1,1.84,1.63,2.33,2.33,0,0,1,.18,2,2.26,2.26,0,0,1-1.59,1.24A3.83,3.83,0,0,1,97,129.3a4,4,0,0,1-1.84-1.63,2.29,2.29,0,0,1-.17-2Zm1.77-.91a1.94,1.94,0,0,0-1.39,1.08,2,2,0,0,0,.15,1.78A3.38,3.38,0,0,0,97.15,129a3.33,3.33,0,0,0,2.12.25,1.94,1.94,0,0,0,1.39-1.08,2,2,0,0,0-.16-1.77A3.42,3.42,0,0,0,98.9,125,3.34,3.34,0,0,0,96.78,124.73Z"/><path class="cls-15" d="M95.9,125.63a1.77,1.77,0,0,1,1.28-.72c.82,0,1.28.32,1.24.5s-.56-.1-1.11-.08a1.43,1.43,0,0,0-.87.36C96.06,126.12,95.86,125.9,95.9,125.63Z"/><path class="cls-13" d="M87.46,134c.54-1.26,2.33-1.69,4-.94s2.55,2.37,2,3.63-2.33,1.69-4,1S86.91,135.25,87.46,134Z"/><path class="cls-14" d="M87.26,133.89a2.37,2.37,0,0,1,1.68-1.31,4.13,4.13,0,0,1,2.57.3,4.22,4.22,0,0,1,1.95,1.73,2.43,2.43,0,0,1,.18,2.15A2.32,2.32,0,0,1,92,138.07a4.06,4.06,0,0,1-2.57-.3,4.22,4.22,0,0,1-2-1.73,2.39,2.39,0,0,1-.18-2.15Zm1.87-1a2,2,0,0,0-1.47,1.14,2.1,2.1,0,0,0,.16,1.88,3.62,3.62,0,0,0,1.7,1.51,3.55,3.55,0,0,0,2.25.27,2.05,2.05,0,0,0,1.47-1.15,2.1,2.1,0,0,0-.16-1.88,3.67,3.67,0,0,0-1.7-1.51A3.54,3.54,0,0,0,89.13,132.93Z"/><path class="cls-15" d="M88.2,133.88a1.88,1.88,0,0,1,1.36-.77c.87,0,1.36.34,1.31.53s-.6-.1-1.17-.08a1.48,1.48,0,0,0-.92.38C88.37,134.39,88.16,134.16,88.2,133.88Z"/><path class="cls-13" d="M92.56,131.38c.43-1,1.84-1.34,3.15-.75s2,1.87,1.58,2.87a2.31,2.31,0,0,1-3.15.75C92.83,133.66,92.12,132.38,92.56,131.38Z"/><path class="cls-14" d="M92.4,131.31a1.86,1.86,0,0,1,1.33-1,3.42,3.42,0,0,1,3.57,1.61,1.92,1.92,0,0,1,.15,1.69,1.89,1.89,0,0,1-1.34,1,3.2,3.2,0,0,1-2-.24A3.3,3.3,0,0,1,92.54,133a1.92,1.92,0,0,1-.14-1.69Zm1.48-.77a1.66,1.66,0,0,0-1.17.91,1.69,1.69,0,0,0,.13,1.48A3,3,0,0,0,96,134.34a1.62,1.62,0,0,0,1.17-.91A1.66,1.66,0,0,0,97,132a2.91,2.91,0,0,0-1.35-1.2A2.87,2.87,0,0,0,93.88,130.54Z"/><path class="cls-15" d="M93.14,131.29a1.49,1.49,0,0,1,1.08-.6c.68,0,1.07.27,1,.42s-.47-.08-.92-.06a1.14,1.14,0,0,0-.73.29C93.28,131.7,93.11,131.52,93.14,131.29Z"/><path class="cls-13" d="M94.3,142c.43-1,1.84-1.33,3.14-.74s2,1.87,1.57,2.86-1.83,1.33-3.14.75S93.86,143,94.3,142Z"/><path class="cls-14" d="M94.14,142a1.87,1.87,0,0,1,1.33-1,3.24,3.24,0,0,1,2,.24A3.29,3.29,0,0,1,99,142.53a1.94,1.94,0,0,1,.14,1.7,1.87,1.87,0,0,1-1.33,1,3.24,3.24,0,0,1-2-.24,3.34,3.34,0,0,1-1.54-1.36,1.94,1.94,0,0,1-.14-1.7Zm1.48-.76a1.68,1.68,0,0,0-1.17.9,1.72,1.72,0,0,0,.13,1.49,2.91,2.91,0,0,0,1.34,1.19,2.81,2.81,0,0,0,1.78.2,1.59,1.59,0,0,0,1.16-.9,1.67,1.67,0,0,0-.13-1.48,2.91,2.91,0,0,0-1.34-1.19A2.87,2.87,0,0,0,95.62,141.2Z"/><path class="cls-15" d="M94.88,142a1.49,1.49,0,0,1,1.08-.6c.68,0,1.06.27,1,.42s-.47-.08-.93-.07a1.14,1.14,0,0,0-.72.3C95,142.36,94.85,142.18,94.88,142Z"/><path class="cls-13" d="M96.53,148.61c.43-1,1.84-1.33,3.14-.74a2.37,2.37,0,0,1,1.58,2.86c-.43,1-1.84,1.34-3.14.75A2.38,2.38,0,0,1,96.53,148.61Z"/><path class="cls-14" d="M96.37,148.54a1.89,1.89,0,0,1,1.33-1,3.41,3.41,0,0,1,3.56,1.6,1.91,1.91,0,0,1,.15,1.7,1.87,1.87,0,0,1-1.33,1,3.43,3.43,0,0,1-3.56-1.6,1.94,1.94,0,0,1-.15-1.7Zm1.48-.76a1.63,1.63,0,0,0-1.16.91,1.67,1.67,0,0,0,.13,1.48,2.82,2.82,0,0,0,1.34,1.19,2.87,2.87,0,0,0,1.77.21,1.63,1.63,0,0,0,1.16-.91,1.67,1.67,0,0,0-.13-1.48A2.82,2.82,0,0,0,99.62,148,2.87,2.87,0,0,0,97.85,147.78Z"/><path class="cls-15" d="M97.12,148.53a1.49,1.49,0,0,1,1.07-.6c.68,0,1.07.27,1,.42s-.47-.08-.92-.07a1.17,1.17,0,0,0-.73.3C97.25,148.94,97.09,148.76,97.12,148.53Z"/><path class="cls-13" d="M96.61,143.67c.44-1,1.84-1.33,3.15-.75a2.38,2.38,0,0,1,1.57,2.87c-.43,1-1.84,1.33-3.14.75S96.18,144.67,96.61,143.67Z"/><path class="cls-14" d="M96.45,143.6a1.88,1.88,0,0,1,1.33-1,3.19,3.19,0,0,1,2,.23,3.28,3.28,0,0,1,1.53,1.37,1.89,1.89,0,0,1,.15,1.69,1.84,1.84,0,0,1-1.33,1,3.15,3.15,0,0,1-2-.23,3.3,3.3,0,0,1-1.54-1.37,1.92,1.92,0,0,1-.15-1.69Zm1.48-.76a1.64,1.64,0,0,0-1.16.9,1.66,1.66,0,0,0,.13,1.48,2.77,2.77,0,0,0,1.34,1.19,2.73,2.73,0,0,0,1.77.21,1.61,1.61,0,0,0,1.16-.9,1.69,1.69,0,0,0-.12-1.48,2.84,2.84,0,0,0-1.35-1.19A2.73,2.73,0,0,0,97.93,142.84Z"/><path class="cls-15" d="M97.2,143.59a1.45,1.45,0,0,1,1.07-.6c.68,0,1.07.26,1,.41s-.47-.08-.92-.06a1.2,1.2,0,0,0-.73.3C97.33,144,97.17,143.81,97.2,143.59Z"/><path class="cls-13" d="M105.06,133c.44-1,1.84-1.33,3.15-.75a2.38,2.38,0,0,1,1.57,2.87c-.43,1-1.84,1.33-3.14.74S104.63,134,105.06,133Z"/><path class="cls-14" d="M104.91,132.93a1.82,1.82,0,0,1,1.32-1,3.19,3.19,0,0,1,2,.23,3.23,3.23,0,0,1,1.53,1.37,1.89,1.89,0,0,1,.15,1.69,1.84,1.84,0,0,1-1.33,1,3.17,3.17,0,0,1-2-.24,3.29,3.29,0,0,1-1.54-1.36,1.92,1.92,0,0,1-.14-1.69Zm1.47-.76a1.59,1.59,0,0,0-1.16.9,1.66,1.66,0,0,0,.13,1.48,2.86,2.86,0,0,0,1.34,1.19,2.8,2.8,0,0,0,1.77.21,1.64,1.64,0,0,0,1.16-.9,1.66,1.66,0,0,0-.12-1.48,2.91,2.91,0,0,0-1.35-1.2A2.78,2.78,0,0,0,106.38,132.17Z"/><path class="cls-15" d="M105.65,132.91a1.49,1.49,0,0,1,1.07-.6c.69,0,1.07.27,1,.42s-.47-.08-.92-.06a1.19,1.19,0,0,0-.72.29C105.79,133.32,105.62,133.14,105.65,132.91Z"/><path class="cls-13" d="M98,138.47c.51-1.17,2.16-1.56,3.69-.87s2.35,2.19,1.85,3.36-2.16,1.56-3.69.87S97.54,139.64,98,138.47Z"/><path class="cls-14" d="M97.86,138.39a2.19,2.19,0,0,1,1.56-1.21,3.71,3.71,0,0,1,2.37.28,3.79,3.79,0,0,1,1.8,1.6,2.22,2.22,0,0,1,.17,2,2.15,2.15,0,0,1-1.55,1.21,3.8,3.8,0,0,1-2.38-.27,4,4,0,0,1-1.8-1.6,2.24,2.24,0,0,1-.17-2Zm1.73-.89a1.91,1.91,0,0,0-1.36,1.06,1.94,1.94,0,0,0,.15,1.73,3.34,3.34,0,0,0,1.57,1.4,3.28,3.28,0,0,0,2.08.24,1.88,1.88,0,0,0,1.36-1.05,2,2,0,0,0-.15-1.74,3.34,3.34,0,0,0-1.57-1.4A3.28,3.28,0,0,0,99.59,137.5Z"/><path class="cls-15" d="M98.73,138.38a1.73,1.73,0,0,1,1.26-.71c.8,0,1.25.31,1.21.49s-.55-.09-1.08-.07a1.33,1.33,0,0,0-.85.34C98.89,138.85,98.69,138.64,98.73,138.38Z"/><path class="cls-13" d="M102.88,129.54c.43-1,1.84-1.33,3.14-.75s2,1.87,1.58,2.87-1.84,1.33-3.15.74A2.37,2.37,0,0,1,102.88,129.54Z"/><path class="cls-14" d="M102.72,129.47a1.82,1.82,0,0,1,1.33-1,3.15,3.15,0,0,1,2,.23,3.25,3.25,0,0,1,1.54,1.37,1.89,1.89,0,0,1,.14,1.69,1.85,1.85,0,0,1-1.32,1,3.2,3.2,0,0,1-2-.24,3.26,3.26,0,0,1-1.53-1.36,1.89,1.89,0,0,1-.15-1.69Zm1.48-.76a1.59,1.59,0,0,0-1.16.9,1.66,1.66,0,0,0,.12,1.48,2.89,2.89,0,0,0,1.35,1.19,2.79,2.79,0,0,0,1.77.21,1.64,1.64,0,0,0,1.16-.9,1.66,1.66,0,0,0-.13-1.48,2.88,2.88,0,0,0-1.34-1.2A2.79,2.79,0,0,0,104.2,128.71Z"/><path class="cls-15" d="M103.46,129.45a1.49,1.49,0,0,1,1.08-.6c.68,0,1.07.27,1,.42s-.47-.08-.93-.06a1.14,1.14,0,0,0-.72.29C103.6,129.86,103.43,129.68,103.46,129.45Z"/><path class="cls-13" d="M94.09,137.1c.43-1,1.84-1.33,3.14-.74a2.37,2.37,0,0,1,1.58,2.86c-.43,1-1.84,1.33-3.14.75A2.38,2.38,0,0,1,94.09,137.1Z"/><path class="cls-14" d="M93.93,137a1.84,1.84,0,0,1,1.33-1,3.16,3.16,0,0,1,2,.24,3.24,3.24,0,0,1,1.54,1.36,1.92,1.92,0,0,1,.15,1.69,1.84,1.84,0,0,1-1.33,1,3.19,3.19,0,0,1-2-.23,3.23,3.23,0,0,1-1.53-1.37,1.89,1.89,0,0,1-.15-1.69Zm1.48-.76a1.64,1.64,0,0,0-1.16.9,1.66,1.66,0,0,0,.13,1.48,2.83,2.83,0,0,0,1.34,1.2,2.79,2.79,0,0,0,1.77.2,1.59,1.59,0,0,0,1.16-.9,1.66,1.66,0,0,0-.13-1.48,3,3,0,0,0-3.11-1.4Z"/><path class="cls-15" d="M94.67,137a1.52,1.52,0,0,1,1.08-.6c.68,0,1.07.26,1,.41s-.47-.08-.92-.06a1.15,1.15,0,0,0-.73.3C94.81,137.43,94.64,137.25,94.67,137Z"/><path class="cls-13" d="M84.32,121.68c.59-1.36,2.52-1.82,4.3-1s2.75,2.56,2.16,3.93-2.52,1.82-4.3,1S83.73,123.05,84.32,121.68Z"/><path class="cls-14" d="M84.1,121.59a2.53,2.53,0,0,1,1.82-1.41,4.34,4.34,0,0,1,2.77.32,4.48,4.48,0,0,1,2.11,1.87,2.66,2.66,0,0,1,.2,2.32,2.58,2.58,0,0,1-1.82,1.41,4.65,4.65,0,0,1-4.88-2.19,2.66,2.66,0,0,1-.2-2.32Zm2-1a2.22,2.22,0,0,0-1.59,1.23,2.3,2.3,0,0,0,.18,2,3.9,3.9,0,0,0,1.84,1.63,3.8,3.8,0,0,0,2.42.29,2.22,2.22,0,0,0,1.59-1.24,2.29,2.29,0,0,0-.17-2,4,4,0,0,0-1.84-1.63A3.82,3.82,0,0,0,86.12,120.55Z"/><path class="cls-15" d="M85.12,121.57a2,2,0,0,1,1.47-.82c.93,0,1.46.36,1.41.57s-.64-.11-1.26-.09a1.65,1.65,0,0,0-1,.41C85.31,122.13,85.08,121.88,85.12,121.57Z"/><path class="cls-13" d="M81.53,113c.52-1.19,2.2-1.59,3.76-.89s2.41,2.24,1.89,3.43-2.2,1.59-3.76.89S81,114.2,81.53,113Z"/><path class="cls-14" d="M81.34,112.92a2.24,2.24,0,0,1,1.59-1.24,3.8,3.8,0,0,1,2.42.29,3.85,3.85,0,0,1,1.84,1.63,2.3,2.3,0,0,1,.18,2,2.25,2.25,0,0,1-1.59,1.23,3.89,3.89,0,0,1-2.43-.28,4,4,0,0,1-1.84-1.64,2.27,2.27,0,0,1-.17-2Zm1.77-.91a1.92,1.92,0,0,0-1.39,1.08,2,2,0,0,0,.15,1.77,3.44,3.44,0,0,0,1.61,1.43,3.34,3.34,0,0,0,2.12.25A2,2,0,0,0,87,115.46a2,2,0,0,0-.15-1.78,3.44,3.44,0,0,0-1.61-1.43A3.41,3.41,0,0,0,83.11,112Z"/><path class="cls-15" d="M82.23,112.9a1.8,1.8,0,0,1,1.28-.72c.82,0,1.28.32,1.24.5s-.56-.09-1.11-.07a1.37,1.37,0,0,0-.86.35C82.39,113.39,82.19,113.17,82.23,112.9Z"/><path class="cls-13" d="M73.79,121.25c.55-1.26,2.33-1.68,4-.94s2.55,2.37,2,3.64-2.33,1.68-4,.94S73.24,122.52,73.79,121.25Z"/><path class="cls-14" d="M73.59,121.16a2.33,2.33,0,0,1,1.68-1.3,4,4,0,0,1,2.57.3,4.11,4.11,0,0,1,2,1.73A2.42,2.42,0,0,1,80,124a2.33,2.33,0,0,1-1.68,1.3,4,4,0,0,1-2.57-.3,4.11,4.11,0,0,1-2-1.73,2.42,2.42,0,0,1-.18-2.15Zm1.87-1A2,2,0,0,0,74,121.34a2.1,2.1,0,0,0,.16,1.88A3.76,3.76,0,0,0,78.1,125a2,2,0,0,0,1.47-1.14,2.1,2.1,0,0,0-.16-1.88,3.76,3.76,0,0,0-4-1.78Z"/><path class="cls-15" d="M74.53,121.15a1.85,1.85,0,0,1,1.36-.76c.87,0,1.36.33,1.31.52s-.6-.1-1.17-.07a1.47,1.47,0,0,0-.92.37C74.7,121.67,74.49,121.44,74.53,121.15Z"/><path class="cls-13" d="M78.89,118.65c.43-1,1.84-1.33,3.15-.75s2,1.88,1.58,2.88-1.85,1.33-3.15.74S78.45,119.65,78.89,118.65Z"/><path class="cls-14" d="M78.73,118.58a1.84,1.84,0,0,1,1.33-1,3.19,3.19,0,0,1,2,.23,3.36,3.36,0,0,1,1.54,1.37,1.94,1.94,0,0,1,.15,1.7,1.86,1.86,0,0,1-1.34,1,3.2,3.2,0,0,1-2-.23,3.33,3.33,0,0,1-1.53-1.37,1.91,1.91,0,0,1-.15-1.7Zm1.48-.76a1.61,1.61,0,0,0-1.16.9,1.68,1.68,0,0,0,.12,1.49,2.89,2.89,0,0,0,1.35,1.19,2.75,2.75,0,0,0,1.78.21,1.64,1.64,0,0,0,1.16-.9,1.68,1.68,0,0,0-.13-1.49A2.93,2.93,0,0,0,82,118,2.82,2.82,0,0,0,80.21,117.82Z"/><path class="cls-15" d="M79.47,118.57a1.51,1.51,0,0,1,1.08-.61c.69,0,1.07.27,1,.42s-.47-.08-.92-.06a1.17,1.17,0,0,0-.73.3C79.61,119,79.44,118.8,79.47,118.57Z"/><path class="cls-13" d="M80.63,129.31c.43-1,1.84-1.33,3.14-.75s2,1.87,1.58,2.87-1.84,1.33-3.15.74A2.37,2.37,0,0,1,80.63,129.31Z"/><path class="cls-14" d="M80.47,129.24a1.82,1.82,0,0,1,1.33-1,3.16,3.16,0,0,1,2,.23,3.25,3.25,0,0,1,1.54,1.37,1.92,1.92,0,0,1,.14,1.69,1.85,1.85,0,0,1-1.32,1,3.2,3.2,0,0,1-2-.24,3.26,3.26,0,0,1-1.53-1.36,1.89,1.89,0,0,1-.15-1.69Zm1.48-.76a1.59,1.59,0,0,0-1.16.9,1.66,1.66,0,0,0,.12,1.48,2.89,2.89,0,0,0,1.35,1.19,2.79,2.79,0,0,0,1.77.21,1.64,1.64,0,0,0,1.16-.9,1.66,1.66,0,0,0-.13-1.48,2.88,2.88,0,0,0-1.34-1.2A2.79,2.79,0,0,0,82,128.48Z"/><path class="cls-15" d="M81.21,129.22a1.49,1.49,0,0,1,1.08-.6c.68,0,1.07.27,1,.42s-.47-.08-.93-.06a1.14,1.14,0,0,0-.72.29C81.35,129.63,81.18,129.45,81.21,129.22Z"/><path class="cls-13" d="M82.86,135.89c.44-1,1.84-1.33,3.15-.75A2.38,2.38,0,0,1,87.58,138c-.43,1-1.84,1.33-3.14.74S82.43,136.88,82.86,135.89Z"/><path class="cls-14" d="M82.71,135.82a1.82,1.82,0,0,1,1.32-1,3.19,3.19,0,0,1,2,.23,3.23,3.23,0,0,1,1.53,1.37,1.89,1.89,0,0,1,.15,1.69,1.84,1.84,0,0,1-1.33,1,3.16,3.16,0,0,1-2-.24,3.29,3.29,0,0,1-1.54-1.36,1.89,1.89,0,0,1-.14-1.69Zm1.47-.76A1.59,1.59,0,0,0,83,136a1.66,1.66,0,0,0,.13,1.48,3,3,0,0,0,3.11,1.4,1.64,1.64,0,0,0,1.16-.9,1.66,1.66,0,0,0-.12-1.48,2.91,2.91,0,0,0-1.35-1.2A2.78,2.78,0,0,0,84.18,135.06Z"/><path class="cls-15" d="M83.45,135.8a1.49,1.49,0,0,1,1.07-.6c.68,0,1.07.27,1,.42s-.47-.08-.92-.06a1.19,1.19,0,0,0-.73.29C83.58,136.21,83.42,136,83.45,135.8Z"/><path class="cls-13" d="M82.94,130.94c.44-1,1.84-1.33,3.15-.74a2.37,2.37,0,0,1,1.57,2.86c-.43,1-1.84,1.33-3.14.75S82.51,131.94,82.94,130.94Z"/><path class="cls-14" d="M82.79,130.87a1.87,1.87,0,0,1,1.32-1,3.41,3.41,0,0,1,3.56,1.6,1.89,1.89,0,0,1,.15,1.69,1.86,1.86,0,0,1-1.33,1,3.24,3.24,0,0,1-2-.24,3.29,3.29,0,0,1-1.54-1.36,1.94,1.94,0,0,1-.14-1.7Zm1.47-.76a1.64,1.64,0,0,0-1.16.9,1.68,1.68,0,0,0,.13,1.49,2.86,2.86,0,0,0,1.34,1.19,2.79,2.79,0,0,0,1.77.2,1.59,1.59,0,0,0,1.16-.9,1.66,1.66,0,0,0-.12-1.48A2.89,2.89,0,0,0,86,130.32,2.86,2.86,0,0,0,84.26,130.11Z"/><path class="cls-15" d="M83.53,130.86a1.49,1.49,0,0,1,1.07-.6c.69,0,1.07.26,1,.42s-.47-.08-.92-.07a1.14,1.14,0,0,0-.72.3C83.67,131.27,83.5,131.09,83.53,130.86Z"/><path class="cls-13" d="M91.4,120.27c.43-1,1.83-1.33,3.14-.74s2,1.86,1.57,2.86-1.84,1.33-3.14.75S91,121.27,91.4,120.27Z"/><path class="cls-14" d="M91.24,120.2a1.84,1.84,0,0,1,1.33-1,3.23,3.23,0,0,1,2,.23,3.36,3.36,0,0,1,1.54,1.37,1.92,1.92,0,0,1,.14,1.69,1.84,1.84,0,0,1-1.33,1,3.16,3.16,0,0,1-2-.23,3.25,3.25,0,0,1-1.54-1.37,1.92,1.92,0,0,1-.14-1.69Zm1.47-.76a1.66,1.66,0,0,0-1.16.9,1.69,1.69,0,0,0,.13,1.48A2.93,2.93,0,0,0,93,123a2.79,2.79,0,0,0,1.77.2,1.63,1.63,0,0,0,1.17-.9,1.7,1.7,0,0,0-.13-1.48,2.91,2.91,0,0,0-1.34-1.19A2.75,2.75,0,0,0,92.71,119.44Z"/><path class="cls-15" d="M92,120.19a1.45,1.45,0,0,1,1.07-.6c.69,0,1.07.26,1,.41s-.46-.08-.92-.06a1.14,1.14,0,0,0-.72.3C92.12,120.6,92,120.41,92,120.19Z"/><path class="cls-13" d="M84.38,125.75c.5-1.17,2.15-1.56,3.68-.88s2.36,2.19,1.85,3.36-2.16,1.56-3.69.88S83.87,126.92,84.38,125.75Z"/><path class="cls-14" d="M84.19,125.66a2.16,2.16,0,0,1,1.56-1.2,4,4,0,0,1,4.17,1.87,2.24,2.24,0,0,1,.17,2,2.18,2.18,0,0,1-1.55,1.21,3.81,3.81,0,0,1-2.38-.28,3.89,3.89,0,0,1-1.8-1.6,2.27,2.27,0,0,1-.17-2Zm1.73-.89a1.91,1.91,0,0,0-1.36,1.06,2,2,0,0,0,.15,1.74,3.39,3.39,0,0,0,1.57,1.4,3.28,3.28,0,0,0,2.08.24,1.89,1.89,0,0,0,1.36-1.06,1.93,1.93,0,0,0-.15-1.74A3.37,3.37,0,0,0,88,125,3.29,3.29,0,0,0,85.92,124.77Z"/><path class="cls-15" d="M85.06,125.65a1.77,1.77,0,0,1,1.26-.71c.8,0,1.25.32,1.21.49s-.55-.09-1.08-.07a1.29,1.29,0,0,0-.85.35C85.22,126.13,85,125.92,85.06,125.65Z"/><path class="cls-13" d="M89.21,116.81c.43-1,1.84-1.33,3.14-.74a2.37,2.37,0,0,1,1.58,2.86c-.43,1-1.84,1.33-3.14.75A2.38,2.38,0,0,1,89.21,116.81Z"/><path class="cls-14" d="M89.05,116.74a1.84,1.84,0,0,1,1.33-1,3.22,3.22,0,0,1,2,.23,3.31,3.31,0,0,1,1.54,1.37,1.92,1.92,0,0,1,.15,1.69,1.86,1.86,0,0,1-1.33,1,3.19,3.19,0,0,1-2-.23,3.23,3.23,0,0,1-1.53-1.37,1.89,1.89,0,0,1-.15-1.69Zm1.48-.76a1.64,1.64,0,0,0-1.16.9,1.66,1.66,0,0,0,.13,1.48,2.83,2.83,0,0,0,1.34,1.2,2.79,2.79,0,0,0,1.77.2,1.59,1.59,0,0,0,1.16-.9,1.66,1.66,0,0,0-.13-1.48,2.82,2.82,0,0,0-1.34-1.19A2.73,2.73,0,0,0,90.53,116Z"/><path class="cls-15" d="M89.79,116.73a1.48,1.48,0,0,1,1.08-.6c.68,0,1.07.26,1,.41s-.47-.08-.92-.06a1.15,1.15,0,0,0-.73.3C89.93,117.14,89.76,117,89.79,116.73Z"/><path class="cls-13" d="M80.42,124.37c.43-1,1.84-1.33,3.14-.74a2.38,2.38,0,0,1,1.58,2.87c-.43,1-1.84,1.33-3.14.74A2.38,2.38,0,0,1,80.42,124.37Z"/><path class="cls-14" d="M80.26,124.3a1.87,1.87,0,0,1,1.33-1,3.41,3.41,0,0,1,3.56,1.6,1.91,1.91,0,0,1,.15,1.7,1.87,1.87,0,0,1-1.33,1,3.41,3.41,0,0,1-3.56-1.6,1.94,1.94,0,0,1-.15-1.7Zm1.48-.76a1.63,1.63,0,0,0-1.16.91,1.67,1.67,0,0,0,.13,1.48,2.82,2.82,0,0,0,1.34,1.19,2.87,2.87,0,0,0,1.77.21,1.63,1.63,0,0,0,1.16-.91,1.67,1.67,0,0,0-.13-1.48,2.82,2.82,0,0,0-1.34-1.19A2.87,2.87,0,0,0,81.74,123.54Z"/><path class="cls-15" d="M81,124.29a1.52,1.52,0,0,1,1.08-.6c.68,0,1.07.27,1,.42s-.47-.08-.92-.06a1.17,1.17,0,0,0-.73.29C81.14,124.7,81,124.52,81,124.29Z"/></svg>