<svg xmlns="http://www.w3.org/2000/svg" viewBox="0 0 252 252"><defs><style>.cls-1{fill:#6e4b29;}.cls-2{fill:#c4dd58;}.cls-3,.cls-6{fill:#97aa29;}.cls-3,.cls-5{opacity:0.34;}.cls-4{fill:#443b31;}.cls-11,.cls-5,.cls-8{fill:#fff;}.cls-6{opacity:0.17;}.cls-7{fill:#f9f4ef;}.cls-8{opacity:0.96;}.cls-12,.cls-9{opacity:0.73;}.cls-10,.cls-12{fill:#a06c3f;}.cls-10{opacity:0.49;}.cls-11{opacity:0.15;}</style></defs><g id="Layer_30" data-name="Layer 30"><path class="cls-1" d="M69.7,149.31c5.53-6.68,13.64-10.74,21.59-14.39,6.22-2.85,12.56-5.6,19.29-6.94,14.7-2.94,38.71,1.37,47.73,14.55a95.53,95.53,0,0,1,12.43,26.71c2.39,8,6,19.67,4.42,28-3.16,16.23-20.25,31.29-34.7,37.33-18.89,7.9-42.07,5.46-58.41-6.72C59.62,211.17,51.13,171.7,69.7,149.31Z"/><path class="cls-2" d="M74.91,145.92c-5.63,7.75-7.3,17.81-6.53,27.36,1.7,20.95,15.26,40.63,34.39,49.32s43.1,5.85,59.44-7.38a39.58,39.58,0,0,0,11.36-14,40,40,0,0,0,3.25-15.73c.47-22.94-13.78-45-33.87-56.05-11-6.06-25.35-9.07-37.23-3.79C95.1,130.39,81.9,136.3,74.91,145.92Z"/><path class="cls-3" d="M106.75,196.09a30.42,30.42,0,0,0-1-4.46,10.8,10.8,0,0,0-5.2-5.17c-2.21-1.15-4.63-1.85-6.94-2.78a10,10,0,0,1-3.71-2.3c-2.46-2.69-1.77-7.09.21-10.14s5-5.32,7.26-8.14c1.58-1.94,2.91-4.22,5.11-5.42,3.12-1.7,7.45-.91,10-3.44,1.14-1.16,1.63-2.8,2.54-4.15a10,10,0,0,1,7.94-4.08,19.53,19.53,0,0,1,8.92,2.13,19.16,19.16,0,0,1,6.16,4.22c2,2.2,3.16,5,4.67,7.57a30,30,0,0,0,7.22,8.26,11.83,11.83,0,0,1,2.89,2.75,9.29,9.29,0,0,1,1.08,4.3c.27,3.64.14,7.62-2.1,10.51-2.08,2.67-5.53,3.85-8,6.12-1.94,1.75-3.24,4.08-5,6-4.76,5.06-11.47,4.71-17.69,6.42C114.49,206.05,108.29,202.77,106.75,196.09Z"/><path class="cls-2" d="M108.66,170.9a5.47,5.47,0,0,1-1.6-1c-1.33-1.43.43-3.8,2.35-4.19s4,.21,5.83-.35c2.8-.83,4.21-3.85,5.8-6.31s4.61-4.81,7.2-3.45c1.6.84,2.27,2.73,2.92,4.41a37.07,37.07,0,0,0,4.86,8.8c2.19,2.94,4.93,5.83,5.25,9.49.28,3.2-1.38,6.21-3,9-.91,1.59-2,3.31-3.79,3.74-1.22.29-2.5-.11-3.75-.08-4,.1-7,4.41-11,4.35-3.6-.05-6.1-3.59-7.4-6.94C110.49,183.55,113.67,173.47,108.66,170.9Z"/><path class="cls-4" d="M103.68,182.59c5-1.55-4.43-5.66-3.8-1.11a1.5,1.5,0,0,0,1.08,1A4.22,4.22,0,0,0,103.68,182.59Z"/><path class="cls-4" d="M120.05,149.52h0l.18,0Z"/><path class="cls-4" d="M120.06,149.52c-.77.2-1.09,1.22-1.22,2a4.46,4.46,0,0,0,0,2,1.51,1.51,0,0,0,1.46,1.14c.71-.07,1.17-.79,1.38-1.47a3.61,3.61,0,0,0,0-2.25A2.21,2.21,0,0,0,120.06,149.52Z"/><path class="cls-4" d="M129.16,149.55h-.1c.17-.2-.11-.53-.37-.48s-.43.3-.53.54a2.9,2.9,0,0,0,0,2.24c.07.15.18.32.35.34a.46.46,0,0,0,.36-.15A1.91,1.91,0,0,0,129.16,149.55Z"/><path class="cls-4" d="M143.76,166.87a2.73,2.73,0,0,0,2.07-.63c3.33-3.27-6-4.62-3.87-.28A2,2,0,0,0,143.76,166.87Z"/><path class="cls-4" d="M105.27,163.23a2.75,2.75,0,0,0-1.15-1.76c-1-.8-3-1.39-3,.24a2.18,2.18,0,0,0,0,.42C101.46,163.5,105.56,166.1,105.27,163.23Z"/><path class="cls-4" d="M107.54,195.35c-.75-.51-.88.15-1.78.26a5.05,5.05,0,0,0-2.76.91,1.77,1.77,0,0,0-.23,2.58,2.38,2.38,0,0,0,2,.21,4.31,4.31,0,0,0,3.13-2A1.58,1.58,0,0,0,107.54,195.35Z"/><path class="cls-4" d="M104.13,191.65c0,.52.51.89,1,1.09a2.83,2.83,0,0,0,1.72.19c2.9-.73-.1-4.08-2.3-2A1.13,1.13,0,0,0,104.13,191.65Z"/><path class="cls-4" d="M112.93,200a.37.37,0,0,0,.3-.31C113.06,199.91,112.71,200.15,112.93,200Z"/><path class="cls-4" d="M113.21,199.5c0-.15-.13-.22,0,0Z"/><path class="cls-4" d="M113.21,199.5s0,.06,0,.09l0,0Z"/><path class="cls-4" d="M113.24,199.66v0a.37.37,0,0,1-.3.31c-.22.15.13-.09.3-.31a.31.31,0,0,0,0-.1,4.2,4.2,0,0,0-1.64,2.8,2.57,2.57,0,0,0,.28,1.66,1.5,1.5,0,0,0,1.44.74,2,2,0,0,0,1.37-1.48,3.53,3.53,0,0,0,.13-2.2A2.05,2.05,0,0,0,113.24,199.66Z"/><path class="cls-4" d="M129.68,198.12c-.83.73-.51,3.13-.26,4,.3,1,1.16,2.15,2.23,2A2.05,2.05,0,0,0,133,203C133.94,201.26,132,196,129.68,198.12Z"/><path class="cls-4" d="M136.65,197.47a1.45,1.45,0,0,0-1.6-.11c-1.29.93.17,3,1.12,3.52a1.63,1.63,0,0,0,1.92,0C139,200,137.87,198.18,136.65,197.47Z"/><path class="cls-4" d="M147.76,196.47a1.55,1.55,0,0,0,.92.15l.17-.05a1.27,1.27,0,0,0,.64-1.33C149.17,193.23,144.66,195.25,147.76,196.47Z"/><path class="cls-4" d="M142.18,188.13a1.62,1.62,0,0,0-.37.62c-.72,1.91,2.69,4.52,3.83,2.49S143.54,186.72,142.18,188.13Z"/><path class="cls-4" d="M146.69,183.67a1.85,1.85,0,0,0,.85.68,6,6,0,0,0,1.36.44c1.25.26,2.79.22,3.22-.88C153.29,181,144.68,180.32,146.69,183.67Z"/><path class="cls-4" d="M142.91,176.05s0,0,0,.07c1.13,3.63,6.82-1.14,3.34-2C145,173.75,142.45,174.41,142.91,176.05Z"/><path class="cls-5" d="M135.14,142.69a23.4,23.4,0,0,1,9.22,8.38c2.08,3.31,3.6,7.41,7.14,9.08a2.49,2.49,0,0,0,1.43.3,2.72,2.72,0,0,0,1.77-1.74c1.84-4,1.22-8.76-.75-12.67s-5.14-7.08-8.47-9.92-6.72-5.28-10.75-6.55c-3.34-1-12.06-1.89-12.91,3C120.72,139,131.22,140.72,135.14,142.69Z"/><path class="cls-6" d="M132.46,223.36a28,28,0,0,1-8.61.07c-3-.31-5.89.06-8.86-.76-2.5-.69-5-1.91-7.48-2.78-2.05-.72-4.52-2-4.31-4.22.14-1.54,1.74-2.61,3.28-2.75a12.61,12.61,0,0,1,4.56.81,28.07,28.07,0,0,0,10.19,1c6.12-.57,12-3.47,18.14-2.76,1.59.18,3.43.89,3.73,2.46a3.51,3.51,0,0,1-.36,2.05C141,220.4,136.67,222.54,132.46,223.36Z"/><path class="cls-7" d="M175.75,196.22c-.05-.35.45-3.77.37-4.1-.45,1.56-2.42,7.48-3.06,8.87a38.83,38.83,0,0,1-11.21,13.8c-16.1,13-39.75,16-58.84,7.3A58.06,58.06,0,0,1,79.5,202.22a59.39,59.39,0,0,1-10.56-29c-.85-10.52,1.43-20.1,6.42-27a39.2,39.2,0,0,1,8.92-8.58l-.14.05s2.46-2.32,2.44-2.31c-1.52,1-3,.75-7.19,4.93l-.58.36a35.16,35.16,0,0,0-4.35,4.89c-5.15,7.1-7.51,16.94-6.64,27.73a60.5,60.5,0,0,0,10.76,29.54,59.17,59.17,0,0,0,24,20.25,58.74,58.74,0,0,0,60-7.45,40,40,0,0,0,11.52-14.2c.26-.57.5-1.15.73-1.75C174.83,199,175.72,196.93,175.75,196.22Z"/><path class="cls-8" d="M108.66,170.9a5.47,5.47,0,0,1-1.6-1c-1.33-1.43.43-3.8,2.35-4.19s4,.21,5.83-.35c2.8-.83,4.21-3.85,5.8-6.31s4.61-4.81,7.2-3.45c1.6.84,2.27,2.73,2.92,4.41a37.07,37.07,0,0,0,4.86,8.8c2.19,2.94,4.93,5.83,5.25,9.49.28,3.2-1.38,6.21-3,9-.91,1.59-2,3.31-3.79,3.74-1.22.29-2.5-.11-3.75-.08-4,.1-7,4.41-11,4.35-3.6-.05-6.1-3.59-7.4-6.94C110.49,183.55,113.67,173.47,108.66,170.9Z"/></g><g id="Layer_29" data-name="Layer 29"><path class="cls-1" d="M176.82,185.5c.47-22.94-13.78-45-33.87-56.05-11-6.06-25.35-9.07-37.23-3.79-6.11,2.72-13.07,5.84-19.22,9.82l.08-.07c-1.52,1-3,.75-7.19,4.93l-.58.36c-.8.75-1.56,1.53-2.28,2.33a36.67,36.67,0,0,0-6.83,6.28C51.13,171.7,59.62,211.17,82.05,227.9c16.34,12.18,39.52,14.62,58.41,6.72,13.13-5.49,28.44-18.43,33.5-32.92,0-.08.08-.16.12-.24.26-.57.5-1.15.73-1.75,0-.71.91-2.78.94-3.49,0-.24.2-2,.31-3.11A47.52,47.52,0,0,0,176.82,185.5Z"/><g class="cls-9"><circle class="cls-10" cx="94.02" cy="157.74" r="1.91"/><circle class="cls-10" cx="88.36" cy="176" r="1.91"/><circle class="cls-10" cx="103.52" cy="211.51" r="1.91"/><circle class="cls-10" cx="72.33" cy="202.6" r="1.91"/><circle class="cls-10" cx="93.7" cy="215.96" r="1.91"/><circle class="cls-10" cx="85.86" cy="189.97" r="1.48"/><circle class="cls-10" cx="72.75" cy="187.27" r="1.48"/><circle class="cls-10" cx="80.18" cy="176.85" r="1.48"/><circle class="cls-10" cx="70.48" cy="172.26" r="1.48"/><circle class="cls-10" cx="80.03" cy="214.08" r="1.48"/><circle class="cls-10" cx="93.41" cy="201.08" r="0.86"/><circle class="cls-10" cx="80.4" cy="204.46" r="0.86"/><circle class="cls-10" cx="89.45" cy="196.42" r="0.86"/><circle class="cls-10" cx="97.69" cy="221" r="0.86"/><circle class="cls-10" cx="106.19" cy="217.93" r="0.86"/><circle class="cls-10" cx="90.6" cy="221.86" r="0.86"/><circle class="cls-10" cx="74.7" cy="193.59" r="0.86"/><circle class="cls-10" cx="82.93" cy="163.14" r="0.86"/></g><path class="cls-11" d="M149.3,182.24c-4.7-12.92-18-20.52-25.86-31.79-2.13-3.06-3.79-7.43-1.38-10.26a7.33,7.33,0,0,1,5-2.18c5.17-.51,10.26,1.57,14.73,4.22a57.88,57.88,0,0,1,25.67,32.82c3,9.82,1.94,23.14-8.54,28.4C149.13,208.34,151.5,188.28,149.3,182.24Z"/><path class="cls-12" d="M103.23,146.94c5.16-.9,9.13-6.28,5.1-11.3a6.52,6.52,0,0,0-7.9-1.62c-1,.54-1.84,1.33-2.82,1.9-2.66,1.55-6.1,1.32-8.7,3A6.61,6.61,0,0,0,85.85,144C85.42,152.51,98.63,147.75,103.23,146.94Z"/><path class="cls-1" d="M103.78,142.3c.07,2-10.07,2.7-10.49.72-.3-1.44,2.38-2.74,3.3-3.39a8.34,8.34,0,0,1,2.69-1.48,2.87,2.87,0,0,1,2.86.67,14.45,14.45,0,0,1,1.19,2.51A2.21,2.21,0,0,1,103.78,142.3Z"/></g></svg>