<svg xmlns="http://www.w3.org/2000/svg" viewBox="0 0 252 252"><defs><style>.cls-1{isolation:isolate;}.cls-2{fill:#ff8c03;}.cls-3{fill:#fff4ae;}.cls-4{fill:#ffe670;}.cls-5{fill:#ffb300;}.cls-6{fill:#ffc100;}.cls-7{fill:#ffcd33;}.cls-8{fill:#fcbc08;}.cls-9{fill:#f28106;opacity:0.7;}.cls-10{fill:#7c6a13;}.cls-11{fill:#937b18;}.cls-12{fill:#735f5f;mix-blend-mode:hard-light;}.cls-13{fill:#71ae00;}.cls-14{fill:#659c00;}.cls-15{fill:#8dad0e;}.cls-16{fill:#698500;}.cls-17{fill:#afc728;}</style></defs><g class="cls-1"><g id="Layer_18" data-name="Layer 18"><path class="cls-2" d="M188.27,193.24a69.13,69.13,0,0,0,3.12-18.08c.27-6.57-1.17-12.94-3.12-19-.83-2.56-1.52-5.66-3-7.87s-2.95-4.16-4.41-6.23l-2.44-3.47A34.94,34.94,0,0,0,168,129.2c-4.86-3.12-10.24-6.27-15.86-7.88-4.36-1.25-9.29-2.49-13.9-2.39-3.76.09-7.52.12-11.28.42a46.68,46.68,0,0,0-13.63,3.71c-4.23,1.74-8.51,4.64-12.38,7.18-3.26,2.14-7.09,4.32-9.64,7.31-5,5.9-9.94,12.58-12.83,19.8a98.22,98.22,0,0,0-4.35,15,54.6,54.6,0,0,0-1.65,10,36.33,36.33,0,0,0,.14,4.67,62.23,62.23,0,0,0,7.1,24.18A18.48,18.48,0,0,0,82,214.68c2.35,2.66,3.84,6,6.18,8.71a47.79,47.79,0,0,0,8.54,7.2,48.68,48.68,0,0,0,15.72,7.31,74.61,74.61,0,0,0,9.88,1.78,37.83,37.83,0,0,0,5.83.4,40.14,40.14,0,0,0,5.75-.71,76.05,76.05,0,0,0,19.62-5.77,59.26,59.26,0,0,0,6.36-3.56,68.19,68.19,0,0,0,19.31-19,66.13,66.13,0,0,0,5.12-8.76A76.2,76.2,0,0,0,188.27,193.24Z"/><path class="cls-3" d="M89.42,145.59a51.13,51.13,0,0,0-8,27.58,46.69,46.69,0,0,0,.91,8.73,52.08,52.08,0,0,0,14.12,26,53.16,53.16,0,0,0,18.59,12.12,57.35,57.35,0,0,0,42,0,49.18,49.18,0,0,0,19.83-14.3,47.31,47.31,0,0,0,9.69-20.73,48,48,0,0,0,.87-11.79c-.19-3.95-1.31-7.57-2-11.38-2.59-14.18-20.08-31.76-36.8-36.72a57.17,57.17,0,0,0-25.79-1.5,54.91,54.91,0,0,0-12.48,3.66A46.88,46.88,0,0,0,89.42,145.59Z"/><path class="cls-4" d="M83.65,155.2c-.11.35-.22.71-.32,1.06-.51,1.84-1,3.7-1.35,5.57a27.66,27.66,0,0,1-.92,4.83,14.31,14.31,0,0,0-.44,5A14.39,14.39,0,0,0,81,176a18.11,18.11,0,0,1,.5,4.1,21.61,21.61,0,0,0,.5,3.4c.28,1.13.74,2.17,1.12,3.28,1,2.84.85,5.82,2.52,8.44.71,1.12,1.58,2.14,2.34,3.23,1.39,2,2.38,4.24,3.8,6.23a37.17,37.17,0,0,0,3.6,4.15c.9.93,1.8,1.87,2.79,2.71a30,30,0,0,0,2.86,2.14,81.52,81.52,0,0,0,7.88,4.75c.82.43,1.6.93,2.44,1.32s1.48.52,2.19.9a44.09,44.09,0,0,0,6,2.24c.39.14.79.28,1.19.39,1.08.28,2.21.33,3.27.65A35.64,35.64,0,0,0,133,225a81.3,81.3,0,0,0,12.29-.75,23.73,23.73,0,0,0,4.17-.85c1.21-.36,2.39-.81,3.56-1.27l2.54-1a52.47,52.47,0,0,0,5.64-2.45c1.72-.92,3-2.18,4.73-3.08a36.9,36.9,0,0,0,5.36-3.51c4.5-3.54,7.33-7.79,10.05-12.65.39-.69.88-1.32,1.28-2a20.52,20.52,0,0,0,1.61-3.84l2.61-7.65a11.85,11.85,0,0,0,.49-1.74,19,19,0,0,0,.14-2c.22-3.85.73-7.51.35-11.41a60.11,60.11,0,0,0-2.33-11.31,43.43,43.43,0,0,0-2.33-5.55,69.87,69.87,0,0,0-5.08-8.73,29,29,0,0,0-2.15-2.93c-.85-1-1.91-1.84-2.81-2.83a30.74,30.74,0,0,0-3.45-3c-2.23-1.8-4.11-4.18-6.51-5.73a44.57,44.57,0,0,0-7.85-3.76l-4.16-1.64a29.64,29.64,0,0,0-3.54-1.23c-1.83-.46-3.72-.56-5.56-1a42.53,42.53,0,0,0-16.5-.85,43.58,43.58,0,0,0-9,2.2c-1.54.62-3.41,1.29-5,1.76a21.55,21.55,0,0,0-4.84,2.12,45.89,45.89,0,0,1-4.46,2.69,14.16,14.16,0,0,0-4.64,3.55,23.41,23.41,0,0,1-1.46,1.83c-.49.47-1.08.83-1.61,1.25a15.07,15.07,0,0,0-2.79,3.12c-.8,1.11-1.45,2.32-2.24,3.41s-1.63,2.26-2.37,3.44A34.86,34.86,0,0,0,83.65,155.2Zm4.5-3.65A27.91,27.91,0,0,1,90.93,146a6.49,6.49,0,0,1,2.31-2.4c.36-.18.75-.3,1.09-.51.53-.35.87-1,1.45-1.29s1-.2,1.53-.39a7.3,7.3,0,0,0,3.44-3,12.15,12.15,0,0,1,.66-1.09,4.35,4.35,0,0,0,.82-1.14,2.57,2.57,0,0,1,.42-.94c.67-.83,1.54-1.47,2.17-2.33a10,10,0,0,1,2.41-2.48,17.74,17.74,0,0,1,5-2.29c1.53-.44,3.42-1.11,5.2-1.82a13.41,13.41,0,0,1,3-.69,21.72,21.72,0,0,1,6.08-.14c2,.25,4,1.28,6,1.08,2.52-.24,4.84-1.19,7.38-1.36a25,25,0,0,1,7.54.79,47.14,47.14,0,0,1,4.78,1.48c.63.23,1.39.54,2,.8s1.34.6,2,.88a18.05,18.05,0,0,1,4.89,2.64,19,19,0,0,1,2.74,3.33c.33.46.71.89,1,1.37a9.47,9.47,0,0,0,1.39,1.93c.17.17.35.32.51.49s.31.38.47.56a8.16,8.16,0,0,0,2.92,1.9c.41.19.7.46,1.08.68a18.23,18.23,0,0,0,1.73.82c.3.14.61.28.9.45a8.51,8.51,0,0,1,2.76,2.87,15.34,15.34,0,0,0,1.39,2,28.2,28.2,0,0,1,5.81,13.36c.08.49.15,1,.23,1.52a24.6,24.6,0,0,1,.4,3.62,6.89,6.89,0,0,1-.27,1.81,8.65,8.65,0,0,0-.55,2,5.24,5.24,0,0,0,.46,2.08l.24.67a28.74,28.74,0,0,1,1.41,4,15.65,15.65,0,0,1,.11,4.1,30.19,30.19,0,0,1-2,8.75c-.18.46-.35.92-.5,1.37a11.77,11.77,0,0,1-1.53,3.27A28.14,28.14,0,0,0,179.8,198c-1.06,2-2.23,4.63-4.32,5.81-1,.57-2.17.94-3.17,1.56a12.69,12.69,0,0,0-2.05,1.5,12.18,12.18,0,0,0-1.17,1.43,16.91,16.91,0,0,0-1.45,2.05,8.19,8.19,0,0,1-1.31,2.06c-.76.73-1.8,1.19-2.59,1.9a10.28,10.28,0,0,1-1.33,1.12,21.34,21.34,0,0,1-3.45,1.8c-1.19.49-2.16,1.4-3.44,1.71a15.66,15.66,0,0,0-2.38.47c-.47.21-.86.56-1.31.81a4.49,4.49,0,0,1-2,.4,14,14,0,0,1-1.74.2,10.86,10.86,0,0,0-2.6.23c-2.14.48-3.92-.18-5.94-.82a6.22,6.22,0,0,0-1-.26,8.08,8.08,0,0,0-2.85.25,23.36,23.36,0,0,0-3.18,1.2,10.67,10.67,0,0,1-6.23,0c-1.26-.36-2.52-.66-3.73-.95a50,50,0,0,1-5.74-1.61A17.86,17.86,0,0,1,113,217a23.79,23.79,0,0,0-3-1.62c-.59-.28-1.14-.54-1.65-.82a13.49,13.49,0,0,1-3.49-2.89c-.94-1-1.71-2.13-2.6-3.2a8.4,8.4,0,0,0-1.09-1.14,20.79,20.79,0,0,0-2.18-1.19c-.76-.48-1.56-.89-2.31-1.39a14.91,14.91,0,0,1-4.16-3.83A23.47,23.47,0,0,1,90.64,198c-.57-1.12-1-2.3-1.61-3.39-1.17-2.07-3-3.85-3.58-6.12a13.28,13.28,0,0,1-.3-2c0-.5-.09-1-.09-1.51a23.72,23.72,0,0,0,.06-2.92,13,13,0,0,1-.24-1.74c0-1.05,1-2,1.26-3a6.15,6.15,0,0,0,0-2.83c-.39-1.92-1.37-3.68-1.87-5.58-.56-2.11.41-4.91.85-7,.38-1.78.88-3.67,1.52-5.76.11-.34.21-.68.31-1.05C87.32,153.93,87.71,152.73,88.15,151.55Z"/><path class="cls-4" d="M130.08,173.58a.61.61,0,0,0-.13.64c.1.23.36.37.5.58a1.71,1.71,0,0,1,.14,1.09.94.94,0,0,0,.49,1,1.06,1.06,0,0,0,.61-.07,2.63,2.63,0,0,1,2.75,1.19c.05.09.11.19.2.21a.25.25,0,0,0,.21,0,3.8,3.8,0,0,0,1-1.15,2.09,2.09,0,0,1,1.54-1l1.52-.16a1,1,0,0,0,.58-.18.78.78,0,0,0,.22-.41,2.06,2.06,0,0,0-.37-1.74c-.27-.37-.65-.64-.93-1a2.55,2.55,0,0,1-.51-1.44.92.92,0,0,0-.11-.52c-.24-.3-1.06-.25-1.43-.33a2.23,2.23,0,0,1-1.11-.59,1.21,1.21,0,0,0-.6-.38.27.27,0,0,0-.15,0s-.06.07-.09.12a2,2,0,0,1-1.42,1c-.37.06-1.38-.07-1.43.48,0,.17.11.34.12.51a2.88,2.88,0,0,1,0,.59,1.68,1.68,0,0,1-.41,1.06,5,5,0,0,1-.86.46A1.06,1.06,0,0,0,130.08,173.58Z"/><path class="cls-5" d="M132,173.66c-.17.39.05.46.29.77a1.24,1.24,0,0,1,.12.69c0,.23.1.53.33.59a.75.75,0,0,0,.39-.07,1.63,1.63,0,0,1,1.61.49c.28.3.34.4.66.07a2.69,2.69,0,0,0,.39-.62,1.11,1.11,0,0,1,1-.72c.52-.05,1.52-.14,1-.93-.14-.19-.33-.33-.49-.51a2.73,2.73,0,0,1-.6-1.68.34.34,0,0,0-.07-.24.42.42,0,0,0-.24-.07,2,2,0,0,1-1.24-.55c-.13-.11-.29-.26-.44-.19a.41.41,0,0,0-.14.15,1.24,1.24,0,0,1-.82.46c-.2,0-.44,0-.55.16s-.14.72-.28,1a2.26,2.26,0,0,1-.44.62,1.93,1.93,0,0,0-.41.53Z"/><path class="cls-6" d="M132.51,216c-3.22,2.48-8.68.78-12.62-.67a37.89,37.89,0,0,1-9.88-5.13c-7-5.35,6.87-16.15,10-19.33q4.08-4.17,8.14-8.35c.59-.6,2.25-3,3-3.21,2.09-.46,1.61,2.63,1.67,3.74.1,1.61.24,3.22.37,4.83q.42,5.79.86,11.57c.34,4.56,2.2,9.94.23,14.27A6,6,0,0,1,132.51,216Z"/><path class="cls-6" d="M168.43,199.48a13.56,13.56,0,0,1-4.54-2.95l-19.35-17.32c-.83-.74-3.52-2.67-2.6-3.76.6-.71,4.5-.4,5.31-.43l6.6-.21c7.27-.23,14.59-.76,21.87-.7,8.58.07,5.22,10.46,3.21,15.19-1.31,3.1-2.77,6.56-5.28,8.92A4.91,4.91,0,0,1,168.43,199.48Z"/><path class="cls-6" d="M164.13,202.91a6.16,6.16,0,0,1-.24,6c-1.86,3-5.43,5.14-8.74,6.25-4.62,1.55-11.4,3.54-15.22-.87-2-2.34-1.32-7.62-1.51-10.59l-.81-12.49c-.21-3.29-2-12.15-.25-12.67s4.91,3.27,6.69,4.85l6.44,5.78C153.77,192.1,161.78,197.46,164.13,202.91Z"/><path class="cls-6" d="M98.28,146.37a5.13,5.13,0,0,1,3.23.09c4.76,1.64,7.95,6.3,11.5,9.47l9.3,8.33c1.14,1,7.29,5.39,7,6.72-.3,1.63-8.29,1.06-9.78,1.1l-12.45.4c-3.79.12-7.58.3-11.37.37-10,.17-8-10.12-5.33-16.07C91.89,153.49,94.34,147.56,98.28,146.37Z"/><path class="cls-6" d="M101.55,200.79C97.65,200.2,94.13,196,92,192c-2.55-4.84-4.38-11.57,1.46-14.72,4.1-2.21,9.45-1.26,14-1.4l12.08-.38c1.64,0,7.57-1.31,8.6.4,1.18,2-4,5.2-5,6.31l-8.17,8.55-7.2,7.53C105.67,200.43,103.56,201.09,101.55,200.79Z"/><path class="cls-6" d="M177.64,169.94c-2,.92-4.81.9-6.91,1l-25.69.82c-1.24,0-3.93.89-4.67-.64s2.23-3.6,3.12-4.53l9.56-10c4.28-4.48,10.19-13.87,17.88-9.67,6.17,3.38,11.25,13.56,9.32,20.17A4.45,4.45,0,0,1,177.64,169.94Z"/><path class="cls-6" d="M105.25,143.13c-1.66-5,5.07-10.3,9.09-12,4.64-2,14.64-4.4,16.27,3.06.87,4,.52,8.68.78,12.76l.78,11.91c.11,1.69.43,3,.6,4.64.07.63,1,3.52-.27,4.12-1.88.87-15.12-12.51-16.89-14.1-2.89-2.58-6-5.07-8.71-7.8A6.35,6.35,0,0,1,105.25,143.13Z"/><path class="cls-6" d="M136.72,167.5c-.44-.16-.75-.87-.86-2.52-.2-3.15-.41-6.3-.61-9.46L134.5,144c-.22-3.46-.85-8.51.86-11.56s6-3.51,9.71-2.86a30.36,30.36,0,0,1,11.19,4.47c2.49,1.58,4.92,3.54,4.68,6.7-.28,3.6-4.42,6.82-6.81,9.33l-8,8.38-6.39,6.69C138.58,166.4,137.46,167.75,136.72,167.5Z"/><path class="cls-5" d="M135.22,214.19c1.55-3.4.94-7.23.36-10.92-.21-1.34-.41-2.61-.5-3.82l-.44-5.78-.43-5.79c0-.53-.08-1.07-.13-1.61-.08-1.05-.17-2.14-.23-3.2,0-.15,0-.39,0-.64a5.37,5.37,0,0,0-.64-3.3,2.1,2.1,0,0,0-.94-.7,2.56,2.56,0,0,0-1.41-.06c-.83.18-1.62,1.12-2.83,2.65-.28.36-.55.7-.68.84l-8.14,8.35c-.43.44-1.1,1-1.87,1.76a59.67,59.67,0,0,0-7.71,8.12c-2.87,4-3.39,7.23-1.53,9.67a6.66,6.66,0,0,0,1.28,1.26,38.29,38.29,0,0,0,10.16,5.29,33.11,33.11,0,0,0,6.82,1.87c2.88.37,5.17-.08,6.82-1.35A7,7,0,0,0,135.22,214.19Zm-6.77-2.46a7.45,7.45,0,0,1-4.89.27,10.27,10.27,0,0,1-5.71-3.64,7.54,7.54,0,0,1-1.06-1.86,6.41,6.41,0,0,1-.39-3c.27-2.36,1.71-4.12,3.24-6l.46-.56a30.08,30.08,0,0,1,3-3.16c.31-.28.61-.57.89-.85,1.09-1.07,2.12-2.08,3.48-2.29a3,3,0,0,1,1.76.21,1.91,1.91,0,0,1,.64.54c.78,1,.93,3,1,4.35,0,.33.05.64.09.92a58,58,0,0,1,.32,6.84C131.3,206.89,130.92,210.53,128.45,211.73Z"/><path class="cls-5" d="M153.79,173.79l-2.21.08-4.39.14-.79,0c-3-.09-4.61,0-5.28.8-.37.44-.83,1.39.24,2.81a13.62,13.62,0,0,0,2,2c.18.14.33.27.43.36l6.44,5.76,12.91,11.56a14.71,14.71,0,0,0,4.65,3.07l.28.1a5.92,5.92,0,0,0,6.27-1.48c2.66-2.5,4.17-6.08,5.51-9.24h0a34.16,34.16,0,0,0,2.18-7c.56-3.23.22-5.7-1-7.34a5.33,5.33,0,0,0-2.5-1.82,8.3,8.3,0,0,0-2.85-.48c-4.89,0-9.85.19-14.66.41C158.67,173.61,156.2,173.72,153.79,173.79Zm4.06,3.19c1.49-.15,3.06-.17,4.57-.2l2.21,0,.46,0c4.8-.17,11.69-.62,12.13,5.74a10.12,10.12,0,0,1-.16,2.33,5.83,5.83,0,0,1-1.18,2.39,26,26,0,0,0-1.4,2.67,6,6,0,0,1-2.28,2.39,4,4,0,0,1-3,.3,10.61,10.61,0,0,1-1.33-.39c-.17-.07-.84-.43-1-.31a11.56,11.56,0,0,1-1.7-.72,19.35,19.35,0,0,1-2.25-1.68c-1.16-.91-2.45-1.63-3.57-2.58a22.8,22.8,0,0,1-2.07-2.1l-2-2.24-1.56-1.73c-.34-.37-1-.85-1.07-1.35-.23-1.06,1.18-1.48,2-1.71A17.85,17.85,0,0,1,157.85,177Z"/><path class="cls-5" d="M164.79,209.45a7.12,7.12,0,0,0,.31-6.91,15.6,15.6,0,0,0-1.85-3.08c-2.47-3.29-6.23-6.29-9.24-8.71-1.12-.9-2.09-1.67-2.82-2.32l-5.38-4.82-1.06-1c-.35-.31-.77-.73-1.22-1.17-1.57-1.52-3.35-3.25-4.88-3.81a2.52,2.52,0,0,0-1.63-.11c-1,.32-1.31,1.47-1.41,2.41a23.43,23.43,0,0,0-.15,3.55c.14,3,.33,6,.51,9,.06.91.12,1.82.17,2.73.1,1.57.2,3.15.43,4.72.15,1,.35,2,.5,3,.3,2,.38,4,.55,6,.16,1.83.16,4.07,1.31,5.6.07.09.13.18.2.26a8.56,8.56,0,0,0,3.52,2.43c3.84,1.41,8.45.24,12.86-1.24C159.56,214.77,163,212.27,164.79,209.45Zm-8-.38c-2.72,1.53-5.29,2.15-6.85,1.65a10.47,10.47,0,0,1-5-3.54c-.15-.2-.29-.4-.42-.61a17.09,17.09,0,0,1-2-6.32,49.4,49.4,0,0,1-.54-5.55l0-.77a20.9,20.9,0,0,1,0-2.74,6.22,6.22,0,0,1,.31-1.59,1.91,1.91,0,0,1,1-1.19,2,2,0,0,1,1.36.06,13.88,13.88,0,0,1,3.62,2.16l.65.48c1.59,1.15,2.94,2.21,4.14,3.25a34.89,34.89,0,0,1,5.16,5.4l.22.31c1.64,2.24,2.26,4.05,2,5.72C160.08,207.22,157.93,208.43,156.77,209.07Z"/><path class="cls-5" d="M107.18,173.5l6.61-.21,5.84-.19c.25,0,.76,0,1.35,0,6,.15,9.06-.11,9.4-1.94a2.34,2.34,0,0,0-.6-1.75,35.77,35.77,0,0,0-5.42-4.83c-.6-.47-1.12-.87-1.35-1.08l-5.39-4.83-3.91-3.5c-1-.87-1.92-1.86-2.92-2.9-2.54-2.65-5.16-5.39-8.69-6.69l-.27-.09a6.11,6.11,0,0,0-3.89-.11c-1.89.57-3.6,2.06-5.23,4.55a41,41,0,0,0-3,5.94l-.21.47a26.63,26.63,0,0,0-2.12,7.4c-.37,3.09.11,5.54,1.43,7.28a6.55,6.55,0,0,0,3.07,2.24,11,11,0,0,0,4,.58c2.53,0,5.11-.14,7.59-.23Zm9.65-7.28a13.91,13.91,0,0,1-3.2.66l-.85.12c-1,.15-2,.22-3,.29l-1,.06a26.25,26.25,0,0,1-10.71-1.25,8.19,8.19,0,0,1-2.59-1.36,3.64,3.64,0,0,1-.46-.5c-1.28-1.7-.7-4.45-.38-5.55a18.41,18.41,0,0,1,2-4.55,11.76,11.76,0,0,1,.79-1.14,4.91,4.91,0,0,1,1.82-1.51c1.89-.86,4.15.79,6,2.11l.41.29c1.82,1.32,3.63,2.72,5.36,4.16a42.56,42.56,0,0,1,5.73,5.62l.28.36c.5.66.69,1.13.61,1.47A1.23,1.23,0,0,1,116.83,166.22Z"/><path class="cls-5" d="M115.71,191.44,121,186l2.94-3.07c.2-.21.67-.58,1.17-1a25.64,25.64,0,0,0,3.05-2.73c1.28-1.45,1.6-2.73.95-3.8a.94.94,0,0,0-.12-.18,2.7,2.7,0,0,0-1.26-.88c-1.71-.63-4.56-.28-6.65,0-.65.08-1.22.15-1.53.16l-4.88.16-7.2.22c-1.12,0-2.29,0-3.53,0-3.74-.11-7.62-.22-10.92,1.56a8.05,8.05,0,0,0-4.4,7.61,20.09,20.09,0,0,0,2.54,8.45,26.67,26.67,0,0,0,2.31,3.66c1.4,1.85,3.64,4.27,6.42,5.29a7,7,0,0,0,1.57.41c2.55.39,4.94-.56,7.11-2.82Zm-9.15,1a10.37,10.37,0,0,1-2.23,1.28,5.2,5.2,0,0,1-4.29-.45,8.93,8.93,0,0,1-4-5,9.53,9.53,0,0,1-.41-2.48,15.22,15.22,0,0,1-.2-2,2.59,2.59,0,0,1,.32-.92c1.57-2.94,4.79-3.79,8.06-3.81.54,0,1.06,0,1.62.06s1.28.07,2,0l3.85-.08c.55,0,1.11-.05,1.66-.09,1.89-.12,3.84-.24,5.34.54a1.49,1.49,0,0,1,.54.43.71.71,0,0,1,.13.24c.14.48-.27,1.13-.73,1.77l-.23.31a29,29,0,0,1-4,4c-.53.47-1.09,1-1.63,1.46l-.16.15a30.78,30.78,0,0,1-3.93,3.28C107.69,191.6,107.13,192,106.56,192.43Z"/><path class="cls-5" d="M152.27,155.86l-9,9.44-.52.56c-.16.16-.42.39-.7.64a10.12,10.12,0,0,0-2.41,2.65,2.58,2.58,0,0,0,1.26,3.64c1.64.6,3.42,0,5.09-.07l4-.13,6.67-.21,14.19-.45.64,0a18.18,18.18,0,0,0,6.67-1,5.41,5.41,0,0,0,3.16-3.51c1.55-5.3-1-12-4.3-16.34a17.88,17.88,0,0,0-5.53-5,11.07,11.07,0,0,0-1.41-.65,8.47,8.47,0,0,0-4.8-.35,11.57,11.57,0,0,0-4.17,1.91,37.34,37.34,0,0,0-6.61,6.5C153.67,154.31,152.94,155.15,152.27,155.86Zm15-6a7.83,7.83,0,0,1,6.59,2.93c.16.19.32.38.47.58a14.86,14.86,0,0,1,2.26,4.6c.66,2.14.68,3.78.05,5a4.11,4.11,0,0,1-1.63,1.8,25.32,25.32,0,0,1-4.29,1.23,41.41,41.41,0,0,1-9.09.86c-1.73,0-3.55-.12-5.41-.3a4,4,0,0,1-3-1.22l-.13-.2c-1-1.55.07-3.31,1.52-5.44l.21-.31a26.92,26.92,0,0,1,2.73-3.4,27.46,27.46,0,0,1,3.14-2.86C162.68,151.65,164.84,150,167.32,149.87Z"/><path class="cls-5" d="M105.31,145.41a8.36,8.36,0,0,0,.85,1c1.86,1.85,3.88,3.6,5.84,5.29,1,.84,2,1.7,2.91,2.55.3.27,1,.95,1.88,1.8,6.12,5.91,12.12,11.51,14.66,12.44a1.92,1.92,0,0,0,1.52,0,2.41,2.41,0,0,0,1.26-2.47,11.45,11.45,0,0,0-.32-2.2,3.78,3.78,0,0,1-.09-.44c-.08-.77-.19-1.45-.29-2.1-.13-.83-.26-1.61-.32-2.51l-.4-6.24-.37-5.67c-.09-1.35-.11-2.75-.13-4.23a43.51,43.51,0,0,0-.68-8.67,7.5,7.5,0,0,0-1.32-3,7,7,0,0,0-3.21-2.33,13.78,13.78,0,0,0-7-.34,27.18,27.18,0,0,0-6.21,1.84,22.46,22.46,0,0,0-7,5c-2.56,2.81-3.47,5.65-2.62,8.22A6.79,6.79,0,0,0,105.31,145.41Zm11-10.45a7.82,7.82,0,0,1,1.66-.77c2.46-.8,6.11-.35,7.7,1.76a2.71,2.71,0,0,1,.24.35,14.85,14.85,0,0,1,1.61,4.82,58.92,58.92,0,0,1,1.08,9.26c0,1.16,0,2.29.06,3.45a10.51,10.51,0,0,1-.09,1.37,2.76,2.76,0,0,1-.27,1,1.38,1.38,0,0,1-1.06.64c-.89.07-2-.91-2.74-1.38a32.26,32.26,0,0,1-2.68-2,52.23,52.23,0,0,1-5.47-5.15c-1.45-1.56-2.7-3.29-4-5a4.55,4.55,0,0,1-.9-1.54,3.67,3.67,0,0,1,.17-2.07C112.35,137.56,114.42,136.17,116.36,135Z"/><path class="cls-5" d="M133.57,142.87c0,.51-.06,1,0,1.55,0,.94.08,1.89.14,2.84.1,1.47.19,3,.29,4.42l.25,3.88.32,5,.3,4.5a5.24,5.24,0,0,0,.73,2.81,1.72,1.72,0,0,0,.81.61h0c1.31.45,2.41-.73,3.69-2.1.14-.16.29-.31.43-.46l4.26-4.46,2.13-2.23,8-8.38c.44-.46,1-1,1.49-1.48,2.37-2.3,5.33-5.17,5.58-8.45a6.29,6.29,0,0,0-1.33-4.39,14.25,14.25,0,0,0-3.84-3.25,33.7,33.7,0,0,0-6.52-3.27,28.25,28.25,0,0,0-5.06-1.36,15.52,15.52,0,0,0-6,0,10.09,10.09,0,0,0-4.53,2.15c-1.16,1.21-1.08,3.5-1.05,5C133.68,138.14,133.73,140.48,133.57,142.87Zm8.65-8.69a7.19,7.19,0,0,1,5.66-1c3.08.66,6.81,2.58,8.27,5.45,1.79,3.51-2.1,7.37-4.31,9.79a44.63,44.63,0,0,1-5.37,5.19,19,19,0,0,1-3.21,2.12,1.67,1.67,0,0,1-2.16-.67,8.93,8.93,0,0,1-1.39-3.79c-.18-1-.29-2.09-.36-3-.26-3.07-.56-6.55.21-9.73A7.53,7.53,0,0,1,142.22,134.18Z"/><path class="cls-7" d="M153.55,140.67a3.84,3.84,0,0,1-.67.94,10.25,10.25,0,0,1-1.76,1.37,9,9,0,0,1-2.28,1.2,3,3,0,0,1-2.54-.29,4.33,4.33,0,0,1-1.42-2.29,9.32,9.32,0,0,1-.72-3.34,2.76,2.76,0,0,1,2.26-2.9,7.49,7.49,0,0,1,6.53,2,3.1,3.1,0,0,1,.89,2.33A2.68,2.68,0,0,1,153.55,140.67Z"/><path class="cls-7" d="M123.66,137.51a8.28,8.28,0,0,1,.64,3.34c.06,2.19-1,4-3.37,4.37a8.94,8.94,0,0,1-6.19-2.2c-1.76-1.82-.69-4.43,1-5.78a8.16,8.16,0,0,1,5.71-1.39A2.93,2.93,0,0,1,123.66,137.51Z"/><path class="cls-7" d="M102.17,154a2.53,2.53,0,0,1,.37.18,8.14,8.14,0,0,1,2.52,2.57,7.75,7.75,0,0,1,1.07,1.95,3.06,3.06,0,0,1,0,2.15,4,4,0,0,1-2.1,1.85,11.66,11.66,0,0,1-3.81,1c-3.64.34-4.54-3.29-3.68-6.06.07-.2.14-.41.22-.61.43-1.06,1.19-2.56,2.32-3A3.81,3.81,0,0,1,102.17,154Z"/><path class="cls-7" d="M99.86,182.53a4.59,4.59,0,0,1,2.24-.09c1.52.29,5.11,1.9,4.82,3.82a5.62,5.62,0,0,1-.77,1.67,8.87,8.87,0,0,1-1.21,1.82,3.48,3.48,0,0,1-4.9.55c-1.22-1.11-1.49-2.5-1.94-4-.36-1.15-.45-2.24.51-3.12A3.34,3.34,0,0,1,99.86,182.53Z"/><path class="cls-7" d="M119.4,205.78a2.51,2.51,0,0,1,.46-1.24,6.05,6.05,0,0,1,1.41-1.25,8.56,8.56,0,0,1,1.72-1,3.05,3.05,0,0,1,2-.17,3.7,3.7,0,0,1,2,1.9c.63,1.18,1.53,3.73.66,4.9-1,1.34-3.19,1.34-4.71.83a6.71,6.71,0,0,1-3.18-2.17A2.71,2.71,0,0,1,119.4,205.78Z"/><path class="cls-7" d="M149.25,206.93a6.14,6.14,0,0,1-.25-4.14,3.78,3.78,0,0,1,1.76-2.61c1.62-.89,3.32-.06,4.58,1.08a6.15,6.15,0,0,1,2.23,3.07c.31,1.66-1.74,2.91-3,3.61a4.61,4.61,0,0,1-2.74.64,3.56,3.56,0,0,1-2.44-1.43Z"/><path class="cls-7" d="M173.55,161.89a3.46,3.46,0,0,1-.66.38,5.54,5.54,0,0,1-3.77.12,14.28,14.28,0,0,1-2.75-1.19c-.81-.44-1.53-.69-1.88-1.63a3.41,3.41,0,0,1,.15-2.33,12.86,12.86,0,0,1,1.9-3A4.08,4.08,0,0,1,170,153c2.1.21,3.42,2,4,3.78S175.31,160.55,173.55,161.89Z"/><path class="cls-7" d="M169.41,189a3.35,3.35,0,0,1-1.43-.66,9.35,9.35,0,0,1-1.86-2.15,3.84,3.84,0,0,1-1-2.79c.25-1.12,1.46-1.72,2.56-2.16a7.93,7.93,0,0,1,3.2-.78c3.07.1,3.66,3.49,2.74,5.7C172.9,187.88,171.22,189.33,169.41,189Z"/></g><g id="Layer_17" data-name="Layer 17"><path class="cls-2" d="M133.62,119.6c18-.95,54.06,14.56,54.14,53.72.09,39.44-24.32,63.25-53.81,66.48-30.68,3.37-66.41-23.38-60.94-70.19C77.4,132.08,106.48,121,133.62,119.6Z"/><path class="cls-8" d="M84,158.21a.21.21,0,0,1,0-.06v0Z"/><path class="cls-8" d="M88.86,158.86c.8-1.87,1.17-4.68-1-4.89s-2.79,2.8-3.74,4.18C83.66,161.25,86.74,163.87,88.86,158.86Z"/><path class="cls-8" d="M84.08,158.13l1.38-2.65A4.54,4.54,0,0,0,84.08,158.13Z"/><path class="cls-8" d="M85.17,167.67c.2-.84.26-2.27-.83-2.27-.77,0-1.07.71-1,1.42a2.57,2.57,0,0,0,.06,1.92C84.15,170,85,168.54,85.17,167.67Z"/><path class="cls-8" d="M93.23,159.24a1.68,1.68,0,0,0-1.2,1.15c-.54.6-1.07,1.52-.81,2.17a1,1,0,0,0,.23.35,2.29,2.29,0,0,1-.08.28l.1-.27c.6.46,1.56-1.12,1.93-1.68S94.69,158.94,93.23,159.24Z"/><path class="cls-8" d="M91.37,163.19l0,.12A.56.56,0,0,0,91.37,163.19Z"/><path class="cls-8" d="M93.6,153.53c-.44.69-.56,1.95.22,2.27S95.75,154.69,96,154C97.05,151.15,94,152.45,93.6,153.53Z"/><path class="cls-8" d="M93.13,147.61c-.43.29-1.29.71-1.31,1.36a.78.78,0,0,0,.49.78c.35.41,1.28.22,1.66.13.79-.19,4.44-1.74,3.85-3C97.11,145.39,93.91,147.08,93.13,147.61Z"/><path class="cls-8" d="M88.41,148.25c.84-.18,2.88-2.14,2.41-3.27s-2-.11-2.49.46a3.17,3.17,0,0,0-.49,1.38C87.5,147.62,87.43,148.46,88.41,148.25Z"/><path class="cls-8" d="M82.23,162.86c.43-1.87-1-1.42-1.74-.47v0c-.55.37-1.29,2.15-.41,2.6S82.06,163.58,82.23,162.86Z"/><path class="cls-8" d="M81.86,172.67c0-.88-.39-4.25-1.89-3a1.48,1.48,0,0,0-.43,1.08,6.24,6.24,0,0,0,.18,3.49C80.7,176.77,81.82,174.21,81.86,172.67Z"/><path class="cls-8" d="M90.06,166.42a3.8,3.8,0,0,0-1.77,1.85c-.83,1.28-1.38,3.33-.93,4.37,1.12,2.57,3.41-2,3.93-3C92.07,168.3,92.14,165.65,90.06,166.42Z"/><path class="cls-8" d="M97.06,163c-.39.69-.62,1.71-.24,2.2.81,1,2.52-1,2.86-1.79C101,160.42,97.46,161.84,97.06,163Z"/><path class="cls-8" d="M101.74,139a1.39,1.39,0,0,0-.63,1.26c1.57.75,4.37-1.54,4-3.44A2.83,2.83,0,0,0,101.74,139Z"/><path class="cls-8" d="M100.29,149.52c1.52-.6,4.89-3.23,3.79-5.27a3.56,3.56,0,0,0-2.81,1.95C100.23,147,99.45,148.36,100.29,149.52Z"/><path class="cls-8" d="M95.56,138A2.19,2.19,0,0,0,93,139.78,1.74,1.74,0,0,0,93,141,3.07,3.07,0,0,0,95.56,138Z"/><path class="cls-8" d="M109.87,137.74c-2.33,2.15,3.16,2.73,3.69.51C114,136.27,110.31,136.23,109.87,137.74Z"/><path class="cls-8" d="M84.15,178.48c-1.21,0-1.37,1.18-1.22,2.32-.76,2.52-.71,6.85,1.27,6.14C86.67,186.07,85.16,180,84.15,178.48Z"/><path class="cls-8" d="M77.27,179c-1.72,2.25,2,5.1,2.06.83C79.36,177.13,77.75,177.73,77.27,179Z"/><path class="cls-8" d="M93.91,175.45a1.63,1.63,0,0,0,0,1.69c1.2-.08,3.26-1.84,2.95-3.39C96.42,171.43,93.64,173.56,93.91,175.45Z"/><path class="cls-8" d="M107.45,153.22l-.24-.08a2.09,2.09,0,0,0,.24.54c0,.32.18.51.42.43,1.33.84,3.69-1.2,2.11-2.34S107.56,152.15,107.45,153.22Z"/><path class="cls-8" d="M126,131.3c-2.92-.85-4.23,3.75-2,2.83C125.72,134,128.86,132.14,126,131.3Z"/><path class="cls-8" d="M91.86,194.62l-.12-.8a5.17,5.17,0,0,0,.43,4c1-.48,2.08-4.37,1.16-5.47C91.93,190.64,91.73,192.88,91.86,194.62Z"/><path class="cls-8" d="M108.91,169.69a.74.74,0,0,0,1-.52c1.08-.75,2.69-2.64,1.06-3.11S108.51,168.53,108.91,169.69Z"/><path class="cls-8" d="M78.51,194.87a2.52,2.52,0,0,0,.55,1c1.54-.62,4.33-3.74,1.7-5C78.43,189.73,77.71,193,78.51,194.87Z"/><path class="cls-8" d="M78.54,185.49v-.06a1.51,1.51,0,0,0-.44,2.21,2.14,2.14,0,0,0,1.44-2.75A1.75,1.75,0,0,0,78.54,185.49Z"/><path class="cls-9" d="M117.2,228.75c-1.79,7.5,34,5.34,48.2-8.35,18.27-17.62,19.77-44.07,17.07-56.39s-22.7-36.28-26.24-30.21c-1.27,2.17,7.18,8.82,9.66,28.08,2.18,16.91-.16,37.59-14.82,49.39C131,227.41,118.38,223.79,117.2,228.75Z"/><path class="cls-10" d="M119.39,123.39s-2.94,2.88.72,5.09,15,1,16.44-1.74-.46-5.57-5.46-5.41S122.49,121.29,119.39,123.39Z"/><path class="cls-11" d="M120.24,124.27s.12,2.61,2.09,3.55c2.71,1.3,8.7-.09,8.7-.09l-1.81-3.22s-1.77.16-2.42-.47a2.17,2.17,0,0,1-.71-1.22Z"/><path class="cls-12" d="M137.85,130a9.29,9.29,0,0,0-2.56-3.31,1.38,1.38,0,0,1-.63-.86,1,1,0,0,1,.45-.8,3.19,3.19,0,0,0,.57-.59l1-1.22a1.35,1.35,0,0,0,.34-.59.53.53,0,0,0-.23-.59c-.23-.09-.47.07-.68.2a6.82,6.82,0,0,1-2.37.82,29.35,29.35,0,0,1-8.62,1,21.64,21.64,0,0,1-3.82-.73,10.55,10.55,0,0,1-2.1-.83,3.4,3.4,0,0,0,1.65,3.51c.38.2.86.4.94.84a1.37,1.37,0,0,1-.3.91,9.65,9.65,0,0,0-1.42,4.41c0,.31,0,.72.34.76s.47-.44.61-.77a2.38,2.38,0,0,1,1.62-1.11l5.57-1.78a11.45,11.45,0,0,0,5.48,1.76l3.57.51a.9.9,0,0,0,.74-.12c.27-.25.17-.7,0-1C138,130.26,137.9,130.13,137.85,130Z"/><path class="cls-13" d="M134.32,127c-.27-.29-.57-.56-.84-.85a2,2,0,0,1-.57-2c.25-.56.87-.8,1.39-1.11a4,4,0,0,0,.85-.69c.33-.35.21-.52-.22-.64a5.33,5.33,0,0,0-2.91,0,26.5,26.5,0,0,1-3.57,1,6.38,6.38,0,0,1-.87.07c-.22,0-.42,0-.64,0a4.86,4.86,0,0,1-.85-.06,5.69,5.69,0,0,1-.78-.22,7.1,7.1,0,0,0-1.74-.46,10,10,0,0,0-2.17.29,6.78,6.78,0,0,1-1.19.06,6,6,0,0,1-.61,0c-.15,0-.3-.08-.37.1a.55.55,0,0,0,0,.31,2,2,0,0,0,.65,1,5.53,5.53,0,0,0,1,.65l.76.42a2.82,2.82,0,0,1,.63.37.84.84,0,0,1,.26.68,1.13,1.13,0,0,1-.52.66,3.8,3.8,0,0,0-1.18,1.42,4.14,4.14,0,0,0-.27.91c0,.07-.06.91,0,.9a13.24,13.24,0,0,0,4.58-2,4.73,4.73,0,0,1,1.58-.87,4,4,0,0,1,1.94.23l5.22,1.53c.34.1.76.17,1-.11a.81.81,0,0,0,0-.84A3.1,3.1,0,0,0,134.32,127Z"/><path class="cls-14" d="M132.5,123.69a1.38,1.38,0,0,0-.49,1.41,1.56,1.56,0,0,0,.15.41,3.08,3.08,0,0,0,.85.91c.12.1.34.27.16.43s-.46.1-.64.11a6.28,6.28,0,0,1-2.67-.47,4.8,4.8,0,0,0-2.17-.63,4,4,0,0,0-1.58.75,10.68,10.68,0,0,1-4.81,1.81.34.34,0,0,1-.2,0,.28.28,0,0,1,0-.28,2.15,2.15,0,0,1,.69-1c.32-.29.67-.53,1-.82a2.14,2.14,0,0,0,.57-.93c0-.18,0-.25-.13-.34a2.13,2.13,0,0,0-.35-.14c-.25-.06-.51-.09-.76-.16a6.27,6.27,0,0,1-1.42-.59,2.2,2.2,0,0,1-1.2-1.25.25.25,0,0,1,0-.19c0-.07.16,0,.23,0a.6.6,0,0,0,.26,0,1.63,1.63,0,0,1,.31.11,2.78,2.78,0,0,0,.7.12,6.87,6.87,0,0,0,1.43-.14,4.61,4.61,0,0,1,2.55.15c.24.09.47.21.7.32a11.22,11.22,0,0,0,2.43.83,3.37,3.37,0,0,1,1.33-1.1,10.3,10.3,0,0,1,1.65-.77,4,4,0,0,1,.92-.26,4,4,0,0,1,.91,0,.76.76,0,0,1,.57.29.64.64,0,0,1,0,.63C133.2,123.24,132.79,123.42,132.5,123.69Zm.47-2.35a3.8,3.8,0,0,0-.75.06,9.54,9.54,0,0,0-4.36,1.85l-1.58-.55c-.43-.16-.82-.42-1.26-.57a5.75,5.75,0,0,0-2.88-.21c-.52.1-1,.26-1.54.34a2.34,2.34,0,0,1-1.52-.22,1,1,0,0,0-.27-.13.24.24,0,0,0-.26.1c-.07.14.33.75.41.91a4.81,4.81,0,0,0,.76,1.12,5,5,0,0,0,1.63,1.22c.23.1.7.15.82.4s-.6.75-.76.94a8.07,8.07,0,0,0-1.34,2.1,7,7,0,0,0-.59,2.44.47.47,0,0,0,0,.31.27.27,0,0,0,.37,0,1.3,1.3,0,0,0,.26-.31,4.17,4.17,0,0,1,2.78-1.47,9,9,0,0,0,2.44-.67,11.91,11.91,0,0,0,2.26-1.61,10.27,10.27,0,0,0,5.78,2.36c.83,0,1.67,0,2.5.1a4.46,4.46,0,0,1,1.29.33c.28.12.87.72,1,.27.24-.62-.38-1.62-.7-2.06a11.89,11.89,0,0,0-2.4-2.2c-.28-.2-.6-.33-.89-.5s-.65-.39-.73-.6c-.15-.4.69-.68,1-.79a6,6,0,0,0,2.7-2.12,1.16,1.16,0,0,0,.21-.45.41.41,0,0,0-.19-.43.63.63,0,0,0-.49.08C135.51,121.9,134.23,121.37,133,121.34Z"/><path class="cls-15" d="M131.84,124.17c0,.55-.41.72-.93.94a7.26,7.26,0,0,1-1.83.52,9.26,9.26,0,0,1-2.68,0,4.66,4.66,0,0,1-2.05-.78.5.5,0,0,1-.25-.59c.07-.25.3-.49.39-.73a5,5,0,0,0,.13-1.54c0-.22,0-.45,0-.67s0-.22-.06-.34c0-.77.66-1.08,1.27-1.24a8.94,8.94,0,0,1,2.72-.29,9.29,9.29,0,0,1,1.38.17c.35.08.93.12,1.17.42.37.46.2,1.1.21,1.65a8.06,8.06,0,0,0,.08,1.32,2.75,2.75,0,0,0,.21.69C131.68,123.83,131.83,124,131.84,124.17Z"/><path class="cls-16" d="M131.84,124.17c0,.55-.41.72-.93.94a7.26,7.26,0,0,1-1.83.52,9.26,9.26,0,0,1-2.68,0,4.66,4.66,0,0,1-2.05-.78.5.5,0,0,1-.25-.59,1.09,1.09,0,0,1,.23.14,4.29,4.29,0,0,0,2.47.83,3.78,3.78,0,0,0,1.56-.27c.24-.11.22-.41.26-.67s.07-.63.09-.94a10.14,10.14,0,0,0,0-1.1c0-.19,0-.38,0-.56s-.06-.32.09-.41a.94.94,0,0,1,.22-.07,3,3,0,0,0,1-.38c.23-.13.63-.39.38-.72a.87.87,0,0,1-.09-.11.18.18,0,0,1,0-.14.2.2,0,0,1,.19-.09.89.89,0,0,1,.82.94c0,.32,0,.65,0,1a8.06,8.06,0,0,0,.08,1.32,2.75,2.75,0,0,0,.21.69C131.68,123.83,131.83,124,131.84,124.17Z"/><path class="cls-17" d="M129.36,121.27c-.19,0-.39.09-.59.12a5.36,5.36,0,0,1-.7,0,5.83,5.83,0,0,1-2.29-.37c-.26-.11-.57-.24-.5-.6a.71.71,0,0,1,.43-.42,6.25,6.25,0,0,1,3.43-.35,2.73,2.73,0,0,1,1.26.34.6.6,0,0,1,.29.42.48.48,0,0,1-.28.41A3.33,3.33,0,0,1,129.36,121.27Z"/></g></g></svg>