<svg xmlns="http://www.w3.org/2000/svg" viewBox="0 0 252 252"><defs><style>.cls-1{fill:#99123a;}.cls-2{fill:#db4b5f;}.cls-3{fill:#eb5867;}.cls-4{fill:#872823;}.cls-5{fill:#660c11;}.cls-6{fill:#ffffa7;opacity:0.18;}.cls-27,.cls-7{fill:#fff;}.cls-7{opacity:0.35;}.cls-8{fill:#cd1948;}.cls-9{fill:#ad1544;}.cls-10{fill:#b61643;}.cls-11{fill:#660c21;}.cls-12{fill:#8c6743;}.cls-13{fill:#75512e;}.cls-14{fill:#c6a178;}.cls-15{fill:#ba936c;}.cls-16{fill:#eaa211;}.cls-16,.cls-17,.cls-18,.cls-19,.cls-20,.cls-21,.cls-22,.cls-23,.cls-24,.cls-25,.cls-26,.cls-27{fill-rule:evenodd;}.cls-17{fill:#c18705;}.cls-18{fill:#fbae49;}.cls-19{fill:#726835;}.cls-20{fill:#737e3d;}.cls-21{fill:#f15f22;}.cls-22{fill:#fbb03b;}.cls-23{fill:#f6cd2b;}.cls-24{fill:#e78625;}.cls-25{fill:#2e2113;}.cls-26{fill:#231f20;}</style></defs><g id="Layer_48" data-name="Layer 48"><path class="cls-1" d="M176.24,186.35a52.68,52.68,0,0,0-4.57-22.79c-3.3-7-8.42-14.46-15.28-19.22a25.65,25.65,0,0,0-18.09-4.92l-.77.08a46.3,46.3,0,0,0-13.66-2.64,41,41,0,0,0-8.29.74c-1.76.26-3.53.53-5.33.64s-3.41,0-5.11,0A29.4,29.4,0,0,0,89.77,142c-11.19,6.34-16.7,23.75-17.26,37.43-.65,15.85,2,31.31,13.63,41.9,10.75,9.83,26.23,14,40.26,12.34,5.32.52,11.56.12,18.88-.87,9.79-1.31,17.17-8.32,22-15.42,5-7.39,8-17,8.78-26.77C176.16,189.19,176.23,187.77,176.24,186.35Z"/><path class="cls-2" d="M80.65,158.7a63.57,63.57,0,0,0-4.48,21.16c-.55,14.72,1.75,29.08,11.72,38.93a42.21,42.21,0,0,0,34.62,11.46,67.39,67.39,0,0,0,16.24-.8,20.13,20.13,0,0,0,4.93-1.4C86.81,224.38,80.28,180.73,80.65,158.7Z"/><path class="cls-3" d="M161.44,165.11c-2.83-6.52-7.24-13.43-13.14-17.86a20.88,20.88,0,0,0-15.55-4.57l-.67.08a36.9,36.9,0,0,0-11.74-2.46,32.72,32.72,0,0,0-7.13.69c-1.51.24-3,.49-4.58.59s-2.93,0-4.4,0A23.71,23.71,0,0,0,91,145.08c-4.5,2.76-7.93,7.77-10.36,13.62-.37,22,6.16,65.68,63,69.35,6-2.52,10.69-7.69,14-12.93,4.32-6.87,6.91-15.79,7.55-24.87.1-1.32.15-2.64.17-4A52.38,52.38,0,0,0,161.44,165.11Z"/><path class="cls-4" d="M126.6,179.91c-1.77-4.6-7.1-10.34-9.74-10.49-1.29-.07-9.49,7.47-8,16.29.82,4.91,3.48,9.92,8.66,12.41a2,2,0,0,0,2,0A15,15,0,0,0,126.6,179.91Z"/><path class="cls-5" d="M126.6,179.91c-1.77-4.6-7.1-10.34-9.74-10.49a1.87,1.87,0,0,0-.91.41c2.81,1.36,7,6.15,8.49,10.11a15,15,0,0,1-7,18.13l.1.05a2,2,0,0,0,2,0A15,15,0,0,0,126.6,179.91Z"/><path class="cls-6" d="M116.06,177.17a2.57,2.57,0,0,0-4.52,0,14.88,14.88,0,0,0-1.83,9.55,14.44,14.44,0,0,0,4.17,8.26c1.7,1.72,3.79,1.27,4.93-.7C121.17,190.16,117,178.52,116.06,177.17Z"/><path class="cls-7" d="M114.94,192.87a2.41,2.41,0,0,0,0-1,5.11,5.11,0,0,0-.75-1.47,5.72,5.72,0,0,1-.66-1.18c-.17-.47-.14-.84-.6-1.16a.91.91,0,0,0-1.16.06c-.72.76-.11,1.88.4,2.62a8.82,8.82,0,0,0,1.29,1.45,11.14,11.14,0,0,1,1,.83.3.3,0,0,0,.51-.15Z"/><path class="cls-7" d="M112.66,186.66a1.94,1.94,0,0,0,.22-.91.65.65,0,0,0-.62-.59.69.69,0,0,0-.74.46,1.49,1.49,0,0,0,.18,1,.53.53,0,0,0,.47.3.51.51,0,0,0,.49-.27Z"/><path class="cls-8" d="M170.46,172.21c-.74,1-.29,2.54-.19,3.73.06.83.11,1.67.16,2.51.09,1.65.11,3.32.08,5a71.83,71.83,0,0,1-.77,9.26,1.3,1.3,0,1,0,2.57.4,63.22,63.22,0,0,0,.71-9.72c0-1.82-.07-3.64-.25-5.45-.11-1-.24-2.07-.42-3.08s-.26-2.22-1.13-2.74a.6.6,0,0,0-.76.11Z"/><path class="cls-8" d="M170.31,198.35a11.45,11.45,0,0,0-1.57,3.24c-.39,1-.76,2.11-1.18,3.14a34.07,34.07,0,0,1-1.45,3.2c-.46.88-1.35,1.78-1,2.84a.9.9,0,0,0,.86.63c1.31.06,2.17-2.37,2.61-3.34s.85-2.08,1.25-3.14c.7-1.89,1.64-4.07,1.55-6.14a.64.64,0,0,0-1.12-.43Z"/></g><g id="Layer_47" data-name="Layer 47"><path class="cls-9" d="M147.15,169.22c.34-3.11.61-6.24.84-9.4.4-5.75.41-13.31-5.28-17.53-5.13-3.8-12.52-5-18.84-5.43a41,41,0,0,0-8.29.74c-1.76.26-3.53.53-5.33.64s-3.41,0-5.11,0A29.31,29.31,0,0,0,89.77,142c-11.19,6.34-16.7,23.75-17.26,37.43-.65,15.85,2,31.31,13.63,41.9,12.28,11.23,30.73,15.11,46.14,11.26C141.26,230.34,145.36,185.59,147.15,169.22Z"/><path class="cls-1" d="M146.15,162.29c-.68-2.38-1.45-4.72-2.29-7-.72-2-1.53-4-2.11-6s-23.27-3.58-25.36-3.38c-16.18,1.5-23.06,35-22.85,44,.18,7.36-.14,40.46,21.82,43.9a16.64,16.64,0,0,0,10.07-2,37.72,37.72,0,0,0,15.27-15.48c4.29-7.86,6.45-17,7.57-26A71.43,71.43,0,0,0,146.15,162.29Z"/><path class="cls-10" d="M176.23,186.46a52.7,52.7,0,0,0-4.57-22.8c-6.27-13.31-19.34-28.64-37.89-23.34-6.52,1.86-17.84,4.31-24.39,12.47s-12.77,33.41-7.59,55.29c5.82,24.66,18.24,28.12,43.49,24.72,9.79-1.31,17.17-8.32,22-15.42C173,209,176.12,197.63,176.23,186.46Z"/><path class="cls-1" d="M157.7,221.28c5.24-8.48,8.15-19.82,8.34-31,.14-8.05-2-20-4.35-26.93-9.32-27.39-36.51-21-27.92-23.16,18.82-4.82,31.63,10,37.9,23.35a52.68,52.68,0,0,1,4.57,22.79c-.11,11.17-3.23,22.49-9,30.93-4.31,6.34-10.66,12.6-18.95,14.81A40.81,40.81,0,0,0,157.7,221.28Z"/><path class="cls-8" d="M77.73,165.27c3.78-14.22,8.78-19.52,17.76-20.43,3.71-.37,11.08,4.76,1,14.62-6.32,6.21-8,14.28-11,31.56-1.46,8.43-6.65,6.84-8.18.57A49,49,0,0,1,77.73,165.27Z"/><path class="cls-8" d="M102.61,181.64c.58-6,1.54-19.92,13.34-26.93,9-5.36,29.57-5.43,28.16,9.67-.93,9.91-14.53,15.17-17.1,33.17-1.47,10.26-17.44,17.24-20.7,10A44.89,44.89,0,0,1,102.23,187C102.31,185.23,102.44,183.43,102.61,181.64Z"/><path class="cls-1" d="M114.58,144.48a24.78,24.78,0,0,1,1.11-2.94,4.4,4.4,0,0,1,2.94-2.46,13,13,0,0,1,6.8.55c1.78.57,4.2,1.7,4.6,3.89.47,2.65-2.23,4.14-4.2,4.69a20.61,20.61,0,0,1-5,.73,24.31,24.31,0,0,1-3.19-.07,6.63,6.63,0,0,0-6.72,2.18C109.07,153.13,114.11,146.06,114.58,144.48Z"/><path class="cls-11" d="M122.42,141a2.89,2.89,0,0,1,2.53,2.38c.22,1.68-1.33,2.76-2.48,3.09-5,1.47-6.42.63-6.49.36C115.19,143.74,119.77,140.83,122.42,141Z"/><path class="cls-8" d="M83.91,212.93c-.42,1.06.84,2.68,1.38,3.47a29.85,29.85,0,0,0,3.27,3.81,43.26,43.26,0,0,0,3.85,3.46c.66.51,1.32,1,2,1.44s1.47,1.09,2.35.64a.79.79,0,0,0,.4-.83,2.21,2.21,0,0,0-1.28-1.37c-.26-.15-.52-.3-.77-.46-.55-.35-1.09-.72-1.62-1.1a42.56,42.56,0,0,1-3.59-3,45.26,45.26,0,0,1-3.27-3.37c-.47-.54-.94-1.07-1.38-1.64a5.09,5.09,0,0,0-1-1.19.26.26,0,0,0-.35.14Z"/><path class="cls-8" d="M170.46,172.21c-.74,1-.29,2.54-.19,3.73.06.83.11,1.67.16,2.51.09,1.65.11,3.32.08,5a71.83,71.83,0,0,1-.77,9.26,1.3,1.3,0,1,0,2.57.4,63.22,63.22,0,0,0,.71-9.72c0-1.82-.07-3.64-.25-5.45-.11-1-.24-2.07-.42-3.08s-.26-2.22-1.13-2.74a.6.6,0,0,0-.76.11Z"/><path class="cls-8" d="M170.31,198.35a11.45,11.45,0,0,0-1.57,3.24c-.39,1-.76,2.11-1.18,3.14a34.07,34.07,0,0,1-1.45,3.2c-.46.88-1.35,1.78-1,2.84a.9.9,0,0,0,.86.63c1.31.06,2.17-2.37,2.61-3.34s.85-2.08,1.25-3.14c.7-1.89,1.64-4.07,1.55-6.14a.64.64,0,0,0-1.12-.43Z"/><path class="cls-12" d="M118.46,136.84c.77,3.42.31,10.31.27,10.44l.56-.05.78-.08a6.8,6.8,0,0,0,.77-.11,11.66,11.66,0,0,0,1.63-.47,7.89,7.89,0,0,0,1-.46,25.48,25.48,0,0,0-.31-7.84,38.87,38.87,0,0,0-2.34-8.64,49.39,49.39,0,0,0-4.48-8.82l.18-.23a1.39,1.39,0,0,0,.08-1.59,9,9,0,0,0-1.31-1.24,1.19,1.19,0,0,0-1.72.1,6,6,0,0,1-2.95,1.66,1.33,1.33,0,0,0-.88,1.55c.21,2.06.67,1.9,2.23,2.57s3.4,4.71,4.15,6.36A36.09,36.09,0,0,1,118.46,136.84Z"/><path class="cls-13" d="M115.24,121.5a49.39,49.39,0,0,1,4.48,8.82,38.64,38.64,0,0,1,2.34,8.63,26.48,26.48,0,0,1,.35,7.64l.06,0a7.89,7.89,0,0,0,1-.46,25.48,25.48,0,0,0-.31-7.84,38.87,38.87,0,0,0-2.34-8.64,49.39,49.39,0,0,0-4.48-8.82l.18-.23a1.39,1.39,0,0,0,.08-1.59,9,9,0,0,0-1.31-1.24,1.19,1.19,0,0,0-1.72.1,2.29,2.29,0,0,1-.27.27,1.35,1.35,0,0,1,.87.31,9,9,0,0,1,1.3,1.24,1.38,1.38,0,0,1-.08,1.59Z"/><path class="cls-14" d="M111,121.6a6.06,6.06,0,0,0,2.7-.87Z"/><path class="cls-14" d="M111,122.16l-.3-.34a.58.58,0,0,0,.44.39,5.1,5.1,0,0,0,2.93-.8c.84-.38.2-1.75-.65-1.36-.39.18-.77.39-1.17.56s-.83.21-1.21.41-.56,1,0,1.14Z"/><path class="cls-15" d="M118.44,133.83c0,1.43.59,2.83.82,4.23a26.33,26.33,0,0,1,.24,4.44c0,.87,1.26.73,1.27-.14a22.78,22.78,0,0,0-.35-4.81,8.94,8.94,0,0,0-1.41-3.87c-.16-.19-.55-.18-.57.15Z"/></g><g id="Layer_24" data-name="Layer 24"><path class="cls-16" d="M17.83,61.53S1.33,74.8,15.34,86.82c9.29,8,13.12,36.14,17.26,57.84,11.3,59.11,69.64,107.16,132.62,91.2,16-4.05,17.8-.66,23-5.83a3.6,3.6,0,0,0,.45-.58c-3.34,2.66-6,.06-18.29,1.61-52.69,6.69-109-43.31-125.86-97.52C38.3,113.64,31.61,88,22.61,79.74,13.94,71.8,16,64.91,18.61,61l-.78.57ZM190,227.77a3.69,3.69,0,0,0,1.39-.68l-.3-.32a3.85,3.85,0,0,1-.92.08A3.76,3.76,0,0,1,190,227.77Z"/><path class="cls-17" d="M9.84,74.26c-.59,3.92.55,8.32,5.5,12.56,9.29,8,13.12,36.14,17.26,57.84,10.9,57,65.58,103.75,126,92.64-48.09,3.83-92.69-34.8-111.46-78-9-20.69-11.72-43.72-18.43-62-3.6-9.78-8.88-13.1-15-18.5a20.91,20.91,0,0,1-3.86-4.53ZM177.09,233.7Z"/><path class="cls-18" d="M41.5,68.11s-6.55-7-11.13-6.91-8.3,4.26-9.51,5.71,2.77,2,6.61-.23,7.65-.81,11.87,1.59S41.5,68.11,41.5,68.11Z"/><path class="cls-19" d="M23.9,60.07a23.93,23.93,0,0,0-6.71-6.76c-5.58-3.84,1.5-1,2.46-4.29s1.91-2.33,6.51,2c1.24,1.15,2.51,2.38,3.7,3.56l-3,3.47Z"/><path class="cls-20" d="M21.27,57.85,21,57.6a25.48,25.48,0,0,0-4.27-3.67c-2.26-1.55-2.75-2.41-2.28-3.1.33-.47.95-.55,1.73-.66,1-.14,2.41-.33,2.71-1.36.59-2.06,1.28-2.84,2.66-2.43,1.07.31,2.45,1.59,4.78,3.77l.3.28c.58.54,1.18,1.1,1.78,1.68l.35.34-.18.21-1,.71-.18-.18-1.76-1.66-.3-.28c-2.17-2-3.46-3.22-4.18-3.43-.28-.08-.5.35-.8,1.4-.57,2-2.55,2.24-3.95,2.43-.41.06-.64,0-.69,0s.57.1,1.89,1a26.8,26.8,0,0,1,4.52,3.88l.32.36-.7.49A6.19,6.19,0,0,0,21.27,57.85Z"/><path class="cls-21" d="M21.76,57.43S9,67.31,22.61,79.74c9,8.25,15.69,33.9,21.87,53.8,16.85,54.21,73.17,104.21,125.86,97.52,13.37-1.69,15.36,1.55,19.21-2.45a2.69,2.69,0,0,0,.66-1.76,2.82,2.82,0,0,0,1.84-.49c4.39-3.43,1.28-5.67,4.19-18.64,11.46-51.14-34-110.89-87.31-132.27-19.56-7.85-44.88-16.7-52.4-26.28-11.36-14.44-22.48-2.83-22.48-2.83l-5.43,6.32Z"/><path class="cls-22" d="M21.76,57.43S12,65,18.67,75.19h0a24.48,24.48,0,0,0,3.95,4.54c9,8.25,15.69,33.9,21.87,53.8,16.85,54.21,73.17,104.21,125.86,97.52,13.37-1.69,15.36,1.55,19.21-2.45a2.69,2.69,0,0,0,.66-1.76,2.82,2.82,0,0,0,1.84-.49c4.39-3.43,1.28-5.67,4.19-18.64,11.46-51.14-34-110.89-87.31-132.27-19.56-7.85-44.88-16.7-52.4-26.28-3-3.79-5.94-5.78-8.69-6.66h0C40.11,40,34.05,46.34,34.05,46.34l-5.43,6.32-6.86,4.77ZM21.58,74a14.37,14.37,0,0,1,3.87-10.44c4.39-4.51,9.76-3.19,14.55,2.68s9.85,12.54,21.2,36.85,34.4,66.8,57.65,80.33,49.17.58,36.05-25.5S114,107.87,98.3,98.1,44.49,67.77,41.56,60c-2.4-6.39.52-12.91,8.33-14.94,1.7,2.06,3.94,4.66,6.83,7.83,8.82,9.68,28.71,16.56,35.81,19.34s25,7.74,47.88,23.85,36.68,38.57,44,50.16,13.35,38.05,10.53,49.95-2.36,15.73-2.92,22.05-4.86,5.53-4.86,5.53,1.59.52-.69,2.69-.16,0-15,.5-31.9,2.62-63.21-15.29-50-52.2-56.82-67.89S40.47,109.65,36.83,96.84,21.58,74,21.58,74Z"/><path class="cls-23" d="M32.4,61s7.37-2.94,20,20.61C59.31,94.53,65,110.52,76.23,130,87.35,149.28,104,172.1,117,180.5c13.75,8.89,26.15,8.4,33.06,3.09s11.83-17-4-38-30.14-33.78-35.57-37.73S63.33,78.64,60.13,76.52,46.22,67.34,42.69,62.79c-2.6-3.34-2.81-6-1.8-8.92A11.75,11.75,0,0,0,41.56,60c2.93,7.79,41,28.35,56.74,38.12s43.48,33.76,56.6,59.84-12.81,39-36.05,25.5-46.31-56-57.65-80.33S44.79,72.13,40,66.26c-2.45-3-5.06-4.82-7.6-5.27Z"/><path class="cls-20" d="M19.14,61.49C16.66,65.29,14.8,71.82,23,79.3c7.93,7.27,14,27.34,19.49,45.55.88,2.89,1.74,5.74,2.64,8.66.74,2.36,1.54,4.7,2.42,7,9.25,24.6,26.42,47.82,47.32,64.58s45.51,27,69.68,25.78q2.81-.15,5.56-.49a61.57,61.57,0,0,1,12.06-.42c3.3.16,4.81.24,6.87-1.9a2,2,0,0,0,.24-.33l.22-.62a3.8,3.8,0,0,0,.06-.5l0-.47.48,0a3,3,0,0,0,.87-.09,1.65,1.65,0,0,0,.64-.3c2.34-1.83,2.4-3.32,2.53-6.57a59.09,59.09,0,0,1,1.5-11.8q.6-2.68,1-5.42c3.43-23.62-4.77-48.71-19.83-70.71s-37-40.95-61-52.23q-3.41-1.59-6.89-3c-2.87-1.15-5.67-2.24-8.51-3.36-17.91-7-37.65-14.77-44.28-23.21-10.81-13.75-21.43-2.65-21.47-2.62l-5.45,6.34a68.81,68.81,0,0,0-6.25,4.42c-1.61,1.39-2.35,2.83-3.74,3.86ZM16.26,64c-1.36,4.17-.91,9.83,6,16.14,7.54,6.91,13.53,26.73,19,44.72.91,3,1.81,6,2.64,8.67.74,2.37,1.56,4.75,2.45,7.12,9.36,24.9,26.75,48.41,47.92,65.38s46.18,27.43,70.72,26.16c1.88-.1,3.76-.26,5.65-.5a62,62,0,0,1,11.86-.42c1.11.06,2,.11,2.86.07-1.7,1-3.37,1.14-6,1.38A79.85,79.85,0,0,0,165,235.14q-3.3.84-6.62,1.45c-28.6,5.25-55.92-2.58-77.84-18.35a120,120,0,0,1-45.49-66.09c-.66-2.5-1.24-5.05-1.73-7.63-.61-3.18-1.17-6.28-1.75-9.44C28,115.2,24,93.29,15.84,86.26,5.63,77.51,12.47,68,16.26,64ZM191.7,227.36c.28.36.11.56-1,1l-.13,0a2.45,2.45,0,0,1-.5.76,9.32,9.32,0,0,1-.88.82,3.79,3.79,0,0,1-.48.58c-3.15,3.16-5.09,3.33-9.32,3.69a79,79,0,0,0-14,2.35q-3.39.85-6.72,1.47c-29.05,5.33-56.78-2.61-79-18.61a121.6,121.6,0,0,1-46.06-66.92c-.67-2.56-1.26-5.14-1.75-7.72-.56-2.92-1.15-6.16-1.75-9.46-3.56-19.64-7.49-41.28-15.27-48C.15,74.78,17.3,61,17.35,61l.7-.52a16.5,16.5,0,0,1,3.22-3.58l6.84-4.76,5.41-6.29s11.58-12.1,23.48,3c6.31,8,25.8,15.67,43.49,22.61,3,1.17,5.9,2.32,8.53,3.37q3.49,1.41,7,3c24.33,11.42,46.53,30.58,61.79,52.88s23.6,47.79,20.12,71.77c-.26,1.84-.6,3.67-1,5.51a58.08,58.08,0,0,0-1.48,11.6c-.14,3.56-.2,5.21-2.88,7.3A2.62,2.62,0,0,1,191.7,227.36Z"/><path class="cls-24" d="M59.63,83.23c29.57,19.39,40.65,26.06,54.85,41.47,5.83,6.32,13.09,10.41,20.94,23.26,24.87,40.72-12.42,36.92-27.33,15.95C92.55,142.06,76.78,111.79,59.63,83.23Z"/><path class="cls-25" d="M131.26,163.33c1.07-1.09,3.09-.83,4.51.59s1.71,3.47.64,4.57-3.09.83-4.51-.59S130.19,164.43,131.26,163.33Z"/><path class="cls-26" d="M131.08,163.16a2.62,2.62,0,0,1,2.27-.69,4.48,4.48,0,0,1,2.55,1.32,4.6,4.6,0,0,1,1.34,2.57,2.66,2.66,0,0,1-.65,2.3,2.62,2.62,0,0,1-2.27.7,4.82,4.82,0,0,1-3.89-3.89,2.68,2.68,0,0,1,.65-2.31Zm2.33-.26a2.26,2.26,0,0,0-2,.61,2.33,2.33,0,0,0-.57,2,4.19,4.19,0,0,0,3.4,3.41,2.29,2.29,0,0,0,2-.61,2.35,2.35,0,0,0,.57-2,4.2,4.2,0,0,0-3.4-3.4Z"/><path class="cls-27" d="M132.07,163.52a2.09,2.09,0,0,1,1.71-.26c.92.31,1.28.89,1.15,1.07s-.57-.34-1.18-.55a1.62,1.62,0,0,0-1.1,0C132,164.12,131.91,163.8,132.07,163.52Z"/><path class="cls-25" d="M131.75,154c.93-1,2.7-.73,3.94.51s1.5,3,.56,4-2.7.72-3.94-.52S130.81,154.92,131.75,154Z"/><path class="cls-26" d="M131.59,153.81a2.27,2.27,0,0,1,2-.61,3.94,3.94,0,0,1,2.23,1.16A4,4,0,0,1,137,156.6a2.39,2.39,0,0,1-.57,2,2.3,2.3,0,0,1-2,.6,3.94,3.94,0,0,1-2.23-1.16,4,4,0,0,1-1.17-2.24,2.36,2.36,0,0,1,.57-2Zm2-.23a2,2,0,0,0-1.73.53,2,2,0,0,0-.5,1.76,3.5,3.5,0,0,0,1,2,3.39,3.39,0,0,0,2,1,2,2,0,0,0,1.73-.53,2,2,0,0,0,.5-1.76,3.5,3.5,0,0,0-1-2A3.39,3.39,0,0,0,133.63,153.58Z"/><path class="cls-27" d="M132.45,154.12a1.87,1.87,0,0,1,1.51-.23c.8.27,1.11.78,1,.93s-.5-.29-1-.47a1.5,1.5,0,0,0-1,0C132.44,154.65,132.32,154.36,132.45,154.12Z"/><path class="cls-25" d="M121.28,159.07c1-1,2.86-.77,4.18.55s1.59,3.21.6,4.23-2.87.77-4.19-.55S120.29,160.09,121.28,159.07Z"/><path class="cls-26" d="M121.12,158.91a2.41,2.41,0,0,1,2.1-.64,4.16,4.16,0,0,1,2.36,1.22,4.31,4.31,0,0,1,1.24,2.38,2.51,2.51,0,0,1-.6,2.14,2.43,2.43,0,0,1-2.11.64,4.21,4.21,0,0,1-2.36-1.23,4.25,4.25,0,0,1-1.24-2.37,2.48,2.48,0,0,1,.61-2.14Zm2.15-.24a2.07,2.07,0,0,0-1.83.56,2.16,2.16,0,0,0-.53,1.87,3.79,3.79,0,0,0,1.08,2.08,3.68,3.68,0,0,0,2.07,1.07,2.16,2.16,0,0,0,1.84-.56,2.21,2.21,0,0,0,.53-1.87,3.74,3.74,0,0,0-1.09-2.08A3.62,3.62,0,0,0,123.27,158.67Z"/><path class="cls-27" d="M122,159.24a1.94,1.94,0,0,1,1.59-.24c.85.29,1.18.82,1.07,1s-.54-.31-1.1-.5a1.55,1.55,0,0,0-1,0C122,159.8,121.89,159.5,122,159.24Z"/><path class="cls-25" d="M127.14,158.43c.78-.81,2.26-.61,3.3.43s1.26,2.54.47,3.34-2.26.61-3.3-.43S126.35,159.23,127.14,158.43Z"/><path class="cls-26" d="M127,158.3a1.92,1.92,0,0,1,1.66-.51,3.51,3.51,0,0,1,2.85,2.85,2,2,0,0,1-.48,1.69,1.92,1.92,0,0,1-1.66.51,3.4,3.4,0,0,1-1.87-1,3.44,3.44,0,0,1-1-1.88,2,2,0,0,1,.48-1.69Zm1.71-.19a1.72,1.72,0,0,0-1.46.44,1.79,1.79,0,0,0-.42,1.48,3,3,0,0,0,.86,1.64,2.88,2.88,0,0,0,1.64.85,1.71,1.71,0,0,0,1.45-.44,1.75,1.75,0,0,0,.42-1.48,2.92,2.92,0,0,0-.86-1.64A2.88,2.88,0,0,0,128.72,158.11Z"/><path class="cls-27" d="M127.73,158.56a1.52,1.52,0,0,1,1.26-.18c.67.22.93.64.84.77s-.42-.24-.87-.39a1.14,1.14,0,0,0-.8,0C127.72,159,127.62,158.77,127.73,158.56Z"/><path class="cls-25" d="M124.92,169.32c.78-.8,2.25-.61,3.29.43s1.25,2.54.47,3.34-2.25.61-3.29-.43S124.14,170.12,124.92,169.32Z"/><path class="cls-26" d="M124.79,169.2a1.92,1.92,0,0,1,1.66-.51,3.28,3.28,0,0,1,1.86,1,3.38,3.38,0,0,1,1,1.87,2,2,0,0,1-.48,1.68,1.92,1.92,0,0,1-1.66.51,3.28,3.28,0,0,1-1.86-1,3.38,3.38,0,0,1-1-1.87,1.94,1.94,0,0,1,.48-1.68Zm1.7-.2a1.67,1.67,0,0,0-1.45.45,1.76,1.76,0,0,0-.42,1.47,3,3,0,0,0,.86,1.64,2.89,2.89,0,0,0,1.63.84,1.64,1.64,0,0,0,1.45-.44,1.76,1.76,0,0,0,.42-1.47,3,3,0,0,0-.86-1.64A2.91,2.91,0,0,0,126.49,169Z"/><path class="cls-27" d="M125.51,169.45a1.55,1.55,0,0,1,1.25-.18c.67.22.94.65.84.78s-.42-.25-.86-.4a1.22,1.22,0,0,0-.81,0C125.49,169.9,125.4,169.66,125.51,169.45Z"/><path class="cls-25" d="M124.66,176.47c.78-.8,2.26-.61,3.3.43s1.25,2.54.47,3.34-2.26.61-3.3-.43S123.88,177.27,124.66,176.47Z"/><path class="cls-26" d="M124.54,176.35a1.9,1.9,0,0,1,1.65-.51,3.22,3.22,0,0,1,1.86,1,3.32,3.32,0,0,1,1,1.87,2,2,0,0,1-.48,1.68,1.89,1.89,0,0,1-1.65.51,3.22,3.22,0,0,1-1.86-1,3.32,3.32,0,0,1-1-1.87,2,2,0,0,1,.48-1.68Zm1.7-.19a1.63,1.63,0,0,0-1.45.44,1.7,1.7,0,0,0-.42,1.47,3.09,3.09,0,0,0,2.49,2.49,1.65,1.65,0,0,0,1.44-.45,1.7,1.7,0,0,0,.42-1.47,3,3,0,0,0-.85-1.64A2.92,2.92,0,0,0,126.24,176.16Z"/><path class="cls-27" d="M125.25,176.61a1.55,1.55,0,0,1,1.26-.19c.67.22.93.65.84.78s-.42-.25-.87-.4a1.2,1.2,0,0,0-.8,0C125.24,177.05,125.14,176.81,125.25,176.61Z"/><path class="cls-25" d="M126.55,171.74c.78-.8,2.26-.61,3.3.43s1.25,2.54.46,3.34-2.25.61-3.29-.43S125.77,172.54,126.55,171.74Z"/><path class="cls-26" d="M126.42,171.62a1.92,1.92,0,0,1,1.66-.51,3.25,3.25,0,0,1,1.86,1,3.38,3.38,0,0,1,1,1.87,2,2,0,0,1-.48,1.69,2,2,0,0,1-1.66.5,3.28,3.28,0,0,1-1.86-1,3.38,3.38,0,0,1-1-1.87,2,2,0,0,1,.48-1.68Zm1.7-.19a1.67,1.67,0,0,0-1.45.44,1.72,1.72,0,0,0-.41,1.47,3.06,3.06,0,0,0,2.48,2.49,1.67,1.67,0,0,0,1.45-.45,1.73,1.73,0,0,0,.42-1.47,3,3,0,0,0-.86-1.64A2.86,2.86,0,0,0,128.12,171.43Z"/><path class="cls-27" d="M127.14,171.88a1.53,1.53,0,0,1,1.25-.19c.67.22.94.65.84.78s-.42-.25-.86-.4a1.22,1.22,0,0,0-.81,0C127.12,172.32,127,172.08,127.14,171.88Z"/><path class="cls-25" d="M138.58,164.56c.79-.8,2.26-.61,3.3.43s1.25,2.54.47,3.34-2.26.6-3.3-.43S137.8,165.36,138.58,164.56Z"/><path class="cls-26" d="M138.46,164.43a1.91,1.91,0,0,1,1.65-.5,3.32,3.32,0,0,1,1.87,1,3.51,3.51,0,0,1,1,1.88,2,2,0,0,1-.48,1.68,1.92,1.92,0,0,1-1.66.51,3.25,3.25,0,0,1-1.86-1,3.32,3.32,0,0,1-1-1.87,2,2,0,0,1,.48-1.69Zm1.7-.19a1.67,1.67,0,0,0-1.45.45,1.73,1.73,0,0,0-.42,1.47,3,3,0,0,0,.86,1.64,2.86,2.86,0,0,0,1.63.84,1.65,1.65,0,0,0,1.44-.44,1.7,1.7,0,0,0,.42-1.47,3.06,3.06,0,0,0-2.48-2.49Z"/><path class="cls-27" d="M139.18,164.69a1.54,1.54,0,0,1,1.25-.18c.67.22.93.64.84.78s-.42-.25-.86-.4a1.22,1.22,0,0,0-.81,0C139.16,165.14,139.06,164.9,139.18,164.69Z"/><path class="cls-25" d="M129.83,167.26c.91-.94,2.64-.71,3.86.51s1.47,3,.55,3.91-2.64.71-3.86-.5S128.91,168.2,129.83,167.26Z"/><path class="cls-26" d="M129.68,167.12a2.26,2.26,0,0,1,1.94-.6,4.13,4.13,0,0,1,3.33,3.34,2.29,2.29,0,0,1-.56,2,2.23,2.23,0,0,1-1.94.59,3.85,3.85,0,0,1-2.19-1.13,3.89,3.89,0,0,1-1.14-2.2,2.29,2.29,0,0,1,.56-2Zm2-.23a2,2,0,0,0-1.7.52,2.06,2.06,0,0,0-.49,1.73,3.5,3.5,0,0,0,1,1.92,3.32,3.32,0,0,0,1.91,1,1.92,1.92,0,0,0,1.69-.52,2,2,0,0,0,.5-1.72,3.47,3.47,0,0,0-1-1.92A3.43,3.43,0,0,0,131.67,166.89Z"/><path class="cls-27" d="M130.52,167.42a1.8,1.8,0,0,1,1.47-.22c.78.26,1.09.76,1,.92s-.5-.29-1-.47a1.41,1.41,0,0,0-.94,0C130.5,167.94,130.39,167.66,130.52,167.42Z"/><path class="cls-25" d="M137.75,160.43c.78-.8,2.25-.61,3.29.43s1.25,2.54.47,3.34-2.25.61-3.29-.43S137,161.23,137.75,160.43Z"/><path class="cls-26" d="M137.62,160.3a2,2,0,0,1,1.66-.5,3.28,3.28,0,0,1,1.86,1,3.38,3.38,0,0,1,1,1.87,2,2,0,0,1-.48,1.68,1.92,1.92,0,0,1-1.66.51,3.28,3.28,0,0,1-1.86-1,3.38,3.38,0,0,1-1-1.87,2,2,0,0,1,.48-1.69Zm1.7-.19a1.67,1.67,0,0,0-1.45.45,1.73,1.73,0,0,0-.42,1.47,3,3,0,0,0,.86,1.64,2.89,2.89,0,0,0,1.63.84,1.64,1.64,0,0,0,1.45-.44,1.72,1.72,0,0,0,.41-1.47,3.06,3.06,0,0,0-2.48-2.49Z"/><path class="cls-27" d="M138.34,160.56a1.55,1.55,0,0,1,1.25-.18c.67.22.93.65.84.78s-.42-.25-.86-.4a1.22,1.22,0,0,0-.81,0C138.32,161,138.23,160.77,138.34,160.56Z"/><path class="cls-25" d="M126.52,164.5c.78-.8,2.26-.61,3.3.43s1.25,2.53.47,3.33-2.26.61-3.3-.43S125.74,165.3,126.52,164.5Z"/><path class="cls-26" d="M126.4,164.37a1.86,1.86,0,0,1,1.65-.5,3.26,3.26,0,0,1,1.86,1,3.35,3.35,0,0,1,1,1.88,2,2,0,0,1-.48,1.68,1.9,1.9,0,0,1-1.65.51,3.52,3.52,0,0,1-2.84-2.84,2,2,0,0,1,.48-1.69Zm1.69-.19a1.67,1.67,0,0,0-1.44.44,1.72,1.72,0,0,0-.42,1.48,3,3,0,0,0,.85,1.64,2.92,2.92,0,0,0,1.63.84,1.69,1.69,0,0,0,1.45-.44,1.71,1.71,0,0,0,.42-1.47,2.89,2.89,0,0,0-.86-1.64A2.82,2.82,0,0,0,128.09,164.18Z"/><path class="cls-27" d="M127.11,164.63a1.52,1.52,0,0,1,1.26-.18c.67.22.93.64.84.77s-.43-.24-.87-.39a1.14,1.14,0,0,0-.8,0C127.1,165.07,127,164.84,127.11,164.63Z"/><path class="cls-25" d="M118.22,152.61c1.07-1.09,3.09-.83,4.52.59s1.71,3.47.64,4.57-3.09.83-4.51-.59S117.15,153.71,118.22,152.61Z"/><path class="cls-26" d="M118.05,152.44a2.62,2.62,0,0,1,2.27-.69,4.48,4.48,0,0,1,2.55,1.32,4.6,4.6,0,0,1,1.34,2.57,2.7,2.7,0,0,1-.66,2.3,2.6,2.6,0,0,1-2.26.7,4.82,4.82,0,0,1-3.89-3.89,2.68,2.68,0,0,1,.65-2.31Zm2.33-.26a2.26,2.26,0,0,0-2,.61,2.34,2.34,0,0,0-.58,2,4.06,4.06,0,0,0,1.18,2.25,3.94,3.94,0,0,0,2.23,1.16,2.29,2.29,0,0,0,2-.61,2.35,2.35,0,0,0,.57-2,4,4,0,0,0-1.17-2.24A3.91,3.91,0,0,0,120.38,152.18Z"/><path class="cls-27" d="M119,152.8a2.12,2.12,0,0,1,1.72-.26c.92.31,1.28.89,1.15,1.07s-.58-.34-1.18-.55a1.65,1.65,0,0,0-1.11,0C119,153.4,118.88,153.08,119,152.8Z"/><path class="cls-25" d="M118.71,143.24c.94-1,2.71-.73,4,.51s1.5,3,.56,4-2.7.72-3.94-.52S117.78,144.2,118.71,143.24Z"/><path class="cls-26" d="M118.56,143.09a2.26,2.26,0,0,1,2-.61,3.88,3.88,0,0,1,2.23,1.16,4,4,0,0,1,1.18,2.24,2.4,2.4,0,0,1-.58,2,2.29,2.29,0,0,1-2,.6,3.94,3.94,0,0,1-2.23-1.16A4,4,0,0,1,118,145.1a2.33,2.33,0,0,1,.57-2Zm2-.23a2,2,0,0,0-1.74.53,2.1,2.1,0,0,0-.5,1.76,3.58,3.58,0,0,0,1,2,3.39,3.39,0,0,0,2,1,2,2,0,0,0,1.73-.53,2,2,0,0,0,.5-1.76,3.5,3.5,0,0,0-1-2A3.42,3.42,0,0,0,120.6,142.86Z"/><path class="cls-27" d="M119.42,143.4a1.86,1.86,0,0,1,1.5-.23c.8.27,1.12.78,1,.93s-.51-.29-1-.47a1.47,1.47,0,0,0-1,0C119.4,143.93,119.29,143.64,119.42,143.4Z"/><path class="cls-25" d="M108.24,148.35c1-1,2.87-.77,4.19.55s1.58,3.21.59,4.23-2.86.77-4.18-.55S107.25,149.37,108.24,148.35Z"/><path class="cls-26" d="M108.08,148.19a2.42,2.42,0,0,1,2.1-.64,4.19,4.19,0,0,1,2.37,1.22,4.31,4.31,0,0,1,1.24,2.38,2.48,2.48,0,0,1-.61,2.14,2.41,2.41,0,0,1-2.1.64,4.18,4.18,0,0,1-2.36-1.23,4.25,4.25,0,0,1-1.24-2.37,2.51,2.51,0,0,1,.6-2.14Zm2.16-.24a2.09,2.09,0,0,0-1.84.56,2.19,2.19,0,0,0-.53,1.87,3.74,3.74,0,0,0,1.09,2.08,3.68,3.68,0,0,0,2.07,1.07,2.13,2.13,0,0,0,1.83-.56,2.17,2.17,0,0,0,.53-1.87,3.79,3.79,0,0,0-1.08-2.08A3.62,3.62,0,0,0,110.24,148Z"/><path class="cls-27" d="M109,148.52a1.94,1.94,0,0,1,1.59-.24c.84.29,1.18.82,1.06,1s-.53-.31-1.1-.5a1.52,1.52,0,0,0-1,0C109,149.08,108.85,148.78,109,148.52Z"/><path class="cls-25" d="M114.11,147.71c.78-.81,2.26-.61,3.3.43s1.26,2.54.47,3.34-2.26.61-3.3-.43S113.32,148.51,114.11,147.71Z"/><path class="cls-26" d="M114,147.58a1.92,1.92,0,0,1,1.66-.51,3.4,3.4,0,0,1,1.87,1,3.44,3.44,0,0,1,1,1.88,2,2,0,0,1-.48,1.69,1.92,1.92,0,0,1-1.66.51,3.4,3.4,0,0,1-1.87-1,3.44,3.44,0,0,1-1-1.88,2,2,0,0,1,.48-1.69Zm1.7-.19a1.71,1.71,0,0,0-1.45.44,1.76,1.76,0,0,0-.42,1.48,2.92,2.92,0,0,0,.86,1.64,2.88,2.88,0,0,0,1.63.85,1.72,1.72,0,0,0,1.46-.44,1.78,1.78,0,0,0,.42-1.48,3,3,0,0,0-.86-1.64A2.88,2.88,0,0,0,115.68,147.39Z"/><path class="cls-27" d="M114.7,147.84a1.52,1.52,0,0,1,1.26-.18c.67.22.93.64.84.77s-.42-.24-.87-.39a1.16,1.16,0,0,0-.81,0C114.68,148.29,114.59,148.05,114.7,147.84Z"/><path class="cls-25" d="M111.88,158.6c.79-.8,2.26-.61,3.3.43s1.25,2.54.47,3.34-2.26.61-3.3-.43S111.1,159.4,111.88,158.6Z"/><path class="cls-26" d="M111.76,158.47a1.94,1.94,0,0,1,1.65-.5,3.27,3.27,0,0,1,1.87,1,3.38,3.38,0,0,1,1,1.87,2,2,0,0,1-.48,1.68,1.92,1.92,0,0,1-1.66.51,3.25,3.25,0,0,1-1.86-1,3.32,3.32,0,0,1-1-1.87,2,2,0,0,1,.48-1.69Zm1.7-.19a1.67,1.67,0,0,0-1.45.45,1.73,1.73,0,0,0-.42,1.47,3,3,0,0,0,.86,1.64,2.86,2.86,0,0,0,1.63.84,1.65,1.65,0,0,0,1.45-.44,1.72,1.72,0,0,0,.41-1.47,3,3,0,0,0-.85-1.64A2.91,2.91,0,0,0,113.46,158.28Z"/><path class="cls-27" d="M112.48,158.73a1.54,1.54,0,0,1,1.25-.18c.67.22.93.65.84.78s-.42-.25-.86-.4a1.22,1.22,0,0,0-.81,0C112.46,159.18,112.37,158.94,112.48,158.73Z"/><path class="cls-25" d="M111.63,165.75c.78-.8,2.26-.61,3.3.43s1.25,2.54.47,3.34-2.26.61-3.3-.43S110.85,166.55,111.63,165.75Z"/><path class="cls-26" d="M111.5,165.63a1.92,1.92,0,0,1,1.66-.51,3.22,3.22,0,0,1,1.86,1,3.32,3.32,0,0,1,1,1.87,2,2,0,0,1-.48,1.68,1.9,1.9,0,0,1-1.65.51,3.27,3.27,0,0,1-1.87-1,3.37,3.37,0,0,1-1-1.87,2,2,0,0,1,.47-1.68Zm1.7-.19a1.62,1.62,0,0,0-1.44.44,1.7,1.7,0,0,0-.42,1.47,3.06,3.06,0,0,0,2.48,2.49,1.66,1.66,0,0,0,1.45-.45,1.73,1.73,0,0,0,.42-1.47,3,3,0,0,0-.86-1.64A2.86,2.86,0,0,0,113.2,165.44Z"/><path class="cls-27" d="M112.22,165.89a1.55,1.55,0,0,1,1.26-.19c.66.22.93.65.84.78s-.43-.25-.87-.4a1.19,1.19,0,0,0-.8,0C112.21,166.33,112.11,166.09,112.22,165.89Z"/><path class="cls-25" d="M113.52,161c.78-.8,2.25-.61,3.29.43s1.25,2.54.47,3.34-2.26.61-3.3-.43S112.73,161.82,113.52,161Z"/><path class="cls-26" d="M113.39,160.9a1.92,1.92,0,0,1,1.66-.51,3.28,3.28,0,0,1,1.86,1,3.38,3.38,0,0,1,1,1.87,2,2,0,0,1-.48,1.69,2,2,0,0,1-1.66.5,3.25,3.25,0,0,1-1.86-1,3.38,3.38,0,0,1-1-1.87,2,2,0,0,1,.48-1.68Zm1.7-.19a1.64,1.64,0,0,0-1.45.44,1.73,1.73,0,0,0-.42,1.47,3,3,0,0,0,.86,1.64,2.88,2.88,0,0,0,1.63.85,1.67,1.67,0,0,0,1.45-.45,1.72,1.72,0,0,0,.41-1.47,2.94,2.94,0,0,0-.85-1.64A2.89,2.89,0,0,0,115.09,160.71Z"/><path class="cls-27" d="M114.11,161.16a1.52,1.52,0,0,1,1.25-.19c.67.22.93.65.84.78s-.42-.25-.86-.4a1.22,1.22,0,0,0-.81,0C114.09,161.6,114,161.36,114.11,161.16Z"/><path class="cls-25" d="M125.55,153.84c.78-.8,2.26-.61,3.3.43s1.25,2.53.47,3.34-2.26.6-3.3-.44S124.77,154.64,125.55,153.84Z"/><path class="cls-26" d="M125.43,153.71a1.9,1.9,0,0,1,1.65-.5,3.22,3.22,0,0,1,1.86,1,3.32,3.32,0,0,1,1,1.87,2,2,0,0,1-.48,1.68,1.89,1.89,0,0,1-1.65.51,3.22,3.22,0,0,1-1.86-1,3.32,3.32,0,0,1-1-1.87,2,2,0,0,1,.48-1.69Zm1.7-.19a1.66,1.66,0,0,0-1.45.45,1.7,1.7,0,0,0-.42,1.47,3,3,0,0,0,.86,1.64,2.86,2.86,0,0,0,1.63.84,1.65,1.65,0,0,0,1.44-.44,1.7,1.7,0,0,0,.42-1.47,3.06,3.06,0,0,0-2.48-2.49Z"/><path class="cls-27" d="M126.14,154a1.56,1.56,0,0,1,1.26-.18c.67.22.93.64.84.78s-.42-.25-.87-.4a1.2,1.2,0,0,0-.8,0C126.13,154.42,126,154.18,126.14,154Z"/><path class="cls-25" d="M116.79,156.54c.92-.94,2.65-.71,3.87.51s1.47,3,.55,3.91-2.65.71-3.87-.51S115.88,157.48,116.79,156.54Z"/><path class="cls-26" d="M116.65,156.4a2.26,2.26,0,0,1,1.94-.6,3.9,3.9,0,0,1,2.18,1.14,4,4,0,0,1,1.15,2.2,2.29,2.29,0,0,1-.56,2,2.24,2.24,0,0,1-1.94.59,3.82,3.82,0,0,1-2.19-1.13,3.89,3.89,0,0,1-1.14-2.2,2.29,2.29,0,0,1,.56-2Zm2-.23a2,2,0,0,0-1.7.52,2,2,0,0,0-.49,1.73,3.49,3.49,0,0,0,1,1.92,3.35,3.35,0,0,0,1.91,1,1.93,1.93,0,0,0,1.7-.52,2,2,0,0,0,.49-1.72,3.57,3.57,0,0,0-2.91-2.92Z"/><path class="cls-27" d="M117.49,156.7a1.8,1.8,0,0,1,1.47-.22c.78.26,1.09.76,1,.92s-.49-.29-1-.47a1.44,1.44,0,0,0-1,0C117.47,157.22,117.36,156.94,117.49,156.7Z"/><path class="cls-25" d="M124.71,149.71c.79-.8,2.26-.61,3.3.43s1.25,2.54.47,3.34-2.26.61-3.3-.43S123.93,150.51,124.71,149.71Z"/><path class="cls-26" d="M124.59,149.58a1.9,1.9,0,0,1,1.65-.5,3.27,3.27,0,0,1,1.87,1,3.37,3.37,0,0,1,1,1.87,1.94,1.94,0,0,1-.47,1.68,1.92,1.92,0,0,1-1.66.51,3.22,3.22,0,0,1-1.86-1,3.32,3.32,0,0,1-1-1.87,2,2,0,0,1,.48-1.69Zm1.7-.19a1.66,1.66,0,0,0-1.45.45,1.73,1.73,0,0,0-.42,1.47,3,3,0,0,0,.86,1.64,2.86,2.86,0,0,0,1.63.84,1.65,1.65,0,0,0,1.44-.44,1.7,1.7,0,0,0,.42-1.47,3,3,0,0,0-.85-1.64A2.94,2.94,0,0,0,126.29,149.39Z"/><path class="cls-27" d="M125.31,149.84a1.54,1.54,0,0,1,1.25-.18c.67.22.93.65.84.78s-.42-.25-.87-.4a1.2,1.2,0,0,0-.8,0C125.29,150.29,125.19,150.05,125.31,149.84Z"/><path class="cls-25" d="M113.49,153.78c.78-.8,2.26-.61,3.3.43s1.25,2.53.47,3.33-2.26.61-3.3-.43S112.71,154.58,113.49,153.78Z"/><path class="cls-26" d="M113.36,153.65a1.89,1.89,0,0,1,1.66-.5,3.29,3.29,0,0,1,1.86,1,3.35,3.35,0,0,1,1,1.88,2,2,0,0,1-.48,1.68,1.91,1.91,0,0,1-1.65.51,3.4,3.4,0,0,1-1.87-1,3.45,3.45,0,0,1-1-1.87,2,2,0,0,1,.48-1.69Zm1.7-.19a1.67,1.67,0,0,0-1.44.44,1.72,1.72,0,0,0-.42,1.48,3,3,0,0,0,.85,1.64,2.89,2.89,0,0,0,1.63.84,1.7,1.7,0,0,0,1.45-.44,1.74,1.74,0,0,0,.42-1.47,2.89,2.89,0,0,0-.86-1.64A2.82,2.82,0,0,0,115.06,153.46Z"/><path class="cls-27" d="M114.08,153.91a1.52,1.52,0,0,1,1.26-.18c.66.22.93.64.84.77s-.43-.24-.87-.39a1.16,1.16,0,0,0-.81,0C114.07,154.35,114,154.12,114.08,153.91Z"/><path class="cls-25" d="M117.67,134.79c1.07-1.1,3.09-.84,4.51.59s1.72,3.47.65,4.56-3.09.84-4.52-.59S116.6,135.88,117.67,134.79Z"/><path class="cls-26" d="M117.5,134.61a2.6,2.6,0,0,1,2.26-.69,4.48,4.48,0,0,1,2.55,1.32,4.6,4.6,0,0,1,1.34,2.57,2.69,2.69,0,0,1-.65,2.31,2.65,2.65,0,0,1-2.27.69,4.48,4.48,0,0,1-2.55-1.32,4.6,4.6,0,0,1-1.34-2.57,2.73,2.73,0,0,1,.66-2.31Zm2.32-.26a2.29,2.29,0,0,0-2,.61,2.33,2.33,0,0,0-.57,2,4.07,4.07,0,0,0,1.17,2.25,4,4,0,0,0,2.23,1.16,2.28,2.28,0,0,0,2-.61,2.35,2.35,0,0,0,.58-2,4,4,0,0,0-1.18-2.24A3.94,3.94,0,0,0,119.82,134.35Z"/><path class="cls-27" d="M118.48,135a2.11,2.11,0,0,1,1.72-.26c.91.31,1.27.89,1.15,1.07s-.58-.34-1.19-.55a1.69,1.69,0,0,0-1.1,0C118.46,135.57,118.33,135.25,118.48,135Z"/><path class="cls-25" d="M118.16,125.41c.93-1,2.7-.73,4,.52s1.49,3,.56,4-2.7.73-4-.52S117.22,126.37,118.16,125.41Z"/><path class="cls-26" d="M118,125.26a2.29,2.29,0,0,1,2-.61,3.91,3.91,0,0,1,2.23,1.16,4,4,0,0,1,1.17,2.24,2.35,2.35,0,0,1-.57,2,2.29,2.29,0,0,1-2,.6,3.92,3.92,0,0,1-2.23-1.15,4.06,4.06,0,0,1-1.18-2.25,2.37,2.37,0,0,1,.58-2Zm2-.23a2,2,0,0,0-1.73.53,2,2,0,0,0-.5,1.76,3.68,3.68,0,0,0,3,3,2.06,2.06,0,0,0,1.74-.53A2.11,2.11,0,0,0,123,128a3.58,3.58,0,0,0-1-2A3.46,3.46,0,0,0,120,125Z"/><path class="cls-27" d="M118.87,125.57a1.82,1.82,0,0,1,1.5-.22c.8.26,1.11.77,1,.93s-.5-.3-1-.48a1.51,1.51,0,0,0-1,0C118.85,126.1,118.73,125.82,118.87,125.57Z"/><path class="cls-25" d="M107.69,130.52c1-1,2.86-.77,4.18.55s1.59,3.21.6,4.23-2.87.77-4.19-.55S106.7,131.54,107.69,130.52Z"/><path class="cls-26" d="M107.53,130.36a2.41,2.41,0,0,1,2.1-.64A4.09,4.09,0,0,1,112,131a4.27,4.27,0,0,1,1.25,2.37,2.51,2.51,0,0,1-.61,2.14,2.41,2.41,0,0,1-2.1.64,4.19,4.19,0,0,1-2.37-1.22,4.38,4.38,0,0,1-1.24-2.38,2.51,2.51,0,0,1,.61-2.14Zm2.16-.24a2.14,2.14,0,0,0-1.84.56,2.2,2.2,0,0,0-.53,1.87,3.79,3.79,0,0,0,1.08,2.08,3.71,3.71,0,0,0,2.07,1.07,2.14,2.14,0,0,0,1.84-.56,2.19,2.19,0,0,0,.53-1.87,3.74,3.74,0,0,0-1.09-2.08A3.66,3.66,0,0,0,109.69,130.12Z"/><path class="cls-27" d="M108.44,130.69a2,2,0,0,1,1.59-.24c.85.29,1.18.83,1.07,1s-.54-.31-1.1-.5a1.52,1.52,0,0,0-1,0C108.42,131.25,108.3,131,108.44,130.69Z"/><path class="cls-25" d="M113.55,129.88c.78-.8,2.26-.61,3.31.43s1.25,2.54.47,3.35-2.27.61-3.31-.44S112.77,130.68,113.55,129.88Z"/><path class="cls-26" d="M113.42,129.75a1.9,1.9,0,0,1,1.66-.5,3.24,3.24,0,0,1,1.87,1,3.32,3.32,0,0,1,1,1.87,2,2,0,0,1-.48,1.69,1.91,1.91,0,0,1-1.66.51,3.25,3.25,0,0,1-1.86-1,3.43,3.43,0,0,1-1-1.88,2,2,0,0,1,.48-1.69Zm1.71-.19a1.66,1.66,0,0,0-1.45.45,1.7,1.7,0,0,0-.42,1.47,3,3,0,0,0,.86,1.65,2.86,2.86,0,0,0,1.63.84,1.66,1.66,0,0,0,1.45-.44,1.72,1.72,0,0,0,.42-1.48,3,3,0,0,0-.86-1.64A2.82,2.82,0,0,0,115.13,129.56Z"/><path class="cls-27" d="M114.14,130a1.52,1.52,0,0,1,1.26-.18c.67.22.94.65.84.78s-.42-.25-.86-.4a1.16,1.16,0,0,0-.81,0C114.13,130.46,114,130.22,114.14,130Z"/><path class="cls-25" d="M111.33,140.77c.78-.8,2.26-.61,3.3.43s1.25,2.54.47,3.34-2.26.61-3.3-.43S110.55,141.57,111.33,140.77Z"/><path class="cls-26" d="M111.2,140.65a1.92,1.92,0,0,1,1.66-.51,3.22,3.22,0,0,1,1.86,1,3.32,3.32,0,0,1,1,1.87,2,2,0,0,1-.48,1.69,1.9,1.9,0,0,1-1.65.5,3.27,3.27,0,0,1-1.87-1,3.37,3.37,0,0,1-1-1.87,2,2,0,0,1,.47-1.68Zm1.7-.19a1.65,1.65,0,0,0-1.44.44,1.7,1.7,0,0,0-.42,1.47,3.06,3.06,0,0,0,2.48,2.49,1.66,1.66,0,0,0,1.45-.45,1.73,1.73,0,0,0,.42-1.47,3,3,0,0,0-.86-1.64A2.86,2.86,0,0,0,112.9,140.46Z"/><path class="cls-27" d="M111.92,140.91a1.55,1.55,0,0,1,1.26-.19c.66.22.93.65.84.78s-.43-.25-.87-.4a1.19,1.19,0,0,0-.8,0C111.91,141.35,111.81,141.11,111.92,140.91Z"/><path class="cls-25" d="M111.08,147.92c.78-.8,2.25-.6,3.29.44s1.25,2.53.47,3.33-2.26.61-3.3-.43S110.29,148.73,111.08,147.92Z"/><path class="cls-26" d="M111,147.8a1.91,1.91,0,0,1,1.65-.51,3.27,3.27,0,0,1,1.87,1,3.38,3.38,0,0,1,1,1.87,2,2,0,0,1-.48,1.69,1.92,1.92,0,0,1-1.66.5,3.29,3.29,0,0,1-1.86-1,3.41,3.41,0,0,1-1-1.88,2,2,0,0,1,.48-1.68Zm1.7-.19a1.67,1.67,0,0,0-1.45.44,1.73,1.73,0,0,0-.42,1.47,3.09,3.09,0,0,0,2.49,2.49,1.68,1.68,0,0,0,1.45-.45,1.72,1.72,0,0,0,.41-1.47,3,3,0,0,0-.85-1.64A2.89,2.89,0,0,0,112.65,147.61Z"/><path class="cls-27" d="M111.67,148.06a1.52,1.52,0,0,1,1.25-.19c.67.22.93.65.84.78s-.42-.25-.86-.4a1.22,1.22,0,0,0-.81,0C111.65,148.5,111.56,148.27,111.67,148.06Z"/><path class="cls-25" d="M113,143.19c.78-.8,2.26-.6,3.3.44s1.25,2.53.47,3.33-2.26.61-3.3-.43S112.18,144,113,143.19Z"/><path class="cls-26" d="M112.83,143.07a1.92,1.92,0,0,1,1.66-.51,3.28,3.28,0,0,1,1.86,1,3.32,3.32,0,0,1,1,1.87,2,2,0,0,1-.48,1.69,1.9,1.9,0,0,1-1.65.5,3.26,3.26,0,0,1-1.86-1,3.35,3.35,0,0,1-1-1.88,2,2,0,0,1,.47-1.68Zm1.7-.19a1.67,1.67,0,0,0-1.44.44,1.7,1.7,0,0,0-.42,1.47,2.94,2.94,0,0,0,.85,1.64,2.88,2.88,0,0,0,1.63.85,1.66,1.66,0,0,0,1.45-.45,1.69,1.69,0,0,0,.42-1.47,3,3,0,0,0-.86-1.64A2.86,2.86,0,0,0,114.53,142.88Z"/><path class="cls-27" d="M113.55,143.33a1.55,1.55,0,0,1,1.26-.19c.67.23.93.65.84.78s-.43-.25-.87-.4a1.19,1.19,0,0,0-.8,0C113.54,143.77,113.44,143.54,113.55,143.33Z"/><path class="cls-25" d="M125,136c.78-.8,2.25-.61,3.29.43s1.25,2.54.47,3.34-2.25.61-3.29-.43S124.22,136.81,125,136Z"/><path class="cls-26" d="M124.87,135.89a1.92,1.92,0,0,1,1.66-.51,3.28,3.28,0,0,1,1.86,1,3.38,3.38,0,0,1,1,1.87,2,2,0,0,1-.48,1.68,1.92,1.92,0,0,1-1.66.51,3.28,3.28,0,0,1-1.86-1,3.38,3.38,0,0,1-1-1.87,2,2,0,0,1,.48-1.68Zm1.7-.19a1.64,1.64,0,0,0-1.45.44,1.72,1.72,0,0,0-.41,1.47,3.06,3.06,0,0,0,2.48,2.49,1.67,1.67,0,0,0,1.45-.45,1.73,1.73,0,0,0,.42-1.47,3,3,0,0,0-.86-1.64A2.89,2.89,0,0,0,126.57,135.7Z"/><path class="cls-27" d="M125.59,136.15a1.53,1.53,0,0,1,1.25-.19c.67.22.94.65.84.78s-.42-.25-.86-.4a1.22,1.22,0,0,0-.81,0C125.57,136.59,125.48,136.35,125.59,136.15Z"/><path class="cls-25" d="M116.24,138.72c.91-.94,2.65-.72,3.87.5s1.46,3,.55,3.91-2.65.72-3.87-.5S115.32,139.66,116.24,138.72Z"/><path class="cls-26" d="M116.09,138.57A2.27,2.27,0,0,1,118,138a4.1,4.1,0,0,1,3.33,3.34,2.14,2.14,0,0,1-2.5,2.57,3.9,3.9,0,0,1-2.18-1.14,4,4,0,0,1-1.15-2.2,2.29,2.29,0,0,1,.56-2Zm2-.22a2,2,0,0,0-1.69.51,2,2,0,0,0-.49,1.73,3.42,3.42,0,0,0,1,1.92,3.35,3.35,0,0,0,1.91,1,2,2,0,0,0,1.7-.51,2.06,2.06,0,0,0,.49-1.73,3.44,3.44,0,0,0-1-1.92A3.29,3.29,0,0,0,118.08,138.35Z"/><path class="cls-27" d="M116.93,138.87a1.77,1.77,0,0,1,1.47-.21c.79.26,1.1.75,1,.91s-.5-.29-1-.47a1.42,1.42,0,0,0-.94,0C116.91,139.39,116.8,139.12,116.93,138.87Z"/><path class="cls-25" d="M124.16,131.88c.78-.8,2.26-.61,3.3.43s1.25,2.54.47,3.34-2.26.61-3.3-.43S123.38,132.68,124.16,131.88Z"/><path class="cls-26" d="M124,131.76a1.92,1.92,0,0,1,1.66-.51,3.25,3.25,0,0,1,1.86,1,3.32,3.32,0,0,1,1,1.87,2,2,0,0,1-.48,1.69,1.91,1.91,0,0,1-1.65.5,3.27,3.27,0,0,1-1.87-1,3.45,3.45,0,0,1-1-1.87,2,2,0,0,1,.48-1.68Zm1.7-.19a1.65,1.65,0,0,0-1.44.44,1.7,1.7,0,0,0-.42,1.47,3,3,0,0,0,.85,1.64,2.94,2.94,0,0,0,1.63.85,1.67,1.67,0,0,0,1.45-.45,1.73,1.73,0,0,0,.42-1.47,3,3,0,0,0-.86-1.64A2.86,2.86,0,0,0,125.73,131.57Z"/><path class="cls-27" d="M124.75,132a1.55,1.55,0,0,1,1.26-.19c.66.22.93.65.84.78s-.43-.25-.87-.4a1.22,1.22,0,0,0-.81,0C124.74,132.46,124.64,132.22,124.75,132Z"/><path class="cls-25" d="M112.93,136c.79-.8,2.26-.61,3.3.43s1.25,2.53.47,3.34-2.26.6-3.3-.44S112.15,136.75,112.93,136Z"/><path class="cls-26" d="M112.81,135.82a1.9,1.9,0,0,1,1.65-.5,3.32,3.32,0,0,1,1.87,1,3.42,3.42,0,0,1,1,1.88,2,2,0,0,1-.47,1.68,1.92,1.92,0,0,1-1.66.51,3.22,3.22,0,0,1-1.86-1,3.32,3.32,0,0,1-1-1.87,2,2,0,0,1,.48-1.69Zm1.7-.19a1.66,1.66,0,0,0-1.45.45,1.73,1.73,0,0,0-.42,1.47,3,3,0,0,0,.86,1.64,2.86,2.86,0,0,0,1.63.84,1.65,1.65,0,0,0,1.44-.44,1.7,1.7,0,0,0,.42-1.47,3.06,3.06,0,0,0-2.48-2.49Z"/><path class="cls-27" d="M113.53,136.08a1.54,1.54,0,0,1,1.25-.18c.67.22.93.64.84.78s-.42-.25-.86-.4a1.16,1.16,0,0,0-.81,0C113.51,136.53,113.41,136.29,113.53,136.08Z"/><path class="cls-25" d="M99.77,144.28c1.06-1.1,3.09-.83,4.51.59s1.71,3.47.64,4.57-3.09.83-4.51-.59S98.7,145.38,99.77,144.28Z"/><path class="cls-26" d="M99.59,144.11a2.62,2.62,0,0,1,2.27-.7,4.81,4.81,0,0,1,3.89,3.9,2.66,2.66,0,0,1-.65,2.3,2.62,2.62,0,0,1-2.27.7,4.81,4.81,0,0,1-3.89-3.9,2.66,2.66,0,0,1,.65-2.3Zm2.33-.26a2.29,2.29,0,0,0-2,.6,2.36,2.36,0,0,0-.57,2,4.2,4.2,0,0,0,3.4,3.4,2.29,2.29,0,0,0,2-.6,2.36,2.36,0,0,0,.57-2,4.2,4.2,0,0,0-3.4-3.4Z"/><path class="cls-27" d="M100.58,144.46a2.07,2.07,0,0,1,1.71-.25c.92.3,1.28.88,1.15,1.06s-.57-.33-1.18-.54a1.62,1.62,0,0,0-1.1,0C100.55,145.07,100.42,144.75,100.58,144.46Z"/><path class="cls-25" d="M100.26,134.9c.93-1,2.7-.72,3.94.52s1.5,3,.56,4-2.7.73-3.94-.51S99.32,135.86,100.26,134.9Z"/><path class="cls-26" d="M100.1,134.75a2.3,2.3,0,0,1,2-.6,4,4,0,0,1,2.23,1.15,4.1,4.1,0,0,1,1.17,2.25,2.36,2.36,0,0,1-.57,2,2.27,2.27,0,0,1-2,.61A3.94,3.94,0,0,1,100.7,139a4,4,0,0,1-1.17-2.24,2.39,2.39,0,0,1,.57-2Zm2-.23a1.91,1.91,0,0,0-2.23,2.3,3.5,3.5,0,0,0,1,2,3.39,3.39,0,0,0,1.95,1,2,2,0,0,0,1.73-.53,2,2,0,0,0,.5-1.76,3.68,3.68,0,0,0-3-3Z"/><path class="cls-27" d="M101,135.06a1.89,1.89,0,0,1,1.51-.22c.8.27,1.11.78,1,.93s-.5-.29-1-.47a1.44,1.44,0,0,0-1,0C101,135.59,100.83,135.31,101,135.06Z"/><path class="cls-25" d="M87,135.71c1-1,2.87-.78,4.19.54s1.58,3.22.59,4.23-2.86.78-4.18-.54S86,136.72,87,135.71Z"/><path class="cls-26" d="M86.85,135.55a2.43,2.43,0,0,1,2.1-.65,4.27,4.27,0,0,1,2.37,1.23,4.31,4.31,0,0,1,1.24,2.38,2.5,2.5,0,0,1-.61,2.13,2.42,2.42,0,0,1-2.1.65,4.45,4.45,0,0,1-3.6-3.61,2.46,2.46,0,0,1,.6-2.13ZM89,135.3a2.12,2.12,0,0,0-1.84.57,2.17,2.17,0,0,0-.53,1.86,3.92,3.92,0,0,0,3.15,3.16,2.11,2.11,0,0,0,1.84-.57,2.17,2.17,0,0,0,.53-1.86A3.89,3.89,0,0,0,89,135.3Z"/><path class="cls-27" d="M87.76,135.87a2,2,0,0,1,1.6-.23c.84.28,1.18.82,1.06,1s-.53-.32-1.1-.51a1.46,1.46,0,0,0-1,0C87.74,136.44,87.62,136.14,87.76,135.87Z"/><path class="cls-25" d="M91.64,132c.79-.8,2.27-.61,3.31.43s1.25,2.54.47,3.35-2.26.61-3.31-.44S90.86,132.75,91.64,132Z"/><path class="cls-26" d="M91.52,131.82a1.89,1.89,0,0,1,1.66-.5,3.27,3.27,0,0,1,1.87,1,3.38,3.38,0,0,1,1,1.87,2,2,0,0,1-.48,1.69,1.92,1.92,0,0,1-1.66.51,3.27,3.27,0,0,1-1.87-1,3.35,3.35,0,0,1-1-1.88,2,2,0,0,1,.48-1.69Zm1.7-.19a1.67,1.67,0,0,0-1.45.45,1.73,1.73,0,0,0-.42,1.47,3,3,0,0,0,.86,1.65,2.89,2.89,0,0,0,1.63.84,1.66,1.66,0,0,0,1.45-.44,1.72,1.72,0,0,0,.42-1.48,3,3,0,0,0-.85-1.64A2.94,2.94,0,0,0,93.22,131.63Z"/><path class="cls-27" d="M92.24,132.08a1.52,1.52,0,0,1,1.26-.18c.67.22.93.65.84.78s-.43-.25-.87-.4a1.22,1.22,0,0,0-.81,0C92.22,132.53,92.13,132.29,92.24,132.08Z"/><path class="cls-25" d="M93.43,150.27c.78-.8,2.25-.61,3.29.43s1.25,2.53.47,3.33-2.25.61-3.29-.43S92.65,151.07,93.43,150.27Z"/><path class="cls-26" d="M93.3,150.14a1.92,1.92,0,0,1,1.66-.5,3.32,3.32,0,0,1,1.86,1,3.41,3.41,0,0,1,1,1.88,2,2,0,0,1-.48,1.68,1.92,1.92,0,0,1-1.66.51,3.34,3.34,0,0,1-1.86-1,3.38,3.38,0,0,1-1-1.87,2,2,0,0,1,.48-1.69ZM95,150a1.7,1.7,0,0,0-1.45.44,1.78,1.78,0,0,0-.42,1.48,3,3,0,0,0,.86,1.64,2.89,2.89,0,0,0,1.63.84,1.7,1.7,0,0,0,1.45-.44,1.77,1.77,0,0,0,.42-1.47,3,3,0,0,0-.86-1.64A2.85,2.85,0,0,0,95,150Z"/><path class="cls-27" d="M94,150.4a1.51,1.51,0,0,1,1.25-.18c.67.22.93.64.84.77s-.42-.24-.86-.39a1.16,1.16,0,0,0-.81,0C94,150.84,93.91,150.61,94,150.4Z"/><path class="cls-25" d="M105.23,162c.78-.8,2.26-.61,3.3.43s1.25,2.53.47,3.33-2.26.61-3.3-.43S104.45,162.8,105.23,162Z"/><path class="cls-26" d="M105.11,161.87a1.9,1.9,0,0,1,1.65-.5,3.26,3.26,0,0,1,1.86,1,3.35,3.35,0,0,1,1,1.88,2,2,0,0,1-.48,1.68,1.89,1.89,0,0,1-1.65.51,3.28,3.28,0,0,1-1.86-1,3.32,3.32,0,0,1-1-1.87,2,2,0,0,1,.48-1.69Zm1.7-.19a1.69,1.69,0,0,0-1.45.44,1.72,1.72,0,0,0-.42,1.48,3,3,0,0,0,.86,1.64,2.86,2.86,0,0,0,1.63.84,1.67,1.67,0,0,0,1.44-.44,1.71,1.71,0,0,0,.42-1.47,2.94,2.94,0,0,0-.85-1.64A2.88,2.88,0,0,0,106.81,161.68Z"/><path class="cls-27" d="M105.82,162.13a1.52,1.52,0,0,1,1.26-.18c.67.22.93.64.84.77s-.42-.24-.87-.39a1.14,1.14,0,0,0-.8,0C105.81,162.57,105.71,162.34,105.82,162.13Z"/><path class="cls-25" d="M133.17,147.43c.78-.8,2.25-.61,3.29.43s1.25,2.54.47,3.34-2.25.61-3.29-.43S132.39,148.23,133.17,147.43Z"/><path class="cls-26" d="M133,147.31a1.92,1.92,0,0,1,1.66-.51,3.28,3.28,0,0,1,1.86,1,3.38,3.38,0,0,1,1,1.87,2,2,0,0,1-.48,1.69,1.92,1.92,0,0,1-1.66.5,3.28,3.28,0,0,1-1.86-1,3.38,3.38,0,0,1-1-1.87,2,2,0,0,1,.48-1.68Zm1.7-.19a1.67,1.67,0,0,0-1.45.44,1.73,1.73,0,0,0-.42,1.47,2.92,2.92,0,0,0,.86,1.64,2.88,2.88,0,0,0,1.63.85,1.67,1.67,0,0,0,1.45-.45,1.72,1.72,0,0,0,.41-1.47,2.94,2.94,0,0,0-.85-1.64A2.89,2.89,0,0,0,134.74,147.12Z"/><path class="cls-27" d="M133.76,147.57a1.53,1.53,0,0,1,1.25-.19c.67.22.93.65.84.78s-.42-.25-.86-.4a1.22,1.22,0,0,0-.81,0C133.74,148,133.65,147.77,133.76,147.57Z"/><path class="cls-25" d="M140.43,144.76c.78-.8,2.26-.6,3.3.44s1.25,2.53.47,3.33-2.26.61-3.3-.43S139.65,145.57,140.43,144.76Z"/><path class="cls-26" d="M140.31,144.64a1.9,1.9,0,0,1,1.65-.51,3.22,3.22,0,0,1,1.86,1,3.32,3.32,0,0,1,1,1.87,2,2,0,0,1-.48,1.69,1.89,1.89,0,0,1-1.65.5,3.26,3.26,0,0,1-1.86-1,3.38,3.38,0,0,1-1-1.88,2,2,0,0,1,.48-1.68Zm1.7-.19a1.66,1.66,0,0,0-1.45.44,1.7,1.7,0,0,0-.42,1.47,3.09,3.09,0,0,0,2.49,2.49,1.65,1.65,0,0,0,1.44-.45,1.7,1.7,0,0,0,.42-1.47,3,3,0,0,0-.85-1.64A2.92,2.92,0,0,0,142,144.45Z"/><path class="cls-27" d="M141,144.9a1.55,1.55,0,0,1,1.26-.19c.67.22.93.65.84.78s-.42-.25-.87-.4a1.2,1.2,0,0,0-.8,0C141,145.34,140.91,145.1,141,144.9Z"/><path class="cls-25" d="M145.16,158.33c.78-.8,2.26-.61,3.3.43s1.25,2.54.47,3.34-2.26.61-3.3-.43S144.38,159.13,145.16,158.33Z"/><path class="cls-26" d="M145,158.2a1.92,1.92,0,0,1,1.66-.5,3.25,3.25,0,0,1,1.86,1,3.32,3.32,0,0,1,1,1.87,2,2,0,0,1-.48,1.68,1.91,1.91,0,0,1-1.65.51,3.27,3.27,0,0,1-1.87-1,3.38,3.38,0,0,1-1-1.87,2,2,0,0,1,.48-1.69Zm1.7-.19a1.68,1.68,0,0,0-1.45.45,1.72,1.72,0,0,0-.41,1.47,3,3,0,0,0,.85,1.64,2.89,2.89,0,0,0,1.63.84,1.67,1.67,0,0,0,1.45-.44,1.73,1.73,0,0,0,.42-1.47,2.92,2.92,0,0,0-.86-1.64A2.88,2.88,0,0,0,146.73,158Z"/><path class="cls-27" d="M145.75,158.46a1.56,1.56,0,0,1,1.26-.18c.66.22.93.64.84.78s-.43-.25-.87-.4a1.22,1.22,0,0,0-.81,0C145.73,158.91,145.64,158.67,145.75,158.46Z"/><path class="cls-25" d="M137,171.23c.78-.8,2.26-.61,3.3.43s1.25,2.54.46,3.34-2.25.61-3.29-.43S136.25,172,137,171.23Z"/><path class="cls-26" d="M136.9,171.11a1.92,1.92,0,0,1,1.66-.51,3.25,3.25,0,0,1,1.86,1,3.32,3.32,0,0,1,1,1.87,2,2,0,0,1-.48,1.68,1.91,1.91,0,0,1-1.65.51,3.27,3.27,0,0,1-1.87-1,3.45,3.45,0,0,1-1-1.87,2,2,0,0,1,.48-1.68Zm1.7-.19a1.65,1.65,0,0,0-1.45.44,1.72,1.72,0,0,0-.41,1.47,3.06,3.06,0,0,0,2.48,2.49,1.67,1.67,0,0,0,1.45-.45,1.73,1.73,0,0,0,.42-1.47,3,3,0,0,0-.86-1.64A2.86,2.86,0,0,0,138.6,170.92Z"/><path class="cls-27" d="M137.62,171.37a1.55,1.55,0,0,1,1.26-.19c.66.22.93.65.84.78s-.43-.25-.87-.4a1.22,1.22,0,0,0-.81,0C137.6,171.81,137.51,171.57,137.62,171.37Z"/><path class="cls-25" d="M133.4,176.78c.87-.9,2.52-.68,3.68.48s1.4,2.83.53,3.73-2.53.68-3.69-.49S132.52,177.67,133.4,176.78Z"/><path class="cls-26" d="M133.26,176.64a2.13,2.13,0,0,1,1.85-.57,3.66,3.66,0,0,1,2.08,1.08,3.76,3.76,0,0,1,1.09,2.1,2.22,2.22,0,0,1-.53,1.88,2.11,2.11,0,0,1-1.85.56,3.66,3.66,0,0,1-2.08-1.08,3.76,3.76,0,0,1-1.1-2.09,2.18,2.18,0,0,1,.54-1.88Zm1.9-.22a1.87,1.87,0,0,0-1.62.5,1.9,1.9,0,0,0-.47,1.64,3.3,3.3,0,0,0,1,1.84,3.22,3.22,0,0,0,1.82.94,1.9,1.9,0,0,0,1.62-.49,2,2,0,0,0,.46-1.65,3.23,3.23,0,0,0-1-1.83A3.27,3.27,0,0,0,135.16,176.42Z"/><path class="cls-27" d="M134.06,176.93a1.69,1.69,0,0,1,1.4-.21c.75.25,1,.72.94.87s-.47-.28-1-.45a1.35,1.35,0,0,0-.9,0C134,177.42,133.93,177.16,134.06,176.93Z"/><path class="cls-25" d="M119.18,165.6c.88-.9,2.53-.68,3.69.48s1.4,2.83.52,3.73-2.52.68-3.68-.48S118.31,166.5,119.18,165.6Z"/><path class="cls-26" d="M119,165.46a2.14,2.14,0,0,1,1.85-.57A3.73,3.73,0,0,1,123,166a3.78,3.78,0,0,1,1.1,2.1,2.19,2.19,0,0,1-.54,1.88,2.13,2.13,0,0,1-1.85.57,3.73,3.73,0,0,1-2.08-1.08,3.76,3.76,0,0,1-1.09-2.1,2.22,2.22,0,0,1,.53-1.88Zm1.9-.21a1.87,1.87,0,0,0-1.62.49,2,2,0,0,0-.46,1.65,3.23,3.23,0,0,0,1,1.83,3.33,3.33,0,0,0,1.82.95,1.86,1.86,0,0,0,1.62-.5,1.92,1.92,0,0,0,.47-1.65,3.28,3.28,0,0,0-1-1.83A3.22,3.22,0,0,0,120.94,165.25Z"/><path class="cls-27" d="M119.84,165.75a1.72,1.72,0,0,1,1.41-.21c.74.25,1,.73.94.87s-.48-.28-1-.44a1.3,1.3,0,0,0-.9,0C119.83,166.24,119.72,166,119.84,165.75Z"/><path class="cls-25" d="M116.81,172.32c.87-.9,2.52-.68,3.69.48s1.39,2.83.52,3.73-2.52.68-3.69-.49S115.94,173.21,116.81,172.32Z"/><path class="cls-26" d="M116.67,172.17a2.16,2.16,0,0,1,1.85-.56,3.66,3.66,0,0,1,2.08,1.08,3.85,3.85,0,0,1,1.1,2.09,2.21,2.21,0,0,1-.54,1.89,2.14,2.14,0,0,1-1.85.56,3.66,3.66,0,0,1-2.08-1.08,3.76,3.76,0,0,1-1.1-2.09,2.21,2.21,0,0,1,.54-1.89Zm1.9-.21a1.79,1.79,0,0,0-2.09,2.14,3.31,3.31,0,0,0,1,1.83,3.17,3.17,0,0,0,1.82.95,1.88,1.88,0,0,0,1.62-.5,1.92,1.92,0,0,0,.47-1.64,3.31,3.31,0,0,0-1-1.83A3.17,3.17,0,0,0,118.57,172Z"/><path class="cls-27" d="M117.47,172.46a1.72,1.72,0,0,1,1.4-.2c.75.25,1,.72.94.87s-.47-.28-1-.45a1.43,1.43,0,0,0-.9,0C117.45,173,117.35,172.7,117.47,172.46Z"/><path class="cls-25" d="M98.08,156.45c.88-.89,2.53-.68,3.69.49s1.4,2.83.52,3.72-2.52.68-3.68-.48S97.21,157.35,98.08,156.45Z"/><path class="cls-26" d="M97.94,156.31a2.14,2.14,0,0,1,1.85-.56,3.66,3.66,0,0,1,2.08,1.08,3.76,3.76,0,0,1,1.1,2.09,2.21,2.21,0,0,1-.54,1.89,2.16,2.16,0,0,1-1.85.56,3.66,3.66,0,0,1-2.08-1.08,3.77,3.77,0,0,1-1.09-2.09,2.24,2.24,0,0,1,.53-1.89Zm1.9-.21a1.88,1.88,0,0,0-1.62.5,1.92,1.92,0,0,0-.46,1.64,3.23,3.23,0,0,0,.95,1.83,3.17,3.17,0,0,0,1.82,1,1.87,1.87,0,0,0,1.62-.5,1.89,1.89,0,0,0,.47-1.64,3.31,3.31,0,0,0-1-1.83A3.17,3.17,0,0,0,99.84,156.1Z"/><path class="cls-27" d="M98.74,156.6a1.74,1.74,0,0,1,1.41-.2c.74.24,1,.72.94.87s-.48-.28-1-.45a1.36,1.36,0,0,0-.9,0C98.73,157.1,98.62,156.84,98.74,156.6Z"/><path class="cls-25" d="M87.85,143.8c.87-.9,2.52-.68,3.68.48s1.4,2.83.53,3.73-2.53.68-3.69-.49S87,144.69,87.85,143.8Z"/><path class="cls-26" d="M87.71,143.65a2.12,2.12,0,0,1,1.85-.56,3.66,3.66,0,0,1,2.08,1.08,3.74,3.74,0,0,1,1.09,2.09,2.24,2.24,0,0,1-.53,1.89,2.14,2.14,0,0,1-1.85.56,3.63,3.63,0,0,1-2.08-1.08,3.69,3.69,0,0,1-1.1-2.09,2.21,2.21,0,0,1,.54-1.89Zm1.9-.21a1.86,1.86,0,0,0-1.62.5,1.89,1.89,0,0,0-.47,1.64,3.25,3.25,0,0,0,1,1.83,3.17,3.17,0,0,0,1.82,1,1.88,1.88,0,0,0,1.62-.5,1.92,1.92,0,0,0,.46-1.64,3.42,3.42,0,0,0-2.77-2.78Z"/><path class="cls-27" d="M88.51,143.94a1.71,1.71,0,0,1,1.4-.2c.75.25,1,.72.94.87s-.47-.28-1-.45a1.43,1.43,0,0,0-.9,0C88.49,144.44,88.38,144.18,88.51,143.94Z"/><path class="cls-25" d="M73.83,121.49c.87-.89,2.52-.68,3.68.49s1.4,2.83.53,3.72-2.52.68-3.69-.48S73,122.39,73.83,121.49Z"/><path class="cls-26" d="M73.69,121.35a2.1,2.1,0,0,1,1.85-.56,3.66,3.66,0,0,1,2.08,1.08A3.74,3.74,0,0,1,78.71,124a2,2,0,0,1-2.38,2.45,3.66,3.66,0,0,1-2.08-1.08,3.78,3.78,0,0,1-1.1-2.1,2.19,2.19,0,0,1,.54-1.88Zm1.9-.21a1.9,1.9,0,0,0-1.62.49,1.92,1.92,0,0,0-.47,1.65,3.31,3.31,0,0,0,1,1.83,3.23,3.23,0,0,0,1.82,1,1.88,1.88,0,0,0,1.62-.5,2,2,0,0,0,.47-1.64,3.37,3.37,0,0,0-1-1.84A3.22,3.22,0,0,0,75.59,121.14Z"/><path class="cls-27" d="M74.49,121.64a1.75,1.75,0,0,1,1.4-.21c.75.25,1,.73.94.87s-.47-.27-1-.44a1.36,1.36,0,0,0-.9,0C74.47,122.14,74.36,121.87,74.49,121.64Z"/><path class="cls-25" d="M93.22,101.26c.87-.9,2.52-.68,3.68.48s1.4,2.83.53,3.73-2.53.68-3.69-.48S92.34,102.15,93.22,101.26Z"/><path class="cls-26" d="M93.08,101.12a2.13,2.13,0,0,1,1.85-.57A3.66,3.66,0,0,1,97,101.63a3.76,3.76,0,0,1,1.09,2.1,2.22,2.22,0,0,1-.53,1.88,2.14,2.14,0,0,1-1.85.57A4,4,0,0,1,92.54,103a2.18,2.18,0,0,1,.54-1.88Zm1.9-.22a1.87,1.87,0,0,0-1.62.5,1.91,1.91,0,0,0-.47,1.64,3.3,3.3,0,0,0,1,1.84,3.22,3.22,0,0,0,1.82.94,1.9,1.9,0,0,0,1.62-.49,2,2,0,0,0,.46-1.65A3.42,3.42,0,0,0,95,100.9Z"/><path class="cls-27" d="M93.88,101.41a1.7,1.7,0,0,1,1.4-.21c.75.25,1,.72.94.87s-.47-.28-1-.45a1.35,1.35,0,0,0-.9,0C93.86,101.9,93.75,101.64,93.88,101.41Z"/><path class="cls-25" d="M95.56,108c.88-.9,2.53-.68,3.69.48s1.4,2.83.52,3.73-2.52.68-3.68-.48S94.69,108.87,95.56,108Z"/><path class="cls-26" d="M95.42,107.83a2.14,2.14,0,0,1,1.85-.57,3.73,3.73,0,0,1,2.08,1.08,3.78,3.78,0,0,1,1.1,2.1,2.19,2.19,0,0,1-.54,1.88,2.13,2.13,0,0,1-1.85.57A3.73,3.73,0,0,1,96,111.81a3.76,3.76,0,0,1-1.09-2.1,2.22,2.22,0,0,1,.53-1.88Zm1.9-.21a1.84,1.84,0,0,0-1.62.49,2,2,0,0,0-.46,1.65A3.39,3.39,0,0,0,98,112.53a1.83,1.83,0,0,0,1.62-.49,1.92,1.92,0,0,0,.47-1.65,3.31,3.31,0,0,0-1-1.83A3.22,3.22,0,0,0,97.32,107.62Z"/><path class="cls-27" d="M96.22,108.12a1.72,1.72,0,0,1,1.41-.21c.74.25,1,.72.94.87s-.48-.28-1-.44a1.3,1.3,0,0,0-.9,0C96.21,108.61,96.1,108.35,96.22,108.12Z"/><path class="cls-25" d="M65.92,86.37c.88-.9,2.53-.68,3.69.48s1.4,2.83.52,3.73-2.52.68-3.68-.48S65.05,87.26,65.92,86.37Z"/><path class="cls-26" d="M65.78,86.23a2.14,2.14,0,0,1,1.85-.57,3.66,3.66,0,0,1,2.08,1.08,3.78,3.78,0,0,1,1.1,2.1,2.19,2.19,0,0,1-.54,1.88,2.13,2.13,0,0,1-1.85.57,3.68,3.68,0,0,1-2.08-1.09,3.74,3.74,0,0,1-1.09-2.09,2.22,2.22,0,0,1,.53-1.88Zm1.9-.22a1.88,1.88,0,0,0-1.62.5,2,2,0,0,0-.46,1.65,3.39,3.39,0,0,0,2.77,2.77A1.86,1.86,0,0,0,70,90.44a1.92,1.92,0,0,0,.47-1.65,3.25,3.25,0,0,0-1-1.83A3.3,3.3,0,0,0,67.68,86Z"/><path class="cls-27" d="M66.58,86.52A1.72,1.72,0,0,1,68,86.31c.74.25,1,.72.94.87s-.48-.28-1-.44a1.3,1.3,0,0,0-.9,0C66.57,87,66.46,86.75,66.58,86.52Z"/><path class="cls-25" d="M60.9,89.62c.88-.9,2.53-.68,3.69.48s1.4,2.83.52,3.73-2.52.68-3.68-.48S60,90.52,60.9,89.62Z"/><path class="cls-26" d="M60.76,89.48a2.14,2.14,0,0,1,1.85-.57A3.72,3.72,0,0,1,64.7,90a3.76,3.76,0,0,1,1.09,2.1A2.22,2.22,0,0,1,65.26,94a2.14,2.14,0,0,1-1.85.57,3.72,3.72,0,0,1-2.09-1.08,3.76,3.76,0,0,1-1.09-2.1,2.22,2.22,0,0,1,.53-1.88Zm1.9-.21a1.81,1.81,0,0,0-1.61.49,1.92,1.92,0,0,0-.47,1.65,3.42,3.42,0,0,0,2.78,2.78,1.85,1.85,0,0,0,1.61-.5A1.92,1.92,0,0,0,65.44,92a3.25,3.25,0,0,0-1-1.83A3.19,3.19,0,0,0,62.66,89.27Z"/><path class="cls-27" d="M61.57,89.77a1.69,1.69,0,0,1,1.4-.21c.75.25,1,.72.94.87s-.47-.28-1-.44a1.3,1.3,0,0,0-.9,0C61.55,90.26,61.44,90,61.57,89.77Z"/><path class="cls-25" d="M56.67,81.29c.88-.9,2.53-.68,3.69.48s1.4,2.83.52,3.73-2.52.68-3.68-.48S55.8,82.18,56.67,81.29Z"/><path class="cls-26" d="M56.53,81.15a2.14,2.14,0,0,1,1.85-.57,3.66,3.66,0,0,1,2.09,1.08,3.76,3.76,0,0,1,1.09,2.1A2.22,2.22,0,0,1,61,85.64a2.16,2.16,0,0,1-1.86.57A3.93,3.93,0,0,1,56,83a2.22,2.22,0,0,1,.53-1.88Zm1.9-.22a1.88,1.88,0,0,0-1.62.5,1.94,1.94,0,0,0-.46,1.64,3.35,3.35,0,0,0,.95,1.84,3.24,3.24,0,0,0,1.83.94,1.84,1.84,0,0,0,1.61-.49,1.92,1.92,0,0,0,.47-1.65,3.45,3.45,0,0,0-2.78-2.78Z"/><path class="cls-27" d="M57.34,81.44a1.69,1.69,0,0,1,1.4-.21c.74.25,1,.72.94.87s-.48-.28-1-.44a1.3,1.3,0,0,0-.9,0C57.32,81.93,57.21,81.67,57.34,81.44Z"/><path class="cls-25" d="M64.88,99c.87-.89,2.52-.68,3.69.49s1.39,2.83.52,3.72-2.52.68-3.69-.48S64,99.91,64.88,99Z"/><path class="cls-26" d="M64.74,98.87a2.13,2.13,0,0,1,1.85-.56,3.66,3.66,0,0,1,2.08,1.08,3.82,3.82,0,0,1,1.1,2.09,2.21,2.21,0,0,1-.54,1.89,2.16,2.16,0,0,1-1.85.56,3.66,3.66,0,0,1-2.08-1.08,3.85,3.85,0,0,1-1.1-2.09,2.21,2.21,0,0,1,.54-1.89Zm1.9-.21a1.79,1.79,0,0,0-2.09,2.14,3.31,3.31,0,0,0,1,1.83,3.17,3.17,0,0,0,1.82,1,1.79,1.79,0,0,0,2.09-2.14,3.31,3.31,0,0,0-1-1.83A3.17,3.17,0,0,0,66.64,98.66Z"/><path class="cls-27" d="M65.54,99.16a1.72,1.72,0,0,1,1.4-.2c.75.24,1,.72.94.86s-.47-.27-1-.44a1.39,1.39,0,0,0-.91,0C65.52,99.66,65.42,99.4,65.54,99.16Z"/><path class="cls-25" d="M103.39,108.29c.87-.9,2.52-.68,3.68.48s1.4,2.83.53,3.73-2.53.68-3.69-.48S102.51,109.19,103.39,108.29Z"/><path class="cls-26" d="M103.24,108.15a2.16,2.16,0,0,1,1.86-.57,3.73,3.73,0,0,1,2.08,1.08,3.76,3.76,0,0,1,1.09,2.1,2.22,2.22,0,0,1-.53,1.88,2.14,2.14,0,0,1-1.85.57,3.9,3.9,0,0,1-3.18-3.18,2.22,2.22,0,0,1,.53-1.88Zm1.91-.21a1.82,1.82,0,0,0-1.62.49,1.92,1.92,0,0,0-.47,1.65,3.25,3.25,0,0,0,1,1.83,3.19,3.19,0,0,0,1.82.94,1.84,1.84,0,0,0,1.62-.49,2,2,0,0,0,.46-1.65,3.29,3.29,0,0,0-1-1.83A3.25,3.25,0,0,0,105.15,107.94Z"/><path class="cls-27" d="M104.05,108.44a1.69,1.69,0,0,1,1.4-.21c.75.25,1,.72.94.87s-.47-.28-1-.44a1.3,1.3,0,0,0-.9,0C104,108.93,103.92,108.67,104.05,108.44Z"/><path class="cls-25" d="M100.07,110.32c.87-.89,2.52-.68,3.69.49s1.39,2.83.52,3.72-2.52.68-3.69-.48S99.2,111.22,100.07,110.32Z"/><path class="cls-26" d="M99.93,110.18a2.1,2.1,0,0,1,1.85-.56,3.66,3.66,0,0,1,2.08,1.08,3.82,3.82,0,0,1,1.1,2.09,2.21,2.21,0,0,1-.54,1.89,2.16,2.16,0,0,1-1.85.56,3.66,3.66,0,0,1-2.08-1.08,3.85,3.85,0,0,1-1.1-2.1,2.2,2.2,0,0,1,.54-1.88Zm1.9-.21a1.9,1.9,0,0,0-1.62.49,1.92,1.92,0,0,0-.47,1.65,3.31,3.31,0,0,0,1,1.83,3.17,3.17,0,0,0,1.82,1,1.79,1.79,0,0,0,2.09-2.14,3.31,3.31,0,0,0-1-1.83A3.17,3.17,0,0,0,101.83,110Z"/><path class="cls-27" d="M100.73,110.47a1.72,1.72,0,0,1,1.4-.2c.75.24,1.05.72.94.86s-.47-.27-1-.44a1.39,1.39,0,0,0-.91,0C100.71,111,100.61,110.7,100.73,110.47Z"/><path class="cls-25" d="M111.91,115.87c.87-.9,2.52-.68,3.68.48s1.4,2.83.53,3.73-2.53.68-3.69-.49S111,116.76,111.91,115.87Z"/><path class="cls-26" d="M111.77,115.73a2.13,2.13,0,0,1,1.85-.57,3.66,3.66,0,0,1,2.08,1.08,3.76,3.76,0,0,1,1.09,2.1,2.23,2.23,0,0,1-.53,1.88,2.11,2.11,0,0,1-1.85.56,3.66,3.66,0,0,1-2.08-1.08,3.76,3.76,0,0,1-1.1-2.09,2.18,2.18,0,0,1,.54-1.88Zm1.9-.22a1.87,1.87,0,0,0-1.62.5,1.9,1.9,0,0,0-.47,1.64,3.25,3.25,0,0,0,1,1.83,3.17,3.17,0,0,0,1.82,1,1.9,1.9,0,0,0,1.62-.49,2,2,0,0,0,.46-1.65,3.42,3.42,0,0,0-2.77-2.78Z"/><path class="cls-27" d="M112.57,116a1.69,1.69,0,0,1,1.4-.21c.75.25,1,.72.94.87s-.47-.28-1-.45a1.43,1.43,0,0,0-.9,0C112.55,116.51,112.44,116.25,112.57,116Z"/><path class="cls-25" d="M113.11,120.15c.87-.9,2.52-.68,3.68.48s1.4,2.83.53,3.73-2.53.68-3.69-.48S112.23,121.05,113.11,120.15Z"/><path class="cls-26" d="M113,120a2.13,2.13,0,0,1,1.85-.57,3.73,3.73,0,0,1,2.08,1.08,3.76,3.76,0,0,1,1.09,2.1,2.22,2.22,0,0,1-.53,1.88,2.14,2.14,0,0,1-1.85.57,3.93,3.93,0,0,1-3.18-3.18A2.19,2.19,0,0,1,113,120Zm1.9-.21a1.82,1.82,0,0,0-1.62.49,1.92,1.92,0,0,0-.47,1.65,3.42,3.42,0,0,0,2.78,2.77,1.84,1.84,0,0,0,1.62-.49,2,2,0,0,0,.46-1.65,3.39,3.39,0,0,0-2.77-2.77Z"/><path class="cls-27" d="M113.77,120.3a1.69,1.69,0,0,1,1.4-.21c.75.25,1,.72.94.87s-.47-.28-1-.44a1.3,1.3,0,0,0-.9,0C113.75,120.79,113.64,120.53,113.77,120.3Z"/><path class="cls-25" d="M131.33,133.06c.88-.9,2.53-.68,3.69.48s1.4,2.83.53,3.73-2.53.68-3.69-.48S130.46,134,131.33,133.06Z"/><path class="cls-26" d="M131.19,132.92a2.14,2.14,0,0,1,1.85-.57,3.72,3.72,0,0,1,2.09,1.08,3.76,3.76,0,0,1,1.09,2.1,2.22,2.22,0,0,1-.53,1.88,2.14,2.14,0,0,1-1.85.57,3.72,3.72,0,0,1-2.09-1.08,3.76,3.76,0,0,1-1.09-2.1,2.22,2.22,0,0,1,.53-1.88Zm1.9-.22a1.85,1.85,0,0,0-1.61.5,1.92,1.92,0,0,0-.47,1.65,3.29,3.29,0,0,0,1,1.83,3.24,3.24,0,0,0,1.83.94,1.81,1.81,0,0,0,1.61-.49,1.92,1.92,0,0,0,.47-1.65,3.45,3.45,0,0,0-2.78-2.78Z"/><path class="cls-27" d="M132,133.21a1.69,1.69,0,0,1,1.4-.21c.75.25,1,.72.94.87s-.47-.28-1-.44a1.3,1.3,0,0,0-.9,0C132,133.7,131.87,133.44,132,133.21Z"/><path class="cls-25" d="M124.74,125.44c.75-.77,2.16-.58,3.15.41a2.33,2.33,0,0,1,.45,3.19,2.27,2.27,0,0,1-3.15-.42A2.34,2.34,0,0,1,124.74,125.44Z"/><path class="cls-26" d="M124.62,125.32a1.83,1.83,0,0,1,1.58-.49,3.16,3.16,0,0,1,1.78.93,3.23,3.23,0,0,1,.94,1.79,1.91,1.91,0,0,1-.46,1.61,1.81,1.81,0,0,1-1.58.48,3.14,3.14,0,0,1-1.78-.92,3.27,3.27,0,0,1-.94-1.79,1.9,1.9,0,0,1,.46-1.61Zm1.63-.18a1.59,1.59,0,0,0-1.39.42,1.66,1.66,0,0,0-.4,1.41,2.87,2.87,0,0,0,.82,1.56,2.79,2.79,0,0,0,1.56.81,1.61,1.61,0,0,0,1.38-.42,1.63,1.63,0,0,0,.4-1.41,2.83,2.83,0,0,0-.82-1.57A2.74,2.74,0,0,0,126.25,125.14Z"/><path class="cls-27" d="M125.31,125.57a1.47,1.47,0,0,1,1.2-.18c.63.21.89.62.8.74s-.41-.24-.83-.38a1.17,1.17,0,0,0-.77,0C125.29,126,125.2,125.76,125.31,125.57Z"/><path class="cls-25" d="M146.57,170.7a2,2,0,0,1,2.82.36,2.11,2.11,0,0,1,.4,2.85,2,2,0,0,1-2.82-.37A2.08,2.08,0,0,1,146.57,170.7Z"/><path class="cls-26" d="M146.46,170.59a1.63,1.63,0,0,1,1.42-.43,2.85,2.85,0,0,1,1.59.82,2.93,2.93,0,0,1,.83,1.6,1.67,1.67,0,0,1-.41,1.44,1.64,1.64,0,0,1-1.41.43,2.82,2.82,0,0,1-1.59-.82,2.89,2.89,0,0,1-.83-1.6,1.69,1.69,0,0,1,.4-1.44Zm1.45-.16a1.39,1.39,0,0,0-1.23.37,1.47,1.47,0,0,0-.36,1.26,2.55,2.55,0,0,0,.73,1.4,2.5,2.5,0,0,0,1.39.72,1.43,1.43,0,0,0,1.24-.38,1.48,1.48,0,0,0,.36-1.25,2.5,2.5,0,0,0-.74-1.4A2.38,2.38,0,0,0,147.91,170.43Z"/><path class="cls-27" d="M147.08,170.81a1.3,1.3,0,0,1,1.07-.16c.57.19.79.55.71.67s-.36-.22-.73-.34a1.07,1.07,0,0,0-.69,0C147.06,171.19,147,171,147.08,170.81Z"/><path class="cls-25" d="M142.53,176.2c.78-.8,2.25-.6,3.29.44s1.25,2.53.47,3.33-2.26.61-3.3-.43S141.74,177,142.53,176.2Z"/><path class="cls-26" d="M142.4,176.08a1.91,1.91,0,0,1,1.65-.51,3.33,3.33,0,0,1,1.87,1,3.38,3.38,0,0,1,1,1.87,2,2,0,0,1-.48,1.69,1.92,1.92,0,0,1-1.66.5,3.29,3.29,0,0,1-1.86-1,3.35,3.35,0,0,1-1-1.88,2,2,0,0,1,.48-1.68Zm1.7-.19a1.67,1.67,0,0,0-1.45.44,1.73,1.73,0,0,0-.42,1.47,3.09,3.09,0,0,0,2.49,2.49,1.68,1.68,0,0,0,1.45-.45,1.71,1.71,0,0,0,.41-1.47,3,3,0,0,0-.85-1.64A2.89,2.89,0,0,0,144.1,175.89Z"/><path class="cls-27" d="M143.12,176.34a1.52,1.52,0,0,1,1.25-.19c.67.22.93.65.84.78s-.42-.25-.86-.4a1.22,1.22,0,0,0-.81,0C143.1,176.78,143,176.55,143.12,176.34Z"/><path class="cls-25" d="M140.57,170.94a1.74,1.74,0,0,1,2.41.32,1.78,1.78,0,0,1,.34,2.43,1.73,1.73,0,0,1-2.41-.31A1.79,1.79,0,0,1,140.57,170.94Z"/><path class="cls-26" d="M140.48,170.85a1.4,1.4,0,0,1,1.21-.37,2.41,2.41,0,0,1,1.36.71,2.43,2.43,0,0,1,.71,1.37,1.42,1.42,0,0,1-.35,1.23,1.4,1.4,0,0,1-1.21.37,2.41,2.41,0,0,1-1.36-.71,2.46,2.46,0,0,1-.71-1.37,1.41,1.41,0,0,1,.35-1.23Zm1.24-.14a1.24,1.24,0,0,0-1.06.32,1.28,1.28,0,0,0-.3,1.08,2.15,2.15,0,0,0,.62,1.2,2.22,2.22,0,0,0,1.19.62,1.22,1.22,0,0,0,1.06-.33,1.26,1.26,0,0,0,.31-1.07,2.14,2.14,0,0,0-.63-1.2A2,2,0,0,0,141.72,170.71Z"/><path class="cls-27" d="M141,171a1.13,1.13,0,0,1,.92-.14c.49.17.68.48.61.57s-.31-.18-.63-.29a.84.84,0,0,0-.59,0C141,171.36,140.92,171.19,141,171Z"/><path class="cls-25" d="M144.77,162.6c1-1,2.88-.77,4.21.55s1.6,3.24.6,4.26-2.88.78-4.21-.55S143.77,163.63,144.77,162.6Z"/><path class="cls-26" d="M144.61,162.44a2.43,2.43,0,0,1,2.11-.64A4.14,4.14,0,0,1,149.1,163a4.26,4.26,0,0,1,1.25,2.39,2.49,2.49,0,0,1-.61,2.15,2.41,2.41,0,0,1-2.11.65,4.29,4.29,0,0,1-2.38-1.23,4.35,4.35,0,0,1-1.25-2.4,2.51,2.51,0,0,1,.61-2.15Zm2.17-.24a2.17,2.17,0,0,0-1.85.56,2.23,2.23,0,0,0-.53,1.88,3.76,3.76,0,0,0,1.09,2.1,3.66,3.66,0,0,0,2.08,1.08,2,2,0,0,0,2.38-2.45,3.74,3.74,0,0,0-1.09-2.09A3.66,3.66,0,0,0,146.78,162.2Z"/><path class="cls-27" d="M145.53,162.77a1.94,1.94,0,0,1,1.6-.23c.85.28,1.19.82,1.07,1s-.54-.32-1.1-.51a1.54,1.54,0,0,0-1,0C145.51,163.34,145.38,163,145.53,162.77Z"/><path class="cls-25" d="M125.47,144.6c.78-.8,2.26-.61,3.3.43s1.25,2.53.47,3.33-2.26.61-3.3-.43S124.69,145.4,125.47,144.6Z"/><path class="cls-26" d="M125.35,144.47A1.9,1.9,0,0,1,127,144a3.48,3.48,0,0,1,2.84,2.85,2,2,0,0,1-.47,1.68,1.92,1.92,0,0,1-1.66.51,3.51,3.51,0,0,1-2.84-2.85,2,2,0,0,1,.48-1.68Zm1.7-.19a1.69,1.69,0,0,0-1.45.44,1.74,1.74,0,0,0-.42,1.47,2.89,2.89,0,0,0,.86,1.64,2.82,2.82,0,0,0,1.63.85,1.67,1.67,0,0,0,1.44-.44,1.72,1.72,0,0,0,.42-1.48,2.94,2.94,0,0,0-.85-1.63A2.88,2.88,0,0,0,127.05,144.28Z"/><path class="cls-27" d="M126.07,144.73a1.52,1.52,0,0,1,1.25-.19c.67.23.93.65.84.78s-.42-.25-.87-.4a1.26,1.26,0,0,0-.8,0C126.05,145.17,126,144.94,126.07,144.73Z"/><path class="cls-25" d="M123.57,139.37c.78-.8,2.26-.61,3.3.43s1.25,2.53.47,3.34-2.26.6-3.3-.44S122.79,140.17,123.57,139.37Z"/><path class="cls-26" d="M123.44,139.24a1.92,1.92,0,0,1,1.66-.5,3.29,3.29,0,0,1,1.86,1,3.38,3.38,0,0,1,1,1.88,2,2,0,0,1-.48,1.68,1.91,1.91,0,0,1-1.65.51,3.27,3.27,0,0,1-1.87-1,3.45,3.45,0,0,1-1-1.87,2,2,0,0,1,.48-1.69Zm1.7-.19a1.65,1.65,0,0,0-1.44.45,1.7,1.7,0,0,0-.42,1.47,3,3,0,0,0,.85,1.64,2.92,2.92,0,0,0,1.63.84,1.67,1.67,0,0,0,1.45-.44,1.73,1.73,0,0,0,.42-1.47,2.92,2.92,0,0,0-.86-1.64A2.88,2.88,0,0,0,125.14,139.05Z"/><path class="cls-27" d="M124.16,139.5a1.56,1.56,0,0,1,1.26-.18c.66.22.93.64.84.78s-.43-.25-.87-.4a1.22,1.22,0,0,0-.81,0C124.15,140,124.05,139.71,124.16,139.5Z"/><path class="cls-25" d="M132.9,141.05c.79-.8,2.26-.61,3.3.43s1.25,2.53.47,3.33-2.26.61-3.3-.43S132.12,141.85,132.9,141.05Z"/><path class="cls-26" d="M132.78,140.92a1.9,1.9,0,0,1,1.65-.5,3.32,3.32,0,0,1,1.87,1,3.48,3.48,0,0,1,1,1.88,2,2,0,0,1-.48,1.68,1.92,1.92,0,0,1-1.66.51,3.52,3.52,0,0,1-2.84-2.84,2,2,0,0,1,.48-1.69Zm1.7-.19a1.69,1.69,0,0,0-1.45.44,1.75,1.75,0,0,0-.42,1.48,3,3,0,0,0,.86,1.64,2.86,2.86,0,0,0,1.63.84,1.67,1.67,0,0,0,1.44-.44,1.71,1.71,0,0,0,.42-1.47,2.94,2.94,0,0,0-.85-1.64A2.88,2.88,0,0,0,134.48,140.73Z"/><path class="cls-27" d="M133.5,141.18a1.49,1.49,0,0,1,1.25-.18c.67.22.93.64.84.77s-.42-.24-.86-.39a1.16,1.16,0,0,0-.81,0C133.48,141.62,133.38,141.39,133.5,141.18Z"/><path class="cls-25" d="M138.43,151.53c1-1,2.79-.75,4.07.53s1.54,3.12.58,4.11-2.78.75-4.07-.53S137.47,152.52,138.43,151.53Z"/><path class="cls-26" d="M138.28,151.37a2.31,2.31,0,0,1,2-.62,4.08,4.08,0,0,1,2.3,1.19,4.24,4.24,0,0,1,1.21,2.31,2.45,2.45,0,0,1-.59,2.08,2.34,2.34,0,0,1-2.05.62,4,4,0,0,1-2.3-1.19,4.15,4.15,0,0,1-1.2-2.31,2.42,2.42,0,0,1,.59-2.08Zm2.09-.23a2.05,2.05,0,0,0-1.78.54,2.12,2.12,0,0,0-.52,1.82,3.66,3.66,0,0,0,1.06,2,3.54,3.54,0,0,0,2,1,2,2,0,0,0,1.78-.54,2.12,2.12,0,0,0,.52-1.82,3.66,3.66,0,0,0-1.06-2A3.51,3.51,0,0,0,140.37,151.14Z"/><path class="cls-27" d="M139.16,151.69a1.92,1.92,0,0,1,1.55-.23c.83.28,1.15.8,1,1s-.52-.3-1.07-.49a1.49,1.49,0,0,0-1,0C139.14,152.24,139,152,139.16,151.69Z"/><path class="cls-25" d="M103.74,154.23c.78-.8,2.25-.61,3.29.43s1.25,2.53.47,3.34-2.25.6-3.29-.44S103,155,103.74,154.23Z"/><path class="cls-26" d="M103.61,154.1a1.92,1.92,0,0,1,1.66-.5,3.32,3.32,0,0,1,1.86,1,3.44,3.44,0,0,1,1,1.88,2,2,0,0,1-.48,1.68,1.92,1.92,0,0,1-1.66.51,3.28,3.28,0,0,1-1.86-1,3.38,3.38,0,0,1-1-1.87,2,2,0,0,1,.48-1.69Zm1.7-.19a1.67,1.67,0,0,0-1.45.45,1.72,1.72,0,0,0-.41,1.47,2.94,2.94,0,0,0,.85,1.64,2.89,2.89,0,0,0,1.63.84,1.67,1.67,0,0,0,1.45-.44,1.76,1.76,0,0,0,.42-1.47,3.09,3.09,0,0,0-2.49-2.49Z"/><path class="cls-27" d="M104.33,154.36a1.55,1.55,0,0,1,1.25-.18c.67.22.94.64.84.78s-.42-.25-.86-.4a1.16,1.16,0,0,0-.81,0C104.31,154.81,104.22,154.57,104.33,154.36Z"/><path class="cls-25" d="M107.09,145.51c.79-.8,2.26-.61,3.3.43s1.25,2.53.47,3.33-2.26.61-3.3-.43S106.31,146.31,107.09,145.51Z"/><path class="cls-26" d="M107,145.38a1.88,1.88,0,0,1,1.65-.5,3.32,3.32,0,0,1,1.87,1,3.48,3.48,0,0,1,1,1.88,2,2,0,0,1-.48,1.68,1.92,1.92,0,0,1-1.66.51,3.37,3.37,0,0,1-1.86-1,3.32,3.32,0,0,1-1-1.87,2,2,0,0,1,.48-1.69Zm1.7-.19a1.7,1.7,0,0,0-1.45.44,1.75,1.75,0,0,0-.42,1.48,3,3,0,0,0,.86,1.64,2.86,2.86,0,0,0,1.63.84,1.67,1.67,0,0,0,1.44-.44,1.71,1.71,0,0,0,.42-1.47,2.94,2.94,0,0,0-.85-1.64A2.88,2.88,0,0,0,108.67,145.19Z"/><path class="cls-27" d="M107.69,145.64a1.49,1.49,0,0,1,1.25-.18c.67.22.93.64.84.77s-.42-.24-.86-.39a1.16,1.16,0,0,0-.81,0C107.67,146.08,107.57,145.85,107.69,145.64Z"/><path class="cls-25" d="M98.34,148.21c.91-.94,2.64-.71,3.86.51s1.47,3,.55,3.91-2.64.71-3.86-.51S97.42,149.15,98.34,148.21Z"/><path class="cls-26" d="M98.19,148.06a2.23,2.23,0,0,1,1.94-.59,3.85,3.85,0,0,1,2.18,1.13,4,4,0,0,1,1.15,2.2,2.3,2.3,0,0,1-.56,2,2.23,2.23,0,0,1-1.94.59A4.07,4.07,0,0,1,97.63,150a2.31,2.31,0,0,1,.56-2Zm2-.22a2,2,0,0,0-1.7.52,2.06,2.06,0,0,0-.49,1.73A3.5,3.5,0,0,0,99,152a3.32,3.32,0,0,0,1.91,1,1.92,1.92,0,0,0,1.69-.52,2,2,0,0,0,.5-1.73,3.5,3.5,0,0,0-1-1.92A3.41,3.41,0,0,0,100.18,147.84Z"/><path class="cls-27" d="M99,148.37a1.8,1.8,0,0,1,1.47-.22c.78.26,1.09.76,1,.91s-.5-.29-1-.46a1.41,1.41,0,0,0-.94,0C99,148.89,98.9,148.61,99,148.37Z"/><path class="cls-25" d="M106.26,141.38c.78-.8,2.25-.61,3.29.43s1.25,2.53.47,3.33-2.25.61-3.29-.43S105.48,142.18,106.26,141.38Z"/><path class="cls-26" d="M106.13,141.25a1.92,1.92,0,0,1,1.66-.5,3.32,3.32,0,0,1,1.86,1,3.41,3.41,0,0,1,1,1.88,2,2,0,0,1-.48,1.68,1.92,1.92,0,0,1-1.66.51,3.34,3.34,0,0,1-1.86-1,3.38,3.38,0,0,1-1-1.87,2,2,0,0,1,.48-1.69Zm1.7-.19a1.7,1.7,0,0,0-1.45.44A1.75,1.75,0,0,0,106,143a3,3,0,0,0,.86,1.64,2.86,2.86,0,0,0,1.63.84,1.7,1.7,0,0,0,1.45-.44,1.73,1.73,0,0,0,.41-1.47,3.06,3.06,0,0,0-2.48-2.49Z"/><path class="cls-27" d="M106.85,141.51a1.51,1.51,0,0,1,1.25-.18c.67.22.93.64.84.77s-.42-.24-.86-.39a1.16,1.16,0,0,0-.81,0C106.83,142,106.74,141.72,106.85,141.51Z"/><path class="cls-25" d="M95,145.45c.78-.81,2.26-.61,3.3.43s1.25,2.53.47,3.33-2.26.61-3.3-.43S94.25,146.25,95,145.45Z"/><path class="cls-26" d="M94.91,145.32a1.89,1.89,0,0,1,1.65-.51,3.52,3.52,0,0,1,2.84,2.84,2,2,0,0,1-.48,1.69,1.87,1.87,0,0,1-1.65.5,3.26,3.26,0,0,1-1.86-1,3.35,3.35,0,0,1-1-1.88,2,2,0,0,1,.48-1.68Zm1.69-.19a1.67,1.67,0,0,0-1.44.44,1.71,1.71,0,0,0-.42,1.47,2.94,2.94,0,0,0,.85,1.64,2.88,2.88,0,0,0,1.63.85,1.69,1.69,0,0,0,1.45-.44,1.72,1.72,0,0,0,.42-1.48,3,3,0,0,0-.86-1.64A2.86,2.86,0,0,0,96.6,145.13Z"/><path class="cls-27" d="M95.62,145.58a1.55,1.55,0,0,1,1.26-.19c.67.23.93.65.84.78s-.43-.25-.87-.4a1.26,1.26,0,0,0-.8,0C95.61,146,95.51,145.79,95.62,145.58Z"/><path class="cls-25" d="M101.91,125.62c1.07-1.1,3.09-.83,4.51.59s1.71,3.47.64,4.57-3.09.83-4.51-.59S100.84,126.72,101.91,125.62Z"/><path class="cls-26" d="M101.73,125.45a2.62,2.62,0,0,1,2.27-.7,4.82,4.82,0,0,1,3.89,3.89,2.68,2.68,0,0,1-.65,2.31,2.59,2.59,0,0,1-2.27.69,4.48,4.48,0,0,1-2.55-1.32,4.6,4.6,0,0,1-1.34-2.57,2.66,2.66,0,0,1,.65-2.3Zm2.33-.26a2.29,2.29,0,0,0-2,.6,2.35,2.35,0,0,0-.57,2,4.2,4.2,0,0,0,3.4,3.4,2.26,2.26,0,0,0,2-.61,2.33,2.33,0,0,0,.57-2,4.17,4.17,0,0,0-3.4-3.4Z"/><path class="cls-27" d="M102.72,125.8a2.07,2.07,0,0,1,1.71-.25c.92.3,1.28.88,1.15,1.06s-.57-.34-1.18-.54a1.56,1.56,0,0,0-1.1,0C102.69,126.41,102.56,126.09,102.72,125.8Z"/><path class="cls-25" d="M102.4,116.24c.93-1,2.7-.73,3.94.52s1.5,3,.56,4-2.7.73-3.94-.52S101.46,117.2,102.4,116.24Z"/><path class="cls-26" d="M102.24,116.09a2.33,2.33,0,0,1,2-.61,4,4,0,0,1,2.23,1.16,4.1,4.1,0,0,1,1.17,2.25,2.36,2.36,0,0,1-.57,2,2.3,2.3,0,0,1-2,.61,3.94,3.94,0,0,1-2.23-1.16,4,4,0,0,1-1.17-2.24,2.39,2.39,0,0,1,.57-2Zm2-.23a1.91,1.91,0,0,0-2.23,2.3,3.5,3.5,0,0,0,1,2,3.46,3.46,0,0,0,2,1,2,2,0,0,0,1.73-.53,2,2,0,0,0,.5-1.76,3.47,3.47,0,0,0-1-2A3.41,3.41,0,0,0,104.28,115.86Z"/><path class="cls-27" d="M103.1,116.4a1.84,1.84,0,0,1,1.51-.22c.8.27,1.11.77,1,.93s-.5-.3-1-.47a1.38,1.38,0,0,0-1,0C103.09,116.93,103,116.65,103.1,116.4Z"/><path class="cls-25" d="M91.93,121.36c1-1,2.86-.78,4.18.54s1.59,3.22.6,4.23-2.87.78-4.19-.54S90.94,122.37,91.93,121.36Z"/><path class="cls-26" d="M91.77,121.2a2.42,2.42,0,0,1,2.1-.65,4.45,4.45,0,0,1,3.6,3.61,2.5,2.5,0,0,1-.6,2.13,2.44,2.44,0,0,1-2.11.65,4.45,4.45,0,0,1-3.6-3.61,2.46,2.46,0,0,1,.61-2.13Zm2.15-.25a2.1,2.1,0,0,0-1.83.57,2.14,2.14,0,0,0-.53,1.86,3.89,3.89,0,0,0,3.15,3.16,2.13,2.13,0,0,0,1.84-.57,2.17,2.17,0,0,0,.53-1.86A3.92,3.92,0,0,0,93.92,121Z"/><path class="cls-27" d="M92.68,121.52a2,2,0,0,1,1.59-.23c.85.28,1.18.82,1.07,1s-.54-.32-1.1-.51a1.49,1.49,0,0,0-1,0C92.66,122.09,92.54,121.79,92.68,121.52Z"/><path class="cls-25" d="M97.79,120.71c.78-.8,2.26-.61,3.3.44s1.26,2.54.47,3.34-2.26.61-3.3-.43S97,121.52,97.79,120.71Z"/><path class="cls-26" d="M97.66,120.59a1.92,1.92,0,0,1,1.66-.51,3.27,3.27,0,0,1,1.87,1,3.35,3.35,0,0,1,1,1.88,2,2,0,0,1-.48,1.69,1.92,1.92,0,0,1-1.66.5,3.27,3.27,0,0,1-1.87-1,3.38,3.38,0,0,1-1-1.87,2,2,0,0,1,.48-1.69Zm1.71-.19a1.66,1.66,0,0,0-1.46.44,1.77,1.77,0,0,0-.42,1.48,3,3,0,0,0,.86,1.64,2.94,2.94,0,0,0,1.64.85,1.68,1.68,0,0,0,1.45-.45,1.73,1.73,0,0,0,.42-1.47,3.05,3.05,0,0,0-2.49-2.49Z"/><path class="cls-27" d="M98.38,120.85a1.55,1.55,0,0,1,1.26-.19c.67.22.93.65.84.78s-.42-.25-.87-.4a1.2,1.2,0,0,0-.8,0C98.37,121.29,98.27,121.06,98.38,120.85Z"/><path class="cls-25" d="M95.57,131.61c.78-.8,2.25-.61,3.29.43s1.25,2.53.47,3.33-2.25.61-3.29-.43S94.79,132.41,95.57,131.61Z"/><path class="cls-26" d="M95.44,131.48A1.92,1.92,0,0,1,97.1,131a3.51,3.51,0,0,1,2.84,2.85,2,2,0,0,1-.48,1.68,1.92,1.92,0,0,1-1.66.51A3.51,3.51,0,0,1,95,133.16a2,2,0,0,1,.48-1.68Zm1.7-.19a1.7,1.7,0,0,0-1.45.44,1.78,1.78,0,0,0-.42,1.48,3,3,0,0,0,.86,1.63,2.85,2.85,0,0,0,1.63.85,1.7,1.7,0,0,0,1.45-.44,1.77,1.77,0,0,0,.42-1.47,3,3,0,0,0-.86-1.64A2.85,2.85,0,0,0,97.14,131.29Z"/><path class="cls-27" d="M96.16,131.74a1.53,1.53,0,0,1,1.25-.19c.67.23.94.65.84.78s-.42-.25-.86-.39a1.23,1.23,0,0,0-.81,0C96.14,132.18,96.05,132,96.16,131.74Z"/><path class="cls-25" d="M95.31,138.76c.78-.8,2.26-.61,3.3.43s1.25,2.53.47,3.33-2.26.61-3.3-.43S94.53,139.56,95.31,138.76Z"/><path class="cls-26" d="M95.19,138.63a1.87,1.87,0,0,1,1.65-.5,3.26,3.26,0,0,1,1.86,1,3.35,3.35,0,0,1,1,1.88,2,2,0,0,1-.48,1.68,1.89,1.89,0,0,1-1.65.51,3.52,3.52,0,0,1-2.84-2.84,2,2,0,0,1,.48-1.69Zm1.7-.19a1.69,1.69,0,0,0-1.45.44,1.72,1.72,0,0,0-.42,1.48,3,3,0,0,0,.86,1.64,2.86,2.86,0,0,0,1.63.84A1.67,1.67,0,0,0,99,142.4a1.71,1.71,0,0,0,.42-1.47,2.94,2.94,0,0,0-.85-1.64A2.88,2.88,0,0,0,96.89,138.44Z"/><path class="cls-27" d="M95.9,138.89a1.52,1.52,0,0,1,1.26-.18c.67.22.93.64.84.77s-.42-.24-.87-.39a1.14,1.14,0,0,0-.8,0C95.89,139.33,95.79,139.1,95.9,138.89Z"/><path class="cls-25" d="M97.2,134c.78-.8,2.26-.61,3.3.43s1.25,2.53.46,3.34-2.25.6-3.29-.44S96.42,134.83,97.2,134Z"/><path class="cls-26" d="M97.07,133.9a1.92,1.92,0,0,1,1.66-.5,3.29,3.29,0,0,1,1.86,1,3.41,3.41,0,0,1,1,1.88,2,2,0,0,1-.48,1.68,1.92,1.92,0,0,1-1.66.51,3.34,3.34,0,0,1-1.86-1,3.38,3.38,0,0,1-1-1.87,2,2,0,0,1,.48-1.69Zm1.7-.19a1.67,1.67,0,0,0-1.45.45,1.71,1.71,0,0,0-.41,1.47,2.94,2.94,0,0,0,.85,1.64,2.89,2.89,0,0,0,1.63.84,1.7,1.7,0,0,0,1.45-.44,1.74,1.74,0,0,0,.42-1.47,2.89,2.89,0,0,0-.86-1.64A2.82,2.82,0,0,0,98.77,133.71Z"/><path class="cls-27" d="M97.79,134.16A1.51,1.51,0,0,1,99,134c.67.22.94.64.84.77s-.42-.24-.86-.39a1.16,1.16,0,0,0-.81,0C97.77,134.6,97.68,134.37,97.79,134.16Z"/><path class="cls-25" d="M109.23,126.85c.79-.81,2.26-.61,3.3.43s1.25,2.53.47,3.33-2.26.61-3.3-.43S108.45,127.65,109.23,126.85Z"/><path class="cls-26" d="M109.11,126.72a1.91,1.91,0,0,1,1.65-.51,3.4,3.4,0,0,1,1.87,1,3.48,3.48,0,0,1,1,1.88,2,2,0,0,1-.48,1.68,1.92,1.92,0,0,1-1.66.51,3.51,3.51,0,0,1-2.84-2.85,2,2,0,0,1,.48-1.68Zm1.7-.19a1.7,1.7,0,0,0-1.45.44,1.74,1.74,0,0,0-.42,1.47,2.89,2.89,0,0,0,.86,1.64,2.82,2.82,0,0,0,1.63.85,1.67,1.67,0,0,0,1.44-.44,1.72,1.72,0,0,0,.42-1.48,2.94,2.94,0,0,0-.85-1.63A2.85,2.85,0,0,0,110.81,126.53Z"/><path class="cls-27" d="M109.83,127a1.52,1.52,0,0,1,1.25-.19c.67.23.93.65.84.78s-.42-.25-.86-.4a1.29,1.29,0,0,0-.81,0C109.81,127.42,109.71,127.19,109.83,127Z"/><path class="cls-25" d="M100.48,129.55c.91-.94,2.64-.71,3.86.51s1.47,3,.55,3.91-2.64.71-3.86-.51S99.56,130.49,100.48,129.55Z"/><path class="cls-26" d="M100.33,129.4a2.23,2.23,0,0,1,1.94-.59,3.85,3.85,0,0,1,2.18,1.13,3.94,3.94,0,0,1,1.15,2.2,2.31,2.31,0,0,1-.56,2,2.23,2.23,0,0,1-1.94.59,4.11,4.11,0,0,1-3.33-3.33,2.3,2.3,0,0,1,.56-2Zm2-.22a2,2,0,0,0-1.7.52,2,2,0,0,0-.49,1.73,3.5,3.5,0,0,0,1,1.92,3.38,3.38,0,0,0,1.91,1,2,2,0,0,0,1.69-.52,2,2,0,0,0,.5-1.73,3.5,3.5,0,0,0-1-1.92A3.35,3.35,0,0,0,102.32,129.18Z"/><path class="cls-27" d="M101.17,129.71a1.8,1.8,0,0,1,1.47-.22c.78.26,1.09.76,1,.91s-.5-.29-1-.46a1.41,1.41,0,0,0-.94,0C101.15,130.23,101,130,101.17,129.71Z"/><path class="cls-25" d="M108.4,122.72c.78-.8,2.25-.61,3.29.43s1.25,2.53.47,3.33-2.25.61-3.29-.43S107.62,123.52,108.4,122.72Z"/><path class="cls-26" d="M108.27,122.59a1.92,1.92,0,0,1,1.66-.51,3.51,3.51,0,0,1,2.84,2.85,2,2,0,0,1-.48,1.68,1.92,1.92,0,0,1-1.66.51,3.51,3.51,0,0,1-2.84-2.85,2,2,0,0,1,.48-1.68Zm1.7-.19a1.7,1.7,0,0,0-1.45.44,1.75,1.75,0,0,0-.42,1.48A2.9,2.9,0,0,0,109,126a2.85,2.85,0,0,0,1.63.85,1.7,1.7,0,0,0,1.45-.44,1.74,1.74,0,0,0,.41-1.48,2.88,2.88,0,0,0-.85-1.63A2.85,2.85,0,0,0,110,122.4Z"/><path class="cls-27" d="M109,122.85a1.53,1.53,0,0,1,1.25-.19c.67.23.93.65.84.78s-.42-.25-.86-.39a1.23,1.23,0,0,0-.81,0C109,123.29,108.88,123.06,109,122.85Z"/><path class="cls-25" d="M97.17,126.78c.78-.8,2.26-.6,3.3.44s1.25,2.53.47,3.33-2.26.61-3.3-.43S96.39,127.59,97.17,126.78Z"/><path class="cls-26" d="M97.05,126.66a1.89,1.89,0,0,1,1.65-.51,3.28,3.28,0,0,1,1.86,1,3.32,3.32,0,0,1,1,1.87,2,2,0,0,1-.48,1.69,1.9,1.9,0,0,1-1.65.5,3.26,3.26,0,0,1-1.86-1,3.35,3.35,0,0,1-1-1.88,2,2,0,0,1,.48-1.68Zm1.69-.19a1.65,1.65,0,0,0-1.44.44,1.7,1.7,0,0,0-.42,1.47,3.06,3.06,0,0,0,2.48,2.49,1.66,1.66,0,0,0,1.45-.45,1.69,1.69,0,0,0,.42-1.47,3,3,0,0,0-.86-1.64A2.86,2.86,0,0,0,98.74,126.47Z"/><path class="cls-27" d="M97.76,126.92a1.55,1.55,0,0,1,1.26-.19c.67.22.93.65.84.78s-.43-.25-.87-.4a1.2,1.2,0,0,0-.8,0C97.75,127.36,97.65,127.13,97.76,126.92Z"/><path class="cls-25" d="M87.22,117.88c1.07-1.1,3.09-.84,4.51.59s1.72,3.47.65,4.56-3.09.84-4.52-.59S86.15,119,87.22,117.88Z"/><path class="cls-26" d="M87.05,117.7a2.63,2.63,0,0,1,2.26-.69,4.51,4.51,0,0,1,2.55,1.32,4.6,4.6,0,0,1,1.34,2.57,2.69,2.69,0,0,1-.65,2.31,2.62,2.62,0,0,1-2.27.69,4.48,4.48,0,0,1-2.55-1.32A4.66,4.66,0,0,1,86.39,120a2.73,2.73,0,0,1,.66-2.31Zm2.32-.26a2.29,2.29,0,0,0-2,.61,2.35,2.35,0,0,0-.57,2A4,4,0,0,0,88,122.31a3.94,3.94,0,0,0,2.23,1.16,2.28,2.28,0,0,0,2-.61,2.34,2.34,0,0,0,.58-2,4.07,4.07,0,0,0-1.17-2.25A4,4,0,0,0,89.37,117.44Z"/><path class="cls-27" d="M88,118.06a2.08,2.08,0,0,1,1.72-.25c.91.3,1.27.88,1.15,1.06s-.58-.34-1.19-.54a1.63,1.63,0,0,0-1.1,0C88,118.67,87.88,118.34,88,118.06Z"/><path class="cls-25" d="M87.71,108.5c.93-1,2.7-.73,4,.52s1.49,3,.56,4-2.7.73-4-.52S86.77,109.46,87.71,108.5Z"/><path class="cls-26" d="M87.56,108.35a2.29,2.29,0,0,1,2-.61,4,4,0,0,1,2.23,1.16,4,4,0,0,1,1.17,2.24,2.35,2.35,0,0,1-.57,2,2.29,2.29,0,0,1-2,.61,4.19,4.19,0,0,1-3.4-3.41,2.33,2.33,0,0,1,.57-2Zm2-.23a2,2,0,0,0-1.73.53,2,2,0,0,0-.5,1.76,3.52,3.52,0,0,0,1,2,3.49,3.49,0,0,0,2,1,2,2,0,0,0,1.74-.53,2.1,2.1,0,0,0,.5-1.76,3.57,3.57,0,0,0-1-2A3.46,3.46,0,0,0,89.59,108.12Z"/><path class="cls-27" d="M88.42,108.66a1.82,1.82,0,0,1,1.5-.22c.8.26,1.12.77,1,.93s-.51-.3-1-.48a1.44,1.44,0,0,0-1,0C88.4,109.19,88.28,108.91,88.42,108.66Z"/><path class="cls-25" d="M77.24,113.61c1-1,2.86-.77,4.18.55s1.59,3.21.6,4.23-2.87.77-4.19-.55S76.25,114.63,77.24,113.61Z"/><path class="cls-26" d="M77.08,113.45a2.41,2.41,0,0,1,2.1-.64A4.15,4.15,0,0,1,81.54,114a4.27,4.27,0,0,1,1.25,2.38,2.5,2.5,0,0,1-.61,2.13,2.41,2.41,0,0,1-2.1.64A4.19,4.19,0,0,1,77.71,118a4.34,4.34,0,0,1-1.24-2.38,2.51,2.51,0,0,1,.61-2.14Zm2.16-.24a2.14,2.14,0,0,0-1.84.56,2.21,2.21,0,0,0-.53,1.87A3.74,3.74,0,0,0,78,117.72,3.6,3.6,0,0,0,80,118.79a2.08,2.08,0,0,0,1.84-.56,2.19,2.19,0,0,0,.53-1.87,3.74,3.74,0,0,0-1.09-2.08A3.66,3.66,0,0,0,79.24,113.21Z"/><path class="cls-27" d="M78,113.78a1.92,1.92,0,0,1,1.59-.23c.85.28,1.18.82,1.07,1s-.54-.31-1.1-.5a1.52,1.52,0,0,0-1,0C78,114.34,77.85,114,78,113.78Z"/><path class="cls-25" d="M83.1,113c.78-.8,2.26-.61,3.31.43s1.25,2.54.47,3.35-2.27.61-3.31-.44S82.32,113.77,83.1,113Z"/><path class="cls-26" d="M83,112.84a1.93,1.93,0,0,1,1.66-.5,3.24,3.24,0,0,1,1.87,1,3.32,3.32,0,0,1,1,1.88,2,2,0,0,1-.48,1.68,1.91,1.91,0,0,1-1.66.51,3.25,3.25,0,0,1-1.86-1,3.32,3.32,0,0,1-1-1.88,2,2,0,0,1,.47-1.69Zm1.71-.19a1.66,1.66,0,0,0-1.45.45,1.7,1.7,0,0,0-.42,1.47,3,3,0,0,0,.86,1.65,2.86,2.86,0,0,0,1.63.84,1.63,1.63,0,0,0,1.45-.44,1.71,1.71,0,0,0,.42-1.48,3,3,0,0,0-.86-1.64A2.88,2.88,0,0,0,84.68,112.65Z"/><path class="cls-27" d="M83.7,113.1a1.54,1.54,0,0,1,1.25-.18c.67.22.94.65.85.78s-.43-.25-.87-.4a1.22,1.22,0,0,0-.81,0C83.68,113.55,83.58,113.31,83.7,113.1Z"/><path class="cls-25" d="M80.88,123.86c.78-.8,2.26-.6,3.3.44s1.25,2.53.47,3.33-2.26.61-3.3-.43S80.1,124.67,80.88,123.86Z"/><path class="cls-26" d="M80.75,123.74a1.92,1.92,0,0,1,1.66-.51,3.28,3.28,0,0,1,1.86,1,3.32,3.32,0,0,1,1,1.87,2,2,0,0,1-.48,1.69,1.9,1.9,0,0,1-1.65.5,3.32,3.32,0,0,1-1.87-1,3.39,3.39,0,0,1-1-1.88,2,2,0,0,1,.47-1.68Zm1.7-.19A1.65,1.65,0,0,0,81,124a1.7,1.7,0,0,0-.42,1.47A3.06,3.06,0,0,0,83.07,128a1.66,1.66,0,0,0,1.45-.45,1.72,1.72,0,0,0,.42-1.47,3,3,0,0,0-.86-1.64A2.86,2.86,0,0,0,82.45,123.55Z"/><path class="cls-27" d="M81.47,124a1.55,1.55,0,0,1,1.26-.19c.66.22.93.65.84.78s-.43-.25-.87-.4a1.19,1.19,0,0,0-.8,0C81.46,124.44,81.36,124.21,81.47,124Z"/><path class="cls-25" d="M80.63,131c.78-.81,2.25-.61,3.29.43s1.25,2.53.47,3.33-2.26.61-3.3-.43S79.84,131.82,80.63,131Z"/><path class="cls-26" d="M80.5,130.89a1.92,1.92,0,0,1,1.66-.51A3.52,3.52,0,0,1,85,133.22a2,2,0,0,1-.48,1.69,1.89,1.89,0,0,1-1.66.5,3.29,3.29,0,0,1-1.86-1,3.41,3.41,0,0,1-1-1.88,2,2,0,0,1,.48-1.68Zm1.7-.19a1.7,1.7,0,0,0-1.45.44,1.74,1.74,0,0,0-.42,1.47,2.89,2.89,0,0,0,.86,1.64,2.82,2.82,0,0,0,1.63.85,1.7,1.7,0,0,0,1.45-.44,1.74,1.74,0,0,0,.41-1.48,2.94,2.94,0,0,0-.85-1.64A2.89,2.89,0,0,0,82.2,130.7Z"/><path class="cls-27" d="M81.22,131.15a1.52,1.52,0,0,1,1.25-.19c.67.23.93.65.84.78s-.42-.25-.86-.4a1.22,1.22,0,0,0-.81,0C81.2,131.59,81.11,131.36,81.22,131.15Z"/><path class="cls-25" d="M82.51,126.29c.78-.81,2.26-.61,3.3.43s1.25,2.53.47,3.33-2.26.61-3.3-.43S81.73,127.09,82.51,126.29Z"/><path class="cls-26" d="M82.39,126.16a1.89,1.89,0,0,1,1.65-.51,3.52,3.52,0,0,1,2.84,2.84,2,2,0,0,1-.48,1.69,1.87,1.87,0,0,1-1.65.5,3.26,3.26,0,0,1-1.86-1,3.35,3.35,0,0,1-1-1.88,2,2,0,0,1,.48-1.68Zm1.69-.19a1.67,1.67,0,0,0-1.44.44,1.71,1.71,0,0,0-.42,1.47,2.94,2.94,0,0,0,.85,1.64,2.88,2.88,0,0,0,1.63.85,1.69,1.69,0,0,0,1.45-.44,1.72,1.72,0,0,0,.42-1.48,2.9,2.9,0,0,0-.86-1.63A2.82,2.82,0,0,0,84.08,126Z"/><path class="cls-27" d="M83.1,126.42a1.55,1.55,0,0,1,1.26-.19c.67.23.93.65.84.78s-.43-.25-.87-.4a1.26,1.26,0,0,0-.8,0C83.09,126.86,83,126.63,83.1,126.42Z"/><path class="cls-25" d="M94.55,119.1c.78-.8,2.26-.6,3.3.44s1.25,2.53.46,3.33-2.25.61-3.29-.43S93.77,119.91,94.55,119.1Z"/><path class="cls-26" d="M94.42,119a1.92,1.92,0,0,1,1.66-.51,3.25,3.25,0,0,1,1.86,1,3.38,3.38,0,0,1,1,1.87,2,2,0,0,1-.48,1.69,1.91,1.91,0,0,1-1.65.5,3.32,3.32,0,0,1-1.87-1,3.44,3.44,0,0,1-1-1.88,2,2,0,0,1,.48-1.68Zm1.7-.19a1.67,1.67,0,0,0-1.45.44,1.72,1.72,0,0,0-.41,1.47,2.88,2.88,0,0,0,.85,1.64,2.91,2.91,0,0,0,1.63.85,1.67,1.67,0,0,0,1.45-.45,1.73,1.73,0,0,0,.42-1.47,3,3,0,0,0-.86-1.64A2.86,2.86,0,0,0,96.12,118.79Z"/><path class="cls-27" d="M95.14,119.24a1.53,1.53,0,0,1,1.25-.19c.67.22.94.65.84.78s-.42-.25-.86-.4a1.22,1.22,0,0,0-.81,0C95.12,119.68,95,119.44,95.14,119.24Z"/><path class="cls-25" d="M85.79,121.81c.92-.94,2.65-.72,3.87.5s1.46,3,.55,3.91-2.65.72-3.87-.5S84.87,122.75,85.79,121.81Z"/><path class="cls-26" d="M85.64,121.66a2.24,2.24,0,0,1,1.94-.59,3.82,3.82,0,0,1,2.19,1.13,3.89,3.89,0,0,1,1.14,2.2,2.29,2.29,0,0,1-.56,2,2.26,2.26,0,0,1-1.94.6,3.9,3.9,0,0,1-2.18-1.14,4,4,0,0,1-1.15-2.2,2.29,2.29,0,0,1,.56-2Zm2-.22a1.92,1.92,0,0,0-1.69.52,2,2,0,0,0-.49,1.72,3.39,3.39,0,0,0,1,1.92,3.43,3.43,0,0,0,1.91,1,2,2,0,0,0,1.7-.52,2,2,0,0,0,.49-1.73,3.44,3.44,0,0,0-1-1.92A3.29,3.29,0,0,0,87.63,121.44Z"/><path class="cls-27" d="M86.48,122a1.81,1.81,0,0,1,1.47-.21c.79.26,1.1.75,1,.91s-.5-.29-1-.47a1.35,1.35,0,0,0-.94,0C86.46,122.48,86.35,122.21,86.48,122Z"/><path class="cls-25" d="M93.71,115c.78-.8,2.26-.6,3.3.44s1.25,2.53.47,3.33-2.26.61-3.3-.43S92.93,115.78,93.71,115Z"/><path class="cls-26" d="M93.58,114.85a1.92,1.92,0,0,1,1.66-.51,3.28,3.28,0,0,1,1.86,1,3.32,3.32,0,0,1,1,1.87,2,2,0,0,1-.48,1.69,1.9,1.9,0,0,1-1.65.5,3.32,3.32,0,0,1-1.87-1,3.39,3.39,0,0,1-1-1.88,2,2,0,0,1,.47-1.68Zm1.7-.19a1.65,1.65,0,0,0-1.44.44,1.7,1.7,0,0,0-.42,1.47,3.06,3.06,0,0,0,2.48,2.49,1.66,1.66,0,0,0,1.45-.45,1.72,1.72,0,0,0,.42-1.47,3,3,0,0,0-.86-1.64A2.86,2.86,0,0,0,95.28,114.66Z"/><path class="cls-27" d="M94.3,115.11a1.55,1.55,0,0,1,1.26-.19c.66.22.93.65.84.78s-.43-.25-.87-.4a1.22,1.22,0,0,0-.81,0C94.29,115.55,94.19,115.32,94.3,115.11Z"/><path class="cls-25" d="M82.48,119c.79-.8,2.26-.61,3.3.43s1.25,2.54.47,3.34-2.26.61-3.3-.43S81.7,119.84,82.48,119Z"/><path class="cls-26" d="M82.36,118.92a1.91,1.91,0,0,1,1.65-.51,3.27,3.27,0,0,1,1.87,1,3.45,3.45,0,0,1,1,1.87,2,2,0,0,1-.48,1.68,1.92,1.92,0,0,1-1.66.51,3.25,3.25,0,0,1-1.86-1,3.32,3.32,0,0,1-1-1.87,2,2,0,0,1,.48-1.68Zm1.7-.2a1.66,1.66,0,0,0-1.45.45,1.73,1.73,0,0,0-.42,1.47,3,3,0,0,0,.86,1.64,2.86,2.86,0,0,0,1.63.84,1.62,1.62,0,0,0,1.44-.44,1.7,1.7,0,0,0,.42-1.47,3.06,3.06,0,0,0-2.48-2.49Z"/><path class="cls-27" d="M83.08,119.17a1.54,1.54,0,0,1,1.25-.18c.67.22.93.65.84.78s-.42-.25-.86-.4a1.22,1.22,0,0,0-.81,0C83.06,119.62,83,119.38,83.08,119.17Z"/><path class="cls-25" d="M78.72,100.63c1.07-1.1,3.09-.83,4.51.59s1.71,3.47.64,4.57-3.09.83-4.51-.59S77.65,101.73,78.72,100.63Z"/><path class="cls-26" d="M78.54,100.46a2.62,2.62,0,0,1,2.27-.7,4.82,4.82,0,0,1,3.89,3.89,2.68,2.68,0,0,1-.65,2.31,2.59,2.59,0,0,1-2.27.69,4.48,4.48,0,0,1-2.55-1.32,4.6,4.6,0,0,1-1.34-2.57,2.66,2.66,0,0,1,.65-2.3Zm2.33-.26a2.29,2.29,0,0,0-2,.6,2.35,2.35,0,0,0-.57,2,4.2,4.2,0,0,0,3.4,3.4,2.26,2.26,0,0,0,2-.61,2.33,2.33,0,0,0,.57-2,4,4,0,0,0-1.17-2.25A3.89,3.89,0,0,0,80.87,100.2Z"/><path class="cls-27" d="M79.53,100.81a2.07,2.07,0,0,1,1.71-.25c.92.3,1.28.88,1.16,1.06s-.58-.34-1.19-.54a1.56,1.56,0,0,0-1.1,0C79.5,101.42,79.37,101.1,79.53,100.81Z"/><path class="cls-25" d="M79.21,91.25c.93-1,2.7-.73,3.94.52s1.5,3,.56,4-2.7.73-3.94-.52S78.27,92.21,79.21,91.25Z"/><path class="cls-26" d="M79.05,91.1a2.33,2.33,0,0,1,2-.61,4,4,0,0,1,2.23,1.16,4.1,4.1,0,0,1,1.17,2.25,2.36,2.36,0,0,1-.57,2,2.3,2.3,0,0,1-2,.61,4,4,0,0,1-2.23-1.16,4,4,0,0,1-1.17-2.24,2.39,2.39,0,0,1,.57-2Zm2-.23a1.91,1.91,0,0,0-2.23,2.3,3.5,3.5,0,0,0,1,2,3.46,3.46,0,0,0,2,1,2,2,0,0,0,1.73-.53,2,2,0,0,0,.5-1.76,3.47,3.47,0,0,0-1-2A3.41,3.41,0,0,0,81.09,90.87Z"/><path class="cls-27" d="M79.91,91.41a1.84,1.84,0,0,1,1.51-.22c.8.27,1.11.77,1,.93s-.5-.3-1-.47a1.38,1.38,0,0,0-1,0C79.9,91.94,79.78,91.66,79.91,91.41Z"/><path class="cls-25" d="M68.74,96.36c1-1,2.86-.77,4.18.55s1.59,3.22.6,4.23-2.87.78-4.19-.54S67.75,97.38,68.74,96.36Z"/><path class="cls-26" d="M68.58,96.2a2.44,2.44,0,0,1,2.1-.64,4.45,4.45,0,0,1,3.6,3.61,2.5,2.5,0,0,1-.6,2.13,2.43,2.43,0,0,1-2.1.65A4.44,4.44,0,0,1,68,98.34a2.52,2.52,0,0,1,.61-2.14ZM70.73,96a2.13,2.13,0,0,0-1.83.56,2.17,2.17,0,0,0-.53,1.87,3.89,3.89,0,0,0,3.15,3.16,2.12,2.12,0,0,0,1.84-.57,2.17,2.17,0,0,0,.53-1.86A3.92,3.92,0,0,0,70.73,96Z"/><path class="cls-27" d="M69.49,96.53a2,2,0,0,1,1.59-.23c.85.28,1.18.82,1.07,1s-.54-.32-1.1-.51a1.49,1.49,0,0,0-1,0C69.47,97.1,69.35,96.8,69.49,96.53Z"/><path class="cls-25" d="M74.6,95.72c.78-.8,2.26-.61,3.3.44s1.26,2.54.47,3.34-2.26.61-3.3-.43S73.82,96.53,74.6,95.72Z"/><path class="cls-26" d="M74.47,95.6a1.92,1.92,0,0,1,1.66-.51,3.27,3.27,0,0,1,1.87,1,3.35,3.35,0,0,1,1,1.88,2,2,0,0,1-.48,1.69,1.92,1.92,0,0,1-1.66.5,3.27,3.27,0,0,1-1.87-1,3.38,3.38,0,0,1-1-1.88,2,2,0,0,1,.48-1.68Zm1.71-.19a1.66,1.66,0,0,0-1.46.44,1.73,1.73,0,0,0-.41,1.48,3.05,3.05,0,0,0,2.49,2.49,1.68,1.68,0,0,0,1.45-.45,1.73,1.73,0,0,0,.42-1.47,3.05,3.05,0,0,0-2.49-2.49Z"/><path class="cls-27" d="M75.19,95.86a1.55,1.55,0,0,1,1.26-.19c.67.22.93.65.84.78s-.42-.25-.87-.4a1.2,1.2,0,0,0-.8,0C75.18,96.3,75.08,96.07,75.19,95.86Z"/><path class="cls-25" d="M72.38,106.62c.78-.8,2.25-.61,3.29.43s1.25,2.53.47,3.33-2.25.61-3.29-.43S71.6,107.42,72.38,106.62Z"/><path class="cls-26" d="M72.25,106.49a1.92,1.92,0,0,1,1.66-.51,3.51,3.51,0,0,1,2.84,2.85,2,2,0,0,1-.48,1.68,1.92,1.92,0,0,1-1.66.51,3.51,3.51,0,0,1-2.84-2.85,2,2,0,0,1,.48-1.68Zm1.7-.19a1.7,1.7,0,0,0-1.45.44,1.78,1.78,0,0,0-.42,1.48,3,3,0,0,0,.86,1.63,2.85,2.85,0,0,0,1.63.85,1.7,1.7,0,0,0,1.45-.44,1.75,1.75,0,0,0,.42-1.48,3,3,0,0,0-.86-1.63A2.85,2.85,0,0,0,74,106.3Z"/><path class="cls-27" d="M73,106.75a1.53,1.53,0,0,1,1.25-.19c.67.23.94.65.84.78s-.42-.25-.86-.39a1.23,1.23,0,0,0-.81,0C73,107.19,72.86,107,73,106.75Z"/><path class="cls-25" d="M72.12,113.77c.78-.8,2.26-.61,3.3.43s1.25,2.53.47,3.33-2.26.61-3.3-.43S71.34,114.57,72.12,113.77Z"/><path class="cls-26" d="M72,113.64a1.87,1.87,0,0,1,1.65-.5,3.26,3.26,0,0,1,1.86,1,3.35,3.35,0,0,1,1,1.88,2,2,0,0,1-.48,1.68,1.89,1.89,0,0,1-1.65.51,3.52,3.52,0,0,1-2.84-2.84,2,2,0,0,1,.48-1.69Zm1.7-.19a1.69,1.69,0,0,0-1.45.44,1.72,1.72,0,0,0-.42,1.48,3,3,0,0,0,.86,1.64,2.86,2.86,0,0,0,1.63.84,1.67,1.67,0,0,0,1.44-.44,1.71,1.71,0,0,0,.42-1.47,2.94,2.94,0,0,0-.85-1.64A2.88,2.88,0,0,0,73.7,113.45Z"/><path class="cls-27" d="M72.71,113.9a1.52,1.52,0,0,1,1.26-.18c.67.22.93.64.84.77s-.42-.24-.87-.39a1.14,1.14,0,0,0-.8,0C72.7,114.34,72.6,114.11,72.71,113.9Z"/><path class="cls-25" d="M74,109c.78-.8,2.26-.61,3.3.43s1.25,2.53.46,3.33-2.25.61-3.29-.43S73.23,109.84,74,109Z"/><path class="cls-26" d="M73.88,108.91a1.92,1.92,0,0,1,1.66-.5,3.29,3.29,0,0,1,1.86,1,3.41,3.41,0,0,1,1,1.88,2,2,0,0,1-.48,1.68,1.91,1.91,0,0,1-1.65.51,3.33,3.33,0,0,1-1.87-1,3.38,3.38,0,0,1-1-1.87,2,2,0,0,1,.48-1.69Zm1.7-.19a1.71,1.71,0,0,0-1.45.44,1.74,1.74,0,0,0-.41,1.48,3,3,0,0,0,.85,1.64,2.89,2.89,0,0,0,1.63.84,1.7,1.7,0,0,0,1.45-.44,1.74,1.74,0,0,0,.42-1.47,2.89,2.89,0,0,0-.86-1.64A2.82,2.82,0,0,0,75.58,108.72Z"/><path class="cls-27" d="M74.6,109.17a1.51,1.51,0,0,1,1.25-.18c.67.22.94.64.84.77s-.42-.24-.86-.39a1.16,1.16,0,0,0-.81,0C74.58,109.61,74.49,109.38,74.6,109.17Z"/><path class="cls-25" d="M86.05,101.86c.78-.81,2.25-.61,3.29.43s1.25,2.53.47,3.33-2.26.61-3.3-.43S85.26,102.66,86.05,101.86Z"/><path class="cls-26" d="M85.92,101.73a1.91,1.91,0,0,1,1.65-.51,3.4,3.4,0,0,1,1.87,1,3.48,3.48,0,0,1,1,1.88,2,2,0,0,1-.48,1.68,1.92,1.92,0,0,1-1.66.51,3.51,3.51,0,0,1-2.84-2.85,2,2,0,0,1,.48-1.68Zm1.7-.19a1.7,1.7,0,0,0-1.45.44,1.74,1.74,0,0,0-.42,1.47,2.89,2.89,0,0,0,.86,1.64,2.82,2.82,0,0,0,1.63.85,1.71,1.71,0,0,0,1.45-.44A1.74,1.74,0,0,0,90.1,104a2.94,2.94,0,0,0-.85-1.63A2.85,2.85,0,0,0,87.62,101.54Z"/><path class="cls-27" d="M86.64,102a1.52,1.52,0,0,1,1.25-.19c.67.23.93.65.84.78s-.42-.25-.86-.4a1.29,1.29,0,0,0-.81,0C86.62,102.43,86.52,102.2,86.64,102Z"/><path class="cls-25" d="M77.29,104.56c.91-.94,2.64-.71,3.86.51s1.47,3,.55,3.91-2.64.71-3.86-.51S76.37,105.5,77.29,104.56Z"/><path class="cls-26" d="M77.14,104.41a2.23,2.23,0,0,1,1.94-.59A3.85,3.85,0,0,1,81.26,105a3.94,3.94,0,0,1,1.15,2.2,2.31,2.31,0,0,1-.56,2,2.23,2.23,0,0,1-1.94.59,3.81,3.81,0,0,1-2.18-1.14,3.85,3.85,0,0,1-1.15-2.19,2.3,2.3,0,0,1,.56-2Zm2-.22a2,2,0,0,0-1.7.52,2,2,0,0,0-.49,1.72,3.5,3.5,0,0,0,1,1.93,3.38,3.38,0,0,0,1.91,1,2,2,0,0,0,1.69-.52,2,2,0,0,0,.5-1.73,3.5,3.5,0,0,0-1-1.92A3.35,3.35,0,0,0,79.13,104.19Z"/><path class="cls-27" d="M78,104.72a1.8,1.8,0,0,1,1.47-.22c.78.26,1.09.76,1,.91s-.5-.29-1-.46a1.41,1.41,0,0,0-.94,0C78,105.24,77.85,105,78,104.72Z"/><path class="cls-25" d="M85.21,97.73c.78-.8,2.25-.61,3.29.43s1.25,2.53.47,3.33-2.25.61-3.29-.43S84.43,98.53,85.21,97.73Z"/><path class="cls-26" d="M85.08,97.6a1.92,1.92,0,0,1,1.66-.51,3.51,3.51,0,0,1,2.84,2.85,2,2,0,0,1-.48,1.68,1.92,1.92,0,0,1-1.66.51,3.51,3.51,0,0,1-2.84-2.85,2,2,0,0,1,.48-1.68Zm1.7-.19a1.7,1.7,0,0,0-1.45.44,1.75,1.75,0,0,0-.42,1.48,2.9,2.9,0,0,0,.86,1.63,2.85,2.85,0,0,0,1.63.85,1.7,1.7,0,0,0,1.45-.44,1.74,1.74,0,0,0,.41-1.48,2.88,2.88,0,0,0-.85-1.63A2.85,2.85,0,0,0,86.78,97.41Z"/><path class="cls-27" d="M85.8,97.86a1.53,1.53,0,0,1,1.25-.19c.67.23.93.65.84.78s-.42-.25-.86-.39a1.23,1.23,0,0,0-.81,0C85.78,98.3,85.69,98.07,85.8,97.86Z"/><path class="cls-25" d="M74,101.79c.78-.8,2.26-.6,3.3.44s1.25,2.53.47,3.33-2.26.61-3.3-.43S73.2,102.6,74,101.79Z"/><path class="cls-26" d="M73.86,101.67a1.89,1.89,0,0,1,1.65-.51,3.22,3.22,0,0,1,1.86,1,3.32,3.32,0,0,1,1,1.87,2,2,0,0,1-.48,1.69,1.9,1.9,0,0,1-1.65.5,3.26,3.26,0,0,1-1.86-1,3.35,3.35,0,0,1-1-1.88,2,2,0,0,1,.48-1.68Zm1.7-.19a1.66,1.66,0,0,0-1.45.44,1.7,1.7,0,0,0-.42,1.47,3.09,3.09,0,0,0,2.48,2.49,1.66,1.66,0,0,0,1.45-.45A1.69,1.69,0,0,0,78,104a3,3,0,0,0-.86-1.64A2.87,2.87,0,0,0,75.56,101.48Z"/><path class="cls-27" d="M74.57,101.93a1.55,1.55,0,0,1,1.26-.19c.67.22.93.65.84.78s-.42-.25-.87-.4a1.2,1.2,0,0,0-.8,0C74.56,102.37,74.46,102.14,74.57,101.93Z"/></g></svg>