<?xml version="1.0" encoding="utf-8"?>
<!-- Generator: Adobe Illustrator 24.3.0, SVG Export Plug-In . SVG Version: 6.00 Build 0)  -->
<svg version="1.1" id="Layer_1" xmlns="http://www.w3.org/2000/svg" xmlns:xlink="http://www.w3.org/1999/xlink" x="0px" y="0px"
	 viewBox="0 0 252 252" style="enable-background:new 0 0 252 252;" xml:space="preserve">
<style type="text/css">
	.st0{fill:#CC8F05;}
	.st1{clip-path:url(#SVGID_2_);}
	.st2{fill:#DB9810;}
	.st3{opacity:0.1;fill:#FFFFFF;enable-background:new    ;}
	.st4{fill:#F7B937;}
	.st5{opacity:0.4;}
	.st6{fill:#FAC461;}
	.st7{fill:#F9CB37;}
	.st8{opacity:0.28;fill:#4C7A0A;enable-background:new    ;}
	.st9{fill:#7E4100;}
	.st10{fill:#A55D13;}
	.st11{fill:#F7DC54;}
	.st12{fill:#DDA403;}
	.st13{fill:#BC8702;}
	.st14{opacity:0.26;}
</style>
<g>
	<g id="a1409089-7d29-4ef9-a0f5-b414f58cb609">
		<path class="st0" d="M124.4,65.6c7.4,11.2,38.7,8.3,31.1,46.8c-12.6,51.3-44.3,74.8-85.4,77.6c-11.9,0.3-38.2-3.9-38.6-23.3
			c0,0-1-10.7,1.3-14.5c15-24.9,2.4-30.8,19.1-68.5C67.8,50.5,103.1,38.1,124.4,65.6z"/>
		<g>
			<defs>
				<path id="SVGID_1_" d="M124.4,65.6c7.4,11.2,38.7,8.3,31.1,46.8c-12.6,51.3-44.3,74.8-85.4,77.6c-11.9,0.3-38.2-3.9-38.6-23.3
					c0,0-1-10.7,1.3-14.5c15-24.9,2.4-30.8,19.1-68.5C67.8,50.5,103.1,38.1,124.4,65.6z"/>
			</defs>
			<clipPath id="SVGID_2_">
				<use xlink:href="#SVGID_1_"  style="overflow:visible;"/>
			</clipPath>
			<g class="st1">
				<path class="st2" d="M121.3,49.6c7.4,11.2,39,8.3,31.3,47.1c-12.7,51.6-44.6,75.3-85.9,78c-12,0.3-38.5-3.9-38.9-23.4
					c0,0-1-10.8,1.3-14.6c15.1-25.1,2.4-31,19.2-68.9C64.4,34.4,99.9,22,121.3,49.6z"/>
				
					<ellipse transform="matrix(0.4504 -0.8928 0.8928 0.4504 -28.2831 140.0195)" class="st3" cx="99.6" cy="93" rx="56.6" ry="52.8"/>
			</g>
		</g>
		<path class="st4" d="M74.1,70.2c0,0,15.3-12.1,24.3,0.1c6.9,9.4-4.8,13.8-10.6,16.8s-10.7,8.9-16.3,9.6S50.9,91,74.1,70.2z"/>
		<g class="st5">
			<path class="st6" d="M44.4,139.9L44.4,139.9l0.5-0.3c-0.1,0-0.2,0-0.2,0.1L44.4,139.9c0,0-0.1,0.2-0.2,0.3v0.2
				c0,0.2,0,0.3,0.1,0.4l0.1,0.2c0.1,0.1,0.3,0.2,0.4,0.2c0.1,0,0.2,0,0.3,0c0.1,0,0.2,0,0.3-0.1c0.1-0.1,0.2-0.1,0.3-0.2
				c0.1-0.1,0.1-0.2,0.2-0.3c0-0.1,0-0.2,0-0.4c0-0.1,0-0.2-0.1-0.3c-0.1-0.1-0.1-0.2-0.2-0.2c-0.1-0.1-0.2-0.1-0.3-0.2
				c-0.1,0-0.2,0-0.2,0l0.6,0.2l0,0c-0.1-0.1-0.2-0.2-0.3-0.2c-0.1,0-0.2,0-0.3,0c-0.1,0-0.2,0-0.3,0.1
				C44.7,139.8,44.6,139.9,44.4,139.9L44.4,139.9z"/>
			<path class="st6" d="M54.4,146.4c0.5-0.2,0.8-0.8,0.6-1.3c-0.1-0.3-0.3-0.5-0.6-0.6c-0.5,0.1-0.9,0.5-0.8,1
				C53.6,146,54,146.4,54.4,146.4z"/>
			<path class="st6" d="M57.7,132.9c0.5-0.1,0.9-0.7,0.8-1.2c-0.1-0.4-0.4-0.7-0.8-0.8c-0.5,0.1-0.9,0.7-0.8,1.2
				C57.1,132.6,57.3,132.9,57.7,132.9z"/>
			<path class="st6" d="M66,163.3L66,163.3L66,163.3L66,163.3l0.2,0.1h0.2h0.1c0.1,0,0.1,0,0.2-0.1h0.1c0.1,0,0.1-0.1,0.2-0.1l0,0
				l0,0l0,0L67,163c0.1-0.1,0.1-0.2,0.1-0.3c0-0.1,0-0.1,0-0.2c0-0.1,0-0.1,0-0.2c0-0.1-0.1-0.2-0.2-0.3l-0.2-0.1l-0.2-0.1
				c-0.1,0-0.2,0-0.3,0c-0.1,0-0.3,0.1-0.4,0.2c-0.1,0.1-0.2,0.1-0.2,0.2l-0.1,0.2v0.2v0.2c0,0.1,0.1,0.2,0.2,0.3
				c0.1,0.1,0.1,0.2,0.2,0.2L66,163.3z"/>
			<path class="st6" d="M68.7,165.8L68.7,165.8L68.7,165.8z"/>
			<path class="st6" d="M70.3,166.4c0.4,0,0.7-0.3,0.7-0.7s-0.3-0.7-0.7-0.7s-0.7,0.3-0.7,0.7S69.9,166.4,70.3,166.4L70.3,166.4z"/>
			<path class="st6" d="M71.5,161.6c0.3,0,0.5-0.2,0.5-0.5s-0.2-0.5-0.5-0.5s-0.5,0.2-0.5,0.5S71.2,161.6,71.5,161.6L71.5,161.6z"/>
			<path class="st6" d="M75.6,167.4c0.5,0,0.9-0.4,0.9-0.9c0-0.5-0.4-0.9-0.9-0.9s-0.9,0.4-0.9,0.9C74.7,167,75.1,167.4,75.6,167.4z
				"/>
			<path class="st6" d="M85.6,115.3h-0.2c-0.3,0-0.6,0.3-0.6,0.6s0.3,0.6,0.6,0.6c0,0,0.1,0,0.1,0h0.2c0.3-0.1,0.5-0.4,0.4-0.8
				C86.1,115.6,85.8,115.4,85.6,115.3L85.6,115.3z"/>
			<path class="st6" d="M90.6,120.3l-0.2,0.1c-0.1,0-0.1,0.1-0.2,0.1c-0.1,0-0.2,0.1-0.2,0.2c-0.1,0.1-0.1,0.2-0.1,0.3
				c0,0.1,0,0.2,0,0.3c0,0.1,0,0.2,0.1,0.3l0.1,0.2c0.1,0.1,0.2,0.2,0.3,0.2h0.2c0.1,0,0.3,0,0.4-0.1l0.2-0.1l0.2-0.1
				c0.1,0,0.2-0.1,0.2-0.2c0.1-0.1,0.1-0.2,0.1-0.3c0-0.1,0-0.2,0-0.3c0-0.1,0-0.2-0.1-0.3l-0.1-0.2c-0.1-0.1-0.2-0.2-0.3-0.2H91
				C90.8,120.2,90.7,120.2,90.6,120.3L90.6,120.3z"/>
			<path class="st6" d="M91.2,117.4c0.3,0,0.6-0.3,0.6-0.6c0-0.3-0.3-0.6-0.6-0.6c-0.3,0-0.6,0.3-0.6,0.6
				C90.6,117.1,90.8,117.4,91.2,117.4z"/>
			<path class="st6" d="M98.5,89.7L98.5,89.7L98.5,89.7z"/>
			<path class="st6" d="M88.6,94.6c0.3,0,0.6-0.3,0.6-0.6c0-0.3-0.3-0.6-0.6-0.6c-0.3,0-0.6,0.3-0.6,0.6
				C88,94.3,88.3,94.6,88.6,94.6z"/>
			<path class="st6" d="M93,102.1c0.5,0,0.9-0.4,0.9-0.9c0-0.5-0.4-0.9-0.9-0.9c-0.5,0-0.9,0.4-0.9,0.9
				C92.1,101.7,92.5,102,93,102.1z"/>
			<path class="st6" d="M93.5,97.7c0.4,0,0.7-0.4,0.7-0.9c0-0.4-0.3-0.6-0.7-0.7c-0.4,0-0.7,0.4-0.7,0.9
				C92.8,97.4,93.1,97.7,93.5,97.7z"/>
			<path class="st6" d="M129.5,129.6c0.6,0,1-0.4,1-1s-0.4-1-1-1s-1,0.4-1,1S128.9,129.6,129.5,129.6z"/>
			<path class="st6" d="M134.8,120.7c0.5,0,0.9-0.4,0.9-0.9c0-0.5-0.4-0.9-0.9-0.9s-0.9,0.4-0.9,0.9
				C133.9,120.3,134.3,120.7,134.8,120.7z"/>
			<path class="st6" d="M117.6,127.9l0.1-0.3v-0.2v-0.1c0,0-0.1-0.1-0.1-0.1h-0.1h-0.1c0,0-0.1,0-0.1,0c0,0-0.1,0-0.1,0l-0.3,0.2
				c-0.1,0-0.1,0.1-0.2,0.2c0,0.1-0.1,0.2-0.1,0.3c0,0.1,0,0.2,0.1,0.3c0,0.1,0.1,0.1,0.1,0.1c0.1,0,0.1,0.1,0.2,0.1
				c0.1,0,0.2,0,0.3,0C117.5,128.3,117.6,128.1,117.6,127.9L117.6,127.9z"/>
			<path class="st6" d="M132.1,138.6c0.4,0,0.7-0.3,0.7-0.7c0-0.4-0.3-0.7-0.7-0.7s-0.7,0.3-0.7,0.7
				C131.4,138.3,131.7,138.6,132.1,138.6z"/>
			<path class="st6" d="M142.9,135.2v-0.3c0-0.1,0-0.2-0.1-0.2c0-0.1-0.1-0.1-0.1-0.1c0,0-0.1-0.1-0.2-0.1c-0.1,0-0.2,0-0.2,0
				l-0.3,0.1l-0.2,0.1l-0.1,0.1l-0.1,0.1l-0.1,0.2v0.2v0.2l0.1,0.2c0,0.1,0.1,0.2,0.2,0.2c0,0,0.1,0.1,0.1,0.1c0.1,0,0.1,0,0.2,0.1
				h0.2c0.1,0,0.1,0,0.2-0.1c0.1,0,0.1-0.1,0.2-0.1c0.1,0,0.1-0.1,0.1-0.1c0.1,0,0.1-0.1,0.1-0.2
				C142.9,135.4,142.9,135.3,142.9,135.2L142.9,135.2z"/>
			<path class="st6" d="M123,136.6c0.3,0,0.5-0.3,0.5-0.6c0-0.2-0.2-0.4-0.5-0.5c-0.3,0-0.5,0.3-0.5,0.6
				C122.6,136.4,122.8,136.6,123,136.6z"/>
			<path class="st6" d="M86.4,139.6c0.3,0,0.5-0.2,0.5-0.5s-0.2-0.5-0.5-0.5l0,0c-0.3,0-0.5,0.2-0.5,0.5S86.1,139.6,86.4,139.6z"/>
			<path class="st6" d="M102.6,151.5c0.3-0.1,0.5-0.3,0.4-0.6c0-0.2-0.2-0.4-0.4-0.4c-0.3,0.1-0.5,0.3-0.4,0.6
				C102.3,151.3,102.4,151.4,102.6,151.5z"/>
			<path class="st6" d="M113.4,165.2c0.3,0,0.6-0.3,0.5-0.7c0-0.3-0.3-0.5-0.5-0.5c-0.3,0-0.6,0.3-0.5,0.7
				C112.9,164.9,113.1,165.1,113.4,165.2z"/>
			<path class="st6" d="M116.9,153.1c0.4,0,0.7-0.4,0.7-0.9c0-0.4-0.3-0.6-0.7-0.7c-0.4,0-0.7,0.4-0.7,0.9
				C116.3,152.8,116.6,153.1,116.9,153.1z"/>
			<path class="st6" d="M54.3,100.7h-0.1c-1-0.2-0.8,1.5,0.1,1l0.1-0.1c0.2-0.1,0.3-0.4,0.2-0.7C54.5,100.8,54.4,100.7,54.3,100.7
				L54.3,100.7z"/>
			<path class="st6" d="M64.6,105.6c0.4,0,0.7-0.3,0.7-0.7c0-0.4-0.3-0.7-0.7-0.7c-0.4,0-0.7,0.3-0.7,0.7
				C64,105.3,64.2,105.6,64.6,105.6z"/>
			<path class="st6" d="M66.1,97.2c0.3,0,0.6-0.3,0.6-0.6c0-0.3-0.3-0.6-0.6-0.6c-0.3,0-0.6,0.3-0.6,0.6
				C65.5,97,65.7,97.2,66.1,97.2z"/>
			<path class="st6" d="M82.4,73.5L82.4,73.5L82.4,73.5L82.4,73.5c0-0.1,0-0.2,0-0.3c0,0,0-0.1,0-0.1l0,0l0,0l0,0l-0.1-0.1
				c-0.3-0.3-0.7-0.3-0.9,0c-0.1,0.1-0.1,0.2-0.2,0.3c-0.1,0.2,0,0.5,0.2,0.6c0.2,0.2,0.4,0.2,0.6,0.2c0.1,0,0.2-0.1,0.3-0.2
				C82.4,73.8,82.5,73.7,82.4,73.5L82.4,73.5z"/>
			<path class="st6" d="M92.1,80.6c0.5,0,0.9-0.4,0.9-0.9c0-0.5-0.4-0.9-0.9-0.9c-0.5,0-0.9,0.4-0.9,0.9
				C91.2,80.2,91.6,80.6,92.1,80.6z"/>
			<path class="st6" d="M148.6,99.4"/>
			<path class="st6" d="M148.1,112.4c0.7,0,1.3-0.6,1.3-1.3c0-0.7-0.6-1.3-1.3-1.3c-0.7,0-1.3,0.6-1.3,1.3
				C146.9,111.8,147.4,112.4,148.1,112.4z"/>
			<path class="st6" d="M151.4,116.8c0.6,0,1-0.4,1-1s-0.4-1-1-1s-1,0.4-1,1S150.8,116.8,151.4,116.8z"/>
			<path class="st6" d="M152.8,111.9"/>
		</g>
		<path class="st0" d="M196.8,102.8c2.4,13.2,32.3,22.9,10.1,55.3c-31.9,42.2-70.3,51.2-109.1,37.5c-11-4.4-33.6-18.7-26.3-36.6
			c0,0,3.3-10.2,7-12.8c23.6-16.9,14.4-27.4,44.6-55.4C150.8,66.6,188.1,69.2,196.8,102.8z"/>
		<path class="st7" d="M195,104.3c2.3,12.7,30.1,17.4,8.7,48.6c-30.7,40.7-67.8,49.4-105.2,36.2c-10.6-4.3-31.3-13.3-24.3-30.6
			c0,0,3.2-9.9,6.7-12.4c22.8-16.4,13.9-26.4,43-53.4C150.6,69.4,186.6,71.9,195,104.3z"/>
		
			<ellipse transform="matrix(0.8417 -0.5399 0.5399 0.8417 -27.6319 124.5035)" class="st8" cx="198.5" cy="109.4" rx="0.7" ry="3.2"/>
		<path class="st9" d="M218.1,99.6c-10.2-0.4-21.1,7.8-21.1,7.8l1.4,2.1c7.9-4.2,18.5-5.7,21.2-6.1L218.1,99.6z"/>
		<path class="st10" d="M219.7,103.4c-2.8,0.3-13.4,1.8-21.2,6.1l1.1,1.7c5-4.6,21.1-5.2,21.1-5.2L219.7,103.4z"/>
		<path class="st11" d="M151.4,110.8c0,0,13.5-1.8,19.9,6.2c6,7.5,15.5,15.4,4.9,26s-33,24-44.2,27.4s-26.1,4-28.6-6.5
			s5.5-25.9,13.7-30.2s17.6-14.5,21.7-17.4C143.6,112.8,151.4,110.8,151.4,110.8z"/>
		<path class="st12" d="M115.7,168.3c5.9-0.1,9.4-0.7,21.3-4.6c11.3-3.7,31-18.4,35.4-22.9c3.6-3.6,5.3-9,6.1-12.3
			c-1.1-2.7-3.2-5.6-7-8.4c-5.7-11.1-18.9-9.2-18.9-9.2s-7.6,2-12.3,5.4c-4,2.9-13.2,13-21.1,17.2c-7.1,3.7-14.7,16.8-14.7,26.8
			C106.6,164.6,111,168.4,115.7,168.3z"/>
		<path class="st13" d="M178.5,128.5c-0.8,3.3-2.5,8.7-6.1,12.3c-4.4,4.5-24.1,19.2-35.4,22.9c-11.9,3.9-15.3,4.4-21.3,4.6
			c-4.7,0.1-9.1-3.7-11.3-7.9c0,1.2,0.1,2.4,0.4,3.6c2.3,10.2,17.5,8.5,28.3,5s32.6-16.8,43-27.1
			C176.1,141.9,181.4,135.9,178.5,128.5z"/>
		<path class="st7" d="M129.6,133.5c0,0,15.7-16,24.6-15.5s12.2,2.1,12.2,2.1S150.9,118.3,129.6,133.5z"/>
		<g class="st14">
			<path class="st7" d="M152.9,133.5l-0.7,1.2c-0.1,0.6,0.3,0.9,0.7,1.3l2.3-1.3c0,0,0.2-1.9,0.2-1.9S153.4,132.8,152.9,133.5z"/>
			<path class="st7" d="M127.5,150.9l-1.1,1.1c-0.4,0.7-0.1,1.1,0,1.6l2.3-0.7l1-2C129.8,150.9,128.3,150.2,127.5,150.9z"/>
			<path class="st7" d="M149,152.7l1.4-0.4c0.6-0.4,1.1-1,1.4-1.7l-1.6-0.9l-2.2,1.4C148.1,151.1,148.2,152.8,149,152.7z"/>
			<path class="st7" d="M167.8,135.4l0.9-1.2c0.3-0.7-0.1-1-0.4-1.5l-2.3,1c0,0-0.6,2-0.6,2S167.1,136.1,167.8,135.4z"/>
			<path class="st7" d="M123.9,147.4l-1.4,0.8c-0.5,0.5-0.7,1.1-0.8,1.8l2.1,0.2l1.8-1.8C125.6,148.3,124.8,147,123.9,147.4z"/>
			<path class="st7" d="M140.4,146.3l1.3,0.1c0.7-0.3,1.3-0.8,1.8-1.4l-0.9-1.5l-2.3,0.8C140.3,144.3,139.7,146.2,140.4,146.3z"/>
			<path class="st7" d="M159.9,142.5l1-1.2c0.3-0.7,0-1-0.3-1.5l-2.4,0.9l-0.7,2C157.5,142.7,159.2,143.1,159.9,142.5z"/>
			<path class="st7" d="M125.9,156.4l-1.3,0.9c-0.4,0.5-0.5,1.1-0.4,1.8l2.3-0.2c0,0,1.4-2,1.4-2S126.7,155.9,125.9,156.4z"/>
			<path class="st7" d="M162.5,133.7l1.1-1.1c0.4-0.7,0.2-1.1,0.1-1.7l-2.3,0.6c0,0-1.1,2-1.1,2S161.7,134.3,162.5,133.7z"/>
			<path class="st7" d="M140.2,140.9l1.2,0.2c0.7-0.2,1.4-0.6,1.9-1.2l-0.5-1.7l-2.3,0.5C140.5,138.8,139.6,140.7,140.2,140.9z"/>
			<path class="st7" d="M126.3,131.3l-1.3-0.1c-0.7,0.3-1.4,0.7-1.8,1.3l0.8,1.6c0,0,2.3-0.7,2.3-0.7S127,131.5,126.3,131.3z"/>
			<path class="st7" d="M152.9,121.6l1.3-0.8c0.4-0.5,0.7-1.1,0.7-1.8h-2.1l-1.7,1.9C151.1,120.8,152,122,152.9,121.6z"/>
			<path class="st7" d="M132.3,140.8l0.2,1.1c0.4,0.4,1,0.3,1.7,0.2l1.4-2c0,0-1.2-1.1-1.3-1.1S132.3,140.1,132.3,140.8z"/>
			<path class="st7" d="M145.8,130.8l-0.4,1.2c0,0.6,0.6,0.7,1.1,1l2-1.7c0,0-0.3-1.7-0.3-1.7S146.2,130,145.8,130.8z"/>
			<path class="st7" d="M164.9,140.4l0.9,0.6c0.7-0.1,1.4-0.3,2-0.7l0.1-2l-2.1-0.1C165.8,138.1,164.4,139.9,164.9,140.4z"/>
			<path class="st7" d="M115.1,142.9l-1.4,0.5c-0.6,0.4-1,1-1.2,1.7l1.7,0.7l2.1-1.5C116.2,144.2,115.9,142.6,115.1,142.9z"/>
			<path class="st7" d="M137.8,160.3l-0.4,1.2c0,0.6,0.6,0.7,1.1,1l2.1-1.6c0,0-0.3-1.8-0.3-1.8S138.2,159.6,137.8,160.3z"/>
			<path class="st7" d="M119.9,155.5l-1.2-0.1c-0.7,0.3-1.3,0.7-1.8,1.3l0.8,1.5l2.3-0.7C119.9,157.5,120.6,155.7,119.9,155.5z"/>
			<path class="st7" d="M156.7,125.5l1.1-1.1c0.4-0.7,0.1-1.1-0.1-1.6l-2.4,0.7c0,0-0.9,2-0.9,2S155.9,126.2,156.7,125.5z"/>
			<path class="st7" d="M128,159.4l-0.7,1.2c-0.1,0.7,0.3,0.9,0.7,1.3l2.2-1.3c0,0,0.2-1.9,0.2-1.9S128.5,158.6,128,159.4z"/>
			<path class="st7" d="M133.6,128.1l-0.2-1.1c-0.4-0.4-1-0.3-1.7-0.2l-1.4,2c0,0,1.2,1.1,1.3,1.1S133.6,128.9,133.6,128.1z"/>
			<path class="st7" d="M150.9,144.7l1,0.4c0.7-0.1,1.4-0.5,2-1l-0.2-1.8l-2.2,0.2C151.5,142.5,150.4,144.3,150.9,144.7z"/>
			<path class="st7" d="M118.6,151.7l-1.2-0.2c-0.7,0.2-1.4,0.6-1.9,1.2l0.6,1.6l2.3-0.6C118.4,153.8,119.2,151.9,118.6,151.7z"/>
			<path class="st7" d="M162,124.7l1.1-1.1c0.4-0.7,0.1-1.1,0-1.7l-2.3,0.6c0,0-1.1,2-1.1,2S161.2,125.3,162,124.7z"/>
			<path class="st7" d="M143.9,131.2V130c-0.3-0.5-0.9-0.4-1.6-0.5l-1.6,1.9c0,0,1,1.4,1,1.4S143.8,131.9,143.9,131.2z"/>
			<path class="st7" d="M141.1,157.9l0.3,1c0.4,0.4,1.1,0.2,1.8,0.1l1.2-2.1c0,0-1.4-1-1.4-1S141,157.2,141.1,157.9z"/>
			<path class="st7" d="M139.8,133.7l-0.5-0.9c-0.5-0.3-1.2,0-1.9,0.2l-0.8,2.1l1.7,0.7C138.1,135.8,140,134.3,139.8,133.7z"/>
			<path class="st7" d="M142.6,148.7l0.6,0.8c0.6,0.2,1.2-0.1,2-0.3l0.7-2.1c0,0-1.8-0.5-1.8-0.5S142.3,148.1,142.6,148.7z"/>
			<path class="st7" d="M140.9,136.7l-0.7-0.8c-0.6-0.2-1.2,0.1-2,0.4l-0.6,2.1c0,0,1.9,0.4,1.9,0.4S141.2,137.2,140.9,136.7z"/>
			<path class="st7" d="M153.2,145.5l-1.4,0.4c-0.6,0.4-1.1,1-1.4,1.7l1.5,0.9l2.2-1.4C154.1,147.1,154,145.4,153.2,145.5z"/>
			<path class="st7" d="M170.9,125.7l-1.4,0.7c-0.5,0.5-0.8,1.1-0.9,1.8l2,0.3c0,0,1.9-1.7,1.9-1.7S171.7,125.4,170.9,125.7z"/>
			<path class="st7" d="M168.7,131.5v1.1c0.3,0.5,0.9,0.4,1.6,0.5l1.6-2l-1-1.3C170.9,129.7,168.8,130.7,168.7,131.5z"/>
			<path class="st7" d="M168.1,117l-1.3-0.1c-0.7,0.3-1.3,0.7-1.8,1.3l0.8,1.5l2.3-0.8C168.2,119,168.9,117.1,168.1,117z"/>
			<path class="st7" d="M131.9,161.4l-1.1,1.1c-0.4,0.7-0.1,1.1,0,1.7l2.3-0.6c0,0,1.1-2,1.1-2S132.6,160.8,131.9,161.4z"/>
			<path class="st7" d="M149.7,139.7l0.6-1.2c0-0.6-0.4-0.8-0.9-1.2l-2.2,1.5v1.9C147.2,140.6,149.2,140.5,149.7,139.7z"/>
			<path class="st7" d="M128.5,164.6v-1.1c-0.3-0.5-0.9-0.4-1.6-0.4l-1.6,2c0,0,1,1.3,1,1.3S128.4,165.3,128.5,164.6z"/>
			<path class="st7" d="M122.9,163.6l-1.4,0.7c-0.5,0.5-0.8,1.1-0.9,1.8l2,0.3c0,0,1.8-1.8,1.8-1.8S123.7,163.2,122.9,163.6z"/>
			<path class="st7" d="M133,149l0.1-1.2c-0.2-0.5-0.8-0.5-1.5-0.6l-1.7,1.9c0,0,0.8,1.5,0.8,1.5S132.8,149.8,133,149z"/>
			<path class="st7" d="M120.3,161.3l-0.5,1.2c0,0.6,0.5,0.8,1,1.1l2.1-1.6c0,0-0.2-1.8-0.2-1.8S120.8,160.6,120.3,161.3z"/>
			<path class="st7" d="M135.9,149.3l0.6-1.2c0.1-0.6-0.4-0.8-0.9-1.2l-2.2,1.5v1.9C133.4,150.3,135.4,150.1,135.9,149.3z"/>
			<path class="st7" d="M123.4,152.5l-1.1,1.1c-0.4,0.7-0.1,1.1,0,1.6l2.3-0.7l1-2C125.7,152.6,124.2,151.9,123.4,152.5z"/>
			<path class="st7" d="M143.5,125.6l1.1-1.1c0.4-0.7,0.1-1.1-0.1-1.6l-2.4,0.7l-0.9,2C141.2,125.5,142.8,126.2,143.5,125.6z"/>
			<path class="st7" d="M110.4,154.9l-0.8,1.2c-0.2,0.7,0.3,0.9,0.6,1.4l2.3-1.2c0,0,0.3-2,0.3-2S111,154.1,110.4,154.9z"/>
			<path class="st7" d="M113.3,149.8l-1.3,0.1c-0.7,0.3-1.3,0.9-1.7,1.5l1.1,1.3l2.3-1C113.7,151.7,114.1,149.9,113.3,149.8z"/>
			<path class="st7" d="M160.9,127.3l1,0.4c0.7-0.1,1.4-0.5,2-1l-0.2-1.8l-2.2,0.2C161.5,125.1,160.4,127,160.9,127.3z"/>
			<path class="st7" d="M117.4,162.8l-1.1,1.1c-0.4,0.7-0.1,1.1,0,1.6l2.3-0.7l1-2C119.6,162.9,118.1,162.2,117.4,162.8z"/>
			<path class="st7" d="M153.7,140.1l0.8,0.7c0.6,0.2,1.2-0.2,2-0.5l0.4-2c0,0-1.9-0.3-1.9-0.3S153.3,139.6,153.7,140.1z"/>
			<path class="st7" d="M112.8,158.6l-1.4,0.7c-0.5,0.5-0.8,1.1-0.8,1.8l2,0.2l1.8-1.8C114.3,159.5,113.6,158.2,112.8,158.6z"/>
			<path class="st7" d="M149.1,126.4l1.2,0.2c0.7-0.2,1.4-0.7,1.9-1.2l-0.6-1.7l-2.3,0.6C149.3,124.3,148.4,126.2,149.1,126.4z"/>
			<path class="st7" d="M135.8,142.1l-0.8,1.2c-0.2,0.7,0.2,0.9,0.6,1.4l2.3-1.2c0,0,0.4-2,0.4-2S136.3,141.4,135.8,142.1z"/>
			<path class="st7" d="M116,141.1l0.7,0.8c0.6,0.2,1.2-0.2,2-0.4l0.5-2c0,0-1.9-0.4-1.9-0.4S115.7,140.5,116,141.1z"/>
			<path class="st7" d="M123.2,136.6l0.1,1.1c0.3,0.4,1,0.3,1.7,0.4l1.5-2c0,0-1.1-1.2-1.1-1.2S123.2,135.9,123.2,136.6z"/>
			<path class="st7" d="M122.3,135.5l-1.4,0.4c-0.6,0.4-1.1,1-1.3,1.7l1.7,0.8l2.1-1.4C123.4,137,123.2,135.3,122.3,135.5z"/>
			<path class="st7" d="M130.6,133.8l1.2-1c0.4-0.7,0.2-1.1,0.1-1.7l-2.3,0.5c0,0-1.2,2-1.2,2S129.9,134.4,130.6,133.8z"/>
			<path class="st7" d="M121.1,141.9l-0.6,1.2c0,0.6,0.5,0.8,0.9,1.1l2.2-1.5c0,0,0-1.9,0-1.9S121.6,141.1,121.1,141.9z"/>
			<path class="st7" d="M139.8,124.8l0.7-1.2c0.1-0.7-0.3-0.9-0.7-1.3l-2.3,1.3c0,0-0.2,1.9-0.2,1.9S139.3,125.5,139.8,124.8z"/>
			<path class="st7" d="M159.6,138.3l1.4-0.4c0.6-0.4,1-1,1.3-1.7l-1.7-0.8l-2.1,1.5C158.6,136.9,158.8,138.5,159.6,138.3z"/>
			<path class="st7" d="M135.3,159.2l-1,1.2c-0.3,0.7,0,1,0.2,1.5l2.4-0.9c0,0,0.8-2,0.8-2S136,158.5,135.3,159.2z"/>
			<path class="st7" d="M147.8,158.4l1.4-0.8c0.5-0.5,0.8-1.1,0.8-1.8l-2.1-0.2c0,0-1.8,1.8-1.8,1.8S146.9,158.7,147.8,158.4z"/>
			<path class="st7" d="M145.6,152.2l-1.2-0.2c-0.7,0.2-1.4,0.6-1.9,1.2l0.5,1.7c0,0,2.3-0.5,2.3-0.5S146.3,152.5,145.6,152.2z"/>
			<path class="st7" d="M131.9,154.2l-1.4,0.6c-0.5,0.5-0.9,1.1-1.1,1.8l1.9,0.5l2-1.7C133.3,155.4,132.8,153.9,131.9,154.2z"/>
			<path class="st7" d="M155.1,152.8l1.4-0.7c0.5-0.5,0.8-1.1,0.9-1.8l-2-0.3l-1.8,1.8C153.6,151.8,154.2,153.1,155.1,152.8z"/>
			<path class="st7" d="M145,125.1l-0.5,1.2c0,0.6,0.5,0.8,1,1.1l2.1-1.5c0,0-0.1-1.8-0.1-1.8S145.4,124.3,145,125.1z"/>
			<path class="st7" d="M146.7,120.1l-0.6,1.2c0,0.6,0.5,0.8,1,1.1l2.1-1.5c0,0-0.1-1.8-0.1-1.8S147.1,119.3,146.7,120.1z"/>
			<path class="st7" d="M168.6,122.9l1.4-0.6c0.5-0.5,0.9-1.1,1.1-1.8l-1.9-0.5c0,0-2,1.6-2,1.6S167.7,123.2,168.6,122.9z"/>
			<path class="st7" d="M117.6,145.8l-0.8,1.2c-0.2,0.6,0.3,0.9,0.7,1.3l2.3-1.3c0,0,0.3-2,0.3-2S118.1,145.1,117.6,145.8z"/>
			<path class="st7" d="M132.4,158.6l1.1,0.3c0.7-0.2,1.4-0.5,2-1.1l-0.3-1.8l-2.2,0.4C132.9,156.4,131.8,158.2,132.4,158.6z"/>
			<path class="st7" d="M169.3,125.6l0.9-1.2c0.2-0.7-0.1-1-0.5-1.4l-2.3,1.1c0,0-0.5,2-0.5,2S168.7,126.3,169.3,125.6z"/>
			<path class="st7" d="M137.7,126.8l-1.4,0.4c-0.6,0.4-1.1,1-1.4,1.7l1.6,0.9l2.2-1.4C138.6,128.3,138.5,126.7,137.7,126.8z"/>
			<path class="st7" d="M114.6,160.8l-0.3,1.2c0.1,0.6,0.7,0.6,1.2,0.9l2-1.7c0,0-0.5-1.7-0.5-1.7S114.9,160,114.6,160.8z"/>
			<path class="st7" d="M161.1,146.8l1.4-0.8c0.5-0.5,0.7-1.1,0.8-1.8l-2.1-0.1l-1.7,1.8C159.4,145.9,160.3,147.1,161.1,146.8z"/>
			<path class="st7" d="M159.5,117.9L159,117c-0.5-0.3-1.2,0-1.9,0.1l-0.9,2.1l1.6,0.8C157.8,120,159.6,118.5,159.5,117.9z"/>
			<path class="st7" d="M130.4,137.9l-1,1.2c-0.3,0.7,0,1,0.3,1.5l2.4-0.9c0,0,0.7-2,0.7-2S131.1,137.2,130.4,137.9z"/>
			<path class="st7" d="M138.6,152l1,0.5c0.7-0.1,1.4-0.4,2-0.9v-1.9l-2.1,0.1C139.5,149.8,138.1,151.6,138.6,152z"/>
			<path class="st7" d="M158.5,127.5l0.5-1.2c0-0.6-0.6-0.7-1.1-1l-2.1,1.6c0,0,0.3,1.8,0.3,1.8S158.1,128.3,158.5,127.5z"/>
			<path class="st7" d="M126.9,142.4l-1.2,1c-0.5,0.6-0.3,1.1-0.2,1.7l2.3-0.4l1.2-2C129.1,142.8,127.7,141.9,126.9,142.4z"/>
			<path class="st7" d="M137.1,156.7l1,0.4c0.7-0.1,1.4-0.5,2-1l-0.2-1.8l-2.2,0.2C137.6,154.5,136.5,156.3,137.1,156.7z"/>
			<path class="st7" d="M153.9,130.8l0.4-1.2c-0.1-0.6-0.6-0.7-1.1-0.9l-2,1.7c0,0,0.3,1.7,0.4,1.7S153.5,131.5,153.9,130.8z"/>
		</g>
	</g>
</g>
</svg>
