<svg xmlns="http://www.w3.org/2000/svg" xmlns:xlink="http://www.w3.org/1999/xlink" viewBox="0 0 252 252"><defs><pattern id="f45bef0e-4748-4c29-b304-a75d755ede97" data-name="Motivo nuevo 2" width="10" height="10" patternTransform="matrix(-0.78, -0.69, -0.67, 0.76, 94.79, -42.85)" patternUnits="userSpaceOnUse" viewBox="0 0 10 10"><rect width="10" height="10" style="fill:none"/><path d="M1.82,10.11l.08.17" style="fill:none;stroke:#758a00;stroke-linecap:round;stroke-miterlimit:10;stroke-width:0.378729px"/><path d="M3.5,10.15l0,0" style="fill:none;stroke:#758a00;stroke-linecap:round;stroke-miterlimit:10;stroke-width:0.378729px"/><path d="M10.14,4.55l0-.09" style="fill:none;stroke:#758a00;stroke-linecap:round;stroke-miterlimit:10;stroke-width:0.378729px"/><path d="M2.94,4.36l.58.21" style="fill:none;stroke:#758a00;stroke-linecap:round;stroke-miterlimit:10;stroke-width:0.378729px"/><path d="M6.69,1.39l0,.29" style="fill:none;stroke:#758a00;stroke-linecap:round;stroke-miterlimit:10;stroke-width:0.378729px"/><path d="M8.72,4.49l0,.08" style="fill:none;stroke:#758a00;stroke-linecap:round;stroke-miterlimit:10;stroke-width:0.378729px"/><path d="M6.41,8,6.25,8" style="fill:none;stroke:#758a00;stroke-linecap:round;stroke-miterlimit:10;stroke-width:0.378729px"/><path d="M2.53,8.66l-.13,0" style="fill:none;stroke:#758a00;stroke-linecap:round;stroke-miterlimit:10;stroke-width:0.378729px"/><path d="M1.36,6.48l-.09-.12" style="fill:none;stroke:#758a00;stroke-linecap:round;stroke-miterlimit:10;stroke-width:0.378729px"/><path d="M.87,1.47.79,1.31" style="fill:none;stroke:#758a00;stroke-linecap:round;stroke-miterlimit:10;stroke-width:0.378729px"/><path d="M3.56,1.8l.08-.12" style="fill:none;stroke:#758a00;stroke-linecap:round;stroke-miterlimit:10;stroke-width:0.378729px"/><path d="M8.43,2.09H8.6" style="fill:none;stroke:#758a00;stroke-linecap:round;stroke-miterlimit:10;stroke-width:0.378729px"/><path d="M8.52,7.71l.08.08" style="fill:none;stroke:#758a00;stroke-linecap:round;stroke-miterlimit:10;stroke-width:0.378729px"/><path d="M8.31,9.49l0,.25" style="fill:none;stroke:#758a00;stroke-linecap:round;stroke-miterlimit:10;stroke-width:0.378729px"/><path d="M5.09,6.76l.08,0" style="fill:none;stroke:#758a00;stroke-linecap:round;stroke-miterlimit:10;stroke-width:0.378729px"/><path d="M5.87,4.74l.09,0" style="fill:none;stroke:#758a00;stroke-linecap:round;stroke-miterlimit:10;stroke-width:0.378729px"/><path d="M1.2,3.83H1" style="fill:none;stroke:#758a00;stroke-linecap:round;stroke-miterlimit:10;stroke-width:0.378729px"/><path d="M.5,8.78.3,9" style="fill:none;stroke:#758a00;stroke-linecap:round;stroke-miterlimit:10;stroke-width:0.378729px"/><path d="M4.39,9.61v.33" style="fill:none;stroke:#758a00;stroke-linecap:round;stroke-miterlimit:10;stroke-width:0.378729px"/><path d="M1.82.11,1.9.28" style="fill:none;stroke:#758a00;stroke-linecap:round;stroke-miterlimit:10;stroke-width:0.378729px"/><path d="M5,3l-.09.17" style="fill:none;stroke:#758a00;stroke-linecap:round;stroke-miterlimit:10;stroke-width:0.378729px"/><path d="M3.31,6.64l.08,0" style="fill:none;stroke:#758a00;stroke-linecap:round;stroke-miterlimit:10;stroke-width:0.378729px"/><path d="M7,6,7,6.06" style="fill:none;stroke:#758a00;stroke-linecap:round;stroke-miterlimit:10;stroke-width:0.378729px"/><path d="M7.15,3.7l.13.13" style="fill:none;stroke:#758a00;stroke-linecap:round;stroke-miterlimit:10;stroke-width:0.378729px"/><path d="M9.13.71v0" style="fill:none;stroke:#758a00;stroke-linecap:round;stroke-miterlimit:10;stroke-width:0.378729px"/><path d="M9.56,2.63v0" style="fill:none;stroke:#758a00;stroke-linecap:round;stroke-miterlimit:10;stroke-width:0.378729px"/><path d="M7.56,5.35s0,0,0,0" style="fill:none;stroke:#758a00;stroke-linecap:round;stroke-miterlimit:10;stroke-width:0.378729px"/><path d="M7.39.79h0" style="fill:none;stroke:#758a00;stroke-linecap:round;stroke-miterlimit:10;stroke-width:0.378729px"/><path d="M9.18,6.34h.08" style="fill:none;stroke:#758a00;stroke-linecap:round;stroke-miterlimit:10;stroke-width:0.378729px"/><path d="M9.6,8h.17" style="fill:none;stroke:#758a00;stroke-linecap:round;stroke-miterlimit:10;stroke-width:0.378729px"/><path d="M5.81,9.62l0,0" style="fill:none;stroke:#758a00;stroke-linecap:round;stroke-miterlimit:10;stroke-width:0.378729px"/><path d="M4.31,8.34h.13" style="fill:none;stroke:#758a00;stroke-linecap:round;stroke-miterlimit:10;stroke-width:0.378729px"/><path d="M2,7.53l0,0" style="fill:none;stroke:#758a00;stroke-linecap:round;stroke-miterlimit:10;stroke-width:0.378729px"/><path d="M.44,5.92l.08,0" style="fill:none;stroke:#758a00;stroke-linecap:round;stroke-miterlimit:10;stroke-width:0.378729px"/><path d="M.14,4.55l0-.09" style="fill:none;stroke:#758a00;stroke-linecap:round;stroke-miterlimit:10;stroke-width:0.378729px"/><path d="M2,5.31H2" style="fill:none;stroke:#758a00;stroke-linecap:round;stroke-miterlimit:10;stroke-width:0.378729px"/><path d="M2,3h.08" style="fill:none;stroke:#758a00;stroke-linecap:round;stroke-miterlimit:10;stroke-width:0.378729px"/><path d="M2.44,1.26l0-.13" style="fill:none;stroke:#758a00;stroke-linecap:round;stroke-miterlimit:10;stroke-width:0.378729px"/><path d="M3.5.15l0,0" style="fill:none;stroke:#758a00;stroke-linecap:round;stroke-miterlimit:10;stroke-width:0.378729px"/><path d="M5,1.69l0-.13" style="fill:none;stroke:#758a00;stroke-linecap:round;stroke-miterlimit:10;stroke-width:0.378729px"/><path d="M3.68,3.14l0,0" style="fill:none;stroke:#758a00;stroke-linecap:round;stroke-miterlimit:10;stroke-width:0.378729px"/><path d="M4.4,5.19h.13" style="fill:none;stroke:#758a00;stroke-linecap:round;stroke-miterlimit:10;stroke-width:0.378729px"/><path d="M6.23,2.76l-.08-.09" style="fill:none;stroke:#758a00;stroke-linecap:round;stroke-miterlimit:10;stroke-width:0.378729px"/><path d="M5.67.92s-.07,0,0,0" style="fill:none;stroke:#758a00;stroke-linecap:round;stroke-miterlimit:10;stroke-width:0.378729px"/><path d="M7.39,7.74l.08,0" style="fill:none;stroke:#758a00;stroke-linecap:round;stroke-miterlimit:10;stroke-width:0.378729px"/><path d="M7.34,9.28l.09.09" style="fill:none;stroke:#758a00;stroke-linecap:round;stroke-miterlimit:10;stroke-width:0.378729px"/><path d="M4.39-.39v.33" style="fill:none;stroke:#758a00;stroke-linecap:round;stroke-miterlimit:10;stroke-width:0.378729px"/></pattern></defs><g id="a8b9425a-d905-462f-a569-c1c73c4d3a23" data-name="Layer 46"><path d="M90.16,190.11c-61.65-75.32-44.47-108.85-33-120.43-31.49,15.94-28.77,58-28.77,58,9.88,54.82,48.8,69.05,59.23,74.2,3.65,1.81,14.34,3.84,26.41,2.13C100.54,201.39,90.16,190.11,90.16,190.11Z" style="fill:#778718"/><path d="M94.08,53.29c-18,2.09-32,14.18-32,14.18-1.1.41-2.15.87-3.17,1.35-3.83,10.09-9.69,35.54,9.55,69.72,24.92,44.26,45.74,62,59.62,61.67,18.2-7.6,34.75-26.68,31.43-70.15C153.12,46,94.08,53.29,94.08,53.29Z" style="fill:#8ba226"/><path d="M68.49,138.54c-19.24-34.18-13.38-59.63-9.55-69.72-.61.28-1.22.56-1.8.86-11.45,11.58-28.63,45.11,33,120.43,0,0,10.38,11.28,23.85,13.92a57.65,57.65,0,0,0,14.1-3.82C114.23,200.49,93.41,182.8,68.49,138.54Z" style="fill:#8ba226"/><path d="M123.79,96.33c13.69,8,14.74-15.87-1.52-22S107.3,86.68,123.79,96.33Z" style="fill:#b8d124;opacity:0.71"/><path d="M96.42,68.61c-7.7.7-1.36,10.53,6.83,8.33S105.7,67.76,96.42,68.61Z" style="fill:#b8d124"/><circle cx="76.43" cy="90.86" r="2.98" style="fill:#516b11;opacity:0.49"/><circle cx="77.22" cy="120.63" r="2.98" style="fill:#516b11;opacity:0.49"/><circle cx="117.32" cy="165.43" r="2.98" style="fill:#516b11;opacity:0.49"/><circle cx="66.85" cy="167.88" r="2.98" style="fill:#516b11;opacity:0.49"/><circle cx="105.06" cy="176.9" r="2.98" style="fill:#516b11;opacity:0.49"/><circle cx="80.51" cy="142.47" r="2.31" style="fill:#516b11;opacity:0.49"/><circle cx="59.81" cy="145.04" r="2.31" style="fill:#516b11;opacity:0.49"/><circle cx="65.57" cy="125.96" r="2.31" style="fill:#516b11;opacity:0.49"/><circle cx="48.96" cy="124.04" r="2.31" style="fill:#516b11;opacity:0.49"/><circle cx="83.96" cy="180.95" r="2.31" style="fill:#516b11;opacity:0.49"/><circle cx="97.19" cy="155.09" r="1.33" style="fill:#516b11;opacity:0.49"/><circle cx="79.69" cy="166.58" r="1.33" style="fill:#516b11;opacity:0.49"/><circle cx="89.03" cy="150.2" r="1.33" style="fill:#516b11;opacity:0.49"/><circle cx="113.46" cy="182.34" r="1.33" style="fill:#516b11;opacity:0.49"/><circle cx="124.47" cy="173.56" r="1.33" style="fill:#516b11;opacity:0.49"/><circle cx="103.43" cy="187.15" r="1.33" style="fill:#516b11;opacity:0.49"/><circle cx="65.85" cy="153.4" r="1.33" style="fill:#516b11;opacity:0.49"/><circle cx="62.77" cy="104.37" r="1.33" style="fill:#516b11;opacity:0.49"/><ellipse cx="65.41" cy="70.1" rx="5.82" ry="3.41" transform="translate(-22.43 31.68) rotate(-23.36)" style="fill:#4a660c"/><path d="M59.62,61.51c1.93,3.15,3.8,10.17,3.8,10.31l.54-.23.75-.35c.25-.12.5-.22.73-.36a14.81,14.81,0,0,0,1.47-1,9.48,9.48,0,0,0,.87-.81,26.77,26.77,0,0,0-3-7.71,40.22,40.22,0,0,0-5.25-7.82,51.62,51.62,0,0,0-7.44-7.27c0-.1.07-.2.1-.3a1.45,1.45,0,0,0-.45-1.61,9.52,9.52,0,0,0-1.72-.79,1.25,1.25,0,0,0-1.68.68A6.31,6.31,0,0,1,46,46.88a1.4,1.4,0,0,0-.36,1.84c.91,2,1.32,1.67,3.09,1.81s5,3.55,6.28,4.93A37.31,37.31,0,0,1,59.62,61.51Z" style="fill:#8c6743"/><path d="M51.24,47.31a51.69,51.69,0,0,1,7.44,7.28,40.91,40.91,0,0,1,5.25,7.81,27.76,27.76,0,0,1,2.92,7.5l.06,0a9.48,9.48,0,0,0,.87-.81,26.77,26.77,0,0,0-3-7.71,40.22,40.22,0,0,0-5.25-7.82,51.62,51.62,0,0,0-7.44-7.27c0-.1.07-.2.1-.3a1.45,1.45,0,0,0-.45-1.61,9.52,9.52,0,0,0-1.72-.79,1.25,1.25,0,0,0-1.68.68l-.18.36a1.36,1.36,0,0,1,1,0,9.17,9.17,0,0,1,1.71.8A1.44,1.44,0,0,1,51.34,47C51.31,47.12,51.27,47.21,51.24,47.31Z" style="fill:#75512e"/><path d="M47.05,48.85a6.26,6.26,0,0,0,2.39-1.78Z" style="fill:#c6a178"/><path d="M47.19,49.42l-.42-.24a.61.61,0,0,0,.58.24A5.24,5.24,0,0,0,50,47.64c.72-.66-.39-1.81-1.1-1.14-.33.32-.64.65-1,1s-.77.48-1.08.81-.23,1.15.35,1.15Z" style="fill:#c6a178"/><path d="M81.6,56.62c21.77-14,59.87,11.23,65.18,27.05,7.67,11.88,6,19.79,9.65,33.15,5.07,18.63,3.75,26.55,1.07,40.94-2.21,11.83-5.73,21.65-13,30.3C142,191,123.87,200,120.41,201.6c-11.12,5-21,3.44-32.16-1a100,100,0,0,1-30-19.06c-5.07-4.24-9.2-7.78-12.62-13.87-15.84-28.17-19-31.58-15.15-60.77C34.87,73.45,72.1,60.92,72.1,60.92" style="opacity:0.5;fill:url(#f45bef0e-4748-4c29-b304-a75d755ede97)"/><path d="M206.66,170.75c30.74-34.14,10.48-67,10.48-67C207.75,88.22,191,80.56,191,80.56c-.84-.84-1.69-1.6-2.55-2.33-.51-.43-1-.87-1.54-1.28-27.59-22-64.73-2-64.73-2-45.73,31.8-42.47,73.11-42.81,84.74-.07,2.29.73,6.62,2.6,11.8C128.32,213.76,185.65,184.22,206.66,170.75Z" style="fill:#778718"/><path d="M81.92,171.49a66.2,66.2,0,0,0,6.46,13.1,57.51,57.51,0,0,0,9.34,11.22c14.49,13.39,38.73,20.49,76.86-.61,14.32-7.93,24.67-16.23,32.08-24.45C185.65,184.22,128.32,213.76,81.92,171.49Z" style="fill:#688419"/><path d="M207.11,101.85c-7.75-13.31-22.33-19.44-22.33-19.44-.71-.7-1.44-1.34-2.17-2-.44-.37-.87-.73-1.31-1.07-23.62-18.36-57.21.6-57.21.6-41.62,29.67-40.24,65.92-41,76.18-.26,3.59,1.66,12.79,7.1,21.59a45.31,45.31,0,0,0,7.85,9.54c12.33,11.26,33.52,16.63,68-3.35C232.87,145.3,207.11,101.85,207.11,101.85Z" style="fill:#f5f7b2"/><circle cx="182.83" cy="100.2" r="3.19" style="fill:#fff;opacity:0.49"/><circle cx="154.2" cy="114.24" r="3.19" style="fill:#fff;opacity:0.49"/><circle cx="128.44" cy="173.27" r="3.19" style="fill:#fff;opacity:0.49"/><circle cx="103.56" cy="125.21" r="3.19" style="fill:#fff;opacity:0.49"/><circle cx="111.8" cy="166.45" r="3.19" style="fill:#fff;opacity:0.49"/><circle cx="134.38" cy="127.19" r="2.48" style="fill:#fff;opacity:0.49"/><circle cx="122.65" cy="108.17" r="2.48" style="fill:#fff;opacity:0.49"/><circle cx="143.81" cy="105.27" r="2.48" style="fill:#fff;opacity:0.49"/><circle cx="138.27" cy="88.24" r="2.48" style="fill:#fff;opacity:0.49"/><circle cx="98.45" cy="147.7" r="2.48" style="fill:#fff;opacity:0.49"/><circle cx="129.53" cy="149.05" r="1.43" style="fill:#fff;opacity:0.49"/><circle cx="110.54" cy="137.13" r="1.43" style="fill:#fff;opacity:0.49"/><circle cx="130.66" cy="138.93" r="1.43" style="fill:#fff;opacity:0.49"/><circle cx="110.25" cy="177.04" r="1.43" style="fill:#fff;opacity:0.49"/><circle cx="123.71" cy="183.86" r="1.43" style="fill:#fff;opacity:0.49"/><circle cx="101.1" cy="169.43" r="1.43" style="fill:#fff;opacity:0.49"/><circle cx="117.21" cy="117.78" r="1.43" style="fill:#fff;opacity:0.49"/><circle cx="163.59" cy="92.91" r="1.43" style="fill:#fff;opacity:0.49"/><path d="M159.78,140.31c4.05-8.42,5-23.2,1.8-27-1.57-1.88-22.61-3.37-32.84,10.14-5.69,7.51-9.14,17.68-5.85,28.06a3.77,3.77,0,0,0,2.59,2.67C139.47,158.88,154.25,151.82,159.78,140.31Z" style="fill:#872823"/><path d="M159.78,140.31c4.87-9.58,8.5-21.87,1.8-27a4.58,4.58,0,0,0-1.74-.73,5.87,5.87,0,0,1,2.22,3.48c.61,6.2-2.26,15.4-5.13,21.35-4.94,10.28-17.69,18-30.23,15.93a6.1,6.1,0,0,1-3.87-2l.06.21a3.72,3.72,0,0,0,2.59,2.67A28.5,28.5,0,0,0,159.78,140.31Z" style="fill:#660c11"/><path d="M149.87,122.23c.89-3.94-1.78-7-5.8-6.29-6,1.13-12,5.38-15.54,9.88a27.37,27.37,0,0,0-6,16.49c-.17,4.57,3.17,6.87,7.36,5.88C138.61,146.14,149.19,125.25,149.87,122.23Z" style="fill:#ffffa7;opacity:0.18"/><path d="M126.77,141.1a4.76,4.76,0,0,0,1.38-1.3,9.46,9.46,0,0,0,1.06-3,11.33,11.33,0,0,1,.76-2.46c.43-.83,1-1.26.82-2.33a1.7,1.7,0,0,0-1.58-1.51c-2,0-2.74,2.29-3.1,4a15.89,15.89,0,0,0-.31,3.65,22.11,22.11,0,0,1,.11,2.42.57.57,0,0,0,.86.52Z" style="fill:#fff;opacity:0.35000000000000003"/><path d="M132.37,129.88a3.71,3.71,0,0,0,1.55-.89,1.23,1.23,0,0,0,0-1.61,1.29,1.29,0,0,0-1.6-.42,2.77,2.77,0,0,0-1.16,1.56,1,1,0,0,0,1.2,1.36Z" style="fill:#fff;opacity:0.35000000000000003"/></g></svg>