<?xml version="1.0" encoding="utf-8"?>
<!-- Generator: Adobe Illustrator 25.0.1, SVG Export Plug-In . SVG Version: 6.00 Build 0)  -->
<svg version="1.1" id="Layer_1" xmlns="http://www.w3.org/2000/svg" xmlns:xlink="http://www.w3.org/1999/xlink" x="0px" y="0px"
	 viewBox="0 0 252 252" style="enable-background:new 0 0 252 252;" xml:space="preserve">
<style type="text/css">
	.st0{fill:#CC212E;}
	.st1{fill:#FFFFFF;}
	.st2{opacity:7.000000e-02;fill:#1D1D1B;enable-background:new    ;}
	.st3{fill:#539E18;}
	.st4{fill:#936037;}
	.st5{fill:#AA1A32;}
	.st6{fill:#FA2215;}
	.st7{fill:#F4804D;}
	.st8{opacity:0.1;fill:#1D1D1B;enable-background:new    ;}
</style>
<g>
	<g id="afe4ce23-92f0-4e6d-a75f-7638f3232bca">
		<g id="bf723e5d-31e2-4b8e-8562-6f61afb2a0e6">
			<path class="st0" d="M154.3,153.4c2.5,30.8-20.2,54.3-44.4,59.5c-31.5,6.8-56-14.8-65.2-39.1c-7.5-19.9-5.7-44.9,18.3-55.4
				c7.7-3.4,16.8-1.8,25.5-3.7c7.7-1.6,18.2-8.6,25.6-8.4C141.3,106.9,152.3,128.9,154.3,153.4z"/>
			<path class="st1" d="M70.8,134.4c-11-11.8-25.1,28.9-9.2,29.3c7.2,0.1,5.6-9.2,6.4-13.6S74.7,138.6,70.8,134.4z"/>
			<path class="st2" d="M114.1,106.3c-6.6-0.2-15.6,5.3-22.9,7.6c4.7,1.9,8.8,5.2,11.6,9.5c10.1,15,16.2,32.3,17.6,50.3
				c1.1,13.9-2.8,26.6-8.7,38.8c23.5-6,45-29,42.6-59.1C152.3,128.9,141.3,106.9,114.1,106.3z"/>
			<path class="st2" d="M114.1,106.3c-4.3-0.1-9.5,2.1-14.7,4.4c8.7,1.2,16.1,5.9,22.4,12.2c12.4,12.8,17.5,29.3,17.3,46.7
				c0.1,10.1-2.1,20.1-6.3,29.3c-0.9,1.9-1.9,3.7-3,5.4c15.3-10.5,26.4-28.8,24.6-50.8C152.3,128.9,141.3,106.9,114.1,106.3z"/>
		</g>
		<g id="ea6e43a7-dc81-45fb-8a72-12ccf33f86fb">
			<path class="st3" d="M170.1,41c-1.5,1.5-3.2,2.7-5.1,3.6c0.3,1.4,0.5,2.8,0.7,4.2c2.2,14.7,2.4,29.7,0.8,44.5
				c-0.4,4.3-1,8.6-1.6,12.9c-0.3,2.1-0.6,4.3-0.8,6.4c-0.3,2.1-0.8,4.8-0.3,7c0.3,1.4,2.1,2.5,3.1,1.1c1-1.6,1.7-3.4,2-5.3
				c0.5-2.1,1-4.3,1.4-6.5c0.8-3.9,1.4-7.8,1.9-11.7c1.1-8,1.7-16.1,1.7-24.1C174,62.2,172.8,51.5,170.1,41z"/>
			<path class="st4" d="M172.7,46.4c-0.3,0-0.5,0.1-0.8,0.2c0.4-0.8,0.7-1.6,1.1-2.3c0.1-0.1,0.2-0.2,0.2-0.3
				c0.6-0.9,0.5-2.1-0.4-2.7c-0.1-0.1-0.1-0.1-0.2-0.1l0.1-0.2c0.6-0.3,1.1-0.9,1.4-1.6c0.3-0.8,0.2-1.7-0.3-2.4
				c-0.5-0.7-1.3-1.1-2.1-1.1c-0.5-0.3-1.2-0.4-1.8-0.3c-1,0.2-2.1,0.6-3,1c-0.5-0.2-1.1-0.2-1.7,0c-1.2,0.5-2.3,1.1-3.4,1.8
				c-2.4,1.6-0.5,5.8,2.3,4.9h0.1c-0.3,0.8-0.5,1.6-0.7,2.4c-0.2,0.9,0.4,1.7,1.2,1.9c0.3,0.1,0.6,0,0.9-0.1l0,0l0.3-0.1
				c-0.5,1-0.6,2.1-0.5,3.1c0,0.4-0.1,0.7-0.1,1.1c-0.1,0.6,0.3,1.3,1,1.4c0.1,0,0.2,0,0.2,0l0,0h0.3c-0.7,2-0.6,4.2,0.1,6.1
				c0.2,0.4,0.7,0.6,1.1,0.4c0.5,0.2,1.1,0.1,1.4-0.3c0.9-1.3,1.5-2.8,1.8-4.4c0.6-1,1.1-2,1.5-3c0.6-0.3,1.2-0.7,1.7-1.2
				C176,49,175.2,46.1,172.7,46.4z"/>
			<path class="st5" d="M204.5,183.4c-12.6,28.2-43.8,37.9-67.5,30.9c-30.9-9.2-42-39.9-38.4-65.6c2.9-21,16.6-42.1,42.6-39.8
				c8.4,0.7,15.6,6.4,24.2,9c7.5,2.2,20.1,1.2,26.5,4.9C215.5,136.3,214.5,160.9,204.5,183.4z"/>
			<path class="st6" d="M201.2,182.2c-11.8,26.4-41.1,35.6-63.3,29c-29-8.6-39.4-37.4-36-61.5c2.8-19.7,15.5-39.5,40-37.4
				c7.9,0.7,14.6,6,22.7,8.4c7.1,2.1,18.8,1.2,24.8,4.6C211.5,138.1,210.6,161.1,201.2,182.2z"/>
			<path class="st2" d="M191.9,122.7c-3.7-2.1-9.4-2.7-15-3.2c7.1,5.2,11.3,12.9,13.8,21.5c4.8,17.2,1.3,34.1-7.3,49.3
				c-4.8,8.9-11.5,16.7-19.6,22.7c-1.7,1.2-3.4,2.3-5.2,3.3c18.5-1.9,37-12.6,46-32.8C214.5,160.9,215.5,136.3,191.9,122.7z"/>
			<path class="st7" d="M169.7,169.8c-4.9,16.5-25.6,25-25.6,25s-12.8-18.4-7.8-34.9c4.9-16.5,25.6-25,25.6-25
				S174.6,153.3,169.7,169.8z"/>
			<path class="st8" d="M161.8,134.9c0,0-0.4,0.2-1.1,0.5c6.4,20.5,1,46.1-17.6,58.1c0.5,0.8,0.8,1.3,0.8,1.3s20.7-8.4,25.6-25
				S161.8,134.9,161.8,134.9z"/>
		</g>
	</g>
</g>
</svg>
