<svg id="a67b7a1c-9d45-4279-b9cf-e73fdc0ab379" data-name="Layer 1" xmlns="http://www.w3.org/2000/svg" viewBox="0 0 252 252"><g style="isolation:isolate"><path d="M101.73,53.68c10.11,0,20.41,3.2,29,7.94,1.87-.85,3.72-1.67,5.5-2.46a40.41,40.41,0,0,1,16.54-3.34c10.13,0,20.46,3.23,29.1,8,24.63,13.58,42.1,40.59,41.52,68.72a48.85,48.85,0,0,1-1,9.51c-.15,1.39-.41,3.33-.37,3.62,0,.87-1.09,3.4-1.11,4.27-.28.73-.58,1.45-.9,2.15,0,.08-.08.15-.11.23-6.17,17.79-25,33.68-41.09,40.42a73.82,73.82,0,0,1-28.4,5.59,75.19,75.19,0,0,1-28.55-5.57,74.91,74.91,0,0,1-22.56,3.44c-15.46,0-30.91-4.66-43.18-13.82C28.69,161.85,18.28,113.46,41.05,86a45.86,45.86,0,0,1,8.38-7.79,37.44,37.44,0,0,1,2.79-2.85l.71-.45c5.16-5.09,7-4.84,8.82-6l-.1.09c7.57-4.85,16.07-8.67,23.57-12a40.58,40.58,0,0,1,16.51-3.32m0-8a48.42,48.42,0,0,0-19.75,4c-6.72,3-15.84,7-24,12.16l-.39.23-.5.22A27.88,27.88,0,0,0,48,68.6h0a8.2,8.2,0,0,0-1.1.84c-.93.84-1.85,1.76-2.8,2.8a54.08,54.08,0,0,0-9.13,8.63c-11.28,13.6-16.15,32.24-13.73,52.5,2.7,22.58,14,43.3,30.23,55.4,13.3,9.94,30.33,15.41,48,15.41a82.86,82.86,0,0,0,22.21-3,84,84,0,0,0,28.9,5.12A82.36,82.36,0,0,0,182,200.1c16.71-7,37.95-23.93,45.39-44.72.38-.82.75-1.7,1.09-2.6a8.23,8.23,0,0,0,.46-1.77c.06-.23.17-.57.25-.82a15.83,15.83,0,0,0,.93-4.26v-.19c0-.33.11-1,.16-1.45s.09-.71.12-1a56.27,56.27,0,0,0,1-10.64,81,81,0,0,0-12.5-44.1,90.27,90.27,0,0,0-33.16-31.72c-10.51-5.78-22.22-9-33-9a48.42,48.42,0,0,0-19.79,4l-2,.9a68.63,68.63,0,0,0-29.26-7.07Z" style="fill:#fff"/></g></svg>