<svg id="a4a68a7f-827e-46a8-a97f-701d1f73ec98" data-name="Layer 1" xmlns="http://www.w3.org/2000/svg" viewBox="0 0 252 252"><path d="M198.21,35.28a10.11,10.11,0,0,1,1.9.18,8.31,8.31,0,0,1,3.88,2A10,10,0,0,1,206.4,41a11.93,11.93,0,0,1,3.48-1.64,13.59,13.59,0,0,1,3.9-.58h.37a11.54,11.54,0,0,1,4.14.92,7.81,7.81,0,0,1,3.33,2.6,6.13,6.13,0,0,1,.9,1.94,7.67,7.67,0,0,1,.16,1.07v.9a18.21,18.21,0,0,1-.54,3.59c-.12.5-.22,1-.29,1.53a2.06,2.06,0,0,0,.09,1.1c.13.47,1.1.67,1.93.7h1.29c.41,0,.83-.07,1.27-.11a10.94,10.94,0,0,1,1.51-.1c.33,0,.66,0,1,0a4.4,4.4,0,0,1,2.17.84,5.62,5.62,0,0,1,1.75,2.63,3.81,3.81,0,0,0,.47,1,1,1,0,0,1-.12,1.34.94.94,0,0,1-.61.22,1,1,0,0,1-.73-.34l-.05-.07a1,1,0,0,1-.18-.78,2,2,0,0,0-.07-.92,4.24,4.24,0,0,0-1.29-2,3.54,3.54,0,0,0-2.17-.55,12.23,12.23,0,0,0-1.53.11c-.39,0-.88.11-1.31.14H223.8a6.81,6.81,0,0,1-1.62-.23,4.18,4.18,0,0,1-.89-.4,2.55,2.55,0,0,1-.74-.86,3.28,3.28,0,0,1-.28-2,14,14,0,0,1,.28-1.7A18.08,18.08,0,0,0,221,46.3v-.87a3,3,0,0,0-.13-.72,4,4,0,0,0-.66-1.37,5.94,5.94,0,0,0-2.62-1.94,10,10,0,0,0-3.5-.7H214a12.3,12.3,0,0,0-3.61.55,10,10,0,0,0-3.27,1.68l-.13.12a10.22,10.22,0,0,1,.2,2.47A5.84,5.84,0,0,1,206.6,48,2.86,2.86,0,0,1,204,49.52h-.56l-.3-.09a1.84,1.84,0,0,1-1-.73,2.36,2.36,0,0,1-.23-1.8,7.37,7.37,0,0,1,1-2.19,12.87,12.87,0,0,1,1.3-1.8l.3-.34a8.33,8.33,0,0,0-2.14-3.36,5.68,5.68,0,0,0-2.78-1.41,7,7,0,0,0-1.2-.11h-.35a4.78,4.78,0,0,0-.75.08,5.36,5.36,0,0,0-.78.15,10.81,10.81,0,0,0-5.08,3,15.52,15.52,0,0,0-3,4.19,12.42,12.42,0,0,0-1.24,3.7c0,.2,0,.41-.06.61,47.23,14.16,57.64,68.76,38,111.82C210.84,192.63,183,216.7,151.68,216.7a64.42,64.42,0,0,1-27.5-6.32c-.85.15-1.71.28-2.58.4a70,70,0,0,1-25.46,5.13h-.37a64.45,64.45,0,0,1-27.17-6.06l.68.32c.75.69,1.56,1.42,2.31,2.06-1.51-.77-2.26-1.17-3.74-2-.78-.61-1.31-1.12-2.16-1.78l-.16-.11c-.9-.47-1.79-1-2.68-1.47h0c-19.78-11.46-34.95-32.72-41.78-57.38-12.67-45.72,8-97.64,54.63-104.28a65.06,65.06,0,0,1,26.19-5.66A63.31,63.31,0,0,1,127.48,45a69.44,69.44,0,0,1,26.2-5.31,61.73,61.73,0,0,1,30.8,8.21A16,16,0,0,1,186,43.87a18.31,18.31,0,0,1,3.65-4.82A13.7,13.7,0,0,1,196,35.53a9.84,9.84,0,0,1,2.23-.25M204,47.41h.09a.81.81,0,0,0,.57-.48,3.67,3.67,0,0,0,.32-1.5v-.1c-.1.15-.2.3-.29.45a6.47,6.47,0,0,0-.69,1.57v.06m-5.83-20.13a18,18,0,0,0-4,.45l-.1,0a21.71,21.71,0,0,0-10,5.54,26.43,26.43,0,0,0-3.36,3.89,69.2,69.2,0,0,0-27-5.45,76.55,76.55,0,0,0-26.09,4.7,70.68,70.68,0,0,0-25.68-4.88,73,73,0,0,0-28.4,5.9C53,40.66,36.07,51.77,24.38,69.62c-14.83,22.68-18.95,53.33-11,82,7.45,26.91,23.85,49.44,45,61.89l.45.28c.73.42,1.5.85,2.34,1.29l.46.39c.36.31.77.66,1.27,1.05a7.86,7.86,0,0,0,1,.68c1.56.87,2.38,1.31,4,2.15a8,8,0,0,0,3.63.87,7.41,7.41,0,0,0,1.24-.1,71.5,71.5,0,0,0,22.94,3.78h.41a77.34,77.34,0,0,0,27.06-5.19,71.91,71.91,0,0,0,28.44,6c16.71,0,33.32-6.11,48-17.66,13.58-10.67,24.89-25.35,32.71-42.47,12.63-27.66,13.54-58.8,2.44-83.28a73.51,73.51,0,0,0-12.12-18.74c.29,0,.57,0,.86.05h1.26c.14.23.28.44.43.65s.26.36.4.53A9,9,0,0,0,240.3,53.51a13.51,13.51,0,0,0-4.05-5.81l-.41-.32a12.46,12.46,0,0,0-5.16-2.23c0-.16,0-.32,0-.48a16.77,16.77,0,0,0-.31-2.11l-.09-.35a13.91,13.91,0,0,0-2.07-4.47l-.12-.17a15.88,15.88,0,0,0-6.68-5.23,19.4,19.4,0,0,0-7-1.54h-.64a21.56,21.56,0,0,0-4.67.52,16.32,16.32,0,0,0-7.34-3.68l-.14,0a17.78,17.78,0,0,0-3.42-.33Z" style="fill:#fff"/></svg>