<?xml version="1.0" encoding="utf-8"?>
<!-- Generator: Adobe Illustrator 24.3.0, SVG Export Plug-In . SVG Version: 6.00 Build 0)  -->
<svg version="1.1" id="Layer_1" xmlns="http://www.w3.org/2000/svg" xmlns:xlink="http://www.w3.org/1999/xlink" x="0px" y="0px"
	 viewBox="0 0 252 252" style="enable-background:new 0 0 252 252;" xml:space="preserve">
<style type="text/css">
	.st0{fill:#6E4B29;}
	.st1{opacity:0.73;}
	.st2{opacity:0.49;fill:#A06C3F;enable-background:new    ;}
	.st3{opacity:0.15;fill:#FFFFFF;enable-background:new    ;}
	.st4{opacity:0.73;fill:#A06C3F;enable-background:new    ;}
	.st5{fill:#56371D;}
	.st6{fill:#C4DD58;}
	.st7{opacity:0.34;fill:#97AA29;enable-background:new    ;}
	.st8{opacity:0.34;fill:#FFFFFF;enable-background:new    ;}
	.st9{opacity:0.17;fill:#97AA29;enable-background:new    ;}
	.st10{fill:#F9F4EF;}
	.st11{opacity:0.96;fill:#FFFFFF;enable-background:new    ;}
	.st12{fill:#443B31;}
</style>
<g id="e42d440c-59b9-4545-8f53-f41a44bd1254">
	<path class="st0" d="M172.4,130.4c0.6-28.1-16.9-55.1-41.5-68.7c-13.5-7.4-31.1-11.1-45.6-4.7c-7.5,3.3-16,7.2-23.6,12l0.1-0.1
		c-1.9,1.2-3.7,0.9-8.8,6l-0.7,0.4c-1,0.9-1.9,1.9-2.8,2.8c-3.1,2.2-5.9,4.9-8.4,7.8c-22.8,27.5-12.4,75.9,15.1,96.4
		c20,14.9,48.5,17.9,71.6,8.2c16.1-6.7,34.9-22.6,41.1-40.4l0.1-0.3c0.3-0.7,0.6-1.4,0.9-2.1c0-0.9,1.1-3.4,1.1-4.3
		c0-0.3,0.2-2.4,0.4-3.8C172,136.6,172.3,133.5,172.4,130.4z"/>
	<g class="st1">
		<circle class="st2" cx="70.9" cy="96.4" r="2.3"/>
		<circle class="st2" cx="63.9" cy="118.8" r="2.3"/>
		<circle class="st2" cx="82.5" cy="162.3" r="2.4"/>
		<circle class="st2" cx="44.3" cy="151.4" r="2.4"/>
		<circle class="st2" cx="70.5" cy="167.7" r="2.4"/>
		<circle class="st2" cx="60.9" cy="135.9" r="1.8"/>
		<circle class="st2" cx="44.8" cy="132.6" r="1.8"/>
		<circle class="st2" cx="53.9" cy="119.8" r="1.8"/>
		<circle class="st2" cx="42" cy="114.2" r="1.8"/>
		<circle class="st2" cx="53.7" cy="165.4" r="1.8"/>
		<circle class="st2" cx="70.1" cy="149.5" r="1.1"/>
		<circle class="st2" cx="54.2" cy="153.6" r="1.1"/>
		<circle class="st2" cx="65.3" cy="143.8" r="1.1"/>
		<circle class="st2" cx="75.4" cy="173.9" r="1.1"/>
		<circle class="st2" cx="85.8" cy="170.1" r="1.1"/>
		<circle class="st2" cx="66.7" cy="175" r="1.1"/>
		<circle class="st2" cx="47.2" cy="140.3" r="1.1"/>
		<circle class="st2" cx="57.3" cy="103" r="1.1"/>
	</g>
	<path class="st3" d="M138.6,126.4c-5.8-15.8-22.1-25.2-31.7-39c-2.6-3.7-4.7-9.1-1.7-12.6c1.6-1.6,3.8-2.6,6.1-2.7
		c6.3-0.6,12.6,1.9,18,5.2c15.1,9,26.3,23.4,31.5,40.2c3.6,12,2.4,28.4-10.5,34.8C138.4,158.4,141.3,133.8,138.6,126.4z"/>
	<path class="st4" d="M82.2,83.1c6.3-1.1,11.2-7.7,6.2-13.9c-2.4-2.8-6.4-3.7-9.7-2c-1.2,0.7-2.2,1.6-3.4,2.3
		c-3.3,1.9-7.5,1.6-10.7,3.6c-2.2,1.4-3.6,3.7-3.8,6.3C60.3,89.9,76.5,84.1,82.2,83.1z"/>
	<path class="st0" d="M82.8,77.4c0.1,2.5-12.3,3.3-12.8,0.9c-0.4-1.8,2.9-3.4,4-4.2c1-0.8,2.1-1.4,3.3-1.8c1.2-0.4,2.6-0.1,3.5,0.8
		c0.8,0.8,0.9,2.1,1.5,3.1C82.5,76.6,82.7,77,82.8,77.4z"/>
	<path class="st5" d="M92.1,88.1c6.8-8.1,16.7-13.1,26.5-17.6c7.6-3.5,15.4-6.9,23.6-8.5c18-3.6,47.5,1.7,58.5,17.8
		c6.8,10.1,11.9,21.1,15.3,32.8c2.9,9.8,7.4,24.1,5.4,34.4c-3.9,19.9-24.8,38.4-42.5,45.8c-23.2,9.7-51.6,6.7-71.6-8.2
		C79.7,164,69.3,115.6,92.1,88.1z"/>
	<path class="st6" d="M98.5,84c-6.9,9.5-8.9,21.8-8,33.5c2.1,25.7,18.7,49.8,42.2,60.5s52.8,7.2,72.9-9.1
		c5.8-4.7,10.8-10.4,13.9-17.2c2.6-6.1,4-12.6,4-19.3c0.6-28.1-16.9-55.1-41.5-68.7c-13.5-7.4-31.1-11.1-45.6-4.6
		C123.2,64.9,107,72.2,98.5,84z"/>
	<path class="st7" d="M137.5,145.5c-0.3-1.9-0.7-3.7-1.3-5.5c-1.3-2.8-3.6-5-6.4-6.3c-2.7-1.4-5.7-2.3-8.5-3.4
		c-1.7-0.6-3.3-1.6-4.6-2.8c-3-3.3-2.2-8.7,0.2-12.4s6.1-6.5,8.9-10c1.9-2.4,3.6-5.2,6.3-6.7c3.8-2.1,9.1-1.1,12.2-4.2
		c1.4-1.4,2-3.4,3.1-5.1c2.1-3.2,6-4.8,9.7-5c3.8,0,7.6,0.9,10.9,2.6c2.8,1.2,5.4,3,7.6,5.2c2.4,2.7,3.9,6.1,5.7,9.3
		c2.3,3.9,5.3,7.3,8.9,10.1c1.4,0.9,2.6,2.1,3.5,3.4c0.9,1.6,1.3,3.4,1.3,5.3c0.3,4.5,0.2,9.3-2.6,12.9c-2.5,3.3-6.8,4.7-9.9,7.5
		c-2.4,2.1-4,5-6.2,7.3c-5.8,6.2-14.1,5.8-21.7,7.9C147,157.7,139.4,153.7,137.5,145.5z"/>
	<path class="st6" d="M139.8,114.6c-0.7-0.3-1.4-0.7-2-1.2c-1.6-1.8,0.5-4.7,2.9-5.1s4.9,0.3,7.1-0.4c3.4-1,5.2-4.7,7.1-7.7
		s5.6-5.9,8.8-4.2c2,1,2.8,3.3,3.6,5.4c1.5,3.8,3.5,7.5,5.9,10.8c2.7,3.6,6.1,7.2,6.4,11.6c0.4,3.9-1.7,7.6-3.7,11
		c-1.1,1.9-2.5,4.1-4.7,4.6c-1.5,0.4-3.1-0.1-4.6-0.1c-4.9,0.1-8.6,5.4-13.4,5.3c-4.4-0.1-7.5-4.4-9.1-8.5
		C142.1,130.1,146,117.8,139.8,114.6z"/>
	<path class="st8" d="M172.3,80c4.6,2.3,8.5,5.9,11.3,10.3c2.6,4.1,4.4,9.1,8.8,11.1c0.5,0.3,1.2,0.4,1.8,0.4c1-0.3,1.8-1.1,2.2-2.1
		c2.2-4.9,1.5-10.7-0.9-15.5S189.1,75.4,185,72s-8.2-6.5-13.2-8c-4.1-1.3-14.8-2.3-15.8,3.7C154.6,75.4,167.5,77.6,172.3,80z"/>
	<path class="st9" d="M169,178.9c-3.5,0.6-7.1,0.6-10.6,0.1c-3.7-0.4-7.2,0.1-10.9-0.9c-3.1-0.9-6.1-2.3-9.2-3.4
		c-2.5-0.9-5.5-2.5-5.3-5.2c0.2-1.9,2.1-3.2,4-3.4c1.9,0,3.8,0.3,5.6,1c4.1,1.2,8.3,1.6,12.5,1.2c7.5-0.7,14.8-4.2,22.2-3.4
		c1.9,0.2,4.2,1.1,4.6,3c0.1,0.9-0.1,1.7-0.4,2.5C179.5,175.3,174.2,177.9,169,178.9z"/>
	<path class="st10" d="M222.1,145.6c-0.1-0.4,0.6-4.6,0.5-5c-0.6,1.9-3,9.2-3.8,10.9c-2.8,6.1-7.4,11.8-13.7,16.9
		c-19.7,16-48.7,19.6-72.2,9c-11.6-5.4-21.6-13.8-28.8-24.4c-7.4-10.5-11.9-22.8-13-35.5c-1-12.9,1.8-24.7,7.9-33.1
		c3.1-4.1,6.8-7.6,11-10.5l-0.2,0.1l3-2.8c-1.9,1.2-3.7,0.9-8.8,6l-0.7,0.4c-2,1.8-3.8,3.8-5.3,6c-6.3,8.7-9.2,20.8-8.1,34
		c1.1,13,5.7,25.5,13.2,36.2c7.4,10.8,17.5,19.3,29.4,24.8c9.1,4.1,19.1,6.2,29.1,6.2c16,0,32.1-5.2,44.5-15.3
		c6.5-5.3,11.2-11.1,14.1-17.4c0.3-0.7,0.6-1.4,0.9-2.1C221,149.1,222.1,146.5,222.1,145.6z"/>
	<path class="st11" d="M139.8,114.6c-0.7-0.3-1.4-0.7-2-1.2c-1.6-1.8,0.5-4.7,2.9-5.1s4.9,0.3,7.1-0.4c3.4-1,5.2-4.7,7.1-7.7
		s5.6-5.9,8.8-4.2c2,1,2.8,3.3,3.6,5.4c1.5,3.8,3.5,7.5,5.9,10.8c2.7,3.6,6.1,7.2,6.4,11.6c0.4,3.9-1.7,7.6-3.7,11
		c-1.1,1.9-2.5,4.1-4.7,4.6c-1.5,0.4-3.1-0.1-4.6-0.1c-4.9,0.1-8.6,5.4-13.4,5.3c-4.4-0.1-7.5-4.4-9.1-8.5
		C142.1,130.1,146,117.8,139.8,114.6z"/>
</g>
<g>
	<path class="st12" d="M134.8,128.5c6.1-1.9-5.4-6.9-4.6-1.3c0.2,0.6,0.7,1.1,1.3,1.2C132.5,128.8,133.7,128.8,134.8,128.5z"/>
	<path class="st12" d="M154.7,88.3L154.7,88.3h0.2H154.7z"/>
	<path class="st12" d="M154.7,88.3c-0.9,0.2-1.3,1.5-1.5,2.4c-0.2,0.8-0.2,1.6,0,2.4c0.2,0.8,0.9,1.4,1.8,1.4c0.9-0.1,1.4-1,1.7-1.8
		c0.3-0.9,0.3-1.8,0-2.7C156.3,89.2,155.6,88.5,154.7,88.3z"/>
	<path class="st12" d="M165.7,88.3h-0.1c0.2-0.2-0.1-0.6-0.4-0.6c-0.3,0.1-0.5,0.4-0.6,0.7c-0.4,0.9-0.4,1.9,0,2.7
		c0.1,0.2,0.2,0.4,0.4,0.4c0.2,0,0.3-0.1,0.4-0.2C166.2,90.6,166.4,89.3,165.7,88.3z"/>
	<path class="st12" d="M183.5,109.4c0.9,0.1,1.8-0.2,2.5-0.8c4-4-7.3-5.6-4.7-0.3C181.8,109,182.6,109.5,183.5,109.4z"/>
	<path class="st12" d="M175.9,101.2c0.7-0.6,1.2-1.4,1.3-2.3c0.1-5.7-9.1,1.1-3.6,3C174.4,102.2,175.3,101.9,175.9,101.2z"/>
	<path class="st12" d="M136.7,105c-0.2-0.9-0.7-1.6-1.4-2.1c-1.2-1-3.6-1.7-3.6,0.3c0,0.2,0,0.3,0,0.5
		C132.1,105.3,137.1,108.5,136.7,105z"/>
	<path class="st12" d="M139.5,144c-0.9-0.6-1.1,0.2-2.2,0.3c-1.2,0-2.4,0.4-3.4,1.1c-0.9,0.7-1.1,2.1-0.4,3c0,0,0.1,0.1,0.1,0.1
		c0.7,0.4,1.6,0.5,2.4,0.3c1.6-0.2,3-1.1,3.8-2.4C140.3,145.6,140.2,144.6,139.5,144z"/>
	<path class="st12" d="M135.3,139.5c0,0.6,0.6,1.1,1.2,1.3c0.7,0.3,1.4,0.4,2.1,0.2c3.5-0.9-0.1-5-2.8-2.4
		C135.5,138.9,135.4,139.2,135.3,139.5z"/>
	<path class="st12" d="M128.1,118.4c0.1-0.6-0.5-1.2-1-1.5c-0.6-0.4-1.3-0.5-2-0.5c-3.6,0.4-0.5,4.9,2.5,2.8
		C127.8,119,128,118.7,128.1,118.4z"/>
	<path class="st12" d="M148,101.8c0.5-0.4,0.4-1.2,0.1-1.8c-0.2-0.7-0.7-1.3-1.3-1.7c-3.1-1.9-3.5,3.5,0.2,3.7
		C147.4,102.1,147.8,102,148,101.8z"/>
	<path class="st12" d="M156.5,151.7c-0.6,0-1,0.7-1.2,1.3c-0.2,0.7-0.3,1.4-0.1,2.1c1.1,3.5,4.9-0.5,2.2-3
		C157.2,151.9,156.9,151.7,156.5,151.7z"/>
	<path class="st12" d="M146,149.7c0.2,0,0.3-0.2,0.4-0.4C146.2,149.6,145.7,149.9,146,149.7z"/>
	<path class="st12" d="M146.4,149.1C146.4,148.9,146.2,148.8,146.4,149.1z"/>
	<path class="st12" d="M146.4,149.1c0,0,0,0.1,0,0.1l0,0V149.1z"/>
	<path class="st12" d="M146.4,149.3L146.4,149.3c0,0.2-0.2,0.3-0.4,0.4C145.8,149.8,146.2,149.5,146.4,149.3c0,0,0-0.1,0-0.1
		c-1.1,0.8-1.8,2-2,3.4c-0.1,0.7,0,1.4,0.3,2c0.4,0.6,1,1,1.8,0.9c0.8-0.3,1.5-0.9,1.7-1.8c0.3-0.9,0.4-1.8,0.2-2.7
		C148,150.1,147.3,149.4,146.4,149.3z"/>
	<path class="st12" d="M166.4,147.4c-1,0.9-0.6,3.8-0.3,4.9c0.4,1.2,1.4,2.6,2.7,2.4c0.7-0.2,1.3-0.7,1.6-1.4
		C171.6,151.2,169.2,144.8,166.4,147.4z"/>
	<path class="st12" d="M174.8,146.6c-0.6-0.4-1.3-0.5-1.9-0.1c-1.6,1.1,0.2,3.6,1.4,4.3c0.7,0.5,1.6,0.5,2.3,0
		C177.7,149.7,176.3,147.5,174.8,146.6z"/>
	<path class="st12" d="M188.4,145.4c0.3,0.2,0.7,0.2,1.1,0.2l0.2-0.1c0.6-0.3,0.9-1,0.8-1.6C190.1,141.4,184.6,143.9,188.4,145.4z"
		/>
	<path class="st12" d="M128,136.1c-0.4,0-0.8,0-1.1,0.2l-0.2,0.1c-0.4,0.5-0.5,1.2-0.1,1.8C127.9,140.4,132.1,136.1,128,136.1z"/>
	<path class="st12" d="M181.6,135.2c-0.2,0.2-0.4,0.5-0.4,0.8c-0.9,2.3,3.3,5.5,4.7,3S183.2,133.5,181.6,135.2z"/>
	<path class="st12" d="M187.1,129.8c0.3,0.4,0.6,0.7,1,0.8c0.5,0.2,1.1,0.4,1.7,0.5c1.5,0.3,3.4,0.3,3.9-1.1
		C195.1,126.6,184.6,125.7,187.1,129.8z"/>
	<path class="st12" d="M182.5,120.6C182.5,120.6,182.5,120.6,182.5,120.6c1.4,4.5,8.3-1.3,4.1-2.3
		C185,117.8,181.9,118.6,182.5,120.6z"/>
</g>
</svg>
