<svg id="b81b10cf-d629-48ed-9d27-13a68a3f1042" data-name="Layer 1" xmlns="http://www.w3.org/2000/svg" viewBox="0 0 252 252"><path d="M108.94,57.73h0c.72,0,1.44,0,2.16,0l.63,0,1.58.09.8.06,1.72.17.86.1c.55.06,1.1.13,1.64.21l.92.13,1.33.22.86.15c.66.11,1.32.24,2,.37l.8.17,1.41.32c.26.06.52.11.77.18q1,.24,2.07.51a111,111,0,0,1,11.88,3.82c7.06-3.52,14.64-5.88,22.12-5.88a31.28,31.28,0,0,1,19,6.23c2.21,1.63,4.26,3.56,6.78,4.65,2.33,1,4.92,1.25,7.39,1.82,10.44,2.43,18.57,11,23.07,20.86,4.39,9.54,5.82,20.1,6.84,30.53a10.54,10.54,0,0,0,.11,1.13c1.65,17.46-1.67,32.9-12.23,47.51a56.46,56.46,0,0,1-41.39,23q-1.77.09-3.54.09A72.43,72.43,0,0,1,153,192.55a97.35,97.35,0,0,1-13.88-3.91,72.4,72.4,0,0,1-8,3c-1.16.34-2.32.64-3.5.9l.28-.12a56.71,56.71,0,0,1-43.78-8.27c-15-10.15-23.46-23.58-27.91-40.63-.1-.37-.2-.74-.29-1.11-2.64-10.2-4.9-20.66-4.1-31.09.86-10.81,5.59-21.75,14.59-27.64a63.58,63.58,0,0,0,5.6-3.6,60.79,60.79,0,0,0-15.07-9.34,35.55,35.55,0,0,0-14-3.27,29.08,29.08,0,0,0-12.28,2.88l-.68.31a5.15,5.15,0,0,1-1.57.46,2.19,2.19,0,0,1-.36,0,2.26,2.26,0,0,1-1.74-.82A2.57,2.57,0,0,1,26,68.91c-.18-5.27,3.94-5.86,8-5.86,1.16,0,2.32.05,3.37.05h1.72c6.15,0,12.24,1.8,17.94,4.1A64.49,64.49,0,0,1,74.3,77.65c1.19-1.56,2.14-3.31,3.24-5A31.29,31.29,0,0,1,90.13,61.6h0a34.69,34.69,0,0,1,4.29-1.74l.15,0c.72-.24,1.45-.45,2.19-.65h0c.76-.2,1.52-.37,2.3-.53h.09c.7-.14,1.4-.26,2.12-.36l.34,0c1.47-.21,3-.34,4.47-.42l.54,0,1.8,0h.48m0-8h-.57c-.68,0-1.36,0-2.05.05h-.11l-.5,0c-1.76.09-3.5.25-5.19.48l-.32,0h-.09c-.86.13-1.69.27-2.48.43l-.11,0c-.93.18-1.86.39-2.76.63h-.05c-.85.22-1.73.48-2.61.77l-.18,0a44.62,44.62,0,0,0-5.19,2.09l-.14.07-.13.07A39,39,0,0,0,72.32,66.22,72.37,72.37,0,0,0,60,59.77c-8-3.21-14.6-4.69-21-4.69H37.34l-1.43,0c-.64,0-1.29,0-1.94,0h0c-2.52,0-8.37,0-12.46,4.24A13,13,0,0,0,18,69a10.51,10.51,0,0,0,1.51,5.49,7.23,7.23,0,0,0,.69,1,10.2,10.2,0,0,0,7.91,3.73,10.67,10.67,0,0,0,1.49-.11,13.21,13.21,0,0,0,3.8-1.12l.64-.29a21.14,21.14,0,0,1,9-2.16,27.9,27.9,0,0,1,10.82,2.63q2.11.92,4.16,2c-8,7.12-13.13,18.18-14.11,30.57-.93,12.08,1.73,23.71,4.31,33.67.1.41.21.81.32,1.22,5.15,19.72,15.35,34.5,31.16,45.2a64.48,64.48,0,0,0,36,11,65.38,65.38,0,0,0,12.56-1.23,8.37,8.37,0,0,0,1.1-.17c1.34-.29,2.66-.63,4-1l.11,0c2-.6,3.95-1.31,5.91-2.09a107.44,107.44,0,0,0,11.94,3.18,80.8,80.8,0,0,0,17.19,1.86c1.31,0,2.63,0,3.93-.1h.2a64.36,64.36,0,0,0,47.26-26.26c11.16-15.44,15.65-32.76,13.73-53a.41.41,0,0,0,0-.11c0-.17,0-.33-.06-.5v-.06a3.91,3.91,0,0,0,0-.49c-1-10.27-2.5-22.15-7.53-33.09-6.06-13.27-16.46-22.5-28.53-25.31-.91-.21-1.75-.37-2.57-.53a18.69,18.69,0,0,1-3.47-.85,18.52,18.52,0,0,1-3.28-2.27c-.61-.48-1.23-1-1.91-1.47a39.2,39.2,0,0,0-23.75-7.79A55.64,55.64,0,0,0,140,55.64c-3.07-1.08-6.24-2-9.47-2.9l-2.24-.56-.77-.18h-.07l-1.53-.34-.22,0-.65-.13c-.71-.15-1.43-.29-2.15-.42l-.7-.12-.24,0-1.46-.23c-.34-.06-.67-.11-1-.15-.6-.09-1.21-.17-1.81-.24l-1-.11L114.78,50l-.9-.07-1.76-.1h-.2l-.52,0c-.8,0-1.62-.05-2.43-.05Z" style="fill:#fff"/></svg>