<svg xmlns="http://www.w3.org/2000/svg" viewBox="0 0 252 252"><g id="e372d2d7-f38a-4ecb-87fc-cf0843af2d2a" data-name="Layer 14"><path d="M167.23,161.5c-.47-.44-1.49-.66-1.53,0l-11.8,12.9a22.29,22.29,0,0,0,9.84,7.17.7.7,0,0,0,.45,0c.28-.1.31-.47.3-.77-.07-1.59-.08-3.18,0-4.77,1.13.31,2.26.61,3.4.9-.08-1.25-.22-2.5-.4-3.74a18.21,18.21,0,0,1,5.8.23A19.89,19.89,0,0,0,167.23,161.5Z" style="fill:#754c24"/><path d="M30,70.67l.68-.31c9.3-4.24,17-3.52,26.24.39A61,61,0,0,1,80.53,88.84c1.35,1.69,3.83-.57,2.48-2.25A64.49,64.49,0,0,0,57,67.18c-6-2.42-12.42-4.29-18.9-4.09-4.72.14-12.38-1.33-12.14,5.82a2.61,2.61,0,0,0,.37,1.43,2.25,2.25,0,0,0,2.1.79A5.2,5.2,0,0,0,30,70.67Z" style="fill:#a1a614"/><path d="M55.9,142.42c.09.37.19.74.29,1.11,4.45,17.05,12.9,30.48,27.91,40.63a56.67,56.67,0,0,0,47,7.46,72.31,72.31,0,0,0,17.46-8.08c12.46-7.67,23.44-18,30.42-30.92s9.73-28.37,6.1-42.73c-3.21-12.72-11.24-24-21.45-32.32S141.14,63.8,128.47,60.48c-18.09-4.73-39.6-4.94-50.93,12.21C76,75,74.75,77.52,72.75,79.43c-1.86,1.76-4.22,2.87-6.36,4.26-9,5.89-13.73,16.83-14.59,27.64C51,121.76,53.26,132.22,55.9,142.42Z" style="fill:#84bb01"/><path d="M163.63,77.57c-10.2-8.31-22.49-13.77-35.16-17.09s-27-4.4-38.34,1.12c9.24-1.68,19.42-.45,28.7,2,12.67,3.32,25,8.78,35.16,17.09s18.24,19.6,21.45,32.32c3.63,14.36.88,29.85-6.1,42.73s-18,23.25-30.43,30.93a83.07,83.07,0,0,1-11.31,5.88c1.18-.26,2.34-.56,3.5-.9a72.31,72.31,0,0,0,17.46-8.08c12.46-7.67,23.44-18,30.42-30.92s9.73-28.37,6.1-42.73C181.87,97.17,173.84,85.88,163.63,77.57Z" style="fill:#bbf41e;opacity:0.23"/><g style="opacity:0.6000000000000001"><path d="M139.8,163.22l.25.28a1.76,1.76,0,0,0,1.16.54,1.69,1.69,0,0,0,1.21-.43,1.71,1.71,0,0,0,.11-2.37l-.25-.27a1.67,1.67,0,1,0-2.48,2.25Z" style="fill:#fff"/><path d="M158.61,140.53l0,.53a1.73,1.73,0,0,0,.43,1.21,1.77,1.77,0,0,0,1.16.55,1.72,1.72,0,0,0,1.76-1.6l0-.52a1.69,1.69,0,0,0-.43-1.21,1.66,1.66,0,0,0-1.16-.55,1.7,1.7,0,0,0-1.75,1.59Z" style="fill:#fff"/><path d="M132.55,144.15l.25.27a1.68,1.68,0,0,0,2.49-2.25l-.26-.28a1.69,1.69,0,0,0-1.16-.54,1.65,1.65,0,0,0-1.2.43,1.71,1.71,0,0,0-.12,2.37Z" style="fill:#fff"/><path d="M163.46,121.39l.27-.25a1.68,1.68,0,0,0,.12-2.37,1.7,1.7,0,0,0-2.37-.11l-.28.25a1.73,1.73,0,0,0-.54,1.16,1.65,1.65,0,0,0,.43,1.2,1.71,1.71,0,0,0,2.37.12Z" style="fill:#fff"/><path d="M149.75,148.41l.27-.25a1.67,1.67,0,1,0-2.25-2.48l-.27.25a1.72,1.72,0,0,0-.55,1.16,1.68,1.68,0,0,0,2.8,1.32Z" style="fill:#fff"/><path d="M145,116.27l.5.55a1.68,1.68,0,1,0,2.49-2.25l-.5-.55a1.68,1.68,0,1,0-2.49,2.25Z" style="fill:#fff"/><path d="M160.94,156.87a1.68,1.68,0,0,0-2.25-2.49,1.68,1.68,0,0,0,2.25,2.49Z" style="fill:#fff"/><path d="M161.45,97.56a1.68,1.68,0,0,0-2.25-2.49,1.68,1.68,0,0,0,2.25,2.49Z" style="fill:#fff"/><path d="M139.72,94.39l.25.28a1.71,1.71,0,0,0,1.16.54,1.69,1.69,0,0,0,1.21-.43,1.71,1.71,0,0,0,.11-2.37l-.25-.27a1.67,1.67,0,1,0-2.48,2.25Z" style="fill:#fff"/><path d="M132,106.41l-.25-.28a1.76,1.76,0,0,0-1.16-.54,1.65,1.65,0,0,0-1.2.43,1.71,1.71,0,0,0-.12,2.37l.25.27a1.67,1.67,0,1,0,2.48-2.25Z" style="fill:#fff"/><path d="M123.51,80.68a1.68,1.68,0,0,0-2.25-2.48,1.68,1.68,0,0,0,2.25,2.48Z" style="fill:#fff"/></g><path d="M68.17,142.78A41.13,41.13,0,0,1,63,110.43c.54-2.08-2.65-3.1-3.2-1a44.41,44.41,0,0,0,5.37,34.87c1.15,1.8,4.15.31,3-1.51Z" style="fill:#fff"/><path d="M64.87,104.46l-.51-.55a1.7,1.7,0,0,0-1.16-.55,1.66,1.66,0,0,0-1.2.44,1.69,1.69,0,0,0-.12,2.36l.5.56a1.76,1.76,0,0,0,1.16.54,1.69,1.69,0,0,0,1.21-.43,1.71,1.71,0,0,0,.12-2.37Z" style="fill:#fff"/><path d="M225.55,122.51c0,.38.07.76.11,1.13,1.65,17.46-1.67,32.9-12.23,47.51a56.44,56.44,0,0,1-41.39,23,72.34,72.34,0,0,1-19.07-1.6c-14.26-2.92-28.07-8.87-39-18.52S95.21,150.85,93.7,136.18c-1.34-13,2.32-26.28,9-37.53s16.33-20.54,27-28c15.29-10.59,35.33-18.13,51.77-6,2.21,1.63,4.26,3.56,6.78,4.65,2.33,1,4.92,1.25,7.39,1.82,10.44,2.43,18.57,11,23.07,20.86C223.1,101.52,224.53,112.08,225.55,122.51Z" style="fill:#7da000"/><path d="M219.65,122.92c0,.34.07.68.1,1,1.51,15.84-1.5,29.85-11.09,43.1a51.18,51.18,0,0,1-37.55,20.88,65.75,65.75,0,0,1-17.3-1.45c-12.94-2.65-25.47-8.05-35.38-16.81s-17-21-18.4-34.34c-1.21-11.78,2.11-23.84,8.19-34S123,82.63,132.75,75.9c13.87-9.61,32.05-16.45,47-5.41,2,1.48,3.86,3.23,6.15,4.22,2.11.92,4.46,1.13,6.71,1.65,9.46,2.2,16.85,10,20.92,18.92C217.44,103.87,218.73,113.45,219.65,122.92Z" style="fill:#ff9f96"/><path d="M189.79,125c0,.17,0,.34,0,.5.74,7.71-.73,14.53-5.39,21a24.92,24.92,0,0,1-18.27,10.16,32.15,32.15,0,0,1-8.42-.7,37.18,37.18,0,0,1-17.22-8.18A26.36,26.36,0,0,1,131.58,131a27.35,27.35,0,0,1,4-16.57A40.65,40.65,0,0,1,147.5,102.1c6.75-4.67,15.6-8,22.86-2.63a16.06,16.06,0,0,0,3,2.06,18,18,0,0,0,3.26.8c4.61,1.07,8.2,4.88,10.18,9.21C188.71,115.72,189.34,120.38,189.79,125Z" style="fill:#f06c62"/><path d="M167.35,108.1c-3-1.22-1.1-5.85,1.89-4.64s1.1,5.85-1.89,4.64Z" style="fill:#f7c859"/><path d="M162.22,103c-3-1.22-1.1-5.85,1.89-4.64s1.1,5.85-1.89,4.64Z" style="fill:#f7c859"/><path d="M156.93,100.06l-.72.3a2.6,2.6,0,0,1-1.92,0A2.57,2.57,0,0,1,152.93,99a2.48,2.48,0,0,1,0-1.91,2.64,2.64,0,0,1,1.34-1.37l.73-.3a2.53,2.53,0,0,1,1.91,0,2.49,2.49,0,0,1,1.38,3.26,2.64,2.64,0,0,1-1.35,1.36Z" style="fill:#f7c859"/><path d="M146.11,104.25c-3-1.22-1.1-5.85,1.89-4.64s1.1,5.85-1.89,4.64Z" style="fill:#f7c859"/><path d="M139.34,113.5c-3-1.22-1.1-5.85,1.89-4.64s1.1,5.85-1.89,4.64Z" style="fill:#f7c859"/><path d="M135.45,124.52c-3-1.22-1.1-5.85,1.89-4.64s1.1,5.85-1.89,4.64Z" style="fill:#f7c859"/><path d="M134.43,140.31l-.21.51a2.64,2.64,0,0,1-1.35,1.36,2.55,2.55,0,0,1-1.92,0,2.58,2.58,0,0,1-1.36-1.34,2.65,2.65,0,0,1,0-1.92l.21-.51a2.57,2.57,0,0,1,1.35-1.36,2.48,2.48,0,0,1,1.91,0,2.51,2.51,0,0,1,1.36,1.34,2.6,2.6,0,0,1,0,1.92Z" style="fill:#f7c859"/><path d="M134.8,146.76l.21-.51a2.57,2.57,0,0,1,1.34-1.37,2.6,2.6,0,0,1,1.92,0,2.5,2.5,0,0,1,1.36,1.35,2.57,2.57,0,0,1,0,1.91l-.21.52a2.58,2.58,0,0,1-1.34,1.36,2.55,2.55,0,0,1-1.92,0,2.51,2.51,0,0,1-1.36-1.34,2.6,2.6,0,0,1,0-1.92Z" style="fill:#f7c859"/><path d="M145.41,150.18c-3-1.21-1.1-5.85,1.89-4.63s1.1,5.85-1.89,4.63Z" style="fill:#f7c859"/><path d="M153.14,143.73c-3-1.22-1.1-5.85,1.89-4.64s1.1,5.85-1.89,4.64Z" style="fill:#f7c859"/><path d="M155.56,152.52l-.51-.21a2.57,2.57,0,0,1-1.36-1.35,2.48,2.48,0,0,1,0-1.91,2.51,2.51,0,0,1,1.34-1.36,2.6,2.6,0,0,1,1.92,0l.51.21a2.64,2.64,0,0,1,1.36,1.35,2.53,2.53,0,0,1,0,1.91,2.57,2.57,0,0,1-1.34,1.37,2.65,2.65,0,0,1-1.92,0Z" style="fill:#f7c859"/><path d="M160,158.53c-3-1.21-1.1-5.85,1.88-4.63s1.1,5.85-1.88,4.63Z" style="fill:#f7c859"/><path d="M169.21,158.08c-3-1.22-1.1-5.86,1.88-4.64s1.1,5.85-1.88,4.64Z" style="fill:#f7c859"/><path d="M176.28,148.54l.73-.3a2.5,2.5,0,0,1,3.28,3.25,2.58,2.58,0,0,1-1.34,1.36l-.73.3a2.5,2.5,0,0,1-3.28-3.25,2.58,2.58,0,0,1,1.34-1.36Z" style="fill:#f7c859"/><path d="M181.93,145.25c-3-1.21-1.1-5.85,1.89-4.63s1.1,5.85-1.89,4.63Z" style="fill:#f7c859"/><path d="M183.79,137l-.51-.21a2.51,2.51,0,0,1-1.36-1.34,2.55,2.55,0,0,1,0-1.92,2.6,2.6,0,0,1,1.35-1.36,2.57,2.57,0,0,1,1.91,0l.52.21a2.57,2.57,0,0,1,1.36,1.35,2.5,2.5,0,0,1-1.33,3.27,2.6,2.6,0,0,1-1.92,0Z" style="fill:#f7c859"/><path d="M186.65,125.56c-3-1.21-1.1-5.85,1.89-4.63s1.1,5.85-1.89,4.63Z" style="fill:#f7c859"/><path d="M185.78,115.9l-.51-.21a2.55,2.55,0,0,1-1.36-1.34,2.51,2.51,0,0,1,0-1.92,2.55,2.55,0,0,1,1.34-1.36,2.65,2.65,0,0,1,1.92,0l.51.21a2.6,2.6,0,0,1,1.36,1.35,2.5,2.5,0,0,1-1.33,3.27,2.6,2.6,0,0,1-1.92,0Z" style="fill:#f7c859"/><path d="M180.85,108.6c-.11-.24-.21-.48-.31-.72a2.6,2.6,0,0,1,0-1.92,2.53,2.53,0,0,1,1.35-1.36,2.48,2.48,0,0,1,1.91,0,2.62,2.62,0,0,1,1.36,1.34c.1.25.21.49.31.73a2.57,2.57,0,0,1,0,1.91,2.5,2.5,0,0,1-1.35,1.36,2.53,2.53,0,0,1-1.91,0,2.6,2.6,0,0,1-1.36-1.35Z" style="fill:#f7c859"/><path d="M175.46,108.1l-.52-.21a2.6,2.6,0,0,1-1.36-1.35,2.51,2.51,0,0,1,1.34-3.28,2.62,2.62,0,0,1,1.91,0l.51.21a2.62,2.62,0,0,1,1.37,1.35,2.51,2.51,0,0,1-1.34,3.28,2.62,2.62,0,0,1-1.91,0Z" style="fill:#f7c859"/><path d="M163.82,112.36l.1-.26a2.6,2.6,0,0,1,1.35-1.36,2.5,2.5,0,0,1,3.27,1.33,2.6,2.6,0,0,1,0,1.92l-.11.26a2.57,2.57,0,0,1-1.35,1.36,2.53,2.53,0,0,1-1.91,0,2.5,2.5,0,0,1-1.36-1.35,2.57,2.57,0,0,1,0-1.91Z" style="fill:#f7c859"/><path d="M130.62,129.75l.21-.51a2.5,2.5,0,0,1,1.35-1.36,2.53,2.53,0,0,1,1.91,0,2.5,2.5,0,0,1,1.36,1.35,2.57,2.57,0,0,1,0,1.91l-.21.52a2.58,2.58,0,0,1-1.34,1.36,2.55,2.55,0,0,1-1.92,0,2.51,2.51,0,0,1-1.36-1.34,2.6,2.6,0,0,1,0-1.92Z" style="fill:#f7c859"/></g></svg>