<svg xmlns="http://www.w3.org/2000/svg" viewBox="0 0 252 252"><defs><style>.cls-1{fill:#99123a;}.cls-2{fill:#db4b5f;}.cls-3{fill:#eb5867;}.cls-4{fill:#872823;}.cls-5{fill:#660c11;}.cls-6{fill:#ffffa7;opacity:0.18;}.cls-7{fill:#fff;opacity:0.35;}.cls-8{fill:#cd1948;}.cls-9{fill:#ad1544;}.cls-10{fill:#b61643;}.cls-11{fill:#660c21;}.cls-12{fill:#8c6743;}.cls-13{fill:#75512e;}.cls-14{fill:#c6a178;}.cls-15{fill:#ba936c;}.cls-16{fill:#82bb1a;}.cls-17{fill:#cce95f;}.cls-18,.cls-25{fill:#fcfbc2;}.cls-19{fill:none;}.cls-20{fill:#c7e51e;}.cls-21{fill:#b3dc10;}.cls-22{fill:#d8ed28;}.cls-23{fill:#eef86d;}.cls-24{fill:#ffffab;}.cls-25,.cls-26{fill-rule:evenodd;}.cls-26{fill:#fffee9;}</style></defs><g id="Layer_48" data-name="Layer 48"><path class="cls-1" d="M176.24,186.35a52.68,52.68,0,0,0-4.57-22.79c-3.3-7-8.42-14.46-15.28-19.22a25.65,25.65,0,0,0-18.09-4.92l-.77.08a46.3,46.3,0,0,0-13.66-2.64,41,41,0,0,0-8.29.74c-1.76.26-3.53.53-5.33.64s-3.41,0-5.11,0A29.4,29.4,0,0,0,89.77,142c-11.19,6.34-16.7,23.75-17.26,37.43-.65,15.85,2,31.31,13.63,41.9,10.75,9.83,26.23,14,40.26,12.34,5.32.52,11.56.12,18.88-.87,9.79-1.31,17.17-8.32,22-15.42,5-7.39,8-17,8.78-26.77C176.16,189.19,176.23,187.77,176.24,186.35Z"/><path class="cls-2" d="M80.65,158.7a63.57,63.57,0,0,0-4.48,21.16c-.55,14.72,1.75,29.08,11.72,38.93a42.21,42.21,0,0,0,34.62,11.46,67.39,67.39,0,0,0,16.24-.8,20.13,20.13,0,0,0,4.93-1.4C86.81,224.38,80.28,180.73,80.65,158.7Z"/><path class="cls-3" d="M161.44,165.11c-2.83-6.52-7.24-13.43-13.14-17.86a20.88,20.88,0,0,0-15.55-4.57l-.67.08a36.9,36.9,0,0,0-11.74-2.46,32.72,32.72,0,0,0-7.13.69c-1.51.24-3,.49-4.58.59s-2.93,0-4.4,0A23.71,23.71,0,0,0,91,145.08c-4.5,2.76-7.93,7.77-10.36,13.62-.37,22,6.16,65.68,63,69.35,6-2.52,10.69-7.69,14-12.93,4.32-6.87,6.91-15.79,7.55-24.87.1-1.32.15-2.64.17-4A52.38,52.38,0,0,0,161.44,165.11Z"/><path class="cls-4" d="M126.6,179.91c-1.77-4.6-7.1-10.34-9.74-10.49-1.29-.07-9.49,7.47-8,16.29.82,4.91,3.48,9.92,8.66,12.41a2,2,0,0,0,2,0A15,15,0,0,0,126.6,179.91Z"/><path class="cls-5" d="M126.6,179.91c-1.77-4.6-7.1-10.34-9.74-10.49a1.87,1.87,0,0,0-.91.41c2.81,1.36,7,6.15,8.49,10.11a15,15,0,0,1-7,18.13l.1.05a2,2,0,0,0,2,0A15,15,0,0,0,126.6,179.91Z"/><path class="cls-6" d="M116.06,177.17a2.57,2.57,0,0,0-4.52,0,14.88,14.88,0,0,0-1.83,9.55,14.44,14.44,0,0,0,4.17,8.26c1.7,1.72,3.79,1.27,4.93-.7C121.17,190.16,117,178.52,116.06,177.17Z"/><path class="cls-7" d="M114.94,192.87a2.41,2.41,0,0,0,0-1,5.11,5.11,0,0,0-.75-1.47,5.72,5.72,0,0,1-.66-1.18c-.17-.47-.14-.84-.6-1.16a.91.91,0,0,0-1.16.06c-.72.76-.11,1.88.4,2.62a8.82,8.82,0,0,0,1.29,1.45,11.14,11.14,0,0,1,1,.83.3.3,0,0,0,.51-.15Z"/><path class="cls-7" d="M112.66,186.66a1.94,1.94,0,0,0,.22-.91.65.65,0,0,0-.62-.59.69.69,0,0,0-.74.46,1.49,1.49,0,0,0,.18,1,.53.53,0,0,0,.47.3.51.51,0,0,0,.49-.27Z"/><path class="cls-8" d="M170.46,172.21c-.74,1-.29,2.54-.19,3.73.06.83.11,1.67.16,2.51.09,1.65.11,3.32.08,5a71.83,71.83,0,0,1-.77,9.26,1.3,1.3,0,1,0,2.57.4,63.22,63.22,0,0,0,.71-9.72c0-1.82-.07-3.64-.25-5.45-.11-1-.24-2.07-.42-3.08s-.26-2.22-1.13-2.74a.6.6,0,0,0-.76.11Z"/><path class="cls-8" d="M170.31,198.35a11.45,11.45,0,0,0-1.57,3.24c-.39,1-.76,2.11-1.18,3.14a34.07,34.07,0,0,1-1.45,3.2c-.46.88-1.35,1.78-1,2.84a.9.9,0,0,0,.86.63c1.31.06,2.17-2.37,2.61-3.34s.85-2.08,1.25-3.14c.7-1.89,1.64-4.07,1.55-6.14a.64.64,0,0,0-1.12-.43Z"/></g><g id="Layer_47" data-name="Layer 47"><path class="cls-9" d="M147.15,169.22c.34-3.11.61-6.24.84-9.4.4-5.75.41-13.31-5.28-17.53-5.13-3.8-12.52-5-18.84-5.43a41,41,0,0,0-8.29.74c-1.76.26-3.53.53-5.33.64s-3.41,0-5.11,0A29.31,29.31,0,0,0,89.77,142c-11.19,6.34-16.7,23.75-17.26,37.43-.65,15.85,2,31.31,13.63,41.9,12.28,11.23,30.73,15.11,46.14,11.26C141.26,230.34,145.36,185.59,147.15,169.22Z"/><path class="cls-1" d="M146.15,162.29c-.68-2.38-1.45-4.72-2.29-7-.72-2-1.53-4-2.11-6s-23.27-3.58-25.36-3.38c-16.18,1.5-23.06,35-22.85,44,.18,7.36-.14,40.46,21.82,43.9a16.64,16.64,0,0,0,10.07-2,37.72,37.72,0,0,0,15.27-15.48c4.29-7.86,6.45-17,7.57-26A71.43,71.43,0,0,0,146.15,162.29Z"/><path class="cls-10" d="M176.23,186.46a52.7,52.7,0,0,0-4.57-22.8c-6.27-13.31-19.34-28.64-37.89-23.34-6.52,1.86-17.84,4.31-24.39,12.47s-12.77,33.41-7.59,55.29c5.82,24.66,18.24,28.12,43.49,24.72,9.79-1.31,17.17-8.32,22-15.42C173,209,176.12,197.63,176.23,186.46Z"/><path class="cls-1" d="M157.7,221.28c5.24-8.48,8.15-19.82,8.34-31,.14-8.05-2-20-4.35-26.93-9.32-27.39-36.51-21-27.92-23.16,18.82-4.82,31.63,10,37.9,23.35a52.68,52.68,0,0,1,4.57,22.79c-.11,11.17-3.23,22.49-9,30.93-4.31,6.34-10.66,12.6-18.95,14.81A40.81,40.81,0,0,0,157.7,221.28Z"/><path class="cls-8" d="M77.73,165.27c3.78-14.22,8.78-19.52,17.76-20.43,3.71-.37,11.08,4.76,1,14.62-6.32,6.21-8,14.28-11,31.56-1.46,8.43-6.65,6.84-8.18.57A49,49,0,0,1,77.73,165.27Z"/><path class="cls-8" d="M102.61,181.64c.58-6,1.54-19.92,13.34-26.93,9-5.36,29.57-5.43,28.16,9.67-.93,9.91-14.53,15.17-17.1,33.17-1.47,10.26-17.44,17.24-20.7,10A44.89,44.89,0,0,1,102.23,187C102.31,185.23,102.44,183.43,102.61,181.64Z"/><path class="cls-1" d="M114.58,144.48a24.78,24.78,0,0,1,1.11-2.94,4.4,4.4,0,0,1,2.94-2.46,13,13,0,0,1,6.8.55c1.78.57,4.2,1.7,4.6,3.89.47,2.65-2.23,4.14-4.2,4.69a20.61,20.61,0,0,1-5,.73,24.31,24.31,0,0,1-3.19-.07,6.63,6.63,0,0,0-6.72,2.18C109.07,153.13,114.11,146.06,114.58,144.48Z"/><path class="cls-11" d="M122.42,141a2.89,2.89,0,0,1,2.53,2.38c.22,1.68-1.33,2.76-2.48,3.09-5,1.47-6.42.63-6.49.36C115.19,143.74,119.77,140.83,122.42,141Z"/><path class="cls-8" d="M83.91,212.93c-.42,1.06.84,2.68,1.38,3.47a29.85,29.85,0,0,0,3.27,3.81,43.26,43.26,0,0,0,3.85,3.46c.66.51,1.32,1,2,1.44s1.47,1.09,2.35.64a.79.79,0,0,0,.4-.83,2.21,2.21,0,0,0-1.28-1.37c-.26-.15-.52-.3-.77-.46-.55-.35-1.09-.72-1.62-1.1a42.56,42.56,0,0,1-3.59-3,45.26,45.26,0,0,1-3.27-3.37c-.47-.54-.94-1.07-1.38-1.64a5.09,5.09,0,0,0-1-1.19.26.26,0,0,0-.35.14Z"/><path class="cls-8" d="M170.46,172.21c-.74,1-.29,2.54-.19,3.73.06.83.11,1.67.16,2.51.09,1.65.11,3.32.08,5a71.83,71.83,0,0,1-.77,9.26,1.3,1.3,0,1,0,2.57.4,63.22,63.22,0,0,0,.71-9.72c0-1.82-.07-3.64-.25-5.45-.11-1-.24-2.07-.42-3.08s-.26-2.22-1.13-2.74a.6.6,0,0,0-.76.11Z"/><path class="cls-8" d="M170.31,198.35a11.45,11.45,0,0,0-1.57,3.24c-.39,1-.76,2.11-1.18,3.14a34.07,34.07,0,0,1-1.45,3.2c-.46.88-1.35,1.78-1,2.84a.9.9,0,0,0,.86.63c1.31.06,2.17-2.37,2.61-3.34s.85-2.08,1.25-3.14c.7-1.89,1.64-4.07,1.55-6.14a.64.64,0,0,0-1.12-.43Z"/><path class="cls-12" d="M118.46,136.84c.77,3.42.31,10.31.27,10.44l.56-.05.78-.08a6.8,6.8,0,0,0,.77-.11,11.66,11.66,0,0,0,1.63-.47,7.89,7.89,0,0,0,1-.46,25.48,25.48,0,0,0-.31-7.84,38.87,38.87,0,0,0-2.34-8.64,49.39,49.39,0,0,0-4.48-8.82l.18-.23a1.39,1.39,0,0,0,.08-1.59,9,9,0,0,0-1.31-1.24,1.19,1.19,0,0,0-1.72.1,6,6,0,0,1-2.95,1.66,1.33,1.33,0,0,0-.88,1.55c.21,2.06.67,1.9,2.23,2.57s3.4,4.71,4.15,6.36A36.09,36.09,0,0,1,118.46,136.84Z"/><path class="cls-13" d="M115.24,121.5a49.39,49.39,0,0,1,4.48,8.82,38.64,38.64,0,0,1,2.34,8.63,26.48,26.48,0,0,1,.35,7.64l.06,0a7.89,7.89,0,0,0,1-.46,25.48,25.48,0,0,0-.31-7.84,38.87,38.87,0,0,0-2.34-8.64,49.39,49.39,0,0,0-4.48-8.82l.18-.23a1.39,1.39,0,0,0,.08-1.59,9,9,0,0,0-1.31-1.24,1.19,1.19,0,0,0-1.72.1,2.29,2.29,0,0,1-.27.27,1.35,1.35,0,0,1,.87.31,9,9,0,0,1,1.3,1.24,1.38,1.38,0,0,1-.08,1.59Z"/><path class="cls-14" d="M111,121.6a6.06,6.06,0,0,0,2.7-.87Z"/><path class="cls-14" d="M111,122.16l-.3-.34a.58.58,0,0,0,.44.39,5.1,5.1,0,0,0,2.93-.8c.84-.38.2-1.75-.65-1.36-.39.18-.77.39-1.17.56s-.83.21-1.21.41-.56,1,0,1.14Z"/><path class="cls-15" d="M118.44,133.83c0,1.43.59,2.83.82,4.23a26.33,26.33,0,0,1,.24,4.44c0,.87,1.26.73,1.27-.14a22.78,22.78,0,0,0-.35-4.81,8.94,8.94,0,0,0-1.41-3.87c-.16-.19-.55-.18-.57.15Z"/></g><g id="Layer_4" data-name="Layer 4"><path class="cls-16" d="M126.5,239.24a57.63,57.63,0,1,1,40.75-16.88A57.25,57.25,0,0,1,126.5,239.24Z"/><path class="cls-17" d="M181.48,181.61a55,55,0,1,1-55-55A55,55,0,0,1,181.48,181.61Z"/><path class="cls-18" d="M171.22,210.65a2.92,2.92,0,0,0-.46.53c-.72,1.07-.3,2.52-1,3.63a26.51,26.51,0,0,1-2.36,2.39c-.87,1.07-1.44,2.27-2.65,3-1,.62-2.29.6-3.19,1.39s-1,2.54-1.88,3.26c-1.43,1.11-3,.45-4.41,1.88-1.2,1.23-1.42,2.35-3,3.22-3,1.67-6.73,3.5-10.16,4.08-1.76.3-3.7-.63-5.28-.27-1,.23-1.14,1-1.92,1.42-2.53,1.3-5.61.55-8.4.45h0c-2-.07-4.06.21-6.06-.06-1.77-.23-2.77-1.47-4.32-1.78-1.73-.34-3.08.33-4.88-.17a39.48,39.48,0,0,1-6.52-2.23c-2.31-1.07-5.14-1.91-7-3.78-.61-.62-.78-1.49-1.52-2-1-.72-2.44-.56-3.51-1.22a30.86,30.86,0,0,1-3.75-3.3c-1.45-1.26-2.07-2.87-3.19-4.33-.88-1.16-2-1.6-3-2.65A18.22,18.22,0,0,1,79,208.8c-.89-2.15-2.09-4.2-3-6.31-.45-1.08.37-2.65,0-3.76-.5-1.51-2-1.71-2.26-3.37-.19-1.11.7-2.23.47-3.36-.29-1.5-1.52-2.81-1.68-4.44-.09-.94.33-1.85.32-2.82a39.15,39.15,0,0,1-.21-4.72c.12-1.12.64-2,.66-3.18s-.48-2-.3-3.09c.15-.91,1-1.47,1.1-2.42s-.61-1.77-.46-2.77c.32-2.18,2.66-3.49,3.41-5.51s.41-3.59,1.44-5.44,2.38-3.44,3.4-5.26c.78-1.4.79-3.54,2.11-4.59,1.14-.9,2.7-1,3.83-2.1a29.61,29.61,0,0,0,3.2-3.78c.74-1,1.22-2.81,2.19-3.55s2.66-.33,3.63-1c1.33-.89,1.93-2.14,3.43-2.83h0c1.82-.84,3.39-2.07,5.15-2.92s3.64-.83,5.28-1.65a12.52,12.52,0,0,1,4.3-1.06,12.05,12.05,0,0,0,2.17-.08c1.22-.37,1.53-1.09,2.9-1.18,1.08-.07,2.18.14,3.24.06s2.13-.6,3.09-.6c2,0,4,.66,5.93.74a39.63,39.63,0,0,1,6.78.92c2.68.58,5.16,2.5,7.75,3.42a24.89,24.89,0,0,1,2.75,1.48c1.74.83,3.86.79,5.43,1.91a51.11,51.11,0,0,1,5,3.93c3,2.84,6.37,5.26,9,8.57a96.19,96.19,0,0,1,6.71,10.57c1,1.69.59,3.56,1.2,5.37,1.11,3.33,3.08,6.15,3.6,9.68a39,39,0,0,1-.09,10.3c-.18,1.54.1,3.27-.29,4.77s-1.57,2.69-1.76,4.45.41,3.3.08,5c-.38,2-1.7,3.31-2.54,5-1,2-1.13,4.19-2.65,6s-2.19,2.09-2.72,4.41c-.15.45,0-.39,0-.36"/><path class="cls-19" d="M107,180.56l-.12-.05Z"/><path class="cls-19" d="M127.41,160.44a49,49,0,0,0,0,6.59Z"/><path class="cls-19" d="M138.94,195.76l.18.2C139.55,196,139.4,196,138.94,195.76Z"/><path class="cls-20" d="M174.4,173c.88-1.32-1.32-1.1-5.52-1.32s1.11-4.19,2.87-6.84-.44-3.75-1.76-4.19-.88-2.21-1.33-4.85-.88-3.31-5.07-5.52c-2.63-1.38-2.91-4.24-2.76-6.18a10.08,10.08,0,0,0-3.78,2.95l-20.22,23.41a7.42,7.42,0,0,1-.59,2.76c-.67,1.11-2.87,2.21-2.87,2.87s-.89,1.77.22,2c.67.13.87.95.31,1.65a5.08,5.08,0,0,0,1.93.33h0l36.73-.08a4.84,4.84,0,0,0,3.85-1.77,4.67,4.67,0,0,0,1-2.79,6.86,6.86,0,0,0-1-.43C174,174.12,173.52,174.34,174.4,173Z"/><path class="cls-21" d="M133.59,178.09c-1.11-.22-.22-1.33-.22-2s2.2-1.76,2.87-2.87a7.42,7.42,0,0,0,.59-2.76l-3.52,4.08c-1.52,1.76-1.24,3.12-.94,3.77a2.78,2.78,0,0,0,1.53,1.42C134.46,179,134.26,178.22,133.59,178.09Z"/><path class="cls-21" d="M173.64,163c-3.14-8.17-6.65-14.24-10.45-18l-.43-.42,0,0a1.74,1.74,0,0,0-1.22-.46,2.42,2.42,0,0,0-.69.11c-.15,1.94.13,4.8,2.76,6.18,4.19,2.21,4.63,2.87,5.07,5.52s0,4.41,1.33,4.85,3.53,1.54,1.76,4.19-7.06,6.62-2.87,6.84,6.4,0,5.52,1.32-.44,1.11,2,2a6.86,6.86,0,0,1,1,.43,5.39,5.39,0,0,0-.16-1.37A100.19,100.19,0,0,0,173.64,163Z"/><path class="cls-21" d="M99,140.36c5.74-2.42,5.74-1.32,10.81-3.75s4.19-3.3,8.83-2.86,4-1.33,5.29,3.31c.88,3.09,1.47,6,1.77,7.56v-6.36c0-2.95-.12-7.38-4-7.74-1.44-.14-3.36.65-4.82.85-6.09.82-20.28,3.56-21.47,11.07a4.7,4.7,0,0,0,.27,2.4C95.44,143.41,96,141.62,99,140.36Z"/><path class="cls-21" d="M121.23,170.81c-1.43-.86-3.78-2.18-5.26-3l4.41,4.87a3.84,3.84,0,0,0,2.74,1.51c1.22,0,2.53-.93,2.53-3.55v-.21C124.55,173,123,171.89,121.23,170.81Z"/><path class="cls-20" d="M125.65,144.62c-.3-1.58-.89-4.47-1.77-7.56-1.32-4.64-.66-2.87-5.29-3.31s-3.75.44-8.83,2.86-5.07,1.33-10.81,3.75c-3,1.26-3.51,3-3.35,4.48a5.26,5.26,0,0,0,1,1.64L116,167.8c1.48.83,3.83,2.15,5.26,3,1.81,1.08,3.32,2.16,4.42-.39v-25.8Z"/><path class="cls-20" d="M129.62,171.25a52.51,52.51,0,0,0,8.27-4.7l17.28-20c-2.79,2.49-2.6,1-1.51-1.75,1.33-3.31.89-4.42.22-4.86a13.81,13.81,0,0,1-3.75-2.86c-1.54-1.77-3.09-.67-7.06.22s-1.54-1.33-4.63-4-4,.66-6.62,0a2.38,2.38,0,0,1-1.85-2.08,4.22,4.22,0,0,0-2.56,4.27V167C127.63,169.56,128.21,171.75,129.62,171.25Z"/><path class="cls-21" d="M127.41,167v3.69c0,3.34,2.06,3.51,2.47,3.51a3.75,3.75,0,0,0,2.74-1.58l5.27-6.1a52.51,52.51,0,0,1-8.27,4.7C128.21,171.75,127.63,169.56,127.41,167Z"/><path class="cls-21" d="M131.82,133.31c2.65.66,3.53-2.65,6.62,0s.66,4.85,4.63,4,5.52-2,7.06-.22a13.81,13.81,0,0,0,3.75,2.86c.67.44,1.11,1.55-.22,4.86-1.09,2.72-1.28,4.24,1.51,1.75l.53-.61a4.94,4.94,0,0,0,1.21-4.08c-.46-2.55-2.44-2.94-4.34-4.06-2.48-1.46-4.57-3.37-7.28-4.48a43.1,43.1,0,0,0-5.3-1.72c-2.66-.67-7.18-1.61-10-.35A2.38,2.38,0,0,0,131.82,133.31Z"/><path class="cls-21" d="M130.94,189.12c.66,0,2,.66,3.53,3.53.88,1.62,3.44,2.68,4.47,3.11l-6.26-6.9a3.84,3.84,0,0,0-2.74-1.51c-1.1,0-2.28.77-2.49,2.84C128.22,188.7,130.42,189.12,130.94,189.12Z"/><path class="cls-21" d="M145.19,202.65c.14,1.5.9,4.28,4.06,7.87,4.85,5.51,7.72,9.48,6.4,11.91s-2,0-5.3,1.54-3.75,3.53-6.39,3.31-4.86-2-7.28.44-5.52,4.19-5.3,0c.17-3.21-2.51-10.3-4-12.75v6.42c0,2.06-.21,4.25,0,6.31.32,3.17,2.24,4.44,4.74,4.71,4.2.46,10-1.88,12.75-2.83,4.52-1.58,18.63-6.73,12.38-13.6Z"/><path class="cls-20" d="M131.38,227.72c-.22,4.19,2.87,2.43,5.3,0s4.63-.66,7.28-.44,3.08-1.76,6.39-3.31,4,.89,5.3-1.54-1.55-6.4-6.4-11.91c-3.16-3.59-3.92-6.37-4.06-7.87L139.12,196h0l-.18-.2c-1-.43-3.59-1.49-4.47-3.11-1.54-2.87-2.87-3.53-3.53-3.53s-2.72-.42-3.49,1.07c0,.22,0,.45,0,.7V215C128.87,217.42,131.55,224.51,131.38,227.72Z"/><path class="cls-21" d="M135.35,188c-1.1-.66-1.54-2.42-2-3.53s1.54-1.1,4.19-1.32a16.58,16.58,0,0,0,4.79-1.34l-6.25,0c-2.33,0-3.16,1.1-3.45,1.75s-.54,2,1,3.74c0,0,1.4,1.53,3.52,3.88C136.63,189.79,135.93,188.36,135.35,188Z"/><path class="cls-21" d="M172.63,181.75h-3.85a26.22,26.22,0,0,1,8.05,5.37c2.16,2-2.69,8.31-3.09,9.27-1.11,2.64,0,5.29-3.09,7.94s-1.1,6.62-4.63,7.94c-2.64,1-8.13-.36-10.72-1.11l3.25,3.58a5,5,0,0,0,3.57,1.92c6.48.15,11.19-10.95,12.71-16,1.09-3.66,4.51-13.59,1.68-17.12A4.91,4.91,0,0,0,172.63,181.75Z"/><path class="cls-20" d="M166,212.28c3.53-1.32,1.54-5.29,4.63-7.94s2-5.3,3.09-7.94c.4-1,5.25-7.32,3.09-9.27a26.22,26.22,0,0,0-8.05-5.37l-26.43.06a16.58,16.58,0,0,1-4.79,1.34c-2.65.22-4.63.22-4.19,1.32s.88,2.87,2,3.53c.58.35,1.28,1.78,1.84,3.2l18.11,20C157.89,211.92,163.38,213.27,166,212.28Z"/><path class="cls-20" d="M118.15,176.54c.17-1.57-1.59-4.93-2.33-6.27l-8.49-9.36c-1.67-1.84-3.81-4.79-6.2-7.48-3.16-2-8.4-4.63-10.78-2.7-3.53,2.87-2.21,4.42-3.75,5.52s-3.75,2.2-3.31,4.41,11.25,4.41,7.28,4.63-9.26-1.32-8.82,1.77,0,4.85-1.33,6.4-.44,3.08,2.21,3.75,25,2.27,19.85,3.08l-.34.05c1.81-.1,3.63-.2,5.45-.2l6.06,0,.3-.05C120.19,179,117.93,178.53,118.15,176.54Z"/><path class="cls-21" d="M82.63,177.21c-2.65-.67-3.53-2.21-2.21-3.75s1.77-3.31,1.33-6.4,4.85-1.55,8.82-1.77-6.84-2.42-7.28-4.63,1.77-3.31,3.31-4.41.22-2.65,3.75-5.52c2.38-1.93,7.62.75,10.78,2.7-4.5-5.05-9.93-9.16-14.92-3.19A32.8,32.8,0,0,0,80,163.05c-.84,3.31-3.9,9.91-2.15,13a6.44,6.44,0,0,0,4.3,2.73c.55.13,1.11.23,1.63.31,2.54.4,4.93,1.17,7.52,1.4a71.72,71.72,0,0,0,10.87-.15l.34-.05C107.61,179.48,85.28,177.87,82.63,177.21Z"/><path class="cls-21" d="M120.8,178.36c.28-.65.54-2-1-3.74l-4-4.35c.74,1.34,2.5,4.7,2.33,6.27-.22,2,2,2.5-4.2,3.53l-.3.05h3.69C119.68,180.11,120.51,179,120.8,178.36Z"/><path class="cls-20" d="M78.44,188.46c1.54,2.64,4.19,4,3.53,6.83s-3.09,4.86,1.32,8,6.18,1.76,7.28,4.85,2.65,4,6.18,1.54c2.72-1.87,8.58-6.35,11.12-8.31q5.13-6,10.27-11.89a7.38,7.38,0,0,1,.67-3.62c.88-1.77.44-2-1.77-2-1.22,0-4.22-1-6.64-1.93l-30,.07S76.89,185.81,78.44,188.46Z"/><path class="cls-21" d="M106.86,202.49l1-1.17c-2.54,2-8.4,6.44-11.12,8.31-3.53,2.43-5.08,1.55-6.18-1.54s-2.87-1.77-7.28-4.85-2-5.08-1.32-8-2-4.19-3.53-6.83,1.92-6.5,1.92-6.5a4.9,4.9,0,0,0-3.86,1.77c-2.42,3-.46,9.73.45,13.08,2,7.51,6,17.05,15,18C98.3,215.45,103.54,206.33,106.86,202.49Z"/><path class="cls-21" d="M118.81,185.81a7.38,7.38,0,0,0-.67,3.62l1.75-2c1.52-1.76,1.24-3.12.94-3.77s-1.14-1.75-3.47-1.75h-7c2.42.91,5.42,1.93,6.64,1.93C119.25,183.82,119.69,184,118.81,185.81Z"/><path class="cls-20" d="M117.37,193,98.21,215.21c1.12-.34,2.88-.86,4.71-1.38,3.09-.89,2-.23-.66,3.3s-3.31,6.62-1.1,8,3.75,1.54,5.07,2.42,4.64.22,6.62,1.55,6.4,2.42,6.84,1.54,2.65-12.57,3.53-11.91-.36,10.67,1.27,12.67a5.17,5.17,0,0,0,1.16-3.63v-30c-.52-2.6-1.43-6.49-2.43-7.49S119.44,191.3,117.37,193Z"/><path class="cls-21" d="M123.17,187.89a3.77,3.77,0,0,0-2.73,1.57L117.37,193c2.07-1.72,4.91-3.74,5.85-2.8s1.91,4.89,2.43,7.49V191.4C125.65,188.06,123.59,187.89,123.17,187.89Z"/><path class="cls-21" d="M123.22,218.68c-.88-.66-3.09,11-3.53,11.91s-4.85-.22-6.84-1.54-5.29-.66-6.62-1.55-2.86-1.1-5.07-2.42-1.55-4.42,1.1-8,3.75-4.19.66-3.3c-1.83.52-3.59,1-4.71,1.38l-1.45,1.67A5,5,0,0,0,95.55,221c1,5.79,7.48,7.09,12.22,8.68,2.6.88,8.74,3.46,13.09,3.18a5.18,5.18,0,0,0,3.63-1.48C122.86,229.35,124,219.27,123.22,218.68Z"/><path class="cls-22" d="M102,146.32s14.34,21.4,15.66,18.53,2.87-2.21,4-.88.88,3.53,1.54-3.31-.88-22.28-3.31-20.74-3.09,6.62-5.74,4.19-6.39-2-5.73.67S100.06,141.69,102,146.32Z"/><path class="cls-22" d="M114.84,172.13S100.06,154,100.06,156.69s2.64,6.62-.22,5.07-12.8-5.51-9.71-1.54,9.71,8.16,5.07,7.94-17.87,4.41-10.59,6.62,32.65,5.51,30.67,3.53S118.81,177.43,114.84,172.13Z"/><path class="cls-22" d="M112.63,184.26s-30.88-.66-27.13,1.55,8.16,2.87,5.07,4.63-8.6,8.83-3.31,9.27,12.58-4.64,10.59-.89-7.06,9.05.22,6,21.18-17.65,18.31-18.09S116.6,184.26,112.63,184.26Z"/><path class="cls-22" d="M119.47,193.53s-16.77,17-14.56,17.65,6-2.87,4.19,2.2-3.53,11.7-.22,10.37,5.52-12.35,6.4-6.84,3.53,10.15,4.41,5.52,5.51-26.69,3.31-26S123.22,190,119.47,193.53Z"/><path class="cls-22" d="M136,186.69s19.19,22.5,21.61,21.84-2-7.5,2-7.5,4.63-1.32,4-3.75.88-3.31,4.41-4,3.31-3.75,1.11-4.41,4.19.44,2.42-2.21-3.09-2.65-12.79-2.87S132.26,181.84,136,186.69Z"/><path class="cls-22" d="M132.93,193.09s10.81,10.81,10.59,13,2.2,6.4,4,8.61,3.08,6.62.44,6.17-6.18-1.54-6.84,1.11-3.75,5.07-4.63,2.87-3.31-.45-3.75-4.64-1.55-9.48-1.55-14.12S127.19,185.15,132.93,193.09Z"/><path class="cls-22" d="M130.72,142.79s-3.75,25.81-.44,22.94,5.29-3.09,5.29-1.54.67.22,5.52-4.19,10.37-16.77,7.72-14.12-6.84,5.29-6.4,2.43-.66-10.59-2.42-6.62-2.21,10.37-4.2,8.16-.22-15.66-2.86-13.68S130.72,142.79,130.72,142.79Z"/><path class="cls-22" d="M139.77,170.59s16.76-21.18,18.3-18.53-6.61,8.82-1.76,7.94,7.28-1.11,6.18,2-5.3,6.18-.66,7.72,11.25,4.86,8.16,6-36.4,3.75-32.65,1.55,5.51-4.42,2.65-4S139.77,170.59,139.77,170.59Z"/><path class="cls-23" d="M107.47,176.68s-5.66-1.6-4-2.38S107.47,176.68,107.47,176.68Z"/><path class="cls-23" d="M110.65,212s-2.65,5.24-3.09,3.43S110.65,212,110.65,212Z"/><path class="cls-23" d="M112.23,221.65s-.43,5.86-1.53,4.36S112.23,221.65,112.23,221.65Z"/><path class="cls-23" d="M101.44,166.23s-5.65-1.59-4-2.37S101.44,166.23,101.44,166.23Z"/><path class="cls-23" d="M103,192.1s-5.31,2.5-4.55.81S103,192.1,103,192.1Z"/><path class="cls-23" d="M109.13,192.59s-3.56,4.67-3.66,2.81S109.13,192.59,109.13,192.59Z"/><path class="cls-23" d="M114.93,185.26s-5.31,2.5-4.55.81S114.93,185.26,114.93,185.26Z"/><path class="cls-23" d="M118.3,199.16s-2,5.5-2.69,3.75S118.3,199.16,118.3,199.16Z"/><path class="cls-23" d="M95.52,186.58s-5.31,2.51-4.55.81S95.52,186.58,95.52,186.58Z"/><path class="cls-23" d="M98.33,159.76s-4.92-3.2-3.07-3.44S98.33,159.76,98.33,159.76Z"/><path class="cls-24" d="M112.47,173.88s-5.66-1.59-4-2.37S112.47,173.88,112.47,173.88Z"/><path class="cls-23" d="M88.79,173s-5.83.7-4.57-.67S88.79,173,88.79,173Z"/><path class="cls-24" d="M100.85,171.93s-5.83.7-4.57-.67S100.85,171.93,100.85,171.93Z"/><path class="cls-24" d="M118.71,157.08s-5.49-7.18-2.69-6.58S118.71,157.08,118.71,157.08Z"/><path class="cls-24" d="M108.34,154s-3.86-5.05-1.89-4.63S108.34,154,108.34,154Z"/><path class="cls-24" d="M141.46,145s1.18-6.24,2.18-4.49S141.46,145,141.46,145Z"/><path class="cls-24" d="M158,153.71s4.3-4.67,4.23-2.66S158,153.71,158,153.71Z"/><path class="cls-24" d="M135.33,210.46s2.14,5.46.5,4.59S135.33,210.46,135.33,210.46Z"/><path class="cls-24" d="M140.28,205s4.68,3.54,2.83,3.65S140.28,205,140.28,205Z"/><path class="cls-24" d="M94.18,200.72s-4.42,3.86-4.15,2S94.18,200.72,94.18,200.72Z"/><path class="cls-23" d="M117.93,206.77s-3.76,6.39-1.11,6.83S117.93,206.77,117.93,206.77Z"/><path class="cls-23" d="M120.94,143.75s1.77-5.68-.38-5.54S120.94,143.75,120.94,143.75Z"/><path class="cls-23" d="M122.92,165.59s1.78-5.68-.37-5.54S122.92,165.59,122.92,165.59Z"/><path class="cls-23" d="M139.76,158.41s4.82-3.49,3-4.67S139.76,158.41,139.76,158.41Z"/><path class="cls-23" d="M140.33,174.7s5.95-.15,5.12-2.14S140.33,174.7,140.33,174.7Z"/><path class="cls-23" d="M166.8,174s5.95-.15,5.13-2.14S166.8,174,166.8,174Z"/><path class="cls-23" d="M154,173.16S160,173,159.13,171,154,173.16,154,173.16Z"/><path class="cls-23" d="M131.4,168.22s4-2.92,2.52-3.91S131.4,168.22,131.4,168.22Z"/><path class="cls-23" d="M149.48,165.79s4-2.92,2.53-3.9S149.48,165.79,149.48,165.79Z"/><path class="cls-23" d="M132.05,157.82s2.53-4.29.75-4.59S132.05,157.82,132.05,157.82Z"/><path class="cls-23" d="M132.71,140.17s2.53-4.29.75-4.59S132.71,140.17,132.71,140.17Z"/><path class="cls-23" d="M153.44,191.32s3.31,7.06,6.62,5.74S154.55,191.32,153.44,191.32Z"/><path class="cls-23" d="M143.52,213.16s3.3,7.06,6.61,5.74S144.62,213.16,143.52,213.16Z"/><path class="cls-23" d="M133.14,194.08s.66,5.35,3.12,5.19S133.87,194.31,133.14,194.08Z"/><path class="cls-23" d="M135.06,219.84s-.81,2.69.39,3.13S135.36,220.11,135.06,219.84Z"/><path class="cls-23" d="M154.77,201s2.07,4.42,4.14,3.59S155.46,201,154.77,201Z"/><path class="cls-23" d="M137,186.27s4,2.87,5.37,1.14S137.56,185.94,137,186.27Z"/><path class="cls-23" d="M148.47,193.19s.81,2.82,2.12,2.53S148.88,193.25,148.47,193.19Z"/><path class="cls-23" d="M164.75,186.49s3.95,2.87,5.36,1.14S165.35,186.16,164.75,186.49Z"/></g><g id="Layer_51" data-name="Layer 51"><path class="cls-25" d="M137.19,172.45c1.69-1.25,4.57-2.23,6,.84,1.52,3.24-.52,4.32-3.2,5.17-2.43.76-5.52.15-6-.85S134.93,174.11,137.19,172.45Z"/><path class="cls-26" d="M139.44,173.34c.8-.59,2.15-1.05,2.83.39s-.25,2-1.51,2.43-2.58.07-2.82-.4S138.38,174.12,139.44,173.34Z"/><path class="cls-25" d="M139.32,183.07c2,.48,4.66,2,3.24,5.13-1.48,3.25-3.62,2.4-6,.9-2.16-1.35-3.69-4.1-3.25-5.13S136.58,182.42,139.32,183.07Z"/><path class="cls-26" d="M140.09,185.36c1,.22,2.19,1,1.53,2.41s-1.7,1.12-2.82.42-1.73-1.92-1.53-2.41S138.81,185.05,140.09,185.36Z"/><path class="cls-25" d="M134.39,191.85c1.21,1.72,2.13,4.62-1,6-3.27,1.44-4.3-.62-5.09-3.31-.71-2.45,0-5.52,1-6S132.78,189.55,134.39,191.85Z"/><path class="cls-26" d="M133.45,194.08c.57.81,1,2.17-.46,2.82s-2-.29-2.39-1.56,0-2.59.46-2.81S132.7,193,133.45,194.08Z"/><path class="cls-25" d="M128.35,166.73c.51-2,2.09-4.64,5.17-3.19,3.24,1.52,2.36,3.65.84,6-1.38,2.14-4.14,3.65-5.17,3.2S127.68,169.46,128.35,166.73Z"/><path class="cls-26" d="M130.65,166c.24-1,1-2.18,2.43-1.5s1.1,1.71.39,2.82-1.94,1.71-2.42,1.5S130.34,167.26,130.65,166Z"/><path class="cls-25" d="M118.51,169.33c-1.05-1.82-1.7-4.79,1.52-5.87,3.39-1.15,4.23,1,4.77,3.76.48,2.5-.47,5.49-1.52,5.88S119.91,171.77,118.51,169.33Z"/><path class="cls-26" d="M119.65,167.2c-.49-.86-.8-2.25.71-2.76s2,.47,2.24,1.77-.22,2.58-.71,2.76S120.31,168.34,119.65,167.2Z"/><path class="cls-25" d="M113.51,178.9c-2.06-.43-4.71-1.92-3.38-5.05,1.41-3.29,3.57-2.48,6-1,2.19,1.3,3.79,4,3.38,5S116.25,179.48,113.51,178.9Z"/><path class="cls-26" d="M112.67,176.63c-1-.2-2.21-.9-1.58-2.37s1.67-1.17,2.81-.49,1.77,1.88,1.58,2.37S114,176.9,112.67,176.63Z"/><path class="cls-25" d="M116.78,189.31c-1.65,1.3-4.49,2.38-6-.64-1.63-3.19.37-4.34,3-5.27,2.4-.85,5.5-.35,6,.64S119,187.57,116.78,189.31Z"/><path class="cls-26" d="M114.5,188.49c-.77.62-2.11,1.12-2.83-.3s.17-2,1.42-2.47,2.58-.16,2.83.3S115.54,187.68,114.5,188.49Z"/><path class="cls-25" d="M124.61,195.94c-.27,2.08-1.56,4.84-4.78,3.74-3.39-1.15-2.75-3.37-1.5-5.88,1.13-2.28,3.71-4.08,4.78-3.75S125,193.15,124.61,195.94Z"/><path class="cls-26" d="M122.41,196.94c-.13,1-.74,2.27-2.25,1.76s-1.29-1.58-.7-2.76,1.74-1.92,2.24-1.76S122.58,195.63,122.41,196.94Z"/></g></svg>