<?xml version="1.0" encoding="utf-8"?>
<!-- Generator: Adobe Illustrator 24.3.0, SVG Export Plug-In . SVG Version: 6.00 Build 0)  -->
<svg version="1.1" id="Layer_48" xmlns="http://www.w3.org/2000/svg" xmlns:xlink="http://www.w3.org/1999/xlink" x="0px" y="0px"
	 viewBox="0 0 252 252" style="enable-background:new 0 0 252 252;" xml:space="preserve">
<style type="text/css">
	.st0{fill:#99123A;}
	.st1{fill:#D96F4C;}
	.st2{fill:#E97F59;}
	.st3{opacity:0.3;fill:#F9A683;}
	.st4{fill:#872823;}
	.st5{fill:#660C11;}
	.st6{opacity:0.18;fill:#FFFFA7;enable-background:new    ;}
	.st7{opacity:0.35;fill:#FFFFFF;enable-background:new    ;}
	.st8{fill:#CD1948;}
</style>
<path class="st0" d="M176.2,186.4c0.2-7.8-1.4-15.6-4.6-22.8c-3.3-7-8.4-14.5-15.3-19.2c-5.2-3.9-11.7-5.6-18.1-4.9l-0.8,0.1
	c-4.4-1.6-9-2.5-13.7-2.6c-2.8,0-5.6,0.2-8.3,0.7c-1.8,0.3-3.5,0.5-5.3,0.6s-3.4,0-5.1,0c-5.4-0.2-10.7,1.1-15.4,3.8
	c-11.2,6.3-16.7,23.8-17.3,37.4c-0.7,15.9,2,31.3,13.6,41.9c10.8,9.8,26.2,14,40.3,12.3c5.3,0.5,11.6,0.1,18.9-0.9
	c9.8-1.3,17.2-8.3,22-15.4c5-7.4,8-17,8.8-26.8C176.2,189.2,176.2,187.8,176.2,186.4z"/>
<path class="st1" d="M80.7,158.7c-2.7,6.7-4.2,13.9-4.5,21.2c-0.6,14.7,1.8,29.1,11.7,38.9c9.2,8.9,21.9,13.1,34.6,11.5
	c5.4,0.4,10.9,0.1,16.2-0.8c1.7-0.3,3.4-0.7,4.9-1.4C86.8,224.4,80.3,180.7,80.7,158.7z"/>
<path class="st2" d="M161.4,165.1c-2.8-6.5-7.2-13.4-13.1-17.9c-4.4-3.6-10-5.2-15.6-4.6l-0.7,0.1c-3.8-1.5-7.7-2.3-11.7-2.5
	c-2.4,0-4.8,0.2-7.1,0.7c-1.5,0.2-3,0.5-4.6,0.6s-2.9,0-4.4,0c-4.7-0.2-9.3,1.1-13.2,3.5c-4.5,2.8-7.9,7.8-10.4,13.6
	c-0.4,22,6.2,65.7,63,69.3c6-2.5,10.7-7.7,14-12.9c4.3-6.9,6.9-15.8,7.6-24.9c0.1-1.3,0.1-2.6,0.2-4
	C165.5,179,164.2,171.8,161.4,165.1z"/>
<path class="st3" d="M115.4,156.8c-6,4-11.4,10.3-13.6,15.5c-2.7,6.5-3.8,12.9-0.9,19.6s6.4,13,15.1,18.8c1.3,0.4,2.6,0.6,4,0.5
	c2.2-0.3,7.8-6.1,8.5-7c2.6-3.7,5.8-7.4,7.2-11.4c1.9-5.4,1.6-11.3-0.7-16.5c-2.7-6.2-6.5-13.8-14.2-19.3c-0.9-0.6-3.7-0.7-5.1-0.2
	C115.6,156.7,115.5,156.7,115.4,156.8z"/>
<path class="st4" d="M126.6,179.9c-1.8-4.6-7.1-10.3-9.7-10.5c-1.3-0.1-9.5,7.5-8,16.3c0.8,4.9,3.5,9.9,8.7,12.4
	c0.6,0.4,1.4,0.4,2,0C126.1,194.6,129.1,186.9,126.6,179.9z"/>
<path class="st5" d="M126.6,179.9c-1.8-4.6-7.1-10.3-9.7-10.5c-0.3,0.1-0.6,0.2-0.9,0.4c2.8,1.4,7,6.1,8.5,10.1
	c2.4,6.9-0.5,14.6-7,18.1l0.1,0.1c0.6,0.4,1.4,0.4,2,0C126.1,194.6,129.1,186.9,126.6,179.9z"/>
<path class="st6" d="M116.1,177.2c-0.7-1.2-2.2-1.7-3.5-1c-0.4,0.2-0.8,0.6-1,1c-1.7,2.9-2.3,6.3-1.8,9.6c0.4,3.1,1.9,6,4.2,8.3
	c1.7,1.7,3.8,1.3,4.9-0.7C121.2,190.2,117,178.5,116.1,177.2z"/>
<path class="st7" d="M114.9,192.9c0.1-0.3,0.1-0.7,0-1c-0.2-0.5-0.4-1-0.8-1.5c-0.3-0.4-0.5-0.8-0.7-1.2c-0.2-0.5-0.1-0.8-0.6-1.2
	c-0.4-0.3-0.8-0.2-1.2,0.1c-0.7,0.8-0.1,1.9,0.4,2.6c0.4,0.5,0.8,1,1.3,1.4c0.3,0.3,0.7,0.5,1,0.8c0.1,0.1,0.3,0.1,0.4,0
	C114.9,193,115,192.9,114.9,192.9L114.9,192.9z"/>
<path class="st7" d="M112.7,186.7c0.1-0.3,0.2-0.6,0.2-0.9c0-0.3-0.3-0.6-0.6-0.6c-0.3,0-0.6,0.2-0.7,0.5c-0.1,0.3,0,0.7,0.2,1
	c0.1,0.2,0.3,0.3,0.5,0.3C112.4,186.9,112.6,186.8,112.7,186.7L112.7,186.7z"/>
<path class="st8" d="M170.5,172.2c-0.7,1-0.3,2.5-0.2,3.7c0.1,0.8,0.1,1.7,0.2,2.5c0.1,1.6,0.1,3.3,0.1,5c-0.1,3.1-0.3,6.2-0.8,9.3
	c-0.1,0.7,0.4,1.4,1.1,1.5s1.4-0.4,1.5-1.1c0.5-3.2,0.7-6.5,0.7-9.7c0-1.8-0.1-3.6-0.2-5.4c-0.1-1-0.2-2.1-0.4-3.1s-0.3-2.2-1.1-2.7
	C171,172,170.7,172,170.5,172.2L170.5,172.2z"/>
<path class="st8" d="M170.3,198.4c-0.7,1-1.2,2.1-1.6,3.2c-0.4,1-0.8,2.1-1.2,3.1c-0.4,1.1-0.9,2.2-1.4,3.2c-0.5,0.9-1.4,1.8-1,2.8
	c0.1,0.4,0.5,0.6,0.9,0.6c1.3,0.1,2.2-2.4,2.6-3.3s0.9-2.1,1.2-3.1c0.7-1.9,1.6-4.1,1.6-6.1c0-0.4-0.3-0.6-0.6-0.6
	C170.6,198.1,170.4,198.2,170.3,198.4L170.3,198.4z"/>
</svg>
