<svg xmlns="http://www.w3.org/2000/svg" viewBox="0 0 252 252"><defs><style>.cls-1{fill:#bc470c;}.cls-2{fill:#d35109;}.cls-3{fill:#fbb116;}.cls-4{fill:#2f130b;}.cls-5{fill:#562d0b;}.cls-6{fill:#5c3529;}.cls-7{fill:#69402a;}.cls-8{opacity:0.24;}.cls-9{fill:#dfdfdf;}.cls-10{fill:#c43700;}.cls-11{opacity:0.59;}.cls-12{fill:#720a28;}.cls-12,.cls-13{opacity:0.49;}.cls-13{fill:#600b27;}.cls-14{fill:#ef7030;}</style></defs><g id="Layer_38" data-name="Layer 38"><path class="cls-1" d="M69.41,208.67a50.75,50.75,0,0,0,18.76,22c25.14,16.62,56.48,8.09,76.5-16.76.88-1.1,1.72-2.21,2.54-3.33C123.27,238.11,83.93,218.19,69.41,208.67Z"/><path class="cls-2" d="M158.35,143.1c-2.74-2-5.16-2-6.37-1.73l-4.11,1.22a1.56,1.56,0,0,1-2.06-1.37l-.49-4.3c-.21-1.45-1.85-3.82-5.7-6-32.94-18.53-52.18-2.92-66,22.81-10,18.54-11.42,38.63-4.2,55,14.52,9.52,53.86,29.44,97.8,1.88C183.16,188.67,184.85,163.87,158.35,143.1Z"/><path class="cls-3" d="M153.71,147.07a9.86,9.86,0,0,0-8.91-1.77l-3.94,1.33a1.39,1.39,0,0,1-1.92-1.27l-.32-4.2c-.47-4.35-3.91-6.84-5-7.54-25.06-11.05-43.84,1.29-55.66,22.94C64,182.09,67.06,210.26,88.18,224.22s48.31,5.48,66.25-17.1C169.64,188,172.1,165.06,153.71,147.07Z"/><path class="cls-4" d="M136.42,197c-10.28,15.56-28.51,21.62-40.72,13.55s-13.78-27.22-3.5-42.77,28.51-21.62,40.73-13.55S146.7,181.45,136.42,197Z"/><path class="cls-5" d="M144.44,143.2a12.5,12.5,0,0,0,1,2.13c5.52-6,10.19-17,14.27-32.74l-2.52-4.49C153.78,124.45,149.61,136.54,144.44,143.2Z"/><path class="cls-6" d="M120.48,195c-5.14,8.55-13.67,12.92-19,9.75s-5.57-12.66-.42-21.21,20.38-26.8,27.07-22.16C135.07,166.24,125.63,186.47,120.48,195Z"/><path class="cls-7" d="M102.57,200.81c-3.78-2.62-3.48-10.38.68-17.29,4.63-7.69,15.17-19.82,21.15-21.35a2.37,2.37,0,0,1,2.08.16c2,1.36,1.88,5.89-.19,12.44a91.56,91.56,0,0,1-8.06,17.56c-4.27,7.09-11.3,11.06-15.36,8.67Z"/><g class="cls-8"><path class="cls-9" d="M104.14,189.73a.57.57,0,0,1-.54-.41,5.33,5.33,0,0,1,0-2.3,16.46,16.46,0,0,1,3.27-7.16A75.07,75.07,0,0,1,117.31,169c1.6-1.36,3-2.43,4.19-3.26a.6.6,0,0,1,.91.72c-.24.67-.54,1.4-.9,2.21a83.7,83.7,0,0,1-9.19,15.42C109.15,188.26,105.5,189.74,104.14,189.73Z"/></g></g><g id="Layer_37" data-name="Layer 37"><path class="cls-2" d="M158.35,143.1c-2.74-2-5.16-2-6.37-1.73l-4.11,1.22a1.56,1.56,0,0,1-2.06-1.37l-.49-4.3c-.21-1.45-1.85-3.82-5.7-6-32.94-18.53-52.18-2.92-66,22.81C58.38,182,63,214,88.17,230.64s56.48,8.09,76.5-16.76C182.92,191.22,186.2,164.93,158.35,143.1Z"/><path class="cls-10" d="M172.54,158.33c-.19,11.52-5.47,23.1-14.14,33.86-20,24.84-51.35,33.38-76.5,16.76A51.14,51.14,0,0,1,65.05,190.8a51,51,0,0,0,23.12,39.84c25.14,16.62,56.48,8.09,76.5-16.76C178.84,196.29,184,176.51,172.54,158.33Z"/><g class="cls-11"><circle class="cls-12" cx="104.76" cy="164.13" r="1.6"/><circle class="cls-12" cx="92.39" cy="174.26" r="1.6"/><circle class="cls-12" cx="86.59" cy="206.02" r="1.6"/><circle class="cls-13" cx="68.94" cy="185.42" r="1.6"/><circle class="cls-13" cx="77.69" cy="204.6" r="1.6"/><circle class="cls-13" cx="84.21" cy="182.85" r="1.24"/><circle class="cls-13" cx="76.31" cy="174.92" r="1.24"/><circle class="cls-13" cx="86.3" cy="171.07" r="1.24"/><circle class="cls-13" cx="81.64" cy="163.4" r="1.24"/><circle class="cls-13" cx="69.03" cy="196.98" r="1.24"/><circle class="cls-13" cx="84.35" cy="194.08" r="0.72"/><circle class="cls-13" cx="73.72" cy="190.44" r="0.72"/><circle class="cls-13" cx="83.74" cy="189.01" r="0.72"/><circle class="cls-13" cx="78.15" cy="209.95" r="0.72"/><circle class="cls-13" cx="85.5" cy="211.73" r="0.72"/><circle class="cls-13" cx="72.81" cy="207.28" r="0.72"/><circle class="cls-13" cx="74.75" cy="180.23" r="0.72"/><circle class="cls-13" cx="94.53" cy="162.78" r="0.72"/></g><path class="cls-14" d="M104.86,153.73c-9.58,2.68-6.41-12,4.43-13.09S116.41,150.51,104.86,153.73Z"/><path class="cls-14" d="M125.9,141.28c4.56,1.66-.86,6.61-5.47,4S120.4,139.28,125.9,141.28Z"/></g></svg>