<svg id="befa6ad4-63cf-4f01-9199-7b3b06b9357e" data-name="Layer 1" xmlns="http://www.w3.org/2000/svg" viewBox="0 0 252 252"><path d="M117.55,71.25a8.55,8.55,0,0,1-.37.86c-.48.44-1,.9-1.41,1.36.59-.72,1.17-1.51,1.78-2.22m0-8a8,8,0,0,0-6.12,2.84c-.38.45-.76.93-1.14,1.41-.23.29-.45.58-.68.86A8,8,0,0,0,121.4,79.15c.44-.44.83-.81,1.19-1.14a8.09,8.09,0,0,0,1.66-2.15,13.48,13.48,0,0,0,.68-1.53l0-.13a8,8,0,0,0-7.43-11Z" style="fill:#fff"/><path d="M115.77,73.47a10.24,10.24,0,0,1-1.33,1.37.46.46,0,0,1-.07.07c.46-.49.92-1,1.4-1.44m0-8a8,8,0,0,0-5.64,2.31c-.53.53-1.06,1.08-1.62,1.68a8,8,0,0,0,11.25,11.36,18.4,18.4,0,0,0,2.17-2.25,8,8,0,0,0-6.16-13.1Z" style="fill:#fff"/><path d="M119.85,68.75l-.16.26c-.25.51-.74.75-1,1.15v-.1c0,.06-.12.11-.17.16l.13-.13c.42-.43.81-.88,1.2-1.34m-1.33,1.47h0m1.34-9.47a8,8,0,0,0-6.07,2.78l-.05.06c-.27.31-.52.61-.74.84l0,0a8,8,0,1,0,11.79,10.92A9.94,9.94,0,0,0,126.63,73l0-.08a8,8,0,0,0-6.81-12.18Z" style="fill:#fff"/><path d="M119.88,68.7h0s0,0,0,0l0,0m0-8h-.19a8,8,0,0,0-6.63,3.82l0,0a8,8,0,0,0,12.79,9.5l.14-.15a8,8,0,0,0-6.08-13.22Z" style="fill:#fff"/><path d="M130.85,43.73a19.29,19.29,0,0,1,2.25,1.06,17.87,17.87,0,0,1,3.1,2l.1.08V47c-.26.62-.55,1.2-.79,1.79-1.2,1.9-2.54,3.73-3.78,5.56,0-.08-.07-.08-.07-.08,0,.5-.55.69-.92,1.4a.05.05,0,0,1,0,0s0-.11,0-.11c-.66.84-1.24,1.83-2,2.64V58.1c.64-.77,1.26-1.56,1.85-2.39.24-.33.48-.66.71-1-1.11,1.49-2.36,3.08-3.71,4.75l1.14-1.34-.45.7.06-.16c-1.76,2.16-3.48,4.38-5.22,6.53a9,9,0,0,1,2.06,1.33,10.75,10.75,0,0,0,2.79,1.73,16.93,16.93,0,0,0,2.81,1.94,11.12,11.12,0,0,0,1.64.68,6.48,6.48,0,0,0,1.75.24h0a21.18,21.18,0,0,0,3.47-.38,26.5,26.5,0,0,1,3.43-.4,25.87,25.87,0,0,1,3.69-.63h2.8l.94.09a14.73,14.73,0,0,1,3.66.89,12.44,12.44,0,0,1,3.26,1.92,29.14,29.14,0,0,0,3.45,2.3,7,7,0,0,1,2.87,3.15,22.31,22.31,0,0,1,2.2,6,6,6,0,0,1,.14.74c.3,0,.6,0,.9,0H165a.79.79,0,0,0-.22.08c1.06-.14,2.12-.25,3.19-.33l.19,0,0,0c1.16-.08,2.31-.12,3.47-.12a59.55,59.55,0,0,1,8.72.67h.16a6.36,6.36,0,0,1,.76.08,8,8,0,0,0,1.94.24l-.38.11.23,0a32.48,32.48,0,0,1,7.7,1.89l.27-.17a5.9,5.9,0,0,1,1.22-.43l.3-.06h1l1.11.13s0,0,0,.08h-.26l.25,0s0,0,0,0h0l0,0,.31,0h.3a3.53,3.53,0,0,0-.56,0l.06,0a.24.24,0,0,1,.13,0c.11,0,.21.06.3.06a.11.11,0,0,0,.08,0,.23.23,0,0,1,.11,0c.1,0,.2,0,.3,0l.1,0a4.39,4.39,0,0,0,.27-.47,2.61,2.61,0,0,0,1.36-.44,2.89,2.89,0,0,0,.56-.48,2.47,2.47,0,0,0,.41-.62l.06,0c.08,0,.13-.16.21-.16h0c.17-.31.47-.57.47-.8.11-.05.15-.15.31-.15h.11a1,1,0,0,1,0-.33l.06-.19h1.09a1.28,1.28,0,0,1,.82.29.46.46,0,0,1,.19,0c.27,0,.53.24.81.24s.72.42,1.08.63a.29.29,0,0,0,0,.13.23.23,0,0,1,.11,0c.15,0,.29.2.39.2a.08.08,0,0,0,.07,0c0,.35.33,0,.41.35a.74.74,0,0,1,.34.52c0-.08,0-.1.07-.1s.16.1.23.1a2.07,2.07,0,0,1,.64.77v.21l-.06.52,0,0s.17.2,0,.2h-.07c0,.08-.1.19,0,.32-.11.12-.27.1-.34.28h-.15l.09.06a.14.14,0,0,1-.1,0,.35.35,0,0,1-.11,0,4.67,4.67,0,0,0,1.34,4.45h0l.2.22h.05s0,0,0,0c0,.18.51.3.51.56a.08.08,0,0,1-.06,0l.05,0c.07,0,.17,0,.12,0h-.06a4.57,4.57,0,0,1,1,1.06.41.41,0,0,1,0,.22.4.4,0,0,1-.09.2,1.08,1.08,0,0,1-.24.18,57.58,57.58,0,0,1,17.22,16,36.49,36.49,0,0,1,2.92,4.47c1.45,2.53,2.63,5.11,3.9,7.53a68.88,68.88,0,0,1,4,19.19c0-.08-.07-.11-.11-.11a.12.12,0,0,0-.12.11,3.21,3.21,0,0,1,.27,2c0,.4-.08.83-.08,1.31a10.55,10.55,0,0,0,0,1.59c0,.13,0,.17-.07.17s-.11-.24-.15-.24a46.75,46.75,0,0,1-1.13,9.64.8.8,0,0,0-.06-.27,1.34,1.34,0,0,1,0,.39c0,.24-.06.55-.12.86l-.2,1.26v-.5c-.2.79-.36,1.59-.6,2.37L233,163c-.52,1.54-1,3.13-1.62,4.62l-.43,1.13-.11.28c0,.12-.12.2-.12.3l-.25.56-1,2.24c-.71,1.47-1.4,3-2.2,4.37a61.15,61.15,0,0,1-11.5,15.28c.25-.27.18-.4.12-.48l-.33.41-.34.41h-.13a9.38,9.38,0,0,1-1.71,1.62,12.82,12.82,0,0,0-1.69,1.35c.12-.25.12-.19.12-.25a8,8,0,0,1-.85.69c-.3.2-.61.39-.92.58-.62.37-1.21.77-1.81,1.21.19-.15.17-.15.06-.15-.37.4-.74.86-1.13,1.31l-.58.67c-.2.2-.4.4-.6.58l.08-.09a75.58,75.58,0,0,1-11.72,5.17,90.29,90.29,0,0,1-12,3.2c0-.08-.18-.11-.38-.11-.47,0-1.24.15-1.7.15a.92.92,0,0,1-.32,0,70.39,70.39,0,0,1-7.4.38h-.74a6.92,6.92,0,0,1-3-.86h-.61a19,19,0,0,1-3-.24c-.69-.1-1.45-.26-2.11-.39s-1.35-.28-2-.46h.24a19.12,19.12,0,0,1-3.55-1c-.61-.21-1.11-.41-1.61-.61s-.93-.42-1.31-.59a8.53,8.53,0,0,1-1.7-.39c-.65-.22-1.24-.51-1.89-.79l-.47-.22a82.4,82.4,0,0,1-9.11,2.76c.06-.11,0-.18-.29-.23-.86.82-4,.86-4.17,1.37a2.81,2.81,0,0,0-.65-.07,3.21,3.21,0,0,0-1.35.31,3.65,3.65,0,0,1-1.49.31,4.46,4.46,0,0,1-.63-.05.31.31,0,0,0,.23-.11,12,12,0,0,1-2.16.19,12.3,12.3,0,0,1-2.49-.25c.78.36-1.5.24-2,.46l-2.16,0a73.46,73.46,0,0,1-8.51-.5c.16-.12.16-.16.06-.16s-.64.13-1,.13a.53.53,0,0,1-.4-.12l-.22-.19a6.93,6.93,0,0,0-2.34-.44l.26.1c-.09,0-.24-.07-.33-.11h-.09c-1.11-.41-1.18-.86-2.69-1.34-.09-.24,0-.08-.34-.45l-.31.18c-.62-.34-.62-.52-.46-.66a56.77,56.77,0,0,1-5.83-2.35l0,0-1.51-.74,0,0a57.6,57.6,0,0,1-10.94-7.2l-.25-.2h0a57.31,57.31,0,0,1-4.42-4.13l-.63-.65h0c-.61-.65-1.21-1.32-1.8-2l-.06,0c-.3-.35-.59-.72-.88-1.08l-.19-.23c-.61-.76-1.22-1.54-1.81-2.34h0a62.84,62.84,0,0,1-4.37-6.89l0,0c-.3-.54-.59-1.08-.87-1.63l0,0c-.41-.79-.81-1.59-1.2-2.41v0l0,0c-.34-.76-.67-1.52-1-2.29h0q-1.18-2.79-2.14-5.63c-.39-1.06-.76-2.12-1.11-3.2a57.5,57.5,0,0,1-2.43-11.61l.1.2c-.53-3.18-.19-6.6-.47-9.65l.21.18c0-.25,0-.49,0-.74h-.37c-5.3,0-13.14,4.4-13.14,4.4s6.45-6.16,2.19-12.65c4.06-3.1,4.05-9.23.92-9.23a5.2,5.2,0,0,0-3,1.4,32.41,32.41,0,0,1-11.77,6c.3-2.24-1.75-2.79-3.85-2.79a19.89,19.89,0,0,0-4.22.54c-1.11-3.58-5.84-4.43-10.09-4.43a39,39,0,0,0-4,.22v0l0,0c-2,.21-3.31.48-3.31.48,3.67-2.85,7-5,10.18-11C27.81,109,24,107.52,24,107.52s10.54-4.75,11.54-11.31c.44-2.94-3.86-6.54-3.86-6.54,3-3.56,20.15-3.48,18.32-8.56a9,9,0,0,0-6.28-5.64c5.49-3.64-4.56-7.28-4.56-7.28,3.89-3.75-7.19-5.92-7.19-5.92,11-2.8,12.65-3.58,16.45-7a23.51,23.51,0,0,0,3.83.37c5.2,0,4.19-3,3.68-6.17a5.46,5.46,0,0,0,1.06.12c3.53,0,2.55-4.86,2.55-4.86,5.86,4.65,27.22,5.72,31.61,26.72.87,4.1,1.35,8,2.3,10a19,19,0,0,0,2.34-4,.24.24,0,0,0,.13,0c.22,0,.28-.44.49-.44h0c.33-.78,1.09-1.55,1.24-2.13.29-.11.44-.33.77-.33a.94.94,0,0,1,.34.07,4.63,4.63,0,0,1,1.31-2v.1a3.49,3.49,0,0,1,1.59-1.3c0-.66.81-.94,1.27-1.42a4.55,4.55,0,0,1,.09-.73c.08-.73.2-1.45.35-2.17a.64.64,0,0,0,0-.07c.1-.45.19-.9.31-1.35l0,.06c.07-.26.15-.52.23-.77V65l0,0a1.8,1.8,0,0,0,.08-.21c-.12-.1.18-.58.18-.82v.14a5.08,5.08,0,0,1,1.09-2l.4-.43a8.7,8.7,0,0,1,.9-1,2.73,2.73,0,0,0,.23-.25h.07a6.13,6.13,0,0,1,.76-.53l.36-.21a5.55,5.55,0,0,1,.71-.32l.16-.07a2.77,2.77,0,0,1,.85-.2l.31,0c1.46,0,2.87,1.5,3.81,2.8L114,62a7.33,7.33,0,0,1,.86,1.07,5.68,5.68,0,0,0,.65-.85v.19a31.07,31.07,0,0,1,2.68-3.16v.07l.68-.79.09-.15v0c.94-1.11,1.83-2.18,2.68-3.21,0-.18.5-.57.55-.83v.16a20.19,20.19,0,0,1,2.28-2.78l.94-1.16q.18-.26.33-.51h.07c.67-.85,1.08-1.45,1.76-2.27s1.46-1.81,2.19-2.7l1.06-1.38h0m-13,27.16c.21-.21.43-.41.63-.6a11.87,11.87,0,0,0-.89,1l0-.1c-1.48,1.68-3,3.34-4.45,4.95.41-.4.82-.8,1.24-1.19-1,1.12-2,2.29-3,3.5h0c-.15,0-.44.52-.61.52-.16.22-.35.45-.54.68.33,1.24.71,2.47,1.05,3.69a.17.17,0,0,0-.16-.11l-.09.22c.25.38.18.82.36,1.16h-.07c.15.37.11.78.27,1.15h0l0,.06.23.24a50.15,50.15,0,0,1,9.81-2.31A85.71,85.71,0,0,1,132.48,83h.26v.13h.63a33.75,33.75,0,0,1,7.94,1c2.83.65,5.57,1.47,8.23,2.18l.41.18c.63-.31,1.28-.6,1.94-.85A28.25,28.25,0,0,1,158.14,84v.07l.6,0a8.69,8.69,0,0,1,2,.23,21,21,0,0,1,2,.6,15.92,15.92,0,0,0-1.09-4.65.13.13,0,0,0,.14.07l.18,0-.16-.19L161.7,80l.08-.08a1.65,1.65,0,0,1-.48-.85,1.79,1.79,0,0,0-.43-.8H161a2.88,2.88,0,0,1-.44-.83,2.91,2.91,0,0,0-.46-.75h0s0,0,0-.06c-.53-.17-1.22-.21-1.68-.35a12.27,12.27,0,0,0-4.17-3.47,11,11,0,0,0-5.11-1.26h-.07c0-.2-.19-.26-.42-.28s-.46,0-.53-.18h-2.8a2.85,2.85,0,0,0-.7.12c-.49-.18-1-.08-1.33-.64a14.42,14.42,0,0,1-3.38.77l.09-.09a8.09,8.09,0,0,1-2.29.34c-.26,0-.51,0-.77,0a2.67,2.67,0,0,1-1.5.45h-.26l-.63,0a11.92,11.92,0,0,0-1.46.09l-.64-.13-.5-.17h-.29l-.29-.13c-.19-.08-.37-.18-.55-.27-.73-.39-1.42-.83-2.07-1.22.06-.06.06-.16.06-.31a.52.52,0,0,1-.21,0c-.57,0-1.17-.76-1.54-.76a.23.23,0,0,0-.17.07c-.33-1-1-.16-1.49-1.09,0,0,0,0,0,0h0a.07.07,0,0,0,.06,0c-.39-.22-1.36-.88-1.52-1.45,0,.16,0,.22-.09.22s-.56-.23-.78-.23h-.07a7.86,7.86,0,0,0-.94-.41c-.77.93-1.54,1.85-2.34,2.74a.19.19,0,0,0,0-.23q1.08-1.26,2.1-2.58h0c-1.24,1.45-2.5,2.91-3.77,4.35l-.38.42m-7.94-2.17a.85.85,0,0,0-.46.3c0-.07-.08-.07-.08-.07a.33.33,0,0,1,0,.24l-.12.21s0,0,0,.06v0a10,10,0,0,1,.69-.77M94,82.09a.08.08,0,0,0-.08,0h0l-.1.11.06.1a12.21,12.21,0,0,0,1.31,1.44c2.24-2,4.53-4.2,6.82-6.52a.36.36,0,0,1,.06-.13,7.62,7.62,0,0,0,1-1.1,11.63,11.63,0,0,1-.2-1.39h.1v0l-.11-.33H103c-.16-.7,0-1.68-.16-2.21l.08.08c0-.19,0-.38,0-.57-.87.83-1.72,1.67-2.67,2.47-1.91,2.76-3.29,5.53-5.91,7.67a3.83,3.83,0,0,0-.28.29.92.92,0,0,1,0,.15M203.88,85h0a1.65,1.65,0,0,1,.27.19,5,5,0,0,1,.48.32.48.48,0,0,1,.11.09l0,0A1.32,1.32,0,0,0,204,85a4,4,0,0,0-1.62-.93c-.6-.19-1.21-.37-1.83-.51h-.39v0a4.48,4.48,0,0,1,.72.11,10.1,10.1,0,0,1,1.1.36h0a10.93,10.93,0,0,1,1.91.94m-103.4,4a52.27,52.27,0,0,0,4.45-4.25l0-.08c-1.2,1.2-2.33,2.29-3.33,3.21-.41.37-.79.72-1.16,1l.06.08m1.07,1.56c.44-.27.89-.55,1.31-.83l.14.12c.79-.43,1.59-.84,2.4-1.24A17.67,17.67,0,0,0,105,84.9a3.22,3.22,0,0,1-.28.24c-.32.7-1.33,1.31-1.79,2-.64.6-1.51,1.32-2.32,2,.12.15.23.31.33.46.23.32.45.66.66,1M153,87.86l.69-.36-.34.38c.94-.36,1.92-.82,2.83-1.15s1.91-.74,2.91-1c.64-.2,1.28-.36,1.93-.5l-.4-.08-1-.15a14.08,14.08,0,0,0-1.45-.07,15.16,15.16,0,0,0-7.33,1.9c.73.33,1.45.68,2.16,1m43.88-1.21a5.06,5.06,0,0,0,.46-.24l.05,0a1.09,1.09,0,0,0-.25.1l-.26.17m8.59.13c.15,0,.09-.15.09-.27l0,0c0,.1-.05.19-.07.29m-.23.9c.22,0,.05-.3.24-.3h0c.07-.08-.12,0-.06-.13a.07.07,0,0,1,.06,0h.06s0,0,0-.07h-.07c.14,0-.06-.17-.11-.28-.07.27-.13.53-.21.8h0m30.27,59.43h0c0-.34,0-.68,0-1,0,.34,0,.68,0,1m-19.41,43.1-.12.12.12-.12c.33-.33.67-.66,1-1-.33.35-.67.68-1,1m-1.26,1.23-.29.27-.54.49.54-.49.29-.27m-19.67,12.31.73-.21a31.07,31.07,0,0,0,8.18-4l.11-.07a56.35,56.35,0,0,1-9,4.28m-44.61-2,.4-.17-.42-.18-.4.17.42.18m-4.66,1.38v0c-1.65.53-3.31,1-5,1.45l0,.05q-.81.21-1.65.39l0-.06c-1.16.26-2.33.5-3.5.7l-.21.14c-1.36.24-2.73.43-4.08.57a27,27,0,0,0,6.25-1,52.9,52.9,0,0,0,11.68-3.13l-.5-.2-1.48.54v.05c-.52.18-1,.35-1.52.51m24,3.69a61.12,61.12,0,0,1-16.5-4.18l-1.17-.5-.35.18,1,.41c1.19.46,2.37.88,3.56,1.3,2.41.77,4.83,1.52,7.3,2.1q3.06.5,6.13.69m-56.5-1c.19,0,.21-.13.38-.13h.07c.89.24-.19.3,1,.45l.18-.15a.66.66,0,0,0,.49.16,5.43,5.43,0,0,0,1-.15l-.29,0v0c-.45-.07-.9-.14-1.35-.23l-.07,0-.6-.13-.37-.08c-.64-.13-1.27-.28-1.9-.43l-1.08-.28-.31-.08h0l0,0a3.27,3.27,0,0,0,1.11.37c.71.14,1.42.26,1.42.63a1.16,1.16,0,0,0,.43.12m16.51.52h.56c.31,0,.61,0,.91,0l-.08-.09-1.39.13m-10.49.06.34,0c-.49,0-1-.11-1.48-.16a3.67,3.67,0,0,0,1.14.18m9.23-148.37h0v0M118.51,70.23l-.07.06.07-.06m41.57,6.37,0,.05a.23.23,0,0,1,0-.05m1.52,3.53.05.1a.23.23,0,0,1-.05-.1m-50.34,3.16h0m83.39,3.58h0m21.1,105a1,1,0,0,1-.15.14l.15-.14M112.34,206.43h0m18.52-170.7h-.21a8,8,0,0,0-6.16,3.14l-1,1.26-.61.75c-.51.62-1,1.26-1.56,1.94s-.84,1.07-1.17,1.5l-.13.17A7.41,7.41,0,0,0,119,45.85l-.58.71c-.1.11-.2.21-.29.32-.52.56-1.11,1.21-1.7,2a8,8,0,0,0-1,1.3c-.09.11-.18.24-.28.39-.35.42-.71.86-1.08,1.29a10.49,10.49,0,0,0-4-.79,11.27,11.27,0,0,0-1.16.06,11,11,0,0,0-3,.72l-.33.14a14,14,0,0,0-1.3.6c-.28.15-.56.3-.84.48s-.55.35-.81.54A8,8,0,0,0,100.94,55h0a14.59,14.59,0,0,0-1.29,1.41l-.31.34a13.12,13.12,0,0,0-2.26,3.59,8.87,8.87,0,0,0-.6,1.61l0,.11C90.24,48.32,77.1,43.41,69.54,40.59a36.22,36.22,0,0,1-5.1-2.15,8.61,8.61,0,0,0-5.3-1.87A7.47,7.47,0,0,0,55,37.78a8,8,0,0,0-3.49,5,7.93,7.93,0,0,0-3.34,4.51,8,8,0,0,0-5.17,2c-2.44,2.2-2.88,2.6-13.07,5.2a8,8,0,0,0,.44,15.6l1,.24a8,8,0,0,0,4.26,5,8.51,8.51,0,0,0,.12,1.42,7.88,7.88,0,0,0,.78,2.31c-4.42,1-8.46,2.31-11,5.36a8,8,0,0,0-1.91,5.88,7.87,7.87,0,0,0,2.86,5.41l.28.26a22.74,22.74,0,0,1-6.12,4.19A8,8,0,0,0,16,107.8a7.86,7.86,0,0,0,1.11,3.79,24.47,24.47,0,0,1-4.92,4.48L11,117a8,8,0,0,0,4.9,14.32,7.77,7.77,0,0,0,1.58-.16h0s.92-.18,2.26-.33c.22,0,.43,0,.64-.06,1-.1,1.95-.15,2.83-.15a13.64,13.64,0,0,1,3.08.28,8,8,0,0,0,9,3.9l.24-.05c.19.2.38.39.59.58a8,8,0,0,0,5.26,2,7.87,7.87,0,0,0,2.1-.28,40,40,0,0,0,5-1.7l.14.22c.47.73-.84,2.25-1.09,2.53a7.85,7.85,0,0,0-1,10.47,7.94,7.94,0,0,0,6.5,3.29,8.2,8.2,0,0,0,4-1.06c.53-.29,1.12-.59,1.73-.89a2.07,2.07,0,0,0,0,.35,65,65,0,0,0,2.77,13.23c.33,1.06.72,2.18,1.17,3.41.64,1.9,1.35,3.78,2.11,5.59.06.18.13.36.2.53.35.81.69,1.61,1,2.41.1.22.21.44.33.65.28.58.55,1.13.81,1.63.08.2.17.39.26.58.31.6.64,1.22,1,1.88a7.74,7.74,0,0,0,.42.68,70.81,70.81,0,0,0,4.4,6.86l.1.15c.61.82,1.25,1.66,2,2.64l.17.2,0,.07.19.24c.27.32.53.65.81,1s.32.36.49.53c.44.5.89,1,1.34,1.49.06.08.13.15.2.23s.4.43.61.64l.16.16c1.51,1.56,3.1,3.06,4.74,4.46l.31.28.19.15.07.06a65.42,65.42,0,0,0,11.66,7.78,8.6,8.6,0,0,0,.84.47l1.51.74a6.68,6.68,0,0,0,1,.41c1.21.55,2.43,1,3.65,1.52a10.69,10.69,0,0,0,1.34.87,8.15,8.15,0,0,0,1.13.51c.24.11.48.21.74.3a11.86,11.86,0,0,0,2.55,1.29,8.83,8.83,0,0,0,1,.3,8.46,8.46,0,0,0,1.47.28,8.84,8.84,0,0,0,3.42.68h.18a79.65,79.65,0,0,0,9.27.54c.8,0,1.61,0,2.4,0a8,8,0,0,0,1.39-.17h.07q.56,0,1.05-.12c.58.05,1.16.08,1.74.08s1.08,0,1.62-.07c.31,0,.62,0,.94,0a11.61,11.61,0,0,0,3.56-.55,7.9,7.9,0,0,0,3.2-.7c.63-.12,1.36-.27,2.14-.5a7.54,7.54,0,0,0,.93-.16c2.32-.56,4.65-1.22,7-2l.07,0c.61.2,1.22.37,1.85.51l.75.32c.53.21,1.11.44,1.84.7a27.55,27.55,0,0,0,3.56,1.08l.36.11c.76.21,1.58.4,2.59.6l.34.07c.64.12,1.35.27,2.11.38a27.36,27.36,0,0,0,3.14.31,15.22,15.22,0,0,0,4.27.86h1.15c2.46,0,4.95-.11,7.4-.34h.32a12.89,12.89,0,0,0,1.33-.07l.75,0a8.11,8.11,0,0,0,1.54-.15,99.86,99.86,0,0,0,13-3.48A82.79,82.79,0,0,0,209,207.17a7.94,7.94,0,0,0,2.31-1.45c.3-.27.6-.57.9-.87q.21-.21.39-.42l.58-.67.27-.31c.23-.16.45-.3.66-.43l.08-.05c.4-.24.8-.49,1.18-.74l0,0a7.92,7.92,0,0,0,1.78-1.29,5.09,5.09,0,0,1,.58-.46c.13-.08.25-.17.36-.25a18.88,18.88,0,0,0,1.74-1.48,7.21,7.21,0,0,0,1-.76c.18-.15.35-.31.51-.47a69.24,69.24,0,0,0,12.87-17.11c.79-1.4,1.44-2.76,2.07-4.08l.32-.65.1-.22,1-2.24.25-.56c.06-.13.12-.27.17-.41l.12-.29.08-.21,0-.08.4-1c.55-1.36,1-2.68,1.41-4l.34-1a3,3,0,0,0,.1-.32l.68-2.31q.15-.51.27-1a8.3,8.3,0,0,0,.57-1.95l.18-1.15c0-.18.06-.35.08-.5a.36.36,0,0,0,0-.1,55.44,55.44,0,0,0,1.25-9.16c.06-.23.12-.45.16-.69a8.06,8.06,0,0,0,.11-2.14.89.89,0,0,1,0-.23c0-.23,0-.45,0-.68l0-.33V145a10.94,10.94,0,0,0,0-3c0-.16,0-.31,0-.46a76.94,76.94,0,0,0-4.47-21.42,7.22,7.22,0,0,0-.43-1c-.44-.83-.87-1.69-1.3-2.56-.83-1.67-1.69-3.39-2.71-5.17a45.59,45.59,0,0,0-3.44-5.27A65.05,65.05,0,0,0,215,89.89l-.09-.12a13.36,13.36,0,0,0-1.14-1.44,9.79,9.79,0,0,0,.07-1.08c0-.22,0-.45,0-.67v-.21a8,8,0,0,0-.82-3.54,10.16,10.16,0,0,0-2.83-3.48,7.67,7.67,0,0,0-1.4-1.14,7.83,7.83,0,0,0-1.44-.81,13.23,13.23,0,0,0-1.54-.84,6.9,6.9,0,0,0-1.1-.41,16.81,16.81,0,0,0-3.72-.8h-1.4a8,8,0,0,0-6.49,3.33l0,.06h-.57a7.44,7.44,0,0,0-1.56.16l-.28,0A39.85,39.85,0,0,0,186,77.87a7.9,7.9,0,0,0-2.75-.51h-.1a5.57,5.57,0,0,0-.71-.14,12.8,12.8,0,0,0-1.55-.16,67.37,67.37,0,0,0-9.28-.67c-.61,0-1.22,0-1.82,0-.29-.66-.61-1.31-.94-2a15,15,0,0,0-6-6.49l-.07,0a20,20,0,0,1-2.4-1.6,20.57,20.57,0,0,0-5.26-3.08l-.14,0a23.34,23.34,0,0,0-5.58-1.36h-.15l-.94-.09a6.62,6.62,0,0,0-.77,0h-2.8a6.56,6.56,0,0,0-.76,0,33.62,33.62,0,0,0-4.1.65,35.29,35.29,0,0,0-3.7.47l-.09,0c-.32.06-.66.11-1,.15.51-.6.93-1.18,1.28-1.68a8.8,8.8,0,0,0,.65-.72,6.55,6.55,0,0,0,.39-.53,10.52,10.52,0,0,0,.88-1.17,1.13,1.13,0,0,0,.1-.13c.41-.61.83-1.21,1.25-1.82.88-1.26,1.79-2.56,2.67-4a7.46,7.46,0,0,0,.64-1.26c.09-.21.19-.42.29-.63s.32-.71.47-1.08A8,8,0,0,0,144.3,47v-.12a8,8,0,0,0-3-6.25l-.1-.08a25.35,25.35,0,0,0-4.39-2.81,26.32,26.32,0,0,0-3-1.4,7.82,7.82,0,0,0-2.95-.57Z" style="fill:#fff"/></svg>