<?xml version="1.0" encoding="utf-8"?>
<!-- Generator: Adobe Illustrator 24.3.0, SVG Export Plug-In . SVG Version: 6.00 Build 0)  -->
<svg version="1.1" id="Layer_1" xmlns="http://www.w3.org/2000/svg" xmlns:xlink="http://www.w3.org/1999/xlink" x="0px" y="0px"
	 viewBox="0 0 252 252" style="enable-background:new 0 0 252 252;" xml:space="preserve">
<style type="text/css">
	.st0{fill:#AD1544;}
	.st1{fill:#99123A;}
	.st2{fill:#B61643;}
	.st3{fill:#CD1948;}
	.st4{fill:#660C21;}
	.st5{fill:#8C6743;}
	.st6{fill:#75512E;}
	.st7{fill:#C6A178;}
	.st8{fill:#BA936C;}
	.st9{fill:#D96F4C;}
	.st10{fill:#E97F59;}
	.st11{opacity:0.3;fill:#F9A683;}
	.st12{fill:#872823;}
	.st13{fill:#660C11;}
	.st14{opacity:0.18;fill:#FFFFA7;enable-background:new    ;}
	.st15{opacity:0.35;fill:#FFFFFF;enable-background:new    ;}
</style>
<g id="be243755-e70b-4f6c-bb4c-9b5af584c5a2">
	<path class="st0" d="M118.5,106.6c-0.6-4-1.4-8-2.2-12c-1.4-7.3-4-16.7-12.5-20.1c-7.7-3-17.3-2-25.3-0.4
		c-3.5,0.7-6.9,2.3-10.1,3.8c-2.1,0.9-4.2,1.9-6.4,2.6s-4.2,1.2-6.4,1.7c-6.8,1.6-12.9,5-17.9,9.9c-11.8,11.7-12.8,35.3-8.8,52.6
		c4.6,20,13.2,38.4,31.3,47.6c19.1,9.8,43.5,8.4,61.4-1.7C131.9,184.8,121.8,127.6,118.5,106.6z"/>
	<path class="st1" d="M114.9,98.2c-1.7-2.7-3.4-5.4-5.2-8c-1.6-2.3-3.2-4.4-4.7-6.8s-30.2,3.5-32.8,4.4
		c-19.7,7.4-16.8,51.5-13.5,62.6c2.7,9.1,13.6,50.5,42.2,47.3c4.5-0.5,8.5-2.9,11.9-6c6.8-6.2,11.6-15.2,13.8-24.5
		c2.7-11.3,2.3-23.4,0.6-35C125.3,120.3,121.1,108.7,114.9,98.2z"/>
	<path class="st2" d="M160.6,118.2c-2.6-10.1-7.2-19.5-13.5-26.9c-12.3-14.5-33.9-29.2-55.2-16.2c-7.5,4.5-20.8,11.5-26.2,23.9
		c-5.3,12.2-4.6,46,9.3,71.6c15.7,28.8,32.3,28.9,62.7,16c11.8-5,18.6-16.2,22.2-26.7C164.2,147.3,164.3,132.1,160.6,118.2z"/>
	<path class="st1" d="M149.4,167.9c3.6-12.4,3.4-27.5-0.1-41.5c-2.6-10.1-9.3-24.3-14.6-32.1c-20.9-31-52.7-13.7-42.7-19.4
		c21.8-12.4,42.9,1.8,55.2,16.2c6.3,7.3,10.9,16.8,13.5,26.8c3.7,14,3.6,29.1-0.6,41.6c-3.2,9.4-9,19.4-18.6,24.9
		C145,179.5,147.7,173.9,149.4,167.9z"/>
	<path class="st3" d="M30.5,125.2c-0.1-19,4.3-27.3,15.2-31.5c4.5-1.7,15.4,2.2,6.3,17.9c-5.8,9.9-5.2,20.5-3,43.1
		c1,11-6,10.8-10,3.5C31.8,145.2,30.6,135.2,30.5,125.2z"/>
	<path class="st3" d="M67.1,137.2c-1.3-7.7-4.9-25.4,7.5-38.1c9.4-9.8,35-16.8,38.4,2.5c2.2,12.7-13,23.9-10,47.2
		c1.7,13.3-15.9,27.4-22.4,19.6c-5.9-7-10.1-15.4-12.2-24.3C68,141.8,67.5,139.5,67.1,137.2z"/>
	<path class="st1" d="M69.4,86.8c0-1.3,0.2-2.7,0.4-4c0.3-1.7,1.3-3.2,2.8-4.1c2.7-1.3,5.7-1.9,8.7-1.7c2.4,0.1,5.8,0.7,7,3.3
		c1.5,3.1-1.4,5.9-3.6,7.3c-1.9,1.1-3.9,2-6,2.6c-1.3,0.4-2.6,0.8-4,1c-3.3,0.1-6.3,2-7.6,5C65.5,99.4,69.4,88.9,69.4,86.8z"/>
	<path class="st4" d="M78,79.8c1.7-0.3,3.3,0.6,4,2.1c0.8,2-0.7,3.9-2,4.7c-5.8,3.6-7.8,3-8,2.7C69.9,85.7,74.7,80.5,78,79.8z"/>
	<path class="st3" d="M54.5,182.6c-0.2,1.5,2,3.1,2.9,3.9c1.7,1.4,3.5,2.6,5.4,3.6c1.9,1.1,3.9,2.1,6,3c1,0.4,2,0.8,3,1.1
		s2.2,0.9,3.2,0c0.3-0.3,0.4-0.8,0.2-1.2c-0.5-0.7-1.2-1.2-2.1-1.3c-0.4-0.1-0.7-0.2-1.1-0.3c-0.8-0.2-1.6-0.5-2.4-0.8
		c-1.9-0.7-3.7-1.6-5.5-2.5c-1.8-0.9-3.5-2-5.2-3.1c-0.8-0.5-1.5-1-2.3-1.6c-0.5-0.5-1-0.8-1.7-1.1
		C54.7,182.3,54.5,182.4,54.5,182.6C54.5,182.6,54.5,182.6,54.5,182.6L54.5,182.6z"/>
	<path class="st3" d="M148.6,102.3c-0.6,1.5,0.5,3.3,1,4.7c0.4,1,0.7,2.1,1,3.1c0.7,2,1.3,4.1,1.8,6.2c1,3.9,1.7,7.8,2.2,11.8
		c0,0.9,0.8,1.7,1.7,1.6c0.9,0,1.7-0.8,1.6-1.7c0-0.1,0-0.2,0-0.3c-0.5-4.2-1.3-8.3-2.4-12.4c-0.6-2.3-1.3-4.5-2.2-6.7
		c-0.5-1.2-1-2.5-1.6-3.7s-1.1-2.7-2.3-3C149,101.9,148.7,102,148.6,102.3L148.6,102.3z"/>
	<path class="st3" d="M157.3,135c-0.5,1.5-0.8,3-0.9,4.6c-0.1,1.4-0.2,2.9-0.4,4.3c-0.2,1.5-0.4,3-0.7,4.5c-0.3,1.3-1.1,2.7-0.2,3.9
		c0.3,0.4,0.8,0.6,1.3,0.5c1.7-0.4,1.9-3.7,2.1-5.1s0.4-2.9,0.5-4.3c0.2-2.6,0.7-5.6-0.1-8.2c-0.1-0.4-0.6-0.7-1-0.6
		C157.6,134.6,157.4,134.8,157.3,135L157.3,135z"/>
	<path class="st5" d="M71.7,75.9c2.1,4,3.9,12.8,3.9,12.9l0.7-0.2l1-0.4c0.3-0.1,0.6-0.2,0.9-0.4c0.6-0.3,1.3-0.7,1.8-1.1
		c0.4-0.3,0.8-0.6,1.1-0.9c-0.3-3.3-1.7-6.6-3-9.7c-1.6-3.5-3.5-6.9-5.9-10c-2.5-3.4-5.4-6.6-8.6-9.5l0.2-0.3c0.3-0.7,0.1-1.5-0.5-2
		c-0.6-0.4-1.3-0.8-2-1.1c-0.8-0.4-1.7-0.1-2.1,0.7c0,0,0,0,0,0c-0.8,1.3-1.9,2.4-3.3,3.1c-0.7,0.5-1,1.5-0.6,2.2
		c1,2.5,1.5,2.1,3.7,2.4s5.9,4.7,7.3,6.5C68.4,70.6,70.2,73.2,71.7,75.9z"/>
	<path class="st6" d="M62.4,57.9c3.2,2.9,6,6,8.6,9.5c2.3,3.1,4.3,6.5,5.9,10c1.5,3,2.5,6.2,3,9.4l0.1-0.1c0.4-0.3,0.8-0.6,1.1-0.9
		c-0.3-3.3-1.7-6.6-3-9.7c-1.6-3.5-3.5-6.9-5.9-10c-2.5-3.4-5.4-6.6-8.6-9.5l0.2-0.3c0.3-0.7,0.1-1.5-0.5-2c-0.6-0.4-1.3-0.8-2-1.1
		c-0.8-0.4-1.7-0.1-2.1,0.7c0,0,0,0,0,0c-0.1,0.1-0.2,0.3-0.2,0.4c0.4-0.1,0.8-0.1,1.2,0.1c0.7,0.3,1.4,0.7,2,1.1
		c0.5,0.5,0.7,1.3,0.4,2C62.5,57.7,62.5,57.8,62.4,57.9z"/>
	<path class="st7" d="M57.2,59.5c1.2-0.4,2.2-1.1,3.1-2L57.2,59.5z"/>
	<path class="st7" d="M57.3,60.2l-0.5-0.3c0.1,0.2,0.4,0.4,0.7,0.3c1.4-0.1,2.3-1.1,3.4-2s-0.3-2.2-1.3-1.5
		c-0.4,0.4-0.8,0.8-1.3,1.1s-1,0.5-1.4,0.9S56.6,60.1,57.3,60.2L57.3,60.2z"/>
	<path class="st8" d="M70.6,72.2c0.4,1.8,1.7,3.3,2.5,5c0.8,1.8,1.4,3.6,1.8,5.5c0.3,1.1,1.8,0.5,1.6-0.6c-0.5-2-1.2-4-2.1-5.9
		c-0.8-1.5-1.7-3.4-3.1-4.4C71,71.6,70.5,71.8,70.6,72.2z"/>
	<path class="st1" d="M224.9,142.2c1-10.4,0-20.8-3.4-29.9c-3.5-9.4-9.2-19.6-17.5-26.5c-6.2-5.2-13.8-8.6-22.8-8.3
		c-0.3,0-0.7,0-1,0c-5.5-2.5-11.3-4.2-17.3-4.9c-3.6-0.5-7.2-0.2-10.8,0c-2.3,0.1-4.6,0.3-6.9,0.2s-4.4-0.3-6.6-0.6
		c-6.9-0.8-13.9,0.3-20.2,3.1c-15.1,6.9-24.2,28.7-26.4,46.3c-2.6,20.3-0.9,40.5,12.9,55.5c12.8,13.9,32.2,21,50.5,20.4
		c6.8,1.3,14.9,1.4,24.4,1c12.8-0.6,23-8.8,30-17.4c7.3-9,12.2-21,14.3-33.5C224.5,145.9,224.7,144.1,224.9,142.2z"/>
	<path class="st9" d="M104.8,96c-4.2,8.4-7,17.4-8.1,26.8c-2.3,18.9-1,37.7,10.8,51.5c10.9,12.8,27.6,19.3,43.3,18.6
		c5.8,1.1,12.8,1.2,21,0.8c2.2-0.1,4.4-0.6,6.5-1.2C105.4,181.3,101.9,124.3,104.8,96z"/>
	<path class="st10" d="M208.2,113.2c-2.9-8.7-7.8-18.1-14.9-24.5c-5.3-4.8-11.8-7.9-19.5-7.6h-0.9c-4.7-2.3-9.7-3.8-14.9-4.5
		c-3.1-0.3-6.2-0.3-9.3,0.1c-2,0.1-4,0.3-6,0.2s-3.8-0.3-5.7-0.5c-6-0.7-12,0.3-17.4,3c-6.1,3-11.1,9.1-14.9,16.4
		c-2.9,28.3,0.6,85.3,73.5,96.3c8-2.6,14.6-8.7,19.4-15.1c6.3-8.4,10.7-19.6,12.5-31.2c0.3-1.7,0.5-3.4,0.6-5.1
		C211.9,131.6,211,122.2,208.2,113.2z"/>
	<path class="st11" d="M149.9,97.3c-8.2,4.5-15.8,12-19.2,18.5c-4.2,8.1-6.3,16.2-3.4,25.1c2.9,8.8,6.9,17.4,17.3,25.9
		c0.7,0.5,3.6,1.1,5.1,1c2.9-0.2,10.8-7,11.7-8.1c3.8-4.5,8.2-8.9,10.5-13.9c3.1-6.7,3.4-14.4,0.9-21.3c-2.9-8.3-6.9-18.5-16.2-26.4
		c-1.1-0.9-4.6-1.3-6.6-0.8C150,97.3,149.9,97.3,149.9,97.3z"/>
	<path class="st12" d="M161.7,128.4c-1.8-6.1-8-14.1-11.4-14.6c-1.6-0.2-13.1,8.6-12.1,20.1c0.5,6.4,3.4,13.2,9.8,17
		c0.8,0.5,1.7,0.6,2.5,0.2C159.8,147.1,164.1,136.8,161.7,128.4z"/>
	<path class="st13" d="M161.7,128.4c-1.8-6.1-8-14.1-11.4-14.6c-0.4,0-0.9,0.2-1.2,0.4c3.5,2.1,8.3,8.7,9.8,14
		c2.4,8.3-1.9,18.6-11.1,22.6l0.1,0.1c0.8,0.5,1.7,0.6,2.5,0.2C159.8,147.1,164.1,136.8,161.7,128.4z"/>
	<path class="st14" d="M148.4,123.7c-1.3-2.4-4.1-2.8-5.8-0.6c-2.5,3.5-3.7,7.8-3.4,12.1c0.2,4.1,1.8,8,4.5,11.1
		c2,2.4,4.7,2.1,6.4-0.4C153.5,141,149.4,125.6,148.4,123.7z"/>
	<path class="st15" d="M145.2,143.8c0.1-0.4,0.2-0.9,0.1-1.3c-0.2-0.7-0.4-1.4-0.8-2c-0.3-0.5-0.5-1-0.7-1.6
		c-0.2-0.6-0.1-1.1-0.6-1.6c-0.4-0.4-1.1-0.4-1.5,0c-1,0.9-0.4,2.4,0.2,3.4c0.4,0.7,0.9,1.4,1.5,2c0.4,0.4,0.8,0.8,1.2,1.2
		c0.1,0.2,0.4,0.2,0.5,0C145.1,144,145.2,143.9,145.2,143.8L145.2,143.8z"/>
	<path class="st15" d="M143,135.6c0.2-0.3,0.4-0.7,0.4-1.2c0-0.4-0.3-0.8-0.7-0.8c-0.4-0.1-0.8,0.1-1,0.5c-0.1,0.4-0.1,0.9,0.1,1.3
		c0.1,0.2,0.3,0.4,0.6,0.4C142.6,135.9,142.9,135.8,143,135.6L143,135.6z"/>
	<path class="st3" d="M219,123.4c-1.1,1.2-0.7,3.2-0.7,4.8c0,1.1,0,2.2-0.1,3.2c-0.1,2.1-0.2,4.3-0.4,6.4c-0.4,4-1.1,7.9-2,11.8
		c-0.2,0.9,0.3,1.8,1.2,2s1.8-0.3,2-1.2c1-4.1,1.7-8.2,2-12.4c0.2-2.3,0.3-4.7,0.3-7c0-1.3-0.1-2.7-0.2-4s-0.1-2.9-1.1-3.7
		C219.7,123.1,219.3,123.1,219,123.4L219,123.4z"/>
	<path class="st3" d="M215.9,157c-1,1.2-1.8,2.5-2.4,4c-0.6,1.3-1.2,2.6-1.9,3.9c-0.7,1.4-1.4,2.7-2.2,4c-0.7,1.1-1.9,2.1-1.5,3.6
		c0.1,0.5,0.5,0.8,1,0.9c1.7,0.2,3.1-2.8,3.7-4s1.3-2.6,2-3.9c1.1-2.4,2.6-5.1,2.7-7.7c0-0.5-0.3-0.9-0.7-0.9
		C216.4,156.8,216.1,156.9,215.9,157L215.9,157z"/>
</g>
</svg>
