<svg xmlns="http://www.w3.org/2000/svg" xmlns:xlink="http://www.w3.org/1999/xlink" viewBox="0 0 252 252"><defs><filter id="a5e24901-e727-4eeb-bb4b-6866218b0e68" x="100.57" y="-8317" width="57.39" height="32766" filterUnits="userSpaceOnUse" color-interpolation-filters="sRGB"><feFlood flood-color="#fff" result="bg"/><feBlend in="SourceGraphic" in2="bg"/></filter><mask id="a7dd7d83-7402-48cb-ae1d-64af62dad239" x="100.57" y="-8317" width="57.39" height="32766" maskUnits="userSpaceOnUse"><g style="filter:url(#a5e24901-e727-4eeb-bb4b-6866218b0e68)"/></mask><linearGradient id="b46c8cfb-bf67-43b6-bc1b-6005b7898009" x1="140.16" y1="70.76" x2="96.74" y2="126.93" gradientUnits="userSpaceOnUse"><stop offset="0"/><stop offset="0.5" stop-color="#fff"/><stop offset="1"/></linearGradient><filter id="a4a23cc5-fbd5-4cd4-a81c-40c0fc0c5b22" x="133.27" y="-8317" width="67.29" height="32766" filterUnits="userSpaceOnUse" color-interpolation-filters="sRGB"><feFlood flood-color="#fff" result="bg"/><feBlend in="SourceGraphic" in2="bg"/></filter><mask id="a5d8bd6c-be79-4c97-95f5-887751afcaf1" x="133.27" y="-8317" width="67.29" height="32766" maskUnits="userSpaceOnUse"><g style="filter:url(#a4a23cc5-fbd5-4cd4-a81c-40c0fc0c5b22)"/></mask><linearGradient id="be549ab6-0026-469f-8a40-83fbc3513fb4" x1="1569.76" y1="-464.76" x2="1526.34" y2="-408.58" gradientTransform="translate(1779.44 4.19) rotate(-169.58)" xlink:href="#b46c8cfb-bf67-43b6-bc1b-6005b7898009"/><linearGradient id="fc21359a-16e8-46f1-8458-efa3d816d031" x1="-62.09" y1="31.64" x2="-52.63" y2="31.64" gradientTransform="translate(103.72 20.73) rotate(-24.07)" gradientUnits="userSpaceOnUse"><stop offset="0" stop-color="#8d9308"/><stop offset="1" stop-color="#816c37"/></linearGradient><linearGradient id="a067eb0c-cf62-4cb8-97ca-98efabc5d511" x1="-58.34" y1="30.14" x2="-48.84" y2="30.14" xlink:href="#fc21359a-16e8-46f1-8458-efa3d816d031"/><linearGradient id="bc3dad10-d086-476a-843b-c905cc5a511a" x1="-65.51" y1="32.13" x2="-59.32" y2="32.13" xlink:href="#fc21359a-16e8-46f1-8458-efa3d816d031"/><radialGradient id="b11dac35-dfa0-423a-9d9a-20a8eef1e1f4" cx="153.11" cy="122.52" r="58.83" gradientUnits="userSpaceOnUse"><stop offset="0" stop-color="#fcc066"/><stop offset="1" stop-color="#ffd129"/></radialGradient><radialGradient id="b542efa4-42f2-469c-9f23-74502bbf1b1c" cx="138.58" cy="108.5" r="65.52" gradientUnits="userSpaceOnUse"><stop offset="0" stop-color="#9f3c1b"/><stop offset="0.19" stop-color="#9b3a1a"/><stop offset="0.4" stop-color="#8e3416"/><stop offset="0.61" stop-color="#792b11"/><stop offset="0.82" stop-color="#5c1d09"/><stop offset="0.88" stop-color="#521906"/></radialGradient><linearGradient id="eef10b0b-e94a-4126-8deb-937375955383" x1="107.16" y1="85.63" x2="279.07" y2="232.22" gradientUnits="userSpaceOnUse"><stop offset="0" stop-color="#f7941e"/><stop offset="1" stop-color="#f22a42"/></linearGradient><filter id="a9c558de-9f99-4e7a-be59-ff45bfc19b12" x="100.57" y="65.36" width="57.39" height="71.63" filterUnits="userSpaceOnUse" color-interpolation-filters="sRGB"><feFlood flood-color="#fff" result="bg"/><feBlend in="SourceGraphic" in2="bg"/></filter><mask id="af60748e-38bb-4b35-85e4-a34836310c57" x="100.57" y="65.36" width="57.39" height="71.63" maskUnits="userSpaceOnUse"><g style="mask:url(#a7dd7d83-7402-48cb-ae1d-64af62dad239);filter:url(#a9c558de-9f99-4e7a-be59-ff45bfc19b12)"><path d="M157.65,66.14c-7.09-2.12-14.48.44-20.92,3.46a75.65,75.65,0,0,0-20.65,14.19c-6.54,6.46-11.94,14.06-13.87,23.18-1.89,8.93-2.82,21.3,1,29.83a.36.36,0,0,0,.68-.13c0-9.52.41-17.75,5.24-26.27a99.68,99.68,0,0,1,13.73-18.67c4.62-4.94,9.45-9.62,14.46-14.15,5.52-5,12.29-10.6,20.12-10.51A.48.48,0,0,0,157.65,66.14Z" style="mix-blend-mode:multiply;fill:url(#b46c8cfb-bf67-43b6-bc1b-6005b7898009)"/></g></mask><linearGradient id="be9dd07a-45f4-44f8-9f84-dddd696efcae" x1="140.16" y1="70.76" x2="96.74" y2="126.93" gradientUnits="userSpaceOnUse"><stop offset="0" stop-color="#fff"/><stop offset="0.5" stop-color="#fff"/><stop offset="1" stop-color="#fff"/></linearGradient><filter id="bbb59aca-75a1-4690-9b22-0635160f4231" x="133.27" y="118.94" width="67.29" height="62.06" filterUnits="userSpaceOnUse" color-interpolation-filters="sRGB"><feFlood flood-color="#fff" result="bg"/><feBlend in="SourceGraphic" in2="bg"/></filter><mask id="f54d1b3f-c55d-40d2-b370-f4e1bf2a04e3" x="133.27" y="118.94" width="67.29" height="62.06" maskUnits="userSpaceOnUse"><g style="mask:url(#a5d8bd6c-be79-4c97-95f5-887751afcaf1);filter:url(#bbb59aca-75a1-4690-9b22-0635160f4231)"><path d="M133.52,178.85c6.59,3.37,14.32,2.18,21.19.38A75.62,75.62,0,0,0,177.59,169c7.61-5.17,14.29-11.67,17.83-20.29,3.47-8.44,6.63-20.44,4.39-29.52a.36.36,0,0,0-.69,0c-1.77,9.36-3.62,17.39-9.91,24.9A99.54,99.54,0,0,1,172.33,160c-5.42,4-11,7.75-16.77,11.3-6.33,3.92-14,8.21-21.69,6.7A.48.48,0,0,0,133.52,178.85Z" style="mix-blend-mode:multiply;fill:url(#be549ab6-0026-469f-8a40-83fbc3513fb4)"/></g></mask><linearGradient id="a40a1057-f1d3-4ed5-a357-0e89974c8274" x1="1569.76" y1="-464.76" x2="1526.34" y2="-408.58" gradientTransform="translate(1779.44 4.19) rotate(-169.58)" xlink:href="#be9dd07a-45f4-44f8-9f84-dddd696efcae"/></defs><g id="e6a21adb-ffbd-4dc8-8cc0-393b35b48906" data-name="Layer 34"><path d="M89.28,61.55c-8.39-.06-19.63,2.18-24.89,9.33-1.94,2.63-2.75,6.23-5,8.63a28.31,28.31,0,0,1-7.54,5.81c-3,1.61-6.76,2.53-9.33,4.8-8.58,7.58-10.3,23.18-10,34.62a75.66,75.66,0,0,0,22.84,51.91c24.21,23.22,50.38,9.35,61.31,12.68,4.09,1.25,6.66-3.66,9-6.9a36.13,36.13,0,0,1,9.25-9.36c9.65-6.4,15.32-16.8,19.55-27.28,2.66-6.56,3.59-14,3.54-21.08s-2.62-13.48-5.21-20.07C143.94,82,122.63,65.81,98.53,62.26A65.36,65.36,0,0,0,89.28,61.55Z" style="fill:#d35f00"/><path d="M71.87,67.29c-3.67,1.09-5.17,2.49-7.48,5.16.12,2.24-.26,3.09,1.28,4.57a11.41,11.41,0,0,0,4.69,3.13c-.63.61-1.28,1.21-2,1.79-4.84,4.19-11,5.37-17.23,5-.05,0-.07.08,0,.09a26.26,26.26,0,0,0,16.85-3C73.56,81,77.41,75.34,82.85,72a17.71,17.71,0,0,1,9.38-2.69c10.26,2.1,19.83,10.07,26.61,17.52,9.78,10.73,16.52,24.19,20.4,38.17,3,10.68,6.35,26.64,2.71,37.39,6.44-3.08,11.13-16.47,12.28-22.31,4.4-22.33-5.13-44.27-22-59.62C116.27,65.83,98.52,59.38,71.87,67.29Zm8.35,4.12a6.45,6.45,0,0,1,4.27-2.52A27.5,27.5,0,0,0,80.22,71.41Z" style="fill:#efae2e;opacity:0.43"/><path d="M69.45,77.3a21,21,0,0,1-5-5,53.91,53.91,0,0,1-4.1-6.54c-.28-.49-.44-1.3-.89-1.67a1.16,1.16,0,0,0-.38-.23l-.12.12a11.75,11.75,0,0,1-1.06.93,40.65,40.65,0,0,1,5.89,14.5,19,19,0,0,1,.49,4.51,5.35,5.35,0,0,1-.06.66,19.25,19.25,0,0,0,4.23-2.77c1.19-1,2.32-2.12,3.45-3.23A9.56,9.56,0,0,1,69.45,77.3Z" style="fill:url(#fc21359a-16e8-46f1-8458-efa3d816d031)"/><path d="M59.08,63.82a1.16,1.16,0,0,1,.38.23c.45.37.61,1.18.89,1.67a53.91,53.91,0,0,0,4.1,6.54,21,21,0,0,0,5,5,9.56,9.56,0,0,0,2.45,1.24,2.42,2.42,0,0,0,.74.11,2.91,2.91,0,0,0,2.41-2.35,9,9,0,0,1-1,.22c-.32,0-.62.06-.92.07-2.4,0-4.19-1.36-6.14-3.2a29.23,29.23,0,0,1-4.16-5c-.19-.29-.39-.58-.56-.87a4.32,4.32,0,0,1-.33-.68c-.63-1.51-1.27-4.06-2.6-4.42l-.25.16C59.74,62.53,60,62.81,59.08,63.82Z" style="fill:url(#a067eb0c-cf62-4cb8-97ca-98efabc5d511)"/><path d="M59.69,70.34a32.32,32.32,0,0,1,1.76,6.31c.4,2.27,1.07,5,.59,7.3a7.88,7.88,0,0,1-.61,1.71l-.24.5c.2-.42,1.87-.48,2.31-.74a1.28,1.28,0,0,0,.72-.88,5.35,5.35,0,0,0,.06-.66,19,19,0,0,0-.49-4.51,40.65,40.65,0,0,0-5.89-14.5c-.32.25-.64.49-1,.72l.1.13a16.79,16.79,0,0,1,1.94,3l.15.28C59.33,69.44,59.51,69.89,59.69,70.34Z" style="fill:url(#bc3dad10-d086-476a-843b-c905cc5a511a)"/><path d="M59,68.73l.15.28c.21.43.39.88.57,1.33,0,0,0,0,0,.07a7,7,0,0,0,1-1.38,15.67,15.67,0,0,0,1.07-2.45c-.6-1.53-1.24-3.82-2.5-4.16l-.25.16c.7,0,1,.23,0,1.24l-.12.12a11.75,11.75,0,0,1-1.06.93c-.32.25-.64.49-1,.72l.1.13A16.79,16.79,0,0,1,59,68.73Z" style="fill:#9f3c1b;opacity:0.4"/><path d="M62,73.42c.7-1.06,1.39-2.15,2-3.29-.38-.49-.74-1-1.09-1.5A9.49,9.49,0,0,1,61.67,71a11.35,11.35,0,0,1-1.26,1.37c.25.77.45,1.56.64,2.35A13.93,13.93,0,0,0,62,73.42Z" style="fill:#9f3c1b;opacity:0.4"/><path d="M64.56,77.27a36.55,36.55,0,0,0,2.29-4,23.64,23.64,0,0,1-2-2.18A18.28,18.28,0,0,1,62,76.47c-.13.16-.29.35-.48.55.18,1,.4,2.07.54,3.15A15.43,15.43,0,0,0,64.56,77.27Z" style="fill:#9f3c1b;opacity:0.4"/><path d="M61.88,85.81a29.22,29.22,0,0,0,7.4-6.65c.69-.93,1.34-1.89,2-2.85a9.23,9.23,0,0,1-3.07-1.8,24.26,24.26,0,0,1-3.51,6.36,10.38,10.38,0,0,1-2.53,2.28A7,7,0,0,1,62,84a7.88,7.88,0,0,1-.61,1.71l-.24.5C61.27,86,61.54,85.9,61.88,85.81Z" style="fill:#9f3c1b;opacity:0.4"/><path d="M73.08,76.59a5.66,5.66,0,0,1-.6,0,40.66,40.66,0,0,1-2.17,3.53l1.59-1.54a2.42,2.42,0,0,0,.74.11,2.91,2.91,0,0,0,2.41-2.35,9,9,0,0,1-1,.22C73.68,76.56,73.38,76.58,73.08,76.59Z" style="fill:#9f3c1b;opacity:0.4"/><g style="opacity:0.43"><circle cx="66.01" cy="108.54" r="2.39" style="fill:#f4ad31;opacity:0.49"/><circle cx="69.54" cy="132.18" r="2.39" style="fill:#f4ad31;opacity:0.49"/><circle cx="105.88" cy="163.96" r="2.39" style="fill:#f4ad31;opacity:0.49"/><circle cx="65.9" cy="170.84" r="2.39" style="fill:#f4ad31;opacity:0.49"/><circle cx="97.23" cy="174.3" r="2.39" style="fill:#f4ad31;opacity:0.49"/><circle cx="74.3" cy="149.27" r="1.86" style="fill:#f4ad31;opacity:0.49"/><circle cx="58.06" cy="153.34" r="1.86" style="fill:#f4ad31;opacity:0.49"/><circle cx="60.78" cy="137.57" r="1.86" style="fill:#f4ad31;opacity:0.49"/><circle cx="47.36" cy="137.66" r="1.86" style="fill:#f4ad31;opacity:0.49"/><circle cx="80.81" cy="179.59" r="1.86" style="fill:#f4ad31;opacity:0.49"/><circle cx="88.82" cy="157.69" r="1.07" style="fill:#f4ad31;opacity:0.49"/><circle cx="76" cy="168.55" r="1.07" style="fill:#f4ad31;opacity:0.49"/><circle cx="81.85" cy="154.59" r="1.07" style="fill:#f4ad31;opacity:0.49"/><circle cx="104.45" cy="177.81" r="1.07" style="fill:#f4ad31;opacity:0.49"/><circle cx="112.37" cy="169.74" r="1.07" style="fill:#f4ad31;opacity:0.49"/><circle cx="96.93" cy="182.62" r="1.07" style="fill:#f4ad31;opacity:0.49"/><circle cx="63.69" cy="159.41" r="1.07" style="fill:#f4ad31;opacity:0.49"/><circle cx="56.44" cy="120.64" r="1.07" style="fill:#f4ad31;opacity:0.49"/></g><path d="M213.78,124.16a68.53,68.53,0,0,1-7.64,20.26A83.08,83.08,0,0,1,188.62,166c-14.39,12.39-35.37,19.29-53.39,17,4.7,1.65,9.38,3.37,14.37,4a70.86,70.86,0,0,0,20.46-.44c14.71-2.35,25.87-9.84,34.62-21.84,8.6-11.79,13-25.13,12.28-39.79a94.87,94.87,0,0,0-2.48-17.11A55.21,55.21,0,0,1,213.78,124.16Z" style="fill:#c15905"/><path d="M149.74,180.7c21.53-2.26,40.93-15.32,52.29-34,6.94-11.41,10.73-24.68,10.36-37.3C212.05,97.5,207.1,82.89,196,77.35c-4.08-2-7.61-1.57-12.22-1.61-7.59-.06-11.22-5.59-17.06-8.66C158.6,62.84,149,63.64,140,66.9a64.42,64.42,0,0,0-13.22,6.82,80.09,80.09,0,0,0-20.91,19.57C93.23,110.84,90,133,98.77,151a51.45,51.45,0,0,0,9.52,13.56c3.27,3.32,5.18,7.83,8.59,11,3.21,2.92,7.51,2.35,11.83,3C135.81,179.47,142.32,181.48,149.74,180.7ZM130,157.31c-.87-16.49-4.48-33.45,4-48.74,5.47-9.94,15.45-17.57,26.22-15.64a2.9,2.9,0,0,1,3.3.47c6.6,1.68,11.22,9.55,13,15.65,2.36,8.29.34,17-3.38,24.59a30.65,30.65,0,0,1-17.51,15.41c-8.1,3-16.75,4.61-24.19,9.17C130.63,158.63,130,157.93,130,157.31Z" style="fill:url(#b11dac35-dfa0-423a-9d9a-20a8eef1e1f4)"/><path d="M168.35,136.92c4.38-6.7,7.78-15.62,6.43-23.77a25.74,25.74,0,0,0-8-15,43.05,43.05,0,0,1,3.75,12.72c.5,16.12-10,27.37-24.05,33.55-.2.09-.41-.2-.22-.33,4.93-3.3,10.58-6.09,14.33-10.85s6.75-10.75,7.34-16.93a30.19,30.19,0,0,0-1.33-13.45c-1.23-3.31-3.21-9-7.63-8.54a.22.22,0,0,1-.19-.38s0,0,0,0c-12-.24-22.21,10.31-26,21.78-4.37,13.28-2,26.55-1.13,40.12C143.67,149.17,160.33,149.19,168.35,136.92Zm-9-16.17a11.61,11.61,0,0,1,.1-1.57,1,1,0,0,1,1.46-.5c1.73,1.15.07,4.06-.87,5.16-.74.88-2.41,3.1-3.78,2.84a.05.05,0,0,1,0-.08,15.54,15.54,0,0,0,2.35-3.48A10.62,10.62,0,0,0,159.34,120.75Zm-3.78-14.37a.58.58,0,0,1,.61.31c.73,1.36-.78,3.1-1.46,4.23-.94,1.56-2.38,2.66-3.5,4.09a0,0,0,0,1-.06,0,24.71,24.71,0,0,1,1.85-5.22C153.65,108.63,154.15,106.69,155.56,106.38Zm-7.34-3.14a17.53,17.53,0,0,1,2-2.54.94.94,0,0,1,1.56,1,20.49,20.49,0,0,1-1.91,2.27c-.61.72-1.4,1.19-1.81,2.08-.06.14-.33.18-.34,0A4.71,4.71,0,0,1,148.22,103.24Zm-12.87,27a6.25,6.25,0,0,1-.49-4.19,10.79,10.79,0,0,1,1.63-4.42.46.46,0,0,1,.82.16c.54,2.89-1.26,5.74-1.92,8.45C135.39,130.24,135.36,130.24,135.35,130.22Zm1.26,14.93a0,0,0,0,1-.09,0,33.7,33.7,0,0,1,1.19-5.17c.21-.78.08-3.31,1.58-2.75a1,1,0,0,1,.65.74C140.19,141.09,137.84,142.6,136.61,145.15Zm7-36.77a15.46,15.46,0,0,1-2,2.92,11.89,11.89,0,0,0-1.92,3.42c0,.06-.14.07-.14,0-.18-2.5.56-6,3-7.29C143.06,107.13,143.87,107.75,143.58,108.38Zm.95,10.84c-.88-1.35-.52-3-.27-4.53.18-1.08.53-3.23,1.62-3.76a.57.57,0,0,1,.64.13c.9.89.1,2.6-.35,3.55-.68,1.46-1.6,2.85-1.45,4.54A.1.1,0,0,1,144.53,119.22Zm.32,12.14c.61-.84,1.26-1.73,1.93-2.51s1.57-1.39,2.2-2.22,1-2.08,1.6-3a.93.93,0,0,1,1.32-.26,1,1,0,0,1,.42.86,8,8,0,0,1-2.65,4.63c-1.39,1.28-3.07,1.78-4.71,2.65A.08.08,0,0,1,144.85,131.36Z" style="fill:#ad2d2a"/><path d="M134.7,127.5a6.1,6.1,0,0,1,.16-1.47,10.79,10.79,0,0,1,1.63-4.42.46.46,0,0,1,.82.16,6,6,0,0,1,.07,1.63c.76-1.1,1.52-2.17,2.28-3.2,1.45-2,3-3.87,4.64-5.74.19-1.13.56-3,1.58-3.53a.57.57,0,0,1,.64.13,1.86,1.86,0,0,1,.14.2,56.54,56.54,0,0,1,4.82-5.55l.43-.59c1.21-1.71,3.24-4.3,3-6.55a6.88,6.88,0,0,0-2.32-3.79c-9.18,2.72-16.62,11.48-19.71,20.89a58.21,58.21,0,0,0-2.53,19.78A80.27,80.27,0,0,1,134.7,127.5Zm13.52-24.26a17.53,17.53,0,0,1,2-2.54.94.94,0,0,1,1.56,1,20.49,20.49,0,0,1-1.91,2.27c-.61.72-1.4,1.19-1.81,2.08-.06.14-.33.18-.34,0A4.71,4.71,0,0,1,148.22,103.24Zm-5.73,4.18c.57-.29,1.38.33,1.09,1a15.46,15.46,0,0,1-2,2.92,11.89,11.89,0,0,0-1.92,3.42c0,.06-.14.07-.14,0C139.3,112.21,140,108.67,142.49,107.42Z" style="fill:#d7df23;opacity:0.30000000000000004"/><path d="M174.78,113.15a25.74,25.74,0,0,0-8-15,43.05,43.05,0,0,1,3.75,12.72c.5,16.12-10,27.37-24.05,33.55-.2.09-.41-.2-.22-.33,4.93-3.3,10.58-6.09,14.33-10.85s6.75-10.75,7.34-16.93a30.19,30.19,0,0,0-1.33-13.45c-1.09-3-2.79-7.74-6.27-8.46,14.42,16-1.14,43.52-20.33,51.3q-4,4.78-7.79,9.83c11.89-6.35,28.2-6.51,36.12-18.61C172.73,130.22,176.13,121.3,174.78,113.15Z" style="fill:#7d2609;opacity:0.5"/><path d="M173,133.64c3.72-7.57,5.74-16.3,3.38-24.59-1.74-6.1-6.36-14-13-15.65a2.9,2.9,0,0,0-3.3-.47c-10.77-1.93-20.75,5.7-26.22,15.64-8.43,15.29-4.82,32.25-4,48.74,0,.62.68,1.32,1.35.91,7.44-4.56,16.09-6.16,24.19-9.17A30.65,30.65,0,0,0,173,133.64Zm-40.13-18c3.77-11.47,14-22,26-21.78,0,0,0,0,0,0a.22.22,0,0,0,.19.38c4.42-.43,6.4,5.23,7.63,8.54A30.19,30.19,0,0,1,168,116.31c-.59,6.18-3.55,12.12-7.34,16.93s-9.4,7.55-14.33,10.85c-.19.13,0,.42.22.33,14.06-6.18,24.55-17.43,24.05-33.55a43.05,43.05,0,0,0-3.75-12.72,25.74,25.74,0,0,1,8,15c1.35,8.15-2.05,17.07-6.43,23.77-8,12.27-24.68,12.25-36.61,18.87C130.88,142.22,128.5,129,132.87,115.67Z" style="fill:url(#b542efa4-42f2-469c-9f23-74502bbf1b1c)"/><path d="M151.21,115c1.12-1.43,2.56-2.53,3.5-4.09.68-1.13,2.19-2.87,1.46-4.23a.58.58,0,0,0-.61-.31c-1.41.31-1.91,2.25-2.56,3.39a24.71,24.71,0,0,0-1.85,5.22A0,0,0,0,0,151.21,115Z" style="fill:#521906"/><path d="M146.17,114.61c.45-1,1.25-2.66.35-3.55a.57.57,0,0,0-.64-.13c-1.09.53-1.44,2.68-1.62,3.76-.25,1.49-.61,3.18.27,4.53a.1.1,0,0,0,.19-.07C144.57,117.46,145.49,116.07,146.17,114.61Z" style="fill:#521906"/><path d="M137.31,121.77a.46.46,0,0,0-.82-.16,10.79,10.79,0,0,0-1.63,4.42,6.25,6.25,0,0,0,.49,4.19s0,0,0,0C136.05,127.51,137.85,124.66,137.31,121.77Z" style="fill:#521906"/><path d="M148.07,106.1c.41-.89,1.2-1.36,1.81-2.08a20.49,20.49,0,0,0,1.91-2.27.94.94,0,0,0-1.56-1,17.53,17.53,0,0,0-2,2.54,4.71,4.71,0,0,0-.49,2.84C147.74,106.28,148,106.24,148.07,106.1Z" style="fill:#521906"/><path d="M142.49,107.42c-2.45,1.25-3.19,4.79-3,7.29,0,.08.11.07.14,0a11.89,11.89,0,0,1,1.92-3.42,15.46,15.46,0,0,0,2-2.92C143.87,107.75,143.06,107.13,142.49,107.42Z" style="fill:#521906"/><path d="M152.32,124.2a1,1,0,0,0-.42-.86.93.93,0,0,0-1.32.26c-.65,1-.88,2.09-1.6,3s-1.51,1.44-2.2,2.22-1.32,1.67-1.93,2.51a.08.08,0,0,0,.11.12c1.64-.87,3.32-1.37,4.71-2.65A8,8,0,0,0,152.32,124.2Z" style="fill:#521906"/><path d="M156.25,126.68c1.37.26,3-2,3.78-2.84.94-1.1,2.6-4,.87-5.16a1,1,0,0,0-1.46.5,11.61,11.61,0,0,0-.1,1.57,10.62,10.62,0,0,1-.78,2.37,15.54,15.54,0,0,1-2.35,3.48A.05.05,0,0,0,156.25,126.68Z" style="fill:#521906"/><path d="M139.29,137.21c-1.5-.56-1.37,2-1.58,2.75a33.7,33.7,0,0,0-1.19,5.17,0,0,0,0,0,.09,0c1.23-2.55,3.58-4.06,3.33-7.2A1,1,0,0,0,139.29,137.21Z" style="fill:#521906"/><path d="M172.28,108.44a.15.15,0,0,0-.27.09c2.85,13.65-7.49,28.5-17.67,36.53a.19.19,0,0,0,.21.32c7.27-3.29,13.5-7.75,17-15S176.38,115.62,172.28,108.44Z" style="fill:#d7df23;opacity:0.30000000000000004"/><path d="M217.85,125.38l-.27.08a3,3,0,0,1,0,1.12,2,2,0,0,0,.16,1.52C217.76,127.19,217.8,126.28,217.85,125.38Z" style="fill:#7b2509;opacity:0.5"/><path d="M211.11,90.65c-4-7.35-11.46-16.09-20.27-17.21-3.24-.4-6.78.63-9.94-.12a28.31,28.31,0,0,1-8.75-3.76c-2.85-1.81-5.49-4.68-8.73-5.82-10.8-3.81-25.26,2.28-35.14,8.06A75.66,75.66,0,0,0,94,117c-8.5,32.45,16.34,48.57,18.75,59.74.9,4.18,6.43,4,10.43,4.54a36,36,0,0,1,12.67,3.53c10.29,5.32,22.13,5.2,33.35,3.81a55.78,55.78,0,0,0,20.14-7.17c6.23-3.52,10.5-8.85,15-14.32,15.42-18.77,19.23-45.27,10.6-68.06A66.32,66.32,0,0,0,211.11,90.65Zm-82.4,87.79c-4.32-.63-8.62-.06-11.83-3-3.41-3.12-5.32-7.63-8.59-11A51.45,51.45,0,0,1,98.77,151c-8.8-18-5.54-40.11,7.11-57.66a80.09,80.09,0,0,1,20.91-19.57A64.42,64.42,0,0,1,140,66.9c9-3.26,18.59-4.06,26.68.18,5.84,3.07,9.47,8.6,17.06,8.66,4.61,0,8.14-.42,12.22,1.61,11.13,5.54,16.08,20.15,16.42,32.07.37,12.62-3.42,25.89-10.36,37.3-11.36,18.66-30.76,31.72-52.29,34C142.32,181.48,135.81,179.47,128.71,178.44Zm76-13.67c-8.75,12-19.91,19.49-34.62,21.84a70.86,70.86,0,0,1-20.46.44c-5-.66-9.67-2.38-14.37-4,18,2.29,39-4.61,53.39-17a83.08,83.08,0,0,0,17.52-21.6,68.53,68.53,0,0,0,7.64-20.26,55.21,55.21,0,0,0,.7-16.29A94.87,94.87,0,0,1,217,125C217.7,139.64,213.28,153,204.68,164.77Z" style="fill:url(#eef10b0b-e94a-4126-8deb-937375955383)"/><g style="mask:url(#af60748e-38bb-4b35-85e4-a34836310c57)"><path d="M157.65,66.14c-7.09-2.12-14.48.44-20.92,3.46a75.65,75.65,0,0,0-20.65,14.19c-6.54,6.46-11.94,14.06-13.87,23.18-1.89,8.93-2.82,21.3,1,29.83a.36.36,0,0,0,.68-.13c0-9.52.41-17.75,5.24-26.27a99.68,99.68,0,0,1,13.73-18.67c4.62-4.94,9.45-9.62,14.46-14.15,5.52-5,12.29-10.6,20.12-10.51A.48.48,0,0,0,157.65,66.14Z" style="opacity:0.5;fill:url(#be9dd07a-45f4-44f8-9f84-dddd696efcae)"/></g><g style="mask:url(#f54d1b3f-c55d-40d2-b370-f4e1bf2a04e3)"><path d="M133.52,178.85c6.59,3.37,14.32,2.18,21.19.38A75.62,75.62,0,0,0,177.59,169c7.61-5.17,14.29-11.67,17.83-20.29,3.47-8.44,6.63-20.44,4.39-29.52a.36.36,0,0,0-.69,0c-1.77,9.36-3.62,17.39-9.91,24.9A99.54,99.54,0,0,1,172.33,160c-5.42,4-11,7.75-16.77,11.3-6.33,3.92-14,8.21-21.69,6.7A.48.48,0,0,0,133.52,178.85Z" style="opacity:0.5;fill:url(#a40a1057-f1d3-4ed5-a357-0e89974c8274)"/></g></g></svg>