<svg id="bc838848-bf84-40c3-88f6-02fced71c599" data-name="Layer 1" xmlns="http://www.w3.org/2000/svg" viewBox="0 0 252 252"><path d="M180.69,47.54l3.8,5.17c-1.63,12.84-3.83,23.4-6.68,31.64,3.56.33,36.09,4.07,46.43,30.53,3.38,8.66,3.45,18.24,1.67,27.33a75.23,75.23,0,0,1-6.14,18.16c-12.33,25.47-50.91,44-74.2,44A26.66,26.66,0,0,1,134,202.22c-5.83-2.84-9.21-9.4-9.21-9.4a26.47,26.47,0,0,1-4.26.32,25.65,25.65,0,0,1-3.06-.17,18.09,18.09,0,0,1-5.36,3.58,23.49,23.49,0,0,1-9,1.53c-22.66,0-61.93-21.69-72.86-49-5.43-13.54-8.14-31.38-1.47-45.86,6.4-13.89,18.73-20.78,29.3-24.19a69.59,69.59,0,0,1,18.75-3.35s17.39-17,39.09-17a39,39,0,0,1,21.08,6.06c18,.3,32.64,12.2,38.09,17.29,2.6-9,4.4-20.65,5.51-34.5m0-8a8.26,8.26,0,0,0-2.19.3,8,8,0,0,0-5.78,7.06c-.64,7.88-1.49,14.91-2.56,21-7.73-5.14-18.42-10.34-30.72-11.09a44.84,44.84,0,0,0-6.33-3A47.72,47.72,0,0,0,116,50.69c-20,0-36.42,12.17-42.34,17.2a77.56,77.56,0,0,0-18,3.56c-16.12,5.2-27.92,15-34.1,28.45-9.46,20.55-2.23,43.34,1.31,52.19,12,29.9,53.73,54,80.29,54a31.33,31.33,0,0,0,12-2.14,24.05,24.05,0,0,0,5-2.8h.6a28.72,28.72,0,0,0,9.78,8.27,34.33,34.33,0,0,0,15,3c13,0,29.89-5,45.09-13.48,17-9.46,29.94-21.91,36.31-35.07a83.47,83.47,0,0,0,6.78-20.07c2.3-11.74,1.61-22.43-2.06-31.82C222.9,89.46,200.92,81.07,188,78a204.87,204.87,0,0,0,4.4-24.3A8.07,8.07,0,0,0,190.94,48l-3.8-5.17a8,8,0,0,0-6.45-3.26Z" style="fill:#fff"/></svg>