<svg xmlns="http://www.w3.org/2000/svg" xmlns:xlink="http://www.w3.org/1999/xlink" viewBox="0 0 252 252"><defs><clipPath id="be6fade8-1221-4272-8259-9a02bde57656"><path d="M168.12,111.34a40.8,40.8,0,0,0-5.46-12.54,62.07,62.07,0,0,0-7.5-8.54l-6-6.1c-1.44-1.44-2.88-2.89-4.41-4.24a44.52,44.52,0,0,0-34.4-10.53c-5.09.64-10.26,2.22-15.37,2.59-3,.21-6,.28-8.74-.86a20.77,20.77,0,0,1-5.65-4.05C78.82,65.52,77,63.67,77,61.35c0-2.78,2.74-4.68,5.14-6.09s5.1-3.32,5.13-6.1c-3.36,0-5.61,2.53-8.13,4.74-1.65,1.45-4,2.89-4.5,5a8.14,8.14,0,0,0-1.29-2,18.7,18.7,0,0,0-7.58-6c-.19-.08-.65-.32-.65-.32S65,51,65,51.24c-.63,5.28-1.53,7-1.47,10.49,0,2,.07,3.49.1,5.5-1.24-2.78-4.12-4.39-6.81-5.81l-8.14-4.28c-.4-.21-1.7-.94-1.7-.94s.18,1.47.21,1.82A27.75,27.75,0,0,0,52.28,71.2,35.1,35.1,0,0,1,45,66.75a18.83,18.83,0,0,0-3.59-2.32,21.63,21.63,0,0,0-5-1.32,17.37,17.37,0,0,0,1,2.71c2.95,5,10.92,3.22,13.77,8.27.9,1.6.57,4.26.63,6.1a20.3,20.3,0,0,1-.93,8.07c-2.08,5.32-7.71,8.17-12,11.88-6.66,5.69-10.67,14-12.31,22.65s-1.08,17.49.21,26.16c1.11,7.37,2.78,14.75,6.19,21.38,5.88,11.4,16.45,19.65,27.38,26.37a50.94,50.94,0,0,0,8.75,4.5c5.53,2,11.53,2.3,17.42,2.56,12.36.53,25.16.29,36.63-3.79,2.45-.87,8-3,7.93-3a49.52,49.52,0,0,0,6.94-3.05c7.17-4.7,12.78-10.92,17.76-18a85.05,85.05,0,0,0,4.61-7.61,90.45,90.45,0,0,0,6.21-12.56,77.86,77.86,0,0,0,3.57-15.19,77.22,77.22,0,0,0,1.23-15.39C171.17,120,169.44,116.32,168.12,111.34Z" style="fill:none"/></clipPath></defs><g id="a67c78e1-ce8d-4d9a-972c-5dd190a0ae9b" data-name="Layer 20"><path d="M168.12,111.34a40.8,40.8,0,0,0-5.46-12.54,62.07,62.07,0,0,0-7.5-8.54l-6-6.1c-1.44-1.44-2.88-2.89-4.41-4.24a44.52,44.52,0,0,0-34.4-10.53c-5.09.64-10.26,2.22-15.37,2.59-3,.21-6,.28-8.74-.86a20.77,20.77,0,0,1-5.65-4.05C78.82,65.52,77,63.67,77,61.35c0-2.78,2.74-4.68,5.14-6.09s5.1-3.32,5.13-6.1c-3.36,0-5.61,2.53-8.13,4.74-1.65,1.45-4,2.89-4.5,5a8.14,8.14,0,0,0-1.29-2,18.7,18.7,0,0,0-7.58-6c-.19-.08-.65-.32-.65-.32S65,51,65,51.24c-.63,5.28-1.53,7-1.47,10.49,0,2,.07,3.49.1,5.5-1.24-2.78-4.12-4.39-6.81-5.81l-8.14-4.28c-.4-.21-1.7-.94-1.7-.94s.18,1.47.21,1.82A27.75,27.75,0,0,0,52.28,71.2,35.1,35.1,0,0,1,45,66.75a18.83,18.83,0,0,0-3.59-2.32,21.63,21.63,0,0,0-5-1.32,17.37,17.37,0,0,0,1,2.71c2.95,5,10.92,3.22,13.77,8.27.9,1.6.57,4.26.63,6.1a20.3,20.3,0,0,1-.93,8.07c-2.08,5.32-7.71,8.17-12,11.88-6.66,5.69-10.67,14-12.31,22.65s-1.08,17.49.21,26.16c1.11,7.37,2.78,14.75,6.19,21.38,5.88,11.4,16.45,19.65,27.38,26.37a50.94,50.94,0,0,0,8.75,4.5c5.53,2,11.53,2.3,17.42,2.56,12.36.53,25.16.29,36.63-3.79,2.45-.87,8-3,7.93-3a49.52,49.52,0,0,0,6.94-3.05c7.17-4.7,12.78-10.92,17.76-18a85.05,85.05,0,0,0,4.61-7.61,90.45,90.45,0,0,0,6.21-12.56,77.86,77.86,0,0,0,3.57-15.19,77.22,77.22,0,0,0,1.23-15.39C171.17,120,169.44,116.32,168.12,111.34Z" style="fill:#99143a"/><g style="clip-path:url(#be6fade8-1221-4272-8259-9a02bde57656)"><path d="M172.45,85.33A40.78,40.78,0,0,0,167,72.79a62.66,62.66,0,0,0-7.5-8.54l-6.05-6.09c-1.44-1.45-2.87-2.9-4.41-4.25a44.51,44.51,0,0,0-34.4-10.53C109.56,44,104.38,45.6,99.27,46c-2.94.21-6,.28-8.73-.86a21,21,0,0,1-5.66-4c-1.72-1.55-3.59-3.4-3.55-5.72,0-2.79,2.74-4.68,5.14-6.1s5.09-3.31,5.12-6.1c-3.35,0-5.6,2.53-8.12,4.74-1.66,1.46-4,2.89-4.5,5a8.48,8.48,0,0,0-1.29-2,18.61,18.61,0,0,0-7.59-6c-.19-.08-.64-.32-.64-.32a6.13,6.13,0,0,0-.14.68c-.64,5.29-1.54,7-1.47,10.49,0,2,.06,3.49.1,5.5-1.25-2.77-4.13-4.38-6.82-5.8L53,31.13l-1.7-.93L51.5,32a27.55,27.55,0,0,0,5.12,13.18,34.74,34.74,0,0,1-7.27-4.45,18,18,0,0,0-3.59-2.31,21.29,21.29,0,0,0-5-1.33,18.49,18.49,0,0,0,1,2.71c3,5,10.93,3.22,13.78,8.27.9,1.61.57,4.26.63,6.1a20.12,20.12,0,0,1-.94,8.07c-2.08,5.33-7.7,8.17-12,11.88-6.66,5.7-10.67,14.05-12.31,22.66s-1.08,17.49.22,26.15c1.11,7.37,2.77,14.76,6.19,21.38,5.88,11.41,16.44,19.66,27.38,26.37a49.22,49.22,0,0,0,8.75,4.5c5.53,2,11.53,2.3,17.41,2.56,12.36.53,25.16.29,36.63-3.79,2.46-.87,8-3,7.94-3a53.56,53.56,0,0,0,6.94-3.05c7.16-4.71,12.77-10.93,17.75-18a86.76,86.76,0,0,0,4.62-7.62,90.27,90.27,0,0,0,6.2-12.55,78.23,78.23,0,0,0,3.58-15.19,77.38,77.38,0,0,0,1.23-15.4C175.51,94,173.77,90.31,172.45,85.33Z" style="fill:#b51d41"/></g><path d="M74.26,111.36a21.17,21.17,0,0,0,5.3,16.08c2.38,2.71,5.54,4.95,9.13,5.31,4.45.46,8.62-2,12.79-3.59a38.13,38.13,0,0,1,15.46-2.56c5.42.23,11.44,1.48,15.86-1.69,3.37-2.42,4.73-6.85,4.8-11,.15-8.59-4.51-16.92-11.44-22a18.3,18.3,0,0,0-7.66-3.52,22.5,22.5,0,0,0-6.8.18C98.69,90.39,76.17,95.24,74.26,111.36Z" style="fill:#bc3160;opacity:0.7000000000000001"/><circle cx="49.29" cy="123.48" r="2.38" style="fill:#720a28;opacity:0.49"/><circle cx="59.33" cy="145.08" r="2.38" style="fill:#720a28;opacity:0.49"/><circle cx="103.04" cy="165.22" r="2.38" style="fill:#720a28;opacity:0.49"/><circle cx="66.76" cy="183.07" r="2.38" style="fill:#600b27;opacity:0.49"/><circle cx="97.69" cy="177.55" r="2.38" style="fill:#600b27;opacity:0.49"/><circle cx="68.7" cy="160.08" r="1.85" style="fill:#600b27;opacity:0.49"/><circle cx="54.32" cy="168.55" r="1.85" style="fill:#600b27;opacity:0.49"/><circle cx="52.47" cy="152.7" r="1.85" style="fill:#600b27;opacity:0.49"/><circle cx="39.67" cy="156.58" r="1.85" style="fill:#600b27;opacity:0.49"/><circle cx="83.48" cy="187.23" r="1.85" style="fill:#600b27;opacity:0.49"/><circle cx="84.96" cy="164.03" r="1.07" style="fill:#600b27;opacity:0.49"/><circle cx="75.77" cy="178.04" r="1.07" style="fill:#600b27;opacity:0.49"/><circle cx="77.42" cy="163.04" r="1.07" style="fill:#600b27;opacity:0.49"/><circle cx="105.58" cy="178.86" r="1.07" style="fill:#600b27;opacity:0.49"/><circle cx="110.87" cy="168.91" r="1.07" style="fill:#600b27;opacity:0.49"/><circle cx="99.75" cy="185.58" r="1.07" style="fill:#600b27;opacity:0.49"/><circle cx="61.42" cy="172.76" r="1.07" style="fill:#600b27;opacity:0.49"/><circle cx="43.55" cy="137.74" r="1.07" style="fill:#600b27;opacity:0.49"/><path d="M200,188.58a40.86,40.86,0,0,0,9.54-9.92,62.93,62.93,0,0,0,5-10.26l3.32-8c.79-1.9,1.58-3.8,2.24-5.74a44.76,44.76,0,0,0-3.52-36c-2.56-4.47-6-8.67-8.35-13.27-1.33-2.66-2.58-5.48-2.57-8.45a21.07,21.07,0,0,1,1.56-6.82c.78-2.2,1.78-4.65,3.94-5.51,2.6-1,5.41.73,7.65,2.42s5,3.45,7.65,2.4c-1.33-3.1-4.52-4.23-7.55-5.71-2-1-4.21-2.58-6.4-2.24a8.09,8.09,0,0,0,1.39-2,18.58,18.58,0,0,0,2.64-9.36c0-.21.05-.73.05-.73s-.47.08-.68.14c-5.15,1.45-7.09,1.27-10.31,2.69l-5.07,2.22c2.1-2.24,2.48-5.53,2.76-8.58s.55-6.14.83-9.21c0-.45.21-1.94.21-1.94s-1.29.73-1.6.89a27.89,27.89,0,0,0-10.26,9.86A34.7,34.7,0,0,1,193.78,57a18.32,18.32,0,0,0,.76-4.23,21.41,21.41,0,0,0-.71-5.17,18.42,18.42,0,0,0-2.11,2c-3.49,4.67,1.23,11.39-2.36,16-1.14,1.46-3.73,2.18-5.42,2.94a20.3,20.3,0,0,1-7.85,2.26c-5.75.12-10.57-4-15.7-6.6-7.86-4-17.17-4.48-25.8-2.68s-16.66,5.76-24.2,10.32c-6.42,3.87-12.64,8.28-17.47,14C84.6,95.74,81,108.74,79,121.49a50.38,50.38,0,0,0-.8,9.87c.25,5.92,2.32,11.6,4.36,17.16,5.18,14.14,10.9,29,22.82,38.25,8.79,6.79,18.94,12.91,29.79,15.33a85.11,85.11,0,0,0,8.85,1.34,90.73,90.73,0,0,0,14.06.91,78.39,78.39,0,0,0,15.49-2.55A78.23,78.23,0,0,0,188.36,197C193.06,194.78,195.84,191.73,200,188.58Z" style="fill:#b51d41"/><path d="M176.09,77.75c-3.21-1.81-6.08-4.15-9.25-6-8.67-5.11-19.25-6.47-29.19-4.87s-19.27,6-27.61,11.62A61.32,61.32,0,0,0,99.67,87C92.35,94.8,88,104.94,85.31,115.26,83.54,122,82.38,129,83.05,135.94c1.11,11.37,7,21.64,12.73,31.5,4.84,8.32,10.23,17.14,19,21,2.52,1.12,5.22,1.77,7.78,2.76,4.66,1.8,8.82,4.7,13.44,6.57,6.77,2.74,14.26,3.17,21.55,2.77,12.4-.69,25.05-3.92,34.78-11.64a62.87,62.87,0,0,0,11.74-12.84c4.13-5.75,7.75-12,9.6-18.8s1.84-14.33-1.1-20.77a69.34,69.34,0,0,1-3.06-6.47c-1.26-3.78-.88-7.91-1.62-11.82-1.41-7.41-6.74-13.64-8-21.07-.67-3.77-.28-7.75-1.66-11.33-1.63-4.25-5-5.32-9-4.78C184.63,81.67,180.22,80.08,176.09,77.75Z" style="fill:#fff3e0"/><path d="M134.08,134.89a390.94,390.94,0,0,1-39.63-.18c-1.69-.09-3.53-.25-4.79-1.38-1.75-1.58-1.67-4.32-1.34-6.66a74.09,74.09,0,0,1,12.36-31.48,47.64,47.64,0,0,1,7.73-8.91c5.92-5.17,13.35-8.22,20.63-11.17a7.21,7.21,0,0,1,3.05-.69,56.61,56.61,0,0,1,26.61-1.06c5.34,1,10.89,3,14.11,7.38a17.71,17.71,0,0,1,2.94,7.4c1.24,7.07-.5,14.43-3.76,20.83s-8,11.94-12.88,17.17a30.23,30.23,0,0,1-5.3,4.75c-4.56,3-10.24,3.48-15.67,3.79Z" style="fill:#903"/><path d="M164,128.57c-2.07,3-4.2,6-4.85,9.56a27.22,27.22,0,0,0-.08,6.69c1.05,16-.09,32-.47,48,0,1.45.11,3.19,1.38,3.86a3.28,3.28,0,0,0,1.38.32c6.1.39,11.32-4,17-6.35,2.59-1.08,5.34-1.76,7.81-3.1a29.22,29.22,0,0,0,7-5.85c8.37-8.85,15.74-19.83,15.7-32,0-5.67-1.66-11.19-3.27-16.63a129.09,129.09,0,0,0-6-17.25c-1.32-2.86-2.86-5.66-3.58-8.73-.41-1.74-.54-3.55-1.09-5.25a6.22,6.22,0,0,0-3.28-4,5.75,5.75,0,0,0-5.31.93c-4.07,2.89-7.21,8.68-10.19,12.75C171.9,117.06,168,122.86,164,128.57Z" style="fill:#903"/><path d="M146.46,139.94c.44,0,1,.08,1.16.47s-.07.93-.36,1.31a135,135,0,0,1-10,11.78,11.36,11.36,0,0,1-4.69,3.43c-1.85.54-3.83.14-5.76.22-6,.24-11.19,5-17.18,4.83-5.53-.2-9.9-4.53-13.68-8.57a21.86,21.86,0,0,1-4.33-5.81c-2.83-6.32,1.38-7.07,6.54-7.34q8.1-.44,16.2-.61Q130.42,139.3,146.46,139.94Z" style="fill:#903"/><path d="M134.67,162.38c-2,1.63-4.31,3.48-4.46,6.07-.11,2.1,1.26,4,2.21,5.83a16,16,0,0,1,1.75,7.15c0,1.87-.29,3.77.2,5.57,1,3.47,4.53,5.45,7.76,7a17,17,0,0,0,5.42,1.93,5.77,5.77,0,0,0,5.22-1.85c1-1.37,1.16-3.21,1.23-4.93q.75-17.83.83-35.71c0-5.15-2.26-11.81-6.85-5.48A74.46,74.46,0,0,1,134.67,162.38Z" style="fill:#903"/><path d="M164.56,78.82a3.17,3.17,0,0,0-2.27,1.69,4,4,0,0,0,.55,3.15,17.15,17.15,0,0,0,3.92,5.51,2.28,2.28,0,0,0,1.4.67,2.18,2.18,0,0,0,1.62-1.08C172.65,84.68,170.31,77.38,164.56,78.82Z" style="fill:#c2185b"/><path d="M166.14,98.8c0,1.47.33,3.17,1.62,3.9a3.18,3.18,0,0,0,2.94,0,7.54,7.54,0,0,0,2.29-2,8.29,8.29,0,0,0,2.23-4.73c.11-2.43-2.3-5.58-4.94-5C167.14,91.55,166.14,96.2,166.14,98.8Z" style="fill:#c2185b"/><path d="M147.88,75.29a3.35,3.35,0,0,0-2.3,2.83,3.73,3.73,0,0,0,.7,2.07A8.32,8.32,0,0,0,152.9,84a6.6,6.6,0,0,0,4.58-1.51c2.24-2,2.26-6-.71-7.34C154.79,74.25,149.84,74.54,147.88,75.29Z" style="fill:#c2185b"/><path d="M154.23,91a22.19,22.19,0,0,0,4.18,4.58,3.64,3.64,0,0,0,1.3.79,2.66,2.66,0,0,0,2.74-1.11,5.69,5.69,0,0,0,.9-3c.2-2.81-.4-8.57-4.17-8.59C155.68,83.7,152.1,87.9,154.23,91Z" style="fill:#c2185b"/><path d="M161.65,115.11a2.88,2.88,0,0,0,3.06.53,7,7,0,0,0,2.58-2c1.89-2.08,4.06-8.66-1-8C163.33,106,159.32,112.62,161.65,115.11Z" style="fill:#c2185b"/><path d="M131.49,76.51a2.61,2.61,0,0,0-1,.87c-.58,1,.2,2.23,1,3.12,1.23,1.46,2.56,3,4.38,3.56a5.31,5.31,0,0,0,6.31-3C145.24,73.45,135.39,74.2,131.49,76.51Z" style="fill:#c2185b"/><path d="M142.91,83.07,141,85.58a5.37,5.37,0,0,0-.95,1.59c-.48,1.57.58,3.18,1.72,4.36s2.39,2.13,3.89,2c1.71-.14,3-1.78,3.36-3.44C149.78,86.91,146.47,78.46,142.91,83.07Z" style="fill:#c2185b"/><path d="M147.81,97.06c0,1.88,1.6,3.3,3.1,4.44a7.77,7.77,0,0,0,2.15,1.3,2.62,2.62,0,0,0,2.42-.28c1.21-1,.87-2.85.35-4.3-.6-1.62-1.86-6.42-4.07-6.68C149.85,91.32,147.84,95.39,147.81,97.06Z" style="fill:#c2185b"/><path d="M156.92,104.76a2.86,2.86,0,0,0,.54,2.42,2.45,2.45,0,0,0,1.91.47,6.18,6.18,0,0,0,5.28-3.78c.75-2.08-.23-5.91-2.77-6.22C158.22,97.2,157.14,102.18,156.92,104.76Z" style="fill:#c2185b"/><path d="M136.08,96.15c-1.4,1-2.77,2.52-2.55,4.23a4.15,4.15,0,0,0,1.69,2.61,4.5,4.5,0,0,0,2.52,1.11c3.1.17,7-4.57,6.38-7.55C143.23,92.32,138.3,94.52,136.08,96.15Z" style="fill:#c2185b"/><path d="M141.81,103.88a5.3,5.3,0,0,0-1.35,3c-.05,1.8,1.5,3.18,2.91,4.29a3.88,3.88,0,0,0,2.95,1.19c1.26-.24,1.93-1.61,2.2-2.86.47-2.28.29-5.6-1.21-7.52C145.19,99.22,143.37,101.87,141.81,103.88Z" style="fill:#c2185b"/><path d="M149.54,110.92a4.15,4.15,0,0,0-.23,1.74,3.81,3.81,0,0,0,1.88,2.36,4.39,4.39,0,0,0,3.07.93,3.3,3.3,0,0,0,2.4-2.77c.4-2.23-.66-7.45-3.2-8.23C150.4,104,150.11,108.92,149.54,110.92Z" style="fill:#c2185b"/><path d="M154.61,117.89a9.57,9.57,0,0,0-2.61,2.46,2.88,2.88,0,0,0,3,4.62,8.74,8.74,0,0,0,3.31-1.55c1.55-1,3.22-2.47,3.12-4.33-.07-1.18-1.5-3.53-2.81-3.7S155.56,117.2,154.61,117.89Z" style="fill:#c2185b"/><path d="M130.28,86.59a6.12,6.12,0,0,0-2.78,2.07,4.71,4.71,0,0,0,2.09,6.59,5.61,5.61,0,0,0,6.8-2.38c.89-1.51,1.41-4.65.17-6.17C135.16,85,132.08,85.85,130.28,86.59Z" style="fill:#c2185b"/><path d="M119.15,80.91c-1.46.76-3,1.87-3.17,3.51a4.24,4.24,0,0,0,.37,1.88,4.35,4.35,0,0,0,3.26,2.93,5.39,5.39,0,0,0,3.17-1,41.6,41.6,0,0,0,4.45-3.1,4.28,4.28,0,0,0,1.7-2.16c.37-1.53-1.3-4-2.84-4.42C124.09,78,120.85,80,119.15,80.91Z" style="fill:#c2185b"/><path d="M117.93,92.64a3.36,3.36,0,0,0-1.21,1.06,3.62,3.62,0,0,0,0,2.85,11.16,11.16,0,0,0,1.86,4,4.13,4.13,0,0,0,3.91,1.59,4.05,4.05,0,0,0,2.82-3.06c.47-1.89.19-6.1-1.56-7.39S119.43,91.72,117.93,92.64Z" style="fill:#c2185b"/><path d="M124.52,106.56a4.64,4.64,0,0,0,1.91,2.29c1.38,1,3.34,1.52,4.72.54a3.6,3.6,0,0,0,1.34-2.76,10.39,10.39,0,0,0-.46-3.12c-.64-2.55-.71-6.74-3.95-4.21C126.27,100.71,123.77,104.16,124.52,106.56Z" style="fill:#c2185b"/><path d="M132.29,111.2a5.37,5.37,0,0,0-.41,3.38,5,5,0,0,0,1.46,2.08,6.24,6.24,0,0,0,2.72,1.67,3,3,0,0,0,3-.8c.86-1,.64-2.55.39-3.87-.36-1.81-.46-7.44-2.51-8C134.5,105.1,132.89,109.65,132.29,111.2Z" style="fill:#c2185b"/><path d="M145.76,122.11a6.23,6.23,0,0,1-1.36-.22,4.33,4.33,0,0,1-2-1c-1.29-1.26-1.11-3.34-.83-5.12a2.73,2.73,0,0,1,.88-2c.69-.63,1.33-.57,2.48-.19a22,22,0,0,1,4.65,2.4,2.65,2.65,0,0,1,1.15,1.24c.29.9-.36,1.81-1,2.54a6.51,6.51,0,0,1-2.63,2.18A3.81,3.81,0,0,1,145.76,122.11Z" style="fill:#c2185b"/><path d="M144.76,131.79l-1,.06c-1.64.1-3.56.08-4.57-1.22s-.48-3.4.57-4.78,2.9-2.44,4.45-1.85a8.23,8.23,0,0,1,4.71,1.39,4.93,4.93,0,0,1,1.74,1.89,2.66,2.66,0,0,1-.08,2.5,3.43,3.43,0,0,1-1.67,1.22A14.32,14.32,0,0,1,144.76,131.79Z" style="fill:#c2185b"/><path d="M107.5,89.36c-1.46,1.41-3,3.19-2.65,5.18a3.17,3.17,0,0,0,3.6,2.39,6.2,6.2,0,0,0,2.63-1.6,11.05,11.05,0,0,0,3.5-4.29c.54-1.55.1-4.53-1.85-5C110.93,85.66,108.63,88.28,107.5,89.36Z" style="fill:#c2185b"/><path d="M107.72,104.49a5.76,5.76,0,0,0,1.94,2.64c1.42,1.21,3.51,2.11,5.11,1.15s1.81-3.25,1.58-5.13c-.29-2.54-1.35-7-4.52-5.79C109.4,98.32,106.92,101.86,107.72,104.49Z" style="fill:#c2185b"/><path d="M115.39,113a4.38,4.38,0,0,0,8.58-.65c.26-2.33-1.67-7.48-4.59-6.91C116.62,106,114.74,110.63,115.39,113Z" style="fill:#c2185b"/><path d="M123.24,116.59c-1,1.46-1.81,3.47-.77,4.9s3,1.3,4.59,1a6.1,6.1,0,0,0,2.26-.67c1.67-1,2.12-3.35,1.52-5.21-.37-1.17-1.7-3.93-3.11-4.18C125.94,112.16,124.08,115.35,123.24,116.59Z" style="fill:#c2185b"/><path d="M130.27,123a7.64,7.64,0,0,0-2.33,3.81,4.73,4.73,0,0,0,1.66,4.1c1,.88,2.51,1.42,3.62.71a3.89,3.89,0,0,0,.83-.79,17.24,17.24,0,0,0,3.48-7.1,3.35,3.35,0,0,0-.11-2.34C135.19,117.34,132,121.11,130.27,123Z" style="fill:#c2185b"/><path d="M118.79,127.73a8,8,0,0,0-.85,2.85,3,3,0,0,0,1.14,2.62,4,4,0,0,0,1.83.54,22.26,22.26,0,0,0,2.71.14c1,0,2.25-.19,2.78-1.09a3.32,3.32,0,0,0,.12-2.27c-.13-.69-.26-1.39-.38-2.08C125.16,123.13,121,122.92,118.79,127.73Z" style="fill:#c2185b"/><path d="M116.3,126.74a2.63,2.63,0,0,0-.85-2.15,2.57,2.57,0,0,0-2.39-.33,6.55,6.55,0,0,0-2.13,1.32c-2.33,2-7.18,6.43-2.08,8.17C113.15,135.22,116.18,130.58,116.3,126.74Z" style="fill:#c2185b"/><path d="M103.52,132a7.18,7.18,0,0,0,1.74-1.78,8.63,8.63,0,0,0,2-4,3.36,3.36,0,0,0-2-3.65c-1.75-.51-3.41,1-4.65,2.29-.59.65-1.19,1.29-1.79,1.94-1.23,1.32-2.86,3.4-1.26,5C98.73,133.08,102.15,132.87,103.52,132Z" style="fill:#c2185b"/><path d="M95.15,128.69a6.62,6.62,0,0,1-1.37,3.71,1.05,1.05,0,0,1-.64.39,1.15,1.15,0,0,1-.52-.1c-4.77-1.8-4-9.14-1.11-12.26,1.18-1.26,2.49-1.94,3.8-.46C97.05,122,95.5,126.42,95.15,128.69Z" style="fill:#c2185b"/><path d="M93.69,117.63a7.17,7.17,0,0,0,2.51,1,3.64,3.64,0,0,0,1.85.11c1.53-.42,2-2.33,2.07-3.91.1-2.18-.12-4.58-1.64-6.14C95.14,105.28,90.38,115.29,93.69,117.63Z" style="fill:#c2185b"/><path d="M98.1,101.35a4.39,4.39,0,0,0-.95,1.71c-.35,1.6,1,3,2.2,4.12.9.82,2,1.69,3.2,1.4a3.41,3.41,0,0,0,2-2.38,15.2,15.2,0,0,0,.87-5.71C105.17,93.79,100,99,98.1,101.35Z" style="fill:#c2185b"/><path d="M101.36,119.17a1.08,1.08,0,0,0-.07.94,1.1,1.1,0,0,0,.9.35l5,.32a2.43,2.43,0,0,0,1.92-.43,1.8,1.8,0,0,0,.43-1.37,6.44,6.44,0,0,0-2.24-4.06,6,6,0,0,0-2-1.46C101.89,112.14,102.13,117.12,101.36,119.17Z" style="fill:#c2185b"/><path d="M119.08,121a2,2,0,0,0,.27-1.79,3.67,3.67,0,0,0-1.74-1.67c-1.49-.89-3.36-2.46-5.09-2.38-2,.08-1.17,2.58-1.34,4.23a3.21,3.21,0,0,0,.07,1.38c.39,1.1,1.77,1.41,2.93,1.55a7.14,7.14,0,0,0,3.59-.21A2.9,2.9,0,0,0,119.08,121Z" style="fill:#c2185b"/><path d="M110.3,113.62l1.92-1.31c.34-.23.73-.58.63-1a1,1,0,0,0-.44-.51l-2.59-1.92c-1.68-1.24-5.43-2.32-4.87,1.93.1.76.74,1,1.38,1.45s1.5,1.06,2.27,1.57a1.3,1.3,0,0,0,.7.28,1.38,1.38,0,0,0,.67-.29Z" style="fill:#c2185b"/><path d="M184.37,102.52a4.06,4.06,0,0,0-.7,1.06,2.59,2.59,0,0,0,.23,2.2,6,6,0,0,0,1.55,1.66,5.22,5.22,0,0,0,3.71,1.34c1.89-.27,3.12-2.23,3.39-4.12.3-2.09-.56-4.66-2.81-5.31S185.61,101,184.37,102.52Z" style="fill:#c2185b"/><path d="M189.62,111.34c-1,2.14-.14,4.7,1.09,6.73a6.22,6.22,0,0,0,2.4,2.5,2.67,2.67,0,0,0,3.2-.52,4,4,0,0,0,.34-3.16l-.51-3a11.56,11.56,0,0,0-.45-2C194.42,108.24,191.34,107.7,189.62,111.34Z" style="fill:#c2185b"/><path d="M180,108.53a9,9,0,0,0-2.59,3.36,2.47,2.47,0,0,0-.32.83,2.07,2.07,0,0,0,.24,1.11A9.66,9.66,0,0,0,180,117a4.11,4.11,0,0,0,3.17,1.3c1.45-.27,2.2-1.88,2.5-3.32a7.94,7.94,0,0,0,.08-3.36C185.19,109,182.53,106.79,180,108.53Z" style="fill:#c2185b"/><path d="M182.62,122.94c-.44,1.67.75,3.32,2,4.47a6.41,6.41,0,0,0,2.67,1.59,2.88,2.88,0,0,0,2.87-.78,3.24,3.24,0,0,0,.61-2.19c-.06-1.85-1.33-6.14-3.14-7C185.55,118,183.08,121.17,182.62,122.94Z" style="fill:#c2185b"/><path d="M198.67,121.53a3.09,3.09,0,0,1,2.14,1.45,5.49,5.49,0,0,1,.79,2.53,9.4,9.4,0,0,1-.58,4.33,2,2,0,0,1-1,1.28,1.94,1.94,0,0,1-.76.08c-2.62-.17-6.46-3.13-6.55-6C192.62,123.33,197,121.31,198.67,121.53Z" style="fill:#c2185b"/><path d="M178.15,118.33a4.35,4.35,0,0,1,.91,1.31,3,3,0,0,1-.47,2.68,6.71,6.71,0,0,1-2.17,1.78,18,18,0,0,1-3.8,1.58,3.23,3.23,0,0,1-1.15.16,2.22,2.22,0,0,1-1.79-2.15c-.1-2.12,1.87-3.8,3.13-5.27.66-.76,1.34-2.18,2.42-2.26S177.52,117.63,178.15,118.33Z" style="fill:#c2185b"/><path d="M175.33,127.8a2.7,2.7,0,0,0-.83,1.4,2.58,2.58,0,0,0,.44,1.6,9.24,9.24,0,0,0,2.51,2.84,4.69,4.69,0,0,0,2.17,1,2.39,2.39,0,0,0,2.17-.79,3.78,3.78,0,0,0,.38-2.89c-.24-1.69-.52-4.75-2-5.87S176.45,126.57,175.33,127.8Z" style="fill:#c2185b"/><path d="M167.26,126.69a2.18,2.18,0,0,1,2.73.8,5.1,5.1,0,0,1,.71,3,7.41,7.41,0,0,1-.5,2.88,4.5,4.5,0,0,1-2.48,2.39,4.11,4.11,0,0,1-3.41-.2,2.87,2.87,0,0,1-1.39-1.54c-.53-1.57.6-2.89,1.59-3.93S166.2,127.3,167.26,126.69Z" style="fill:#c2185b"/><path d="M198.65,135.76a4.07,4.07,0,0,0,.56,3.17,11.66,11.66,0,0,0,2.18,2.48,2.4,2.4,0,0,0,1.45.83,1.86,1.86,0,0,0,1.51-1,6.72,6.72,0,0,0,.63-4.43c-.14-1.16-.45-5.55-2.08-5.56C201.68,131.26,199,134.73,198.65,135.76Z" style="fill:#c2185b"/><path d="M160.44,143.23c.06.82.13,1.63.2,2.45a2.58,2.58,0,0,0,.21,1,2.26,2.26,0,0,0,.59.64,3.58,3.58,0,0,0,2.67,1.08,2.69,2.69,0,0,0,2-2,6.18,6.18,0,0,0,0-3c-.35-1.72-1.16-6-3.61-5.76S160.3,141.55,160.44,143.23Z" style="fill:#c2185b"/><path d="M167.25,139.47a3.4,3.4,0,0,0,2.76,4.12,5.28,5.28,0,0,0,3.81-1.45,5.66,5.66,0,0,0,2.32-3.54,7.22,7.22,0,0,0-.41-2.79,6.09,6.09,0,0,0-.88-2.06c-1.79-2.29-3,.36-4,1.61C169.68,136.78,167.79,137.55,167.25,139.47Z" style="fill:#c2185b"/><path d="M196.54,136.53a10.64,10.64,0,0,1-.5,3.23,2.19,2.19,0,0,1-1.58,1.54,2.29,2.29,0,0,1-1.24-.29c-3.21-1.53-6-6.66-3.13-9.76,1.14-1.23,2.39-1.14,3.77-.4C196.73,132.39,196.69,133.54,196.54,136.53Z" style="fill:#c2185b"/><path d="M181.23,138a3.11,3.11,0,0,0,1.58,2.55c1.16.81,2.84,1.28,3.93.37a3.24,3.24,0,0,0,.83-2.89,27.24,27.24,0,0,1-.09-4.69c.07-1.25,0-2.09-1.45-1.92C183.76,131.67,181.37,136,181.23,138Z" style="fill:#c2185b"/><path d="M202.24,146.07a9.68,9.68,0,0,0-.85,3.15,7.37,7.37,0,0,0,0,3,2.68,2.68,0,0,0,2,2.06,2.58,2.58,0,0,0,2.17-.9,5.54,5.54,0,0,0,1.1-2.16,14.36,14.36,0,0,0,.63-4.79,4.29,4.29,0,0,0-.4-1.84C205.63,142.29,203,144.58,202.24,146.07Z" style="fill:#c2185b"/><path d="M160.83,152.92c0,.91,0,1.83-.06,2.74a6.4,6.4,0,0,0,.06,2.05,3.73,3.73,0,0,0,3.21,2.56,3.24,3.24,0,0,0,3.15-1.28,3.8,3.8,0,0,0,.32-2.68,8.88,8.88,0,0,0-3.52-5.65C162,149.36,160.78,150.78,160.83,152.92Z" style="fill:#c2185b"/><path d="M160.69,167.1a4.17,4.17,0,0,0,.46,2.16,2.64,2.64,0,0,0,2.3,1.13,4.61,4.61,0,0,0,2.48-.93,5.18,5.18,0,0,0,2.3-3.73,3.28,3.28,0,0,0-2.38-3.41C162,161.55,160.56,163.3,160.69,167.1Z" style="fill:#c2185b"/><path d="M161.15,192.81a3.09,3.09,0,0,0,2.14,2.14,4.31,4.31,0,0,0,2.91-.79,3.73,3.73,0,0,0,1.14-.9,3.21,3.21,0,0,0,.45-2.36,5.24,5.24,0,0,0-2.35-4C161.34,184.57,160.23,190,161.15,192.81Z" style="fill:#c2185b"/><path d="M162.18,184.64a4.27,4.27,0,0,0,2.34.19c1.22-.33,2-1.5,2.67-2.58a1.77,1.77,0,0,0,.38-1.23,1.59,1.59,0,0,0-.59-.84c-1.35-1.15-4.39-2.53-5.78-.79S160.09,184,162.18,184.64Z" style="fill:#c2185b"/><path d="M161,175.67c.68,1.27,2.26,1.76,3.7,1.84a4.15,4.15,0,0,0,2.89-.73,2.55,2.55,0,0,0-.52-4.24c-1-.46-2.11-.28-3.14-.56-1.27-.34-2-.76-2.78.36A3.57,3.57,0,0,0,161,175.67Z" style="fill:#c2185b"/><path d="M170.77,191.22a2.86,2.86,0,0,0,1.13.06,11,11,0,0,0,3.17-.61,3.59,3.59,0,0,0,2.18-2.26c.82-3.12-3.14-4.51-5.51-3.89S167.85,190.28,170.77,191.22Z" style="fill:#c2185b"/><path d="M167.92,151.21a17.08,17.08,0,0,0,1.89,2.76,3.6,3.6,0,0,0,2.15,1.71,3.26,3.26,0,0,0,2.52-1.28,4.74,4.74,0,0,0,1.32-2,3.78,3.78,0,0,0-.91-3.22c-.93-1.17-3.6-3.18-5.25-3.12C167.12,146.19,167.1,149.54,167.92,151.21Z" style="fill:#c2185b"/><path d="M174.87,144.06a1.93,1.93,0,0,0-.58,1.5,2,2,0,0,0,.61.95l1.84,1.92c.76.8,1.69,1.66,2.8,1.57a3.29,3.29,0,0,0,1.77-.89,5.17,5.17,0,0,0,1.61-2c.71-1.77-.32-3.78-1.6-5.19a3.65,3.65,0,0,0-1.4-1.07C178.16,140.25,175.82,142.89,174.87,144.06Z" style="fill:#c2185b"/><path d="M184.64,143.28a3,3,0,0,0-.29,1.26,8.58,8.58,0,0,0,.47,4,3.63,3.63,0,0,0,3.1,2.32,3.43,3.43,0,0,0,2.55-1.26,6.49,6.49,0,0,0,1.27-2.61,5.09,5.09,0,0,0-.25-3.93C190.41,141.32,185.66,141.46,184.64,143.28Z" style="fill:#c2185b"/><path d="M195.69,143.33a5.14,5.14,0,0,0-1.36.64,4.6,4.6,0,0,0-1.34,3.16,10.74,10.74,0,0,0-.08,3.15,4,4,0,0,0,1.54,2.68,2,2,0,0,0,1.21.4,2.63,2.63,0,0,0,1.89-1.44,19.82,19.82,0,0,0,2.13-6.08,4.26,4.26,0,0,0,.08-2.37C199.07,141.57,196.93,142.91,195.69,143.33Z" style="fill:#c2185b"/><path d="M199.12,159.9l-.86,1.55a4.7,4.7,0,0,0-.61,1.51,2.73,2.73,0,0,0,2.5,2.83,4.2,4.2,0,0,0,3.6-1.82,9.94,9.94,0,0,0,1.57-3.88c.36-1.59.24-4-1.89-4C201.46,156.09,199.93,158.45,199.12,159.9Z" style="fill:#c2185b"/><path d="M194.46,166.82a3.18,3.18,0,0,0-1.07,2.84,8.94,8.94,0,0,0,1,3.69c.35.66.93,1.36,1.67,1.28a2,2,0,0,0,1.06-.58,31.67,31.67,0,0,0,3-3,2.68,2.68,0,0,0,.87-1.68,1.93,1.93,0,0,0-1.19-1.63C198.5,167.15,195.74,166,194.46,166.82Z" style="fill:#c2185b"/><path d="M184.71,186.35a3,3,0,0,0,1.62-1.66,2.26,2.26,0,0,0,0-1c-.56-3.59-6.12-5.12-7.84-1.58a4.62,4.62,0,0,0,.59,4.5C180.55,188.53,183,187.3,184.71,186.35Z" style="fill:#c2185b"/><path d="M192.44,179.5c.75-1.55.34-3.38-.14-5a7.47,7.47,0,0,0-.89-2.17,1.23,1.23,0,0,0-1.09-.66,1.38,1.38,0,0,0-.67.36c-2,1.56-4.9,4.08-3.84,6.93a7.72,7.72,0,0,0,2.46,3.23C189.82,182.94,191.8,180.85,192.44,179.5Z" style="fill:#c2185b"/><path d="M172.88,182.5a7.15,7.15,0,0,0,4.41-1.78,3.55,3.55,0,0,0,.62-4.41c-1.52-2.08-6.4-2.08-8-.1C167.66,178.91,169.35,182.86,172.88,182.5Z" style="fill:#c2185b"/><path d="M181.19,176.64a2.57,2.57,0,0,0,2.07-.26,5.38,5.38,0,0,0,1.57-1.44,13.26,13.26,0,0,0,1.28-1.88,3.42,3.42,0,0,0,.57-2.3,2.59,2.59,0,0,0-2.62-1.78c-1.57,0-4.24,1-4.85,2.59S179.61,176.08,181.19,176.64Z" style="fill:#c2185b"/><path d="M169.37,169.06a3.49,3.49,0,0,0,0,1,3.26,3.26,0,0,0,2,2.12,5.91,5.91,0,0,0,4.6.35,3.63,3.63,0,0,0,2.35-3.72,4.56,4.56,0,0,0-1.93-2.76c-1.14-.86-3.93-2.44-5.44-1.77S169.51,167.78,169.37,169.06Z" style="fill:#c2185b"/><path d="M170.69,161.84a14.13,14.13,0,0,0,4.39,1.61c1.15.27,2.45.51,3.42-.16s1.2-2.36,1-3.7a16.33,16.33,0,0,0-.43-2.17,3.08,3.08,0,0,0-.39-1C176.63,153.44,166.63,159.21,170.69,161.84Z" style="fill:#c2185b"/><path d="M180.29,165.8c.34.83,1.37,1.11,2.27,1.24,1.27.18,2.73.23,3.69-.63a3,3,0,0,0,.82-1.37,4.07,4.07,0,0,0-1.28-4.23c-1.19-1-3.2-1.39-4.19,0C180.94,161.67,179.87,164.75,180.29,165.8Z" style="fill:#c2185b"/><path d="M179.94,155.3a6,6,0,0,0,2,2.63,8,8,0,0,0,3.48,1c1.29.16,2.78.26,3.7-.66s.7-2.95-.34-4c-1.38-1.4-4.64-2.51-6.59-2.8C179.87,151.14,179.11,153.35,179.94,155.3Z" style="fill:#c2185b"/><path d="M191.88,161.51a2.14,2.14,0,0,0,1.74,1.05,3.1,3.1,0,0,0,2-1.08,15.2,15.2,0,0,0,2.37-3,2.51,2.51,0,0,0,.4-2.46c-.75-1.3-4.72-1.24-5.88-.43C191,156.67,191,160.06,191.88,161.51Z" style="fill:#c2185b"/><path d="M191.13,168.58c.13-.14.24-.3.36-.45a13.34,13.34,0,0,0,1.77-2.84,1.11,1.11,0,0,0,.12-.56,1,1,0,0,0-.3-.51,2.88,2.88,0,0,0-3.36-.54c-.12.06-.2.18-.4.39a5.38,5.38,0,0,0-1.18,3.44,1.94,1.94,0,0,0,.91,1.93,1.55,1.55,0,0,0,1.42-.22A3.34,3.34,0,0,0,191.13,168.58Z" style="fill:#c2185b"/><path d="M93.49,142.09a2.88,2.88,0,0,0-1.48.81,2.66,2.66,0,0,0-.09,2.57,8.69,8.69,0,0,0,2.61,3.63,3.42,3.42,0,0,0,1.35.73,3.17,3.17,0,0,0,1.72-.18,7,7,0,0,0,3.75-3.14,2.53,2.53,0,0,0,.37-1.09,2.69,2.69,0,0,0-1.25-2.14A7.75,7.75,0,0,0,93.49,142.09Z" style="fill:#c2185b"/><path d="M98.86,151.25a1.84,1.84,0,0,0-.83,1.21,1.74,1.74,0,0,0,.4,1,18.47,18.47,0,0,0,4.47,4.61,3.57,3.57,0,0,0,.85.48c1.24.45,2.57-.43,3.44-1.42a4.74,4.74,0,0,0,1.35-3.09c0-1.66-1.4-2.95-2.72-3.95C102.77,147.83,101.41,149.11,98.86,151.25Z" style="fill:#c2185b"/><path d="M109.52,156.9a2.73,2.73,0,0,0-.26,2.45,1.82,1.82,0,0,0,1.65.77,5.14,5.14,0,0,0,1.82-.53,12.55,12.55,0,0,0,4.19-2.51,2.53,2.53,0,0,0,.89-2.17,2.56,2.56,0,0,0-.44-.89,4.07,4.07,0,0,0-2.28-1.85C111.91,151.43,110.52,154.67,109.52,156.9Z" style="fill:#c2185b"/><path d="M104.9,147.07a10.54,10.54,0,0,0,1.48,1.35,7.36,7.36,0,0,0,2.16,1.34,4.8,4.8,0,0,0,4.75-1.46,2.74,2.74,0,0,0,.67-1c.36-1.13-.52-2.26-1.41-3-1.46-1.28-4.65-3.9-6.81-3.48C102.79,141.33,103.49,145.41,104.9,147.07Z" style="fill:#c2185b"/><path d="M114.94,144.85a4.21,4.21,0,0,0,2.15,2.22,3.93,3.93,0,0,0,2.59-.2,10,10,0,0,0,3-1.76,2.14,2.14,0,0,0,.78-1.06,1.87,1.87,0,0,0-.76-1.78c-1.3-1.15-3.18-1.3-4.91-1.4l-2-.11a3.94,3.94,0,0,0-1.64.12C112.29,141.58,114.37,143.74,114.94,144.85Z" style="fill:#c2185b"/><path d="M116.56,150.82l2.27,3.17a5.26,5.26,0,0,0,2.72,2.35,2.7,2.7,0,0,0,3.18-2.41c.09-2.17-2.7-5.39-4.78-5.92C118,147.52,114.89,148.49,116.56,150.82Z" style="fill:#c2185b"/><path d="M127.58,154.86a4.71,4.71,0,0,0,7.94-2.94,1.3,1.3,0,0,0-.07-.65,1.4,1.4,0,0,0-.62-.56,13.52,13.52,0,0,0-4.41-1.92c-1.32-.23-3.55-.08-4.21,1.3S126.56,153.89,127.58,154.86Z" style="fill:#c2185b"/><path d="M123.79,145.2c-.54.58-1.13,1.3-.93,2.06a1.49,1.49,0,0,0,1.16,1,3.44,3.44,0,0,0,1.59-.13,9.93,9.93,0,0,0,3.78-2,4.59,4.59,0,0,0,1.35-1.66,2.28,2.28,0,0,0-.06-2.08,3.68,3.68,0,0,0-1.15-1c-1.41-.93-2.34-1.37-3.26,0A24.84,24.84,0,0,1,123.79,145.2Z" style="fill:#c2185b"/><path d="M131.78,146.91a2.09,2.09,0,0,0,.53.69c.38.37.79.73,1.21,1.07.89.72,2.09,1.38,3.13.9a3,3,0,0,0,1.33-2.74c.06-1.85-.82-6.11-3.47-5.6C132.78,141.57,131.2,145.44,131.78,146.91Z" style="fill:#c2185b"/><path d="M140,146.38a1.53,1.53,0,0,0,1.67.16,4.44,4.44,0,0,0,1.34-1.15l1.69-1.88a1.67,1.67,0,0,0,.57-1.06c0-1.79-3.88-1.79-4.88-1.14C139.11,142.17,138.87,145.29,140,146.38Z" style="fill:#c2185b"/><path d="M149.61,148.42q-.9,1-1.71,2.1a3.1,3.1,0,0,0-.83,2.07,2.72,2.72,0,0,0,1.23,1.8,4.54,4.54,0,0,0,2,.94,2.65,2.65,0,0,0,2.13-.54,3.22,3.22,0,0,0,.95-2C153.72,150.7,152.27,145.45,149.61,148.42Z" style="fill:#c2185b"/><path d="M148.7,158a4.91,4.91,0,0,0-.44,3.34,6.1,6.1,0,0,0,.83,2.38,1.91,1.91,0,0,0,1.69,1,2.13,2.13,0,0,0,1.27-.84,9.54,9.54,0,0,0,1.68-2.74,3.83,3.83,0,0,0,.31-2.3A2.91,2.91,0,0,0,148.7,158Z" style="fill:#c2185b"/><path d="M140.34,159.16a1.28,1.28,0,0,0-.26.57,1.26,1.26,0,0,0,.12.5,5.27,5.27,0,0,0,.93,1.67,2,2,0,0,0,1.7.71,2.93,2.93,0,0,0,1.68-1.18,29.55,29.55,0,0,0,2.39-3.28,2.48,2.48,0,0,0,.48-1.19,2,2,0,0,0-.82-1.56c-1.48-1.32-1.73-1.05-3.17.27A21.57,21.57,0,0,0,140.34,159.16Z" style="fill:#c2185b"/><path d="M135.74,187.48a4.64,4.64,0,0,0,3.37,2.48,1.76,1.76,0,0,0,.91-.05,1.93,1.93,0,0,0,.69-.58,5.47,5.47,0,0,0,1.22-3.91,4.24,4.24,0,0,0-2.27-3.32C136,180.36,134.35,184.69,135.74,187.48Z" style="fill:#c2185b"/><path d="M144.09,192.85a5.94,5.94,0,0,0,2.65,1.43,4.31,4.31,0,0,0,3.32-1.2,4.13,4.13,0,0,0,1.05-1.3,3.48,3.48,0,0,0-.58-3.63c-1.25-1.51-5-2.91-6.73-1.39A4,4,0,0,0,144.09,192.85Z" style="fill:#c2185b"/><path d="M135.32,177.58a4.16,4.16,0,0,0,3.46,2.26,2.31,2.31,0,0,0,1-.16c1-.48,1.17-1.87,1-3-.31-1.69-2.33-6.63-4.72-5.94S134.6,176.15,135.32,177.58Z" style="fill:#c2185b"/><path d="M133.82,165.24c-.69.67-1.37,1.63-1,2.53a2.71,2.71,0,0,0,1.94,1.27l2.43.69a3.66,3.66,0,0,0,1.79.21,2.26,2.26,0,0,0,1.56-1.42,3.73,3.73,0,0,0,.11-2.17c-.26-1.22-1.32-3.39-2.76-3.61S134.74,164.34,133.82,165.24Z" style="fill:#c2185b"/><path d="M142.1,165.5a3.79,3.79,0,0,0-.33,1.43,5.88,5.88,0,0,0,.84,3.86,3,3,0,0,0,3.53,1.16,3.07,3.07,0,0,0,1.51-1.95,7.16,7.16,0,0,0,.14-2.53c-.1-1.31-.4-3.52-2-3.88A4.18,4.18,0,0,0,142.1,165.5Z" style="fill:#c2185b"/><path d="M148.87,171.14a6.57,6.57,0,0,0-.14,3.29,2.08,2.08,0,0,0,4.05.35,6.84,6.84,0,0,0,.42-2.15l.21-2.29c.12-1.29.28-4-1.67-4S149.18,169.78,148.87,171.14Z" style="fill:#c2185b"/><path d="M142.23,176.57a13.44,13.44,0,0,0-.47,3.77,3.06,3.06,0,0,0,2.18,2.81,2.68,2.68,0,0,0,2.53-1.13,5,5,0,0,0,.86-2.75c.08-1.49-.56-4.17-1.92-5.08C143.58,173,142.51,175,142.23,176.57Z" style="fill:#c2185b"/><path d="M148,182.89a3.9,3.9,0,0,0,.52,2.7,3.62,3.62,0,0,0,1.61,1,2.45,2.45,0,0,0,1.52.22,2.25,2.25,0,0,0,1.28-1.74,9.9,9.9,0,0,0-.17-5.58c-.43-1.3-1.54-2.76-3-2C148.17,178.25,148.12,181.42,148,182.89Z" style="fill:#c2185b"/><path d="M165.16,83.83a.57.57,0,0,0,0,.29,10,10,0,0,0,1.45,2.93,1.66,1.66,0,0,0,1.13.82,1.29,1.29,0,0,0,1-.56,2.69,2.69,0,0,0,.35-2.69,3,3,0,0,0-1.88-1.7C166.69,82.8,165.25,83.1,165.16,83.83Z" style="fill:#ec407a"/><path d="M166.94,99.1a2.46,2.46,0,0,0,1.18,2.26,1.37,1.37,0,0,0,.65.17,1.62,1.62,0,0,0,1-.45A2.74,2.74,0,0,0,170.4,98c-.34-.69-1.39-1.65-2.25-1.48S167,98.16,166.94,99.1Z" style="fill:#ec407a"/><path d="M154.65,90a3.79,3.79,0,0,0,1.67,1.9,1.54,1.54,0,0,0,1.09.4,1,1,0,0,0,.42-.2,2.94,2.94,0,0,0,1-2.06,3.49,3.49,0,0,0-.54-2.57C156.62,85.23,154.12,88,154.65,90Z" style="fill:#ec407a"/><path d="M149.63,79.43a3.87,3.87,0,0,0,1.25,2.23A3.63,3.63,0,0,0,153,82.93a2.61,2.61,0,0,0,2.56-2.2,2.35,2.35,0,0,0-.31-1.8,2.82,2.82,0,0,0-1.45-.92C152.41,77.56,149.44,77.12,149.63,79.43Z" style="fill:#ec407a"/><path d="M150.52,99.15l.77.57a1.42,1.42,0,0,0,.58.31,1,1,0,0,0,.89-.36,2,2,0,0,0,.39-.92,4.53,4.53,0,0,0-.23-2.47,2.25,2.25,0,0,0-.65-1c-1-.82-2,0-2.41.91A2,2,0,0,0,150.52,99.15Z" style="fill:#ec407a"/><path d="M159.63,101.87a17.32,17.32,0,0,0-.76,2,2.11,2.11,0,0,0-.11,1.19,1.42,1.42,0,0,0,1.5.92,2.35,2.35,0,0,0,1.56-1,2.53,2.53,0,0,0,.28-2.73,1.65,1.65,0,0,0-2.48-.41" style="fill:#ec407a"/><path d="M164.29,108.42a1.92,1.92,0,0,0-.38,1.64,1.9,1.9,0,0,0,.5.78,2.05,2.05,0,0,0,2.56.37,2.42,2.42,0,0,0,.8-1.55C168.21,106.86,165.83,106.35,164.29,108.42Z" style="fill:#ec407a"/><path d="M151.16,110.21a1.77,1.77,0,0,0,2,1.1,2.16,2.16,0,0,0,1.58-1.77c.16-1.11-.87-3.23-2.26-2.93C151.34,106.87,150.86,109.28,151.16,110.21Z" style="fill:#ec407a"/><path d="M143.2,109.17a1.86,1.86,0,0,0,1.48.44,1.5,1.5,0,0,0,1-1.23,2.93,2.93,0,0,0-.29-1.67C144,103.4,140.07,106.79,143.2,109.17Z" style="fill:#ec407a"/><path d="M136.18,102a2.55,2.55,0,0,0,2.25.38,3.61,3.61,0,0,0,1.56-1.09,2.46,2.46,0,0,0,.72-1.41,1.84,1.84,0,0,0-1.38-1.77,2.9,2.9,0,0,0-2.31.46C135.69,99.39,134.51,100.71,136.18,102Z" style="fill:#ec407a"/><path d="M145.11,89.1a2.3,2.3,0,0,0,.1-.73,2.82,2.82,0,0,0-1.15-2.17,1.09,1.09,0,0,0-.48-.24A1.29,1.29,0,0,0,143,86a3.67,3.67,0,0,0-1.36.83c-.1.29-.23.64-.23.64a2.59,2.59,0,0,0,1.36,2.89,1.43,1.43,0,0,0,.56.22,1.14,1.14,0,0,0,.65-.16A2.21,2.21,0,0,0,145.11,89.1Z" style="fill:#ec407a"/><path d="M139.52,80.22c-.19-2.53-4.55-2.5-4.72.17C134.58,83.8,139.74,83.26,139.52,80.22Z" style="fill:#ec407a"/><path d="M119.24,87.45a1.73,1.73,0,0,0,1.41.19A5.17,5.17,0,0,0,122,87a2.8,2.8,0,0,0,1.13-1,1.71,1.71,0,0,0-.63-2,3.08,3.08,0,0,0-2.15-.45C118,83.77,117,85.85,119.24,87.45Z" style="fill:#ec407a"/><path d="M133,93.56a1.65,1.65,0,0,0,1-1,1.93,1.93,0,0,0-.75-1.65c-1.16-1.14-3.59-2.79-4.1-.15A2.69,2.69,0,0,0,133,93.56Z" style="fill:#ec407a"/><path d="M123.65,98.63a2.69,2.69,0,0,0-1.49-2.6,2,2,0,0,0-2.82,2.69C120.29,100.51,123.34,101.36,123.65,98.63Z" style="fill:#ec407a"/><path d="M109.73,94.14a4.82,4.82,0,0,0,1-1.36,3.81,3.81,0,0,0,.52-1.33,1.61,1.61,0,0,0-.38-1.34c-.59-.59-1.59-.17-2.27.34l-.51.56a5,5,0,0,0-1,1.47,1.71,1.71,0,0,0,.17,1.71,1.68,1.68,0,0,0,2,.24A2.42,2.42,0,0,0,109.73,94.14Z" style="fill:#ec407a"/><path d="M128.59,107.21a2,2,0,0,0,2.53-.93,2.26,2.26,0,0,0-.17-1.61C128.66,99.29,124.82,105.73,128.59,107.21Z" style="fill:#ec407a"/><path d="M133.67,113.63a2.18,2.18,0,0,0,1.05,1.66,4.46,4.46,0,0,0,1.93.6.86.86,0,0,0,.45,0,.82.82,0,0,0,.36-.33c.82-1.26.56-4.5-.92-5.27C134.74,109.34,133.62,112.28,133.67,113.63Z" style="fill:#ec407a"/><path d="M144.42,118.15a2.54,2.54,0,0,0,1.41.22,1.53,1.53,0,0,0,1.13-.8c.68-1.48-1.76-3.93-3.23-3.44C141.6,114.84,143,117.54,144.42,118.15Z" style="fill:#ec407a"/><path d="M154.39,123.89a2.67,2.67,0,0,0,1.82-.53c1.59-1.14,1.23-4.13-1.06-3.77C153.21,119.89,151.66,123.58,154.39,123.89Z" style="fill:#ec407a"/><path d="M144,129.61a1,1,0,0,0,.2-.26c.45-.73,0-1.67-.5-2.35a2.37,2.37,0,0,0-1.34-1,2.63,2.63,0,0,0-2,.86,2.31,2.31,0,0,0-.37,1.89,2,2,0,0,0,1.31,1.41,2.91,2.91,0,0,0,2-.08A2.19,2.19,0,0,0,144,129.61Z" style="fill:#ec407a"/><path d="M129.74,129a2.35,2.35,0,0,0,3.31.8,2.75,2.75,0,0,0,.8-3.43C132.29,123.3,128.41,126.25,129.74,129Z" style="fill:#ec407a"/><path d="M124.27,119.44a2.09,2.09,0,0,0,2.13,1.42,2.49,2.49,0,0,0,2.07-1.63c.48-1.33-.45-4.23-2.32-3.76C125,115.78,124,118.39,124.27,119.44Z" style="fill:#ec407a"/><path d="M120.17,113.49a1.53,1.53,0,0,0,.64-.14,1.6,1.6,0,0,0,.72-1.16c.31-1.62-1.28-4.44-3.13-2.94S118.2,113.49,120.17,113.49Z" style="fill:#ec407a"/><path d="M110.92,99.72a2.69,2.69,0,0,0-1,1.87,2.34,2.34,0,0,0,.75,1.39,7.75,7.75,0,0,0,1.34,1.15,1.78,1.78,0,0,0,1.64.4,1.34,1.34,0,0,0,.72-1.06,4.21,4.21,0,0,0-.13-1.32C113.84,100.31,112.9,97.66,110.92,99.72Z" style="fill:#ec407a"/><path d="M99.74,101.79a1.74,1.74,0,0,0-.32.56c-.22.72.39,1.4.93,1.91a2.4,2.4,0,0,0,1.73.86,1.61,1.61,0,0,0,1-.6c.85-1,1.16-3.79.26-4.88C102.19,98.26,100.39,100.92,99.74,101.79Z" style="fill:#ec407a"/><path d="M109.66,112.47a1.35,1.35,0,0,1-.4,0,2.86,2.86,0,0,1-1.68-1.08,2.16,2.16,0,0,1-.68-1.18c0-.46.32-1,.78-.92l.6.07a15.65,15.65,0,0,1,1.64,1.16,1.46,1.46,0,0,1,.62.77A1,1,0,0,1,109.66,112.47Z" style="fill:#ec407a"/><path d="M113.61,120.66a3.34,3.34,0,0,0,2.17.35,1.15,1.15,0,0,0,.48-.1.9.9,0,0,0,.41-1,2.75,2.75,0,0,0-.54-1c-.6-.8-2-2.63-3-1.48A2.65,2.65,0,0,0,113.61,120.66Z" style="fill:#ec407a"/><path d="M120.56,129.15a2.43,2.43,0,0,0,2,1,1.88,1.88,0,0,0,1.81-.54,2.08,2.08,0,0,0,.15-1.46,5.14,5.14,0,0,0-.53-1.94C122.55,123.72,119.69,127.48,120.56,129.15Z" style="fill:#ec407a"/><path d="M109.52,128.82a1.8,1.8,0,0,0,1.17,2.05,2.5,2.5,0,0,0,2.41-.58c.86-.78,2.24-4.12.42-4.6C112.31,125.37,109.79,127.83,109.52,128.82Z" style="fill:#ec407a"/><path d="M99.71,129a2,2,0,0,0,1.26,1.49,2.37,2.37,0,0,0,1.07.28,2.05,2.05,0,0,0,1.59-.94,4.49,4.49,0,0,0,.65-1.79,2.32,2.32,0,0,0-.2-1.72C102.71,124.3,99.59,127.45,99.71,129Z" style="fill:#ec407a"/><path d="M103.48,116.78a2.09,2.09,0,0,0,0,1.26,1.92,1.92,0,0,0,.77.85,2.05,2.05,0,0,0,2.09.41,1.6,1.6,0,0,0,.56-1.89,4.31,4.31,0,0,0-1.31-1.66C104.2,114.57,103.83,115.44,103.48,116.78Z" style="fill:#ec407a"/><path d="M95.19,112.76a2.59,2.59,0,0,0,.83,2.09,1.65,1.65,0,0,0,2.13,0,2.15,2.15,0,0,0,.51-1,3.64,3.64,0,0,0-.24-2.41C97.16,108.93,95.27,110.66,95.19,112.76Z" style="fill:#ec407a"/><path d="M90.37,126.67a3.23,3.23,0,0,0,0,1.77,3,3,0,0,0,.82,1.06,1.84,1.84,0,0,0,.92.56,1.5,1.5,0,0,0,1.37-.82,4.49,4.49,0,0,0,.52-2.48,3.1,3.1,0,0,0-.74-2.15C91.53,122.93,90.61,125.39,90.37,126.67Z" style="fill:#ec407a"/><path d="M187.06,106.8a3.84,3.84,0,0,0,.67-.16c1.13-.39,2.18-1.56,1.79-2.7a2.05,2.05,0,0,0-.63-.89,3.66,3.66,0,0,0-1.64-.86,2.66,2.66,0,0,0-2.81,1.67,2.31,2.31,0,0,0,.92,2.66A2.56,2.56,0,0,0,187.06,106.8Z" style="fill:#ec407a"/><path d="M190.57,114.32a6.3,6.3,0,0,0,.55,2.79,3.82,3.82,0,0,0,1.09,1.63,1.59,1.59,0,0,0,1.85.13c.73-.54.62-1.63.54-2.53a10.18,10.18,0,0,0-.43-3C193.11,110.84,190.74,112.06,190.57,114.32Z" style="fill:#ec407a"/><path d="M197.72,129.2a2.53,2.53,0,0,1-.78-.3,4.16,4.16,0,0,1-1.76-2.68.86.86,0,0,1,0-.39.84.84,0,0,1,.27-.41c.64-.63,1.46-1.39,2.34-1.25a3.33,3.33,0,0,1,2,1.64,2.37,2.37,0,0,1,.15,2.63A2.13,2.13,0,0,1,197.72,129.2Z" style="fill:#ec407a"/><path d="M184.16,124.53a3.88,3.88,0,0,0,1.52,2,1.58,1.58,0,0,0,1,.47,1.32,1.32,0,0,0,.91-.57,3.65,3.65,0,0,0,.64-3.28c-.39-1.28-1.55-2.57-2.74-1.89A3.59,3.59,0,0,0,184.16,124.53Z" style="fill:#ec407a"/><path d="M180.22,115.47c.6.56,1.52,1.09,2.18.61a1.47,1.47,0,0,0,.5-.78c.47-1.42-.17-4.36-2.08-4.38C178.06,110.88,179,114.31,180.22,115.47Z" style="fill:#ec407a"/><path d="M171.75,123.57a1.2,1.2,0,0,0,1.19.67,3.11,3.11,0,0,0,1.36-.52,5.37,5.37,0,0,0,1.91-1.72c.86-1.44,0-3.69-1.77-2.82C173.45,119.65,171.32,122.48,171.75,123.57Z" style="fill:#ec407a"/><path d="M180,133.07a.74.74,0,0,0,.38-.3,3.25,3.25,0,0,0,.43-2.51,5.49,5.49,0,0,0-1.21-2.3,1.55,1.55,0,0,0-1-.59c-.73.6-1.7,1.41-1.58,2.4a2.37,2.37,0,0,0,.41.95,8.1,8.1,0,0,0,2.06,2.19.66.66,0,0,0,.39.17Z" style="fill:#ec407a"/><path d="M184.53,134.84a8.19,8.19,0,0,0-1.61,1.61,2.67,2.67,0,0,0-.45,2.16,1.63,1.63,0,0,0,1.7,1.21,1.76,1.76,0,0,0,1.29-1.19,5,5,0,0,0,.23-1.82,2.58,2.58,0,0,0-.22-1.35.92.92,0,0,0-1.17-.44" style="fill:#ec407a"/><path d="M166,130.08a3.73,3.73,0,0,0-.65,1.17,2.59,2.59,0,0,0,1.14,2.62,1.89,1.89,0,0,0,1,.39c.92.05,1.58-.92,1.77-1.82a4.66,4.66,0,0,0-.66-3.51C167.34,127.36,166.89,128.85,166,130.08Z" style="fill:#ec407a"/><path d="M169.59,138.86a2.35,2.35,0,0,0-.54,1.15,1.53,1.53,0,0,0,1.83,1.36,3.26,3.26,0,0,0,2-1.54,4,4,0,0,0,.85-2.45C173.53,133.51,170.3,137.88,169.59,138.86Z" style="fill:#ec407a"/><path d="M187.32,148.38l-.1,0a2.33,2.33,0,0,1-1-.74,3.24,3.24,0,0,1-.82-2.72,2,2,0,0,1,1.87-1.49,4.38,4.38,0,0,1,1.9,1.74,2.52,2.52,0,0,1,.07,2.34A1.8,1.8,0,0,1,187.32,148.38Z" style="fill:#ec407a"/><path d="M195.75,151.05a1.73,1.73,0,0,1-1.36-1.14,3.4,3.4,0,0,1-.08-1.23,4.25,4.25,0,0,1,.88-2.8,1.17,1.17,0,0,1,1.06-.38,5.23,5.23,0,0,1,1.67,3,2.25,2.25,0,0,1-2,2.54Z" style="fill:#ec407a"/><path d="M200.28,160.16a2.23,2.23,0,0,0-.53,2,2,2,0,0,0,.54.73,1.86,1.86,0,0,0,1.28.7,1.68,1.68,0,0,0,1-.46,3.78,3.78,0,0,0,1.44-2.84C204,156.79,201.45,158.52,200.28,160.16Z" style="fill:#ec407a"/><path d="M165,158.28l.21-.13a2.16,2.16,0,0,0,.81-2,4.47,4.47,0,0,0-.82-2.05,2.65,2.65,0,0,0-.94-.94,1.29,1.29,0,0,0-1-.07,3.84,3.84,0,0,0-1.17,3.79A2.24,2.24,0,0,0,165,158.28Z" style="fill:#ec407a"/><path d="M195.44,169.76a1.62,1.62,0,0,0,.39,1.46,2.55,2.55,0,0,0,.72.49,1.09,1.09,0,0,0,1.51-.28,2.28,2.28,0,0,0,.65-.92,1.51,1.51,0,0,0-.59-1.53A1.65,1.65,0,0,0,195.44,169.76Z" style="fill:#ec407a"/><path d="M189.44,167.12a1.21,1.21,0,0,0,.23.72.65.65,0,0,0,.67.26,1,1,0,0,0,.48-.39,3.59,3.59,0,0,0,.66-1,1.4,1.4,0,0,0,0-1.15C190.67,164,189.39,166.22,189.44,167.12Z" style="fill:#ec407a"/><path d="M181,171.72a1.93,1.93,0,0,0,.45,1.76,2,2,0,0,0,1.22.8,1.51,1.51,0,0,0,1.5-.79,1.92,1.92,0,0,0,0-1.73C183.53,170.48,181.62,170.09,181,171.72Z" style="fill:#ec407a"/><path d="M188.15,174.72a1.88,1.88,0,0,0,.3,2.48,2.17,2.17,0,0,0,1.08.63,1.21,1.21,0,0,0,1.16-.37,2,2,0,0,0,.26-1.35c0-.8-.12-2.13-.92-2.6S188.52,174.08,188.15,174.72Z" style="fill:#ec407a"/><path d="M181.12,182.47a2,2,0,0,0,.15,2.35,2.08,2.08,0,0,0,2.29.57,1.34,1.34,0,0,0,.65-.52,1.53,1.53,0,0,0,.2-.75C184.46,182.42,182.38,180.48,181.12,182.47Z" style="fill:#ec407a"/><path d="M172.57,177.29a2.37,2.37,0,0,0-.24,2.09,2.15,2.15,0,0,0,1.74,1.44,2,2,0,0,0,2.09-1.79C176.39,177.05,173.91,175.31,172.57,177.29Z" style="fill:#ec407a"/><path d="M171.07,169.37a2.39,2.39,0,0,0,1,1.67,1.62,1.62,0,0,0,1.87,0,2.4,2.4,0,0,0,.7-1.83,3.41,3.41,0,0,0-.13-1.31c-.28-.75-1.41-2-2.34-1.69S170.94,168.5,171.07,169.37Z" style="fill:#ec407a"/><path d="M163.2,164.54a3.41,3.41,0,0,0,.17,1.89,3.37,3.37,0,0,0,.69,1.31,1.56,1.56,0,0,0,1.35.5,1.62,1.62,0,0,0,.78-.45,2.41,2.41,0,0,0,.18-3.09C165.59,163.7,163.64,162.44,163.2,164.54Z" style="fill:#ec407a"/><path d="M164.3,173.14a1.9,1.9,0,0,0-1.11.83,1.55,1.55,0,0,0-.11,1.36,1.7,1.7,0,0,0,1,.92,2.73,2.73,0,0,0,1.42.06,1.21,1.21,0,0,0,.77-2.19C165.81,173.54,165.12,172.92,164.3,173.14Z" style="fill:#ec407a"/><path d="M199.81,136.29a2.24,2.24,0,0,0,.64,2.31,2.76,2.76,0,0,0,.71.45,1.74,1.74,0,0,0,1.49.09,2,2,0,0,0,.76-1.92,2,2,0,0,0-.16-.8C202.48,134.82,200.47,134.23,199.81,136.29Z" style="fill:#ec407a"/><path d="M202.58,149.1a2,2,0,0,0,.78,2.05,1.54,1.54,0,0,0,1.69-.37,3.59,3.59,0,0,0,.84-1.63,2.62,2.62,0,0,0,0-1.83C204.88,145.11,202.72,147.86,202.58,149.1Z" style="fill:#ec407a"/><path d="M190.77,134.41a2.67,2.67,0,0,0,.59,2.36,5.66,5.66,0,0,0,.9.79,1.94,1.94,0,0,0,.68.39,1.25,1.25,0,0,0,1.05-.32,2.84,2.84,0,0,0,.63-.93,3,3,0,0,0,.36-1.59,2.44,2.44,0,0,0-.89-1.51C192.85,132.54,191.25,132.55,190.77,134.41Z" style="fill:#ec407a"/><path d="M176.49,144.93a1.79,1.79,0,0,0,0,.56,3,3,0,0,0,.4,1.17,2.69,2.69,0,0,0,1.3.9,2,2,0,0,0,1.91,0,1.57,1.57,0,0,0,.49-.77,3.16,3.16,0,0,0-1.34-3.52C178.3,142.81,176.68,143.88,176.49,144.93Z" style="fill:#ec407a"/><path d="M161.39,144.43a2.32,2.32,0,0,0,.69,1.18,1.33,1.33,0,0,0,1.29.26,1.8,1.8,0,0,0,.94-1.41c.21-1,.12-3.76-1.38-3.84S161.11,143.42,161.39,144.43Z" style="fill:#ec407a"/><path d="M169.45,149.52a2.89,2.89,0,0,0,.54,2,3.36,3.36,0,0,0,1.13,1.09,2,2,0,0,0,1.53.14,1.86,1.86,0,0,0,1.14-1.71,2.73,2.73,0,0,0-.87-1.94C171.87,148.07,169.8,147.41,169.45,149.52Z" style="fill:#ec407a"/><path d="M182.8,153.16a1.16,1.16,0,0,0-.86.6,1.54,1.54,0,0,0,.32,1.42,5.48,5.48,0,0,0,3.23,2.19,1.59,1.59,0,0,0,1.56-.27,1.21,1.21,0,0,0,.22-1.09,2.51,2.51,0,0,0-.59-1C185.75,153.94,184.3,152.87,182.8,153.16Z" style="fill:#ec407a"/><path d="M193.12,157.84a2.11,2.11,0,0,0,.43,2.69,1.14,1.14,0,0,0,.82.29,1.59,1.59,0,0,0,.9-.57,3.12,3.12,0,0,0,1.15-2.2C196.28,156,193.92,156.59,193.12,157.84Z" style="fill:#ec407a"/><path d="M173.44,158.53c-.55.38-1.1.95-1,1.61a1.58,1.58,0,0,0,.62,1,4.48,4.48,0,0,0,2.66,1.09,1.64,1.64,0,0,0,.85-.12,1.77,1.77,0,0,0,.8-1.48,3.46,3.46,0,0,0-.26-1.83C176.24,156.91,174.72,157.63,173.44,158.53Z" style="fill:#ec407a"/><path d="M182.44,163.23a1.7,1.7,0,0,0,.15,1.84,2.74,2.74,0,0,0,2.75.55,1.8,1.8,0,0,0,.63-2.07C185.32,161.5,183.43,161.17,182.44,163.23Z" style="fill:#ec407a"/><path d="M162.77,180.54a1.83,1.83,0,0,0-.29,1.05,2,2,0,0,0,.13.77,1.63,1.63,0,0,0,1.39.95,2.06,2.06,0,0,0,1.59-.66,1.47,1.47,0,0,0,.45-1.13,1.42,1.42,0,0,0-.55-.94C164.85,180.05,163.34,179.75,162.77,180.54Z" style="fill:#ec407a"/><path d="M172.06,186.57a1.87,1.87,0,0,0-.39,1.67,1.84,1.84,0,0,0,1.17,1.24,2.32,2.32,0,0,0,1.17.06,1.88,1.88,0,0,0,1.26-.75,2.15,2.15,0,0,0,.2-1.46,2.09,2.09,0,0,0-.2-.73C174.66,185.43,172.8,185.74,172.06,186.57Z" style="fill:#ec407a"/><path d="M163.2,191a2.34,2.34,0,0,0,.05,1.46,1.68,1.68,0,0,0,.77.72,2.14,2.14,0,0,0,1.42.21,1.58,1.58,0,0,0,1.11-.88,1.94,1.94,0,0,0,.15-.62,2.89,2.89,0,0,0-.14-1.37c-.23-.61-1.3-1.89-2-1.86S163.33,190.38,163.2,191Z" style="fill:#ec407a"/><path d="M95.23,143.31a3.35,3.35,0,0,0-.84.54,2.11,2.11,0,0,0-.45,2.19,3.48,3.48,0,0,0,1.52,1.76,3.22,3.22,0,0,0,1.85.56,1.81,1.81,0,0,0,1.57-1,2.57,2.57,0,0,0,.18-1,3.56,3.56,0,0,0-.1-1.22,3.43,3.43,0,0,0-1.7-1.82A1.73,1.73,0,0,0,95.23,143.31Z" style="fill:#ec407a"/><path d="M106.55,143.23a2,2,0,0,0-.52,1,2.37,2.37,0,0,0,0,1.42,3.25,3.25,0,0,0,1.07,1.29,4.13,4.13,0,0,0,1.91,1,1.68,1.68,0,0,0,1.84-.86,1.8,1.8,0,0,0,.1-.83,3.39,3.39,0,0,0-1.11-2.12C109.17,143.52,107.48,142.33,106.55,143.23Z" style="fill:#ec407a"/><path d="M117.44,142.93a2.48,2.48,0,0,0-.82,1.16,1.9,1.9,0,0,0,1.42,2.12,3.74,3.74,0,0,0,2.72-.47,2.07,2.07,0,0,0,.67-.5,1.7,1.7,0,0,0-.2-2.12C120,141.67,118.74,141.75,117.44,142.93Z" style="fill:#ec407a"/><path d="M126.57,142.88a7.4,7.4,0,0,0-.64,1.57,1.56,1.56,0,0,0-.11.9,1.13,1.13,0,0,0,.5.66,2,2,0,0,0,2.54-.42,2.73,2.73,0,0,0,.47-2.64,1.59,1.59,0,0,0-.34-.64C128.07,141.31,127.12,142,126.57,142.88Z" style="fill:#ec407a"/><path d="M133,144.86a1.89,1.89,0,0,0-.1.94,2.34,2.34,0,0,0,1.12,1.38,2.06,2.06,0,0,0,2,.37,1.89,1.89,0,0,0,.69-2c-.14-.88-.79-2.34-1.8-2.51S133.25,144.11,133,144.86Z" style="fill:#ec407a"/><path d="M140.26,143.68a2,2,0,0,0,0,1.41,1.4,1.4,0,0,0,1.07.87.75.75,0,0,0,.42,0,1,1,0,0,0,.36-.3c.73-.8,1.39-2.15.34-3S140.58,142.76,140.26,143.68Z" style="fill:#ec407a"/><path d="M129.43,152.39a1.89,1.89,0,0,0,.33,2.16,1.58,1.58,0,0,0,.62.28,2.53,2.53,0,0,0,2.41-.66,2.28,2.28,0,0,0,.45-2.42C132.25,149.56,130.07,150.73,129.43,152.39Z" style="fill:#ec407a"/><path d="M119.4,151.3a2.57,2.57,0,0,0,.14,1.68,3.44,3.44,0,0,0,1.1,1.68,1.59,1.59,0,0,0,1.89.07,1.81,1.81,0,0,0,.57-1.25,3.08,3.08,0,0,0-.58-2.1C121.82,150.44,119.93,149.75,119.4,151.3Z" style="fill:#ec407a"/><path d="M112.25,155.32a2.38,2.38,0,0,0,1.23,1.76,2.4,2.4,0,0,0,2.14,0,1.67,1.67,0,0,0,.72-.62,1.72,1.72,0,0,0,.16-1.12,2.65,2.65,0,0,0-1-1.71C114.05,152.6,112,153.35,112.25,155.32Z" style="fill:#ec407a"/><path d="M101.26,152.33a1.91,1.91,0,0,0-.13,1.75,2.83,2.83,0,0,0,.72.89,4,4,0,0,0,1.64,1,1.82,1.82,0,0,0,1.79-.41,2,2,0,0,0,.4-1.81C105.25,151.59,102.64,150,101.26,152.33Z" style="fill:#ec407a"/><path d="M148.91,151.08a2.06,2.06,0,0,0-.56,1c-.1.75.54,1.39,1.18,1.79a2.19,2.19,0,0,0,1.56.44,1.53,1.53,0,0,0,1-.91,3,3,0,0,0-.36-2.67C150.67,149.29,149.92,149.94,148.91,151.08Z" style="fill:#ec407a"/><path d="M150.48,157.58a1.68,1.68,0,0,0-1.3.72,1.88,1.88,0,0,0-.27,1,2.51,2.51,0,0,0,1,2.13,2.06,2.06,0,0,0,2.28.14,1.75,1.75,0,0,0,.69-2.12A2.54,2.54,0,0,0,150.48,157.58Z" style="fill:#ec407a"/><path d="M143.16,156.89a1.91,1.91,0,0,0-.72,1.86,1.85,1.85,0,0,0,.61.75,1.92,1.92,0,0,0,.88.46,1.65,1.65,0,0,0,1.49-.7,2.42,2.42,0,0,0,.54-1.79C145.73,155.56,144.21,155.86,143.16,156.89Z" style="fill:#ec407a"/><path d="M149.71,171.41a2,2,0,0,0,.47,1.93.84.84,0,0,0,.59.24,1.07,1.07,0,0,0,.55-.28,3.1,3.1,0,0,0,1.14-3,2.27,2.27,0,0,0-.4-.79C150.85,168,149.93,170.45,149.71,171.41Z" style="fill:#ec407a"/><path d="M150.25,178.93a1.73,1.73,0,0,0-.45.52,4.73,4.73,0,0,0-.75,1.85,2.49,2.49,0,0,0,.45,1.91,1.72,1.72,0,0,0,1.78.64,1.77,1.77,0,0,0,1-.9,2.87,2.87,0,0,0,.28-1.36,3.16,3.16,0,0,0-.73-2.06C151.51,179.13,150.79,178.55,150.25,178.93Z" style="fill:#ec407a"/><path d="M145.2,190.9c-.07.76.59,1.38,1.23,1.8a2.59,2.59,0,0,0,.86.4,2.13,2.13,0,0,0,1.78-.77,2.79,2.79,0,0,0,.83-1.42,2.48,2.48,0,0,0-2.14-2.72C146.73,188.22,145.28,190,145.2,190.9Z" style="fill:#ec407a"/><path d="M136.41,185.83a1.86,1.86,0,0,0,.7,1.7,2.38,2.38,0,0,0,1.69.88,2.22,2.22,0,0,0,1.75-1.63,2.82,2.82,0,0,0,.22-1.21,1.47,1.47,0,0,0-.54-1.07C139.23,183.76,136.74,184.65,136.41,185.83Z" style="fill:#ec407a"/><path d="M143.2,177.82a2.59,2.59,0,0,0-.13,2,1.57,1.57,0,0,0,1.66,1,2.08,2.08,0,0,0,1.39-1.84,2.8,2.8,0,0,0-.24-1.83C145,175.62,143.73,176.65,143.2,177.82Z" style="fill:#ec407a"/><path d="M135.72,172.54a1.87,1.87,0,0,0-.38,1.49,3.53,3.53,0,0,0,.35,1.71,3.63,3.63,0,0,0,1,.9,1.47,1.47,0,0,0,.85.36c.52,0,.87-.54,1-1.05C139,174.44,137.87,170.59,135.72,172.54Z" style="fill:#ec407a"/><path d="M143.47,166.45a1.62,1.62,0,0,0-.68,1.21,2,2,0,0,0,.21.88,3.67,3.67,0,0,0,1.1,1.45,1,1,0,0,0,1.55,0,2.5,2.5,0,0,0,.71-2.07C146.19,166.25,145,165.34,143.47,166.45Z" style="fill:#ec407a"/><path d="M134.38,167a2.28,2.28,0,0,0,.81,1.18,3.28,3.28,0,0,0,1.14.75,1.3,1.3,0,0,0,1.29-.23,1.36,1.36,0,0,0,.34-.61c.34-1,0-3-1.25-3.32S134.17,166,134.38,167Z" style="fill:#ec407a"/></g></svg>