<svg id="Layer_20" data-name="Layer 20" xmlns="http://www.w3.org/2000/svg" viewBox="0 0 252 252"><defs><style>.cls-1{fill:#b51d41;}.cls-2{fill:#fff3e0;}.cls-3{fill:#903;}.cls-4{fill:#c2185b;}.cls-5{fill:#ec407a;}</style></defs><path class="cls-1" d="M184.14,205.18a32.32,32.32,0,0,0,3.62-10.38,48.81,48.81,0,0,0,.24-9.13l-.24-6.9c-.06-1.64-.11-3.28-.29-4.91a35.74,35.74,0,0,0-14.55-25c-3.35-2.4-7.26-4.29-10.48-6.87a15.26,15.26,0,0,1-4.69-5.27,17,17,0,0,1-1.13-5.48c-.17-1.85-.26-4,1-5.31,1.54-1.63,4.17-1.27,6.36-.8s4.81.83,6.35-.8c-2-1.81-4.69-1.56-7.38-1.63-1.77,0-3.92-.47-5.4.51a6.57,6.57,0,0,0,.35-1.91,14.88,14.88,0,0,0-1.2-7.69c-.06-.15-.2-.54-.2-.54s-.32.21-.46.33c-3.25,2.77-4.72,3.28-6.59,5.38l-2.94,3.3c.78-2.32,0-4.84-.86-7.14l-2.46-7c-.12-.35-.49-1.48-.49-1.48s-.7,1-.87,1.18a22.33,22.33,0,0,0-4.17,10.58,28.07,28.07,0,0,1-1.86-6.6,15.28,15.28,0,0,0-.85-3.32,17.24,17.24,0,0,0-2.24-3.52,14.11,14.11,0,0,0-.86,2.17c-1,4.56,4.69,7.86,3.61,12.4-.34,1.44-2,2.83-3,3.94a16.27,16.27,0,0,1-5,4.26c-4.14,2-9,.61-13.6.43-7-.28-14,2.47-19.64,6.65S84.16,144.4,80.2,150.22c-3.37,5-6.42,10.23-8,16-2.76,9.94-1,20.58,1.76,30.51a39.78,39.78,0,0,0,2.71,7.43c2.15,4.22,5.54,7.66,8.88,11,8.47,8.54,17.59,17.46,29.31,20.18,8.65,2,18.07,3.07,26.75,1.22a69.15,69.15,0,0,0,6.88-2,72.51,72.51,0,0,0,10.51-4,62.64,62.64,0,0,0,10.41-7,62.29,62.29,0,0,0,9.13-8.42C181.19,212,182.2,208.84,184.14,205.18Z"/><path class="cls-2" d="M129.88,132.62c-2.92-.24-5.79-1-8.72-1.29-8-.83-16.13,1.72-22.82,6.18s-12,10.77-16.19,17.64a48.29,48.29,0,0,0-4.68,9.68c-2.74,8.07-2.5,16.88-1,25.27a46.94,46.94,0,0,0,5.25,15.78c4.58,7.89,12.27,13.39,19.73,18.65,6.29,4.42,13.14,9,20.82,8.93,2.2,0,4.38-.46,6.57-.59,4-.24,8,.48,11.95.3,5.83-.27,11.41-2.45,16.57-5.17,8.78-4.63,16.9-11.18,21.4-20A50.51,50.51,0,0,0,183,194.73a47.61,47.61,0,0,0,.71-16.86c-.92-5.58-3.44-11-7.72-14.72a57.21,57.21,0,0,1-4.38-3.68c-2.17-2.33-3.27-5.45-5.11-8.05-3.49-4.91-9.44-7.66-12.86-12.62-1.75-2.51-2.79-5.54-5-7.68-2.6-2.54-5.39-2.21-8.11-.48C137.4,132.63,133.66,132.94,129.88,132.62Z"/><path class="cls-3" d="M118.4,188.12a311.48,311.48,0,0,1-28.85,13.07,6.07,6.07,0,0,1-3.94.59c-1.8-.56-2.65-2.58-3.18-4.39a59.06,59.06,0,0,1-1.51-27,37.94,37.94,0,0,1,2.65-9c2.57-5.73,7-10.41,11.26-15a5.85,5.85,0,0,1,2-1.51,45.23,45.23,0,0,1,19-9.63c4.22-1,8.91-1.46,12.71.66a14.08,14.08,0,0,1,4.6,4.39c3.26,4.72,4.44,10.65,4.21,16.39a60.64,60.64,0,0,1-3.64,16.76,24.49,24.49,0,0,1-2.27,5.22c-2.32,3.67-6.28,5.93-10.12,8Z"/><path class="cls-3" d="M138,173.58c-.52,2.83-1,5.77-.34,8.56a21.82,21.82,0,0,0,2.18,4.89c6.07,11.24,10.57,23.25,15.62,35,.46,1.07,1.14,2.28,2.29,2.35a2.69,2.69,0,0,0,1.11-.23c4.56-1.74,6.9-6.66,10.21-10.26,1.51-1.65,3.29-3.06,4.63-4.85a22.93,22.93,0,0,0,3.14-6.58c3.13-9.22,4.83-19.65.74-28.49-1.9-4.11-4.93-7.58-7.91-11a101.82,101.82,0,0,0-10.14-10.52,37.32,37.32,0,0,1-5.5-5.15c-.88-1.13-1.58-2.4-2.54-3.45a5,5,0,0,0-3.73-1.83,4.59,4.59,0,0,0-3.54,2.44c-2,3.46-2.35,8.71-3.16,12.66C139.94,162.57,139,168.09,138,173.58Z"/><path class="cls-3" d="M129.07,187.67a1,1,0,0,1,1,0c.31.23.26.7.17,1.08a109.63,109.63,0,0,1-3.32,11.88,9,9,0,0,1-2.28,4c-1.16,1-2.73,1.38-4.1,2.07-4.27,2.17-6.45,7.39-10.87,9.24-4.08,1.7-8.71,0-12.79-1.67a17.72,17.72,0,0,1-5.09-2.78c-4.15-3.65-1.35-5.6,2.31-7.51q5.74-3,11.57-5.84Q117.22,192.55,129.07,187.67Z"/><path class="cls-3" d="M128,207.9c-.92,1.85-2,4-1.21,5.89.61,1.56,2.23,2.45,3.55,3.49A13,13,0,0,1,134,221.9a17.07,17.07,0,0,0,2,4c1.85,2.2,5.1,2.45,8,2.53a13.52,13.52,0,0,0,4.58-.4,4.6,4.6,0,0,0,3.17-3.09,6.79,6.79,0,0,0-.74-4q-5.4-13.2-11.29-26.21c-1.7-3.75-5.58-7.83-6.81-1.7A59.55,59.55,0,0,1,128,207.9Z"/><path class="cls-4" d="M121.87,137.24a2.51,2.51,0,0,0-1.09,2,3.23,3.23,0,0,0,1.45,2.1,13.61,13.61,0,0,0,4.69,2.7,1.86,1.86,0,0,0,1.23,0,1.75,1.75,0,0,0,.82-1.33C129.7,138.8,125.57,134.28,121.87,137.24Z"/><path class="cls-4" d="M129.67,151.22c.49,1.08,1.3,2.2,2.48,2.31a2.55,2.55,0,0,0,2.11-1,6,6,0,0,0,1-2.22,6.64,6.64,0,0,0,.05-4.18c-.73-1.8-3.53-3.29-5.26-2C128,145.63,128.8,149.34,129.67,151.22Z"/><path class="cls-4" d="M108.57,140.23a2.68,2.68,0,0,0-.72,2.82,3,3,0,0,0,1.2,1.28,6.64,6.64,0,0,0,6.06.54,5.23,5.23,0,0,0,2.83-2.62c1-2.18-.36-5.12-3-5.09C113.25,137.18,109.75,139,108.57,140.23Z"/><path class="cls-4" d="M118.42,149.54a18,18,0,0,0,4.56,1.93,3,3,0,0,0,1.21.14,2.13,2.13,0,0,0,1.62-1.72,4.55,4.55,0,0,0-.33-2.46c-.79-2.1-3.15-6.09-5.89-4.84C117,143.74,115.85,148,118.42,149.54Z"/><path class="cls-4" d="M131.85,164.57a2.29,2.29,0,0,0,2.39-.63,5.43,5.43,0,0,0,1.21-2.3c.68-2.14.07-7.64-3.42-5.48C130,157.4,129.31,163.54,131.85,164.57Z"/><path class="cls-4" d="M97.07,146.58a2,2,0,0,0-.42.95c-.09.93.89,1.56,1.73,2a8.18,8.18,0,0,0,4.37,1.12,4.25,4.25,0,0,0,3.6-4.25C106.05,139.77,99.14,143.6,97.07,146.58Z"/><path class="cls-4" d="M107.56,147.54,107,150a4.37,4.37,0,0,0-.16,1.48c.18,1.3,1.48,2.11,2.7,2.59a4.18,4.18,0,0,0,3.5.16,3.39,3.39,0,0,0,1.29-3.62C113.83,148,108.61,143,107.56,147.54Z"/><path class="cls-4" d="M115.78,156.07c.59,1.37,2.26,1.86,3.72,2.19a6.19,6.19,0,0,0,2,.23,2.09,2.09,0,0,0,1.66-1c.57-1.09-.31-2.36-1.17-3.24s-3.49-4-5.18-3.49C115.35,151.22,115.24,154.85,115.78,156.07Z"/><path class="cls-4" d="M125,158.63c.24.64.56,1.36,1.21,1.58a2,2,0,0,0,1.54-.3,4.91,4.91,0,0,0,2.57-4.5c-.14-1.77-2.13-4.22-4.08-3.6C123.38,152.7,124.26,156.68,125,158.63Z"/><path class="cls-4" d="M107,159.32c-.67,1.2-1.18,2.75-.44,3.92a3.37,3.37,0,0,0,2.1,1.33,3.59,3.59,0,0,0,2.2,0c2.31-.91,3.56-5.65,2.12-7.6C110.87,154.15,108,157.4,107,159.32Z"/><path class="cls-4" d="M113.69,163a4.2,4.2,0,0,0,0,2.6c.56,1.32,2.15,1.81,3.54,2.14a3.14,3.14,0,0,0,2.54-.11,2.67,2.67,0,0,0,.64-2.82c-.41-1.81-1.64-4.17-3.38-5.06C114.59,158.51,114.15,161,113.69,163Z"/><path class="cls-4" d="M121.65,165.56a3.28,3.28,0,0,0,.41,1.34,3,3,0,0,0,2.15,1.09,3.5,3.5,0,0,0,2.55-.35,2.66,2.66,0,0,0,.82-2.81c-.46-1.75-3-5.19-5.07-4.91C120,160.25,121.4,163.92,121.65,165.56Z"/><path class="cls-4" d="M127.66,168.93a7.6,7.6,0,0,0-1.09,2.66,2.31,2.31,0,0,0,3.75,2.35,6.89,6.89,0,0,0,1.88-2.23c.78-1.27,1.52-2.87.83-4.19-.44-.83-2.27-2.06-3.28-1.75S128.12,168.12,127.66,168.93Z"/><path class="cls-4" d="M99.56,154.3a4.84,4.84,0,0,0-1.33,2.43,3.75,3.75,0,0,0,3.71,4.09,4.49,4.49,0,0,0,4.15-4c.14-1.39-.53-3.84-1.93-4.53C102.56,151.5,100.61,153.16,99.56,154.3Z"/><path class="cls-4" d="M89.58,153.88c-.81,1-1.57,2.37-1.13,3.61a3.2,3.2,0,0,0,.89,1.24,3.46,3.46,0,0,0,3.34,1,4.23,4.23,0,0,0,2-1.81,34.09,34.09,0,0,0,2.2-3.73,3.43,3.43,0,0,0,.51-2.14c-.24-1.24-2.27-2.48-3.53-2.26C92.19,150.11,90.52,152.67,89.58,153.88Z"/><path class="cls-4" d="M92.6,162.81a2.64,2.64,0,0,0-.53,1.17,2.9,2.9,0,0,0,1,2.07,8.89,8.89,0,0,0,2.68,2.29,3.34,3.34,0,0,0,3.38-.14,3.24,3.24,0,0,0,1-3.17c-.28-1.52-1.89-4.49-3.59-4.85S93.38,161.65,92.6,162.81Z"/><path class="cls-4" d="M102,170.72a3.8,3.8,0,0,0,2.15,1c1.33.23,2.93,0,3.61-1.18a2.88,2.88,0,0,0,0-2.45,8.37,8.37,0,0,0-1.37-2.12c-1.31-1.64-2.76-4.66-4.27-1.74C101.34,165.89,100.68,169.23,102,170.72Z"/><path class="cls-4" d="M109.21,171.51a4.26,4.26,0,0,0,.83,2.59,4.07,4.07,0,0,0,1.75,1,5.15,5.15,0,0,0,2.54.31,2.38,2.38,0,0,0,1.88-1.57c.28-1-.38-2.07-1-2.94-.86-1.2-2.81-5.25-4.47-5C108.78,166.34,109.13,170.18,109.21,171.51Z"/><path class="cls-4" d="M122.63,175a4.9,4.9,0,0,1-1.06.29,3.45,3.45,0,0,1-1.75-.07c-1.36-.49-1.92-2.07-2.31-3.45a2.16,2.16,0,0,1,0-1.76c.29-.68.77-.86,1.73-1a17.28,17.28,0,0,1,4.19.19,2.17,2.17,0,0,1,1.24.52,2.29,2.29,0,0,1,.14,2.17,5.1,5.1,0,0,1-1.18,2.46A3.06,3.06,0,0,1,122.63,175Z"/><path class="cls-4" d="M125.13,182.31l-.74.39c-1.16.62-2.56,1.25-3.73.64s-1.48-2.31-1.17-3.66,1.29-2.74,2.62-2.83a6.64,6.64,0,0,1,3.88-.56,3.94,3.94,0,0,1,1.89.8,2.13,2.13,0,0,1,.78,1.84,2.77,2.77,0,0,1-.82,1.44A10.9,10.9,0,0,1,125.13,182.31Z"/><path class="cls-4" d="M83.93,163.9c-.59,1.51-1.15,3.33-.2,4.65a2.53,2.53,0,0,0,3.41.53,4.84,4.84,0,0,0,1.38-2,8.84,8.84,0,0,0,1.11-4.28c-.12-1.3-1.44-3.32-3-3S84.39,162.74,83.93,163.9Z"/><path class="cls-4" d="M89.13,174.82a4.64,4.64,0,0,0,2.29,1.27c1.43.41,3.25.36,4.09-.86s.23-3-.56-4.26c-1.06-1.75-3.33-4.66-5.21-2.7C88.29,169.78,87.67,173.17,89.13,174.82Z"/><path class="cls-4" d="M97.55,178.47a3.49,3.49,0,0,0,6-3.32c-.58-1.79-3.7-4.88-5.64-3.5S96.27,176.94,97.55,178.47Z"/><path class="cls-4" d="M104.43,178.44c-.23,1.39-.16,3.12,1.07,3.81s2.58,0,3.68-.76a5,5,0,0,0,1.42-1.25A3.61,3.61,0,0,0,110,176c-.66-.73-2.55-2.29-3.66-2C104.92,174.32,104.63,177.26,104.43,178.44Z"/><path class="cls-4" d="M111.68,180.75a6.09,6.09,0,0,0-.43,3.55,3.78,3.78,0,0,0,2.57,2.42,2.51,2.51,0,0,0,2.87-.69,2.84,2.84,0,0,0,.33-.85,13.6,13.6,0,0,0,.17-6.31,2.68,2.68,0,0,0-.86-1.67C113.36,175,112.32,178.8,111.68,180.75Z"/><path class="cls-4" d="M104.91,188a6.2,6.2,0,0,0,.33,2.35,2.38,2.38,0,0,0,1.7,1.53,3.27,3.27,0,0,0,1.51-.22,16.63,16.63,0,0,0,2-.8c.75-.35,1.57-.88,1.65-1.71a2.66,2.66,0,0,0-.66-1.69l-1-1.39C108,182.55,104.89,183.79,104.91,188Z"/><path class="cls-4" d="M102.77,188.12a1.87,1.87,0,0,0-3.18-.72,5.14,5.14,0,0,0-1.11,1.67c-1,2.21-3.07,7.06,1.22,6.63C103.31,195.33,104,191,102.77,188.12Z"/><path class="cls-4" d="M95.24,196.21a5.58,5.58,0,0,0,.67-1.87,6.85,6.85,0,0,0,.08-3.59,2.68,2.68,0,0,0-2.7-2c-1.45.22-2.16,1.83-2.61,3.21-.23.67-.45,1.34-.67,2-.45,1.36-.94,3.42.77,4.07C92.12,198.58,94.53,197.29,95.24,196.21Z"/><path class="cls-4" d="M88.06,196.58a5.37,5.37,0,0,1,.24,3.16.9.9,0,0,1-.34.49,1,1,0,0,1-.41.1c-4.07.28-6-5.3-4.89-8.54.44-1.3,1.17-2.23,2.61-1.59C87.2,191.06,87.55,194.82,88.06,196.58Z"/><path class="cls-4" d="M83.31,189a6,6,0,0,0,2.16-.1,3,3,0,0,0,1.38-.54c1-.81.68-2.36.2-3.53-.65-1.62-1.61-3.29-3.23-3.91C80.25,179.58,80.13,188.44,83.31,189Z"/><path class="cls-4" d="M81.09,175.74A3.6,3.6,0,0,0,81,177.3c.28,1.28,1.72,1.87,3,2.26.93.29,2,.55,2.79-.05a2.69,2.69,0,0,0,.68-2.4,12,12,0,0,0-1.26-4.44C83.71,167.9,81.65,173.4,81.09,175.74Z"/><path class="cls-4" d="M89.39,187.6c0,.26,0,.56.27.7a.84.84,0,0,0,.77,0l3.73-1.43a1.93,1.93,0,0,0,1.26-1,1.48,1.48,0,0,0-.15-1.14,5.12,5.12,0,0,0-3-2.2,4.89,4.89,0,0,0-2-.39C87.44,182.32,89.28,185.85,89.39,187.6Z"/><path class="cls-4" d="M102.87,183a1.63,1.63,0,0,0-.4-1.39,3,3,0,0,0-1.82-.63c-1.38-.15-3.26-.66-4.49,0-1.41.71,0,2.26.44,3.52a2.43,2.43,0,0,0,.5,1c.65.67,1.76.44,2.64.16a5.67,5.67,0,0,0,2.55-1.35A2.33,2.33,0,0,0,102.87,183Z"/><path class="cls-4" d="M94,180.59,95,179c.17-.28.34-.66.13-.92a.83.83,0,0,0-.49-.23l-2.52-.53c-1.63-.34-4.72.12-2.89,3,.32.52.86.47,1.48.6s1.45.27,2.17.38a1.11,1.11,0,0,0,.6,0,1.14,1.14,0,0,0,.4-.44Z"/><path class="cls-4" d="M144.16,147.86a3.12,3.12,0,0,0-.16,1,2.09,2.09,0,0,0,.9,1.52,4.53,4.53,0,0,0,1.68.69,4.15,4.15,0,0,0,3.14-.26c1.28-.82,1.52-2.66,1.09-4.12-.48-1.62-2-3.2-3.82-2.92S144.56,146.37,144.16,147.86Z"/><path class="cls-4" d="M150.91,152.52c0,1.89,1.46,3.46,3,4.52a4.91,4.91,0,0,0,2.58,1,2.12,2.12,0,0,0,2.15-1.45,3.23,3.23,0,0,0-.8-2.41l-1.38-2a9.76,9.76,0,0,0-1-1.3C153.36,148.66,150.94,149.3,150.91,152.52Z"/><path class="cls-4" d="M143,153.68a7.19,7.19,0,0,0-.76,3.31,2,2,0,0,0,0,.7,1.58,1.58,0,0,0,.55.73,7.84,7.84,0,0,0,3,1.41,3.28,3.28,0,0,0,2.73-.11c1-.68,1-2.1.71-3.25A6.33,6.33,0,0,0,148.2,154C146.92,152.31,144.24,151.57,143,153.68Z"/><path class="cls-4" d="M149.68,163.27c.24,1.36,1.65,2.17,3,2.58a5,5,0,0,0,2.46.26,2.28,2.28,0,0,0,1.83-1.52,2.61,2.61,0,0,0-.28-1.79c-.67-1.33-3-4-4.63-4.06C150.16,158.71,149.43,161.84,149.68,163.27Z"/><path class="cls-4" d="M160.87,156.91a2.43,2.43,0,0,1,2,.34,4.47,4.47,0,0,1,1.42,1.57,7.75,7.75,0,0,1,1,3.34,1.6,1.6,0,0,1-.32,1.27,1.42,1.42,0,0,1-.53.31c-2,.75-5.74-.12-6.76-2.18C157.08,160.23,159.55,157.32,160.87,156.91Z"/><path class="cls-4" d="M144.9,161.41a3.65,3.65,0,0,1,1.09.66,2.31,2.31,0,0,1,.55,2.1,5.16,5.16,0,0,1-1,2,14.21,14.21,0,0,1-2.23,2.42,2.56,2.56,0,0,1-.78.49,1.78,1.78,0,0,1-2-1c-.78-1.51.09-3.38.52-4.87.22-.77.25-2,1-2.45S144.21,161.11,144.9,161.41Z"/><path class="cls-4" d="M146,169.23a2.32,2.32,0,0,0-.13,1.3,2.1,2.1,0,0,0,.85,1,7.34,7.34,0,0,0,2.77,1.22,3.71,3.71,0,0,0,1.9,0,1.9,1.9,0,0,0,1.32-1.3,3.06,3.06,0,0,0-.69-2.22c-.74-1.15-2-3.28-3.44-3.58S146.41,168,146,169.23Z"/><path class="cls-4" d="M139.77,171.11a1.74,1.74,0,0,1,2.25-.32,4,4,0,0,1,1.51,1.93,5.74,5.74,0,0,1,.59,2.25,3.65,3.65,0,0,1-1,2.57,3.36,3.36,0,0,1-2.56,1,2.32,2.32,0,0,1-1.52-.66c-.9-1-.52-2.3-.15-3.38S139.21,171.92,139.77,171.11Z"/><path class="cls-4" d="M165.6,167.25a3.23,3.23,0,0,0,1.46,2.12,9.33,9.33,0,0,0,2.41,1.07,1.87,1.87,0,0,0,1.33.12,1.48,1.48,0,0,0,.77-1.21,5.33,5.33,0,0,0-1-3.43c-.49-.8-2.17-3.88-3.36-3.35C166.3,163,165.47,166.4,165.6,167.25Z"/><path class="cls-4" d="M140.33,185.4l1,1.71a2,2,0,0,0,.47.63,1.9,1.9,0,0,0,.64.27,2.9,2.9,0,0,0,2.3-.1,2.16,2.16,0,0,0,.83-2.11,5,5,0,0,0-1-2.14c-.83-1.13-2.82-3.94-4.54-3S139.67,184.23,140.33,185.4Z"/><path class="cls-4" d="M144,180.4a2.73,2.73,0,0,0,3.38,2.08,4.32,4.32,0,0,0,2.29-2.33,4.58,4.58,0,0,0,.5-3.34,5.71,5.71,0,0,0-1.23-1.89,4.71,4.71,0,0,0-1.32-1.2c-2.06-1.08-2,1.25-2.37,2.49C144.89,177.64,143.77,178.83,144,180.4Z"/><path class="cls-4" d="M164.32,168.51A8.54,8.54,0,0,1,165,171a1.76,1.76,0,0,1-.63,1.64,1.79,1.79,0,0,1-1,.2c-2.84,0-6.59-2.83-5.52-6.05a2.22,2.22,0,0,1,2.6-1.54C163.08,165.44,163.43,166.29,164.32,168.51Z"/><path class="cls-4" d="M153.68,174.66a2.48,2.48,0,0,0,2,1.33c1.11.2,2.49,0,3-1a2.6,2.6,0,0,0-.35-2.38,21.35,21.35,0,0,1-1.63-3.37c-.37-.93-.71-1.51-1.69-.91C153.42,169.24,153.13,173.2,153.68,174.66Z"/><path class="cls-4" d="M171.64,173.54a7.64,7.64,0,0,0,.43,2.58,6,6,0,0,0,1,2.21,2.14,2.14,0,0,0,2.15.82,2,2,0,0,0,1.28-1.37,4.37,4.37,0,0,0,.08-1.94,11.58,11.58,0,0,0-1.14-3.68,3.4,3.4,0,0,0-.9-1.21C172.84,169.67,171.71,172.2,171.64,173.54Z"/><path class="cls-4" d="M143.84,192.31c.32.66.6,1.33.86,2a5.46,5.46,0,0,0,.73,1.47,3,3,0,0,0,3.18.79,2.58,2.58,0,0,0,1.87-2,3,3,0,0,0-.66-2,7.1,7.1,0,0,0-4.44-2.93C143.52,189.33,143.09,190.77,143.84,192.31Z"/><path class="cls-4" d="M148.46,202.66a3.48,3.48,0,0,0,1,1.42,2.13,2.13,0,0,0,2.05,0,3.71,3.71,0,0,0,1.49-1.5,4.16,4.16,0,0,0,.43-3.48,2.62,2.62,0,0,0-2.87-1.68C147.57,198.19,147.1,199.94,148.46,202.66Z"/><path class="cls-4" d="M157.35,221.18a2.48,2.48,0,0,0,2.28.84,3.38,3.38,0,0,0,1.84-1.54,2.81,2.81,0,0,0,.53-1,2.54,2.54,0,0,0-.46-1.87,4.2,4.2,0,0,0-3-2.15C154.75,215.14,155.76,219.47,157.35,221.18Z"/><path class="cls-4" d="M155.39,214.9a3.36,3.36,0,0,0,1.76-.64,4.06,4.06,0,0,0,1.07-2.76,1.37,1.37,0,0,0-.13-1,1.2,1.2,0,0,0-.7-.41c-1.37-.39-4-.38-4.46,1.35S153.66,215.14,155.39,214.9Z"/><path class="cls-4" d="M151.53,208.78a3.44,3.44,0,0,0,3.3.11,3.28,3.28,0,0,0,1.86-1.5,2.06,2.06,0,0,0-.11-1.94,2.08,2.08,0,0,0-1.68-1,14.47,14.47,0,0,0-2.47.64c-1,.17-1.68.1-1.9,1.18A2.86,2.86,0,0,0,151.53,208.78Z"/><path class="cls-4" d="M163.81,216.83a2.36,2.36,0,0,0,.84-.34,8.78,8.78,0,0,0,2.11-1.5,2.89,2.89,0,0,0,.83-2.36c-.45-2.54-3.78-2.23-5.31-1S161.38,217.11,163.81,216.83Z"/><path class="cls-4" d="M148.42,188.71a13.92,13.92,0,0,0,2.29,1.38,3,3,0,0,0,2.13.52,2.59,2.59,0,0,0,1.41-1.77,3.68,3.68,0,0,0,.3-1.87,3,3,0,0,0-1.74-2c-1.06-.54-3.67-1.11-4.84-.51C146.17,185.32,147.27,187.77,148.42,188.71Z"/><path class="cls-4" d="M151.08,181.2a1.56,1.56,0,0,0,.08,1.29,1.66,1.66,0,0,0,.77.48l2,.78a3,3,0,0,0,2.56.21,2.62,2.62,0,0,0,1-1.23,4,4,0,0,0,.51-2c-.07-1.52-1.49-2.63-2.89-3.24a3.15,3.15,0,0,0-1.37-.31C152.2,177.34,151.39,180,151.08,181.2Z"/><path class="cls-4" d="M157.92,177.38a2.54,2.54,0,0,0,.21,1,7,7,0,0,0,1.68,2.78,2.91,2.91,0,0,0,3,.64,2.7,2.7,0,0,0,1.43-1.76,5.19,5.19,0,0,0,.06-2.32,4.09,4.09,0,0,0-1.49-2.77C161.47,174,158.06,175.72,157.92,177.38Z"/><path class="cls-4" d="M166,173.74a3.77,3.77,0,0,0-.78.91,3.72,3.72,0,0,0,.08,2.74,8.4,8.4,0,0,0,1,2.32,3.21,3.21,0,0,0,2,1.44,1.63,1.63,0,0,0,1-.12,2.08,2.08,0,0,0,.89-1.67,15.9,15.9,0,0,0-.48-5.13,3.39,3.39,0,0,0-.73-1.75C167.84,171.33,166.73,173,166,173.74Z"/><path class="cls-4" d="M174,184.63l-.11,1.41a3.55,3.55,0,0,0,.06,1.3,2.18,2.18,0,0,0,2.76,1.22,3.36,3.36,0,0,0,2-2.52,8,8,0,0,0-.15-3.34c-.27-1.27-1.15-3-2.71-2.26S174.08,183.31,174,184.63Z"/><path class="cls-4" d="M172.9,191.21a2.56,2.56,0,0,0,.17,2.42A7.09,7.09,0,0,0,175,196a1.53,1.53,0,0,0,1.63.38,1.69,1.69,0,0,0,.58-.78,26.08,26.08,0,0,0,1.2-3.19,2.19,2.19,0,0,0,.07-1.51,1.55,1.55,0,0,0-1.41-.78C176,190.1,173.54,190.16,172.9,191.21Z"/><path class="cls-4" d="M172.32,208.64a2.43,2.43,0,0,0,.63-1.74,2.1,2.1,0,0,0-.31-.72c-1.6-2.42-6.15-1.68-6.22,1.47a3.69,3.69,0,0,0,1.93,3.07C170,211.61,171.37,209.91,172.32,208.64Z"/><path class="cls-4" d="M175.66,201.09a5.79,5.79,0,0,0-1.78-3.61,6,6,0,0,0-1.38-1.28,1,1,0,0,0-1-.12,1.15,1.15,0,0,0-.36.48c-.9,1.79-2.21,4.61-.49,6.32a6.3,6.3,0,0,0,2.86,1.53C174.89,204.46,175.63,202.28,175.66,201.09Z"/><path class="cls-4" d="M162.44,209.78a5.66,5.66,0,0,0,2.62-2.76,2.84,2.84,0,0,0-1-3.41c-1.79-1-5.34.62-5.86,2.61C157.45,208.92,160,211.22,162.44,209.78Z"/><path class="cls-4" d="M166.53,202.76a2.06,2.06,0,0,0,1.42-.87,4.69,4.69,0,0,0,.66-1.58,10.62,10.62,0,0,0,.3-1.79,2.77,2.77,0,0,0-.35-1.86,2.08,2.08,0,0,0-2.5-.42c-1.14.53-2.75,2.13-2.66,3.5S165.19,202.88,166.53,202.76Z"/><path class="cls-4" d="M155.41,201.19a2.77,2.77,0,0,0,.34.74,2.58,2.58,0,0,0,2.16.88,4.72,4.72,0,0,0,3.46-1.28,2.91,2.91,0,0,0,.47-3.48,3.59,3.59,0,0,0-2.32-1.36c-1.12-.25-3.68-.47-4.55.52S155.1,200.22,155.41,201.19Z"/><path class="cls-4" d="M154,195.5a11.2,11.2,0,0,0,3.73-.29,3.37,3.37,0,0,0,2.42-1.25c.55-.93.09-2.12-.48-3a12.05,12.05,0,0,0-1-1.43,2.17,2.17,0,0,0-.6-.57C155.49,187.42,150.15,195,154,195.5Z"/><path class="cls-4" d="M162.27,195.18a2.09,2.09,0,0,0,2,.15,3.56,3.56,0,0,0,2.47-1.69,2.29,2.29,0,0,0,.15-1.27,3.28,3.28,0,0,0-2.34-2.64c-1.2-.32-2.79.06-3.06,1.36C161.36,192,161.61,194.56,162.27,195.18Z"/><path class="cls-4" d="M158.51,187.67a4.75,4.75,0,0,0,2.31,1.26,6.31,6.31,0,0,0,2.87-.43c1-.31,2.11-.74,2.47-1.71a2.38,2.38,0,0,0-1.58-2.8,11.12,11.12,0,0,0-5.72.16C157.07,184.67,157.26,186.54,158.51,187.67Z"/><path class="cls-4" d="M169.25,188.21a1.71,1.71,0,0,0,1.62.18,2.45,2.45,0,0,0,1.09-1.45,12.06,12.06,0,0,0,.73-3,2,2,0,0,0-.53-1.91c-1-.7-3.85.67-4.42,1.64C167,185,168.09,187.46,169.25,188.21Z"/><path class="cls-4" d="M171.07,193.6c0-.15.07-.3.1-.45a10.91,10.91,0,0,0,.35-2.66,1,1,0,0,0-.1-.44.83.83,0,0,0-.39-.27,2.27,2.27,0,0,0-2.62.73,1.63,1.63,0,0,0-.16.41,4.26,4.26,0,0,0,.29,2.89c.23.56.69,1.13,1.3,1.11a1.23,1.23,0,0,0,.95-.64A2.71,2.71,0,0,0,171.07,193.6Z"/><path class="cls-4" d="M91.31,206.88a2.22,2.22,0,0,0-.8,1.07,2.11,2.11,0,0,0,.79,1.9,7,7,0,0,0,3.11,1.77,2.19,2.19,0,0,0,2.41-.63,5.51,5.51,0,0,0,1.67-3.52,2,2,0,0,0-.09-.92,2.16,2.16,0,0,0-1.62-1.14A6.18,6.18,0,0,0,91.31,206.88Z"/><path class="cls-4" d="M98.26,211.74a1.51,1.51,0,0,0-.2,1.16,1.54,1.54,0,0,0,.63.61,14.72,14.72,0,0,0,4.79,1.85,3,3,0,0,0,.78.08c1-.09,1.72-1.17,2-2.19a3.72,3.72,0,0,0,0-2.69c-.58-1.19-2-1.68-3.28-2C100,208,99.4,209.33,98.26,211.74Z"/><path class="cls-4" d="M107.89,212.29a2.19,2.19,0,0,0,.62,1.87,1.46,1.46,0,0,0,1.46,0,4.17,4.17,0,0,0,1.15-1,10.23,10.23,0,0,0,2.21-3.22,2,2,0,0,0-.08-1.87,2,2,0,0,0-.62-.51,3.27,3.27,0,0,0-2.27-.58C107.8,207.52,107.88,210.33,107.89,212.29Z"/><path class="cls-4" d="M101.26,206.69a8.26,8.26,0,0,0,1.53.49,5.76,5.76,0,0,0,2,.25,3.83,3.83,0,0,0,3-2.64,2.15,2.15,0,0,0,.15-1c-.11-.94-1.13-1.46-2-1.73-1.48-.44-4.67-1.29-6.11-.27C97.82,203.22,99.68,206,101.26,206.69Z"/><path class="cls-4" d="M107.82,201.73a3.37,3.37,0,0,0,2.3.9,3.12,3.12,0,0,0,1.81-1,7.82,7.82,0,0,0,1.62-2.29,1.8,1.8,0,0,0,.22-1,1.51,1.51,0,0,0-1.15-1,6.29,6.29,0,0,0-4,.62l-1.47.57a3.2,3.2,0,0,0-1.14.64C104.8,200.24,107,201.11,107.82,201.73Z"/><path class="cls-4" d="M111,205.53l2.7,1.54a4.17,4.17,0,0,0,2.77.81,2.16,2.16,0,0,0,1.5-2.81c-.66-1.61-3.76-3-5.44-2.71S109,204.39,111,205.53Z"/><path class="cls-4" d="M120.33,204.8a3.77,3.77,0,0,0,4.79-4.79.82.82,0,0,0-.91-.64,10.54,10.54,0,0,0-3.84.07c-1,.27-2.6,1.12-2.62,2.35S119.27,204.43,120.33,204.8Z"/><path class="cls-4" d="M114.36,199c-.2.6-.39,1.32,0,1.8a1.18,1.18,0,0,0,1.17.33,2.7,2.7,0,0,0,1.11-.61,8.15,8.15,0,0,0,2.1-2.7,3.71,3.71,0,0,0,.42-1.66,1.81,1.81,0,0,0-.73-1.48,2.86,2.86,0,0,0-1.18-.37c-1.34-.2-2.16-.22-2.36,1.09A21.46,21.46,0,0,1,114.36,199Z"/><path class="cls-4" d="M120.74,197.62a1.64,1.64,0,0,0,.61.33c.4.14.82.26,1.23.37a2.53,2.53,0,0,0,2.58-.39,2.37,2.37,0,0,0,0-2.43c-.57-1.37-2.63-4.17-4.38-2.91C119.68,193.41,119.82,196.74,120.74,197.62Z"/><path class="cls-4" d="M126.54,194.49a1.22,1.22,0,0,0,1.27-.44,3.57,3.57,0,0,0,.59-1.28l.6-1.93a1.34,1.34,0,0,0,.06-1c-.58-1.3-3.41,0-3.92.8C124.48,191.74,125.34,194.08,126.54,194.49Z"/><path class="cls-4" d="M134.19,192.78c-.21.69-.4,1.39-.55,2.1a2.58,2.58,0,0,0,.09,1.78,2.15,2.15,0,0,0,1.5.89,3.74,3.74,0,0,0,1.79,0,2.15,2.15,0,0,0,1.37-1.11,2.56,2.56,0,0,0,0-1.79C137.93,193.07,135.13,189.74,134.19,192.78Z"/><path class="cls-4" d="M136.72,200.06a4,4,0,0,0,.8,2.57,4.81,4.81,0,0,0,1.39,1.45,1.53,1.53,0,0,0,1.58.2,1.65,1.65,0,0,0,.64-1,7.6,7.6,0,0,0,.31-2.55,3.07,3.07,0,0,0-.54-1.78A2.33,2.33,0,0,0,136.72,200.06Z"/><path class="cls-4" d="M131,203.67a.94.94,0,0,0,0,.5,1,1,0,0,0,.24.32,3.91,3.91,0,0,0,1.24.9,1.59,1.59,0,0,0,1.47,0,2.33,2.33,0,0,0,.82-1.41,23,23,0,0,0,.65-3.18,2,2,0,0,0-.05-1,1.67,1.67,0,0,0-1.11-.87c-1.52-.46-1.61-.18-2.21,1.26A16.87,16.87,0,0,0,131,203.67Z"/><path class="cls-4" d="M137.12,225.78a3.74,3.74,0,0,0,3.28.67,1.42,1.42,0,0,0,.64-.34,1.49,1.49,0,0,0,.3-.65,4.3,4.3,0,0,0-.41-3.24,3.37,3.37,0,0,0-2.75-1.66C134.93,220.52,135.18,224.21,137.12,225.78Z"/><path class="cls-4" d="M145,226.9a4.68,4.68,0,0,0,2.4.15,3.89,3.89,0,0,0,2.34-3.27,2.79,2.79,0,0,0-1.63-2.44c-1.41-.68-4.63-.44-5.35,1.22A3.23,3.23,0,0,0,145,226.9Z"/><path class="cls-4" d="M133.52,218.73a3.33,3.33,0,0,0,3.26.48,1.82,1.82,0,0,0,.69-.46c.58-.68.22-1.74-.29-2.47-.79-1.13-3.9-4-5.41-2.74S132.52,217.93,133.52,218.73Z"/><path class="cls-4" d="M128.32,210.25c-.28.72-.45,1.65.11,2.18a2.2,2.2,0,0,0,1.84.28l2-.31a2.92,2.92,0,0,0,1.36-.44,1.84,1.84,0,0,0,.67-1.56,3,3,0,0,0-.64-1.61c-.6-.8-2.1-2-3.21-1.7S128.69,209.3,128.32,210.25Z"/><path class="cls-4" d="M134.42,207.68a2.86,2.86,0,0,0,.24,1.15,4.69,4.69,0,0,0,1.89,2.53,2.16,2.16,0,0,0,3.4-2.25,5.77,5.77,0,0,0-.74-1.89c-.51-.91-1.46-2.42-2.73-2.16A3.37,3.37,0,0,0,134.42,207.68Z"/><path class="cls-4" d="M141.22,209.53a5.09,5.09,0,0,0,1,2.43,1.66,1.66,0,0,0,3.06-1.09,5.35,5.35,0,0,0-.41-1.7l-.61-1.73c-.34-1-1.14-3-2.54-2.34S141,208.44,141.22,209.53Z"/><path class="cls-4" d="M138.2,215.69a10.71,10.71,0,0,0,.92,2.89,2.43,2.43,0,0,0,2.51,1.32,2.14,2.14,0,0,0,1.47-1.66,4.11,4.11,0,0,0-.29-2.29c-.44-1.11-1.8-2.85-3.09-3C138,212.62,137.88,214.43,138.2,215.69Z"/><path class="cls-4" d="M144.53,218.34a3.07,3.07,0,0,0,1.27,1.79,2.93,2.93,0,0,0,1.5.18,1.93,1.93,0,0,0,1.18-.34,1.79,1.79,0,0,0,.35-1.7,8,8,0,0,0-2-4c-.74-.8-2-1.49-2.86-.47S144.09,217.24,144.53,218.34Z"/><path class="cls-5" d="M124,140.68a.53.53,0,0,0,.13.2,8,8,0,0,0,2,1.64,1.31,1.31,0,0,0,1.09.22,1,1,0,0,0,.56-.74,2.17,2.17,0,0,0-.65-2.08,2.42,2.42,0,0,0-1.92-.61C124.74,139.42,123.8,140.12,124,140.68Z"/><path class="cls-5" d="M130.35,151.18a2,2,0,0,0,1.62,1.25,1,1,0,0,0,.52-.1,1.29,1.29,0,0,0,.58-.66,2.18,2.18,0,0,0-.58-2.46,2.07,2.07,0,0,0-2.13-.33C129.73,149.33,130.05,150.49,130.35,151.18Z"/><path class="cls-5" d="M118.4,148.67a3,3,0,0,0,1.84.82,1.23,1.23,0,0,0,.93-.07,1.05,1.05,0,0,0,.24-.28,2.35,2.35,0,0,0,.06-1.84,2.86,2.86,0,0,0-1.25-1.7C118.24,144.54,117.35,147.39,118.4,148.67Z"/><path class="cls-5" d="M111.23,142.66a3.07,3.07,0,0,0,1.65,1.2,2.85,2.85,0,0,0,2,.22,2.09,2.09,0,0,0,1.12-2.45,1.87,1.87,0,0,0-.83-1.21,2.17,2.17,0,0,0-1.36-.18C112.62,140.37,110.32,141,111.23,142.66Z"/><path class="cls-5" d="M118.44,156.69l.75.15a1.06,1.06,0,0,0,.53,0,.76.76,0,0,0,.52-.55,1.67,1.67,0,0,0,0-.8,3.64,3.64,0,0,0-1-1.72,1.83,1.83,0,0,0-.79-.47c-1-.26-1.42.65-1.45,1.46A1.6,1.6,0,0,0,118.44,156.69Z"/><path class="cls-5" d="M126,155.62a14.06,14.06,0,0,0,.11,1.72,1.69,1.69,0,0,0,.32.9,1.12,1.12,0,0,0,1.39.17,1.87,1.87,0,0,0,.81-1.24,2.05,2.05,0,0,0-.71-2.08,1.32,1.32,0,0,0-1.94.53"/><path class="cls-5" d="M131.53,158.83a1.54,1.54,0,0,0,.27,1.32,1.7,1.7,0,0,0,.62.4,1.64,1.64,0,0,0,2-.58,1.9,1.9,0,0,0,.06-1.39C133.86,156.39,132,156.82,131.53,158.83Z"/><path class="cls-5" d="M122.59,164.5a1.4,1.4,0,0,0,1.83.13,1.7,1.7,0,0,0,.56-1.81c-.25-.86-1.71-2.06-2.62-1.37C121.61,162,122.06,163.93,122.59,164.5Z"/><path class="cls-5" d="M116.46,166.4a1.49,1.49,0,0,0,1.22-.17A1.2,1.2,0,0,0,118,165a2.29,2.29,0,0,0-.76-1.11C115.09,162,113.4,165.71,116.46,166.4Z"/><path class="cls-5" d="M109,163.49a2.06,2.06,0,0,0,1.76-.47,3,3,0,0,0,.77-1.31,2,2,0,0,0,.05-1.26,1.46,1.46,0,0,0-1.59-.83,2.35,2.35,0,0,0-1.53,1.1C107.74,161.8,107.33,163.15,109,163.49Z"/><path class="cls-5" d="M111.16,151.18a1.65,1.65,0,0,0-.17-.56,2.27,2.27,0,0,0-1.55-1.19.89.89,0,0,0-.43,0,.83.83,0,0,0-.38.23,3,3,0,0,0-.71,1c0,.25,0,.55,0,.55a2,2,0,0,0,1.94,1.64,1,1,0,0,0,.49,0,.9.9,0,0,0,.42-.33A1.75,1.75,0,0,0,111.16,151.18Z"/><path class="cls-5" d="M104.14,146.6c-1-1.78-4.13-.31-3.37,1.69C101.75,150.84,105.32,148.73,104.14,146.6Z"/><path class="cls-5" d="M91.82,158.6a1.32,1.32,0,0,0,1.08-.33,3.6,3.6,0,0,0,.74-.91,2.13,2.13,0,0,0,.47-1.14A1.35,1.35,0,0,0,93,155a2.42,2.42,0,0,0-1.71.38C89.66,156.36,89.69,158.17,91.82,158.6Z"/><path class="cls-5" d="M103.83,158.47a1.32,1.32,0,0,0,.41-1.11c-.11-.49-.62-.77-1.1-1-1.22-.44-3.54-.83-3,1.26A2.15,2.15,0,0,0,103.83,158.47Z"/><path class="cls-5" d="M98.75,165.26a2.18,2.18,0,0,0-2-1.4,1.61,1.61,0,0,0-1.15,2.9C96.93,167.74,99.44,167.34,98.75,165.26Z"/><path class="cls-5" d="M87.14,166.63a3.58,3.58,0,0,0,.3-1.33,2.91,2.91,0,0,0-.06-1.14,1.3,1.3,0,0,0-.73-.85c-.62-.23-1.21.4-1.53,1l-.18.57a3.84,3.84,0,0,0-.27,1.41,1.38,1.38,0,0,0,.69,1.19,1.35,1.35,0,0,0,1.57-.51A2,2,0,0,0,87.14,166.63Z"/><path class="cls-5" d="M105.19,169.85a1.58,1.58,0,0,0,1.54-1.52,1.88,1.88,0,0,0-.67-1.12C102.61,164.06,102,170,105.19,169.85Z"/><path class="cls-5" d="M111,172.81a1.71,1.71,0,0,0,1.31.86,3.65,3.65,0,0,0,1.6-.2.71.71,0,0,0,.32-.17.68.68,0,0,0,.15-.36c.18-1.19-1.09-3.45-2.42-3.52C110.37,169.34,110.54,171.85,111,172.81Z"/><path class="cls-5" d="M120.34,172.51a2,2,0,0,0,1.09-.3,1.22,1.22,0,0,0,.56-1c0-1.3-2.59-2.26-3.49-1.42C117.19,171.06,119.12,172.54,120.34,172.51Z"/><path class="cls-5" d="M129.49,173.37a2.11,2.11,0,0,0,1.14-1c.79-1.35-.48-3.4-2-2.38C127.3,170.85,127.4,174.05,129.49,173.37Z"/><path class="cls-5" d="M123.86,181a1,1,0,0,0,.06-.25c.08-.68-.55-1.21-1.15-1.54a1.89,1.89,0,0,0-1.31-.31c-.58.15-.91.75-1.16,1.29a1.82,1.82,0,0,0,.36,1.49,1.6,1.6,0,0,0,1.42.59,2.31,2.31,0,0,0,1.4-.71A1.64,1.64,0,0,0,123.86,181Z"/><path class="cls-5" d="M113.28,185.28a1.89,1.89,0,0,0,2.67-.52,2.18,2.18,0,0,0-.56-2.76C113.24,180.3,111.4,183.74,113.28,185.28Z"/><path class="cls-5" d="M106.13,180.16a1.66,1.66,0,0,0,2,.33,2,2,0,0,0,1-1.88c-.09-1.12-1.74-2.92-2.93-2C105.41,177.28,105.56,179.5,106.13,180.16Z"/><path class="cls-5" d="M101.17,177.21a1.21,1.21,0,0,0,.42-.32,1.25,1.25,0,0,0,.13-1.07c-.31-1.29-2.41-2.81-3.25-1.1S99.74,177.87,101.17,177.21Z"/><path class="cls-5" d="M89.86,170.28a2.2,2.2,0,0,0-.11,1.7,1.85,1.85,0,0,0,1,.76,6.41,6.41,0,0,0,1.36.39,1.39,1.39,0,0,0,1.32-.26,1,1,0,0,0,.17-1,3.24,3.24,0,0,0-.53-.92C92.18,169.74,90.62,168.13,89.86,170.28Z"/><path class="cls-5" d="M82.43,175.51a1.53,1.53,0,0,0,0,.52c.08.59.74.89,1.31,1.07a1.89,1.89,0,0,0,1.54.05,1.25,1.25,0,0,0,.53-.77c.29-1-.42-3.14-1.43-3.62C83,172.14,82.61,174.67,82.43,175.51Z"/><path class="cls-5" d="M93.19,180a.69.69,0,0,1-.28.15,2.26,2.26,0,0,1-1.58-.22,1.71,1.71,0,0,1-.88-.63.64.64,0,0,1,.26-.93l.46-.15a14.15,14.15,0,0,1,1.58.29,1.28,1.28,0,0,1,.7.36A.83.83,0,0,1,93.19,180Z"/><path class="cls-5" d="M98.79,184.6a2.6,2.6,0,0,0,1.69-.46,1.12,1.12,0,0,0,.33-.24.72.72,0,0,0,0-.85,2,2,0,0,0-.73-.55c-.7-.39-2.34-1.25-2.67-.08A2.11,2.11,0,0,0,98.79,184.6Z"/><path class="cls-5" d="M106.67,188.45a1.94,1.94,0,0,0,1.79.09c.5-.17,1.05-.47,1.13-1a1.63,1.63,0,0,0-.37-1.1,4.46,4.46,0,0,0-1-1.24C106.31,183.85,105.48,187.53,106.67,188.45Z"/><path class="cls-5" d="M98.54,191.89a1.43,1.43,0,0,0,1.53,1.1,2,2,0,0,0,1.56-1.22c.36-.86.26-3.74-1.23-3.49C99.42,188.46,98.4,191.08,98.54,191.89Z"/><path class="cls-5" d="M91.46,195.26a1.57,1.57,0,0,0,1.41.66,1.84,1.84,0,0,0,.87-.15,1.65,1.65,0,0,0,.84-1.21,3.52,3.52,0,0,0-.12-1.51,1.85,1.85,0,0,0-.72-1.19C92.08,190.88,90.87,194.21,91.46,195.26Z"/><path class="cls-5" d="M90.14,185.16a1.62,1.62,0,0,0,.39.93,1.49,1.49,0,0,0,.84.36,1.64,1.64,0,0,0,1.65-.4,1.27,1.27,0,0,0-.22-1.56,3.45,3.45,0,0,0-1.51-.77C89.92,183.31,90,184.07,90.14,185.16Z"/><path class="cls-5" d="M82.78,185a2.08,2.08,0,0,0,1.3,1.24,1.3,1.3,0,0,0,1.55-.69,1.69,1.69,0,0,0,0-.92,2.86,2.86,0,0,0-1-1.66C82.94,181.56,82.14,183.45,82.78,185Z"/><path class="cls-5" d="M83.91,196.71A2.73,2.73,0,0,0,84.5,198a2.39,2.39,0,0,0,1,.49,1.48,1.48,0,0,0,.85.1,1.18,1.18,0,0,0,.72-1.05,3.42,3.42,0,0,0-.44-2,2.47,2.47,0,0,0-1.26-1.32C83.51,193.6,83.66,195.7,83.91,196.71Z"/><path class="cls-5" d="M147.53,150.07a2.38,2.38,0,0,0,.43-.34,1.9,1.9,0,0,0,.41-2.55,1.68,1.68,0,0,0-.75-.44,3,3,0,0,0-1.48-.08,2.11,2.11,0,0,0-1.49,2.15,1.83,1.83,0,0,0,1.56,1.62A2,2,0,0,0,147.53,150.07Z"/><path class="cls-5" d="M152.58,154.37a5.23,5.23,0,0,0,1.33,1.84,3.13,3.13,0,0,0,1.34.82,1.26,1.26,0,0,0,1.39-.52c.35-.63-.1-1.39-.45-2a8.06,8.06,0,0,0-1.31-2C153.28,151,152,152.67,152.58,154.37Z"/><path class="cls-5" d="M162.73,162.79a2.11,2.11,0,0,1-.66.05,3.34,3.34,0,0,1-2.17-1.36.54.54,0,0,1-.09-.66c.25-.67.59-1.5,1.28-1.7a2.68,2.68,0,0,1,2,.54,1.89,1.89,0,0,1,1,1.86A1.69,1.69,0,0,1,162.73,162.79Z"/><path class="cls-5" d="M151.33,163.92a3.12,3.12,0,0,0,1.76.91,1.27,1.27,0,0,0,.92,0,1.05,1.05,0,0,0,.46-.72,2.9,2.9,0,0,0-.62-2.59c-.71-.8-2-1.36-2.62-.46A2.86,2.86,0,0,0,151.33,163.92Z"/><path class="cls-5" d="M145.45,158.65c.62.2,1.47.29,1.79-.28a1.25,1.25,0,0,0,.1-.74c-.13-1.19-1.57-3.11-3-2.49C142.35,156,144.15,158.23,145.45,158.65Z"/><path class="cls-5" d="M142,167.36a1,1,0,0,0,1.09.08,2.33,2.33,0,0,0,.82-.83,4.28,4.28,0,0,0,.82-1.88c.14-1.34-1.21-2.7-2.24-1.46C141.93,163.94,141.32,166.7,142,167.36Z"/><path class="cls-5" d="M151.15,171.51a.61.61,0,0,0,.17-.35,2.63,2.63,0,0,0-.52-2,4.39,4.39,0,0,0-1.65-1.27,1.25,1.25,0,0,0-.88-.11c-.33.68-.77,1.59-.35,2.27a2,2,0,0,0,.61.55,6.48,6.48,0,0,0,2.23.91.56.56,0,0,0,.34,0Z"/><path class="cls-5" d="M155,171.29a6.44,6.44,0,0,0-.63,1.7,2.13,2.13,0,0,0,.39,1.72,1.3,1.3,0,0,0,1.64.31,1.4,1.4,0,0,0,.54-1.29,4.14,4.14,0,0,0-.43-1.4,2.24,2.24,0,0,0-.62-.91.75.75,0,0,0-1,.07"/><path class="cls-5" d="M140,174a3.26,3.26,0,0,0-.09,1.07,2.09,2.09,0,0,0,1.7,1.53,1.55,1.55,0,0,0,.83,0c.69-.27.84-1.19.68-1.91a3.69,3.69,0,0,0-1.65-2.33C140.05,171.57,140.22,172.81,140,174Z"/><path class="cls-5" d="M145.52,179.18a1.83,1.83,0,0,0,0,1,1.22,1.22,0,0,0,1.78.39,2.64,2.64,0,0,0,1-1.8,3.23,3.23,0,0,0-.2-2.06C146.6,174,145.71,178.23,145.52,179.18Z"/><path class="cls-5" d="M161.57,180.19h-.09a1.85,1.85,0,0,1-.94-.21,2.59,2.59,0,0,1-1.49-1.71,1.56,1.56,0,0,1,.85-1.71,3.5,3.5,0,0,1,2,.64,2,2,0,0,1,.83,1.67A1.43,1.43,0,0,1,161.57,180.19Z"/><path class="cls-5" d="M168.58,179.32a1.4,1.4,0,0,1-1.37-.37,2.79,2.79,0,0,1-.46-.87,3.41,3.41,0,0,1-.3-2.33.92.92,0,0,1,.65-.62,4.18,4.18,0,0,1,2.22,1.63,1.8,1.8,0,0,1-.61,2.51Z"/><path class="cls-5" d="M174.91,184.43a1.77,1.77,0,0,0,.27,1.62,1.74,1.74,0,0,0,.64.35,1.52,1.52,0,0,0,1.16.08,1.32,1.32,0,0,0,.59-.68,3,3,0,0,0,.1-2.53C176.48,180.74,175.21,182.85,174.91,184.43Z"/><path class="cls-5" d="M148.66,194.81a.91.91,0,0,0,.11-.16,1.72,1.72,0,0,0-.07-1.7,3.51,3.51,0,0,0-1.27-1.21,2.18,2.18,0,0,0-1-.37,1,1,0,0,0-.72.27,3.08,3.08,0,0,0,.41,3.14A1.79,1.79,0,0,0,148.66,194.81Z"/><path class="cls-5" d="M174.59,193a1.29,1.29,0,0,0,.77.93,2,2,0,0,0,.68.11,1,1,0,0,0,.55-.08,1.1,1.1,0,0,0,.45-.62,1.63,1.63,0,0,0,.17-.89,1.18,1.18,0,0,0-.94-.91A1.32,1.32,0,0,0,174.59,193Z"/><path class="cls-5" d="M169.35,193.1a1,1,0,0,0,.41.44.51.51,0,0,0,.57,0,.8.8,0,0,0,.22-.44,2.76,2.76,0,0,0,.15-.94,1.11,1.11,0,0,0-.37-.84C169.19,190.38,169,192.46,169.35,193.1Z"/><path class="cls-5" d="M164.77,199.24a1.53,1.53,0,0,0,.92,1.12,1.56,1.56,0,0,0,1.15.19,1.22,1.22,0,0,0,.82-1.08,1.51,1.51,0,0,0-.58-1.25C166.18,197.51,164.66,197.86,164.77,199.24Z"/><path class="cls-5" d="M171,199.05a1.65,1.65,0,0,0,.39,1.3,1.69,1.69,0,0,0,.65.4,1.72,1.72,0,0,0,1,.1,1,1,0,0,0,.71-.65,1.59,1.59,0,0,0-.26-1.07c-.3-.57-.79-1.51-1.53-1.58S171,198.46,171,199.05Z"/><path class="cls-5" d="M168.41,207a1.6,1.6,0,0,0,2.75,1.31,1.12,1.12,0,0,0,.31-.6,1.17,1.17,0,0,0-.12-.61C170.83,205.87,168.67,205.15,168.41,207Z"/><path class="cls-5" d="M160.48,206.11a1.86,1.86,0,0,0,.53,1.59,1.72,1.72,0,0,0,1.74.47,1.64,1.64,0,0,0,.92-2C163.18,204.66,160.8,204.22,160.48,206.11Z"/><path class="cls-5" d="M156.75,200.85a1.9,1.9,0,0,0,1.27.89,1.29,1.29,0,0,0,1.35-.62,1.93,1.93,0,0,0-.1-1.57,2.64,2.64,0,0,0-.53-.9c-.45-.46-1.67-1-2.26-.45S156.37,200.26,156.75,200.85Z"/><path class="cls-5" d="M149.43,200a2.8,2.8,0,0,0,.75,1.31,2.75,2.75,0,0,0,.94.72,1.21,1.21,0,0,0,1.15-.09,1.26,1.26,0,0,0,.41-.58,1.92,1.92,0,0,0-.89-2.31C150.89,198.56,149.05,198.29,149.43,200Z"/><path class="cls-5" d="M153.09,205.84a1.52,1.52,0,0,0-.53,1,1.3,1.3,0,0,0,.37,1,1.42,1.42,0,0,0,1.07.33,2.17,2.17,0,0,0,1.05-.44,1.19,1.19,0,0,0,.59-1,1.21,1.21,0,0,0-.76-.8A1.7,1.7,0,0,0,153.09,205.84Z"/><path class="cls-5" d="M166.62,167.25a1.81,1.81,0,0,0,1.23,1.47,2.48,2.48,0,0,0,.66.08,1.37,1.37,0,0,0,1.12-.43,2.07,2.07,0,0,0-.47-2.17C168.07,165.29,166.41,165.53,166.62,167.25Z"/><path class="cls-5" d="M172.89,175.63c.19.59.63,1.21,1.25,1.23a1.22,1.22,0,0,0,1.11-.83,2.89,2.89,0,0,0,.07-1.46,2.18,2.18,0,0,0-.6-1.34C173.23,172,172.58,174.68,172.89,175.63Z"/><path class="cls-5" d="M159.42,168.89a2.12,2.12,0,0,0,1.22,1.52,4.17,4.17,0,0,0,.91.28,1.68,1.68,0,0,0,.63.05.94.94,0,0,0,.65-.58,2.22,2.22,0,0,0,.15-.89,2.3,2.3,0,0,0-.27-1.27,1.94,1.94,0,0,0-1.15-.8C160.31,166.84,159.15,167.39,159.42,168.89Z"/><path class="cls-5" d="M152.55,181.29a1.26,1.26,0,0,0,.22.39,2.34,2.34,0,0,0,.68.72,2.09,2.09,0,0,0,1.24.22,1.59,1.59,0,0,0,1.4-.61,1.29,1.29,0,0,0,.1-.73,2.51,2.51,0,0,0-2.14-2.1C153.16,179.15,152.34,180.47,152.55,181.29Z"/><path class="cls-5" d="M141.42,186a1.9,1.9,0,0,0,.89.62,1,1,0,0,0,1-.24,1.44,1.44,0,0,0,.21-1.33c-.19-.81-1.17-2.78-2.29-2.33S140.87,185.32,141.42,186Z"/><path class="cls-5" d="M149,187a2.28,2.28,0,0,0,1.06,1.27,2.43,2.43,0,0,0,1.18.41,1.5,1.5,0,0,0,1.16-.4,1.48,1.48,0,0,0,.25-1.62,2.17,2.17,0,0,0-1.27-1.12C150.24,185.11,148.52,185.32,149,187Z"/><path class="cls-5" d="M159.88,185.17a.91.91,0,0,0-.42.72,1.17,1.17,0,0,0,.7.92,4.34,4.34,0,0,0,3.07.52,1.27,1.27,0,0,0,1.05-.71,1,1,0,0,0-.21-.87,2.09,2.09,0,0,0-.75-.53A3.57,3.57,0,0,0,159.88,185.17Z"/><path class="cls-5" d="M168.93,185.13a1.68,1.68,0,0,0,1.21,1.81.94.94,0,0,0,.7-.06,1.34,1.34,0,0,0,.46-.71,2.52,2.52,0,0,0,.1-2C170.6,182.71,169.1,184,168.93,185.13Z"/><path class="cls-5" d="M154.87,192.19a1.48,1.48,0,0,0-.2,1.5,1.34,1.34,0,0,0,.77.49,3.62,3.62,0,0,0,2.3-.1,1.32,1.32,0,0,0,.58-.37,1.44,1.44,0,0,0,.08-1.34,2.73,2.73,0,0,0-.8-1.25C156.36,190.08,155.5,191.11,154.87,192.19Z"/><path class="cls-5" d="M163,192.6a1.36,1.36,0,0,0,.73,1.29,1.79,1.79,0,0,0,.8.1,1.81,1.81,0,0,0,1.37-.61,1.46,1.46,0,0,0-.23-1.72C164.49,190.39,163,190.78,163,192.6Z"/><path class="cls-5" d="M154.45,211.73a1.36,1.36,0,0,0,.14.86,1.5,1.5,0,0,0,.35.51,1.31,1.31,0,0,0,1.33.23,1.63,1.63,0,0,0,.93-1,1.21,1.21,0,0,0,0-1,1.17,1.17,0,0,0-.71-.5C155.79,210.68,154.6,211,154.45,211.73Z"/><path class="cls-5" d="M163.21,213a1.47,1.47,0,0,0,.26,1.34,1.5,1.5,0,0,0,1.27.51,1.89,1.89,0,0,0,.87-.35,1.53,1.53,0,0,0,.67-1,1.74,1.74,0,0,0-.35-1.13,1.53,1.53,0,0,0-.38-.46C164.71,211.32,163.46,212.17,163.21,213Z"/><path class="cls-5" d="M158.24,219.17a1.85,1.85,0,0,0,.52,1,1.33,1.33,0,0,0,.8.27,1.66,1.66,0,0,0,1.1-.32,1.27,1.27,0,0,0,.51-1,1.44,1.44,0,0,0-.1-.5,2.33,2.33,0,0,0-.55-1c-.37-.36-1.58-.94-2.1-.67S158.13,218.69,158.24,219.17Z"/><path class="cls-5" d="M93,207.18a2.68,2.68,0,0,0-.44.67,1.69,1.69,0,0,0,.41,1.74,2.77,2.77,0,0,0,1.69.78,2.63,2.63,0,0,0,1.52-.21,1.5,1.5,0,0,0,.82-1.25,2.11,2.11,0,0,0-.21-.81,3.39,3.39,0,0,0-.48-.85,2.83,2.83,0,0,0-1.84-.76A1.38,1.38,0,0,0,93,207.18Z"/><path class="cls-5" d="M101.18,203.35a1.69,1.69,0,0,0,0,.92,2,2,0,0,0,.51,1,2.63,2.63,0,0,0,1.21.58,3.4,3.4,0,0,0,1.73.12,1.34,1.34,0,0,0,1-1.24,1.41,1.41,0,0,0-.2-.63,2.76,2.76,0,0,0-1.52-1.18C103.18,202.69,101.55,202.38,101.18,203.35Z"/><path class="cls-5" d="M109,199.5a2,2,0,0,0-.2,1.12,1.52,1.52,0,0,0,1.73,1.07,3,3,0,0,0,1.82-1.25,1.75,1.75,0,0,0,.32-.58,1.36,1.36,0,0,0-.85-1.48A1.86,1.86,0,0,0,109,199.5Z"/><path class="cls-5" d="M115.61,196.43a6.11,6.11,0,0,0,0,1.35,1.34,1.34,0,0,0,.22.69.88.88,0,0,0,.58.31,1.63,1.63,0,0,0,1.72-1.14,2.2,2.2,0,0,0-.55-2.08,1.17,1.17,0,0,0-.45-.35C116.17,194.79,115.69,195.57,115.61,196.43Z"/><path class="cls-5" d="M120.94,195.72a1.55,1.55,0,0,0,.25.72,1.84,1.84,0,0,0,1.27.62,1.62,1.62,0,0,0,1.57-.39,1.51,1.51,0,0,0-.16-1.69c-.4-.58-1.35-1.43-2.14-1.22S120.87,195.09,120.94,195.72Z"/><path class="cls-5" d="M125.82,192.45a1.62,1.62,0,0,0,.47,1,1.12,1.12,0,0,0,1.07.28.55.55,0,0,0,.28-.17.78.78,0,0,0,.17-.34c.26-.83.29-2-.76-2.31S125.74,191.68,125.82,192.45Z"/><path class="cls-5" d="M120.85,202.38a1.5,1.5,0,0,0,1,1.46,1.4,1.4,0,0,0,.54,0,2,2,0,0,0,1.53-1.28,1.79,1.79,0,0,0-.48-1.91C122,199.39,120.76,201,120.85,202.38Z"/><path class="cls-5" d="M113.2,204.93a2,2,0,0,0,.66,1.17,2.78,2.78,0,0,0,1.36.86,1.27,1.27,0,0,0,1.4-.58,1.45,1.45,0,0,0,0-1.1A2.43,2.43,0,0,0,115.5,204C114.67,203.5,113.07,203.63,113.2,204.93Z"/><path class="cls-5" d="M109.35,210.24a1.88,1.88,0,0,0,3.05.18,1.25,1.25,0,0,0,.31-.68,1.36,1.36,0,0,0-.25-.87,2.11,2.11,0,0,0-1.32-.9C109.75,207.66,108.48,208.9,109.35,210.24Z"/><path class="cls-5" d="M100.37,211.72a1.57,1.57,0,0,0,.48,1.32,2.58,2.58,0,0,0,.83.41,3.28,3.28,0,0,0,1.52.17,1.47,1.47,0,0,0,1.16-.9,1.61,1.61,0,0,0-.31-1.44C103,209.86,100.6,209.58,100.37,211.72Z"/><path class="cls-5" d="M134.57,194.94a1.6,1.6,0,0,0-.07.94c.18.58.86.83,1.46.91a1.69,1.69,0,0,0,1.27-.21,1.19,1.19,0,0,0,.45-1,2.08,2.08,0,0,0-.37-1.06,2.27,2.27,0,0,0-.78-.76C135.25,193.05,134.92,193.78,134.57,194.94Z"/><path class="cls-5" d="M137.87,199.14a1.35,1.35,0,0,0-.7,1,1.53,1.53,0,0,0,.12.79,2,2,0,0,0,1.4,1.23,1.65,1.65,0,0,0,1.7-.66,1.41,1.41,0,0,0-.2-1.77A2.06,2.06,0,0,0,137.87,199.14Z"/><path class="cls-5" d="M132.33,201.08a1.53,1.53,0,0,0,.09,1.59,1.36,1.36,0,0,0,.69.34,1.53,1.53,0,0,0,.79.05,1.33,1.33,0,0,0,.86-1,2,2,0,0,0-.21-1.48C133.75,199.26,132.74,200,132.33,201.08Z"/><path class="cls-5" d="M141.92,209.45a1.59,1.59,0,0,0,1,1.24.69.69,0,0,0,.51,0,.78.78,0,0,0,.3-.39,2.46,2.46,0,0,0-.18-2.58,1.81,1.81,0,0,0-.55-.44C141.6,206.56,141.76,208.68,141.92,209.45Z"/><path class="cls-5" d="M144.81,214.73a1.35,1.35,0,0,0-.15.53,3.87,3.87,0,0,0,.07,1.59,2,2,0,0,0,1,1.24,1.38,1.38,0,0,0,1.51-.13,1.4,1.4,0,0,0,.46-1,2.26,2.26,0,0,0-.25-1.08,2.52,2.52,0,0,0-1.22-1.25C145.79,214.46,145.08,214.27,144.81,214.73Z"/><path class="cls-5" d="M145.13,225.11a1.73,1.73,0,0,0,1.49.89,2,2,0,0,0,.76,0,1.74,1.74,0,0,0,1-1.15,2.27,2.27,0,0,0,.13-1.31,2,2,0,0,0-2.46-1.26A3,3,0,0,0,145.13,225.11Z"/><path class="cls-5" d="M137.06,224.35c.07.51.59.82,1.08,1a1.9,1.9,0,0,0,1.51.07,1.8,1.8,0,0,0,.74-1.77,2.39,2.39,0,0,0-.25-.95,1.12,1.12,0,0,0-.75-.59C138.42,221.91,136.91,223.38,137.06,224.35Z"/><path class="cls-5" d="M139.33,216.27a2.09,2.09,0,0,0,.58,1.53,1.26,1.26,0,0,0,1.54.17,1.65,1.65,0,0,0,.39-1.8,2.2,2.2,0,0,0-.78-1.25C139.89,214.08,139.32,215.24,139.33,216.27Z"/><path class="cls-5" d="M132.13,214.92a1.54,1.54,0,0,0,.22,1.22,2.74,2.74,0,0,0,.83,1.12,2.81,2.81,0,0,0,1,.33,1.17,1.17,0,0,0,.74,0,1,1,0,0,0,.39-1.1C135.13,215.22,133.05,212.79,132.13,214.92Z"/><path class="cls-5" d="M135.73,207.92a1.32,1.32,0,0,0-.09,1.11,1.59,1.59,0,0,0,.44.56,2.85,2.85,0,0,0,1.29.69,1,1,0,0,0,.93-.17,1,1,0,0,0,.2-.33,2,2,0,0,0-.17-1.74C137.64,206.87,136.45,206.62,135.73,207.92Z"/><path class="cls-5" d="M129.33,211.38a1.85,1.85,0,0,0,1,.58,2.66,2.66,0,0,0,1.08.17,1,1,0,0,0,.86-.59,1.18,1.18,0,0,0,0-.56c-.1-.87-1-2.16-2-2A1.73,1.73,0,0,0,129.33,211.38Z"/></svg>