<svg xmlns="http://www.w3.org/2000/svg" viewBox="0 0 252 252"><defs><style>.cls-1{isolation:isolate;}.cls-2{fill:#dec63e;}.cls-3,.cls-7{fill:#f9e178;}.cls-10,.cls-3,.cls-6,.cls-8{mix-blend-mode:multiply;}.cls-4{opacity:0.6;}.cls-5{fill:#deeaba;}.cls-8{fill:#d8b523;}.cls-9{fill:#593f29;}.cls-10{fill:#997356;}</style></defs><g class="cls-1"><g id="Layer_9" data-name="Layer 9"><polygon class="cls-2" points="197.16 153.3 193.23 161.39 197.49 169.32 192.48 176.79 195.44 185.28 189.22 191.76 190.59 200.64 183.28 205.85 183.09 210.41 182.9 214.83 174.66 218.4 172.26 227.06 163.4 228.51 158.82 236.23 153.41 233.9 151.22 239.35 146.17 236.33 143.32 241.49 138.65 237.9 135.26 242.71 130.98 238.67 127.15 243.14 123.24 238.74 117.48 242.74 112.57 237.74 106.35 240.97 102.16 235.35 95.54 237.64 92.3 231.43 85.37 232.55 83.35 225.84 76.35 225.53 74.72 217.21 67.06 213.62 67.67 205.16 61.08 199.84 63.47 191.7 58.01 185.23 61.74 177.62 57.31 170.38 62.07 163.36 58.57 155.63 62.69 150.69 64.01 149.12 61.11 141.14 66.9 134.93 64.27 126.86 70.15 120.73 67.47 112.68 73.19 106.4 70.14 98.48 75.21 93.77 71.56 87.88 76.53 83.06 72.88 77.17 77.96 72.47 74.6 66.41 80.01 62.09 77.24 55.74 83.11 52.08 81.42 45.28 87.95 42.74 87.71 35.74 94.63 34.64 95.96 27.76 102.93 28.35 106.01 22.06 112.53 24.6 117.38 19.56 123.05 23.98 129.34 20.52 133.66 26.27 139.81 24.73 140.63 24.53 143.37 31.17 150.56 31.18 151.6 38.29 158.56 40.09 157.73 47.23 164.88 51.91 164.08 60.42 171.07 65.34 169.98 73.83 176.8 78.97 175.42 87.42 182.06 92.79 182.04 92.92 180.4 101.18 186.86 106.78 185.05 115.6 191.39 121.98 189.09 130.68 194.97 137.49 191.96 145.96 197.16 153.3"/><path class="cls-3" d="M192,146l3-8.48-5.88-6.81,2.3-8.69-6.34-6.38,1.81-8.81-6.46-5.61L182,92.92l0-.13-6.64-5.37L176.8,79,170,73.82l1.09-8.48-7-4.92.8-8.51-7.15-4.68.83-7.14-7-1.8-1-7.11h-7.19l-2.74-6.64-.82.2-6.15,1.54-4.32-5.75L123.05,24l-5.67-4.43-4.85,5L106,22.06l-3.08,6.29-7-.59-1.33,6.88-6.92,1.1.24,7-6.53,2.54,1.7,6.8-5.88,3.66L80,62.08,74.6,66.41,78,72.47l-5.08,4.7,3.65,5.89-5,4.82,3.65,5.89-5.07,4.71,3,7.92-5.72,6.28,2.68,8-5.88,6.13,2.63,8.07-5.79,6.21,2.9,8-1.32,1.57-4.12,4.94,3.5,7.73-4.76,7,4.43,7.23L58,185.23l5.46,6.47-2.4,8.14,6.6,5.32-.61,8.46,7.66,3.59,1.63,8.32,7,.3,2,6.72,6.93-1.12,3.24,6.21,6.62-2.29,4.19,5.62,6.22-3.23,4.91,5,5.76-4,3.91,4.4,3.83-4.47,4.28,4,3.39-4.81,4.67,3.59,2.85-5.16,5.05,3,2.19-5.45,5.41,2.33,4.58-7.72,8.86-1.45,2.4-8.66,8.24-3.57.19-4.42.19-4.56,7.31-5.21-1.37-8.88,6.22-6.48-3-8.49,5-7.47-4.26-7.93,3.93-8.09Zm-5.44-1,4.81,6.78-3.63,7.47,3.92,7.33L187,173.39l2.73,7.84-5.74,6,1.27,8.21-6.76,4.81-.35,8.29-.15.07-7.45,3.23-2.22,8-8.18,1.33-4.24,7.13-5-2.15-2,5-4.67-2.79-2.63,4.75-4.31-3.31-3.13,4.45-4-3.73-3.53,4.13-3.61-4.07-5.32,3.69-4.53-4.62-5.75,3-3.86-5.19-6.12,2.12-3-5.74-6.4,1-1.87-6.19-6.46-.28-1.5-7.68-7.09-3.33.57-7.81-6.09-4.92,2.22-7.51-5.06-6,3.46-7-4.09-6.68L66.57,161l-3.23-7.14L66,150.62l2.33-2.79-2.68-7.36L71,134.73l-2.43-7.45L74,121.62l-2.48-7.44,5.28-5.79L74,101.07l4.68-4.35-3.37-5.44,4.58-4.45-3.37-5.44,4.7-4.34-3.11-5.59,5-4L80.58,61.6,86,58.22l-1.58-6.28,6-2.34-.22-6.47,6.39-1,1.23-6.36,6.44.55,2.84-5.82,6,2.35,4.49-4.65,5.22,4.08,5.81-3.19,4,5.31,6.43-1.62,2.54,6.14h6.64l1,6.57,6.43,1.66-.77,6.59,6.61,4.33-.74,7.86,6.45,4.54-1,7.83,6.3,4.76-1.2,7.38-.07.41,6.13,5-1.53,7.75,6,5.17-1.68,8.14,5.86,5.9-2.13,8,5.44,6.29Z"/><g class="cls-4"><path class="cls-5" d="M80.31,95.66c.46-4.22,2.6-7.44,4.79-7.2s3.59,3.85,3.13,8.06-2.61,7.44-4.8,7.2S79.85,99.87,80.31,95.66Z"/><path class="cls-5" d="M81.4,81.52a4.43,4.43,0,1,1,3.92,4.88A4.43,4.43,0,0,1,81.4,81.52Z"/></g><g class="cls-6"><ellipse class="cls-7" cx="157.11" cy="216.84" rx="7.68" ry="3.99" transform="translate(-104.27 158.66) rotate(-41.53)"/><path class="cls-7" d="M164.78,204.13a4.43,4.43,0,1,1-.38,6.25A4.43,4.43,0,0,1,164.78,204.13Z"/></g><path class="cls-8" d="M131.35,33.24c.37,1.9-5.5,4.63-13.09,6.1s-14.06,1.12-14.43-.78,5.5-4.63,13.1-6.1S131,31.34,131.35,33.24Z"/><path class="cls-9" d="M140.88,15.67a7.62,7.62,0,0,1-1.24.56A30.66,30.66,0,0,0,132.11,20,22.6,22.6,0,0,0,129,22.61a20.52,20.52,0,0,0-2.63,3.16,22.79,22.79,0,0,0-2.85,5.84c-.21.65-.4,1.3-.56,2a28,28,0,0,0-.7,4.43c0,.13,0,.27,0,.4-1.25.35-2.57.65-3.95.92l-.14,0c-1.6.3-3.13.52-4.58.67-.09-.6-.16-1.2-.22-1.8a38.32,38.32,0,0,1-.18-4.91c0-.36,0-.71,0-1.06a34.44,34.44,0,0,1,2.88-12,32.83,32.83,0,0,1,3.11-5.54,35.25,35.25,0,0,1,4.06-4.89,45.27,45.27,0,0,1,10-7.48l.19-.1A7.64,7.64,0,0,1,142.94,4a6.53,6.53,0,0,1,.88,1.25A7.66,7.66,0,0,1,140.88,15.67Z"/><path class="cls-10" d="M140.88,15.67a7.62,7.62,0,0,1-1.24.56A30.66,30.66,0,0,0,132.11,20,22.6,22.6,0,0,0,129,22.61a20.52,20.52,0,0,0-2.63,3.16,22.79,22.79,0,0,0-2.85,5.84c-.21.65-.4,1.3-.56,2a28,28,0,0,0-.7,4.43c0,.13,0,.27,0,.4-1.25.35-2.57.65-3.95.92l-.14,0a32.67,32.67,0,0,1-.07-3.43c0-.35,0-.71,0-1.06a34.5,34.5,0,0,1,2.88-12,32.74,32.74,0,0,1,3.11-5.53,35.93,35.93,0,0,1,4.06-4.9,44.91,44.91,0,0,1,10-7.47l.19-.1A7.54,7.54,0,0,1,142.94,4a6.53,6.53,0,0,1,.88,1.25A7.66,7.66,0,0,1,140.88,15.67Z"/><polygon class="cls-8" points="82.09 141.34 86.6 144.45 89.57 139.89 86.2 142.53 82.09 141.34"/><polygon class="cls-8" points="92.08 164.07 96.6 167.18 99.57 162.62 96.19 165.26 92.08 164.07"/><polygon class="cls-8" points="91.15 145.94 95.67 149.05 98.64 144.5 95.26 147.14 91.15 145.94"/><polygon class="cls-8" points="88.26 153.35 92.78 156.46 95.75 151.91 92.37 154.55 88.26 153.35"/><polygon class="cls-8" points="73.63 157.2 78.14 160.31 81.12 155.75 77.74 158.39 73.63 157.2"/><polygon class="cls-8" points="72.33 123.41 76.84 126.52 79.82 121.96 76.44 124.6 72.33 123.41"/><polygon class="cls-8" points="96.33 122.75 100.85 125.86 103.82 121.3 100.45 123.94 96.33 122.75"/><polygon class="cls-8" points="102.57 141.43 107.09 144.54 110.06 139.98 106.69 142.62 102.57 141.43"/><polygon class="cls-8" points="108.49 129.84 113 132.95 115.97 128.4 112.6 131.04 108.49 129.84"/><polygon class="cls-8" points="114.93 140.59 119.44 143.7 122.41 139.14 119.04 141.78 114.93 140.59"/><polygon class="cls-8" points="118.19 116.48 122.7 119.59 125.67 115.04 122.3 117.68 118.19 116.48"/><polygon class="cls-8" points="107.24 107.65 111.75 110.76 114.72 106.2 111.35 108.84 107.24 107.65"/><polygon class="cls-8" points="98.5 113.85 103.01 116.96 105.98 112.4 102.61 115.05 98.5 113.85"/><polygon class="cls-8" points="87.88 102.14 92.4 105.25 95.37 100.7 92 103.34 87.88 102.14"/><polygon class="cls-8" points="74.52 109.39 79.04 112.5 82.01 107.95 78.64 110.59 74.52 109.39"/><polygon class="cls-8" points="82.14 69.42 86.66 72.53 89.63 67.98 86.26 70.62 82.14 69.42"/><polygon class="cls-8" points="95.9 80.3 100.41 83.41 103.39 78.85 100.01 81.49 95.9 80.3"/><polygon class="cls-8" points="97.67 93.94 102.18 97.05 105.15 92.49 101.78 95.13 97.67 93.94"/><polygon class="cls-8" points="112.98 81.06 117.5 84.16 120.47 79.61 117.09 82.25 112.98 81.06"/><polygon class="cls-8" points="119.48 89.72 124 92.83 126.97 88.27 123.6 90.92 119.48 89.72"/><polygon class="cls-8" points="132.9 84.7 137.42 87.81 140.39 83.25 137.01 85.9 132.9 84.7"/><polygon class="cls-8" points="135.06 74.72 139.58 77.83 142.55 73.27 139.18 75.92 135.06 74.72"/><polygon class="cls-8" points="145.55 84.69 150.07 87.79 153.04 83.24 149.66 85.88 145.55 84.69"/><polygon class="cls-8" points="139.78 100.23 144.3 103.34 147.27 98.79 143.9 101.43 139.78 100.23"/><polygon class="cls-8" points="151.4 94.53 155.92 97.64 158.89 93.08 155.52 95.72 151.4 94.53"/><polygon class="cls-8" points="163.27 103.32 167.79 106.43 170.76 101.88 167.38 104.52 163.27 103.32"/><polygon class="cls-8" points="166.35 82.66 170.87 85.76 173.84 81.21 170.47 83.85 166.35 82.66"/><polygon class="cls-8" points="158.98 74.16 163.49 77.27 166.47 72.71 163.09 75.35 158.98 74.16"/><polygon class="cls-8" points="156.16 86.62 160.68 89.72 163.65 85.17 160.27 87.81 156.16 86.62"/><polygon class="cls-8" points="171.17 96.16 175.69 99.27 178.66 94.71 175.29 97.35 171.17 96.16"/><polygon class="cls-8" points="155.28 62.07 159.8 65.18 162.77 60.63 159.4 63.27 155.28 62.07"/><polygon class="cls-8" points="146.69 70.48 151.21 73.59 154.18 69.03 150.8 71.68 146.69 70.48"/><polygon class="cls-8" points="138.15 55.22 142.67 58.33 145.64 53.77 142.26 56.41 138.15 55.22"/><polygon class="cls-8" points="136.7 47.73 141.22 50.84 144.19 46.29 140.82 48.93 136.7 47.73"/><polygon class="cls-8" points="150.22 49.41 154.74 52.52 157.71 47.96 154.34 50.6 150.22 49.41"/><polygon class="cls-8" points="138.91 36.69 143.43 39.8 146.4 35.24 143.02 37.88 138.91 36.69"/><polygon class="cls-8" points="125.5 38.61 130.01 41.72 132.98 37.16 129.61 39.8 125.5 38.61"/><polygon class="cls-8" points="110.68 44.13 115.19 47.24 118.16 42.69 114.79 45.33 110.68 44.13"/><polygon class="cls-8" points="97.68 43.42 102.2 46.53 105.17 41.97 101.79 44.61 97.68 43.42"/><polygon class="cls-8" points="95.29 34.42 99.8 37.53 102.77 32.98 99.4 35.62 95.29 34.42"/><polygon class="cls-8" points="105.02 28.2 109.54 31.31 112.51 26.76 109.14 29.4 105.02 28.2"/><polygon class="cls-8" points="130.72 29.44 135.23 32.55 138.2 28 134.83 30.64 130.72 29.44"/><polygon class="cls-8" points="133.06 64.38 137.58 67.48 140.55 62.93 137.18 65.57 133.06 64.38"/><polygon class="cls-8" points="124.71 54.66 129.23 57.77 132.2 53.21 128.83 55.85 124.71 54.66"/><polygon class="cls-8" points="119 67.09 123.51 70.2 126.48 65.65 123.11 68.29 119 67.09"/><polygon class="cls-8" points="110.92 50.33 115.44 53.44 118.41 48.88 115.04 51.52 110.92 50.33"/><polygon class="cls-8" points="104.9 67.83 109.42 70.94 112.39 66.38 109.02 69.02 104.9 67.83"/><polygon class="cls-8" points="100.23 51.27 104.74 54.38 107.71 49.82 104.34 52.47 100.23 51.27"/><polygon class="cls-8" points="94.47 61.67 98.99 64.78 101.96 60.22 98.58 62.86 94.47 61.67"/><polygon class="cls-8" points="87.58 51.72 92.1 54.83 95.07 50.27 91.7 52.92 87.58 51.72"/><polygon class="cls-8" points="80.25 59.64 84.77 62.75 87.74 58.19 84.37 60.84 80.25 59.64"/><polygon class="cls-8" points="133.24 144.66 137.76 147.77 140.73 143.21 137.36 145.86 133.24 144.66"/><polygon class="cls-8" points="122.49 151.74 127.01 154.84 129.98 150.29 126.61 152.93 122.49 151.74"/><polygon class="cls-8" points="128.47 167.6 132.99 170.71 135.96 166.15 132.58 168.79 128.47 167.6"/><polygon class="cls-8" points="134.19 157.02 138.71 160.13 141.68 155.57 138.31 158.21 134.19 157.02"/><polygon class="cls-8" points="144.46 171.5 148.98 174.61 151.95 170.05 148.58 172.69 144.46 171.5"/><polygon class="cls-8" points="147.66 153.33 152.18 156.44 155.15 151.88 151.78 154.52 147.66 153.33"/><polygon class="cls-8" points="151.13 165.21 155.64 168.32 158.62 163.76 155.24 166.4 151.13 165.21"/><polygon class="cls-8" points="161.33 146.22 165.84 149.33 168.81 144.78 165.44 147.42 161.33 146.22"/><polygon class="cls-8" points="177.83 137.33 182.35 140.44 185.32 135.89 181.95 138.53 177.83 137.33"/><polygon class="cls-8" points="179.1 148.6 183.61 151.71 186.58 147.16 183.21 149.8 179.1 148.6"/><polygon class="cls-8" points="161.83 168.93 166.35 172.04 169.32 167.49 165.94 170.13 161.83 168.93"/><polygon class="cls-8" points="176.36 164.13 180.88 167.24 183.85 162.69 180.48 165.33 176.36 164.13"/><polygon class="cls-8" points="179.51 180.4 184.02 183.5 186.99 178.95 183.62 181.59 179.51 180.4"/><polygon class="cls-8" points="166.83 183.53 171.34 186.63 174.31 182.08 170.94 184.72 166.83 183.53"/><polygon class="cls-8" points="149.42 177.08 153.94 180.19 156.91 175.63 153.54 178.27 149.42 177.08"/><polygon class="cls-8" points="147.75 188.52 152.27 191.63 155.24 187.08 151.87 189.72 147.75 188.52"/><polygon class="cls-8" points="133.09 180.24 137.61 183.34 140.58 178.79 137.21 181.43 133.09 180.24"/><polygon class="cls-8" points="135.29 191.61 139.81 194.72 142.78 190.16 139.4 192.81 135.29 191.61"/><polygon class="cls-8" points="128.25 209.55 132.77 212.66 135.74 208.1 132.37 210.75 128.25 209.55"/><polygon class="cls-8" points="123.14 199.92 127.66 203.03 130.63 198.47 127.25 201.11 123.14 199.92"/><polygon class="cls-8" points="113.18 216.44 117.7 219.55 120.67 215 117.3 217.64 113.18 216.44"/><polygon class="cls-8" points="112.79 206.29 117.31 209.4 120.28 204.85 116.91 207.49 112.79 206.29"/><polygon class="cls-8" points="110.9 230.31 115.42 233.42 118.39 228.87 115.01 231.51 110.9 230.31"/><polygon class="cls-8" points="101.82 223.54 106.34 226.65 109.31 222.1 105.94 224.74 101.82 223.54"/><polygon class="cls-8" points="122.27 231.19 126.78 234.3 129.75 229.74 126.38 232.39 122.27 231.19"/><polygon class="cls-8" points="125.7 218.93 130.22 222.04 133.19 217.48 129.82 220.12 125.7 218.93"/><polygon class="cls-8" points="136.08 234.2 140.59 237.31 143.56 232.75 140.19 235.4 136.08 234.2"/><polygon class="cls-8" points="137.93 216.56 142.45 219.67 145.42 215.12 142.05 217.76 137.93 216.56"/><polygon class="cls-8" points="142.91 205.74 147.42 208.85 150.39 204.29 147.02 206.93 142.91 205.74"/><polygon class="cls-8" points="146.26 212.04 150.78 215.15 153.75 210.59 150.38 213.24 146.26 212.04"/><polygon class="cls-8" points="155.41 198.06 159.92 201.17 162.89 196.61 159.52 199.26 155.41 198.06"/><polygon class="cls-8" points="163.19 218.22 167.7 221.33 170.67 216.77 167.3 219.42 163.19 218.22"/><polygon class="cls-8" points="174.39 199.03 178.9 202.14 181.88 197.58 178.5 200.23 174.39 199.03"/><polygon class="cls-8" points="176.53 190 181.04 193.11 184.01 188.55 180.64 191.19 176.53 190"/><polygon class="cls-8" points="123.86 132.46 128.38 135.57 131.35 131.01 127.97 133.66 123.86 132.46"/><polygon class="cls-8" points="89.12 133.59 93.64 136.69 96.61 132.14 93.23 134.78 89.12 133.59"/><polygon class="cls-8" points="84.1 116.63 88.62 119.74 91.59 115.18 88.22 117.83 84.1 116.63"/><polygon class="cls-8" points="71.34 136.51 75.86 139.62 78.83 135.06 75.46 137.71 71.34 136.51"/><polygon class="cls-8" points="66.41 149.12 70.93 152.23 73.9 147.67 70.53 150.31 66.41 149.12"/><polygon class="cls-8" points="63.58 164.8 68.1 167.91 71.07 163.35 67.69 166 63.58 164.8"/><polygon class="cls-8" points="61.09 172.04 65.61 175.15 68.58 170.6 65.21 173.24 61.09 172.04"/><polygon class="cls-8" points="63.24 183.13 67.75 186.24 70.72 181.69 67.35 184.33 63.24 183.13"/><polygon class="cls-8" points="69.54 195.67 74.06 198.78 77.03 194.22 73.66 196.87 69.54 195.67"/><polygon class="cls-8" points="77.64 207.19 82.15 210.3 85.12 205.74 81.75 208.38 77.64 207.19"/><polygon class="cls-8" points="83.83 194.9 88.35 198.01 91.32 193.46 87.94 196.1 83.83 194.9"/><polygon class="cls-8" points="92.49 199.51 97 202.62 99.97 198.06 96.6 200.7 92.49 199.51"/><polygon class="cls-8" points="87.78 210.34 92.3 213.45 95.27 208.89 91.89 211.54 87.78 210.34"/><polygon class="cls-8" points="78.36 221.18 82.87 224.29 85.84 219.74 82.47 222.38 78.36 221.18"/><polygon class="cls-8" points="89.46 227.92 93.97 231.03 96.95 226.47 93.57 229.12 89.46 227.92"/><polygon class="cls-8" points="94.67 218.93 99.19 222.04 102.16 217.49 98.79 220.13 94.67 218.93"/><polygon class="cls-8" points="102.38 206.32 106.89 209.43 109.86 204.87 106.49 207.51 102.38 206.32"/><polygon class="cls-8" points="104.25 193.63 108.76 196.74 111.73 192.18 108.36 194.82 104.25 193.63"/><polygon class="cls-8" points="103.36 182.22 107.87 185.33 110.84 180.78 107.47 183.42 103.36 182.22"/><polygon class="cls-8" points="101.28 171.5 105.8 174.6 108.77 170.05 105.4 172.69 101.28 171.5"/><polygon class="cls-8" points="98.68 158.02 103.19 161.13 106.17 156.57 102.79 159.21 98.68 158.02"/><polygon class="cls-8" points="106.91 151.74 111.43 154.85 114.4 150.29 111.03 152.94 106.91 151.74"/><polygon class="cls-8" points="114.2 163.77 118.72 166.88 121.69 162.33 118.31 164.97 114.2 163.77"/><polygon class="cls-8" points="118.06 179.38 122.58 182.49 125.55 177.93 122.17 180.58 118.06 179.38"/><polygon class="cls-8" points="118.24 190.24 122.75 193.35 125.72 188.8 122.35 191.44 118.24 190.24"/><polygon class="cls-8" points="80.14 183.93 84.66 187.03 87.63 182.48 84.25 185.12 80.14 183.93"/><polygon class="cls-8" points="94.79 188.8 99.3 191.91 102.27 187.36 98.9 190 94.79 188.8"/><polygon class="cls-8" points="80.35 176.9 84.87 180 87.84 175.45 84.46 178.09 80.35 176.9"/><polygon class="cls-8" points="80.98 168.2 85.5 171.31 88.47 166.75 85.1 169.4 80.98 168.2"/><polygon class="cls-8" points="92.53 177.11 97.04 180.22 100.01 175.66 96.64 178.3 92.53 177.11"/><polygon class="cls-8" points="135.23 124.17 139.74 127.28 142.71 122.72 139.34 125.36 135.23 124.17"/><polygon class="cls-8" points="139.06 110.2 143.58 113.31 146.55 108.75 143.18 111.4 139.06 110.2"/><polygon class="cls-8" points="131.23 115.61 135.75 118.72 138.72 114.17 135.34 116.81 131.23 115.61"/><polygon class="cls-8" points="120.62 100.49 125.13 103.59 128.1 99.04 124.73 101.68 120.62 100.49"/><polygon class="cls-8" points="155.77 126.3 160.28 129.41 163.26 124.85 159.88 127.49 155.77 126.3"/><polygon class="cls-8" points="158.68 112.1 163.2 115.21 166.17 110.65 162.8 113.3 158.68 112.1"/><polygon class="cls-8" points="168.77 131.86 173.29 134.97 176.26 130.42 172.89 133.06 168.77 131.86"/><polygon class="cls-8" points="145.24 134.73 149.75 137.84 152.72 133.28 149.35 135.93 145.24 134.73"/><polygon class="cls-8" points="169.36 154.92 173.87 158.03 176.84 153.47 173.47 156.12 169.36 154.92"/><polygon class="cls-8" points="184.51 156.98 189.03 160.08 192 155.53 188.63 158.17 184.51 156.98"/><polygon class="cls-8" points="180.03 121.9 184.55 125.01 187.52 120.45 184.15 123.09 180.03 121.9"/><polygon class="cls-8" points="175.89 108.78 180.41 111.88 183.38 107.33 180 109.97 175.89 108.78"/></g></g></svg>