<svg id="af693a7c-592f-4569-bf28-13558172f3aa" data-name="Layer 1" xmlns="http://www.w3.org/2000/svg" viewBox="0 0 252 252"><path d="M51.65,48.16a1.24,1.24,0,0,1,.86.34c1.94,4.5,6,7.5,9.49,10.68.32.29.66.59,1,.87,2,1.67,4.25,3.25,6.51,4.79.63-.13,1-.17,1-.17a20.48,20.48,0,0,1,10-2.37c6.65,0,16,2.77,26,14.3a129.11,129.11,0,0,0,15.53,14.47c14-4.82,29.93-5.6,44.18-11a46.79,46.79,0,0,1,16.55-3.39c15,0,20.83,10,20.83,10s16.38,10.82,4.44,37.69l-.16.39c-.28.7-.58,1.41-.89,2.13-5.64,14-7.33,29.71-13.33,43.14-3.53,8.92-8.67,17-17.59,23.24-12.49,8.64-27.75,10.64-38.9,10.64A33.86,33.86,0,0,1,116,196.44l-13.32,4.42a34,34,0,0,1-10.24,1.76h-.57a33.85,33.85,0,0,1-16-4,78.68,78.68,0,0,1-12.1-7.87,68.85,68.85,0,0,1-9.63-9l-.27-.29a54.72,54.72,0,0,1-9.32-12.92C32.06,144,46.86,120.53,48.72,95.79c1.25-16.5,8-24.28,13.64-27.93a24.46,24.46,0,0,1,2.21-1.26l-2.13-2.12L51.78,54c-1-1-2.16-2.18-2.19-3.64a2.29,2.29,0,0,1,2.06-2.2m0-8h0a10.09,10.09,0,0,0-7.11,3.06,10.24,10.24,0,0,0-2.95,7.3c.1,4.84,3.23,7.89,4.61,9.21l6.16,6.06c-5.42,5.56-10.5,14.65-11.62,29.4-.55,7.37-2.38,14.7-4.32,22.47-4.12,16.53-8.79,35.26,1,54.45l0,.06A63.06,63.06,0,0,0,48,186.89l.16.17A77.17,77.17,0,0,0,58.81,197a86.55,86.55,0,0,0,13.28,8.64,42,42,0,0,0,19.8,5h.71a41.65,41.65,0,0,0,12.65-2.18l9.44-3.13a42,42,0,0,0,22.49,6.57c11.87,0,29-2.09,43.45-12.06,9.26-6.47,15.73-15,20.41-26.72,3.41-7.66,5.49-15.81,7.49-23.69a156.39,156.39,0,0,1,5.86-19.48c.32-.74.62-1.47.91-2.19l.11-.26c7.28-16.46,5.25-28.23,2.25-35.22a30.12,30.12,0,0,0-8.1-11.1c-3.75-5.21-12.67-12.47-26.78-12.47a55.14,55.14,0,0,0-19.39,3.91c-6.89,2.61-14.31,4.06-22.16,5.59-5.74,1.12-11.64,2.28-17.41,3.94a101.53,101.53,0,0,1-11.26-10.78c-12.26-14.09-24.19-17-32-17a30.56,30.56,0,0,0-9.84,1.59c-.88-.64-1.75-1.31-2.57-2l-.74-.65-1.83-1.62c-2.45-2.15-4.77-4.18-5.68-6.3a8.21,8.21,0,0,0-1.94-2.73,9.29,9.29,0,0,0-6.27-2.44Z" style="fill:#fff"/></svg>