<svg xmlns="http://www.w3.org/2000/svg" viewBox="0 0 252 252"><defs><style>.cls-1{fill:#82bb1a;}.cls-2{fill:#cce95f;}.cls-3{fill:#fcfbc2;}.cls-4{fill:none;}.cls-5{fill:#c7e51e;}.cls-6{fill:#b3dc10;}.cls-7{fill:#d8ed28;}.cls-8{fill:#eef86d;}.cls-9{fill:#ffffab;}.cls-10{fill:#649e1c;}.cls-11{fill:#66a11c;}.cls-12{fill:#7db826;}.cls-13,.cls-19,.cls-20{fill:#598b1a;}.cls-14{fill:#82c41b;}.cls-15{fill:#a3d52c;}.cls-16{fill:#70a91c;}.cls-17{fill:#81bc28;}.cls-18{fill:#96d035;}.cls-19,.cls-24,.cls-33{opacity:0.3;}.cls-20{opacity:0.5;}.cls-21{fill:#7fbc1d;}.cls-22{fill:#649715;}.cls-23{fill:#70a917;}.cls-24{fill:#2e5e17;}.cls-25{fill:#659a1d;}.cls-26{fill:#477d1c;}.cls-27{fill:#7bb82a;}.cls-28{fill:#3e721c;}.cls-29{fill:#7bb61b;}.cls-30{fill:#58912b;}.cls-31{fill:#77b218;}.cls-32{fill:#8dc926;}.cls-33{fill:#466d14;}</style></defs><g id="Layer_4" data-name="Layer 4"><path class="cls-1" d="M126.5,239.24a57.63,57.63,0,1,1,40.75-16.88A57.25,57.25,0,0,1,126.5,239.24Z"/><path class="cls-2" d="M181.48,181.61a55,55,0,1,1-55-55A55,55,0,0,1,181.48,181.61Z"/><path class="cls-3" d="M171.22,210.65a2.92,2.92,0,0,0-.46.53c-.72,1.07-.3,2.52-1,3.63a26.51,26.51,0,0,1-2.36,2.39c-.87,1.07-1.44,2.27-2.65,3-1,.62-2.29.6-3.19,1.39s-1,2.54-1.88,3.26c-1.43,1.11-3,.45-4.41,1.88-1.2,1.23-1.42,2.35-3,3.22-3,1.67-6.73,3.5-10.16,4.08-1.76.3-3.7-.63-5.28-.27-1,.23-1.14,1-1.92,1.42-2.53,1.3-5.61.55-8.4.45h0c-2-.07-4.06.21-6.06-.06-1.77-.23-2.77-1.47-4.32-1.78-1.73-.34-3.08.33-4.88-.17a39.48,39.48,0,0,1-6.52-2.23c-2.31-1.07-5.14-1.91-7-3.78-.61-.62-.78-1.49-1.52-2-1-.72-2.44-.56-3.51-1.22a30.86,30.86,0,0,1-3.75-3.3c-1.45-1.26-2.07-2.87-3.19-4.33-.88-1.16-2-1.6-3-2.65A18.22,18.22,0,0,1,79,208.8c-.89-2.15-2.09-4.2-3-6.31-.45-1.08.37-2.65,0-3.76-.5-1.51-2-1.71-2.26-3.37-.19-1.11.7-2.23.47-3.36-.29-1.5-1.52-2.81-1.68-4.44-.09-.94.33-1.85.32-2.82a39.15,39.15,0,0,1-.21-4.72c.12-1.12.64-2,.66-3.18s-.48-2-.3-3.09c.15-.91,1-1.47,1.1-2.42s-.61-1.77-.46-2.77c.32-2.18,2.66-3.49,3.41-5.51s.41-3.59,1.44-5.44,2.38-3.44,3.4-5.26c.78-1.4.79-3.54,2.11-4.59,1.14-.9,2.7-1,3.83-2.1a29.61,29.61,0,0,0,3.2-3.78c.74-1,1.22-2.81,2.19-3.55s2.66-.33,3.63-1c1.33-.89,1.93-2.14,3.43-2.83h0c1.82-.84,3.39-2.07,5.15-2.92s3.64-.83,5.28-1.65a12.52,12.52,0,0,1,4.3-1.06,12.05,12.05,0,0,0,2.17-.08c1.22-.37,1.53-1.09,2.9-1.18,1.08-.07,2.18.14,3.24.06s2.13-.6,3.09-.6c2,0,4,.66,5.93.74a39.63,39.63,0,0,1,6.78.92c2.68.58,5.16,2.5,7.75,3.42a24.89,24.89,0,0,1,2.75,1.48c1.74.83,3.86.79,5.43,1.91a51.11,51.11,0,0,1,5,3.93c3,2.84,6.37,5.26,9,8.57a96.19,96.19,0,0,1,6.71,10.57c1,1.69.59,3.56,1.2,5.37,1.11,3.33,3.08,6.15,3.6,9.68a39,39,0,0,1-.09,10.3c-.18,1.54.1,3.27-.29,4.77s-1.57,2.69-1.76,4.45.41,3.3.08,5c-.38,2-1.7,3.31-2.54,5-1,2-1.13,4.19-2.65,6s-2.19,2.09-2.72,4.41c-.15.45,0-.39,0-.36"/><path class="cls-4" d="M107,180.56l-.12-.05Z"/><path class="cls-4" d="M127.41,160.44a49,49,0,0,0,0,6.59Z"/><path class="cls-4" d="M138.94,195.76l.18.2C139.55,196,139.4,196,138.94,195.76Z"/><path class="cls-5" d="M174.4,173c.88-1.32-1.32-1.1-5.52-1.32s1.11-4.19,2.87-6.84-.44-3.75-1.76-4.19-.88-2.21-1.33-4.85-.88-3.31-5.07-5.52c-2.63-1.38-2.91-4.24-2.76-6.18a10.08,10.08,0,0,0-3.78,2.95l-20.22,23.41a7.42,7.42,0,0,1-.59,2.76c-.67,1.11-2.87,2.21-2.87,2.87s-.89,1.77.22,2c.67.13.87.95.31,1.65a5.08,5.08,0,0,0,1.93.33h0l36.73-.08a4.84,4.84,0,0,0,3.85-1.77,4.67,4.67,0,0,0,1-2.79,6.86,6.86,0,0,0-1-.43C174,174.12,173.52,174.34,174.4,173Z"/><path class="cls-6" d="M133.59,178.09c-1.11-.22-.22-1.33-.22-2s2.2-1.76,2.87-2.87a7.42,7.42,0,0,0,.59-2.76l-3.52,4.08c-1.52,1.76-1.24,3.12-.94,3.77a2.78,2.78,0,0,0,1.53,1.42C134.46,179,134.26,178.22,133.59,178.09Z"/><path class="cls-6" d="M173.64,163c-3.14-8.17-6.65-14.24-10.45-18l-.43-.42,0,0a1.74,1.74,0,0,0-1.22-.46,2.42,2.42,0,0,0-.69.11c-.15,1.94.13,4.8,2.76,6.18,4.19,2.21,4.63,2.87,5.07,5.52s0,4.41,1.33,4.85,3.53,1.54,1.76,4.19-7.06,6.62-2.87,6.84,6.4,0,5.52,1.32-.44,1.11,2,2a6.86,6.86,0,0,1,1,.43,5.39,5.39,0,0,0-.16-1.37A100.19,100.19,0,0,0,173.64,163Z"/><path class="cls-6" d="M99,140.36c5.74-2.42,5.74-1.32,10.81-3.75s4.19-3.3,8.83-2.86,4-1.33,5.29,3.31c.88,3.09,1.47,6,1.77,7.56v-6.36c0-2.95-.12-7.38-4-7.74-1.44-.14-3.36.65-4.82.85-6.09.82-20.28,3.56-21.47,11.07a4.7,4.7,0,0,0,.27,2.4C95.44,143.41,96,141.62,99,140.36Z"/><path class="cls-6" d="M121.23,170.81c-1.43-.86-3.78-2.18-5.26-3l4.41,4.87a3.84,3.84,0,0,0,2.74,1.51c1.22,0,2.53-.93,2.53-3.55v-.21C124.55,173,123,171.89,121.23,170.81Z"/><path class="cls-5" d="M125.65,144.62c-.3-1.58-.89-4.47-1.77-7.56-1.32-4.64-.66-2.87-5.29-3.31s-3.75.44-8.83,2.86-5.07,1.33-10.81,3.75c-3,1.26-3.51,3-3.35,4.48a5.26,5.26,0,0,0,1,1.64L116,167.8c1.48.83,3.83,2.15,5.26,3,1.81,1.08,3.32,2.16,4.42-.39v-25.8Z"/><path class="cls-5" d="M129.62,171.25a52.51,52.51,0,0,0,8.27-4.7l17.28-20c-2.79,2.49-2.6,1-1.51-1.75,1.33-3.31.89-4.42.22-4.86a13.81,13.81,0,0,1-3.75-2.86c-1.54-1.77-3.09-.67-7.06.22s-1.54-1.33-4.63-4-4,.66-6.62,0a2.38,2.38,0,0,1-1.85-2.08,4.22,4.22,0,0,0-2.56,4.27V167C127.63,169.56,128.21,171.75,129.62,171.25Z"/><path class="cls-6" d="M127.41,167v3.69c0,3.34,2.06,3.51,2.47,3.51a3.75,3.75,0,0,0,2.74-1.58l5.27-6.1a52.51,52.51,0,0,1-8.27,4.7C128.21,171.75,127.63,169.56,127.41,167Z"/><path class="cls-6" d="M131.82,133.31c2.65.66,3.53-2.65,6.62,0s.66,4.85,4.63,4,5.52-2,7.06-.22a13.81,13.81,0,0,0,3.75,2.86c.67.44,1.11,1.55-.22,4.86-1.09,2.72-1.28,4.24,1.51,1.75l.53-.61a4.94,4.94,0,0,0,1.21-4.08c-.46-2.55-2.44-2.94-4.34-4.06-2.48-1.46-4.57-3.37-7.28-4.48a43.1,43.1,0,0,0-5.3-1.72c-2.66-.67-7.18-1.61-10-.35A2.38,2.38,0,0,0,131.82,133.31Z"/><path class="cls-6" d="M130.94,189.12c.66,0,2,.66,3.53,3.53.88,1.62,3.44,2.68,4.47,3.11l-6.26-6.9a3.84,3.84,0,0,0-2.74-1.51c-1.1,0-2.28.77-2.49,2.84C128.22,188.7,130.42,189.12,130.94,189.12Z"/><path class="cls-6" d="M145.19,202.65c.14,1.5.9,4.28,4.06,7.87,4.85,5.51,7.72,9.48,6.4,11.91s-2,0-5.3,1.54-3.75,3.53-6.39,3.31-4.86-2-7.28.44-5.52,4.19-5.3,0c.17-3.21-2.51-10.3-4-12.75v6.42c0,2.06-.21,4.25,0,6.31.32,3.17,2.24,4.44,4.74,4.71,4.2.46,10-1.88,12.75-2.83,4.52-1.58,18.63-6.73,12.38-13.6Z"/><path class="cls-5" d="M131.38,227.72c-.22,4.19,2.87,2.43,5.3,0s4.63-.66,7.28-.44,3.08-1.76,6.39-3.31,4,.89,5.3-1.54-1.55-6.4-6.4-11.91c-3.16-3.59-3.92-6.37-4.06-7.87L139.12,196h0l-.18-.2c-1-.43-3.59-1.49-4.47-3.11-1.54-2.87-2.87-3.53-3.53-3.53s-2.72-.42-3.49,1.07c0,.22,0,.45,0,.7V215C128.87,217.42,131.55,224.51,131.38,227.72Z"/><path class="cls-6" d="M135.35,188c-1.1-.66-1.54-2.42-2-3.53s1.54-1.1,4.19-1.32a16.58,16.58,0,0,0,4.79-1.34l-6.25,0c-2.33,0-3.16,1.1-3.45,1.75s-.54,2,1,3.74c0,0,1.4,1.53,3.52,3.88C136.63,189.79,135.93,188.36,135.35,188Z"/><path class="cls-6" d="M172.63,181.75h-3.85a26.22,26.22,0,0,1,8.05,5.37c2.16,2-2.69,8.31-3.09,9.27-1.11,2.64,0,5.29-3.09,7.94s-1.1,6.62-4.63,7.94c-2.64,1-8.13-.36-10.72-1.11l3.25,3.58a5,5,0,0,0,3.57,1.92c6.48.15,11.19-10.95,12.71-16,1.09-3.66,4.51-13.59,1.68-17.12A4.91,4.91,0,0,0,172.63,181.75Z"/><path class="cls-5" d="M166,212.28c3.53-1.32,1.54-5.29,4.63-7.94s2-5.3,3.09-7.94c.4-1,5.25-7.32,3.09-9.27a26.22,26.22,0,0,0-8.05-5.37l-26.43.06a16.58,16.58,0,0,1-4.79,1.34c-2.65.22-4.63.22-4.19,1.32s.88,2.87,2,3.53c.58.35,1.28,1.78,1.84,3.2l18.11,20C157.89,211.92,163.38,213.27,166,212.28Z"/><path class="cls-5" d="M118.15,176.54c.17-1.57-1.59-4.93-2.33-6.27l-8.49-9.36c-1.67-1.84-3.81-4.79-6.2-7.48-3.16-2-8.4-4.63-10.78-2.7-3.53,2.87-2.21,4.42-3.75,5.52s-3.75,2.2-3.31,4.41,11.25,4.41,7.28,4.63-9.26-1.32-8.82,1.77,0,4.85-1.33,6.4-.44,3.08,2.21,3.75,25,2.27,19.85,3.08l-.34.05c1.81-.1,3.63-.2,5.45-.2l6.06,0,.3-.05C120.19,179,117.93,178.53,118.15,176.54Z"/><path class="cls-6" d="M82.63,177.21c-2.65-.67-3.53-2.21-2.21-3.75s1.77-3.31,1.33-6.4,4.85-1.55,8.82-1.77-6.84-2.42-7.28-4.63,1.77-3.31,3.31-4.41.22-2.65,3.75-5.52c2.38-1.93,7.62.75,10.78,2.7-4.5-5.05-9.93-9.16-14.92-3.19A32.8,32.8,0,0,0,80,163.05c-.84,3.31-3.9,9.91-2.15,13a6.44,6.44,0,0,0,4.3,2.73c.55.13,1.11.23,1.63.31,2.54.4,4.93,1.17,7.52,1.4a71.72,71.72,0,0,0,10.87-.15l.34-.05C107.61,179.48,85.28,177.87,82.63,177.21Z"/><path class="cls-6" d="M120.8,178.36c.28-.65.54-2-1-3.74l-4-4.35c.74,1.34,2.5,4.7,2.33,6.27-.22,2,2,2.5-4.2,3.53l-.3.05h3.69C119.68,180.11,120.51,179,120.8,178.36Z"/><path class="cls-5" d="M78.44,188.46c1.54,2.64,4.19,4,3.53,6.83s-3.09,4.86,1.32,8,6.18,1.76,7.28,4.85,2.65,4,6.18,1.54c2.72-1.87,8.58-6.35,11.12-8.31q5.13-6,10.27-11.89a7.38,7.38,0,0,1,.67-3.62c.88-1.77.44-2-1.77-2-1.22,0-4.22-1-6.64-1.93l-30,.07S76.89,185.81,78.44,188.46Z"/><path class="cls-6" d="M106.86,202.49l1-1.17c-2.54,2-8.4,6.44-11.12,8.31-3.53,2.43-5.08,1.55-6.18-1.54s-2.87-1.77-7.28-4.85-2-5.08-1.32-8-2-4.19-3.53-6.83,1.92-6.5,1.92-6.5a4.9,4.9,0,0,0-3.86,1.77c-2.42,3-.46,9.73.45,13.08,2,7.51,6,17.05,15,18C98.3,215.45,103.54,206.33,106.86,202.49Z"/><path class="cls-6" d="M118.81,185.81a7.38,7.38,0,0,0-.67,3.62l1.75-2c1.52-1.76,1.24-3.12.94-3.77s-1.14-1.75-3.47-1.75h-7c2.42.91,5.42,1.93,6.64,1.93C119.25,183.82,119.69,184,118.81,185.81Z"/><path class="cls-5" d="M117.37,193,98.21,215.21c1.12-.34,2.88-.86,4.71-1.38,3.09-.89,2-.23-.66,3.3s-3.31,6.62-1.1,8,3.75,1.54,5.07,2.42,4.64.22,6.62,1.55,6.4,2.42,6.84,1.54,2.65-12.57,3.53-11.91-.36,10.67,1.27,12.67a5.17,5.17,0,0,0,1.16-3.63v-30c-.52-2.6-1.43-6.49-2.43-7.49S119.44,191.3,117.37,193Z"/><path class="cls-6" d="M123.17,187.89a3.77,3.77,0,0,0-2.73,1.57L117.37,193c2.07-1.72,4.91-3.74,5.85-2.8s1.91,4.89,2.43,7.49V191.4C125.65,188.06,123.59,187.89,123.17,187.89Z"/><path class="cls-6" d="M123.22,218.68c-.88-.66-3.09,11-3.53,11.91s-4.85-.22-6.84-1.54-5.29-.66-6.62-1.55-2.86-1.1-5.07-2.42-1.55-4.42,1.1-8,3.75-4.19.66-3.3c-1.83.52-3.59,1-4.71,1.38l-1.45,1.67A5,5,0,0,0,95.55,221c1,5.79,7.48,7.09,12.22,8.68,2.6.88,8.74,3.46,13.09,3.18a5.18,5.18,0,0,0,3.63-1.48C122.86,229.35,124,219.27,123.22,218.68Z"/><path class="cls-7" d="M102,146.32s14.34,21.4,15.66,18.53,2.87-2.21,4-.88.88,3.53,1.54-3.31-.88-22.28-3.31-20.74-3.09,6.62-5.74,4.19-6.39-2-5.73.67S100.06,141.69,102,146.32Z"/><path class="cls-7" d="M114.84,172.13S100.06,154,100.06,156.69s2.64,6.62-.22,5.07-12.8-5.51-9.71-1.54,9.71,8.16,5.07,7.94-17.87,4.41-10.59,6.62,32.65,5.51,30.67,3.53S118.81,177.43,114.84,172.13Z"/><path class="cls-7" d="M112.63,184.26s-30.88-.66-27.13,1.55,8.16,2.87,5.07,4.63-8.6,8.83-3.31,9.27,12.58-4.64,10.59-.89-7.06,9.05.22,6,21.18-17.65,18.31-18.09S116.6,184.26,112.63,184.26Z"/><path class="cls-7" d="M119.47,193.53s-16.77,17-14.56,17.65,6-2.87,4.19,2.2-3.53,11.7-.22,10.37,5.52-12.35,6.4-6.84,3.53,10.15,4.41,5.52,5.51-26.69,3.31-26S123.22,190,119.47,193.53Z"/><path class="cls-7" d="M136,186.69s19.19,22.5,21.61,21.84-2-7.5,2-7.5,4.63-1.32,4-3.75.88-3.31,4.41-4,3.31-3.75,1.11-4.41,4.19.44,2.42-2.21-3.09-2.65-12.79-2.87S132.26,181.84,136,186.69Z"/><path class="cls-7" d="M132.93,193.09s10.81,10.81,10.59,13,2.2,6.4,4,8.61,3.08,6.62.44,6.17-6.18-1.54-6.84,1.11-3.75,5.07-4.63,2.87-3.31-.45-3.75-4.64-1.55-9.48-1.55-14.12S127.19,185.15,132.93,193.09Z"/><path class="cls-7" d="M130.72,142.79s-3.75,25.81-.44,22.94,5.29-3.09,5.29-1.54.67.22,5.52-4.19,10.37-16.77,7.72-14.12-6.84,5.29-6.4,2.43-.66-10.59-2.42-6.62-2.21,10.37-4.2,8.16-.22-15.66-2.86-13.68S130.72,142.79,130.72,142.79Z"/><path class="cls-7" d="M139.77,170.59s16.76-21.18,18.3-18.53-6.61,8.82-1.76,7.94,7.28-1.11,6.18,2-5.3,6.18-.66,7.72,11.25,4.86,8.16,6-36.4,3.75-32.65,1.55,5.51-4.42,2.65-4S139.77,170.59,139.77,170.59Z"/><path class="cls-8" d="M107.47,176.68s-5.66-1.6-4-2.38S107.47,176.68,107.47,176.68Z"/><path class="cls-8" d="M110.65,212s-2.65,5.24-3.09,3.43S110.65,212,110.65,212Z"/><path class="cls-8" d="M112.23,221.65s-.43,5.86-1.53,4.36S112.23,221.65,112.23,221.65Z"/><path class="cls-8" d="M101.44,166.23s-5.65-1.59-4-2.37S101.44,166.23,101.44,166.23Z"/><path class="cls-8" d="M103,192.1s-5.31,2.5-4.55.81S103,192.1,103,192.1Z"/><path class="cls-8" d="M109.13,192.59s-3.56,4.67-3.66,2.81S109.13,192.59,109.13,192.59Z"/><path class="cls-8" d="M114.93,185.26s-5.31,2.5-4.55.81S114.93,185.26,114.93,185.26Z"/><path class="cls-8" d="M118.3,199.16s-2,5.5-2.69,3.75S118.3,199.16,118.3,199.16Z"/><path class="cls-8" d="M95.52,186.58s-5.31,2.51-4.55.81S95.52,186.58,95.52,186.58Z"/><path class="cls-8" d="M98.33,159.76s-4.92-3.2-3.07-3.44S98.33,159.76,98.33,159.76Z"/><path class="cls-9" d="M112.47,173.88s-5.66-1.59-4-2.37S112.47,173.88,112.47,173.88Z"/><path class="cls-8" d="M88.79,173s-5.83.7-4.57-.67S88.79,173,88.79,173Z"/><path class="cls-9" d="M100.85,171.93s-5.83.7-4.57-.67S100.85,171.93,100.85,171.93Z"/><path class="cls-9" d="M118.71,157.08s-5.49-7.18-2.69-6.58S118.71,157.08,118.71,157.08Z"/><path class="cls-9" d="M108.34,154s-3.86-5.05-1.89-4.63S108.34,154,108.34,154Z"/><path class="cls-9" d="M141.46,145s1.18-6.24,2.18-4.49S141.46,145,141.46,145Z"/><path class="cls-9" d="M158,153.71s4.3-4.67,4.23-2.66S158,153.71,158,153.71Z"/><path class="cls-9" d="M135.33,210.46s2.14,5.46.5,4.59S135.33,210.46,135.33,210.46Z"/><path class="cls-9" d="M140.28,205s4.68,3.54,2.83,3.65S140.28,205,140.28,205Z"/><path class="cls-9" d="M94.18,200.72s-4.42,3.86-4.15,2S94.18,200.72,94.18,200.72Z"/><path class="cls-8" d="M117.93,206.77s-3.76,6.39-1.11,6.83S117.93,206.77,117.93,206.77Z"/><path class="cls-8" d="M120.94,143.75s1.77-5.68-.38-5.54S120.94,143.75,120.94,143.75Z"/><path class="cls-8" d="M122.92,165.59s1.78-5.68-.37-5.54S122.92,165.59,122.92,165.59Z"/><path class="cls-8" d="M139.76,158.41s4.82-3.49,3-4.67S139.76,158.41,139.76,158.41Z"/><path class="cls-8" d="M140.33,174.7s5.95-.15,5.12-2.14S140.33,174.7,140.33,174.7Z"/><path class="cls-8" d="M166.8,174s5.95-.15,5.13-2.14S166.8,174,166.8,174Z"/><path class="cls-8" d="M154,173.16S160,173,159.13,171,154,173.16,154,173.16Z"/><path class="cls-8" d="M131.4,168.22s4-2.92,2.52-3.91S131.4,168.22,131.4,168.22Z"/><path class="cls-8" d="M149.48,165.79s4-2.92,2.53-3.9S149.48,165.79,149.48,165.79Z"/><path class="cls-8" d="M132.05,157.82s2.53-4.29.75-4.59S132.05,157.82,132.05,157.82Z"/><path class="cls-8" d="M132.71,140.17s2.53-4.29.75-4.59S132.71,140.17,132.71,140.17Z"/><path class="cls-8" d="M153.44,191.32s3.31,7.06,6.62,5.74S154.55,191.32,153.44,191.32Z"/><path class="cls-8" d="M143.52,213.16s3.3,7.06,6.61,5.74S144.62,213.16,143.52,213.16Z"/><path class="cls-8" d="M133.14,194.08s.66,5.35,3.12,5.19S133.87,194.31,133.14,194.08Z"/><path class="cls-8" d="M135.06,219.84s-.81,2.69.39,3.13S135.36,220.11,135.06,219.84Z"/><path class="cls-8" d="M154.77,201s2.07,4.42,4.14,3.59S155.46,201,154.77,201Z"/><path class="cls-8" d="M137,186.27s4,2.87,5.37,1.14S137.56,185.94,137,186.27Z"/><path class="cls-8" d="M148.47,193.19s.81,2.82,2.12,2.53S148.88,193.25,148.47,193.19Z"/><path class="cls-8" d="M164.75,186.49s3.95,2.87,5.36,1.14S165.35,186.16,164.75,186.49Z"/></g><g id="Layer_3" data-name="Layer 3"><path class="cls-10" d="M88.17,223.7s1.91,2.72,1.75,8,2.88,7.83,6.24,7.52,5-3.36,14.39-4C110.55,235.22,101.76,218.91,88.17,223.7Z"/><path class="cls-11" d="M179.68,187.16c1.11-12.15-4.7-36.54-16-45.42a61.08,61.08,0,0,1-12.87-13.94,55.54,55.54,0,0,0-33.5-2.25A60.62,60.62,0,0,0,80.78,151a58,58,0,0,0-9.18,42.83A52.25,52.25,0,0,0,95.1,229a53.88,53.88,0,0,0,31.14,8.36C169.49,230.31,178.65,198.36,179.68,187.16Z"/><path class="cls-12" d="M159.7,132.36a53.58,53.58,0,0,0-8.92-4.56,61.08,61.08,0,0,0,12.87,13.94c11.33,8.88,17.14,33.27,16,45.42-1,11.2-10.19,43.15-53.44,50.16a58.49,58.49,0,0,0,11.28-1.54A60.59,60.59,0,0,0,174,210.31a58,58,0,0,0,9.19-42.83A52.29,52.29,0,0,0,159.7,132.36Z"/><path class="cls-13" d="M130.66,128.61s18.13,2.45,13.21,9.36L137,142.8s6.61-2.71,8.56-3.31c1.23-.38,4.78-2.66,6.87,12,0,0-.05-7.53-.24-9.14-.13-1.14,4.06-3.91,14.84,8.25,0,0-6-9.73-11.7-10.79s-8.75-1.52-8.86-5.21C146.28,128.09,130.66,128.61,130.66,128.61Z"/><path class="cls-14" d="M145,130.65s-3.72.91,1.12,5.75,13.05,6.27,12.49,1.06C158.31,134.49,150.94,127,145,130.65Z"/><path class="cls-15" d="M148.6,131.69s-1.78,2.61,2.26,5.38c0,0-7.31-3.19-5.12-6C145.74,131,148.75,129.91,148.6,131.69Z"/><path class="cls-16" d="M119,143.31c1.67,1.76,2.15,4.88,3.24,6.9,1.37,2.52,2.55,5.13,3.71,7.82,2.64,6.12,3.93,11.65,1.91,18.22-3.89,12.59-7.17,22.35-22.62,26S73.83,195.85,75.68,180c1.24-10.59,4-17.67,11.49-25.84a50.26,50.26,0,0,1,14.55-10.83c4.22-2.14,12.44-3.54,16.59-.61A4.5,4.5,0,0,1,119,143.31Z"/><path class="cls-16" d="M164.16,179.42c-3.54-1.3-7.62-.31-12.1,2.15-5.13,2.82-12.7,8.12-14.26,14.16-2.54,9.85-15.05,38.23,2.81,31.7.77-.28,1.53-.59,2.28-.92a54.63,54.63,0,0,0,21.86-17.35c4.66-6.35,9.84-17.48,5.28-24.58A12.09,12.09,0,0,0,164.16,179.42Z"/><path class="cls-17" d="M95.41,157.62S80.34,168.69,84,180.8,96,196,107.15,190.14s12.65-22.47,10.74-29.33S104,151.66,95.41,157.62Z"/><path class="cls-18" d="M96.44,165.81s-7.65,8.85-2.32,13.82,13.36-5.31,12.89-11.16S100.55,161.14,96.44,165.81Z"/><path class="cls-17" d="M161.65,189.1s-14.21-.93-18.06,14.51.78,20.62,12.2,10S170.71,192.91,161.65,189.1Z"/><path class="cls-19" d="M118.91,224.06a4.08,4.08,0,0,0,4,1.05c2.56-.61,2.31-.77.74-.84S119,223.38,118.91,224.06Z"/><path class="cls-13" d="M124.29,225a3.25,3.25,0,0,0,2.92.86c1.85-.35,1.66-.47.51-.57S124.34,224.51,124.29,225Z"/><path class="cls-19" d="M112.92,219.34a3.11,3.11,0,0,0,3.11,1.08c2-.47,1.78-.62.56-.74S113,218.72,112.92,219.34Z"/><path class="cls-13" d="M110.59,217.8a1.9,1.9,0,0,0,1.75.65c1.09-.2,1-.29.29-.38S110.61,217.47,110.59,217.8Z"/><path class="cls-13" d="M97.51,212.92a1.73,1.73,0,0,0,1,1.51c1,.4,1,.26.47-.18S97.74,212.65,97.51,212.92Z"/><path class="cls-19" d="M124.69,222.15a3.92,3.92,0,0,0,3.45.61c2-.58,1.58-1.14.36-1.07s-2.68,0-3-.51S123.29,221.82,124.69,222.15Z"/><path class="cls-19" d="M131,160.6a3.82,3.82,0,0,0-2.16-2.69c-1.86-.8-1.89-.07-1,.64s2,1.72,1.89,2.3S131.81,161.75,131,160.6Z"/><path class="cls-19" d="M167,161.81a4.26,4.26,0,0,0-3.5-.48c-1.91.63-1.41,1.15-.22,1s2.65-.06,3,.38S168.43,162.07,167,161.81Z"/><path class="cls-13" d="M122.12,154.77a3.81,3.81,0,0,0-2.17-2.69c-1.85-.8-1.88-.07-.94.64s2,1.72,1.89,2.31S122.94,155.92,122.12,154.77Z"/><path class="cls-13" d="M114,148.48a3.86,3.86,0,0,0-3.26-1.22c-2.06.22-1.73.85-.54,1s2.61.51,2.82,1S115.26,149.06,114,148.48Z"/><path class="cls-13" d="M107.74,211.18a4,4,0,0,0,3.46.62c2-.59,1.57-1.14.36-1.08s-2.68,0-3-.5S106.34,210.85,107.74,211.18Z"/><path class="cls-20" d="M77.1,182.88a3.85,3.85,0,0,0,1.67,3c1.69,1.1,1.84.38,1-.48s-1.64-2-1.47-2.6S76.48,181.6,77.1,182.88Z"/><path class="cls-20" d="M93.55,198.25a4,4,0,0,0,3.46.61c2-.58,1.57-1.14.36-1.07s-2.68,0-3-.51S92.15,197.92,93.55,198.25Z"/><path class="cls-20" d="M111.61,226.78a4,4,0,0,0,3.45.62c2-.59,1.58-1.15.36-1.08s-2.68,0-3-.5S110.21,226.45,111.61,226.78Z"/><path class="cls-20" d="M100.91,208.41a4.25,4.25,0,0,0,3.44-1.08c1.56-1.44.9-1.71-.17-1.09s-2.46,1.22-3,1S99.49,208.78,100.91,208.41Z"/><path class="cls-20" d="M86.83,204.88a4.21,4.21,0,0,0,3.5-.78c1.67-1.3,1-1.63-.08-1.11s-2.54,1-3,.7S85.38,205.12,86.83,204.88Z"/><path class="cls-20" d="M80,176.41a4,4,0,0,0-3.51-.3c-2,.75-1.48,1.27-.27,1.1s2.69-.21,3,.23S81.38,176.62,80,176.41Z"/><path class="cls-13" d="M121.81,215.57a3.28,3.28,0,0,0,1.51,1.16c.29.11,2.44.68,2.25-.19-.09-.4-.65-.25-1-.37a3.78,3.78,0,0,1-2.25-1.39C122,214.2,121.16,215.06,121.81,215.57Z"/><path class="cls-13" d="M135,209.76a3.59,3.59,0,0,0,2,.13c.31-.07,2.5-.78,1.86-1.37-.3-.28-.7.14-1.07.22a4,4,0,0,1-2.71.1C134.41,208.55,134.14,209.7,135,209.76Z"/><path class="cls-13" d="M159.17,172.71a3.65,3.65,0,0,0,1.94-.09c.29-.1,2.3-1,1.55-1.5-.35-.23-.66.22-1,.33a4.09,4.09,0,0,1-2.64.39C158.37,171.63,158.33,172.75,159.17,172.71Z"/><path class="cls-19" d="M127.64,200.25a3.88,3.88,0,0,0,1.77-.95c.23-.23,1.76-2,.88-2.11-.41-.07-.53.49-.81.75a4.31,4.31,0,0,1-2.31,1.54C126.48,199.57,126.87,200.65,127.64,200.25Z"/><path class="cls-20" d="M134.51,191.32a3.78,3.78,0,0,0,1.77-.95c.24-.23,1.77-2,.89-2.11-.41-.07-.54.49-.81.75a4.25,4.25,0,0,1-2.31,1.54C133.36,190.64,133.75,191.72,134.51,191.32Z"/><path class="cls-20" d="M130.19,186.26a3.7,3.7,0,0,0,.87-1.8c.06-.32.24-2.58-.58-2.14-.37.21-.13.7-.19,1.07a4.23,4.23,0,0,1-.95,2.59C128.82,186.46,129.81,187,130.19,186.26Z"/><path class="cls-20" d="M165,187.42a3.88,3.88,0,0,0,.87-1.8c0-.32.23-2.58-.58-2.14-.38.21-.14.7-.2,1.07a4.23,4.23,0,0,1-1,2.59C163.66,187.62,164.65,188.2,165,187.42Z"/><path class="cls-20" d="M131.21,190.43a2.45,2.45,0,0,0,.53-1.1c0-.19.14-1.57-.36-1.3-.22.12-.08.42-.11.65a2.58,2.58,0,0,1-.59,1.57C130.37,190.55,131,190.9,131.21,190.43Z"/><path class="cls-20" d="M113.63,174.43a3.76,3.76,0,0,0,2-.31c.29-.14,2.3-1.3,1.53-1.73-.35-.2-.66.29-1,.45a4.2,4.2,0,0,1-2.66.7C112.79,173.39,112.78,174.56,113.63,174.43Z"/><path class="cls-20" d="M107.7,159.91a3.76,3.76,0,0,0,2-.31c.29-.14,2.3-1.3,1.53-1.73-.35-.2-.66.29-1,.45a4.2,4.2,0,0,1-2.66.7C106.86,158.87,106.85,160,107.7,159.91Z"/><path class="cls-19" d="M125.89,175.92a3.55,3.55,0,0,0,1.94.13c.32-.07,2.51-.77,1.87-1.37-.3-.27-.7.15-1.07.23a4.08,4.08,0,0,1-2.71.09C125.32,174.7,125.05,175.86,125.89,175.92Z"/><path class="cls-19" d="M153.56,182.92a3.49,3.49,0,0,0,1.95.13c.31-.07,2.5-.77,1.86-1.36-.3-.28-.7.14-1.07.22a4.08,4.08,0,0,1-2.71.09C153,181.71,152.72,182.86,153.56,182.92Z"/><path class="cls-20" d="M118.93,179.48a3.45,3.45,0,0,0,1.81.67c.31,0,2.58-.06,2.13-.82-.2-.35-.7-.05-1.06-.08a3.88,3.88,0,0,1-2.59-.66C118.73,178.13,118.15,179.19,118.93,179.48Z"/><path class="cls-13" d="M137.46,203.81a3.33,3.33,0,0,0,1.8.67c.32,0,2.58,0,2.14-.81-.2-.36-.7-.06-1.07-.08a3.87,3.87,0,0,1-2.58-.66C137.26,202.47,136.68,203.52,137.46,203.81Z"/><path class="cls-13" d="M150.26,191.56a3.37,3.37,0,0,0,1.81.67c.31,0,2.58,0,2.13-.82-.2-.35-.7,0-1.06-.07a3.88,3.88,0,0,1-2.59-.67C150.06,190.22,149.48,191.27,150.26,191.56Z"/><path class="cls-19" d="M176.79,159a3.58,3.58,0,0,0-1-1.63c-.24-.2-2-1.54-2.13-.68,0,.4.51.47.79.71a4,4,0,0,1,1.64,2.1C176.19,160.11,177.23,159.66,176.79,159Z"/><path class="cls-13" d="M119.92,133.61a3.79,3.79,0,0,0-1.94-.19c-.31.06-2.44.66-1.77,1.25.31.28.68-.11,1-.18a4.17,4.17,0,0,1,2.68,0C120.55,134.8,120.75,133.7,119.92,133.61Z"/><path class="cls-19" d="M168,204.12a3.63,3.63,0,0,0,2-.08c.31-.11,2.42-1,1.71-1.56-.33-.24-.68.22-1,.34a4.13,4.13,0,0,1-2.7.39C167.33,203,167.18,204.16,168,204.12Z"/><path class="cls-19" d="M150.79,217.38a3.33,3.33,0,0,0,1.65,1c.31.07,2.53.37,2.23-.46-.14-.39-.68-.17-1-.25a3.8,3.8,0,0,1-2.42-1.09C150.81,216,150.08,217,150.79,217.38Z"/><path class="cls-19" d="M159.27,211.68a3.51,3.51,0,0,0,1.88.47c.32,0,2.57-.34,2-1-.24-.33-.71,0-1.08,0a3.92,3.92,0,0,1-2.66-.38C158.93,210.37,158.46,211.48,159.27,211.68Z"/><path class="cls-13" d="M178,179.16a3.24,3.24,0,0,0,.57-1.78c0-.3-.17-2.46-.91-2-.33.22,0,.67,0,1a3.68,3.68,0,0,1-.53,2.52C176.7,179.44,177.77,179.92,178,179.16Z"/><path class="cls-13" d="M176.34,195.31a3.91,3.91,0,0,0,.66-1.88c0-.32-.07-2.57-.83-2-.35.24,0,.71-.07,1.07a4.26,4.26,0,0,1-.65,2.67C175,195.67,176.05,196.12,176.34,195.31Z"/><path class="cls-13" d="M123.36,208.26c.07.35-.6.81-1.48,1s-1.66.1-1.72-.25.6-.8,1.48-1S123.3,207.91,123.36,208.26Z"/><path class="cls-13" d="M124.54,162c-.2.31-1,.19-1.71-.27s-1.19-1.08-1-1.39,1-.18,1.71.27S124.74,161.72,124.54,162Z"/><path class="cls-13" d="M145.15,172.07c0,.31-.53.71-1.3.89s-1.45.08-1.51-.22.53-.71,1.3-.89S145.09,171.77,145.15,172.07Z"/><path class="cls-20" d="M94.16,155.8s-1.25,1.53.16,1.61S95.28,155.81,94.16,155.8Z"/><path class="cls-20" d="M92.09,162.3s-1.8,2.2.23,2.32S93.69,162.32,92.09,162.3Z"/><path class="cls-20" d="M162,154.62s-1.68,2,.33,2.23S163.6,154.71,162,154.62Z"/><path class="cls-20" d="M86.4,170.62s-3.24,4,.41,4.18S89.29,170.65,86.4,170.62Z"/><path class="cls-20" d="M130.66,128.61s-4.31-2.49-4,1S131,131.37,130.66,128.61Z"/><path class="cls-20" d="M124.06,128.61s-1.73-4.53-3.84-1.74S122.51,130.89,124.06,128.61Z"/><path class="cls-13" d="M139.14,214.55s-1.25,1.53.16,1.61S140.26,214.56,139.14,214.55Z"/><path class="cls-20" d="M100.44,181.76s-1.25,1.53.16,1.61S101.56,181.77,100.44,181.76Z"/><path class="cls-20" d="M94.39,188.47s-1.25,1.54.16,1.62S95.51,188.48,94.39,188.47Z"/><path class="cls-20" d="M84.92,193.5s-1.25,1.53.15,1.61S86,193.51,84.92,193.5Z"/><path class="cls-20" d="M110.38,192.32s-2,2.47.25,2.6S112.17,192.34,110.38,192.32Z"/><path class="cls-13" d="M166.43,152.21s-1.42,1.71.27,1.88S167.76,152.28,166.43,152.21Z"/><path class="cls-13" d="M134.24,226.71s-1.25,1.54.16,1.62S135.36,226.73,134.24,226.71Z"/><path class="cls-13" d="M159.15,198s-1.25,1.54.16,1.62S160.27,198.05,159.15,198Z"/><path class="cls-13" d="M153.52,206.2s-1.25,1.53.15,1.61S154.63,206.21,153.52,206.2Z"/><path class="cls-21" d="M169.3,118.15a4.34,4.34,0,0,0,3.27,2.6l.7-.26s3.74-4.92-3.52-5.4l-.41.22A2.52,2.52,0,0,0,169.3,118.15Z"/><path class="cls-22" d="M159.56,127.07c-3.77,1.06-6.91,7.06-7.84,9a8.21,8.21,0,0,0,3.2.52s8.17-11.14,16.27-15.22a24.43,24.43,0,0,0-5.27,1.67C163.45,124.35,164.08,125.8,159.56,127.07Z"/><path class="cls-23" d="M169.3,118.15a2.52,2.52,0,0,1,0-2.84c-2.45,1.37-15.24,8.81-20.15,18.25a4,4,0,0,0,2.53,2.51c.93-1.94,4.07-7.94,7.84-9,4.52-1.27,3.89-2.72,6.36-4a24.43,24.43,0,0,1,5.27-1.67c.46-.23.92-.44,1.38-.62A4.34,4.34,0,0,1,169.3,118.15Z"/><path class="cls-15" d="M150.42,132.26s4.13-4.82,6.39-6.38c2.41-1.66,4.79-2.6,6.52-3.92s5-5.61,5-5.61S155.94,122.14,150.42,132.26Z"/><path class="cls-24" d="M97.56,135.6s14.2,3.22,20.64,1.14A185.27,185.27,0,0,1,151,129.16,52.56,52.56,0,0,0,97.56,135.6Z"/><path class="cls-25" d="M115.21,112.72c11.51-1.64,29.53-.9,40.7,2.38.72-4.13-2.52-9.08-13.5-14.57C115.63,87.17,85,108.59,85,108.59s.18.29.27.43C90.45,110.71,103.61,114.37,115.21,112.72Z"/><path class="cls-26" d="M115.21,112.72c-11.6,1.65-24.76-2-30-3.7,18.64,30,54.42,18,54.42,18,6.06-1.76,15.24-6,16.26-12C144.74,111.82,126.72,111.08,115.21,112.72Z"/><path class="cls-27" d="M153.33,113a50.86,50.86,0,0,0-15.42-1.61c-7.67.58-14.94.2-17.12-3.13s-6.73-8.35-9.92-9.43a31.43,31.43,0,0,1,16.84-1.6c8.72,1.85,13.56,3.73,19.5,7.46S153.33,113,153.33,113Z"/><path class="cls-28" d="M153.35,116s-4.18-3.73-16.67-.74-23.36,9.27-30.26,8.27c-2.19-.32,17.18,8.15,30.83,2.84S153.35,116,153.35,116Z"/><path class="cls-29" d="M103.15,113s23,.52,29.2-.21c7.17-.84,15.89,1.73,22.29,3.13,3,.66,10.56,7.2,13.35,3.85,2.49-3-7.67-4.7-9.23-5.36a43.71,43.71,0,0,0-11.6-2.68C131.34,109.75,103.15,113,103.15,113Z"/><path class="cls-30" d="M118.8,113.32s-12.76,5.89-21.51,6C97.29,119.3,107.42,120.3,118.8,113.32Z"/><path class="cls-30" d="M135.53,112.86S125,119.8,112.44,121.1C112.44,121.1,120.61,123,135.53,112.86Z"/><path class="cls-30" d="M148.46,114.54s-14.71,8.78-25,8.49C123.51,123,137.58,123.5,148.46,114.54Z"/><path class="cls-31" d="M118,111.61a46.59,46.59,0,0,1-11.8-10.86S110.65,109,118,111.61Z"/><path class="cls-32" d="M137.91,111.43s-4-9.75-11.12-13.24C126.79,98.19,138,104.38,137.91,111.43Z"/><path class="cls-32" d="M146.72,112.44s-4.05-9.75-11.12-13.24C135.6,99.2,146.77,105.39,146.72,112.44Z"/><path class="cls-32" d="M129.51,110.63s-4-9.75-11.12-13.25C118.39,97.38,129.56,103.58,129.51,110.63Z"/><path class="cls-33" d="M94.9,228.87s6.84,5.38,14.49,6.29c0,0-8.37,1.3-11.64,3.26C97.75,238.42,101.26,234.52,94.9,228.87Z"/><path class="cls-16" d="M90.55,226.9a5.67,5.67,0,0,1,2.27,4.73c-.19,3-.56,4.93,1.33,5.87C94.15,237.5,89,237.32,90.55,226.9Z"/></g></svg>