<svg id="a7aa67bc-33c0-4195-8182-869842f66095" data-name="Layer 1" xmlns="http://www.w3.org/2000/svg" viewBox="0 0 252 252"><g style="isolation:isolate"><path d="M49.5,43.46a1.19,1.19,0,0,1,.52.11,9.91,9.91,0,0,1,1.72.79A1.5,1.5,0,0,1,52.19,46a1.57,1.57,0,0,0-.1.28,51.65,51.65,0,0,1,7.44,7.27,40.37,40.37,0,0,1,5.25,7.82c.41.71.78,1.45,1.13,2.19,2.35-1.13,4.2-1.89,5.25-2.28A68.35,68.35,0,0,1,82.71,56a27.68,27.68,0,0,1,13.86-3.41,44.76,44.76,0,0,1,11.63,1.67,55,55,0,0,1,28.4,15.22A73.17,73.17,0,0,1,156,66.63c10.11,0,21.1,2.51,30.89,10.32.54.41,1,.85,1.54,1.28.86.73,1.71,1.49,2.55,2.33,0,0,16.75,7.66,26.14,23.19,0,0,20.26,32.86-10.48,67-7.41,8.22-17.76,16.52-32.08,24.45-17.32,9.58-31.77,13.35-43.75,13.35a48.9,48.9,0,0,1-20.15-4.13,32.49,32.49,0,0,1-4.28.28c-.61,0-1.21,0-1.81,0-7.93,0-14.32-1.45-17-2.77-10.43-5.15-49.35-19.38-59.23-74.2A80.51,80.51,0,0,1,30.62,106c3.19-21.3,19.73-34,30.94-40.23a26.1,26.1,0,0,0-1.94-4.3,37.18,37.18,0,0,0-4.61-6c-1.28-1.38-4.51-4.79-6.28-4.93s-2.18.19-3.09-1.81A1.4,1.4,0,0,1,46,46.88a6.33,6.33,0,0,0,2.34-2.63.14.14,0,0,0,0-.06,1.26,1.26,0,0,1,1.14-.73m0-8h0a9.28,9.28,0,0,0-8.18,4.93l-.12.09a9.37,9.37,0,0,0-2.7,11.85C40.25,56,42.85,58,46.61,58.4a31.18,31.18,0,0,1,2.53,2.5c.64.68,1.23,1.37,1.79,2.09C39.79,70.63,26,84,22.76,104.5a88.57,88.57,0,0,0-2.35,23.69,6.85,6.85,0,0,0,.11.91c9.91,55,47.08,72.27,61.07,78.78,1,.45,1.82.85,2.49,1.17,4.38,2.17,12.14,3.55,20.28,3.6.68,0,1.36,0,2,0q1.53,0,3.06-.12a57.34,57.34,0,0,0,21.37,4c14.4,0,30.42-4.83,47.62-14.35,14.08-7.8,25.57-16.58,34.15-26.09,17.84-19.81,20.06-39.45,18.79-52.44A61.17,61.17,0,0,0,224,99.61h0c-9-15-23.8-23.35-28.33-25.67-.62-.58-1.28-1.17-2-1.81l-.38-.32c-.41-.35-.87-.75-1.42-1.17-10-8-22.08-12-35.81-12a78.15,78.15,0,0,0-17.15,2A63.24,63.24,0,0,0,110,46.42a52.05,52.05,0,0,0-13.46-1.88,35.66,35.66,0,0,0-17.15,4.09,76,76,0,0,0-10.17,4.54,49.33,49.33,0,0,0-3.61-4.8,61.69,61.69,0,0,0-6-6.15,9.52,9.52,0,0,0-2.9-4.06,7.78,7.78,0,0,0-1-.7,18.49,18.49,0,0,0-2.92-1.37,9.17,9.17,0,0,0-3.37-.63Z" style="fill:#fff"/></g></svg>