<svg xmlns="http://www.w3.org/2000/svg" viewBox="0 0 252 252"><defs><style>.cls-1{isolation:isolate;}.cls-2{fill:#539e18;}.cls-3{fill:#936037;}.cls-4{fill:#cc212e;}.cls-5{fill:#fa2215;}.cls-6,.cls-8{fill:#1d1d1b;mix-blend-mode:multiply;}.cls-6{opacity:0.07;}.cls-7{fill:#f4804d;}.cls-8{opacity:0.1;}.cls-9{fill:#fff;}</style></defs><g class="cls-1"><g id="Layer_40" data-name="Layer 40"><g id="Slice_2" data-name="Slice 2"><path class="cls-2" d="M131.86,100.54a15.48,15.48,0,0,1-4,2.79c.21,1.11.41,2.23.59,3.35A136.71,136.71,0,0,1,129,141.8c-.34,3.39-.83,6.77-1.25,10.15-.21,1.69-.47,3.38-.67,5.07a17.77,17.77,0,0,0-.28,5.53c.22,1.08,1.66,1.95,2.45.83a12,12,0,0,0,1.55-4.21c.43-1.68.79-3.38,1.14-5.09.62-3.06,1.09-6.14,1.49-9.23a155.25,155.25,0,0,0,1.37-19A99.34,99.34,0,0,0,131.86,100.54Z"/><path class="cls-3" d="M133.92,104.8a4.13,4.13,0,0,0-.63.12c.29-.63.56-1.26.86-1.81a2.15,2.15,0,0,0,.18-.24,1.51,1.51,0,0,0-.5-2.25l.12-.14a2.46,2.46,0,0,0,1.11-1.27,1.94,1.94,0,0,0-.26-1.87,2.13,2.13,0,0,0-1.67-.84,2.06,2.06,0,0,0-1.38-.21,16.85,16.85,0,0,0-2.41.76,2,2,0,0,0-1.33,0,14.58,14.58,0,0,0-2.66,1.38c-1.84,1.23-.43,4.61,1.82,3.87l.07,0a14.12,14.12,0,0,0-.58,1.9,1.26,1.26,0,0,0,1.68,1.43h0a1.55,1.55,0,0,0,.23-.06,4.48,4.48,0,0,0-.37,2.47c-.05.28,0,.57-.07.87a1,1,0,0,0,.9,1.11v0l.24,0a7,7,0,0,0,.09,4.82.68.68,0,0,0,.88.35.93.93,0,0,0,1.12-.26,9.82,9.82,0,0,0,1.38-3.46,17.81,17.81,0,0,0,1.18-2.4,4.62,4.62,0,0,0,1.34-1C136.47,106.9,135.85,104.6,133.92,104.8Z"/><path class="cls-4" d="M158.94,212.82c-9.93,22.23-34.54,29.89-53.21,24.34-24.36-7.24-33.09-31.44-30.26-51.74,2.31-16.57,13.08-33.21,33.61-31.41,6.63.58,12.29,5.07,19,7.08,5.92,1.76,15.8,1,20.87,3.89C167.59,175.71,166.86,195.07,158.94,212.82Z"/><path class="cls-5" d="M156.36,211.9c-9.3,20.85-32.38,28-49.89,22.83-22.85-6.8-31-29.49-28.38-48.52,2.16-15.55,12.26-31.15,31.52-29.47,6.22.55,11.53,4.76,17.86,6.64,5.56,1.66,14.82.9,19.58,3.65C164.48,177.1,163.8,195.26,156.36,211.9Z"/><path class="cls-6" d="M149,165c-2.91-1.69-7.41-2.14-11.84-2.55,5.56,4.08,8.92,10.2,10.85,16.94,3.78,13.53,1,26.89-5.75,38.83a53.69,53.69,0,0,1-15.48,17.86,39.82,39.82,0,0,1-4.08,2.59c14.56-1.5,29.14-10,36.24-25.83C166.86,195.07,167.59,175.71,149,165Z"/><path class="cls-7" d="M131.51,202.14c-3.88,13-20.22,19.69-20.22,19.69s-10.05-14.5-6.18-27.54,20.22-19.69,20.22-19.69S135.38,189.1,131.51,202.14Z"/><path class="cls-8" d="M125.33,174.6l-.85.38c5.08,16.19.77,36.33-13.84,45.84.4.65.65,1,.65,1s16.34-6.65,20.22-19.69S125.33,174.6,125.33,174.6Z"/></g></g><g id="Layer_39" data-name="Layer 39"><g id="Cherries"><path class="cls-4" d="M159.35,211.67c-9.33,22.49-33.73,30.8-52.54,25.74-24.54-6.6-33.91-30.56-31.62-50.92C77.06,169.87,87.39,153,108,154.2c6.64.41,12.42,4.75,19.23,6.57,6,1.61,15.82.54,21,3.34C167,174.35,166.81,193.72,159.35,211.67Z"/><path class="cls-9" d="M107.64,168.27c-3.47-12.24-28.06,11.22-17,17.19,4.93,2.66,7.24-4.4,9.4-7.22S108.85,172.55,107.64,168.27Z"/><path class="cls-6" d="M148.16,164.11c-4.57-2.48-12.84-1.92-18.81-2.88A19.55,19.55,0,0,1,134,172.07a82.81,82.81,0,0,1-5.79,41.62c-4.2,10.11-11.56,17.67-20,24.07,18.61,4.29,42.05-4.15,51.15-26.09C166.81,193.72,167,174.35,148.16,164.11Z"/><path class="cls-6" d="M148.16,164.11c-3-1.61-7.47-1.94-11.91-2.24,5.67,3.94,9.19,10,11.3,16.65,4.13,13.43,1.7,26.85-4.73,39a53.66,53.66,0,0,1-15,18.26,40.22,40.22,0,0,1-4,2.7c14.51-1.89,28.87-10.71,35.53-26.78C166.81,193.72,167,174.35,148.16,164.11Z"/></g></g></g></svg>