<svg id="fd4de14c-03e8-40e7-a3bb-8a7fb58d5a2a" data-name="Layer 1" xmlns="http://www.w3.org/2000/svg" viewBox="0 0 252 252"><path d="M96.84,55.69A63.07,63.07,0,0,1,130.48,65a44.12,44.12,0,0,1,4.05-2A52.23,52.23,0,0,1,150,58.85c4.27-.34,8.56-.38,12.83-.48h.63c5,0,10.37,1.37,15.17,2.72,6.37,1.87,12.48,5.46,18,9,4.71,3,8.61,6.1,11.84,10.69l2.78,4c1.64,2.35,3.32,4.52,5,7.08s2.47,6.09,3.41,9c2.22,6.88,3.86,14.13,3.56,21.59A78.94,78.94,0,0,1,219.7,143a90.71,90.71,0,0,1-4.5,10.25,75.53,75.53,0,0,1-5.82,10,77.34,77.34,0,0,1-22,21.59,66.31,66.31,0,0,1-7.22,4c-7.09,3.39-14.72,5.21-22.31,6.56a45,45,0,0,1-6.54.81H151a44.42,44.42,0,0,1-6.31-.45,87.46,87.46,0,0,1-11.23-2A55,55,0,0,1,121.24,189a61.21,61.21,0,0,1-23,4.42c-25.92,0-53.76-15.72-65.61-51.27C20.49,105.84,38.65,81.77,62,66.6a1.91,1.91,0,0,1,.84-1.4,10.33,10.33,0,0,1,2.66-1.61,10.06,10.06,0,0,1,1.5-.48,4.58,4.58,0,0,1,1-.21h0c.91-.52,1.83-1,2.75-1.52,6.21-3.33,15.6-5.69,26-5.69m0-8c-11.07,0-21.93,2.42-29.79,6.64-.57.3-1.14.62-1.73,1l-.26.07h0a19.56,19.56,0,0,0-2.59.84,18.47,18.47,0,0,0-4.74,2.87,11.22,11.22,0,0,0-1.94,2.07C42.27,70.27,32.52,81,26.78,93c-7.43,15.55-8,32.93-1.79,51.67,6.05,18.14,16.58,33,30.46,42.94a73,73,0,0,0,42.74,13.8,69.51,69.51,0,0,0,22.58-3.7,63.44,63.44,0,0,0,10.66,3.84l.11,0a96,96,0,0,0,12.13,2.17,52.76,52.76,0,0,0,7.32.51h.73a52.91,52.91,0,0,0,7.61-.94c6.85-1.22,15.79-3.14,24.28-7.2a75.56,75.56,0,0,0,8.11-4.55A85,85,0,0,0,216,167.77a82.49,82.49,0,0,0,6.38-11,96.39,96.39,0,0,0,4.85-11.07c0-.12.09-.24.13-.36a87.1,87.1,0,0,0,3.9-22.64c.3-7.36-1-15.11-3.94-24.36-.19-.59-.37-1.2-.56-1.83a33.87,33.87,0,0,0-3.77-9.1c-1.15-1.75-2.27-3.29-3.35-4.78-.6-.82-1.19-1.64-1.78-2.49l-2.77-4A48,48,0,0,0,201,63.35c-5.76-3.7-12.65-7.77-20.07-10l-.08,0c-5.18-1.46-11.21-3-17.34-3h-.81l-2.13.05c-3.62.07-7.37.15-11.15.46l-.26,0a60,60,0,0,0-17.78,4.83l-.56.23a72.05,72.05,0,0,0-34-8.27Z" style="fill:#fff"/></svg>