<svg id="Layer_44" data-name="Layer 44" xmlns="http://www.w3.org/2000/svg" viewBox="0 0 252 252"><defs><style>.cls-1{fill:#e81c1c;}.cls-2{fill:#af1717;}.cls-3{fill:#e1ccc3;}.cls-4,.cls-5{fill:#ebebeb;}.cls-4{opacity:0.37;}.cls-5{opacity:0.77;}.cls-6{fill:#5c3529;}.cls-7{fill:#69402a;}.cls-8{opacity:0.24;}.cls-9{fill:#dfdfdf;}</style></defs><path class="cls-1" d="M110,137.44l-2.24-1c-1.3-.1-2,.76-3,1.55l1.68,3.75h4S111.3,138.26,110,137.44Z"/><path class="cls-1" d="M97.26,141.37l-.3,2.38c.31,1.28,1.37,1.77,2.45,2.58l3.11-2.46s-1.24-3.79-1.26-3.8S97.65,140,97.26,141.37Z"/><path class="cls-1" d="M88.78,146.36l-1,2.16c-.08,1.29.81,2.06,1.62,3.14l3.73-1.42s-.09-3.94-.11-4S89.58,145.13,88.78,146.36Z"/><path class="cls-1" d="M83.21,152.42l-1.46,1.87c-.35,1.23.34,2.17.91,3.39l4-.55s.78-3.82.77-3.84S84.26,151.41,83.21,152.42Z"/><path class="cls-1" d="M76.52,160.49l-1.36,1.95c-.29,1.25.45,2.16,1.07,3.35l4-.75s.59-3.86.57-3.88S77.52,159.43,76.52,160.49Z"/><path class="cls-1" d="M75.54,164.41l-1.17,2.06c-.19,1.28.63,2.12,1.35,3.26l3.86-1.09s.24-3.92.22-3.93S76.44,163.26,75.54,164.41Z"/><path class="cls-1" d="M69,173.68l-.91,2.21c0,1.3.89,2,1.75,3.08l3.66-1.57s-.24-3.94-.26-4S69.78,172.42,69,173.68Z"/><path class="cls-1" d="M65.89,183.11l-.33,2.38c.29,1.28,1.35,1.78,2.42,2.61l3.14-2.42s-1.19-3.81-1.21-3.82S66.3,181.69,65.89,183.11Z"/><path class="cls-1" d="M65.68,192l.07,2.42c.51,1.22,1.62,1.55,2.81,2.19l2.66-2.93s-1.8-3.59-1.82-3.59S65.85,190.5,65.68,192Z"/><path class="cls-1" d="M65.22,204.35l1,2.24c.93.95,2.07.82,3.39,1l1.25-3.79s-3-2.66-3.06-2.65S64.78,202.9,65.22,204.35Z"/><path class="cls-1" d="M72.52,222.89l1.63,1.87c1.16.64,2.19.18,3.48-.08l.05-4S74,219,74,219,71.68,221.61,72.52,222.89Z"/><path class="cls-1" d="M79.44,231.37l2.14,1.24c1.3.23,2.09-.56,3.2-1.24l-1.33-3.88s-4-.38-4-.36S78.23,230.43,79.44,231.37Z"/><path class="cls-1" d="M89.69,236.43l2.29-.7c1-.79.92-1.94,1.12-3.23l-3.73-1.77s-2.8,2.64-2.8,2.66S88.22,236.66,89.69,236.43Z"/><path class="cls-1" d="M95.62,238.65l1.77,1.74c1.21.55,2.19,0,3.45-.36l-.28-4s-3.76-1.39-3.77-1.38S94.69,237.44,95.62,238.65Z"/><path class="cls-1" d="M118.27,141.11l.1-2.42c-.42-1.25-1.51-1.65-2.65-2.37L112.84,139s1.55,3.69,1.57,3.7S118,142.56,118.27,141.11Z"/><path class="cls-1" d="M122.51,144.61l2.43.12c1.22-.4,1.53-1.49,2.16-2.62l-3-2.89s-3.58,1.51-3.58,1.54S121,144.33,122.51,144.61Z"/><path class="cls-1" d="M132.51,148.48l2.41.42c1.27-.26,1.72-1.29,2.48-2.33l-2.61-3.21s-3.76,1.06-3.76,1.08S131.07,148,132.51,148.48Z"/><path class="cls-1" d="M140.19,153.54l2.18,1.17c1.3.18,2.07-.63,3.15-1.35l-1.45-3.84s-4-.25-4-.23S139,152.64,140.19,153.54Z"/><path class="cls-1" d="M149.13,161.8l2,1.5c1.26.38,2.15-.29,3.34-.82l-.82-4s-3.9-.87-3.91-.85S148,160.72,149.13,161.8Z"/><path class="cls-1" d="M153.7,169.19l1.75,1.76c1.2.56,2.19,0,3.45-.32l-.24-4s-3.75-1.42-3.77-1.41S152.77,168,153.7,169.19Z"/><path class="cls-1" d="M157.25,177.06l1.67,1.82c1.18.62,2.2.13,3.47-.17l-.06-4.05s-3.7-1.57-3.71-1.56S156.37,175.81,157.25,177.06Z"/><path class="cls-1" d="M157.58,184l-.13,2.41c.39,1.26,1.48,1.68,2.61,2.41l2.92-2.67s-1.5-3.72-1.52-3.72S157.87,182.59,157.58,184Z"/><path class="cls-1" d="M157,192.32l-.24,2.4c.34,1.27,1.41,1.73,2.51,2.52l3-2.54s-1.33-3.77-1.35-3.77S157.38,190.89,157,192.32Z"/><path class="cls-1" d="M151.84,200.45l-.32,2.39c.31,1.27,1.36,1.77,2.44,2.59l3.12-2.45s-1.22-3.8-1.24-3.8S152.23,199,151.84,200.45Z"/><path class="cls-1" d="M145.8,209l-1,2.14c-.1,1.3.77,2.09,1.56,3.18l3.76-1.34s0-3.94,0-4S146.63,207.77,145.8,209Z"/><path class="cls-1" d="M140.23,215.38l-1.53,1.81c-.4,1.22.27,2.18.79,3.42l4-.4s.92-3.79.91-3.81S141.32,214.41,140.23,215.38Z"/><path class="cls-1" d="M131.56,222.47,129.75,224c-.59,1.13-.08,2.17.24,3.47l4.06.24s1.52-3.57,1.5-3.58S132.8,221.69,131.56,222.47Z"/><path class="cls-1" d="M124.18,228l-1.54,1.8c-.41,1.22.25,2.18.76,3.42l4-.37s1-3.78.93-3.8S125.28,227.07,124.18,228Z"/><path class="cls-1" d="M115.91,232.07,114.52,234c-.31,1.25.43,2.16,1,3.36l4-.69s.63-3.86.62-3.88S116.92,231,115.91,232.07Z"/><path class="cls-1" d="M69.59,211.13l-1.72,1.64c-.53,1.16,0,2.18.43,3.46l4,0s1.32-3.65,1.31-3.67S70.78,210.29,69.59,211.13Z"/><path class="cls-1" d="M107.84,235l-2,1.28c-.74,1-.37,2.13-.22,3.45l4,.77s2-3.32,2-3.34S109.19,234.36,107.84,235Z"/><path class="cls-2" d="M94,145.19C68.18,166.76,52.88,210.84,86,234c25.56,17.85,64.74-19.94,72.84-40.09C171.28,162.89,119.8,123.63,94,145.19Z"/><path class="cls-3" d="M152.1,188c6.85-25.24-9.5-29.29-15.62-29.92a3.75,3.75,0,0,1-3-2.21c-7.75-17.15-25.82-18.35-37.93-8.13C70.6,168.77,54,209.56,83,228.56,105.42,243.21,146.75,207.73,152.1,188ZM85.16,216.49c-6.83-5.48-5.29-18.61,3.45-29.31s33.27-32.66,41.64-24.87c8.73,8.13-8.17,34-16.91,44.74S92,222,85.16,216.49Z"/><path class="cls-4" d="M82.4,221.92c-7-6.51-10.39-14.92-10.1-25,.44-16,10.8-35.17,25.77-47.63,8.55-7.11,19.92-7.06,27.64.14a26.17,26.17,0,0,1,5.75,8l0,0a12.29,12.29,0,0,0-5.74-.86c-13.33.93-32.44,19.31-39.11,27.55a36.24,36.24,0,0,0-8.11,18.4c-.74,6.76,1.1,12.58,5.19,16.39.26.24.53.47.8.69,4.53,3.67,10.72,4.55,17.44,2.48a35.84,35.84,0,0,0,16.83-11.92,124.13,124.13,0,0,0,15.31-24.36c4.6-10.06,5.59-17.78,3-23a.59.59,0,0,1,.62-.84h0A19.15,19.15,0,0,1,148,166.49c4.75,4.43,5.9,11.81,3.42,22-2.82,11.5-20.61,30.51-39.32,37.78-7,2.71-16.91,4.82-24.83-.47a39.45,39.45,0,0,1-4.87-3.84Z"/><path class="cls-5" d="M77.73,188.86a.5.5,0,0,1-1-.29c2.48-13.5,11.46-28.31,23.7-38.5,7-5.83,16.26-5.83,22.51,0a.5.5,0,0,1-.24.86C107,154,88,174,83.53,179.55A43.84,43.84,0,0,0,77.73,188.86Zm32,31.9a42.36,42.36,0,0,0,12-10.28,128.41,128.41,0,0,0,15.82-25.19c3.48-7.6,5.05-14,4.73-19.31a.5.5,0,0,1,.75-.46,11.19,11.19,0,0,1,2.26,1.62c3.65,3.39,4.42,9.51,2.29,18.18C145,195.7,128,213.67,110.63,220.41,110.33,220.53,110,220.65,109.71,220.76Z"/><path class="cls-6" d="M115.71,209.25C107,220,94.11,224,86.9,218.12s-6-19.28,2.69-30,33.36-32.58,42.23-24.33C141.08,172.39,124.41,198.51,115.71,209.25Z"/><path class="cls-7" d="M89.16,212.82c-5-4.66-3.38-15.53,3.66-24.21,7.81-9.65,24.8-24.07,33.61-24.69a3.63,3.63,0,0,1,2.95.76c2.58,2.41,1.78,8.78-2.21,17.49a118.37,118.37,0,0,1-14.27,22.71c-7.22,8.9-17.91,12.7-23.35,8.29C89.42,213.06,89.28,212.94,89.16,212.82Z"/><g class="cls-8"><path class="cls-9" d="M93.13,197.6a.89.89,0,0,1-.72-.72,7.5,7.5,0,0,1,.3-3.26,21.73,21.73,0,0,1,5.8-9.26,98,98,0,0,1,16.7-12.65,68,68,0,0,1,6.51-3.52.91.91,0,0,1,1.2,1.24c-.46.88-1,1.84-1.63,2.89a110.12,110.12,0,0,1-15.57,19.4C100.52,196.81,95.07,198,93.13,197.6Z"/></g><path class="cls-1" d="M133.77,147.33l-1.2,2c-.2,1.25.58,2.06,1.25,3.15l3.79-1.15s.33-3.84.31-3.85S134.67,146.18,133.77,147.33Z"/><path class="cls-1" d="M143.85,154.19l-2.29.6c-1,.75-1.05,1.86-1.35,3.12l3.49,1.86s3-2.48,3-2.51S145.3,154,143.85,154.19Z"/><path class="cls-1" d="M126.32,141.08l-2,1.27c-.76,1-.44,2.09-.34,3.38l3.89.71s2.06-3.26,2-3.27S127.65,140.48,126.32,141.08Z"/><path class="cls-1" d="M134.57,153.23l-1.19,2.05c-.21,1.26.57,2.06,1.25,3.16l3.78-1.16s.33-3.84.31-3.85S135.47,152.09,134.57,153.23Z"/><path class="cls-1" d="M149.34,164.34l2.25.72c1.27-.07,1.89-1,2.82-1.91l-1.95-3.44s-3.82.51-3.83.53S148,163.7,149.34,164.34Z"/></svg>