<svg id="bd9458ff-89ec-44d8-bd4e-f65cc8c993dd" data-name="Layer 1" xmlns="http://www.w3.org/2000/svg" viewBox="0 0 252 252"><path d="M164.63,55.72a4.59,4.59,0,0,1,.73.06c2.52.4,5,.95,7.51,1.59,2.32.59,2.76,2.05,1.38,4h0l0,0c.31.72,0,1.1-.71,1.22l0,0c-.09.51.55,1,0,1.51h0l0,0-.35.67c-.51,1-1,2-1.52,3h0l-.46,1.5-.07,0h0l-1.51,4.12c.2.79-.86,1.4-.33,2.24h0c2,0,3.91.63,5.89.63.3,0,.6,0,.9,0s.49.35.73.53a1.66,1.66,0,0,1,1.35-.66c.76,0,1.56.43,2.32.43h.2c1,.27,2.15,0,3.13.59h.05a9.37,9.37,0,0,1,3-.5,9.26,9.26,0,0,1,2.1.23v0h0a2.43,2.43,0,0,1,2,1.35h0a6.93,6.93,0,0,0,4.51,2.08h.37v0s0,0,0,0a10.13,10.13,0,0,1,3.83.94c1.59.24,1.58,1.84,2.27,2.81a7.51,7.51,0,0,1,.73,2.25h-.06a3.83,3.83,0,0,1,.77,1.79h.11a1.85,1.85,0,0,1,.74,1.49v0a14.63,14.63,0,0,1,2.21,3.09h0a5.81,5.81,0,0,1,1.9,2.27h0l5.34,6.35h0a.86.86,0,0,1,.47,1.11,1,1,0,0,1-.26.34,9,9,0,0,0-1.41,2.9s0,0,0,0a10.29,10.29,0,0,0,.35,4.48h0c.85,1.79,1.39,3.74,2.7,5.29.65.77.34,1.37-.33,1.91h0c-.28,1-1.36,1.32-1.69,2.25h0a10.67,10.67,0,0,0-1,6.43l0,0s0,0,0,0c.09,1.89,1.08,3.79,0,5.69l-2.68,2.66h0l-.22.39a.68.68,0,0,0-.12.12,1.7,1.7,0,0,1,.14-.1,6.66,6.66,0,0,0-.15,2.63h0a7.57,7.57,0,0,0,0,3,2.27,2.27,0,0,1-1.06,2.4h0c-1.4.39-2,1.78-3,2.56a.56.56,0,0,1-.38.18h0l-.66.28a.08.08,0,0,0,0,0s0,0,0,0c-.09.74-.22,1.48-.36,2.22-.31,1.86,1,3.87-.45,5.64l-.06,0h.06a2.79,2.79,0,0,1-1.85,1.5s0,0,0-.06a.14.14,0,0,0,0,.06l-1.81,1.55h0l-.42.71h0a1.38,1.38,0,0,1-.66,1.18l0-.05s0,.05,0,.07c0,.42.09.89-.37,1.15.32,1.89-.48,3.54-1.11,5.22a2,2,0,0,1-1.53,1.24l-3.86,1.85c-1.29.54-2.71.87-3.42,2.28h0c0,.55-.38.84-.69,1.18h0l0,.06c-.47,2.56-2.27,4.44-3.36,6.69a.47.47,0,0,1-.44.29l-.17,0a.47.47,0,0,1-.26-.26l0,0v.07a1.46,1.46,0,0,0-.53-.1c-.71,0-1.36.49-2.08.49h0v0l0,0-3,1.18h0s0,0,0,0l-.35.37h0c-.89,1.6-1.25,3.55-3,4.62-.08.36,0,.78-.42,1h0a1.32,1.32,0,0,1-1.15,1.08h0a11.55,11.55,0,0,0-2.68-.32,11.25,11.25,0,0,0-2.94.39l-.05-.07v.07l-.34.21,0,.05a20.37,20.37,0,0,1-3.8,3.5h0a1.58,1.58,0,0,1-1.09.48c-.89,0-1.71-.83-2.6-.83h-.07a.83.83,0,0,1-.52.15c-.27,0-.54-.07-.81-.07a.83.83,0,0,0-.6.22c-.86.11-.62,1.8-1.63,1.8a1.53,1.53,0,0,1-.56-.13.53.53,0,0,1-.08.25c.13,1.37-.87,1.63-1.87,1.88a1.1,1.1,0,0,1-1.56-.19h0l0,0v0a5.55,5.55,0,0,1-3.35-1.29l-1.5-.81h0a1.21,1.21,0,0,1-.65.19,3.44,3.44,0,0,1-1.33-.45,1.2,1.2,0,0,1-.84.33.86.86,0,0,1-.23,0c-2.65,1.24-5,3.08-8,3.47l-5.38-3.36H130a1.61,1.61,0,0,1-.81-.22l0,0a.1.1,0,0,1,0-.05v.08a1.83,1.83,0,0,1-.67.19.7.7,0,0,1-.48-.19h0a1.06,1.06,0,0,1-.63.32.64.64,0,0,1-.44-.22l-.08,0-1.39-.29v0c-.34,0-.67.18-1,.18a.8.8,0,0,1-.52-.18l0,0,0,.08-.29,0a1.93,1.93,0,0,0-1.43.64c-1.22,1-2.38,2.12-4.06,2.35a1.39,1.39,0,0,1-.4.06,1.47,1.47,0,0,1-1.29-.77,4,4,0,0,1-2.08-1.19h0c-.57.26-1,.92-1.66.92h0L110,195.78l-.07-.15s0,.09,0,.13h0a2,2,0,0,1-1.26.52,2.75,2.75,0,0,1-1.9-1.13h-.16a.38.38,0,0,1-.25-.09l-.05,0h0c-.55,0-.77-.52-1.12-.84l-.09,0v0a3.87,3.87,0,0,0-1.24-.2c-1.71,0-3.28,1-5,1.09a1.27,1.27,0,0,1-.28,0,1.42,1.42,0,0,1-.72-.2v-.19l0,0v.15c-1.59-.14-2.23-1.7-3.38-2.52a1.12,1.12,0,0,1-.76-.76s0-.06,0-.1a.25.25,0,0,0,0,.07.74.74,0,0,0-.56-.22c-.28,0-.58.09-.87.09a.8.8,0,0,1-.54-.18l-2.18.18c-1.18,0-2.34.64-3.51.64a2.69,2.69,0,0,1-1.68-.56h0c-.79-.13-1-.71-1-1.4h0l-.62-1.38c-.56-.32-.45-1-.67-1.45a.56.56,0,0,0,0-.08l-2.22-.41-.11,0-3-.67,0,0,0,.06-1.59-.55h0c-1.4,0-1.15-1.17-1.3-2a.5.5,0,0,0,0-.13,1.48,1.48,0,0,1-.13-.35.53.53,0,0,0,0-.12c-.86-.86-.2-2.37-1.22-3.18,0-.07,0-.14-.07-.21s0,.15-.07.23l-3.76-.59a2.5,2.5,0,0,1-2.18-.46h0l-1-3.71.07,0c-.35-.81,0-1.85-.83-2.5a.13.13,0,0,1,0-.06l0,0a9.17,9.17,0,0,1-1.38.11,8.72,8.72,0,0,1-3-.54c-.61-.19-1-.42-1-1.1v0c-.33-1.23-1-2.4-.64-3.74h0c-.65-.58-.27-1.88-1.41-2.12h0c-.72-.05-1.45-.12-2.17-.15-1.77-.1-2.44-.83-2.42-2.71l-.22-1.82a1.58,1.58,0,0,1,.09-1.61c-.1-.36-.41-.69-.14-1.09-.06-.6-.64-.63-1-1l0,0c-1.47-.8-3.3-1.08-4.09-2.92-.92-.39-.93-1.14-.82-2s.13-1.7.19-2.56h0a2.68,2.68,0,0,1,0-1.93h0l-.24-.63h0c-.69-1-1.91-1.3-2.52-2.35a.43.43,0,0,1,0,0h0c-1.81-1.05-2-2.62-1.4-4.44-.33-1.15.52-2.05.56-3.11l.06-.07c-.44-.46.12-1-.17-1.53l-.07,0c-1.78-.87-2.38-2.93-3.86-4.1v0h0c-1.41-1.65.16-3.31-.06-5h0v0h0c.31-1.08.63-2.15.94-3.24h0a9.33,9.33,0,0,1-3.55-3.31,4.82,4.82,0,0,1,2.83-6h0l.19-.32.06-.05H39.3a9.21,9.21,0,0,0,.35-2.71,1.22,1.22,0,0,1-.13-.88c-.13-.41-.52-.78-.52-1.37h0c-.31-.51-.53-1.15-.1-1.57,1.52-1.46,3.12-2.82,4.68-4.22a3.89,3.89,0,0,0,.81-3.4c-.22-2.35-.33-4.83,1-7,.19-.29.33-.68.63-.68a.77.77,0,0,1,.45.22.13.13,0,0,1,0,.06l0,0a30.37,30.37,0,0,1,5.35-1.65s0,0,0,0c.32-.26.41-.81.94-.82,0,0,0-.09,0-.14,1.08-.33.67-1.73,1.48-2.26l.06.09a.09.09,0,0,1,0,0c.16-1.58-.07-3.38,2-3.79h0a.27.27,0,0,1,.34,0l0,0,1.39-.24h0a4.58,4.58,0,0,1,2.88-.8c.46,0,.92,0,1.39,0l.06,0h0l.59-.43h0a.9.9,0,0,1,.73-.53c1.12-.18,1.94-1.21,3.12-1.21h.13c.25.06.49.16.74.24.78-.41,1.42-1.19,2.37-1.19a1.6,1.6,0,0,1,.42,0l0,.05,0,0A7.7,7.7,0,0,1,74.86,77,2.32,2.32,0,0,1,75,75.55c1.33-.52,2.75-.94,3.36-2.49V73c.27-.59.28-1.3.82-1.75h0c0-.5.08-.92.52-.92a1.13,1.13,0,0,1,.4.08l.06,0c0-.36.12-.48.26-.48a1.45,1.45,0,0,1,.59.29h0a.77.77,0,0,1,.26.07h.08c.33,0,.63-.38,1-.38a.56.56,0,0,1,.42.23h0l1.08-.26h0a10.88,10.88,0,0,1,1.63-2.59,2,2,0,0,1,1.33-.56,3.84,3.84,0,0,1,2.32,1.19l0,0a1.51,1.51,0,0,1,.41-.06c.82,0,1.44.72,2.21.87h0l.76-.1,0,0v0L94.53,67a2.17,2.17,0,0,1,1.74-1h0c.28-.64.6-1,1-1a1.56,1.56,0,0,1,1,.61,31.35,31.35,0,0,0,2.8,2.38h0a2.72,2.72,0,0,0,2,.82,6.08,6.08,0,0,0,1.68-.3,12.69,12.69,0,0,1,1.93-.3l0,0a2.33,2.33,0,0,1,1.54-.73A2.94,2.94,0,0,1,110.34,69c.53.69,1.13,1.32,1.7,2h0l.37.23a.08.08,0,0,1,0,0v0h1.22a2,2,0,0,0,.22-.09l.38-.06h0a5.08,5.08,0,0,1,.59-.15,13.29,13.29,0,0,1,2.06-.29c1.11,0,1.26.64,1.76,2.77l.05,0c.83.51.37,1.54.84,2.2l-.09,0h0l.29,0a6.09,6.09,0,0,1,.48-.55h0c-.08-1,0-1.68,1.34-1.69s2.7-.58,4.1-.58h.29l2.53-.41c2.13-1,4.53-1.52,6.09-3.69a.65.65,0,0,1,.54-.32c.59,0,1.29.77,1.89,1h0a2.34,2.34,0,0,0,1.47.52,2.43,2.43,0,0,0,.38,0l0,0v0l6-.89a8.69,8.69,0,0,0,2.4-1.67,1,1,0,0,1,.7-.46c.25,0,.47.21.67.64,0,0,0,0,0,0l.06,0,1.07,1.53c.48.5,1.34.39,1.71,1.07h0a9.55,9.55,0,0,0,3.76.77,9.15,9.15,0,0,0,1.38-.1l1.17-.62h0c.51-.88,1-1.76,1.55-2.64l0,0a4.31,4.31,0,0,1,.63-2.64l0,0a2.17,2.17,0,0,1,.48-1.49s0,0,0,0a2.7,2.7,0,0,1,.44-1.41h0c.33-.76.66-1.51,1-2.27l.05,0-.07,0a3.69,3.69,0,0,1,.46-1.92,2,2,0,0,1,2.15-1.93m0-8h0a9.87,9.87,0,0,0-9.82,7.48,11.88,11.88,0,0,0-.66,2.49l-.39.88a10.85,10.85,0,0,0-.73,1.89,8.45,8.45,0,0,0-4.93-1.59,8.72,8.72,0,0,0-6,2.48l-2.23.33a9.12,9.12,0,0,0-4.6-1.28h0a8.6,8.6,0,0,0-6.85,3.4c-.29.15-.87.39-1.3.56-.24.1-.5.2-.76.32l-.87.14a16.31,16.31,0,0,0-2.16.21A9.17,9.17,0,0,0,117,62.62a11.83,11.83,0,0,0-1.47.1,10,10,0,0,0-7.25-3.19,9.77,9.77,0,0,0-3.94.84l-.19-.17a9.19,9.19,0,0,0-6.84-3.14,8.87,8.87,0,0,0-5.84,2.26,5.5,5.5,0,0,0-.48.28,10.22,10.22,0,0,0-4.13-.9,9.91,9.91,0,0,0-6.61,2.54,7.71,7.71,0,0,0-.7.7A8,8,0,0,0,76,63.21a8.35,8.35,0,0,0-4.3,4.9c0,.08-.07.15-.1.22a8,8,0,0,0-2.9,2.34c-.29.15-.57.31-.85.47a9.88,9.88,0,0,0-1.87.7,11.28,11.28,0,0,0-4.4,1.49,9,9,0,0,0-1.63.66,12.32,12.32,0,0,0-4,1,8.43,8.43,0,0,0-2,.44,9.76,9.76,0,0,0-7,7.57l-1.11.36a8.48,8.48,0,0,0-7.13,4.51,17.55,17.55,0,0,0-2.26,10.32c-1,.86-2,1.74-2.94,2.69l0,0a8.83,8.83,0,0,0-2.3,8.79A12.82,12.82,0,0,0,28.64,122a7.91,7.91,0,0,0,.82,1.74,16.65,16.65,0,0,0,1.4,1.93c0,.09,0,.18,0,.26a10.91,10.91,0,0,0,1.5,9.72,7.93,7.93,0,0,0,1.31,1.47c.09.11.21.29.31.43s.26.37.42.57a9.65,9.65,0,0,0-.08,1.11,10.9,10.9,0,0,0,3.78,10.83l.36.4a3.6,3.6,0,0,1,0,.36,9.65,9.65,0,0,0,2.66,8.4,11.58,11.58,0,0,0,3.4,3.11l.06.46a10,10,0,0,0,6.65,9.5,3,3,0,0,0,.11.32,8.91,8.91,0,0,0,6.25,7l.82.27.26,1a8,8,0,0,0,3.51,4.72,10.57,10.57,0,0,0,4.22,1.62,8.82,8.82,0,0,0,6.82,6.21l.93.32a7.93,7.93,0,0,0,1.55.37l.55.12A8.82,8.82,0,0,0,81,198.84a10.64,10.64,0,0,0,5,1.24,14.12,14.12,0,0,0,3.87-.6l.2-.06h.14a11.12,11.12,0,0,0,5.47,3.21,9.36,9.36,0,0,0,2.93.47,9.46,9.46,0,0,0,1.07-.06,15.09,15.09,0,0,0,3.27-.65h0a9.7,9.7,0,0,0,10.84.45l.19-.1a9.37,9.37,0,0,0,5.69.59,13.57,13.57,0,0,0,5.75-2.53,8.39,8.39,0,0,0,2,.23l.69,0,3.22,2a8.08,8.08,0,0,0,4.24,1.21,7.13,7.13,0,0,0,1-.07,22.86,22.86,0,0,0,8.39-3.11,13.55,13.55,0,0,0,3.75,1.44,9.09,9.09,0,0,0,7.32,0,10.33,10.33,0,0,0,4.51-2.8,9.37,9.37,0,0,0,1.22.08,9.58,9.58,0,0,0,6-2.19,27.22,27.22,0,0,0,2.86-2.39,8.14,8.14,0,0,0,2,.27h.11a8.21,8.21,0,0,0,2-.26,9.43,9.43,0,0,0,5.71-4.14,8.27,8.27,0,0,0,.72-1.12,14.2,14.2,0,0,0,2-2.94c.2,0,.4,0,.59,0a8.43,8.43,0,0,0,7.67-4.86c.19-.38.51-.89.85-1.43a23.61,23.61,0,0,0,2.5-4.83l.37-.17,3.24-1.55a10.06,10.06,0,0,0,6.13-5.82.61.61,0,0,0,.05-.12c.07-.19.14-.38.22-.56a19.43,19.43,0,0,0,1.42-5.41,10.76,10.76,0,0,0,4.07-4.1,11.46,11.46,0,0,0,1.72-7.75l.16-.18.32-.18a10.27,10.27,0,0,0,4.84-10.78,7.5,7.5,0,0,0,.11-.81l.72-.71a7.66,7.66,0,0,0,1.31-1.73,13.14,13.14,0,0,0,1.15-9.43c0-.21-.09-.49-.11-.63a7,7,0,0,0-.08-.79,2.79,2.79,0,0,1,.06-1.08,10.6,10.6,0,0,0,1.24-1.56,9.09,9.09,0,0,0,2.22-5.11,9.19,9.19,0,0,0-2.21-6.83,13.86,13.86,0,0,1-.74-1.63c-.16-.37-.33-.78-.52-1.21a8.78,8.78,0,0,0,1.17-2,8.88,8.88,0,0,0-2.3-10l-4.24-5a13.92,13.92,0,0,0-2.44-3.07c-.36-.57-.74-1.12-1.15-1.65a10,10,0,0,0-1-1.87c-.05-.12-.11-.23-.16-.35a15.32,15.32,0,0,0-1.19-3.12,3.75,3.75,0,0,0-.24-.44,10.14,10.14,0,0,0-6.61-6.36,18,18,0,0,0-5.69-1.3,10.51,10.51,0,0,0-5.88-3.29,17.44,17.44,0,0,0-3.81-.42,17.64,17.64,0,0,0-2.9.24c-.66-.11-1.22-.14-1.62-.17h-.07a6.77,6.77,0,0,0-1.1-.15l-.94-.23.09-.18a8.46,8.46,0,0,0,1.12-2.54,8.49,8.49,0,0,0,.83-2.63,10,10,0,0,0,.12-7.11,10.33,10.33,0,0,0-7.6-6.43c-3.06-.78-5.67-1.34-8.23-1.74a12,12,0,0,0-2-.16Z" style="fill:#fff"/></svg>