<svg id="e0ceea8d-84cf-46bb-9bed-ec34b55e676e" data-name="Layer 1" xmlns="http://www.w3.org/2000/svg" viewBox="0 0 252 252"><path d="M93.5,52.36a2.83,2.83,0,0,1,.71.1c2,.54,2.61,3.2,2.64,3.31l0,.14,0,.15c-.09.23-.18.47-.26.71l0,.13-.08.07c-.12.41-.24.82-.34,1.25h.07c-1.15,4.93-.65,11.29,0,16l.44-.15a54.64,54.64,0,0,1,43.84,4.67,57.13,57.13,0,0,1,5.42,3.51A60.18,60.18,0,0,1,164,79.44h0a60.1,60.1,0,0,1,.17,120.2H164a59.76,59.76,0,0,1-23.43-4.75A5.73,5.73,0,0,1,140,196a5.94,5.94,0,0,1-4.19,2.63,6.1,6.1,0,0,1-.77.05,8.88,8.88,0,0,1-5.88-2.59c-3.66-3.24-6.79-3.72-7.18-3.77a53.34,53.34,0,0,1-7.77.56,54.75,54.75,0,0,1-27.23-7.24,60,60,0,0,1-28.15-36,62.77,62.77,0,0,1,.51-37.59,42.24,42.24,0,0,1-23.63,7.06,49,49,0,0,1-6.55-.44l-.25,0-1-.14,0-.47c0-.39,3.66-39,32-51.42,5.67-2.47,10.35-3.72,14-3.72a10.16,10.16,0,0,1,5.49,1.37c.77-.5,1.55-1,2.31-1.39a19.73,19.73,0,0,0,1.7-1.14,36.24,36.24,0,0,1,5.29-3.3c.21-1.45.4-2.53.5-3.05a2.51,2.51,0,0,0,.09-.39V54.9l.13-.14c1.51-1.59,2.89-2.4,4.12-2.4m0-8c-3.5,0-6.84,1.64-9.92,4.88l-.24.26-.12.15a7.88,7.88,0,0,0-1.84,3.83c-1,.64-1.88,1.28-2.65,1.82l-.26.19a20.62,20.62,0,0,0-4.61-.5c-4.81,0-10.43,1.44-17.19,4.39C43.11,65.31,32.45,77.27,25.85,94a93.89,93.89,0,0,0-5.91,23.48l0,.46a8,8,0,0,0,6.9,8.62l1,.13a6,6,0,0,0,.94.07,56.41,56.41,0,0,0,6.93.43,51.39,51.39,0,0,0,12.76-1.58,70.75,70.75,0,0,0,2.68,26.34A68,68,0,0,0,83,192.6a62.72,62.72,0,0,0,38.41,7.87,9.64,9.64,0,0,1,2.42,1.62,16.71,16.71,0,0,0,11.19,4.6,14.55,14.55,0,0,0,1.75-.11,13.93,13.93,0,0,0,6.08-2.31,67.72,67.72,0,0,0,21.1,3.37h.26A68.1,68.1,0,1,0,147.33,73.5c-1-.61-1.92-1.2-2.87-1.74a62.61,62.61,0,0,0-41-7.54,21.56,21.56,0,0,1,.47-4.17l.09-.44.06-.18,0-.13c0-.13.1-.29.16-.44l.05-.14a8,8,0,0,0,.31-4.6l0-.14c-.82-3.59-3.44-7.9-8.31-9.24a10.73,10.73,0,0,0-2.83-.38Z" style="fill:#fff"/></svg>