<svg id="Layer_1" data-name="Layer 1" xmlns="http://www.w3.org/2000/svg" viewBox="0 0 252 252"><defs><style>.cls-1{fill:#649e1c;}.cls-2{fill:#66a11c;}.cls-3{fill:#7db826;}.cls-10,.cls-11,.cls-4{fill:#598b1a;}.cls-5{fill:#82c41b;}.cls-6{fill:#a3d52c;}.cls-7{fill:#70a91c;}.cls-8{fill:#81bc28;}.cls-9{fill:#96d035;}.cls-10,.cls-11,.cls-15,.cls-24{isolation:isolate;}.cls-10,.cls-15,.cls-24{opacity:0.3;}.cls-11{opacity:0.5;}.cls-12{fill:#7fbc1d;}.cls-13{fill:#649715;}.cls-14{fill:#70a917;}.cls-15{fill:#2e5e17;}.cls-16{fill:#659a1d;}.cls-17{fill:#477d1c;}.cls-18{fill:#7bb82a;}.cls-19{fill:#3e721c;}.cls-20{fill:#7bb61b;}.cls-21{fill:#58912b;}.cls-22{fill:#77b218;}.cls-23{fill:#8dc926;}.cls-24{fill:#466d14;}.cls-25{fill:#82bb1a;}.cls-26{fill:#cce95f;}.cls-27,.cls-34{fill:#fcfbc2;}.cls-28{fill:none;}.cls-29{fill:#c7e51e;}.cls-30{fill:#b3dc10;}.cls-31{fill:#d8ed28;}.cls-32{fill:#eef86d;}.cls-33{fill:#ffffab;}.cls-34,.cls-35{fill-rule:evenodd;}.cls-35{fill:#fffee9;}</style></defs><g id="a085b50c-009d-4fb9-a4df-288f38b19793"><path class="cls-1" d="M121.93,191.83s3.43.28,7.51,3.9,8.13,2.91,10.1,0,.62-6.16,6.36-14.07C145.9,181.69,127.13,177.86,121.93,191.83Z"/><path class="cls-2" d="M153.54,95c-8.91-9-32.12-20.51-46.68-17.4a63.84,63.84,0,0,1-19.6,1,57.45,57.45,0,0,0-24,25.1,62.67,62.67,0,0,0-4,45.85,59.86,59.86,0,0,0,27.92,35.67,54,54,0,0,0,43.45,4.6A55.79,55.79,0,0,0,158,170.62C181.05,131.63,161.76,103.19,153.54,95Z"/><path class="cls-3" d="M96.8,74.52a56.08,56.08,0,0,0-9.54,4.07,63.84,63.84,0,0,0,19.6-1C121.42,74.49,144.63,86,153.54,95c8.22,8.23,27.51,36.67,4.43,75.66a60.46,60.46,0,0,0,6.25-10,62.72,62.72,0,0,0,3.95-45.85,59.88,59.88,0,0,0-27.93-35.67A54.06,54.06,0,0,0,96.8,74.52Z"/><path class="cls-4" d="M74.57,95.1s14-12.78,16.19-4.29l-.7,8.64s2.22-7,3-9c.52-1.23,1.06-5.56,14.07,2.48,0,0-6-5-7.42-5.86-1-.65-.42-5.82,16.38-6.31,0,0-11.69-1.7-16.31,2.14s-7,5.94-10,3.58C84.51,82.35,74.57,95.1,74.57,95.1Z"/><path class="cls-5" d="M85.7,85.05S84,88.61,91,88s13.63-6.2,9.12-9.22C97.56,77,86.72,77.91,85.7,85.05Z"/><path class="cls-6" d="M88.91,82.89s.89,3.15,5.77,1.77c0,0-7.38,3.69-8.19.07C86.49,84.73,87.59,81.59,88.91,82.89Z"/><path class="cls-7" d="M78.51,114.11c2.5-.16,5.29,1.53,7.63,2,2.9.59,5.75,1.38,8.66,2.24,6.6,2,11.85,4.59,15.73,10.55,7.42,11.43,13,20.5,5.68,35.2S90.32,184.76,79,172.8c-7.59-8-11.36-14.91-12.91-26.23a52.06,52.06,0,0,1,1-18.74c1.09-4.76,5.43-12.21,10.5-13.57A4.77,4.77,0,0,1,78.51,114.11Z"/><path class="cls-7" d="M137.11,102.16c-3.38,2-5.29,5.84-6.3,11-1.16,5.94-2,15.46,1.79,20.71,6.14,8.53,20.39,37.26,27,18.76.29-.8.55-1.61.79-2.42a56.44,56.44,0,0,0,.69-28.85c-1.94-7.9-7.35-19.39-16-20.48A12.45,12.45,0,0,0,137.11,102.16Z"/><path class="cls-8" d="M74.26,142.3s-1.19,19.29,10.85,24.41,19.94.55,22.75-12.19-9.46-24.93-16.18-28S75.21,131.55,74.26,142.3Z"/><path class="cls-9" d="M81.44,146.91s2,11.94,9.44,11,4.64-14.13-.32-17.63S80.46,140.55,81.44,146.91Z"/><path class="cls-8" d="M143.14,110.56s-10.15,10.67-.45,23.95,16.89,13.05,16-3.06S152.16,105.89,143.14,110.56Z"/><path class="cls-10" d="M142.58,167.66a4.2,4.2,0,0,0,3.47-2.47c1.21-2.44.92-2.34-.18-1.14S142.11,167.13,142.58,167.66Z"/><path class="cls-4" d="M146.89,164a3.34,3.34,0,0,0,2.61-1.75c.95-1.69.73-1.63-.11-.78S146.54,163.65,146.89,164Z"/><path class="cls-10" d="M134.86,169.29a3.21,3.21,0,0,0,2.92-1.76c.94-1.88.69-1.82-.22-.93S134.41,168.83,134.86,169.29Z"/><path class="cls-4" d="M132.1,170.12a2,2,0,0,0,1.68-1c.55-1,.41-1-.11-.48S131.85,169.88,132.1,170.12Z"/><path class="cls-4" d="M119.56,177.27a1.8,1.8,0,0,0,1.89.17c1-.55.86-.61.17-.5S119.49,176.91,119.56,177.27Z"/><path class="cls-10" d="M144.89,161.8a4.07,4.07,0,0,0,2.78-2.33c.86-2,.13-2-.62-1s-1.8,2.11-2.38,2S143.7,162.7,144.89,161.8Z"/><path class="cls-10" d="M100.19,116a3.92,3.92,0,0,0-3.56-.06c-1.87,1-1.31,1.45-.12,1.18s2.66-.42,3.08,0S101.65,116.13,100.19,116Z"/><path class="cls-10" d="M125,88.23a4.35,4.35,0,0,0-2.68,2.46c-.78,1.93,0,1.88.67.86s1.71-2.14,2.3-2.14S126.17,87.27,125,88.23Z"/><path class="cls-4" d="M89.69,119.2a4,4,0,0,0-3.57-.06c-1.86,1-1.31,1.45-.12,1.18s2.67-.42,3.08,0S91.15,119.31,89.69,119.2Z"/><path class="cls-4" d="M79.29,121.52a4,4,0,0,0-3.13,1.77c-1.19,1.79-.47,1.95.44,1.1s2.13-1.74,2.69-1.56S80.61,120.87,79.29,121.52Z"/><path class="cls-4" d="M125,168a4.11,4.11,0,0,0,2.78-2.34c.86-2,.13-2-.62-1s-1.8,2.11-2.38,2S123.77,168.89,125,168Z"/><path class="cls-11" d="M82.19,173.58a4,4,0,0,0,3.51.67c2-.61,1.52-1.2.3-1.14s-2.7-.05-3-.55S80.76,173.22,82.19,173.58Z"/><path class="cls-11" d="M105.29,170.69a4.05,4.05,0,0,0,2.77-2.34c.87-2,.14-2-.61-1s-1.8,2.1-2.38,2S104.1,171.58,105.29,170.69Z"/><path class="cls-11" d="M139.9,175.26a4.11,4.11,0,0,0,2.78-2.34c.87-2,.14-2-.61-1s-1.8,2.11-2.39,2S138.72,176.15,139.9,175.26Z"/><path class="cls-11" d="M118.24,171.58a4.38,4.38,0,0,0,1.41-3.44c-.11-2.19-.76-1.85-1-.59s-.65,2.76-1.2,3S117.58,173,118.24,171.58Z"/><path class="cls-11" d="M106.1,180.42a4.3,4.3,0,0,0,1.7-3.29c.08-2.19-.61-1.91-.93-.68s-.88,2.69-1.45,2.86S105.33,181.73,106.1,180.42Z"/><path class="cls-11" d="M78.94,167a4.12,4.12,0,0,0-2.57,2.58c-.7,2.06,0,2,.7.94s1.61-2.27,2.2-2.25S80.05,166,78.94,167Z"/><path class="cls-4" d="M137.75,159.73a3.43,3.43,0,0,0,1.93-.43c.28-.16,2.16-1.49,1.34-1.91-.38-.19-.62.35-1,.54a3.86,3.86,0,0,1-2.59.86C136.8,158.67,136.92,159.91,137.75,159.73Z"/><path class="cls-4" d="M141.87,145.42a3.71,3.71,0,0,0,1.4-1.46c.15-.3,1-2.5.14-2.38-.42,0-.35.65-.53,1a4.18,4.18,0,0,1-1.72,2.22C140.53,145.07,141.27,146.05,141.87,145.42Z"/><path class="cls-4" d="M128.48,101.67a3.75,3.75,0,0,0,1.21-1.6c.12-.3.73-2.49-.16-2.22-.41.13-.27.67-.4,1a4.2,4.2,0,0,1-1.44,2.36C127.09,101.59,128,102.36,128.48,101.67Z"/><path class="cls-10" d="M129.46,145a4.08,4.08,0,0,0,.42-2c0-.34-.4-2.71-1.1-2.1-.32.28,0,.75.07,1.14a4.54,4.54,0,0,1-.31,2.86C128.15,145.42,129.27,145.83,129.46,145Z"/><path class="cls-11" d="M126.92,133.58a4,4,0,0,0,.42-2c0-.33-.4-2.71-1.09-2.1-.32.28,0,.75.07,1.14a4.61,4.61,0,0,1-.32,2.86C125.62,134,126.74,134.45,126.92,133.58Z"/><path class="cls-11" d="M120.05,133.66a4.18,4.18,0,0,0-.86-1.89c-.21-.25-1.89-1.89-2.08-1-.09.43.47.57.72.86a4.32,4.32,0,0,1,1.42,2.47C119.3,134.88,120.41,134.48,120.05,133.66Z"/><path class="cls-11" d="M144,106.77a4.16,4.16,0,0,0-.85-1.89c-.22-.25-1.9-1.89-2.08-.95-.09.43.47.57.71.86a4.39,4.39,0,0,1,1.43,2.47C143.29,108,144.41,107.59,144,106.77Z"/><path class="cls-11" d="M124,135.61a2.46,2.46,0,0,0-.52-1.15c-.13-.15-1.15-1.15-1.26-.58-.06.26.28.35.43.53a2.7,2.7,0,0,1,.87,1.5C123.57,136.35,124.25,136.11,124,135.61Z"/><path class="cls-11" d="M99.67,139a3.76,3.76,0,0,0,1-1.75c.09-.33.49-2.69-.36-2.36-.39.14-.2.71-.3,1.09a4.3,4.3,0,0,1-1.21,2.57C98.29,138.94,99.22,139.73,99.67,139Z"/><path class="cls-11" d="M84.22,134.06a3.76,3.76,0,0,0,1-1.75c.08-.33.49-2.69-.37-2.37-.39.15-.2.72-.3,1.1a4.3,4.3,0,0,1-1.21,2.57C82.84,134,83.76,134.82,84.22,134.06Z"/><path class="cls-10" d="M109,130.22a3.68,3.68,0,0,0,1.39-1.46c.16-.29,1-2.49.15-2.38-.42.05-.35.65-.53,1a4.19,4.19,0,0,1-1.72,2.21C107.64,129.87,108.37,130.85,109,130.22Z"/><path class="cls-10" d="M132.87,112.89a3.71,3.71,0,0,0,1.4-1.46c.15-.29,1-2.49.14-2.38-.41,0-.34.65-.52,1a4.24,4.24,0,0,1-1.73,2.22C131.53,112.54,132.27,113.52,132.87,112.89Z"/><path class="cls-11" d="M107.2,138.1a3.49,3.49,0,0,0,1.72-1c.23-.24,1.67-2.09.77-2.24-.41-.08-.51.52-.77.79a4,4,0,0,1-2.24,1.62C106,137.37,106.45,138.53,107.2,138.1Z"/><path class="cls-4" d="M138.79,139.52a3.57,3.57,0,0,0,1.73-1c.23-.24,1.66-2.09.77-2.24-.42-.07-.51.52-.77.8a4,4,0,0,1-2.24,1.61C137.59,138.79,138.05,139.94,138.79,139.52Z"/><path class="cls-4" d="M137.55,121.23a3.57,3.57,0,0,0,1.73-1c.22-.24,1.66-2.09.76-2.24-.41-.08-.5.52-.76.79A4.05,4.05,0,0,1,137,120.4C136.35,120.5,136.8,121.66,137.55,121.23Z"/><path class="cls-10" d="M129.24,78.57a3.9,3.9,0,0,0-2-.26c-.32,0-2.57.61-2,1.25.28.29.71-.1,1.09-.16a4.18,4.18,0,0,1,2.75.09C129.75,79.82,130.09,78.69,129.24,78.57Z"/><path class="cls-4" d="M71.43,106.94A3.87,3.87,0,0,0,70,108.35c-.16.28-1.09,2.37-.18,2.24.42-.07.36-.63.54-1a4.32,4.32,0,0,1,1.78-2.13C72.79,107.22,72.06,106.33,71.43,106.94Z"/><path class="cls-10" d="M159.29,115.45a3.88,3.88,0,0,0,1.24-1.62c.11-.31.77-2.6-.11-2.38-.41.1-.28.69-.42,1a4.27,4.27,0,0,1-1.48,2.4C157.92,115.26,158.76,116.14,159.29,115.45Z"/><path class="cls-10" d="M158.4,137.92a3.49,3.49,0,0,0,1.86-.68c.25-.19,2-1.76,1.1-2.07-.4-.14-.58.43-.88.66A4,4,0,0,1,158,137C157.32,137,157.59,138.21,158.4,137.92Z"/><path class="cls-10" d="M159.49,127.41a3.51,3.51,0,0,0,1.61-1.18c.2-.27,1.44-2.27.54-2.32-.42,0-.45.58-.68.88-.57.76-1.1,1.63-2.06,1.87C158.22,126.82,158.79,127.92,159.49,127.41Z"/><path class="cls-4" d="M146.09,91a3.42,3.42,0,0,0-1-1.63c-.24-.21-2.08-1.5-2.19-.6-.05.41.53.46.8.7.69.58,1.49,1.14,1.65,2.09C145.44,92.21,146.53,91.68,146.09,91Z"/><path class="cls-4" d="M157.8,103a4,4,0,0,0-1.06-1.77c-.24-.22-2.08-1.64-2.17-.69,0,.44.53.51.81.77a4.32,4.32,0,0,1,1.68,2.28C157.19,104.32,158.25,103.78,157.8,103Z"/><path class="cls-4" d="M133,153.66c.32.18.24,1-.18,1.85s-1,1.37-1.34,1.19-.24-1,.18-1.85S132.67,153.48,133,153.66Z"/><path class="cls-4" d="M97.05,122.09c.12.36-.49.89-1.35,1.18s-1.64.23-1.76-.14.5-.89,1.36-1.18S96.94,121.73,97.05,122.09Z"/><path class="cls-4" d="M118.69,112.39c.28.15.21.88-.16,1.61s-.89,1.21-1.18,1-.2-.88.16-1.62S118.41,112.23,118.69,112.39Z"/><path class="cls-11" d="M72,142.09s.39,2,1.38.94S72.74,141.21,72,142.09Z"/><path class="cls-11" d="M75.77,148s.57,2.88,2,1.35S76.85,146.77,75.77,148Z"/><path class="cls-11" d="M116,87.44s.5,2.69,2,1.22S117.12,86.23,116,87.44Z"/><path class="cls-11" d="M78.62,158.07s1,5.2,3.58,2.44S80.55,155.79,78.62,158.07Z"/><path class="cls-11" d="M74.57,95.1s-4.82,1.76-1.85,3.9S77,96.64,74.57,95.1Z"/><path class="cls-11" d="M70.2,100.33s-4.74-1.62-3.92,1.9S71,103.07,70.2,100.33Z"/><path class="cls-4" d="M148.43,145.29s.39,2,1.39,1S149.18,144.41,148.43,145.29Z"/><path class="cls-11" d="M96.76,154.3s.39,2,1.39.94S97.51,153.42,96.76,154.3Z"/><path class="cls-11" d="M98.08,163.55s.39,2,1.39.94S98.83,162.67,98.08,163.55Z"/><path class="cls-11" d="M95.8,174.4s.39,2,1.38.95S96.55,173.52,95.8,174.4Z"/><path class="cls-11" d="M111.72,153.4s.63,3.24,2.24,1.53S112.93,152,111.72,153.4Z"/><path class="cls-4" d="M117,82.33s.42,2.26,1.67,1S118,81.32,117,82.33Z"/><path class="cls-4" d="M154.85,157.24s.39,2,1.38.94S155.6,156.36,154.85,157.24Z"/><path class="cls-4" d="M148.58,118.47s.39,2,1.39.94S149.33,117.59,148.58,118.47Z"/><path class="cls-4" d="M151.33,128.35s.39,2,1.38.94S152.07,127.47,151.33,128.35Z"/><path class="cls-12" d="M91.87,57.49a4.48,4.48,0,0,0,4.23-.88c.08-.24.17-.49.26-.73,0,0-1.43-6.23-6.62-.78a1.73,1.73,0,0,1-.1.47A2.61,2.61,0,0,0,91.87,57.49Z"/><path class="cls-13" d="M92.5,71.13c-1.66,3.7,1,10.16,2,12.18A8.46,8.46,0,0,0,97,81.12s-3.44-13.87-1.31-23a25.38,25.38,0,0,0-2.17,5.29C92.92,66.24,94.48,66.7,92.5,71.13Z"/><path class="cls-14" d="M91.87,57.49a2.61,2.61,0,0,1-2.23-1.92c-.54,2.85-3.1,17.94,1.14,28.09a4.11,4.11,0,0,0,3.67-.35c-.92-2-3.61-8.48-2-12.18,2-4.43.42-4.89,1-7.72a25.38,25.38,0,0,1,2.17-5.29c.12-.52.26-1,.42-1.51A4.47,4.47,0,0,1,91.87,57.49Z"/><path class="cls-6" d="M90.56,81.83s-1.09-6.47-.82-9.3c.27-3,1.1-5.53,1.21-7.78s-1.17-7.66-1.17-7.66S86.19,70.74,90.56,81.83Z"/><path class="cls-15" d="M58.2,126s12-9.15,14.58-15.64a191.43,191.43,0,0,1,15.69-31A54.35,54.35,0,0,0,58.2,126Z"/><path class="cls-16" d="M51.73,96.83c6.32-10.22,18.84-24,28.86-30.74-2.82-3.3-8.89-4-20.52,1.08-28.35,12.4-31.66,51-31.66,51l.52.07C33.72,115.17,45.36,107.14,51.73,96.83Z"/><path class="cls-17" d="M51.73,96.83c-6.37,10.31-18,18.34-22.8,21.36,36.13,5,50.37-31.26,50.37-31.26,2.63-6,5.32-16.09,1.29-20.84C70.57,72.79,58.05,86.61,51.73,96.83Z"/><path class="cls-18" d="M77.23,66.78A52.48,52.48,0,0,0,65.74,78C61.12,84.43,56,90,51.92,89.48s-11.09-.19-14.07,1.63c0,0,2.64-8.73,9.89-14.43s11.95-8.3,18.84-10.54S77.23,66.78,77.23,66.78Z"/><path class="cls-19" d="M79.62,68.74S73.88,69.58,68,81.48,59.87,106.17,54.5,111c-1.7,1.52,17.85-8.24,22.68-22.59S79.62,68.74,79.62,68.74Z"/><path class="cls-20" d="M43.93,106.57s15.65-17.9,19.18-23.32C67.19,77,75,71.78,80.37,67.63c2.52-2,12.7-3.62,11.9-8-.72-4-8.81,3-10.37,3.78a44.71,44.71,0,0,0-9.82,7.43C60.05,82.06,43.93,106.57,43.93,106.57Z"/><path class="cls-21" d="M54.58,94.38s-3.77,14-9.5,21C45.08,115.42,52.58,108,54.58,94.38Z"/><path class="cls-21" d="M65.3,80.79s-1.47,12.95-8.76,23.8C56.54,104.59,63.48,99.36,65.3,80.79Z"/><path class="cls-21" d="M75.2,71.64s-2.77,17.49-9.78,25.43C65.42,97.07,75.1,86.22,75.2,71.64Z"/><path class="cls-22" d="M52.67,93.9a47.92,47.92,0,0,1-16.44,2.18S45.72,98,52.67,93.9Z"/><path class="cls-23" d="M65.74,78s-10.43-3.28-17.88,0C47.86,78,60.18,73.25,65.74,78Z"/><path class="cls-23" d="M72.38,71.63S62,68.39,54.5,71.69C54.5,71.69,66.81,66.92,72.38,71.63Z"/><path class="cls-23" d="M59.54,84.09s-10.43-3.24-17.88.06C41.66,84.15,54,79.38,59.54,84.09Z"/><path class="cls-24" d="M130.49,189.91s8.81-1.87,14.6-7.34c0,0-4.51,7.5-5.12,11.4C140,194,139.19,188.6,130.49,189.91Z"/><path class="cls-7" d="M126.05,192.05a5.86,5.86,0,0,1,5.26,1.34c2.28,2.15,3.54,3.71,5.54,2.83C136.85,196.22,133.31,200.16,126.05,192.05Z"/><path class="cls-25" d="M164,199.14a59.6,59.6,0,1,1,42.14-17.46A59.61,59.61,0,0,1,164,199.14Z"/><path class="cls-26" d="M220.85,139.54A56.86,56.86,0,1,1,164,82.68h0A56.86,56.86,0,0,1,220.85,139.54Z"/><path class="cls-27" d="M210.25,169.57a3.16,3.16,0,0,0-.48.55c-.74,1.11-.31,2.61-1,3.75-.52.86-1.76,1.65-2.44,2.48-.91,1.1-1.49,2.34-2.75,3.14-1,.64-2.37.62-3.29,1.43s-1,2.63-1.94,3.37c-1.49,1.15-3.12.47-4.57,2-1.24,1.27-1.47,2.43-3.11,3.33-3.12,1.72-7,3.62-10.51,4.22-1.82.31-3.82-.66-5.45-.28-1,.24-1.18,1.05-2,1.47-2.62,1.34-5.81.57-8.69.46h0c-2.08-.08-4.19.21-6.27-.07-1.82-.24-2.86-1.53-4.46-1.84-1.79-.35-3.19.34-5-.17a42.21,42.21,0,0,1-6.74-2.31c-2.39-1.11-5.32-2-7.19-3.91-.62-.65-.81-1.54-1.57-2.09-1-.74-2.52-.57-3.63-1.25a30.64,30.64,0,0,1-3.87-3.42c-1.5-1.3-2.15-3-3.3-4.48-.91-1.19-2.08-1.65-3.13-2.73a19.2,19.2,0,0,1-3.85-5.51c-.91-2.22-2.16-4.35-3.06-6.53-.46-1.12.39-2.74,0-3.89-.53-1.55-2.07-1.77-2.35-3.48-.19-1.15.73-2.31.5-3.48-.31-1.55-1.58-2.9-1.74-4.58-.1-1,.34-1.92.33-2.92a38,38,0,0,1-.22-4.89,33.49,33.49,0,0,0,.68-3.28c0-1.08-.5-2.1-.31-3.2.16-.94,1-1.52,1.14-2.5s-.63-1.83-.48-2.86c.33-2.26,2.76-3.61,3.53-5.7.7-1.93.43-3.71,1.49-5.63s2.46-3.55,3.51-5.44c.82-1.45.82-3.66,2.18-4.74,1.18-.94,2.79-1.08,4-2.17a30.75,30.75,0,0,0,3.3-3.91c.77-1,1.27-2.9,2.27-3.67s2.75-.35,3.76-1c1.37-.93,2-2.22,3.54-2.94h0c1.89-.87,3.51-2.15,5.33-3s3.76-.85,5.45-1.7a13,13,0,0,1,4.46-1.1A12.8,12.8,0,0,0,154.5,85c1.27-.38,1.59-1.12,3-1.22,1.11-.07,2.25.14,3.35.06s2.2-.62,3.2-.62c2,0,4.14.68,6.13.76a41.28,41.28,0,0,1,7,1c2.77.6,5.33,2.59,8,3.54A24.52,24.52,0,0,1,188,89.92c1.8.87,4,.82,5.62,2a55.21,55.21,0,0,1,5.2,4.08c3.14,2.94,6.58,5.44,9.28,8.87a99.32,99.32,0,0,1,7,10.93c1,1.74.6,3.68,1.23,5.55,1.15,3.44,3.19,6.35,3.72,10A40.4,40.4,0,0,1,220,142c-.19,1.59.09,3.38-.31,4.93s-1.62,2.78-1.81,4.61.42,3.41.08,5.16c-.39,2-1.76,3.41-2.63,5.15-1,2.1-1.16,4.34-2.74,6.15s-2.26,2.17-2.81,4.56c-.16.48,0-.4,0-.36"/><path class="cls-28" d="M164.94,117.65a51.59,51.59,0,0,0,0,6.81Z"/><path class="cls-28" d="M176.87,154.17l.18.21C177.5,154.44,177.34,154.37,176.87,154.17Z"/><path class="cls-29" d="M213.53,130.65c.92-1.37-1.36-1.14-5.7-1.37s1.14-4.33,3-7.07-.46-3.88-1.83-4.33-.91-2.29-1.37-5-.91-3.43-5.24-5.71c-2.72-1.43-3-4.38-2.86-6.39a10.34,10.34,0,0,0-3.9,3L174.69,128a8.07,8.07,0,0,1-.62,2.86c-.69,1.14-3,2.28-3,3s-.91,1.83.23,2.06c.7.14.9,1,.33,1.7a5.09,5.09,0,0,0,2,.35h0l38-.09a5,5,0,0,0,4-1.83,4.77,4.77,0,0,0,1-2.88,9,9,0,0,0-1-.45C213.08,131.79,212.62,132,213.53,130.65Z"/><path class="cls-30" d="M171.33,135.9c-1.14-.23-.23-1.37-.23-2.06s2.28-1.82,3-3a8.07,8.07,0,0,0,.62-2.86l-3.64,4.22c-1.57,1.82-1.29,3.23-1,3.9a2.88,2.88,0,0,0,1.59,1.46C172.23,136.88,172,136,171.33,135.9Z"/><path class="cls-30" d="M212.75,120.24c-3.25-8.45-6.88-14.72-10.81-18.65l-.44-.44h0a1.74,1.74,0,0,0-1.25-.49,2.93,2.93,0,0,0-.72.12c-.16,2,.14,5,2.86,6.39,4.33,2.28,4.79,3,5.24,5.71s0,4.56,1.37,5,3.65,1.59,1.83,4.33-7.3,6.84-3,7.07,6.62,0,5.7,1.37-.45,1.14,2.06,2a9,9,0,0,1,1,.45,5.2,5.2,0,0,0-.16-1.42A106.54,106.54,0,0,0,212.75,120.24Z"/><path class="cls-30" d="M135.52,96.89c5.93-2.51,5.93-1.37,11.17-3.88s4.34-3.42,9.13-3,4.11-1.37,5.47,3.42c.92,3.19,1.53,6.18,1.83,7.82V94.71c0-3-.12-7.63-4.17-8-1.49-.14-3.47.67-5,.87-6.29.85-21,3.69-22.2,11.45a4.81,4.81,0,0,0,.28,2.49C131.88,100,132.45,98.19,135.52,96.89Z"/><path class="cls-30" d="M158.56,128.37c-1.48-.89-3.92-2.25-5.45-3.11l4.56,5a4,4,0,0,0,2.83,1.56c1.27,0,2.62-1,2.62-3.66V128C162,130.61,160.43,129.49,158.56,128.37Z"/><path class="cls-29" d="M163.12,101.29c-.3-1.64-.91-4.63-1.83-7.82-1.36-4.79-.68-3-5.47-3.42s-3.88.45-9.13,3-5.24,1.37-11.17,3.88c-3.07,1.3-3.64,3.15-3.47,4.63a5.78,5.78,0,0,0,1.06,1.7l20,22c1.53.86,4,2.22,5.45,3.11,1.87,1.12,3.43,2.24,4.56-.4V101.29Z"/><path class="cls-29" d="M167.23,128.83a55.06,55.06,0,0,0,8.55-4.86l17.87-20.7c-2.88,2.57-2.69,1-1.56-1.82,1.37-3.42.91-4.56.23-5a14,14,0,0,1-3.88-3c-1.6-1.83-3.19-.69-7.3.22s-1.6-1.36-4.79-4.1-4.11.68-6.84,0a2.46,2.46,0,0,1-1.92-2.15,4.38,4.38,0,0,0-2.65,4.42v32.6C165.17,127.08,165.77,129.34,167.23,128.83Z"/><path class="cls-30" d="M164.94,124.46v3.82c0,3.45,2.13,3.63,2.56,3.63a3.89,3.89,0,0,0,2.83-1.63l5.45-6.31a55.06,55.06,0,0,1-8.55,4.86C165.77,129.34,165.17,127.08,164.94,124.46Z"/><path class="cls-30" d="M169.51,89.59c2.73.68,3.65-2.74,6.84,0s.68,5,4.79,4.1,5.7-2,7.3-.22a14,14,0,0,0,3.88,3c.68.46,1.14,1.6-.23,5-1.13,2.82-1.32,4.39,1.56,1.82l.55-.64a5.09,5.09,0,0,0,1.24-4.22c-.47-2.63-2.51-3-4.48-4.19-2.57-1.51-4.72-3.48-7.53-4.63a43.17,43.17,0,0,0-5.43-1.8c-2.75-.7-7.43-1.66-10.36-.37A2.46,2.46,0,0,0,169.51,89.59Z"/><path class="cls-30" d="M168.59,147.3c.69,0,2.06.69,3.65,3.65.91,1.69,3.56,2.78,4.63,3.22L170.39,147a4,4,0,0,0-2.83-1.55c-1.14,0-2.35.79-2.58,2.93C165.78,146.87,168.05,147.3,168.59,147.3Z"/><path class="cls-30" d="M183.33,161.29c.15,1.56.93,4.43,4.2,8.14,5,5.7,8,9.81,6.61,12.32s-2,0-5.47,1.6-3.88,3.65-6.62,3.42-5-2.05-7.52.45-5.71,4.34-5.48,0c.17-3.32-2.6-10.65-4.11-13.18v6.63c0,2.14-.21,4.4,0,6.53.34,3.28,2.32,4.59,4.91,4.88,4.33.47,10.36-2,13.18-2.94,4.68-1.63,19.26-7,12.8-14.06Z"/><path class="cls-29" d="M169.05,187.22c-.23,4.34,3,2.51,5.48,0s4.79-.68,7.52-.45,3.2-1.83,6.62-3.42,4.1.91,5.47-1.6-1.59-6.62-6.61-12.32c-3.27-3.71-4.05-6.58-4.2-8.14l-6.28-6.91h0l-.18-.21c-1.07-.44-3.72-1.53-4.63-3.22-1.59-3-3-3.65-3.65-3.65s-2.81-.43-3.61,1.11V174C166.45,176.57,169.22,183.9,169.05,187.22Z"/><path class="cls-30" d="M173.16,146.16c-1.14-.68-1.6-2.51-2.06-3.65s1.6-1.14,4.34-1.37a17.69,17.69,0,0,0,5-1.38H174c-2.41,0-3.27,1.14-3.57,1.82s-.56,2.08,1.06,3.86l3.64,4C174.47,148,173.75,146.52,173.16,146.16Z"/><path class="cls-30" d="M211.7,139.69h-4c2.25.85,4.81,2.39,8.32,5.55,2.24,2-2.78,8.59-3.19,9.58-1.14,2.74,0,5.48-3.19,8.21s-1.15,6.85-4.8,8.22c-2.73,1-8.4-.38-11.08-1.15l3.36,3.7a5.17,5.17,0,0,0,3.69,2c6.71.16,11.58-11.32,13.15-16.58,1.13-3.79,4.66-14.06,1.73-17.71A5.07,5.07,0,0,0,211.7,139.69Z"/><path class="cls-29" d="M204.86,171.26c3.65-1.37,1.6-5.48,4.8-8.22s2.05-5.47,3.19-8.21c.41-1,5.43-7.57,3.19-9.58-3.51-3.16-6.07-4.7-8.32-5.55l-27.32.06a17.69,17.69,0,0,1-5,1.38c-2.74.23-4.79.23-4.34,1.37s.92,3,2.06,3.65c.59.36,1.31,1.84,1.9,3.3l18.72,20.65C196.46,170.88,202.13,172.28,204.86,171.26Z"/><path class="cls-29" d="M155.36,134.3c.18-1.62-1.64-5.11-2.4-6.49l-8.79-9.68c-1.72-1.9-3.93-4.95-6.4-7.73-3.27-2-8.69-4.79-11.15-2.79-3.65,3-2.28,4.56-3.88,5.7s-3.88,2.28-3.42,4.57,11.63,4.56,7.53,4.79-9.58-1.37-9.13,1.82,0,5-1.37,6.62-.45,3.19,2.29,3.87,25.83,2.35,20.53,3.2h-.36c1.88-.11,3.76-.21,5.64-.21h6.26l.29,0C157.47,136.88,155.14,136.35,155.36,134.3Z"/><path class="cls-30" d="M118.64,135c-2.74-.68-3.65-2.28-2.29-3.87s1.83-3.43,1.37-6.62,5-1.6,9.13-1.82-7.07-2.51-7.53-4.79,1.83-3.43,3.42-4.57.23-2.73,3.88-5.7c2.46-2,7.88.77,11.15,2.79-4.66-5.22-10.27-9.48-15.43-3.3a34.05,34.05,0,0,0-6.45,13.25c-.87,3.42-4,10.24-2.22,13.44a6.6,6.6,0,0,0,4.44,2.82c.57.14,1.14.24,1.69.33,2.62.4,5.1,1.2,7.77,1.44a75.31,75.31,0,0,0,11.24-.15h.36C144.47,137.33,121.37,135.67,118.64,135Z"/><path class="cls-30" d="M158.1,136.18c.3-.68.56-2.08-1.06-3.87l-4.08-4.5c.76,1.38,2.58,4.87,2.4,6.49-.22,2,2.11,2.58-4.33,3.65l-.32.05h3.82C156.94,138,157.81,136.85,158.1,136.18Z"/><path class="cls-29" d="M114.3,146.62c1.6,2.74,4.34,4.1,3.65,7.07s-3.19,5,1.37,8.21,6.39,1.83,7.53,5,2.74,4.11,6.39,1.6c2.81-1.93,8.87-6.57,11.5-8.6l10.61-12.29a7.8,7.8,0,0,1,.7-3.75c.91-1.82.45-2-1.83-2-1.26,0-4.36-1.06-6.87-2l-31.06.07S112.7,143.88,114.3,146.62Z"/><path class="cls-30" d="M143.69,161.13l1.05-1.21c-2.63,2-8.69,6.67-11.5,8.6-3.65,2.51-5.25,1.59-6.39-1.6s-3-1.82-7.53-5-2-5.24-1.37-8.21-2-4.33-3.65-7.07,2-6.72,2-6.72a5.07,5.07,0,0,0-4,1.83c-2.5,3.14-.47,10.07.46,13.52,2.11,7.77,6.23,17.64,15.52,18.6C134.85,174.54,140.26,165.1,143.69,161.13Z"/><path class="cls-30" d="M156.05,143.88a7.8,7.8,0,0,0-.7,3.75l1.82-2.11c1.57-1.81,1.28-3.22,1-3.89s-1.18-1.81-3.59-1.81h-7.2c2.51.94,5.61,2,6.87,2C156.5,141.83,157,142.06,156.05,143.88Z"/><path class="cls-29" d="M154.56,151.33l-19.82,23c1.17-.35,3-.9,4.88-1.44,3.2-.91,2.06-.23-.68,3.42s-3.42,6.85-1.14,8.22,3.88,1.59,5.24,2.51,4.79.22,6.85,1.59,6.61,2.51,7.07,1.6,2.74-13,3.65-12.32-.37,11,1.31,13.1a5.36,5.36,0,0,0,1.2-3.75v-31c-.53-2.69-1.47-6.71-2.51-7.75S156.7,149.56,154.56,151.33Z"/><path class="cls-30" d="M160.56,146a3.92,3.92,0,0,0-2.83,1.63l-3.17,3.67c2.14-1.77,5.07-3.86,6.05-2.89s2,5.06,2.51,7.75v-6.52C163.12,146.21,161,146,160.56,146Z"/><path class="cls-30" d="M160.61,177.87c-.91-.68-3.19,11.41-3.65,12.32s-5-.23-7.07-1.6-5.48-.68-6.85-1.59-3-1.14-5.24-2.51-1.6-4.57,1.14-8.22,3.88-4.33.68-3.42c-1.9.54-3.71,1.09-4.88,1.44L133.25,176a5.14,5.14,0,0,0-1.25,4.23c1,6,7.73,7.33,12.64,9,2.69.91,9,3.58,13.53,3.28a5.36,5.36,0,0,0,3.75-1.53C160.24,188.9,161.42,178.48,160.61,177.87Z"/><path class="cls-31" d="M138.71,103.05s14.83,22.13,16.2,19.16,3-2.28,4.1-.91.92,3.65,1.6-3.42-.91-23-3.42-21.45-3.2,6.85-5.93,4.34-6.62-2.06-5.93.68S136.66,98.26,138.71,103.05Z"/><path class="cls-31" d="M151.94,129.74s-15.28-18.71-15.28-16,2.73,6.84-.23,5.25-13.23-5.71-10-1.6,10,8.44,5.25,8.21-18.48,4.56-11,6.85,33.76,5.7,31.71,3.65S156.05,135.21,151.94,129.74Z"/><path class="cls-31" d="M149.66,142.28s-31.94-.68-28.06,1.6,8.44,3,5.25,4.79-8.9,9.13-3.42,9.58,13-4.79,10.95-.91-7.3,9.35.22,6.16,21.9-18.25,18.94-18.71S153.77,142.28,149.66,142.28Z"/><path class="cls-31" d="M156.73,151.87s-17.34,17.56-15,18.24,6.15-3,4.33,2.29-3.65,12.09-.23,10.72,5.71-12.78,6.62-7.07,3.65,10.49,4.56,5.7,5.7-27.6,3.42-26.92S160.61,148.22,156.73,151.87Z"/><path class="cls-31" d="M173.84,144.79s19.85,23.27,22.36,22.59-2.06-7.76,2.05-7.76,4.79-1.37,4.11-3.88.91-3.42,4.56-4.1,3.42-3.88,1.14-4.56,4.33.45,2.51-2.29-3.2-2.73-13.23-3S170,139.78,173.84,144.79Z"/><path class="cls-31" d="M170.65,151.41s11.17,11.18,10.95,13.46,2.28,6.61,4.1,8.9,3.2,6.84.46,6.38-6.39-1.59-7.07,1.14-3.88,5.25-4.79,3-3.42-.46-3.88-4.79-1.6-9.81-1.6-14.6S164.72,143.2,170.65,151.41Z"/><path class="cls-31" d="M168.37,99.4s-3.88,26.69-.46,23.72,5.47-3.19,5.47-1.59.69.22,5.71-4.34,10.72-17.34,8-14.6-7.07,5.48-6.61,2.51-.69-10.95-2.51-6.84-2.28,10.72-4.34,8.44-.23-16.2-3-14.15S168.37,99.4,168.37,99.4Z"/><path class="cls-31" d="M177.72,128.14s17.34-21.9,18.93-19.16-6.84,9.12-1.82,8.21,7.53-1.14,6.39,2-5.48,6.39-.69,8,11.64,5,8.44,6.16-37.64,3.88-33.76,1.59,5.7-4.56,2.74-4.1S177.72,128.14,177.72,128.14Z"/><path class="cls-32" d="M144.32,134.44s-5.84-1.65-4.1-2.46S144.32,134.44,144.32,134.44Z"/><path class="cls-32" d="M147.61,170.94s-2.74,5.41-3.19,3.54S147.61,170.94,147.61,170.94Z"/><path class="cls-32" d="M149.24,180.94s-.44,6.06-1.58,4.51S149.24,180.94,149.24,180.94Z"/><path class="cls-32" d="M138.08,123.64s-5.84-1.65-4.09-2.45S138.08,123.64,138.08,123.64Z"/><path class="cls-32" d="M139.72,150.39s-5.49,2.58-4.7.83S139.72,150.39,139.72,150.39Z"/><path class="cls-32" d="M146,150.89s-3.68,4.83-3.79,2.91S146,150.89,146,150.89Z"/><path class="cls-32" d="M152,143.31s-5.5,2.59-4.7.84S152,143.31,152,143.31Z"/><path class="cls-32" d="M155.52,157.68s-2.11,5.7-2.78,3.89S155.52,157.68,155.52,157.68Z"/><path class="cls-32" d="M132,144.68s-5.49,2.59-4.7.84S132,144.68,132,144.68Z"/><path class="cls-32" d="M134.88,117s-5.09-3.31-3.19-3.56S134.88,117,134.88,117Z"/><path class="cls-33" d="M149.49,131.55s-5.84-1.65-4.1-2.46S149.49,131.55,149.49,131.55Z"/><path class="cls-32" d="M125,130.59s-6,.73-4.73-.68S125,130.59,125,130.59Z"/><path class="cls-33" d="M137.48,129.53s-6,.73-4.73-.69S137.48,129.53,137.48,129.53Z"/><path class="cls-33" d="M156,114.18s-5.68-7.43-2.79-6.81S156,114.18,156,114.18Z"/><path class="cls-33" d="M145.22,111s-4-5.22-1.95-4.78S145.22,111,145.22,111Z"/><path class="cls-33" d="M179.47,101.63s1.22-6.45,2.25-4.65S179.47,101.63,179.47,101.63Z"/><path class="cls-33" d="M196.55,110.69s4.45-4.83,4.37-2.75S196.55,110.69,196.55,110.69Z"/><path class="cls-33" d="M173.13,169.37s2.22,5.65.52,4.75S173.13,169.37,173.13,169.37Z"/><path class="cls-33" d="M178.25,163.77s4.84,3.66,2.92,3.78S178.25,163.77,178.25,163.77Z"/><path class="cls-33" d="M130.58,159.3s-4.57,4-4.29,2.09S130.58,159.3,130.58,159.3Z"/><path class="cls-32" d="M155.14,165.55s-3.88,6.62-1.15,7.07S155.14,165.55,155.14,165.55Z"/><path class="cls-32" d="M158.25,100.39s1.83-5.87-.39-5.73S158.25,100.39,158.25,100.39Z"/><path class="cls-32" d="M160.3,123s1.84-5.88-.39-5.74S160.3,123,160.3,123Z"/><path class="cls-32" d="M177.72,115.55s5-3.61,3.12-4.83S177.72,115.55,177.72,115.55Z"/><path class="cls-32" d="M178.3,132.4s6.15-.16,5.3-2.22S178.3,132.4,178.3,132.4Z"/><path class="cls-32" d="M205.68,131.71s6.15-.16,5.3-2.21S205.68,131.71,205.68,131.71Z"/><path class="cls-32" d="M192.44,130.8s6.15-.16,5.31-2.22S192.44,130.8,192.44,130.8Z"/><path class="cls-32" d="M169.06,125.69s4.18-3,2.62-4S169.06,125.69,169.06,125.69Z"/><path class="cls-32" d="M187.77,123.18s4.17-3,2.61-4S187.77,123.18,187.77,123.18Z"/><path class="cls-32" d="M169.74,114.94s2.62-4.44.78-4.75S169.74,114.94,169.74,114.94Z"/><path class="cls-32" d="M170.43,96.69s2.61-4.44.77-4.75S170.43,96.69,170.43,96.69Z"/><path class="cls-32" d="M191.86,149.58s3.42,7.3,6.85,5.94S193,149.58,191.86,149.58Z"/><path class="cls-32" d="M181.6,172.17s3.42,7.3,6.84,5.93S182.74,172.17,181.6,172.17Z"/><path class="cls-32" d="M170.87,152.43s.68,5.54,3.23,5.37S171.62,152.68,170.87,152.43Z"/><path class="cls-32" d="M172.86,179.07s-.85,2.78.4,3.24S173.16,179.35,172.86,179.07Z"/><path class="cls-32" d="M193.23,159.62s2.14,4.57,4.29,3.72S194,159.62,193.23,159.62Z"/><path class="cls-32" d="M174.81,144.36s4.09,3,5.55,1.18S175.44,144,174.81,144.36Z"/><path class="cls-32" d="M186.72,151.51s.84,2.92,2.19,2.62S187.14,151.58,186.72,151.51Z"/><path class="cls-32" d="M203.55,144.59s4.09,3,5.55,1.18S204.18,144.24,203.55,144.59Z"/></g><path class="cls-34" d="M175,130.09c1.7-1.25,4.58-2.23,6,.85,1.52,3.24-.52,4.31-3.2,5.16-2.43.77-5.51.16-6-.85S172.71,131.76,175,130.09Z"/><path class="cls-35" d="M177.23,131c.79-.59,2.14-1,2.82.4s-.24,2-1.5,2.42-2.59.08-2.83-.4S176.16,131.76,177.23,131Z"/><path class="cls-34" d="M177.1,140.71c2.05.48,4.66,2,3.25,5.13-1.49,3.26-3.63,2.4-6,.9-2.15-1.35-3.69-4.1-3.25-5.13S174.36,140.06,177.1,140.71Z"/><path class="cls-35" d="M177.88,143c1,.23,2.18,1,1.52,2.41s-1.7,1.13-2.82.43-1.73-1.93-1.52-2.41S176.59,142.7,177.88,143Z"/><path class="cls-34" d="M172.18,149.5c1.21,1.72,2.12,4.62-1,6-3.28,1.45-4.31-.61-5.09-3.31-.72-2.44,0-5.52,1-6S170.56,147.2,172.18,149.5Z"/><path class="cls-35" d="M171.24,151.73c.56.81,1,2.17-.46,2.81s-2-.29-2.39-1.55,0-2.59.46-2.82S170.48,150.65,171.24,151.73Z"/><path class="cls-34" d="M166.13,124.38c.51-2,2.09-4.64,5.17-3.2,3.24,1.52,2.36,3.65.84,6-1.37,2.14-4.14,3.64-5.16,3.19S165.46,127.1,166.13,124.38Z"/><path class="cls-35" d="M168.43,123.62c.24-1,1-2.18,2.43-1.5s1.11,1.72.39,2.82-1.94,1.72-2.42,1.51S168.12,124.9,168.43,123.62Z"/><path class="cls-34" d="M156.29,127c-1-1.83-1.7-4.8,1.52-5.88,3.4-1.14,4.23,1,4.77,3.76.49,2.5-.47,5.5-1.52,5.88S157.69,129.42,156.29,127Z"/><path class="cls-35" d="M157.43,124.84c-.49-.85-.8-2.25.72-2.76s2,.47,2.23,1.77-.22,2.58-.71,2.76S158.09,126,157.43,124.84Z"/><path class="cls-34" d="M151.29,136.55c-2.06-.43-4.71-1.93-3.38-5.05,1.41-3.29,3.57-2.49,6-1.05,2.18,1.3,3.79,4,3.37,5.05S154,137.13,151.29,136.55Z"/><path class="cls-35" d="M150.45,134.28c-1-.21-2.21-.91-1.58-2.38s1.67-1.16,2.81-.49,1.78,1.88,1.58,2.37S151.74,134.55,150.45,134.28Z"/><path class="cls-34" d="M154.57,147c-1.65,1.31-4.5,2.38-6-.64-1.63-3.19.37-4.33,3-5.27,2.4-.85,5.51-.34,6,.64S156.77,145.21,154.57,147Z"/><path class="cls-35" d="M152.29,146.14c-.78.61-2.11,1.12-2.84-.3s.18-2,1.42-2.48,2.59-.16,2.84.31S153.32,145.32,152.29,146.14Z"/><path class="cls-34" d="M162.39,153.58c-.27,2.09-1.56,4.84-4.78,3.75-3.39-1.16-2.75-3.37-1.5-5.89,1.13-2.28,3.71-4.08,4.78-3.74S162.76,150.8,162.39,153.58Z"/><path class="cls-35" d="M160.19,154.59c-.13,1-.73,2.27-2.24,1.75s-1.29-1.58-.71-2.76,1.75-1.91,2.25-1.76S160.36,153.28,160.19,154.59Z"/></svg>