<?xml version="1.0" encoding="utf-8"?>
<!-- Generator: Adobe Illustrator 24.3.0, SVG Export Plug-In . SVG Version: 6.00 Build 0)  -->
<svg version="1.1" id="Layer_1" xmlns="http://www.w3.org/2000/svg" xmlns:xlink="http://www.w3.org/1999/xlink" x="0px" y="0px"
	 viewBox="0 0 252 252" style="enable-background:new 0 0 252 252;" xml:space="preserve">
<style type="text/css">
	.st0{fill:#CF9206;}
	.st1{fill:#FF5525;}
	.st2{opacity:0.28;fill:#CF9206;enable-background:new    ;}
	.st3{fill:#7E4100;}
	.st4{fill:#A55D13;}
	.st5{fill:#FF7F43;}
	.st6{fill:#FD3001;}
	.st7{fill:#FB2701;}
	.st8{opacity:0.26;}
	.st9{fill:#CC8F05;}
	.st10{clip-path:url(#SVGID_2_);}
	.st11{fill:#DB9810;}
	.st12{opacity:0.1;fill:#FFFFFF;enable-background:new    ;}
	.st13{fill:#F7B937;}
	.st14{opacity:0.27;}
	.st15{fill:#FAC461;}
</style>
<g>
	<g id="Layer_1_1_">
		<path class="st0" d="M166,112c7.4,11.2,38.7,8.3,31.1,46.8c-12.6,51.3-44.3,74.8-85.4,77.6c-11.9,0.3-38.2-3.9-38.6-23.3
			c0,0-1-10.7,1.3-14.5c15-24.9,2.4-30.9,19.1-68.5C109.5,96.9,144.8,84.5,166,112z"/>
		<path class="st1" d="M165,114.1c7.1,10.8,34.5,4.1,27.2,41.2c-12.2,49.5-42.7,72.2-82.3,74.8c-11.5,0.3-34,0.1-34.4-18.5
			c0,0-0.9-10.4,1.3-14c14.5-24,2.3-29.8,18.4-66.1C110.5,99.5,144.5,87.6,165,114.1z"/>
		
			<ellipse transform="matrix(0.5596 -0.8287 0.8287 0.5596 -22.2257 192.7576)" class="st2" cx="170.3" cy="117.3" rx="0.7" ry="3.2"/>
		<path class="st3" d="M184.4,100.5c-9.6,3.6-16.3,15.5-16.3,15.5l2.1,1.4c5.6-7,14.7-12.6,17.1-14L184.4,100.5z"/>
		<path class="st4" d="M187.3,103.5c-2.4,1.4-11.6,7-17.1,14l1.7,1.1c2.8-6.2,17.3-13.2,17.3-13.2L187.3,103.5z"/>
		<path class="st5" d="M127.5,137.2c0,0,11.7-7,20.7-2.1c8.5,4.6,20.4,8,14.8,21.9s-20.8,35.1-29.7,42.7s-22.4,14-28.8,5.3
			s-5.2-26,0.6-33.1s10.4-20.3,13-24.6C121.2,142.1,127.5,137.2,127.5,137.2z"/>
		<path class="st6" d="M117.5,204.2c5.4-2.5,8.3-4.4,17.7-12.6c8.9-7.8,21.2-29.2,23.5-35c1.9-4.8,1.3-10.3,0.7-13.7
			c-2-2.1-5.1-3.9-9.8-5c-9.6-7.9-21-1-21-1s-6.2,4.9-9.1,9.9c-2.5,4.2-7,17.1-12.6,24.1c-5,6.2-6.8,21.2-2.8,30.4
			C107.7,204.4,113.2,206.1,117.5,204.2z"/>
		<path class="st7" d="M159.4,142.8c0.6,3.4,1.1,8.9-0.7,13.7c-2.3,5.8-14.6,27.2-23.5,35c-9.4,8.2-12.3,10.1-17.7,12.6
			c-4.3,2-9.8,0.2-13.5-2.8c0.5,1.1,1.1,2.2,1.8,3.1c6.2,8.4,19.4,0.9,28-6.6s23.3-28.3,28.8-41.9C162.6,156,165,148.5,159.4,142.8z
			"/>
		<path class="st1" d="M116.5,166.7c0,0,8.1-20.9,16.4-24s12.1-2.8,12.1-2.8S130.1,144.3,116.5,166.7z"/>
		<g class="st8">
			<path class="st1" d="M137.9,157.5l-0.2,1.4c0.1,0.6,0.6,0.7,1.2,0.9l1.6-2.1c0,0-0.6-1.9-0.6-1.9S138.1,156.6,137.9,157.5z"/>
			<path class="st1" d="M121.4,183.5l-0.6,1.4c-0.1,0.8,0.3,1,0.7,1.5l1.9-1.6c0,0,0.1-2.2,0.1-2.3S121.9,182.6,121.4,183.5z"/>
			<path class="st1" d="M141.9,176.7l1.1-0.9c0.4-0.6,0.6-1.3,0.6-2.1l-1.8-0.2l-1.4,2.1C140.5,175.6,141.2,177.1,141.9,176.7z"/>
			<path class="st1" d="M152.4,153.4l0.4-1.5c0-0.7-0.5-0.9-0.9-1.2l-1.8,1.9l0.2,2.1C150.3,154.7,152,154.3,152.4,153.4z"/>
			<path class="st1" d="M116.8,181.7l-1,1.2c-0.2,0.6-0.2,1.4,0,2l2-0.6c0,0,0.9-2.4,0.9-2.4S117.4,181,116.8,181.7z"/>
			<path class="st1" d="M131.5,174.2l1.2-0.4c0.5-0.6,0.9-1.2,1.1-2l-1.4-1c0,0-1.8,1.6-1.8,1.6S130.8,174.4,131.5,174.2z"/>
			<path class="st1" d="M147.9,163l0.4-1.4c0-0.7-0.4-0.9-0.9-1.3l-1.8,1.8c0,0,0.1,2.1,0.1,2.1S147.5,163.9,147.9,163z"/>
			<path class="st1" d="M122.1,189.2l-0.8,1.4c-0.1,0.6,0,1.3,0.3,1.8l2-1.1l0.5-2.4C124.2,188.9,122.7,188.4,122.1,189.2z"/>
			<path class="st1" d="M146.8,153.9l0.6-1.4c0.1-0.8-0.3-1.1-0.6-1.6l-1.9,1.5c0,0-0.2,2.3-0.2,2.3S146.3,154.8,146.8,153.9z"/>
			<path class="st1" d="M129.2,169.3l1.2-0.2c0.6-0.5,1-1.1,1.3-1.8l-1.2-1.3c0,0-1.9,1.4-1.9,1.4S128.5,169.4,129.2,169.3z"/>
			<path class="st1" d="M112.6,166l-1.2,0.4c-0.6,0.5-1,1.2-1.2,1.9l1.3,1.1l1.8-1.6C113.3,167.9,113.3,165.9,112.6,166z"/>
			<path class="st1" d="M133.1,146.5l0.9-1.3c0.2-0.6,0.2-1.3-0.1-1.9l-2,0.8l-0.8,2.4C131.2,146.5,132.5,147.3,133.1,146.5z"/>
			<path class="st1" d="M121.9,172.4l0.6,0.9c0.5,0.2,1-0.2,1.7-0.5l0.4-2.4c0,0-1.6-0.6-1.6-0.5S121.6,171.7,121.9,172.4z"/>
			<path class="st1" d="M130.3,157.8l0.1,1.3c0.3,0.5,0.8,0.4,1.4,0.4l1.2-2.3c0,0-1-1.5-1-1.5S130.3,156.9,130.3,157.8z"/>
			<path class="st1" d="M151.6,159.1l1,0.2c0.6-0.2,1-0.8,1.6-1.5l-0.6-1.9l-1.9,0.8C151.6,156.7,151,158.8,151.6,159.1z"/>
			<path class="st1" d="M106.9,181.1l-1.1,1c-0.4,0.6-0.5,1.4-0.5,2.1h1.9l1.3-2.2C108.5,181.9,107.6,180.5,106.9,181.1z"/>
			<path class="st1" d="M134.6,188.1l0.1,1.3c0.3,0.5,0.8,0.4,1.4,0.5l1.2-2.3l-1-1.5C136.4,186.1,134.7,187.3,134.6,188.1z"/>
			<path class="st1" d="M116.2,190.8l-1.2,0.4c-0.5,0.5-0.9,1.2-1.2,1.9l1.3,1.1l1.8-1.6C117,192.6,117,190.6,116.2,190.8z"/>
			<path class="st1" d="M138.2,148.7l0.6-1.4c0.1-0.8-0.3-1-0.7-1.5l-1.9,1.6c0,0-0.1,2.2-0.1,2.2S137.8,149.6,138.2,148.7z"/>
			<path class="st1" d="M125.2,191.1l-0.2,1.4c0.1,0.6,0.7,0.7,1.2,0.9l1.6-2.1c0,0-0.6-1.9-0.6-1.9S125.4,190.2,125.2,191.1z"/>
			<path class="st1" d="M118.1,160.2l-0.6-0.9c-0.5-0.2-1,0.2-1.7,0.5l-0.4,2.4c0,0,1.6,0.6,1.6,0.5S118.4,160.9,118.1,160.2z"/>
			<path class="st1" d="M140.5,168.6h1.1c0.6-0.3,1-1,1.4-1.7l-0.9-1.6c0,0-1.9,1.1-1.9,1.1S139.9,168.4,140.5,168.6z"/>
			<path class="st1" d="M113.6,187.8l-1.2,0.3c-0.6,0.5-1,1.1-1.3,1.9l1.2,1.3l1.9-1.4C114.2,189.8,114.3,187.7,113.6,187.8z"/>
			<path class="st1" d="M142.8,145.9l0.6-1.4c0.1-0.8-0.3-1.1-0.6-1.5l-1.9,1.5c0,0-0.2,2.3-0.2,2.3S142.3,146.7,142.8,145.9z"/>
			<path class="st1" d="M128.7,158.9l-0.4-1.1c-0.4-0.4-1,0-1.6,0.2l-0.7,2.4l1.4,0.9C127.4,161.3,128.9,159.6,128.7,158.9z"/>
			<path class="st1" d="M136.7,184.5l0.7,0.8c0.5,0.2,1.1-0.3,1.7-0.7l0.2-2.4c0,0-1.7-0.3-1.7-0.3S136.4,184,136.7,184.5z"/>
			<path class="st1" d="M125.9,162.9l-0.8-0.6c-0.6-0.1-1.1,0.5-1.7,1l0.1,2.2l1.8-0.1C125.3,165.5,126.3,163.4,125.9,162.9z"/>
			<path class="st1" d="M134.4,175.5l0.9,0.5c0.6,0,1.1-0.6,1.7-1.1l-0.2-2.2L135,173C135,173,134,175.1,134.4,175.5z"/>
			<path class="st1" d="M128.1,165.2l-0.9-0.4c-0.6,0.1-1.1,0.6-1.7,1.2l0.3,2.1l1.9-0.3C127.7,167.7,128.6,165.6,128.1,165.2z"/>
			<path class="st1" d="M142.9,168.4l-1.1,0.9c-0.4,0.6-0.6,1.3-0.6,2.1l1.8,0.2c0,0,1.5-2.1,1.5-2.1S143.6,167.9,142.9,168.4z"/>
			<path class="st1" d="M151.3,143.2l-1,1.2c-0.3,0.6-0.3,1.3-0.2,2l2-0.5l1-2.3C153.1,143.6,152,142.6,151.3,143.2z"/>
			<path class="st1" d="M151.6,149.4l0.5,1c0.4,0.3,1,0,1.6-0.2l0.7-2.4c0,0-1.4-0.8-1.4-0.8S151.4,148.7,151.6,149.4z"/>
			<path class="st1" d="M145.4,136.3l-1.2,0.4c-0.5,0.5-0.9,1.2-1.2,1.9l1.4,1.1l1.8-1.6C146.2,138.1,146.1,136.2,145.4,136.3z"/>
			<path class="st1" d="M129.6,191.5l-0.6,1.4c-0.1,0.8,0.3,1.1,0.6,1.5l1.9-1.5c0,0,0.2-2.3,0.2-2.3S130.1,190.6,129.6,191.5z"/>
			<path class="st1" d="M137.4,164.5l0.1-1.4c-0.2-0.6-0.7-0.6-1.3-0.7l-1.4,2.2c0,0,0.8,1.7,0.8,1.7S137.3,165.4,137.4,164.5z"/>
			<path class="st1" d="M127.8,195.7l-0.5-1.1c-0.4-0.3-1,0-1.6,0.2l-0.7,2.4l1.5,0.8C126.4,198.1,128,196.4,127.8,195.7z"/>
			<path class="st1" d="M122.2,197l-1,1.2c-0.3,0.6-0.3,1.3-0.1,2l2-0.5l1-2.3C124.1,197.3,122.8,196.4,122.2,197z"/>
			<path class="st1" d="M125.8,179.6l-0.4-1.1c-0.4-0.4-1-0.1-1.6,0l-0.8,2.4c0,0,1.3,1,1.3,1S125.9,180.4,125.8,179.6z"/>
			<path class="st1" d="M119,195.9v1.4c0.2,0.6,0.8,0.5,1.3,0.6l1.3-2.3c0,0-0.9-1.6-0.9-1.6S119.1,195.1,119,195.9z"/>
			<path class="st1" d="M128.5,178.8l0.1-1.4c-0.2-0.6-0.7-0.6-1.3-0.7l-1.4,2.2c0,0,0.8,1.7,0.8,1.7S128.4,179.6,128.5,178.8z"/>
			<path class="st1" d="M118.3,186.6l-0.6,1.4c-0.1,0.8,0.3,1,0.7,1.5l1.9-1.5c0,0,0.1-2.3,0.1-2.3S118.8,185.8,118.3,186.6z"/>
			<path class="st1" d="M126.1,153.9l0.5-1.4c0.1-0.8-0.3-1-0.7-1.5l-1.9,1.6c0,0-0.1,2.2,0,2.2S125.7,154.8,126.1,153.9z"/>
			<path class="st1" d="M107.3,193.9l-0.2,1.4c0.1,0.7,0.6,0.7,1.1,1l1.6-2c0,0-0.5-1.9-0.5-1.9S107.6,193,107.3,193.9z"/>
			<path class="st1" d="M108,188.1l-1.2,0.6c-0.5,0.6-0.8,1.3-1,2l1.6,0.7c0,0,1.7-1.8,1.7-1.8S108.7,187.9,108,188.1z"/>
			<path class="st1" d="M142.8,148.6h1.1c0.6-0.3,1-1,1.4-1.7l-0.9-1.6l-1.9,1.1C142.5,146.4,142.2,148.6,142.8,148.6z"/>
			<path class="st1" d="M116.9,198.5l-0.6,1.4c-0.1,0.8,0.3,1,0.7,1.5l1.9-1.5c0,0,0.1-2.3,0.1-2.3S117.3,197.6,116.9,198.5z"/>
			<path class="st1" d="M141.2,163.2l1,0.4c0.6-0.1,1.1-0.7,1.6-1.3l-0.4-2l-1.9,0.5C141.6,160.8,140.7,162.9,141.2,163.2z"/>
			<path class="st1" d="M110.9,196.4l-1,1.2c-0.2,0.6-0.3,1.3-0.1,2l2-0.6c0,0,0.9-2.4,0.9-2.4S111.6,195.7,110.9,196.4z"/>
			<path class="st1" d="M131.6,152.5l1.2-0.3c0.6-0.5,1-1.1,1.3-1.9l-1.2-1.3l-1.8,1.4C131,150.5,130.9,152.6,131.6,152.5z"/>
			<path class="st1" d="M125.6,172.2l-0.2,1.4c0.1,0.7,0.6,0.8,1.1,1l1.6-2c0,0-0.4-2-0.4-2S125.8,171.3,125.6,172.2z"/>
			<path class="st1" d="M107,179.1l0.9,0.4c0.6-0.1,1.1-0.6,1.7-1.2l-0.3-2.1l-1.9,0.4C107.4,176.6,106.5,178.7,107,179.1z"/>
			<path class="st1" d="M111.8,172.1l0.5,1c0.5,0.3,1-0.1,1.7-0.3l0.6-2.4c0,0-1.5-0.7-1.5-0.7S111.6,171.4,111.8,172.1z"/>
			<path class="st1" d="M110.6,171.4l-1.1,1c-0.4,0.6-0.5,1.4-0.5,2.1l1.8,0.1l1.4-2.2C112.2,172.4,111.3,170.9,110.6,171.4z"/>
			<path class="st1" d="M117.6,166.6l0.7-1.4c0.1-0.8-0.2-1.1-0.5-1.6l-1.9,1.4c0,0-0.3,2.3-0.3,2.3S117.1,167.4,117.6,166.6z"/>
			<path class="st1" d="M112,177.7v1.4c0.2,0.6,0.7,0.6,1.3,0.7l1.4-2.2c0,0-0.8-1.7-0.8-1.7S112.1,176.9,112,177.7z"/>
			<path class="st1" d="M122.4,154.7l0.2-1.4c-0.1-0.6-0.7-0.7-1.2-0.9l-1.5,2.1c0,0,0.6,1.9,0.6,1.9S122.2,155.6,122.4,154.7z"/>
			<path class="st1" d="M146,159.3l1.1-1c0.4-0.6,0.5-1.4,0.5-2.1l-1.8-0.1l-1.4,2.2C144.4,158.3,145.3,159.8,146,159.3z"/>
			<path class="st1" d="M131.9,188.1l-0.5,1.5c0,0.7,0.4,0.9,0.9,1.3l1.8-1.8c0,0-0.1-2.2-0.1-2.2S132.3,187.2,131.9,188.1z"/>
			<path class="st1" d="M143,182.4l0.9-1.2c0.2-0.6,0.3-1.3,0.1-2l-2,0.6c0,0-0.9,2.4-0.9,2.4S142.4,183,143,182.4z"/>
			<path class="st1" d="M138.6,177.6l-1.2,0.2c-0.6,0.5-1,1.1-1.3,1.8l1.1,1.4c0,0,1.9-1.3,1.9-1.4S139.3,177.6,138.6,177.6z"/>
			<path class="st1" d="M126.8,184.8l-1,1.1c-0.3,0.6-0.4,1.3-0.3,2l1.9-0.3c0,0,1.1-2.3,1.1-2.3S127.5,184.2,126.8,184.8z"/>
			<path class="st1" d="M147.5,174.4l1-1.2c0.3-0.6,0.3-1.3,0.1-2l-2,0.5l-1,2.3C145.7,174,146.9,175,147.5,174.4z"/>
			<path class="st1" d="M127.3,152.9v1.4c0.2,0.6,0.8,0.5,1.3,0.6l1.4-2.3c0,0-0.8-1.6-0.8-1.6S127.4,152,127.3,152.9z"/>
			<path class="st1" d="M126.9,147.6v1.4c0.2,0.6,0.8,0.5,1.3,0.6l1.4-2.3c0,0-0.8-1.6-0.8-1.6S127,146.7,126.9,147.6z"/>
			<path class="st1" d="M148.1,141.6l1.1-1.1c0.3-0.6,0.4-1.4,0.3-2.1l-1.9,0.2l-1.2,2.3C146.4,140.9,147.4,142.1,148.1,141.6z"/>
			<path class="st1" d="M110.3,182.8l-0.2,1.4c0.1,0.7,0.6,0.7,1.1,0.9l1.6-2.1c0,0-0.5-1.9-0.5-1.9S110.5,181.9,110.3,182.8z"/>
			<path class="st1" d="M129,188.6l1.1-0.1c0.6-0.3,0.9-1,1.4-1.8l-1-1.5l-1.9,1.2C128.6,186.5,128.3,188.6,129,188.6z"/>
			<path class="st1" d="M149.8,143.8l0.3-1.4c0-0.7-0.5-0.8-1-1.1l-1.7,1.9c0,0,0.3,2.1,0.3,2.1S149.5,144.7,149.8,143.8z"/>
			<path class="st1" d="M121.2,157.4l-1.1,0.9c-0.4,0.6-0.6,1.4-0.6,2.1l1.8,0.2c0,0,1.4-2.1,1.4-2.1S122,156.9,121.2,157.4z"/>
			<path class="st1" d="M113.4,197.7l0.2,1.3c0.3,0.5,0.9,0.3,1.5,0.3l1.1-2.4c0,0-1.1-1.4-1.1-1.4S113.4,196.9,113.4,197.7z"/>
			<path class="st1" d="M150.7,166.4l0.9-1.3c0.2-0.6,0.2-1.3,0-1.9l-2,0.7c0,0-0.9,2.4-0.9,2.4S150.1,167.1,150.7,166.4z"/>
			<path class="st1" d="M137.8,140.6l-0.8-0.7c-0.6-0.1-1.1,0.4-1.7,0.9v2.3c0,0,1.8,0.1,1.8,0.1S138.2,141.1,137.8,140.6z"/>
			<path class="st1" d="M119,170.4l-0.4,1.4c0,0.7,0.4,0.9,0.9,1.3l1.8-1.8c0,0-0.2-2.1-0.2-2.1S119.3,169.5,119,170.4z"/>
			<path class="st1" d="M132.1,180.1l1.1,0.1c0.6-0.2,1-0.9,1.5-1.6l-0.8-1.7l-1.9,0.9C132,177.8,131.5,180,132.1,180.1z"/>
			<path class="st1" d="M140.7,149.8l-0.1-1.3c-0.3-0.5-0.8-0.4-1.4-0.5l-1.2,2.3c0,0,0.9,1.5,0.9,1.5S140.6,150.6,140.7,149.8z"/>
			<path class="st1" d="M117.6,176l-0.7,1.4c-0.2,0.8,0.2,1.1,0.5,1.7l2-1.3c0,0,0.4-2.3,0.3-2.3S118.1,175.2,117.6,176z"/>
			<path class="st1" d="M132.5,185h1.1c0.6-0.3,1-1,1.4-1.7l-0.9-1.6l-1.9,1.1C132.2,182.8,131.9,185,132.5,185z"/>
			<path class="st1" d="M137.7,154.6l-0.1-1.3c-0.3-0.5-0.8-0.4-1.4-0.4l-1.2,2.3l1,1.4C136,156.7,137.7,155.4,137.7,154.6z"/>
		</g>
	</g>
	<g id="Layer_49">
		<path class="st9" d="M166,112c7.4,11.2,38.7,8.3,31.1,46.8c-12.6,51.3-44.3,74.8-85.4,77.6c-11.9,0.3-38.2-3.9-38.6-23.3
			c0,0-1-10.7,1.3-14.5c15-24.9,2.4-30.9,19.1-68.5C109.5,96.9,144.8,84.5,166,112z"/>
		<g>
			<defs>
				<path id="SVGID_1_" d="M166,112c7.4,11.2,38.7,8.3,31.1,46.8c-12.6,51.3-44.3,74.8-85.4,77.6c-11.9,0.3-38.2-3.9-38.6-23.3
					c0,0-1-10.7,1.3-14.5c15-24.9,2.4-30.9,19.1-68.5C109.5,96.9,144.8,84.5,166,112z"/>
			</defs>
			<clipPath id="SVGID_2_">
				<use xlink:href="#SVGID_1_"  style="overflow:visible;"/>
			</clipPath>
			<g class="st10">
				<path class="st11" d="M163,96.1c7.4,11.2,39,8.3,31.3,47.1c-12.7,51.6-44.6,75.3-85.9,78c-12,0.3-38.4-3.9-38.9-23.4
					c0,0-1-10.8,1.3-14.6c15.1-25.1,2.4-31,19.2-69C106.1,80.9,141.6,68.4,163,96.1z"/>
				
					<ellipse transform="matrix(0.4504 -0.8928 0.8928 0.4504 -46.8465 202.7491)" class="st12" cx="141.3" cy="139.4" rx="56.7" ry="52.8"/>
			</g>
		</g>
		<path class="st13" d="M115.8,116.7c0,0,15.4-12.1,24.3,0.1c6.9,9.4-4.8,13.8-10.6,16.9s-10.7,8.9-16.3,9.6S92.6,137.5,115.8,116.7
			z"/>
		<g class="st14">
			<path class="st15" d="M86.1,186.3L86.1,186.3l0.5-0.3c-0.1,0-0.2,0-0.2,0.1L86.1,186.3c0,0-0.1,0.2-0.2,0.3v0.2
				c0,0.2,0.1,0.3,0.1,0.4l0.1,0.2c0.1,0.1,0.2,0.2,0.4,0.2c0.1,0,0.2,0,0.3,0c0.1,0,0.2,0,0.3-0.1c0.1-0.1,0.2-0.1,0.2-0.2
				c0.1-0.1,0.1-0.2,0.2-0.3c0-0.1,0-0.2,0-0.4c0-0.1,0-0.2-0.1-0.3c-0.1-0.1-0.1-0.2-0.2-0.3c-0.1-0.1-0.2-0.2-0.4-0.2
				c-0.1,0-0.2,0-0.2,0l0.6,0.2l0,0c-0.1-0.1-0.2-0.2-0.3-0.2c-0.1,0-0.2,0-0.3,0c-0.1,0-0.2,0-0.3,0.1
				C86.3,186.2,86.2,186.3,86.1,186.3L86.1,186.3z"/>
			<path class="st15" d="M96.1,192.9c0.5-0.2,0.8-0.8,0.6-1.3c-0.1-0.3-0.3-0.5-0.6-0.6c-0.5,0.1-0.9,0.5-0.8,1
				C95.3,192.5,95.6,192.8,96.1,192.9z"/>
			<path class="st15" d="M99.4,179.4c0.5-0.1,0.9-0.7,0.7-1.2c-0.1-0.4-0.4-0.6-0.7-0.7c-0.5,0.1-0.9,0.7-0.7,1.2
				C98.8,179,99,179.3,99.4,179.4z"/>
			<path class="st15" d="M107.7,209.7L107.7,209.7L107.7,209.7l0.2,0.1h0.2c0,0,0.1,0,0.1,0c0.1,0,0.1,0,0.2,0h0.1
				c0.1,0,0.1-0.1,0.1-0.1l0,0l0,0v-0.1l0.1-0.2c0.1-0.1,0.1-0.2,0.1-0.3c0-0.1,0-0.1,0-0.2c0-0.1,0-0.2-0.1-0.2
				c0-0.1-0.1-0.2-0.2-0.3l-0.2-0.1l-0.2-0.1c-0.1,0-0.2,0-0.3,0c-0.1,0-0.2,0-0.2,0.1c-0.1,0-0.1,0.1-0.2,0.1
				c-0.1,0.1-0.2,0.1-0.2,0.2l-0.1,0.2v0.2v0.2c0,0.1,0.1,0.2,0.2,0.3c0.1,0.1,0.1,0.2,0.2,0.2L107.7,209.7z"/>
			<path class="st15" d="M110.4,212.4"/>
			<path class="st15" d="M112,212.8c0.4,0,0.7-0.4,0.6-0.8c0-0.3-0.3-0.6-0.6-0.6c-0.4,0-0.7,0.4-0.6,0.8
				C111.4,212.5,111.7,212.8,112,212.8z"/>
			<path class="st15" d="M113.1,208c0.3,0,0.5-0.2,0.5-0.5s-0.2-0.5-0.5-0.5s-0.5,0.2-0.5,0.5S112.9,208,113.1,208z"/>
			<path class="st15" d="M117.3,213.8c0.5,0,0.9-0.4,0.9-0.9c0-0.5-0.4-0.9-0.9-0.9s-0.9,0.4-0.9,0.9
				C116.4,213.4,116.8,213.8,117.3,213.8z"/>
			<path class="st15" d="M127.2,161.8h-0.2c-0.3,0-0.6,0.3-0.6,0.6s0.3,0.6,0.6,0.6c0,0,0.1,0,0.1,0h0.2c0.3-0.1,0.5-0.4,0.4-0.7
				C127.8,162,127.5,161.8,127.2,161.8L127.2,161.8z"/>
			<path class="st15" d="M132.3,166.7l-0.2,0.1l-0.2,0.1c-0.2,0.1-0.3,0.3-0.4,0.5c0,0.1,0,0.2,0,0.3c0,0.1,0,0.2,0.1,0.3l0.1,0.2
				c0.1,0.1,0.2,0.2,0.4,0.2h0.2c0.1,0,0.3,0,0.4-0.1l0.2-0.1l0.1-0.1c0.1,0,0.2-0.1,0.2-0.2c0.1-0.1,0.1-0.2,0.1-0.3
				c0-0.1,0-0.2,0-0.3c0-0.1,0-0.2-0.1-0.3l-0.1-0.1c-0.1-0.1-0.2-0.2-0.3-0.2h-0.2C132.5,166.6,132.3,166.7,132.3,166.7
				L132.3,166.7z"/>
			<path class="st15" d="M132.8,163.8c0.3,0,0.6-0.3,0.6-0.6c0-0.3-0.3-0.6-0.6-0.6s-0.6,0.3-0.6,0.6
				C132.2,163.5,132.5,163.8,132.8,163.8z"/>
			<path class="st15" d="M140.1,136.2"/>
			<path class="st15" d="M130.3,141c0.3,0,0.6-0.3,0.6-0.6c0-0.3-0.3-0.6-0.6-0.6s-0.6,0.3-0.6,0.6C129.7,140.7,130,141,130.3,141
				L130.3,141z"/>
			<path class="st15" d="M134.7,148.5c0.5,0,0.9-0.4,0.9-0.9c0-0.5-0.4-0.9-0.9-0.9l0,0c-0.5,0-0.9,0.4-0.9,0.9
				C133.8,148.1,134.2,148.5,134.7,148.5z"/>
			<path class="st15" d="M135.1,144.2c0.4,0,0.7-0.4,0.7-0.9c0-0.4-0.3-0.6-0.7-0.7c-0.4,0-0.7,0.4-0.7,0.9
				C134.5,143.8,134.8,144.1,135.1,144.2z"/>
			<path class="st15" d="M171.2,176.1c0.6,0,1-0.4,1-1s-0.4-1-1-1s-1,0.4-1,1S170.6,176.1,171.2,176.1z"/>
			<path class="st15" d="M176.4,167.1c0.5,0,0.9-0.4,0.9-0.9c0-0.5-0.4-0.9-0.9-0.9c-0.5,0-0.9,0.4-0.9,0.9
				C175.6,166.8,176,167.1,176.4,167.1z"/>
			<path class="st15" d="M159.3,174.4l0.1-0.3v-0.2v-0.1c0,0,0-0.1-0.1-0.1c0,0-0.1,0-0.1,0c0,0-0.1,0-0.1,0c0,0-0.1,0-0.1,0
				c0,0-0.1,0-0.1,0l-0.3,0.1c-0.1,0-0.1,0.1-0.2,0.2c0,0.1-0.1,0.2-0.1,0.3c0,0.1,0,0.2,0.1,0.3c0,0.1,0.1,0.1,0.1,0.1
				c0.1,0,0.1,0.1,0.2,0.1c0.1,0,0.2,0,0.3,0c0.1,0,0.2-0.1,0.2-0.1C159.3,174.6,159.3,174.5,159.3,174.4L159.3,174.4z"/>
			<path class="st15" d="M173.8,185.1c0.4,0,0.6-0.4,0.6-0.8c0-0.3-0.3-0.6-0.6-0.6c-0.4,0-0.6,0.4-0.6,0.8
				C173.2,184.8,173.5,185,173.8,185.1z"/>
			<path class="st15" d="M184.6,181.7v-0.3c0-0.1,0-0.2-0.1-0.2c0-0.1-0.1-0.1-0.1-0.1c0,0-0.1-0.1-0.2-0.1c-0.1,0-0.2,0-0.2,0
				l-0.3,0.1l-0.2,0.1l-0.1,0.1l-0.1,0.1l-0.1,0.2v0.2v0.2l0.1,0.2c0,0.1,0.1,0.2,0.2,0.2c0,0,0.1,0.1,0.2,0.1c0.1,0,0.1,0,0.2,0
				c0.1,0,0.1,0,0.2,0c0.1,0,0.1,0,0.2,0c0.1,0,0.1,0,0.2-0.1c0.1,0,0.1-0.1,0.1-0.1c0,0,0.1-0.1,0.1-0.2
				C184.6,181.9,184.6,181.8,184.6,181.7L184.6,181.7z"/>
			<path class="st15" d="M164.6,183.1c0.3,0,0.5-0.3,0.5-0.6c0-0.2-0.2-0.4-0.5-0.5c-0.3,0-0.5,0.3-0.5,0.6
				C164.2,182.8,164.4,183,164.6,183.1z"/>
			<path class="st15" d="M128,186.1c0.3,0,0.5-0.2,0.5-0.5s-0.2-0.5-0.5-0.5c-0.3,0-0.5,0.2-0.5,0.5S127.7,186.1,128,186.1z"/>
			<path class="st15" d="M144.3,197.9c0.3-0.1,0.5-0.3,0.4-0.6c0-0.2-0.2-0.4-0.4-0.4c-0.3,0.1-0.5,0.3-0.4,0.6
				C144,197.7,144.1,197.9,144.3,197.9z"/>
			<path class="st15" d="M155.1,211.6c0.3,0,0.6-0.3,0.5-0.7c0-0.3-0.3-0.5-0.5-0.5c-0.3,0-0.6,0.3-0.5,0.7
				C154.6,211.4,154.8,211.6,155.1,211.6z"/>
			<path class="st15" d="M158.6,199.5c0.4,0,0.7-0.4,0.7-0.9c0-0.4-0.3-0.6-0.7-0.7c-0.4,0-0.7,0.4-0.7,0.9
				C157.9,199.2,158.2,199.5,158.6,199.5z"/>
			<path class="st15" d="M96,147.1h-0.1c-1-0.2-0.8,1.5,0.1,1l0.1-0.1c0.2-0.1,0.3-0.4,0.2-0.7C96.2,147.3,96.1,147.2,96,147.1
				L96,147.1z"/>
			<path class="st15" d="M106.3,152c0.4,0,0.7-0.3,0.7-0.7s-0.3-0.7-0.7-0.7s-0.7,0.3-0.7,0.7S105.9,152,106.3,152z"/>
			<path class="st15" d="M107.7,143.7c0.3,0,0.6-0.3,0.5-0.7c0-0.3-0.2-0.5-0.5-0.5c-0.3,0-0.6,0.3-0.5,0.7
				C107.2,143.4,107.4,143.6,107.7,143.7z"/>
			<path class="st15" d="M124.1,119.9L124.1,119.9L124.1,119.9L124.1,119.9c0-0.1,0-0.2,0-0.3c0,0,0-0.1,0-0.1l0,0l0,0l0,0
				c0-0.1-0.1-0.1-0.1-0.1c-0.2-0.2-0.4-0.2-0.6-0.2c-0.2,0.1-0.4,0.2-0.5,0.4c-0.1,0.2,0,0.5,0.2,0.6c0.2,0.2,0.4,0.2,0.6,0.2
				c0.1,0,0.2-0.1,0.3-0.2c0.1-0.1,0.1-0.2,0.2-0.3L124.1,119.9z"/>
			<path class="st15" d="M133.8,127c0.5,0,0.9-0.4,0.9-0.9c0-0.5-0.4-0.9-0.9-0.9c-0.5,0-0.9,0.4-0.9,0.9
				C132.9,126.6,133.3,127,133.8,127z"/>
			<path class="st15" d="M190.3,145.9"/>
			<path class="st15" d="M189.8,158.8c0.7-0.1,1.2-0.7,1.1-1.4c-0.1-0.6-0.5-1.1-1.1-1.1c-0.7,0.1-1.2,0.7-1.1,1.4
				C188.7,158.3,189.2,158.8,189.8,158.8z"/>
			<path class="st15" d="M193,163.2c0.6,0,1-0.4,1-1s-0.4-1-1-1s-1,0.4-1,1S192.4,163.2,193,163.2z"/>
			<path class="st15" d="M194.4,158.2C194.4,158.2,194.4,158.3,194.4,158.2L194.4,158.2z"/>
		</g>
	</g>
</g>
</svg>
