<svg id="acc20aac-033e-4b9a-9f73-0c23c1ad5c11" data-name="Layer 1" xmlns="http://www.w3.org/2000/svg" viewBox="0 0 252 252"><path d="M155.84,55.24a47.79,47.79,0,0,1,13.76,2,41.88,41.88,0,0,1,9.73,4.42,31.22,31.22,0,0,1,3.5,1.36l.64.45c6.33,2.57,6.78,4.22,8.47,5.4h-.11c7,4.77,13.43,10.74,19.07,16C221.85,95,225.12,111.62,223.66,126,221,152.31,204,177.33,179.52,187.17a26,26,0,0,1-6,2c-3.21.65-15.73,3.27-15.73,3.27-8.81,2.18-16,4.1-22.38,4.1a23.69,23.69,0,0,1-12.17-3.1,114.59,114.59,0,0,1-13.08.71c-20.82,0-44.05-5-56.15-14C28.11,160.86,18.33,115.4,39.73,89.6a42.48,42.48,0,0,1,7.87-7.22c.83-.93,1.71-1.82,2.63-2.69l.66-.41c4.85-4.82,6.53-4.59,8.29-5.68l-.09.08c7.13-4.59,15.13-8.17,22.13-11.31a38,38,0,0,1,15.55-3.14,57.21,57.21,0,0,1,25.42,6.5c10.26-6.53,22-10.49,33.65-10.49m0-8a69.73,69.73,0,0,0-34.1,9.44,63.1,63.1,0,0,0-25-5.45A46,46,0,0,0,78,55.06l-.15.07c-7.06,3.17-15,6.74-22.47,11.44l-.31.19-.43.18a26.77,26.77,0,0,0-8.69,6,8.12,8.12,0,0,0-1.19.93c-.9.85-1.72,1.68-2.49,2.5a51,51,0,0,0-8.62,8.05l0,.06C22.9,97.36,18.28,115,20.58,134.18c2.56,21.35,13.27,40.92,28.65,52.36s42.48,15.58,60.92,15.58c4,0,7.85-.17,11.54-.51a32,32,0,0,0,13.71,2.9c6.9,0,14-1.78,22.31-3.84l1.86-.46c1.41-.3,12.57-2.63,15.53-3.23a33.51,33.51,0,0,0,7.61-2.47,77,77,0,0,0,33.59-27.12,85.19,85.19,0,0,0,15.32-40.59c1.95-19.25-3.76-37.13-15.28-47.82a179.55,179.55,0,0,0-19.06-16.1c-.22-.19-.45-.38-.69-.55s-.21-.2-.33-.31a26.37,26.37,0,0,0-8.91-5.63,7.6,7.6,0,0,0-1.28-.71c-1-.44-2.14-.93-3.38-1.37A50.68,50.68,0,0,0,172,49.56l-.07,0a56.11,56.11,0,0,0-16-2.3Z" style="fill:#fff"/></svg>