<svg id="Layer_31" data-name="Layer 31" xmlns="http://www.w3.org/2000/svg" xmlns:xlink="http://www.w3.org/1999/xlink" viewBox="0 0 252 252"><defs><style>.cls-1,.cls-6{fill:none;}.cls-2{fill:#96c054;}.cls-3{fill:#7a9e3c;}.cls-4{clip-path:url(#clip-path);}.cls-5{fill:#2f4c2d;}.cls-6{stroke:#2f4c2d;stroke-miterlimit:10;}.cls-7{fill:#213a1f;}</style><clipPath id="clip-path"><path class="cls-1" d="M193.92,75.69C177.79,53.7,153,40.15,122.58,44.5,69.77,37.66,31.52,88,31.52,141.68c0,28.95,10.09,56.71,28.23,75.19,15.49,15.78,36.85,24.81,62.83,22,59.2,7.94,92-43.51,92-97.19C214.59,117.48,207.16,93.74,193.92,75.69Z"/></clipPath></defs><path class="cls-2" d="M193.92,75.69C177.79,53.7,153,40.15,122.58,44.5,69.77,37.66,31.52,88,31.52,141.68c0,28.95,10.09,56.71,28.23,75.19C190,233.1,195.41,113.49,193.92,75.69Z"/><path class="cls-3" d="M193.92,75.69c1.49,37.8-3.93,157.41-134.17,141.18,15.49,15.78,36.85,24.81,62.83,22,59.2,7.94,92-43.51,92-97.19C214.59,117.48,207.16,93.74,193.92,75.69Z"/><g class="cls-4"><path class="cls-5" d="M118.14,213.3a9.87,9.87,0,0,1,.45-3.55c.36-1.21,1.32-2.49,1-4.09-.49-2.73-3.12-1.78-3.74-5s.83-6,.93-9c.12-3.79-2.53-4.11-1.45-8.28,1.89-.89,3.9-5.23,3-8.59s-3.34-3.84-4-7.48a35.34,35.34,0,0,1-.33-6.5c0-4.63.37-9.07.3-13.81a13.87,13.87,0,0,0-.75-5.43c-1-2.34-2.88-3.32-3.6-5.86-1.71-6.07,2.74-8.8,4.8-11.45.84-1.08,2.29-2.24,2-4.22-.31-2.18-3-4.06-3.62-6.2-1.58-5.17,2-6,2.41-10.1.25-2.19-1.32-3.59-1.91-5.3a42.32,42.32,0,0,1-1.25-5.82,9,9,0,0,1-.16-3.14c.2-.79,1-.5,1.26-1.58.48-2.12-1-3.91-1.32-5.6-.72-4.35,4.89-4.47,5.85-6.06,1.33-2.21-2.69-3.56-3.54-6.19-1-2.94-1.25-6.94-1.52-10.17-.17-2-.79-4.5.06-6.3s2.75-2.28,3.52-4.29c-2.77-4.88.4-7.66,2-11.73A65.34,65.34,0,0,0,108,38.81c.16,1,.82,1.28,1.16,2.1a9.34,9.34,0,0,1,.26,5.18c-.9,4.2-5.1,4.36-6.26,6.32-1.29,2.17,2.18,2.94,2.78,5.51.77,3.36,1.34,7.15,2.23,10.78a18.09,18.09,0,0,1-.35,10c-.65,2.2-2.19,5.14-1.87,7.78.42,3.48,2.34,3.87,1.42,8.46-.76,3.74-2.69,6.36-3.17,10.5-.44,3.79,1.74,6,1.45,9.51s-3.63,5-4.77,7.67c-1.75,4,1.93,6,2.87,9.33,1.39,5,.52,7.22-.5,11.8,1.56,1.86,3.24,1.86,4.14,5.39a9.92,9.92,0,0,1-1.17,8.07c-1.94,3.26-.78,4,.6,7.1a25.81,25.81,0,0,1,1.62,9.27c-1.87.44-4.57,7-3.3,10.59.59,1.67,1.79,1.67,2.28,3.72a24.27,24.27,0,0,1,0,8c-.24,1.57-1.21,4.77-1,6.41s.63.91,1.26,2.14a7,7,0,0,1,.61,3.27c.22,3.32-.76,6.06-1.43,8.72a111.55,111.55,0,0,0,11.24-2.56C118.15,213.64,118.14,213.47,118.14,213.3Z"/><path class="cls-5" d="M63.45,217c.08-.28.48-.21.81-.25s.07-.68-.38-1.52a15.17,15.17,0,0,1-1.51-4.67,7.57,7.57,0,0,0-.95-3,23.08,23.08,0,0,0-1.59-2.09,10.47,10.47,0,0,1-2.3-4.05,7.05,7.05,0,0,1-.1-.73,35.33,35.33,0,0,1-3.11-6.17,10,10,0,0,1-.39-3.44,10.45,10.45,0,0,0-1-3.62c-.48-1.25-.94-1.4-1-3a10.71,10.71,0,0,1,.42-2.39c.42-3.12-2-5.11-3.42-8a26.52,26.52,0,0,1-2.8-10.6c-.18-3.27.51-6.54.44-9.82-.54-.84-1-1.87-1.54-2.77-1-1.79-1.41-2.17-.85-4.46.65-2.63,2.93-5.06,2.43-8-.21-1.25-.93-2.35-1.23-3.5a25.88,25.88,0,0,1-.74-5.17c-.15-2.81.15-6,0-8.68-.08-1.14-.26-2.11-.31-3.19-.09-1.89.27-2.08,1.09-3.94,1.31-3,.78-4.47.73-6.82A20.32,20.32,0,0,1,47,99.62a68.63,68.63,0,0,1,3.09-8.23c.57-1.2,1.27-2.64,1.91-3.74.84-1.44,1.52-2.14,1.77-3.26s-.23-4.15,1.77-5.62C57,76.15,54.82,77.16,56.8,74c1.45-2.31,2.73-3.26,3.55-5.19a7.76,7.76,0,0,1,1-2.27c.81-1.22,1.31-1.68,2.15-2.81a6.09,6.09,0,0,0,1.08-1.65,68,68,0,0,0-5.62,6c-.15.19.82.3-3.58,5.33C54,75.05,52,76.83,50.82,79c-.7,1.31-.06,1.35-.09,2.13a16.72,16.72,0,0,1-2.17,2.54,35.85,35.85,0,0,0-2.27,4.61C45.54,90,44.42,92,43.57,93.8c-1,2-1.89,4-2.64,6.14a19.57,19.57,0,0,0-1.13,6.91,6.77,6.77,0,0,0,1.14,4.6c.78,1.19,1,2.49.67,5.14a27,27,0,0,1-2.37,7.73c-1,2-2.44,3.14-3.4,4.81.83.66,2.15.12,2.46,2,.36,2.23-1,5.58-1.71,7.36-.62,1.58-1.91,2.78-1.6,4.78s1.77,3.37,2.35,5.2c1.59,5,.48,8.59-.53,11.81S38,164.5,39.57,167c1.31,2.14,4.51,8.87,4.65,11.34s-2.1,2.51.39,6.09c.84,1.21,1.83,1.75,2.6,3.27A10.76,10.76,0,0,1,48,190a11,11,0,0,1,1,2.15c.57,1.76.58,3.28,1.64,5.19.64,1.15,1.36,2.29,1.92,3.4a28.52,28.52,0,0,0,2,3.46C55.78,206,57,208,56.48,208.51c-.11.14-.36.17-.36.39,0,.38.43,1,.87,1.65a4.29,4.29,0,0,1,.78,1.72.75.75,0,0,0,0,.53,7.47,7.47,0,0,0,.91,1.28,15.17,15.17,0,0,1,1.36,2c.17.3.28.55.51.9l2.86.31A1,1,0,0,1,63.45,217Z"/><path class="cls-5" d="M194.08,83.32c-.86-1.5-1.46-2.94-2.32-4.48a6.75,6.75,0,0,1-1.63-1.71,2.24,2.24,0,0,1-.4-1.46,12,12,0,0,0-1.76-4A5.76,5.76,0,0,0,186.59,70,18.3,18.3,0,0,1,185.06,68c-1.39-1.9-2.34-3.36-2.21-3.59-.46-.59-.95-1.22-1.39-1.81-1-1-1.45-1.43-2.44-2.35.25.41.58.91,1,1.53a79.34,79.34,0,0,1,6.18,10.73c1.54,3.21-1.37.14-1,1.9.2.89,1.46,1.41,2.24,2.78a9.76,9.76,0,0,1,1.11,3.55c.14,1.34-1.37,1.63-.7,3.72.4,1.27,1.28,1.68,1.89,2.29a6.1,6.1,0,0,1,1.65,3.52,23.49,23.49,0,0,0,.3,2.93,12.33,12.33,0,0,0,2,3.68h0C194,92,194.11,87.38,194.08,83.32Z"/><path class="cls-5" d="M179.18,154.29c.5-2.7,2-4.72,2.33-7.56a30.25,30.25,0,0,0-.66-8.4c-.47-2.82-.8-5.61-1.5-8.37-.27-1.06-.63-2.07-.92-3.12-.52-1.85-.31-1.51.54-2.72,1-1.47,3.3-4.06,2.75-6.51a15.41,15.41,0,0,0-1.52-2.73,16.93,16.93,0,0,1-1.12-3.08c-.68-2.4-1-5-2.29-7.17-.85-1.42-1.4-1.73-.93-3.18.3-.9.94-1.4,1.21-2.33-.85-1.35.48-2.21,1.05-2.55a14.31,14.31,0,0,1-2.83-5.69c-.62-2.36,0-3.58-.27-5.62a26.59,26.59,0,0,1-.29-3,11.86,11.86,0,0,0,.14-2.45c-.26-1-1.32-2-1.83-2.9a21.34,21.34,0,0,1-1.16-3.2,16.85,16.85,0,0,1-1.16-5.41c-.08-2,.36-2.66-.86-5.28-1-2.1-2.39-3.37-3.45-5.32a11.29,11.29,0,0,1-1.57-5,6.25,6.25,0,0,0-.2-2.43A12,12,0,0,0,164.1,49c-2-1.21-3.06-1.78-5.15-2.85A41.74,41.74,0,0,1,162,51.74c1.11,2.43.92,3.62,1.43,5.82a39.77,39.77,0,0,0,2.39,6.36c.92,2,2.63,4,2.78,6a5.26,5.26,0,0,1-1.76,4c-1.1,1.14-1.47,1.75-1.06,4.42.39,2.5.5,4.09,2.3,6.07,2.26,2.47,2.15,3.35,1,5.65-.88,1.84-1.51,4-2.37,6.07a5,5,0,0,1,3.29,3.88c.63,2.43-.26,3.53-.81,5.45-.69,2.46-.13,3.61,1.49,5.73s2.81,3.66,3,6.61c.12,2.51-1.06,3.85-2.16,5.55-1.28,2-.82,3-.23,5.46a13.16,13.16,0,0,1,.15,6.56c-.23.9-1,2.1-1.07,3-.06,1.25.34,1.49.94,2.46,1.22,2,.93,4.25.85,6.84-.07,2.43-.54,5.06-.86,7.49-2.14-.27-1.05,3.26-.78,4.68a21.62,21.62,0,0,1,.33,5.78c-.16,2.69-.35,9.82-3.27,10.51a10.08,10.08,0,0,0,.51,3.29A109.5,109.5,0,0,0,179,161.09,27,27,0,0,1,179.18,154.29Z"/><path class="cls-5" d="M84.83,218.34c-.1-.25-.21-.5-.31-.77a19.71,19.71,0,0,1-1.4-7.77,31.6,31.6,0,0,1,1-6.81,23.44,23.44,0,0,1,.44-3.28,7.33,7.33,0,0,1-.19-4.47.14.14,0,0,1,0-.06c-1.29-3.6-3.64-7.41-3.09-10.77a28,28,0,0,1-.09-4.31c.21-4.44-1.25-3.6-2.38-6.91-.93-2.74.34-5.81-.37-8.66-.87-3.5-3.14-4.17-4-7.88a24.61,24.61,0,0,1-.32-8.9c.57-3.74,2-3.46,3.22-6,1.36-2.76.39-4.05-.63-6.16-1.74-3.63-1.21-5.62.8-8.5a6.58,6.58,0,0,0,1.62-3.58c.12-1.35-.37-3.19-1.09-3.26.93-4.13-.09-3.58-1.23-5.49-1.22-2.06-.14-3.59.78-6,2.17-5.77.47-10.88-.24-15.26A16,16,0,0,1,78,85.8c.65-2.11,1.89-4.36,1.91-6.5,0-1.61-1.36-2.58-1.09-4.14.44-2.53,4-3.9,4-7.09-1.69-.63-3.25-.61-2.06-5a19.86,19.86,0,0,1,2.07-4.89c1.28-2.28.77-1.41,1.1-3.42.72-4.48,3.09-5.13,4.84-8a6.53,6.53,0,0,0,.78-2,70.77,70.77,0,0,0-9.83,5.33c.49.37.71,1.35.35,2.78-1,3.94-4.19,7.3-6.32,9.48C74,63.88,75.05,64.26,75.4,66c.46,2.28,0,5.44-1.2,9.37-1,3.46-1.76,3.92-3.59,6-2,2.33-1.18,2.56-.47,4C72,89.1,67.75,96,66.72,101.22c-.62,3.14.84,3.14,1.59,5.1a17.09,17.09,0,0,1,.46,8c-.75,4.77-3.15,9.67-3.45,14.49-.31,5.06,4.32,5.82,4,12.05-.14,2.48-1.2,4.63-1.72,6.79a28.9,28.9,0,0,0-.65,8.06c.12,3.37,1.39,4.36,2,7.32a23.83,23.83,0,0,0,.66,3.69c.49,1.36,1.29,2.28,1.79,3.67,1,2.76,1.5,5.64.33,7.1-.56.72-1.52.36-1.28,2.29.19,1.51,1.33,2.56,1.85,3.75a16.8,16.8,0,0,1,1.4,7.27c1.18,2,2.2,4,1.49,5.64-.28.67-1,1.37-.55,2.36.33.79.73,1.56,1,2.34.49,1.44,1,2.9,1.29,4.3a14,14,0,0,1,.53,4.53,9.12,9.12,0,0,0-.25,3.72c.35,1.52,1.44,3.17,1.77,4.62Q82,218.37,84.83,218.34Z"/><path class="cls-6" d="M62.33,219.44c.73,1,1.15,1.69,1.82,2.59,1.36,1.36,2.06,2,3.48,3.29-.63-.93-1.29-2-1.9-2.94q-1.83-1.53-3.57-3.17A2,2,0,0,1,62.33,219.44Z"/><path class="cls-5" d="M151.57,192.59c-1.85-.49-2.41-5.22-2.36-7.83.06-3.61-.22-6.17,2.31-7.37.51-2.25-1.58-4.86-2.16-6.6-1-2.88-.68-6.18-.6-9.48s.35-6.71.19-10c-.13-2.79-2.46-6.9-2.13-9.53.22-1.78,1.52-2,2.42-2.12,1.3-.23,1.75,0,2.81-1.3,2-2.39,0-3.86-.67-7.14a17.75,17.75,0,0,1,.58-9.86c.59-1.53,1.52-2.1.72-4-.68-1.65-1.77-1.46-2.17-3.64-.69-3.73,2.8-3.69,1-6.26-1.2-1.7-4.12-4.65-1.74-6.93a3.8,3.8,0,0,1,1-6.1c2.09-.82,2.7-3.07,4-5.21-2.3-3.7-5.46-7.7-6.8-12.34-.71-2.47-.43-4.21-1.89-6.37-1.28-1.92-2.95-1.87-4.14-3.49-1.41-1.91-.25-4.21-.53-6.39-.13-1-.5-1.84-.58-2.82a30.58,30.58,0,0,1,.26-3.65,11.3,11.3,0,0,1,.09-2.43c.31-1,1.21-1.08,1.51-2,.73-2.2-1.38-2.25-2.18-4.13-.87-2.05-.72-5.45.27-6.07a66.09,66.09,0,0,0-6.76-1.29c.43,4-1.11,4.88-3.33,5.81.6,6,6.69,5,7.48,11.37.75,6.13-2.12,12,.48,18.8a9.14,9.14,0,0,0,2.15,3.22c.64.64,1.95,1.13,2.44,2,1.4,2.61-1,4.17-1.67,5.93s-.71,3.84-1.91,5.33c-1.07,1.31-2.8.91-3.69,2.63,1.28,1.88,5.91,3.37,3.19,6.82-2.27,2.89-1.54,10.16-.51,13,1.48,4.12,3.52,8.47,3.17,13.15a8.33,8.33,0,0,1-1.86,4.72c-.72.94,1.56,4.23,1.1,7.14a26.83,26.83,0,0,0-.23,8.87c.57,2.69-1.69,6.51-1.95,9.34-.2,2.23,2.06,9.09,2.32,10.23.44,1.91-1,3-.49,5,.87,3.76,2.21,6.54.5,10.83-.76,1.94-2.34,3-3.06,4.81a20,20,0,0,0-.71,5.64c-.07,2.09-.15,4.15-.23,6.2-.05,1.36,1.45,3.76,2.32,5.8a89.4,89.4,0,0,0,9.61-6.29A25.37,25.37,0,0,1,151.57,192.59Z"/><path class="cls-7" d="M147.09,236.28l.12-.36a2.54,2.54,0,0,1,.15-1.54,2.34,2.34,0,0,1,1.52-1.45,1.51,1.51,0,0,0,.22-.61c-.48-.41-.8-.69-.25-2.54a5.15,5.15,0,0,1,.94-1.89,2.35,2.35,0,0,0-.14-.52c-2.25-.74-1.91-6.16,0-10,.6-1.2,1.12-1.31,1-2.76-.11-1.22-1-2.24-1.32-3.47a11.15,11.15,0,0,1,1.29-8.12c-1.78-.16-1.91-2.09-1.41-4.33a89.4,89.4,0,0,1-9.61,6.29,8.61,8.61,0,0,1,.54,1.63c.47,2.49-.6,5.17-1.07,7.69a21.87,21.87,0,0,1-2.41,7.07c-.86,1.64-2.13,4-1.76,6s1.65,2.55,1.53,5.3a12.47,12.47,0,0,1-.81,3.72c-.29.8-1.23,2.32-1.1,3.25A78.61,78.61,0,0,0,144.7,239,10,10,0,0,1,147.09,236.28Z"/><path class="cls-7" d="M169.53,226.6a5.71,5.71,0,0,1-.33-2.51c.26-1.43,1.28-2.69,2.53-4.22a15,15,0,0,0,1.41-2.67,20.72,20.72,0,0,1,1.4-2.26,17,17,0,0,0,1.72-2.58,6,6,0,0,0,.47-2.2,20.31,20.31,0,0,0,0-4,35.18,35.18,0,0,1-.73-4.6,24.93,24.93,0,0,1,.89-5.27c.39-1.95.23-3.89,1-6,.63-1.79,2.18-3.75,2.51-5.52s-1.13-2.54-1.08-4.27a15,15,0,0,1,1.05-5.1c.74-1.68,2-3.07,2.82-4.69a3.19,3.19,0,0,0,.47-1.85c-1.4-1.3-3.05-1.89-4-4.51a14.27,14.27,0,0,1-.64-3.32,109.5,109.5,0,0,1-10.86,18.36,5.22,5.22,0,0,1,.11.57,13.49,13.49,0,0,1-.18,4.37c-.3,1.27-1.17,2.29-1.54,3.45a16.93,16.93,0,0,0-.62,4.57c.08,1.93,1.12,1.91,1.95,2.9s.5,1.57.1,3.29a47.61,47.61,0,0,0-1.29,8.43,31.92,31.92,0,0,0-.17,3.81c.16,1.25,1,1.33,1.57,1.86a2.1,2.1,0,0,1,.34,2.58c-.52,1.12-1.89,2.16-2.67,3.09a42.71,42.71,0,0,0-4,5.08c-2.12,3.54-.21,3,.58,3.83s.09,4.67-.53,6.67c-.1.32-.2.58-.29.83a69.29,69.29,0,0,0,6.62-3,2.53,2.53,0,0,1,0-.48C168.18,230.07,169.72,227.68,169.53,226.6Z"/><path class="cls-7" d="M197.68,104.17c1.28,2.64,2,3.86,1.68,6.34-.21,1.45-.55,4,.37,5.87a16.63,16.63,0,0,1,1.51,2.72,10.68,10.68,0,0,1,.4,4.34c-.46,2.58-1.93,4.09-1.55,7.73a7,7,0,0,1-.14,3.48,15.92,15.92,0,0,0-1.08,3.5c.72.74,1.77,1.56,1.55,3.44-.18,1.46-1,2.68-1.19,4.24-.29,1.9.24,3,.25,5,0,2.82-.25,2.65,1,3.69s.09,3-.58,4.76a38.72,38.72,0,0,0-1.68,6,10.83,10.83,0,0,0,.36,4.69,18.25,18.25,0,0,1,.42,4.5c0,1.53.37,2.74-.18,4.53-.69,2.26-1.61,3.25-2.72,3.72a7.93,7.93,0,0,0-.25,3.95,9.37,9.37,0,0,1-1.12,4.19c-.64,1.46-1.23,2.91-1.79,4.34-.78,2-.25,1.86-.59,3.25a33.46,33.46,0,0,1-2.08,4.44,13.83,13.83,0,0,0-1.43,3.33c-.14.85.47.57.19,1.51a37.41,37.41,0,0,1-2,4.15,17.72,17.72,0,0,1-2.74,4.08c-.9.9-1.7,1.56-2.58,2.41-1.16,2.13.21.65-.11,1.55-.22.61-1.69,2.58-2.3,3.55-.24.38-.66,1-1.06,1.62a66.63,66.63,0,0,0,8-8.17c.16-.19.33-.46.85-1.25s1.92-2.91,3.14-4.36c1-1.15,2.23-2.46,3.31-3.88,1.55-2,1.45-2.66,1.3-3-.23-.55-.9-3,2-6.69,1.29-1.62,2-2.08,2.84-4.26,1.1-2.91,2-2.7,3.55-5,1.63-2.51.59-3,1-4.84.44-2,1.85-4.57,2.89-6.73-1.71.78-1.19-2.74-.36-5.41s2-4.51,2-7.35a9.57,9.57,0,0,0-.11-2.12c-.18-.5-.6-.29-.87-.55-.67-.68-.61-2.14-.44-3.73a37.73,37.73,0,0,1,.61-4.67,17.52,17.52,0,0,1,.9-3.53c-.71-.86-1.29-4-.79-5.73.39-1.29,1.65-1.52,2.29-2,.51-2.58-2.54-6.83-3-9.41-.49-3.06,2.84-1.59,1.31-4.95a13.4,13.4,0,0,1-1.31-3.2,4.85,4.85,0,0,0-.89-2.07,9.79,9.79,0,0,1-.8-1.29c-.22-.83.18-.93.19-1.64a4.53,4.53,0,0,0-.76-2.37,9.44,9.44,0,0,1-1.56-4,2.71,2.71,0,0,0,1.39-2.16,8.92,8.92,0,0,0-.31-3.52c-.75-.46-.93.46-1.82-.75a21.78,21.78,0,0,1-1.53-2.93,6.42,6.42,0,0,1-.81-3.47,3.44,3.44,0,0,0-.21-2.54c-.52-1.06-1.21-1.75-1.78-3.06a5.77,5.77,0,0,1-.58-2.56c0-.64.1-1.16.1-1.76s.54-.62,0-1.91a17.82,17.82,0,0,1-3.32-4c-.17-.27-.31-.53-.47-.79,0,4.06-.06,8.63-.33,13.58a24.13,24.13,0,0,1,2.07,3.12C196.52,101.36,197,102.8,197.68,104.17Z"/><path class="cls-7" d="M63.5,217.66a2,2,0,0,1-.07-.39L60.57,217c.08.11.16.24.27.38l.82,1.13a2.93,2.93,0,0,1,.21.35l.29.39q1.74,1.64,3.57,3.17c-.63-1-1.2-2-1.59-2.71C63.54,218.57,63.41,218,63.5,217.66Z"/><path class="cls-7" d="M89.87,232.34a15.68,15.68,0,0,1-.46-3.87,8.06,8.06,0,0,0-1.16-4.27c-.52-.85-1.1-1.71-1.59-2.58a18.87,18.87,0,0,1-1.83-3.28q-2.88,0-5.88,0c0,.09,0,.18.07.27a1.8,1.8,0,0,1-.83,1.8c-.84.74.5,2,1.56,3.28a6.82,6.82,0,0,1,1.71,3.43,3.32,3.32,0,0,0,1,2.42c.49.51,1.06,1,1.5,1.59a23.51,23.51,0,0,1,2.23,3.32c1.69.66,3.42,1.27,5.19,1.8a7.77,7.77,0,0,1-1.06-1.83A5.33,5.33,0,0,1,89.87,232.34Z"/><path class="cls-7" d="M119,226.37c.56-.47,1.78-.63,1.92-1.91a17.18,17.18,0,0,0-1.19-3.52,20.59,20.59,0,0,1-1.62-7.13,111.55,111.55,0,0,1-11.24,2.56c0,.2-.11.4-.15.6.69,1.46,1.54.14,2.18,1.77.36.91.25,3.88.32,4.95.22,3.4,0,6.58.71,9.63a15.82,15.82,0,0,1,.68,4c0,.73-.09,1.34-.14,2q3,.1,6.07,0a26.93,26.93,0,0,1-1-6.14A9,9,0,0,1,119,226.37Z"/></g></svg>